<?xml version="1.0" encoding="utf-8"?>
<!-- Generator: Adobe Illustrator 25.2.0, SVG Export Plug-In . SVG Version: 6.00 Build 0)  -->
<svg version="1.1" id="Layer_1" xmlns="http://www.w3.org/2000/svg" xmlns:xlink="http://www.w3.org/1999/xlink" x="0px" y="0px"
	 viewBox="0 0 895 329" style="enable-background:new 0 0 895 329;" xml:space="preserve">
<style type="text/css">
	.st0{fill:url(#SVGID_1_);}
</style>
<linearGradient id="SVGID_1_" gradientUnits="userSpaceOnUse" x1="14.7934" y1="178.2616" x2="884.7592" y2="178.2616">
	<stop  offset="0" style="stop-color:#CCCCCB"/>
	<stop  offset="1" style="stop-color:#A9A8A9"/>
</linearGradient>
<path class="st0" d="M116.3,42.5c7,3.7,14.2,7.1,21.4,10.4c-1.9,1.2-3.9,2.4-5.8,3.6c-0.5-0.4-1-0.7-1.6-0.9
	c-4.7-1.8-9.3-3.7-14-5.5C116.3,47.6,116.3,45.1,116.3,42.5z M87.3,47.6c0.2-0.5,0.3-1.1,0.3-1.7c-0.1-3.1-0.2-6.2-0.3-9.3
	c5.2,9,11.5,17.2,19.1,24.5c0.2,2.3,0.4,4.5,0.5,6.8C98.8,62.5,92.3,55.7,87.3,47.6z M687,198.6c-12.7,0.3-25.3,1.7-37.9,3.3
	c-25.2,3.2-50.1,8.1-75.1,13c-0.6-2.5-1.1-5.1-1.4-7.6c50.5-14.1,103-22.9,155.4-19.3c-2.8,3.5-5.8,6.9-8.8,10.3
	C708.5,198.7,697.7,198.3,687,198.6z M691.5,251.3c1.1-5.6,2.3-11.1,3.8-16.6c49.1-20,106.3-16.7,153.3,7.8
	c13.1,6.9,25.3,15.3,36.2,25.3c0,0.1,0,0.1-0.1,0.2c-1.2,4.6-2.5,9.3-3.7,13.9C828.9,238.3,754.7,227.1,691.5,251.3z M481.4,236.8
	c-1.2-2.8-2.1-5.8-2.7-8.8c19.1-3.6,38.2-7.8,57.2-12.1c0.3,2.3,0.8,4.6,1.4,6.8C518.6,227.1,499.9,231.8,481.4,236.8z M111.2,278.8
	c-33.5-17.3-62.4-39.9-90.5-64.7c0,0-0.1-0.1-0.1-0.1c-2.2-6-4.2-12.1-5.8-18.2c40,38.5,87.4,69,139.1,89.5
	c15.9,6.3,32.3,11.7,48.9,16c0.5,0.1,1,0.2,1.4,0.2c1,4.4,2.3,8.7,4.1,12.8C174.1,308.5,141.9,294.6,111.2,278.8z M271.2,319.9
	c-7.7,0.2-15.3,0-22.9-0.9c0-0.4-0.1-0.8-0.2-1.3c-1.4-4.7-2.8-9.3-4.2-14c7.8,0.6,15.6,0.6,23.4,0.1
	C268.2,309.3,269.5,314.7,271.2,319.9z M233.8,269.2c-0.2,0-0.5,0-0.7,0.1c-3.9-3.1-7.7-6.3-11.3-9.7c36.2,2.8,72.6,0.3,108.6-4.4
	c19.2-2.5,38.3-5.5,57.3-9.3c18.4-3.7,36.7-7.5,55.2-10.5c0.8,3.4,1.9,6.7,3.2,9.9C376.5,260.8,305.3,270.9,233.8,269.2z"/>
</svg>
