<?xml version="1.0" encoding="utf-8"?>
<!-- Generator: Adobe Illustrator 25.2.0, SVG Export Plug-In . SVG Version: 6.00 Build 0)  -->
<svg version="1.1" id="Layer_1" xmlns="http://www.w3.org/2000/svg" xmlns:xlink="http://www.w3.org/1999/xlink" x="0px" y="0px"
	 viewBox="0 0 895 329" style="enable-background:new 0 0 895 329;" xml:space="preserve">
<style type="text/css">
	.st0{fill:#7D7D7D;}
</style>
<path class="st0" d="M140.4,18.3c0.3,0,0.6-0.1,0.8-0.2c-0.3,2.7-0.4,5.3-0.4,8c-3.4-1.5-6.9-3-10.3-4.7
	C133.6,20,136.9,18.9,140.4,18.3z M544.2,207.8c0-0.1-0.1-0.2-0.1-0.3c4.5-44.7,14.2-88.8,29-131.2c0,0.7,0.1,1.5,0.1,2.2
	c0,0.4,0.1,0.8,0.2,1.1c0,0,0,0,0,0C559.1,121.3,549.5,164.1,544.2,207.8z M189.5,66c-23.8,14.7-43.8,34.7-58.3,58.6
	c-0.3,0.6-0.5,1.1-0.6,1.7c-3.1-1.2-6.2-2.4-9.3-3.7c17.4-26.5,42.1-48.6,68.8-65.7C189.8,60,189.6,63,189.5,66z M470.7,105.5
	c-10.6,41.7-17,84.5-19.1,127.5c-0.3-1.2-0.5-2.4-0.8-3.6c1.2-43,7.9-85.6,19.8-126.8c0.1,0.7,0.1,1.3,0.2,2c0,0.2,0.1,0.3,0.1,0.5
	C470.8,105.2,470.8,105.3,470.7,105.5z"/>
</svg>
