<?xml version="1.0" encoding="utf-8"?>
<!-- Generator: Adobe Illustrator 25.2.0, SVG Export Plug-In . SVG Version: 6.00 Build 0)  -->
<svg version="1.1" id="Layer_1" xmlns="http://www.w3.org/2000/svg" xmlns:xlink="http://www.w3.org/1999/xlink" x="0px" y="0px"
	 viewBox="0 0 895 329" style="enable-background:new 0 0 895 329;" xml:space="preserve">
<style type="text/css">
	.st0{fill:#FFFFFF;}
</style>
<path class="st0" d="M871.7,220.2c0-0.2,0-0.4,0-0.5c-2.5-15-6.6-29.7-12.2-43.9c-5.7-14.2-12.8-27.8-21.3-40.5
	c-4.8-7.2-10.1-14-15.7-20.5c-0.9-1-2.6-0.9-3.5,0c-0.2,0.2-0.3,0.4-0.4,0.6c-0.4,0.7-0.5,1.5,0,2.5c6.7,10.7,12.3,22.2,16.8,34
	c4.7,12.3,8.4,25.1,10.6,38.2c1.1,6.7,1.8,13.5,1.9,20.3c0,0.2,0,0.3,0,0.4c-0.4,1.2,0,2.7,1.6,3.2c6.7,2.1,13.1,5.3,18.6,9.7
	c1.1,0.8,2.5,1,3.5,0C872.4,222.8,872.6,221.1,871.7,220.2z M150.6,260.2c0,0,0-0.1,0.1-0.1c0,0,0-0.1,0-0.1
	c0.1-0.1,0.1-0.3,0.1-0.4c0,0,0,0,0,0c0.2-0.6,0.1-1.3-0.3-1.9c-2.9-5.9-6.1-11.7-9-17.7c-0.2-0.6-0.7-1.2-1.6-1.4
	c-11-2.8-21.7-6.3-32.5-9.6c-1-0.3-1.8,0-2.4,0.6c0,0-0.1,0-0.1,0.1c-0.9,0.9-1,2.7,0,3.5c12.9,10.8,27,20.6,42.2,28c0,0,0,0,0,0
	c0.7,0.4,1.6,0.4,2.3,0.1c0,0,0,0,0,0c0.1,0,0.1,0,0.2-0.1c0.1,0,0.1-0.1,0.2-0.1c0.1,0,0.1-0.1,0.1-0.1c0.1-0.1,0.1-0.1,0.2-0.2
	c0.1-0.1,0.1-0.1,0.2-0.2c0.1-0.1,0.1-0.1,0.1-0.2C150.5,260.3,150.6,260.2,150.6,260.2z"/>
</svg>
