<?xml version="1.0" encoding="utf-8"?>
<!-- Generator: Adobe Illustrator 25.2.0, SVG Export Plug-In . SVG Version: 6.00 Build 0)  -->
<svg version="1.1" id="Layer_1" xmlns="http://www.w3.org/2000/svg" xmlns:xlink="http://www.w3.org/1999/xlink" x="0px" y="0px"
	 viewBox="0 0 895 329" style="enable-background:new 0 0 895 329;" xml:space="preserve">
<style type="text/css">
	.st0{fill:currentColor;}
</style>
<path class="st0" d="M391.3,53.9c0,2.8-2.2,5-5,5s-5-2.2-5-5s2.2-5,5-5S391.3,51.1,391.3,53.9z M248.4,17.7c-2,0-3.6,1.6-3.6,3.6
	s1.6,3.6,3.6,3.6s3.6-1.6,3.6-3.6S250.4,17.7,248.4,17.7z M877.5,201.8c-20.4-69.3-72.2-122.4-131.4-161.2
	c7.7,15.3,13.5,31.7,18.5,47.9c4.6,2.3,9.2,4.7,13.7,7.3c5,2.9,0.5,10.7-4.5,7.8c-24.7-14.3-52.2-23.4-79.7-30.6
	s-55.8-12.8-84.3-11.8c-6.3,14.9-11.9,30.1-16.8,45.6c-3.3-14.3-15.5-25.2-30.5-26.6c1.8-5.4,3.7-10.9,5.7-16.3
	c-19.2,2-38.2,5.4-56.8,10.4c-21.8,45.2-28,95.4-33.1,144.8c19.1-3.6,38-7.8,56.9-12.1c2.1-20.4,5.2-40.8,9.4-60.8
	c4.4,2,9.4,3.2,14.6,3.2c9.7,0,18.5-4,24.9-10.5c-4.8,19.5-8.4,39.2-10.9,59.1c59.7-16.4,121.9-25.1,183.5-15.6
	c5.7,0.9,3.3,9.5-2.4,8.7c-5.4-0.8-10.8-1.5-16.2-2c-0.1,0.7-0.4,1.4-0.9,2c-8.1,10.5-17.1,20.2-26.9,29.2
	c8.8-2.5,17.7-4.4,26.8-5.7c52.8-7.1,108.1,8.3,148.9,42.6C885.7,238.3,882.8,219.8,877.5,201.8z M417.8,102.8
	c-2.4-12.5-13.3-21.9-26.5-21.9c-1.1,0-2.2,0.1-3.3,0.2c0.1-0.6,0.2-1.2,0.2-1.8c0-4.6-3.8-8.4-8.4-8.4c-2.3,0-4.4,0.9-5.9,2.4
	c-19.4-25.9-50.4-42.7-85.2-42.7c-16.8,0-32.7,3.9-46.8,10.8c-1.3-3.5-4.6-6-8.6-6c-5.1,0-9.2,4.1-9.2,9.1c0,2.3,0.9,4.5,2.3,6.1
	c-22.8,16.5-38.8,41.7-43.1,70.8c-1.2-0.2-2.4-0.3-3.6-0.3c-10.6,0-19.2,8.6-19.2,19.2c0,1.4,0.2,2.8,0.4,4.1
	c-21-4.5-41.4-11.7-60.7-21.8c-5.1-2.7-0.6-10.5,4.5-7.8c2.7,1.4,5.4,2.8,8.2,4.1c17.7-27.4,42.9-50.3,70.2-68.2
	c-21.8-6.2-43-14.4-63.4-24.5c-3.2-1.6-2.7-5.3-0.5-7.1c0.3-0.9,0.8-1.8,1.8-2.5c1.9-1.4,4-2.6,6.1-3.6c-13-2.1-27,0.1-39.1,4.6
	c4.5,11.6,11,22.2,19.3,31.4c0-4.5,0.1-9-0.2-13.6c-0.2-3.1,2.3-4.5,4.7-4.3c1-0.2,2-0.1,3.1,0.5c11.3,6.1,22.9,11.7,34.7,16.7
	c2.1,0.9,2.7,2.7,2.2,4.4c0,1.3-0.7,2.6-2.2,3.5c-24.5,14.2-47.6,30.6-69,49c-6.1-7.1-15.2-11.6-25.3-11.6c-1.3,0-2.5,0.1-3.8,0.2
	c5-4.7,10-9.4,15.1-14c-2.8-4.1-5.2-8.4-7.2-12.9c-17.9,12.3-34.1,26.9-48.3,43.3c0,0,0,0,0,0.1C9.6,119.5,9,128.8,9,138
	c4.3-4.9,8.7-9.7,13.2-14.4c-0.1,1.1-0.2,2.3-0.2,3.4c0,10,4.4,19,11.5,25.2c-7.7,8.9-15.1,18-22.1,27.5c0.1,0.1,0.1,0.3,0.1,0.5
	c0.4,0.2,0.8,0.5,1.2,0.9c11.6,11.8,23.9,23,36.9,33.4c41.8,33.6,90.2,58.8,141.5,74.2c-12.6-12-23.8-25.2-33.6-39.5
	c-2.7-3.9,2.1-7.7,5.7-6.2c0.2,0,0.4,0,0.6,0.1c7.9,1.5,15.8,2.8,23.7,3.9c1.8,0.3,2.8,1.3,3.1,2.6c13.7,17.6,30.5,32.2,49.3,44.1
	c0.5,0.3,0.8,0.6,1.1,1c4.9,0.5,9.8,0.7,14.7,0.7c-17.6-10.5-34.7-21.9-48.2-37.5c-3-3.5,0.4-8.2,3.8-7.8c0.5-0.1,1-0.2,1.6-0.1
	c38.5,3.9,77,1.5,115.3-3.4c19.7-2.5,39.3-5.7,58.8-9.6c18.1-3.6,36.1-7.3,54.3-10.3c0.1-0.5,0.2-0.9,0.4-1.3
	c1.7-46.9,9.7-93.4,23.9-138.2C449.8,91.9,433.7,97.3,417.8,102.8z M367.5,120.7c-6.2,2.2-12.4,4.4-18.7,6.6
	c-3.3,1.1-6.7,2.7-10.2,3c-3,0.2-5.9,0.6-8.9,1.3c-5.9,1.4-11.5,3.7-17.3,5.6c-23,7.4-48.1,10.9-72.1,12.6
	c-5.1,0.4-10.1,0.6-15.2,0.7c0.1-0.9,0.2-1.8,0.2-2.7c0-0.6,0-1.3-0.1-1.9c15-1.6,26.6-14.3,26.6-29.7c0-16.5-13.4-29.9-29.9-29.9
	c-3.4,0-6.6,0.6-9.6,1.6c15.4-28,45.1-47,79.3-47c34.7,0,64.9,19.6,80,48.3c-4.7,4.9-7.6,11.5-7.6,18.7
	C364.3,112.5,365.5,116.9,367.5,120.7z M39.9,23.7c2.2,5.4,4.5,10.8,6.6,16.3c-10,7.4-19.6,15.4-28.8,23.8c1-7,2.4-13.8,4.1-20.7
	c0.2-0.7,0.2-1.3,0.1-1.9c0.2-0.2,0.3-0.4,0.5-0.6C27.2,34,33.1,28.3,39.9,23.7z"/>
</svg>
