<?xml version="1.0" encoding="utf-8"?>
<!-- Generator: Adobe Illustrator 25.2.0, SVG Export Plug-In . SVG Version: 6.00 Build 0)  -->
<svg version="1.1" id="Layer_1" xmlns="http://www.w3.org/2000/svg" xmlns:xlink="http://www.w3.org/1999/xlink" x="0px" y="0px"
	 viewBox="0 0 895 329" style="enable-background:new 0 0 895 329;" xml:space="preserve">
<style type="text/css">
	.st0{fill:currentColor;}
</style>
<path class="st0" d="M76.9,78.8c-4.1-5.4-7.6-11.1-10.2-17.4c-0.3-0.8-0.8-1.4-1.3-2c-0.6-2.7-3.5-5-6.5-3
	C38,70.3,19.2,86.9,3,105.9c-1.2,1.4-1.4,3-0.9,4.4c-1.8,13-2.5,26-1.7,39.1c0.1,2.2,1.5,3.6,3.2,4.1c1.5,0.8,3.3,0.7,4.8-1
	C28.9,128.6,51,106.1,74.4,85C77,84.3,78.9,81.6,76.9,78.8z M9,138c0-9.3,0.7-18.5,2.1-27.7c0,0,0,0,0-0.1
	C25.3,93.9,41.5,79.3,59.4,67c2.1,4.5,4.5,8.8,7.2,12.9C46.4,98.2,27.1,117.6,9,138z M580.3,79.2c0-0.2,0-0.5,0-0.8
	c-0.4-6.5-0.5-12.9-0.3-19.4c0-1.3-0.5-2.2-1.3-2.7c-0.2-0.2-0.4-0.4-0.6-0.6c-0.7-1-1.9-1.7-3.6-1.6c-22.2,1.9-44.2,5.6-65.8,11.4
	c-0.7,0.2-1.3,0.5-1.8,0.9c-1.2,0.1-2.3,0.8-3,2.3c-22.8,46.9-29.5,98.9-34.7,150.2c-0.3,0.6-0.5,1.4-0.5,2.2c0,0.4,0.1,0.9,0.1,1.3
	c-0.1,0.6-0.1,1.2-0.2,1.7c-0.1,1.2,0.2,2.1,0.7,2.8c0.8,5.3,2.4,10.4,4.6,15.3c0.2,0.5,0.5,0.9,0.7,1.2c0.7,2,2.6,3.6,5.3,2.9
	c21.1-5.8,42.2-11.1,63.6-16c1.1-0.2,1.8-0.7,2.4-1.4c1.6-0.2,3.1-1.3,3.3-3.3c4.6-49.3,14.7-97.6,31-144.4
	C580.6,80.6,580.5,79.9,580.3,79.2z M511.4,74.2c18.6-5,37.6-8.5,56.8-10.4c-17.1,46.1-28,94.2-32.9,143.2
	c-18.9,4.3-37.9,8.5-56.9,12.1C483.3,169.6,489.6,119.4,511.4,74.2z M481.4,236.8c-1.2-2.8-2.1-5.8-2.7-8.8
	c19.1-3.6,38.2-7.8,57.2-12.1c0.3,2.3,0.8,4.6,1.4,6.8C518.6,227.1,499.9,231.8,481.4,236.8z M544.2,207.8c0-0.1-0.1-0.2-0.1-0.3
	c4.5-44.7,14.2-88.8,29-131.2c0,0.7,0.1,1.5,0.1,2.2c0,0.4,0.1,0.8,0.2,1.1c0,0,0,0,0,0C559.1,121.3,549.5,164.1,544.2,207.8z
	 M56,39.8c-3-8.1-6.6-15.9-9.6-23.9c-0.4-1-1-1.7-1.7-2.2c-1.3-1.1-3.1-1.5-5-0.4c-10,5.8-18.4,13.6-25.1,23c-0.7,1-0.9,2.1-0.8,3
	c-0.3,0.4-0.6,1-0.7,1.6C10.5,51.4,8.7,62.1,7.7,73c0,0.2,0,0.5,0,0.7c-2.7,4.1,3.1,9.5,7,5.6c12-12,24.9-23.1,38.6-33.2
	c0.7-0.5,1.2-1.2,1.5-1.9C56,43.3,56.7,41.8,56,39.8z M39.9,23.7c2.2,5.4,4.5,10.8,6.6,16.3c-10,7.4-19.6,15.4-28.8,23.8
	c1-7,2.4-13.8,4.1-20.7c0.2-0.7,0.2-1.3,0.1-1.9c0.2-0.2,0.3-0.4,0.5-0.6C27.2,34,33.1,28.3,39.9,23.7z M789.9,61.5
	c-17.1-14.1-35.4-26.7-54.4-38.2c-2-1.2-4-0.6-5.3,0.7c-1.5,1.2-2.3,3.3-0.9,5.4c0,0,0,0.1,0.1,0.1c0,0,0,0,0,0c0,0,0,0,0,0
	c0.1,0.1,0.1,0.2,0.2,0.3c10.6,16.4,17.9,34.9,23.9,53.5c-18.4-8-37.7-14.1-57.1-19.1c-28.8-7.5-58.4-13.3-88.3-12.1
	c-0.8,0-1.5,0.2-2,0.6c-1.4-0.1-2.8,0.6-3.5,2.3c-20,46.5-32.9,96-38.9,146.3c-0.1,0.3-0.2,0.6-0.3,0.9c-0.4,0.9-0.4,2-0.1,3
	c0,0.7,0.1,1.4,0.3,1.9c0.5,4.9,1.4,9.6,2.9,14.3c0.9,2.8,3.5,3.5,5.7,2.9c0.2,0,0.5,0,0.7-0.1c25.9-5.1,51.8-10.4,78-13.6
	c12-1.5,24-2.8,36.1-3.1c7.8-0.2,15.7-0.1,23.5-0.1c-5.7,5.6-11.7,11-18,16c-1.7,0.1-3.4,1-4.1,3.1c-3.3,9.6-5,19.7-7,29.6
	c-0.7,1.1-0.6,2.5-0.1,3.7c1.1,2.9,5,4,7.2,2.2c62.8-27.3,139.9-15.7,190.9,30.2c0.9,0.8,1.9,1.2,2.9,1.2c2.2,0.7,4.9,0,5.7-2.9
	c1.8-6.8,3.6-13.5,5.4-20.3c0,0,0-0.1,0-0.1c0.8-0.7,1.4-1.8,1.5-3.2C897.9,185.4,851.2,111.9,789.9,61.5z M572.6,207.3
	c2.2-0.6,4.4-1.2,6.6-1.8c0,2.8,0.2,5.5,0.6,8.3c-1.9,0.4-3.9,0.8-5.8,1.1C573.4,212.4,572.9,209.9,572.6,207.3z M645.9,202.3
	c-18.3,2.4-36.5,5.7-54.7,9.2c-0.5-3-0.7-6.1-0.2-9.1c18.1-4.5,36.5-8.3,54.9-10.9C645.9,195.2,645.9,198.7,645.9,202.3z
	 M587.3,212.3c-1.2,0.2-2.4,0.5-3.6,0.7c-0.3-2.8-0.5-5.7-0.5-8.6c1.2-0.3,2.5-0.6,3.7-1C586.7,206.5,586.8,209.4,587.3,212.3z
	 M649.9,201.8c0-3.5,0-7.1,0-10.6c0-0.1,0-0.1,0-0.2c1.7-0.2,3.3-0.4,5-0.6c0,3.6,0,7.2,0,10.8C653.2,201.4,651.6,201.6,649.9,201.8
	z M687,198.6c-8.7,0.2-17.4,1-26.1,1.9c0-3.6,0-7.2,0-10.8c22.3-2.4,44.7-3.2,67.1-1.6c-2.8,3.5-5.8,6.9-8.8,10.3
	C708.5,198.7,697.7,198.3,687,198.6z M718,227.3c-1.4,5.4-2.2,11-2.4,16.6c-1,0.2-2.1,0.5-3.1,0.8c0.6-5.6,1.6-11.2,2.9-16.7
	C716.2,227.7,717.1,227.5,718,227.3z M708.4,245.8c-1.8,0.5-3.6,1-5.4,1.6c1.1-5.6,2.3-11.1,3.4-16.7c1.5-0.5,3-1,4.6-1.4
	C709.8,234.7,708.9,240.2,708.4,245.8z M695.2,234.8c1.5-0.6,3.1-1.2,4.6-1.8c-1.1,5.5-2.3,11-3.4,16.5c-1.7,0.6-3.3,1.2-5,1.8
	C692.6,245.8,693.7,240.2,695.2,234.8z M719.6,243c0.3-5.7,1.3-11.3,2.8-16.8c42.2-9.6,87.6-3.8,126.1,16.4c3.1,1.6,6.1,3.3,9.1,5.1
	c-2.3,4.7-4.1,9.5-5.4,14.6C812.1,240.2,764.4,233.4,719.6,243z M857.6,265.4c1.2-5,2.9-9.8,5.1-14.5c1.2,0.8,2.3,1.5,3.4,2.3
	c-0.5,0.2-1,0.7-1.4,1.4c-1.7,4-3.4,8-5.1,12C859,266.2,858.3,265.8,857.6,265.4z M884.7,268c-1.2,4.6-2.5,9.3-3.7,13.9
	c-5.2-4.4-10.6-8.4-16.2-12.1c1.7-4.1,3.5-8.1,5.2-12.2c0.2-0.5,0.3-1.1,0.2-1.6c5,3.7,9.9,7.6,14.5,11.8
	C884.7,267.9,884.7,268,884.7,268z M737.1,214.4c-9.1,1.2-18,3.1-26.8,5.7c9.8-8.9,18.8-18.7,26.9-29.2c0.5-0.6,0.8-1.3,0.9-2
	c5.4,0.5,10.8,1.2,16.2,2c5.7,0.9,8.1-7.8,2.4-8.7c-61.6-9.5-123.8-0.8-183.5,15.6c5.9-46.8,18.1-93.3,36.6-136.7
	c28.6-1,56.8,4.6,84.3,11.8c27.5,7.2,54.9,16.4,79.7,30.6c5,2.9,9.6-4.9,4.5-7.8c-4.5-2.6-9-5-13.7-7.3c-5-16.2-10.8-32.6-18.5-47.9
	c59.2,38.8,111,91.9,131.4,161.2c5.3,18,8.2,36.5,8.5,55.2C845.2,222.7,789.9,207.3,737.1,214.4z M477.8,104.6
	c-0.8-7.1-1.2-14.1-1.4-21.2c0-0.4,0-0.7,0-1c0-0.1,0-0.2,0-0.3c0-0.9-0.3-1.6-0.8-2.1c-0.5-2.3-2.5-4.3-5.5-3.5
	c-25.1,7.3-49.7,15.9-74.3,24.7c-12.6,4.5-25.1,9-37.7,13.5c-5.4,1.9-10.8,4-16.2,5.7c-6,1.9-12.5,2-18.6,3.8
	c-11.6,3.5-22.7,7.3-34.6,9.8c-11.9,2.5-24,4.5-36.1,5.8c-23.7,2.5-47.9,2.7-71.5-0.6c-14.3-2-28.5-5.2-42.2-9.7c0,0,0,0,0-0.1
	c13.9-22.8,32.9-41.9,55.7-55.8c1.2-0.7,1.8-1.7,2-2.7c1-0.7,1.7-1.8,1.7-3.4c0.1-5.5,0.6-11,1.4-16.4c0.3-1.9-0.5-3.5-1.8-4.5
	c-0.5-0.7-1.2-1.3-2.1-1.6c-0.4-0.2-0.8-0.3-1.2-0.3c-16.7-4.2-33-9.6-48.8-16.2c-0.2-4.2,0-8.5,0.6-12.4c0.1-0.4,0-0.7,0-1.1
	c1.2-1.9,1-4.5-1.7-5.7c-19.5-8.7-43.2-6.9-62.7,1.3c-0.4,0.2-0.7,0.4-1,0.6c-2,0.3-3.7,1.7-3.6,4.3c0.3,10.2,0.7,20.4,1,30.5
	c-0.9,1.2-1.1,2.9-0.1,4.6c6.1,10.5,14.4,19.2,24.6,25.7c-37.9,27.8-71.4,61.3-99.5,99.2c-1.3,1.8-1,3.5,0.1,4.8
	c-0.5,0.9-0.8,1.9-0.6,3.1c1.7,11.6,5,22.8,9.1,33.7c0.2,0.6,0.5,1.1,0.9,1.5c0.2,0.7,0.6,1.4,1.3,2c22.3,19.7,45.3,38.9,70.8,54.4
	c25.6,15.5,53.7,28.6,82,38.2c16,5.4,32.4,9.3,49.1,11.4c3.1,0.4,4.5-2,4.2-4.5c0-0.8-0.2-1.6-0.6-2.4c-1.4-2.4-2.6-4.8-3.6-7.3
	c7.5,6.3,15.4,11.9,23.8,17c1.4,0.8,2.7,0.8,3.9,0.3c11.1,1.5,22.2,1.9,33.5,1.2c4.5-0.3,5.5-5.8,3-8c0.1-0.6,0.1-1.3-0.2-2.1
	c-2-6-3.5-12.1-4.5-18.4c-0.2-1.1-0.7-1.9-1.3-2.4c-0.1-1.3-0.7-2.5-2.2-3.3c-8.9-5.1-17.8-10.3-26.4-16
	c70.2,0.4,140.1-10.2,208.5-25.7c0.7-0.2,1.3-0.5,1.8-0.8c1.1-0.5,1.9-1.5,2-3c1.1-47.7,7.6-95.2,19.4-141.4
	c0.1-0.4,0.1-0.8,0.1-1.2C477.8,105.7,477.9,105.2,477.8,104.6z M189.5,66c-23.8,14.7-43.8,34.7-58.3,58.6c-0.3,0.6-0.5,1.1-0.6,1.7
	c-3.1-1.2-6.2-2.4-9.3-3.7c17.4-26.5,42.1-48.6,68.8-65.7C189.8,60,189.6,63,189.5,66z M140.4,18.3c0.3,0,0.6-0.1,0.8-0.2
	c-0.3,2.7-0.4,5.3-0.4,8c-3.4-1.5-6.9-3-10.3-4.7C133.6,20,136.9,18.9,140.4,18.3z M87.3,47.6c0.2-0.5,0.3-1.1,0.3-1.7
	c-0.1-3.1-0.2-6.2-0.3-9.3c5.2,9,11.5,17.2,19.1,24.5c0.2,2.3,0.4,4.5,0.5,6.8C98.8,62.5,92.3,55.7,87.3,47.6z M20.6,214
	c-2.2-6-4.2-12.1-5.8-18.2c4,3.8,8,7.6,12.1,11.2c1,5.6,2.5,11.1,4.5,16.4c-3.6-3.1-7.2-6.2-10.7-9.3C20.7,214,20.6,214,20.6,214z
	 M44.6,221.9c1.8,5.9,3.9,11.7,6.2,17.4c-0.9-0.7-1.7-1.4-2.6-2.1c-3-5.7-5.3-11.7-6.8-17.9C42.5,220.2,43.6,221,44.6,221.9z
	 M36.5,215.3c0.9,5.6,2.5,11,4.6,16.2c-1-0.8-2-1.6-2.9-2.4c-2.7-5.7-4.8-11.6-6.3-17.7C33.4,212.6,35,214,36.5,215.3z M57.3,244.3
	c-2.6-5.9-5-11.9-7-18c31.6,24.3,66.5,44.2,103.6,58.9c0.5,0.2,1,0.4,1.5,0.6c1.6,5.1,3.3,10.1,4.9,15.2c-16.8-6.3-33.1-14-49-22.2
	C92,268.8,74.3,257.1,57.3,244.3z M165.1,302.7c-1.6-5-3.3-10-4.9-15.1c2.7,1,5.4,2,8.1,3c0.6,4.9,1.7,9.7,3.3,14.3
	C169.4,304.2,167.2,303.5,165.1,302.7z M178.8,307.2c-2-4.6-3.4-9.5-4.2-14.4c9.3,3.1,18.7,5.9,28.2,8.4c0.5,0.1,1,0.2,1.4,0.2
	c1,4.4,2.3,8.7,4.1,12.8C198.3,312.5,188.4,310.1,178.8,307.2z M212.4,294.5c-0.2-0.2-0.4-0.3-0.6-0.5c-0.6-1.8-2.2-2.6-3.9-2.4
	c-13.4-11.4-25.6-24.1-36.2-38.2c4.1,0.7,8.1,1.3,12.2,1.9c14,17.6,30.6,32.4,49.5,44.7c0,0.1,0,0.1,0.1,0.2c1.5,5,3,10,4.5,14.9
	C228.8,309.1,220.2,302.2,212.4,294.5z M271.2,319.9c-7.7,0.2-15.3,0-22.9-0.9c0-0.4-0.1-0.8-0.2-1.3c-1.4-4.7-2.8-9.3-4.2-14
	c7.8,0.6,15.6,0.6,23.4,0.1C268.2,309.3,269.5,314.7,271.2,319.9z M255.8,295.2c-4.9,0-9.8-0.2-14.7-0.7c-0.3-0.4-0.7-0.7-1.1-1
	c-18.8-11.9-35.7-26.5-49.3-44.1c-0.3-1.3-1.3-2.4-3.1-2.6c-7.9-1.1-15.8-2.4-23.7-3.9c-0.2,0-0.4-0.1-0.6-0.1
	c-3.6-1.4-8.4,2.3-5.7,6.2c9.8,14.3,21.1,27.6,33.6,39.5c-51.4-15.4-99.7-40.6-141.5-74.2c-12.9-10.4-25.2-21.6-36.9-33.4
	c-0.4-0.4-0.8-0.7-1.2-0.9c0-0.2-0.1-0.3-0.1-0.5c37.1-50.1,84.3-92.2,138.2-123.4c1.5-0.9,2.1-2.2,2.2-3.5c0.5-1.7-0.1-3.5-2.2-4.4
	c-11.8-5.1-23.4-10.6-34.7-16.7c-1.1-0.6-2.2-0.7-3.1-0.5c-2.4-0.2-4.9,1.2-4.7,4.3c0.3,4.5,0.2,9,0.2,13.6
	C99,39.8,92.5,29.2,88.2,17.6c12.1-4.5,26.1-6.7,39.1-4.6c-2.1,1-4.2,2.2-6.1,3.6c-1,0.7-1.5,1.6-1.8,2.5c-2.1,1.9-2.7,5.5,0.5,7.1
	c20.3,10.1,41.5,18.3,63.4,24.5c-27.3,17.9-52.5,40.9-70.2,68.2c-2.8-1.3-5.5-2.7-8.2-4.1c-5.1-2.7-9.7,5.1-4.5,7.8
	c43.1,22.7,91.9,30.5,140.2,27.1c24-1.7,49.1-5.1,72.1-12.6c5.8-1.9,11.4-4.1,17.3-5.6c3-0.7,5.8-1.1,8.9-1.3
	c3.5-0.3,6.9-1.8,10.2-3c12.6-4.4,25.2-8.9,37.7-13.4c26.3-9.4,52.6-18.8,79.4-26.8c-14.2,44.7-22.2,91.3-23.9,138.2
	c-0.2,0.4-0.3,0.8-0.4,1.3c-18.2,2.9-36.3,6.6-54.3,10.3c-19.5,3.9-39.1,7.1-58.8,9.6c-38.3,4.9-76.8,7.2-115.3,3.4
	c-0.6-0.1-1.2,0-1.6,0.1c-3.4-0.4-6.8,4.3-3.8,7.8C221.1,273.3,238.2,284.8,255.8,295.2z M116.3,42.5c7,3.7,14.2,7.1,21.4,10.4
	c-1.9,1.2-3.9,2.4-5.8,3.6c-0.5-0.4-1-0.7-1.6-0.9c-4.7-1.8-9.3-3.7-14-5.5C116.3,47.6,116.3,45.1,116.3,42.5z M116.4,59.7
	c2.2,0.8,4.3,1.7,6.5,2.5c-2.4,1.6-4.8,3.2-7.1,4.8c-0.1-1.7-0.2-3.5-0.3-5.2C115.9,61.3,116.3,60.6,116.4,59.7z M403.7,254
	c-0.9-3.6-1.8-7.2-2.7-10.8c1.4-0.3,2.8-0.6,4.2-0.8c1.2,3.5,2.1,7.1,2.9,10.8C406.6,253.4,405.1,253.7,403.7,254z M398.4,254.9
	c-0.9-3.6-1.8-7.1-2.7-10.7c0.4-0.1,0.9-0.2,1.3-0.3c0.9,3.6,1.8,7.1,2.7,10.7C399.3,254.8,398.9,254.8,398.4,254.9z M317.8,266.1
	c-0.8-3.1-1.6-6.1-2.4-9.2c3.8-0.4,7.7-0.9,11.5-1.4c0.7,3.1,1.5,6.3,2.2,9.4C325.3,265.4,321.5,265.8,317.8,266.1z M303.2,267.3
	c-0.6-3-1.3-6-1.9-9c3.3-0.3,6.7-0.6,10-1c0.8,3,1.6,6.1,2.4,9.1C310.2,266.8,306.7,267.1,303.2,267.3z M295.2,267.9
	c-0.5-3-0.9-5.9-1.4-8.9c1.2-0.1,2.3-0.2,3.5-0.3c0.6,3,1.3,5.9,1.9,8.9C297.9,267.7,296.5,267.8,295.2,267.9z M332.9,264.1
	c-0.7-3-1.4-6-2.1-9c19.1-2.5,38.1-5.4,57-9.2c1.4-0.3,2.7-0.5,4.1-0.8c0.9,3.5,1.8,7.1,2.7,10.6c-20.4,3.6-40.9,6.6-61.5,8.9
	C333,264.4,333,264.3,332.9,264.1z M233.8,269.2c-0.2,0-0.5,0-0.7,0.1c-3.9-3.1-7.7-6.3-11.3-9.7c22.7,1.8,45.4,1.4,68-0.2
	c0.4,2.9,0.9,5.9,1.3,8.8C272.1,269.2,252.9,269.6,233.8,269.2z M412,252.4c-0.8-3.6-1.7-7.3-2.9-10.8c11.3-2.2,22.5-4.4,33.9-6.2
	c0.8,3.4,1.9,6.7,3.2,9.9C434.8,247.8,423.4,250.2,412,252.4z M470.7,105.5c-10.6,41.7-17,84.5-19.1,127.5c-0.3-1.2-0.5-2.4-0.8-3.6
	c1.2-43,7.9-85.6,19.8-126.8c0.1,0.7,0.1,1.3,0.2,2c0,0.2,0.1,0.3,0.1,0.5C470.8,105.2,470.8,105.3,470.7,105.5z"/>
</svg>
