<?xml version="1.0" encoding="utf-8"?>
<!-- Generator: Adobe Illustrator 25.2.0, SVG Export Plug-In . SVG Version: 6.00 Build 0)  -->
<svg version="1.1" id="Layer_1" xmlns="http://www.w3.org/2000/svg" xmlns:xlink="http://www.w3.org/1999/xlink" x="0px" y="0px"
	 viewBox="0 0 113 233" style="enable-background:new 0 0 113 233;" xml:space="preserve">
<style type="text/css">
	.st0{fill:#020202;}
	.st1{fill:#140C0C;}
	.st2{fill:#FFFFFF;}
	.st3{fill:#5B3B1E;}
	.st4{fill:#BCBEC0;}
	.st5{fill:#4C2416;}
</style>
<g>
	<path class="st0" d="M56.16,48.69c0-4.89,0-9.78,0-14.68c0-1.25-1.1-2.45-2.39-2.4c-1.29,0.06-2.39,1.05-2.39,2.4
		c0,4.89,0,9.78,0,14.68c0,1.25,1.1,2.45,2.39,2.4C55.07,51.02,56.16,50.03,56.16,48.69L56.16,48.69z"/>
	<path class="st1" d="M19.18,76.83c0.53-7.47,7.19-13.11,13.22-16.58c7.28-4.19,15.63-6.07,24-5.67
		c15.69,0.75,29.27,10.85,36.12,24.72c4.1,8.29,16.46,1.01,12.38-7.25c-9.53-19.28-29.79-32.05-51.3-31.89
		C32.54,40.31,6.5,53.42,4.85,76.83C4.2,86.06,18.54,86.02,19.18,76.83L19.18,76.83z"/>
	<g>
		<g>
			<path class="st2" d="M54.38,20.95c1.29,0,1.29-2,0-2C53.09,18.95,53.09,20.95,54.38,20.95L54.38,20.95z"/>
		</g>
	</g>
	<path class="st3" d="M55.22,187.37c-14.04,0-27.64-3.79-39.32-10.97l-1.19-0.73l0.05-1.39c0.73-21.09,1.12-43.28,1.17-65.95
		l0.01-3.56l3.29,1.35c11.04,4.55,22.75,6.85,34.8,6.85c13.13,0,26.3-2.87,38.09-8.29l3.36-1.54l0.03,3.7
		c0.16,22.39,1.03,44.52,2.59,65.78l0.1,1.39l-1.15,0.78C84.82,183.02,70.36,187.37,55.22,187.37z"/>
	<path class="st4" d="M53.91,113.04c-12.62,0-25.27-2.66-36.58-7.69l-1.42-0.63v-4.65c0-5.86,0-11.72-0.07-17.55l-0.04-3.49
		l3.26,1.22c9.99,3.73,20.92,5.63,32.5,5.63h0c13.02,0,26.77-2.36,40.87-7.02l3.2-1.05l-0.06,3.38c-0.11,5.7-0.09,11.42-0.07,17.14
		l0.01,4.76l-1.34,0.66C81.81,109.82,67.88,113.04,53.91,113.04z"/>
	<path class="st3" d="M56.28,31.68c-4.03,0-8.03-0.51-11.89-1.5L44,30.1l-1.86-0.46l0.05-1.92c0.17-7.13,0.95-14.22,2.3-21.07
		l0.6-3.02l2.77,1.32c2.72,1.09,5.54,2.05,8.48,2.27c0.39,0.03,0.77,0.04,1.16,0.04c2.11,0,4.27-0.4,6.1-0.78l2.69-0.57l1.59,24.4
		l-2.05,0.41C62.68,31.36,59.47,31.68,56.28,31.68z"/>
	<path class="st5" d="M51.54,82.56c-11.71,0-22.74-2.02-32.8-5.99l-1.97-0.78l0.54-2.06c1.93-7.34,8.62-12.51,13.9-15.55
		c6.86-3.95,14.81-6.04,22.98-6.04c0.77,0,1.55,0.02,2.32,0.06c13.61,0.65,26.61,8.24,34.77,20.3l1.8,2.65l-3.05,0.97
		C76.66,80.4,63.7,82.56,51.54,82.56z"/>
	<path class="st4" d="M53.76,221.02c-7.32-0.04-15.2-1.47-23.43-4.26c-5.79-1.96-12.9-4.81-16.59-9.49l-0.75-0.95l0.33-1.17
		c0.13-0.45,0.19-0.84,0.21-1.23c0.41-8.05,0.71-16.12,1.01-24.18l0.15-3.94l3.42,1.95c11.07,6.3,23.87,9.63,37.01,9.63
		c14.31,0,28.07-3.89,39.78-11.26l3.34-2.1l0.31,3.94c0.63,7.91,1.27,15.81,2.08,23.68l0.1,0.95l-0.58,0.76
		c-12.21,15.97-36.19,17.69-45.93,17.69H53.76z"/>
	<path class="st1" d="M112.58,201.82c-4.33-41.83-6.01-84.31-5.01-126.33c3.75-2.48,1.45-9.25-3.08-7.3
		C73.65,81.44,37.58,86.65,7.57,68.35C3.1,65.63-0.7,72.8,3.74,75.51c0.04,0.02,0.08,0.04,0.11,0.06
		c0.57,41.63-0.15,83.71-2.15,125.31c-1.46,1.79-2.2,4.19-1.35,6.34c7.45,18.91,34.2,25.4,52.46,25.76
		c20.8,0.41,44.28-5.9,57.34-23.05c1.46-0.89,2.48-2.37,2.64-4.44C113.14,204.18,113.04,202.93,112.58,201.82z M53.77,218.62
		c-7.71-0.04-15.4-1.66-22.68-4.13c-4.69-1.59-12-4.29-15.48-8.7c0.16-0.55,0.27-1.13,0.3-1.77c2-40.32,2.73-81.16,2.32-121.53
		c23.98,8.96,50.54,6.7,74.96-1.36c-0.73,40.16,0.92,80.77,5.06,120.74C88.36,214.81,69.14,218.7,53.77,218.62z"/>
	<path class="st2" d="M32.69,193.01c1.97-30.23,2.51-60.53,1.62-90.81c-0.14-4.61-7.3-4.63-7.17,0c0.89,30.28,0.35,60.58-1.62,90.81
		C25.22,197.62,32.39,197.61,32.69,193.01L32.69,193.01z"/>
	<path class="st1" d="M12.82,177.33c25.4,16.77,60.06,16.61,85.3-0.41c2.54-1.71,0.15-5.86-2.41-4.14
		c-23.92,16.13-56.4,16.3-80.48,0.41C12.65,171.5,10.26,175.64,12.82,177.33L12.82,177.33z"/>
	<path class="st1" d="M14.72,106.8c27.08,12.52,59.13,11.34,85.14-3.36c2.68-1.51,0.27-5.65-2.41-4.14
		c-24.42,13.8-54.83,15.14-80.32,3.36C14.36,101.38,11.93,105.51,14.72,106.8L14.72,106.8z"/>
	<path class="st1" d="M68.77,7.16c0.21-0.99-0.25-1.96-1.1-2.57c-6.56-4.75-15.58-5.92-23.13-3c-1.1,0.43-1.85,1.43-1.69,2.62
		c-0.23,0.26-0.42,0.56-0.49,0.91c-1.62,7.9-2.5,15.94-2.61,24c-0.02,1.55,1.17,2.32,2.37,2.31c0.27,0.43,0.68,0.8,1.32,0.97
		c7.99,2.11,16.36,2.23,24.42,0.39c0.11-0.02,0.17-0.09,0.27-0.12c1.14-0.13,2.23-1.13,2.15-2.34
		C69.77,22.61,69.27,14.88,68.77,7.16z M44.71,27.79c-0.05-0.01-0.09,0-0.13-0.01c0.17-6.94,0.92-13.84,2.27-20.66
		c0.09,0.04,0.16,0.11,0.25,0.14c2.94,1.13,5.91,2.11,9.06,2.34c2.66,0.2,5.33-0.23,7.93-0.78c0.42,6.52,0.85,13.04,1.27,19.55
		C58.52,29.75,51.47,29.57,44.71,27.79z"/>
	<ellipse class="st1" cx="54.62" cy="18.88" rx="4.16" ry="4.17"/>
</g>
</svg>
