<?xml version="1.0" encoding="utf-8"?>
<!-- Generator: Adobe Illustrator 25.2.0, SVG Export Plug-In . SVG Version: 6.00 Build 0)  -->
<svg version="1.1" id="Layer_1" xmlns="http://www.w3.org/2000/svg" xmlns:xlink="http://www.w3.org/1999/xlink" x="0px" y="0px"
	 viewBox="0 0 129 249" style="enable-background:new 0 0 129 249;" xml:space="preserve">
<style type="text/css">
	.st0{fill:#FFFFFF;}
	.st1{fill:#A7A9AC;}
</style>
<g>
	<path class="st0" d="M62.72,242.99c-0.65,0-1.29-0.01-1.93-0.02c-20.29-0.4-46.67-7.72-54.29-27.02c-0.97-2.47-0.51-5.34,1.24-7.79
		c1.95-40.9,2.67-82.45,2.13-123.54c-1.8-1.53-2.53-3.91-1.86-6.31c0.75-2.67,3.01-4.54,5.51-4.57
		c7.29-17.07,27.25-26.01,43.87-27.39v-2.75c-2.23-0.29-4.39-0.72-6.45-1.26c-0.71-0.19-1.33-0.53-1.83-1.02
		c-0.83-0.18-1.59-0.59-2.16-1.17c-0.78-0.79-1.2-1.88-1.18-3.06c0.11-8.11,1-16.31,2.65-24.37c0.08-0.4,0.23-0.78,0.44-1.14
		c0.12-1.7,1.24-3.19,2.98-3.86c2.95-1.14,6.11-1.72,9.39-1.72c5.65,0,11.2,1.76,15.63,4.96c1.44,1.04,2.16,2.67,1.94,4.3
		l1.49,22.94c0.13,2.07-1.42,3.96-3.52,4.4c-0.12,0.05-0.27,0.11-0.44,0.15c-3.31,0.76-6.72,1.19-10.15,1.3v2.27
		c18.57,1.39,35.84,11.91,45.79,27.92c0.71-0.27,1.42-0.41,2.11-0.41c2.36,0,4.36,1.6,5.1,4.09c0.72,2.41,0.08,4.91-1.61,6.53
		c-0.95,41.57,0.73,83.58,4.99,124.88c0.51,1.43,0.59,2.96,0.23,4.48c-0.23,2.36-1.37,4.33-3.24,5.6
		C103.1,240.69,74.36,242.99,62.72,242.99C62.72,242.99,62.72,242.99,62.72,242.99z M62.72,249c26.06,0,48.22-9.18,61.03-25.24
		c2.73-2.19,4.49-5.35,4.94-8.94c0.48-2.26,0.39-4.55-0.25-6.73c-4.12-40.18-5.78-81.03-4.94-121.48c1.92-2.99,2.5-6.76,1.41-10.42
		c-1.42-4.72-5.37-7.98-10-8.34C107.29,57.1,96.55,48.9,84.41,44.3c1.3-1.83,2-4.09,1.84-6.48l-1.46-22.48
		c0.22-3.56-1.43-7.07-4.44-9.25C74.91,2.16,68.11,0,61.21,0c-4.02,0-7.9,0.71-11.55,2.12c-3.46,1.34-5.88,4.26-6.6,7.67
		c-0.23,0.56-0.41,1.14-0.53,1.73c-1.73,8.44-2.66,17.02-2.77,25.5c-0.03,2.36,0.69,4.58,2.06,6.38
		c-13.16,4.2-25.9,12.52-32.5,25.18c-3.35,1.38-6.04,4.34-7.09,8.11c-1.01,3.62-0.33,7.33,1.67,10.22
		c0.48,39.72-0.22,79.86-2.08,119.4c-2.06,3.75-2.41,8.01-0.9,11.85c8.69,22.05,37.62,30.38,59.74,30.82
		C61.35,248.99,62.03,249,62.72,249C62.72,249,62.72,249,62.72,249z"/>
	<path class="st0" d="M98.01,138.01c-3.56-3.66-7.12-7.31-10.68-10.97c-0.97-0.99-2.78-1.05-3.74,0c-0.19,0.21-0.33,0.43-0.45,0.67
		c-8.73,8.63-17.25,17.48-25.58,26.51c-2.7-2.78-5.4-5.55-8.1-8.33c-0.97-0.99-2.78-1.04-3.74,0c-0.15,0.16-0.27,0.34-0.38,0.53
		c-0.02,0.02-0.05,0.03-0.07,0.06c-3.43,3.42-6.87,6.84-10.3,10.26c-0.37,0.36-0.6,0.84-0.71,1.35c-0.6,0.93-0.67,2.16,0.35,3.16
		c0.25,0.25,0.49,0.51,0.75,0.75c-0.07,0.05-0.14,0.1-0.2,0.16c-1.05,1.05-0.97,2.69,0,3.74c5.75,6.28,11.72,12.37,17.88,18.24
		c1.03,0.99,2.71,1.03,3.74,0c0.22-0.22,0.39-0.49,0.52-0.78c0.66,0.07,1.36-0.16,1.96-0.83c6.37-7.18,13.01-14.09,19.7-20.97
		c0,3.08,0,6.16,0,9.25c0,1.14,1.76,1.14,1.76,0c0-3.69,0-7.37,0-11.06c5.52-5.67,11.05-11.34,16.44-17.13
		c0.15-0.16,0.27-0.33,0.38-0.5c0.17-0.11,0.33-0.23,0.47-0.38C98.99,140.69,99.05,139.07,98.01,138.01z"/>
	<path class="st1" d="M57.16,177.03c-5.55-6.09-11.27-12.05-17.12-17.85c2.54-2.53,5.07-5.05,7.61-7.58
		c2.58,2.65,5.16,5.31,7.74,7.96c0.16,0.16,0.34,0.29,0.54,0.4c0,0.2,0,0.4,0,0.6c0,0.46,0.4,0.9,0.88,0.88
		c0.48-0.02,0.88-0.39,0.88-0.88c0-0.09,0-0.19,0-0.28c0.21-0.03,0.41-0.08,0.6-0.16c0.03,0,0.06,0,0.09,0
		c-0.03,1.2-0.02,2.4,0.04,3.59c0.02,0.48,0.39,0.88,0.88,0.88c0.46,0,0.9-0.4,0.88-0.88c-0.07-1.52-0.05-3.05,0.01-4.57
		c8.25-8.98,16.72-17.75,25.37-26.35c2.3,2.37,4.61,4.73,6.91,7.1C80.8,152.37,68.58,164.32,57.16,177.03z"/>
	<path class="st0" d="M44.12,144.13c0.75-0.72,0.77-2.1,0-2.81c-0.81-0.74-2-0.76-2.8,0c-4.04,3.83-8.02,7.72-12.06,11.55
		c-0.75,0.72-0.77,2.1,0,2.81c0.25,0.23,0.54,0.37,0.84,0.46c-0.01,0.05-0.03,0.09-0.03,0.15c0,0.34,0,0.68,0,1.01
		c0,0.12,0.02,0.23,0.08,0.34c0.04,0.11,0.1,0.2,0.18,0.28c0.08,0.09,0.17,0.15,0.28,0.18c0.1,0.06,0.22,0.08,0.34,0.08
		c0.23-0.01,0.46-0.09,0.62-0.26c0.16-0.17,0.26-0.38,0.26-0.62c0-0.34,0-0.68,0-1.01c0-0.12-0.02-0.23-0.08-0.34
		c-0.01-0.02-0.02-0.03-0.03-0.05c0.11-0.07,0.23-0.12,0.34-0.22C36.1,151.85,40.08,147.96,44.12,144.13z"/>
</g>
</svg>
