<?xml version="1.0" encoding="utf-8"?>
<!-- Generator: Adobe Illustrator 25.2.0, SVG Export Plug-In . SVG Version: 6.00 Build 0)  -->
<svg version="1.1" id="Layer_1" xmlns="http://www.w3.org/2000/svg" xmlns:xlink="http://www.w3.org/1999/xlink" x="0px" y="0px"
	 viewBox="0 0 602 632" style="enable-background:new 0 0 602 632;" xml:space="preserve">
<style type="text/css">
	.st0{fill:#FFFFFF;}
	.st1{fill:#A7A9AC;}
	.st2{fill:#61BB46;}
</style>
<g>
	<g>
		<path class="st0" d="M568.58,4.99H204.03V3.2c0-1.77-1.44-3.2-3.2-3.2H173.8c-1.77,0-3.2,1.44-3.2,3.2v1.79h-13.33V3.2
			c0-1.77-1.44-3.2-3.2-3.2H78.23c-1.77,0-3.2,1.44-3.2,3.2v1.79h-41.6C14.99,4.99,0,19.98,0,38.41v221.96
			c0,18.42,14.99,33.41,33.42,33.41h535.15c18.43,0,33.42-14.99,33.42-33.41V38.41C602,19.98,587.01,4.99,568.58,4.99z M172.59,3.2
			c0-0.66,0.54-1.2,1.2-1.2h27.02c0.66,0,1.2,0.54,1.2,1.2v1.79h-29.43V3.2z M77.03,3.2c0-0.66,0.54-1.2,1.2-1.2h75.83
			c0.66,0,1.2,0.54,1.2,1.2v1.79H77.03V3.2z M596,260.36c0,15.11-12.3,27.41-27.42,27.41H33.42C18.31,287.77,6,275.48,6,260.36
			V38.41C6,23.29,18.31,11,33.42,11h535.15C583.69,11,596,23.29,596,38.41V260.36z"/>
		<path class="st0" d="M48.9,278.41h504.2V20.36H48.9V278.41z M52.9,24.36h496.2v250.04H52.9V24.36z"/>
		<path class="st0" d="M30.64,171.94c1.84,0,3.34-1.5,3.34-3.34v-38.43c0-1.84-1.5-3.34-3.34-3.34c-1.84,0-3.34,1.5-3.34,3.34v38.43
			C27.3,170.44,28.8,171.94,30.64,171.94z M29.3,130.17c0-0.74,0.6-1.34,1.34-1.34c0.74,0,1.34,0.6,1.34,1.34v38.43
			c0,0.74-0.6,1.34-1.34,1.34c-0.74,0-1.34-0.6-1.34-1.34V130.17z"/>
		<path class="st0" d="M30.03,205.82c-4.5,0-8.16,3.66-8.16,8.15c0,4.5,3.66,8.15,8.16,8.15s8.16-3.66,8.16-8.15
			C38.19,209.47,34.53,205.82,30.03,205.82z M30.03,220.12c-3.39,0-6.15-2.76-6.15-6.15c0-3.39,2.76-6.15,6.15-6.15
			s6.15,2.76,6.15,6.15C36.18,217.36,33.42,220.12,30.03,220.12z"/>
	</g>
	<g>
		<path class="st0" d="M553.1,632H48.9V373.95h504.2V632z M52.9,628h496.2V377.96H52.9V628z"/>
		<path class="st1" d="M519.96,611.21H80.02v-28.53h439.94V611.21z M84.02,607.21h431.93v-20.52H84.02V607.21z"/>
		
			<rect x="88.67" y="591.32" transform="matrix(-1 -1.224647e-16 1.224647e-16 -1 599.9803 1193.9008)" class="st1" width="422.65" height="11.27"/>
		<g>
			<path class="st1" d="M287.35,577.25h-17.56v-3.48l8.29-8.83c1.14-1.24,1.98-2.33,2.52-3.25s0.82-1.81,0.82-2.64
				c0-1.14-0.29-2.03-0.86-2.68c-0.57-0.65-1.4-0.98-2.46-0.98c-1.15,0-2.06,0.4-2.72,1.19c-0.66,0.79-0.99,1.83-0.99,3.12h-5.1
				c0-1.56,0.37-2.98,1.12-4.27c0.74-1.29,1.8-2.3,3.16-3.03s2.9-1.1,4.63-1.1c2.64,0,4.69,0.63,6.15,1.9
				c1.46,1.27,2.19,3.05,2.19,5.36c0,1.27-0.33,2.56-0.99,3.87s-1.78,2.84-3.38,4.59l-5.82,6.14h11.01V577.25z"/>
			<path class="st1" d="M291.22,564.66l1.48-13.01h14.36v4.24h-10.19l-0.63,5.5c1.21-0.64,2.49-0.97,3.85-0.97
				c2.44,0,4.35,0.76,5.74,2.27c1.38,1.51,2.08,3.63,2.08,6.35c0,1.65-0.35,3.13-1.05,4.44c-0.7,1.31-1.7,2.32-3,3.04
				c-1.3,0.72-2.84,1.08-4.61,1.08c-1.55,0-2.98-0.31-4.31-0.94c-1.33-0.63-2.37-1.51-3.14-2.65c-0.77-1.14-1.18-2.43-1.22-3.89
				h5.03c0.11,1.07,0.48,1.9,1.12,2.49s1.47,0.89,2.51,0.89c1.15,0,2.03-0.41,2.66-1.24s0.93-2,0.93-3.51
				c0-1.45-0.36-2.57-1.07-3.34c-0.72-0.77-1.73-1.16-3.04-1.16c-1.21,0-2.19,0.32-2.94,0.95l-0.49,0.46L291.22,564.66z"/>
		</g>
		<g>
			<path class="st1" d="M321.52,563.08c0.82,0,1.23,0.88,1.23,2.64c0.11,3.05,0.22,4.57,0.35,4.57l-0.06,0.76
				c0.08,2.62,0.2,4.42,0.35,5.39c0,0.59-0.41,0.98-1.23,1.17c-0.75,0-1.18-0.61-1.29-1.82l-0.18-3.34h-0.06
				c-3.56,0.29-5.51,0.7-5.86,1.23l0.47,2.17c0,0.59-0.41,0.98-1.23,1.17c-0.75,0-1.24-0.8-1.47-2.4c-0.06-0.21-0.29-0.42-0.7-0.64
				c-0.23-0.27-0.35-0.55-0.35-0.82v-0.12c0-0.15,0.12-0.48,0.35-1v-0.06c-0.98-3.07-1.47-4.71-1.47-4.92
				c0-0.56,0.39-0.95,1.17-1.17c0.78,0,1.33,0.84,1.64,2.52c0.59,1.79,0.92,2.71,1,2.76h0.06c2.71-0.75,4.8-1.14,6.27-1.17
				l-0.23-5.22C320.29,563.64,320.7,563.08,321.52,563.08z"/>
			<path class="st1" d="M331.84,564.6c0.63,0,1.27,0.33,1.94,1l0.18,0.64v0.41c0,1.21-1.43,2.99-4.28,5.33l-2.64,1.41v0.06
				c0.63,1.79,0.94,2.8,0.94,3.05c0,0.6-0.41,0.97-1.23,1.11c-0.74,0-1.31-0.88-1.7-2.64c-1.67-4.77-2.53-7.58-2.58-8.44
				c0-0.64,0.41-1.02,1.23-1.11h0.06c0.2,0,0.49,0.18,0.88,0.53C327.61,565.05,330.01,564.6,331.84,564.6z M325.33,568.23
				c0.55,1.92,0.88,2.87,1,2.87c1.71-0.62,3.31-1.92,4.81-3.93v-0.12C329.77,567.06,327.83,567.45,325.33,568.23z"/>
		</g>
		<rect x="100.93" y="497.97" class="st1" width="401.69" height="10.01"/>
		<rect x="256.16" y="541.82" class="st1" width="89.44" height="5"/>
		<path class="st1" d="M103.92,457.92c-14.98,0-27.16-12.18-27.16-27.15c0-14.97,12.18-27.15,27.16-27.15s27.16,12.18,27.16,27.15
			C131.08,445.74,118.9,457.92,103.92,457.92z M103.92,405.61c-13.87,0-25.16,11.28-25.16,25.15c0,13.87,11.29,25.15,25.16,25.15
			s25.16-11.28,25.16-25.15C129.08,416.9,117.79,405.61,103.92,405.61z"/>
		<g>
			<path class="st1" d="M88.32,442.41c0.15,0.43,0.54,0.73,0.98,0.79c0.33,0.21,0.71,0.16,1-0.11c1.14-1.05,2.27-2.1,3.41-3.15
				c0.58,0.42,1.17,0.84,1.75,1.26c-0.75,0.95-1.54,1.87-2.35,2.77c0-0.04,0-0.07-0.01-0.11c-0.01-0.2-0.2-0.39-0.41-0.37
				c-0.21,0.02-0.38,0.19-0.37,0.41c0.01,0.29,0.03,0.58,0.04,0.87c-0.01,0.02-0.02,0.04-0.03,0.05c-0.01,0.01-0.01,0.02-0.02,0.02
				c-0.28,0.3-0.26,0.83,0.05,1.1c0.03,0.02,0.06,0.03,0.09,0.05c0.22,0.3,0.57,0.49,0.99,0.48c2.36-0.04,4.94-0.48,6.65-2.25
				c1.43-1.47,2.01-3.82,1.08-5.68c0.83-0.76,1.66-1.52,2.49-2.29c0.16-0.14,0.26-0.39,0.29-0.62c0.1-0.23,0.1-0.5-0.06-0.7
				c-0.95-1.12-1.98-2.15-3.09-3.11c-0.04-0.06-0.08-0.13-0.13-0.18c-0.05-0.04-0.11-0.06-0.16-0.09c0,0,0,0,0,0
				c-0.17-0.14-0.39-0.2-0.61-0.19c-0.31,0-0.63,0.11-0.88,0.36c-0.81,0.81-1.63,1.61-2.45,2.41c-2.03-0.92-4.44-0.66-6.21,0.83
				C88.21,436.76,87.41,439.75,88.32,442.41z M90.43,438.92c0.22-0.83,0.63-1.47,1.31-2.09c0.03-0.02,0.15-0.13,0.16-0.13
				c0.09-0.07,0.19-0.14,0.29-0.2c0.1-0.06,0.2-0.12,0.3-0.18c0.02-0.01,0.14-0.07,0.19-0.09c0.2-0.09,0.41-0.16,0.63-0.22
				c0.03-0.01,0.19-0.04,0.22-0.05c0.1-0.02,0.2-0.03,0.3-0.04c0.23-0.02,0.46-0.02,0.68,0c0.04,0.01,0.11,0.02,0.14,0.02
				c0.12,0.02,0.24,0.04,0.35,0.07c0.12,0.03,0.23,0.06,0.35,0.1c0.01,0,0,0,0.01,0c0.05,0.02,0.1,0.04,0.15,0.07
				c0.11,0.05,0.22,0.1,0.32,0.16c0.01,0,0.03,0.02,0.05,0.03c0.03,0.03,0.04,0.07,0.08,0.1c0.27,0.23,0.59,0.31,0.9,0.28
				c0.3,0,0.6-0.1,0.83-0.36c0.06-0.06,0.11-0.14,0.15-0.22c0.86-0.85,1.73-1.7,2.6-2.55c0.23,0.21,0.47,0.41,0.7,0.63
				c0.21,0.21,0.41,0.42,0.61,0.64c-0.99,0.91-1.98,1.82-2.97,2.73c-0.21,0.19-0.31,0.57-0.3,0.84c0.01,0.29,0.16,0.62,0.38,0.81
				c0.03,0.03,0.06,0.05,0.1,0.07c0.02,0.03,0.03,0.07,0.05,0.1c0.01,0.01,0.06,0.1,0.1,0.16c0.01,0.03,0.09,0.2,0.1,0.23
				c0.03,0.09,0.05,0.18,0.08,0.26c0,0.01,0,0.01,0.01,0.02c0,0.01,0,0.02,0,0.03c0.02,0.19,0.02,0.37,0.02,0.55
				c0,0.01,0,0.01,0,0.02c0,0.02-0.01,0.04-0.01,0.09c-0.01,0.09-0.03,0.19-0.05,0.28c-0.02,0.11-0.06,0.21-0.09,0.32
				c-0.01,0.02-0.01,0.03-0.01,0.04c-0.01,0.01-0.01,0.02-0.02,0.04c-0.08,0.18-0.16,0.35-0.25,0.52c-0.05,0.09-0.11,0.17-0.16,0.26
				c-0.02,0.03-0.05,0.07-0.08,0.1c-0.13,0.16-0.27,0.31-0.42,0.46c-0.02,0.02-0.02,0.02-0.03,0.03c-0.01,0.01-0.02,0.01-0.03,0.02
				c-0.09,0.07-0.18,0.14-0.28,0.2c-0.2,0.14-0.41,0.26-0.63,0.38c-0.01,0-0.01,0-0.01,0.01c-0.06,0.03-0.12,0.05-0.18,0.08
				c-0.1,0.04-0.21,0.08-0.32,0.12c-0.21,0.08-0.43,0.14-0.65,0.2c-0.11,0.03-0.22,0.06-0.33,0.08c-0.07,0.02-0.14,0.03-0.21,0.04
				c-0.14,0.02-0.27,0.04-0.41,0.06c0.61-0.71,1.21-1.44,1.78-2.18c0.11-0.15,0.18-0.33,0.19-0.51c0.07-0.12,0.12-0.26,0.1-0.4
				c-0.02-0.19-0.09-0.42-0.25-0.54c-0.86-0.62-1.72-1.24-2.58-1.86c-0.04-0.09-0.1-0.16-0.17-0.22c-0.35-0.29-0.78-0.24-1.1,0.05
				c-0.93,0.86-1.86,1.72-2.79,2.58C90.22,440.28,90.24,439.63,90.43,438.92z"/>
			<path class="st1" d="M90.58,420.75c6.89,6.41,13.6,13.01,20.12,19.8c-0.04,0.12-0.07,0.24-0.11,0.36
				c-0.02,0.06-0.04,0.12-0.06,0.17c-0.01,0.02-0.04,0.11-0.05,0.13c-0.12,0.3-0.25,0.59-0.39,0.87c-0.31,0.6-0.55,0.95-1.06,1.45
				c-0.2,0.19-0.36,0.32-0.67,0.53c-0.14,0.09-0.29,0.18-0.44,0.26c0,0-0.12,0.06-0.13,0.07c-0.08,0.04-0.16,0.07-0.24,0.1
				c-0.76,0.31-1.47,0.43-2.28,0.48c-0.11,0-0.21,0.02-0.31,0.07c-0.25,0.1-0.39,0.32-0.44,0.56c-0.05,0.18-0.02,0.37,0.09,0.55
				c0.03,0.06,0.07,0.12,0.12,0.17c1.8,1.75,4.22,2.3,6.63,1.64c2.07-0.57,3.99-1.92,5.35-3.57c0.05-0.06,0.07-0.12,0.1-0.18
				c0.02-0.03,0.05-0.05,0.07-0.09c0.9-1.81,1.88-3.57,2.93-5.3c0.15,0.14,0.29,0.28,0.44,0.42c0.01,0.01,0.02,0.01,0.03,0.02
				c0.04,0.11,0.1,0.21,0.2,0.29c0.31,0.26,0.82,0.28,1.1-0.05c0.8-0.97,1.37-2.1,1.66-3.32c0.05-0.21-0.01-0.44-0.14-0.62
				c-0.02-0.05-0.03-0.11-0.07-0.16c-0.16-0.21-0.34-0.41-0.52-0.62c0.19-0.26,0.24-0.6,0.05-0.89c-1.1-1.65-2.67-2.99-4.49-3.79
				c-0.09-0.04-0.19-0.06-0.29-0.07c0-0.59-0.02-1.17-0.09-1.76c-0.02-0.21-0.19-0.38-0.41-0.37c-0.2,0.01-0.39,0.2-0.37,0.41
				c0.09,0.74,0.1,1.49,0.07,2.24c-0.03,0.1-0.04,0.2-0.03,0.3c-0.06,0.02-0.13,0.04-0.19,0.07c0-0.02,0-0.05,0-0.07
				c0-0.1-0.05-0.2-0.13-0.27c-0.07-0.06-0.18-0.11-0.28-0.1c-0.21,0.02-0.38,0.19-0.37,0.41c0.01,0.19,0.02,0.38,0.03,0.57
				c-0.56,0.48-1.02,1.09-1.28,1.76c-0.08,0.2-0.12,0.39-0.05,0.6c0.01,0.02,0.02,0.04,0.03,0.06c0,0.03-0.02,0.06-0.01,0.1
				c0.01,0.07,0.03,0.14,0.04,0.2c0.04,0.13,0.12,0.24,0.22,0.33c0.23,0.25,0.46,0.49,0.7,0.74c-0.22,0.22-0.44,0.45-0.66,0.67
				c-1.29-1.6-2.68-3.12-4.19-4.52c-0.3-0.28-0.83-0.27-1.1,0.05c-0.03,0.03-0.04,0.08-0.06,0.11c-1.9-2.03-3.81-4.06-5.73-6.08
				c0.02-0.01,0.04-0.01,0.06-0.03c0.32-0.21,0.49-0.75,0.23-1.07c-2.87-3.55-6.2-6.72-9.67-9.68c-0.03-0.03-0.07-0.04-0.11-0.06
				c-0.04-0.02-0.08-0.05-0.12-0.07c-0.06-0.02-0.11-0.04-0.17-0.05c-0.05-0.01-0.1-0.01-0.15-0.01c-0.03,0-0.06,0-0.08,0.01
				c-0.05,0-0.09,0-0.14,0.01c-1.47,0.36-2.76,1.42-3.42,2.77c-0.18,0.36-0.06,0.87,0.33,1.05c0.01,0,0.02,0,0.02,0.01
				c-0.2,0.38-0.36,0.78-0.45,1.2c-0.04,0.18,0,0.36,0.07,0.53C90.29,420.32,90.37,420.55,90.58,420.75z M110.37,434.89
				c-0.29,0.18-0.56,0.38-0.81,0.62c-0.23,0.22-0.43,0.47-0.6,0.74c-3.66-3.75-7.38-7.44-11.16-11.08
				c-0.03-0.61-0.06-1.21-0.09-1.82c-0.01-0.2-0.2-0.39-0.41-0.37c-0.21,0.02-0.38,0.19-0.37,0.41c0.02,0.33,0.03,0.66,0.05,0.99
				c-1.65-1.58-3.31-3.14-4.98-4.69c0,0,0-0.01,0-0.01c0.01-0.04,0.02-0.07,0.03-0.11c0.07-0.16,0.14-0.33,0.22-0.48
				c0.04-0.08,0.09-0.16,0.14-0.24c0-0.01,0.01-0.02,0.01-0.02c0.01-0.02,0.03-0.04,0.04-0.06c0,0,0,0,0,0
				c0.01-0.01,0.01-0.02,0.02-0.03c-0.01,0.01-0.01,0.02-0.02,0.03c0.11-0.15,0.22-0.28,0.35-0.42c0.06-0.07,0.13-0.13,0.2-0.19
				c0.01-0.01,0.03-0.03,0.04-0.04c0.01-0.01,0.02-0.02,0.03-0.02c0.14-0.11,0.29-0.22,0.45-0.31c0.07-0.04,0.14-0.08,0.22-0.12
				c0.03-0.01,0.06-0.03,0.09-0.04c0.03-0.01,0.06-0.02,0.1-0.03c0.02,0.03,0.05,0.07,0.08,0.1
				C99.53,423.37,104.97,429.11,110.37,434.89z M121.39,436.83c-0.05,0.13-0.11,0.25-0.18,0.38c-0.09,0.18-0.19,0.35-0.29,0.52
				c-0.25-0.24-0.49-0.47-0.74-0.71c-0.14-0.14-0.37-0.21-0.56-0.2c-0.19,0.01-0.41,0.1-0.54,0.25c-0.04,0.05-0.07,0.11-0.1,0.16
				c-0.07,0.06-0.14,0.13-0.19,0.22c-1.19,1.93-2.29,3.91-3.3,5.94c0,0.01,0,0.01-0.01,0.02c-1.14,1.36-2.66,2.45-4.35,2.99
				c-1.36,0.43-2.69,0.35-3.87-0.2c1.06-0.3,2.04-0.8,2.86-1.58c1.09-1.04,1.72-2.45,2.14-3.87c0.03-0.09,0.02-0.17,0.01-0.26
				c0.14-0.31,0.13-0.69-0.17-1c-0.65-0.68-1.32-1.35-1.97-2.03c0.01-0.05,0.02-0.09,0.04-0.14c0.05-0.13,0.12-0.25,0.19-0.37
				c0.12-0.16,0.26-0.32,0.42-0.45c0.21-0.17,0.44-0.32,0.67-0.46c0.65,0.69,1.3,1.38,1.95,2.08c0.02,0.02,0.03,0.03,0.05,0.04
				c0.04,0.1,0.1,0.19,0.18,0.26c0.34,0.28,0.79,0.25,1.1-0.05c0.86-0.85,1.69-1.74,2.56-2.59c0.11-0.11,0.16-0.27,0.18-0.43
				c0.01-0.04,0.02-0.09,0.02-0.13c-0.01-0.07-0.03-0.14-0.04-0.2c-0.01-0.02-0.02-0.04-0.03-0.06c-0.01-0.02-0.02-0.04-0.03-0.07
				c-0.04-0.08-0.09-0.15-0.16-0.21c-0.33-0.35-0.66-0.71-0.99-1.06c0.07-0.14,0.15-0.28,0.24-0.41c0.16-0.21,0.34-0.41,0.53-0.59
				c0.1-0.08,0.21-0.14,0.31-0.21c0.44,0.25,0.87,0.51,1.28,0.8c0.01,0.01,0.02,0.01,0.03,0.02c0.01,0.01,0.02,0.01,0.04,0.03
				c0.06,0.04,0.11,0.08,0.17,0.12c0.09,0.07,0.18,0.13,0.27,0.2c0.2,0.16,0.4,0.32,0.59,0.48c0.37,0.32,0.72,0.67,1.06,1.03
				c0.09,0.09,0.17,0.19,0.26,0.28c0.05,0.05,0.09,0.11,0.14,0.16c0.02,0.02,0.02,0.02,0.02,0.03c0,0,0,0,0.01,0.01
				c0.15,0.18,0.3,0.37,0.45,0.55c-0.04,0.16-0.09,0.32-0.14,0.47c-0.01,0.02-0.01,0.04-0.02,0.06
				C121.44,436.71,121.42,436.77,121.39,436.83z"/>
			<path class="st1" d="M92.47,418.77C92.47,418.77,92.47,418.77,92.47,418.77c-0.02,0.02-0.03,0.04-0.04,0.06
				C92.4,418.87,92.4,418.88,92.47,418.77z"/>
			<path class="st1" d="M109.24,429.89c0.12,0.14,0.31,0.19,0.5,0.19c0.09,0.02,0.18,0.03,0.27,0.02c0.1-0.02,0.2-0.04,0.31-0.06
				c0.19-0.06,0.36-0.17,0.5-0.32c0.31-0.29,0.62-0.58,0.95-0.86c-0.08,0.06-0.15,0.13-0.23,0.19c0.29-0.25,0.57-0.5,0.85-0.75
				c2.41,0.59,5.31-0.17,6.92-2.08c1.7-2.03,2.1-5.02,1.25-7.49c-0.2-0.6-0.87-0.94-1.47-0.74c-0.36,0.12-0.62,0.41-0.74,0.75
				c-0.99,0.88-1.97,1.77-2.96,2.65c-0.42-0.41-0.85-0.81-1.31-1.17c0.84-1.27,1.6-2.58,2.35-3.91c0.08-0.14,0.09-0.29,0.07-0.45
				c0.06-0.57-0.27-1.21-0.89-1.31c-1.2-0.2-2.44,0.01-3.57,0.43c-1.12,0.42-2.21,1.04-3.05,1.9c-0.84,0.87-1.3,2.11-1.53,3.28
				c-0.21,1.06-0.24,2.17-0.04,3.24c-0.19,0.19-0.39,0.38-0.58,0.58c-0.02,0.02-0.04,0.04-0.06,0.07c0,0-0.02,0.02-0.04,0.05
				c-0.03,0.03-0.05,0.06-0.08,0.08c-0.18,0.18-0.36,0.36-0.54,0.54c-0.11,0.11-0.18,0.24-0.22,0.38c-0.06,0.04-0.12,0.07-0.16,0.12
				c-0.27,0.33-0.26,0.8,0.05,1.1C107,427.45,108.15,428.64,109.24,429.89z M109.62,421.44
				C109.62,421.44,109.62,421.44,109.62,421.44C109.61,421.52,109.61,421.52,109.62,421.44z M109.81,423.39
				c-0.04-0.14-0.08-0.28-0.12-0.42c-0.01-0.03-0.01-0.05-0.02-0.06c0-0.02,0-0.04-0.01-0.07c-0.03-0.27-0.06-0.54-0.06-0.81
				c0-0.12,0-0.24,0-0.36c0-0.08,0.01-0.16,0.01-0.24c0.03-0.26,0.07-0.52,0.12-0.77c0.05-0.27,0.12-0.55,0.21-0.81
				c0,0,0.06-0.17,0.07-0.21c0.04-0.11,0.09-0.21,0.13-0.32c0.08-0.17,0.17-0.34,0.27-0.5c0.02-0.04,0.07-0.12,0.1-0.15
				c0.07-0.08,0.13-0.16,0.21-0.23c0.06-0.07,0.13-0.13,0.2-0.19c0.01-0.01,0.01,0,0.01-0.01c0.04-0.04,0.09-0.07,0.14-0.11
				c0.16-0.12,0.33-0.24,0.51-0.35c0.2-0.13,0.41-0.24,0.62-0.35c0.05-0.02,0.14-0.07,0.17-0.08c0.14-0.06,0.27-0.11,0.41-0.17
				c0.21-0.08,0.42-0.15,0.63-0.21c0.14-0.04,0.28-0.07,0.42-0.11c0.03-0.01,0.05-0.01,0.06-0.02c0.02,0,0.03,0,0.05-0.01
				c0.14-0.02,0.28-0.03,0.42-0.04c-0.61,1.07-1.24,2.13-1.94,3.14c-0.22,0.33-0.03,0.85,0.3,1.03c0.04,0.1,0.1,0.2,0.19,0.26
				c0.64,0.49,1.24,1.04,1.79,1.62c0.01,0.01,0.02,0.01,0.02,0.01c0.04,0.05,0.07,0.11,0.11,0.15c0.35,0.29,0.77,0.24,1.1-0.05
				c0.9-0.81,1.8-1.61,2.7-2.42c0.01,0.12,0.02,0.24,0.03,0.39c0.02,0.26,0.01,0.52,0,0.78c0,0.04,0,0.05,0,0.05
				c-0.01,0.06-0.01,0.11-0.02,0.17c-0.02,0.12-0.03,0.23-0.05,0.35c-0.05,0.27-0.11,0.53-0.19,0.79c-0.03,0.09-0.06,0.18-0.09,0.26
				c-0.01,0.03-0.09,0.21-0.1,0.24c-0.09,0.21-0.2,0.42-0.32,0.62c-0.01,0.02-0.11,0.17-0.14,0.22c-0.04,0.05-0.14,0.18-0.16,0.2
				c-0.06,0.08-0.13,0.15-0.2,0.22c-0.02,0.02-0.15,0.14-0.19,0.18c-0.17,0.13-0.34,0.26-0.52,0.37c-0.5,0.31-0.82,0.45-1.44,0.62
				c-0.1,0.03-0.21,0.05-0.31,0.07c-0.03,0-0.21,0.03-0.23,0.04c-0.29,0.04-0.58,0.05-0.87,0.04c-0.07,0-0.15,0-0.22-0.01
				c-0.01,0-0.01,0-0.02,0c-0.14-0.02-0.29-0.04-0.43-0.07c-0.29-0.06-0.57-0.14-0.84-0.23c-0.44-0.15-0.95,0.1-1.22,0.48
				c-0.27,0.25-0.55,0.51-0.83,0.75c0.08-0.06,0.15-0.13,0.23-0.19c-0.35,0.3-0.7,0.61-1.04,0.92c-0.5-0.55-1.02-1.09-1.55-1.61
				c0.19-0.18,0.37-0.37,0.55-0.55c0.02-0.02,0.04-0.04,0.06-0.07c0,0,0.02-0.02,0.04-0.05c0.03-0.03,0.05-0.06,0.08-0.08
				c0.18-0.18,0.36-0.36,0.54-0.54c0.06-0.06,0.11-0.13,0.15-0.2C109.76,424.44,109.97,423.89,109.81,423.39z"/>
			<path class="st1" d="M113.98,425.76c1.02,0.01,2.06-0.33,2.87-0.94c0.33-0.24,0.48-0.72,0.23-1.07
				c-0.23-0.32-0.73-0.49-1.08-0.23c-0.19,0.14-0.38,0.25-0.59,0.36c-0.27,0.12-0.54,0.21-0.83,0.27c-0.23,0.04-0.45,0.06-0.68,0.06
				c-0.41,0-0.78,0.41-0.74,0.81C113.21,425.46,113.54,425.76,113.98,425.76z"/>
		</g>
	</g>
	<path class="st1" d="M82.04,41.86h439.94v28.53H82.04V41.86z M517.98,45.87H86.04v20.52h431.93V45.87z"/>
	<rect x="90.69" y="50.49" class="st1" width="422.65" height="11.27"/>
	<g>
		<path class="st1" d="M314.65,75.82h17.56v3.48l-8.29,8.83c-1.14,1.24-1.98,2.33-2.52,3.25s-0.82,1.81-0.82,2.64
			c0,1.14,0.29,2.03,0.86,2.68c0.57,0.65,1.4,0.98,2.46,0.98c1.15,0,2.06-0.4,2.72-1.19c0.66-0.79,0.99-1.83,0.99-3.12h5.1
			c0,1.56-0.37,2.98-1.12,4.27c-0.74,1.29-1.8,2.3-3.16,3.03s-2.9,1.1-4.63,1.1c-2.64,0-4.69-0.63-6.15-1.9
			c-1.46-1.27-2.19-3.05-2.19-5.36c0-1.27,0.33-2.56,0.99-3.87c0.66-1.31,1.78-2.84,3.38-4.59l5.82-6.14h-11.01V75.82z"/>
		<path class="st1" d="M310.78,88.42l-1.48,13.01h-14.36v-4.24h10.19l0.63-5.5c-1.21,0.64-2.49,0.97-3.85,0.97
			c-2.44,0-4.35-0.76-5.74-2.27c-1.38-1.51-2.08-3.63-2.08-6.35c0-1.65,0.35-3.13,1.05-4.44c0.7-1.31,1.7-2.32,3-3.04
			c1.3-0.72,2.84-1.08,4.61-1.08c1.55,0,2.98,0.31,4.31,0.94c1.33,0.63,2.37,1.51,3.14,2.65c0.77,1.14,1.18,2.43,1.22,3.89h-5.03
			c-0.11-1.07-0.48-1.9-1.12-2.49c-0.64-0.59-1.47-0.89-2.51-0.89c-1.15,0-2.03,0.41-2.66,1.24s-0.93,2-0.93,3.51
			c0,1.45,0.36,2.57,1.07,3.34s1.73,1.16,3.04,1.16c1.21,0,2.19-0.32,2.94-0.95l0.49-0.46L310.78,88.42z"/>
	</g>
	<g>
		<path class="st1" d="M280.48,90c-0.82,0-1.23-0.88-1.23-2.64c-0.11-3.05-0.22-4.57-0.35-4.57l0.06-0.76
			c-0.08-2.62-0.2-4.42-0.35-5.39c0-0.59,0.41-0.98,1.23-1.17c0.75,0,1.18,0.61,1.29,1.82l0.18,3.34h0.06
			c3.56-0.29,5.51-0.7,5.86-1.23l-0.47-2.17c0-0.59,0.41-0.98,1.23-1.17c0.75,0,1.24,0.8,1.47,2.4c0.06,0.21,0.29,0.42,0.7,0.64
			c0.23,0.27,0.35,0.55,0.35,0.82v0.12c0,0.15-0.12,0.48-0.35,1v0.06c0.98,3.07,1.47,4.71,1.47,4.92c0,0.56-0.39,0.95-1.17,1.17
			c-0.78,0-1.33-0.84-1.64-2.52c-0.59-1.79-0.92-2.71-1-2.76h-0.06c-2.71,0.75-4.8,1.14-6.27,1.17l0.23,5.22
			C281.71,89.43,281.3,90,280.48,90z"/>
		<path class="st1" d="M270.16,88.48c-0.63,0-1.27-0.33-1.94-1l-0.18-0.64v-0.41c0-1.21,1.43-2.99,4.28-5.33l2.64-1.41v-0.06
			c-0.63-1.79-0.94-2.8-0.94-3.05c0-0.6,0.41-0.97,1.23-1.11c0.74,0,1.31,0.88,1.7,2.64c1.67,4.77,2.53,7.58,2.58,8.44
			c0,0.64-0.41,1.02-1.23,1.11h-0.06c-0.2,0-0.49-0.18-0.88-0.53C274.39,88.03,271.99,88.48,270.16,88.48z M276.67,84.84
			c-0.55-1.92-0.88-2.87-1-2.87c-1.71,0.62-3.31,1.92-4.81,3.93v0.12C272.23,86.02,274.17,85.62,276.67,84.84z"/>
	</g>
	<rect x="99.37" y="145.1" class="st1" width="401.69" height="10.01"/>
	<rect x="256.41" y="106.26" class="st1" width="89.44" height="5"/>
	<path class="st1" d="M498.08,195.16c14.98,0,27.16,12.18,27.16,27.15c0,14.97-12.18,27.15-27.16,27.15
		c-14.98,0-27.16-12.18-27.16-27.15C470.92,207.34,483.1,195.16,498.08,195.16z M498.08,247.46c13.87,0,25.16-11.28,25.16-25.15
		c0-13.87-11.29-25.15-25.16-25.15s-25.16,11.28-25.16,25.15C472.92,236.18,484.21,247.46,498.08,247.46z"/>
	<g>
		<path class="st1" d="M513.68,210.67c-0.15-0.43-0.54-0.73-0.98-0.79c-0.33-0.21-0.71-0.16-1,0.11c-1.14,1.05-2.27,2.1-3.41,3.15
			c-0.58-0.42-1.17-0.84-1.75-1.26c0.75-0.95,1.54-1.87,2.35-2.77c0,0.04,0,0.07,0.01,0.11c0.01,0.2,0.2,0.39,0.41,0.37
			c0.21-0.02,0.38-0.19,0.37-0.41c-0.01-0.29-0.03-0.58-0.04-0.87c0.01-0.02,0.02-0.04,0.03-0.05c0.01-0.01,0.01-0.02,0.02-0.02
			c0.28-0.3,0.26-0.83-0.05-1.1c-0.03-0.02-0.06-0.03-0.09-0.05c-0.22-0.3-0.57-0.49-0.99-0.48c-2.36,0.04-4.94,0.48-6.65,2.25
			c-1.43,1.47-2.01,3.82-1.08,5.68c-0.83,0.76-1.66,1.52-2.49,2.29c-0.16,0.14-0.26,0.39-0.29,0.62c-0.1,0.23-0.1,0.5,0.06,0.7
			c0.95,1.12,1.98,2.15,3.09,3.11c0.04,0.06,0.08,0.13,0.13,0.18c0.05,0.04,0.11,0.06,0.16,0.09c0,0,0,0,0,0
			c0.17,0.14,0.39,0.2,0.61,0.19c0.31,0,0.63-0.11,0.88-0.36c0.81-0.81,1.63-1.61,2.45-2.41c2.03,0.92,4.44,0.66,6.21-0.83
			C513.79,216.31,514.59,213.33,513.68,210.67z M511.57,214.16c-0.22,0.83-0.63,1.47-1.31,2.09c-0.03,0.02-0.15,0.13-0.16,0.13
			c-0.09,0.07-0.19,0.14-0.29,0.2c-0.1,0.06-0.2,0.12-0.3,0.18c-0.02,0.01-0.14,0.07-0.19,0.09c-0.2,0.09-0.41,0.16-0.63,0.22
			c-0.03,0.01-0.19,0.04-0.22,0.05c-0.1,0.02-0.2,0.03-0.3,0.04c-0.23,0.02-0.46,0.02-0.68,0c-0.04-0.01-0.11-0.02-0.14-0.02
			c-0.12-0.02-0.24-0.04-0.35-0.07c-0.12-0.03-0.23-0.06-0.35-0.1c-0.01,0,0,0-0.01,0c-0.05-0.02-0.1-0.04-0.15-0.07
			c-0.11-0.05-0.22-0.1-0.32-0.16c-0.01,0-0.03-0.02-0.05-0.03c-0.03-0.03-0.04-0.07-0.08-0.1c-0.27-0.23-0.59-0.31-0.9-0.28
			c-0.3,0-0.6,0.1-0.83,0.36c-0.06,0.06-0.11,0.14-0.15,0.22c-0.86,0.85-1.73,1.7-2.6,2.55c-0.23-0.21-0.47-0.41-0.7-0.63
			c-0.21-0.21-0.41-0.42-0.61-0.64c0.99-0.91,1.98-1.82,2.97-2.73c0.21-0.19,0.31-0.57,0.3-0.84c-0.01-0.29-0.16-0.62-0.38-0.81
			c-0.03-0.03-0.06-0.05-0.1-0.07c-0.02-0.03-0.03-0.07-0.05-0.1c-0.01-0.01-0.06-0.1-0.1-0.16c-0.01-0.03-0.09-0.2-0.1-0.23
			c-0.03-0.09-0.05-0.18-0.08-0.26c0-0.01,0-0.01-0.01-0.02c0-0.01,0-0.02,0-0.03c-0.02-0.19-0.02-0.37-0.02-0.55
			c0-0.01,0-0.01,0-0.02c0-0.02,0.01-0.04,0.01-0.09c0.01-0.09,0.03-0.19,0.05-0.28c0.02-0.11,0.06-0.21,0.09-0.32
			c0.01-0.02,0.01-0.03,0.01-0.04c0.01-0.01,0.01-0.02,0.02-0.04c0.08-0.18,0.16-0.35,0.25-0.52c0.05-0.09,0.11-0.17,0.16-0.26
			c0.02-0.03,0.05-0.07,0.08-0.1c0.13-0.16,0.27-0.31,0.42-0.46c0.02-0.02,0.02-0.02,0.03-0.03c0.01-0.01,0.02-0.01,0.03-0.02
			c0.09-0.07,0.18-0.14,0.28-0.2c0.2-0.14,0.41-0.26,0.63-0.38c0.01,0,0.01,0,0.01-0.01c0.06-0.03,0.12-0.05,0.18-0.08
			c0.1-0.04,0.21-0.08,0.32-0.12c0.21-0.08,0.43-0.14,0.65-0.2c0.11-0.03,0.22-0.06,0.33-0.08c0.07-0.02,0.14-0.03,0.21-0.04
			c0.14-0.02,0.27-0.04,0.41-0.06c-0.61,0.71-1.21,1.44-1.78,2.18c-0.11,0.15-0.18,0.33-0.19,0.51c-0.07,0.12-0.12,0.26-0.1,0.4
			c0.02,0.19,0.09,0.42,0.25,0.54c0.86,0.62,1.72,1.24,2.58,1.86c0.04,0.09,0.1,0.16,0.17,0.22c0.35,0.29,0.78,0.24,1.1-0.05
			c0.93-0.86,1.86-1.72,2.79-2.58C511.78,212.8,511.76,213.45,511.57,214.16z"/>
		<path class="st1" d="M511.42,232.33c-6.89-6.41-13.6-13.01-20.12-19.8c0.04-0.12,0.07-0.24,0.11-0.36
			c0.02-0.06,0.04-0.12,0.06-0.17c0.01-0.02,0.04-0.11,0.05-0.13c0.12-0.3,0.25-0.59,0.39-0.87c0.31-0.6,0.55-0.95,1.06-1.45
			c0.2-0.19,0.36-0.32,0.67-0.53c0.14-0.09,0.29-0.18,0.44-0.26c0,0,0.12-0.06,0.13-0.07c0.08-0.04,0.16-0.07,0.24-0.1
			c0.76-0.31,1.47-0.43,2.28-0.48c0.11,0,0.21-0.02,0.31-0.07c0.25-0.1,0.39-0.32,0.44-0.56c0.05-0.18,0.02-0.37-0.09-0.55
			c-0.03-0.06-0.07-0.12-0.12-0.17c-1.8-1.75-4.22-2.3-6.63-1.64c-2.07,0.57-3.99,1.92-5.35,3.57c-0.05,0.06-0.07,0.12-0.1,0.18
			c-0.02,0.03-0.05,0.05-0.07,0.09c-0.9,1.81-1.88,3.57-2.93,5.3c-0.15-0.14-0.29-0.28-0.44-0.42c-0.01-0.01-0.02-0.01-0.03-0.02
			c-0.04-0.11-0.1-0.21-0.2-0.29c-0.31-0.26-0.82-0.28-1.1,0.05c-0.8,0.97-1.37,2.1-1.66,3.32c-0.05,0.21,0.01,0.44,0.14,0.62
			c0.02,0.05,0.03,0.11,0.07,0.16c0.16,0.21,0.34,0.41,0.52,0.62c-0.19,0.26-0.24,0.6-0.05,0.89c1.1,1.65,2.67,2.99,4.49,3.79
			c0.09,0.04,0.19,0.06,0.29,0.07c0,0.59,0.02,1.17,0.09,1.76c0.02,0.21,0.19,0.38,0.41,0.37c0.2-0.01,0.39-0.2,0.37-0.41
			c-0.09-0.74-0.1-1.49-0.07-2.24c0.03-0.1,0.04-0.2,0.03-0.3c0.06-0.02,0.13-0.04,0.19-0.07c0,0.02,0,0.05,0,0.07
			c0,0.1,0.05,0.2,0.13,0.27c0.07,0.06,0.18,0.11,0.28,0.1c0.21-0.02,0.38-0.19,0.37-0.41c-0.01-0.19-0.02-0.38-0.03-0.57
			c0.56-0.48,1.02-1.09,1.28-1.76c0.08-0.2,0.12-0.39,0.05-0.6c-0.01-0.02-0.02-0.04-0.03-0.06c0-0.03,0.02-0.06,0.01-0.1
			c-0.01-0.07-0.03-0.14-0.04-0.2c-0.04-0.13-0.12-0.24-0.22-0.33c-0.23-0.25-0.46-0.49-0.7-0.74c0.22-0.22,0.44-0.45,0.66-0.67
			c1.29,1.6,2.68,3.12,4.19,4.52c0.3,0.28,0.83,0.27,1.1-0.05c0.03-0.03,0.04-0.08,0.06-0.11c1.9,2.03,3.81,4.06,5.73,6.08
			c-0.02,0.01-0.04,0.01-0.06,0.03c-0.32,0.21-0.49,0.75-0.23,1.07c2.87,3.55,6.2,6.72,9.67,9.68c0.03,0.03,0.07,0.04,0.11,0.06
			c0.04,0.02,0.08,0.05,0.12,0.07c0.06,0.02,0.11,0.04,0.17,0.05c0.05,0.01,0.1,0.01,0.15,0.01c0.03,0,0.06,0,0.08-0.01
			c0.05,0,0.09,0,0.14-0.01c1.47-0.36,2.76-1.42,3.42-2.77c0.18-0.36,0.06-0.87-0.33-1.05c-0.01,0-0.02,0-0.02-0.01
			c0.2-0.38,0.36-0.78,0.45-1.2c0.04-0.18,0-0.36-0.07-0.53C511.71,232.76,511.63,232.53,511.42,232.33z M491.63,218.18
			c0.29-0.18,0.56-0.38,0.81-0.62c0.23-0.22,0.43-0.47,0.6-0.74c3.66,3.75,7.38,7.44,11.16,11.08c0.03,0.61,0.06,1.21,0.09,1.82
			c0.01,0.2,0.2,0.39,0.41,0.37c0.21-0.02,0.38-0.19,0.37-0.41c-0.02-0.33-0.03-0.66-0.05-0.99c1.65,1.58,3.31,3.14,4.98,4.69
			c0,0,0,0.01,0,0.01c-0.01,0.04-0.02,0.07-0.03,0.11c-0.07,0.16-0.14,0.33-0.22,0.48c-0.04,0.08-0.09,0.16-0.14,0.24
			c0,0.01-0.01,0.02-0.01,0.02c-0.01,0.02-0.03,0.04-0.04,0.06c0,0,0,0,0,0c-0.01,0.01-0.01,0.02-0.02,0.03
			c0.01-0.01,0.01-0.02,0.02-0.03c-0.11,0.15-0.22,0.28-0.35,0.42c-0.06,0.07-0.13,0.13-0.2,0.19c-0.01,0.01-0.03,0.03-0.04,0.04
			c-0.01,0.01-0.02,0.02-0.03,0.02c-0.14,0.11-0.29,0.22-0.45,0.31c-0.07,0.04-0.14,0.08-0.22,0.12c-0.03,0.01-0.06,0.03-0.09,0.04
			c-0.03,0.01-0.06,0.02-0.1,0.03c-0.02-0.03-0.05-0.07-0.08-0.1C502.47,229.7,497.03,223.96,491.63,218.18z M480.61,216.25
			c0.05-0.13,0.11-0.25,0.18-0.38c0.09-0.18,0.19-0.35,0.29-0.52c0.25,0.24,0.49,0.47,0.74,0.71c0.14,0.14,0.37,0.21,0.56,0.2
			c0.19-0.01,0.41-0.1,0.54-0.25c0.04-0.05,0.07-0.11,0.1-0.16c0.07-0.06,0.14-0.13,0.19-0.22c1.19-1.93,2.29-3.91,3.3-5.94
			c0-0.01,0-0.01,0.01-0.02c1.14-1.36,2.66-2.45,4.35-2.99c1.36-0.43,2.69-0.35,3.87,0.2c-1.06,0.3-2.04,0.8-2.86,1.58
			c-1.09,1.04-1.72,2.45-2.14,3.87c-0.03,0.09-0.02,0.17-0.01,0.26c-0.14,0.31-0.13,0.69,0.17,1c0.65,0.68,1.32,1.35,1.97,2.03
			c-0.01,0.05-0.02,0.09-0.04,0.14c-0.05,0.13-0.12,0.25-0.19,0.37c-0.12,0.16-0.26,0.32-0.42,0.45c-0.21,0.17-0.44,0.32-0.67,0.46
			c-0.65-0.69-1.3-1.38-1.95-2.08c-0.02-0.02-0.03-0.03-0.05-0.04c-0.04-0.1-0.1-0.19-0.18-0.26c-0.34-0.28-0.79-0.25-1.1,0.05
			c-0.86,0.85-1.69,1.74-2.56,2.59c-0.11,0.11-0.16,0.27-0.18,0.43c-0.01,0.04-0.02,0.09-0.02,0.13c0.01,0.07,0.03,0.14,0.04,0.2
			c0.01,0.02,0.02,0.04,0.03,0.06c0.01,0.02,0.02,0.04,0.03,0.07c0.04,0.08,0.09,0.15,0.16,0.21c0.33,0.35,0.66,0.71,0.99,1.06
			c-0.07,0.14-0.15,0.28-0.24,0.41c-0.16,0.21-0.33,0.41-0.53,0.59c-0.1,0.08-0.21,0.14-0.31,0.21c-0.44-0.25-0.87-0.51-1.28-0.8
			c-0.01-0.01-0.02-0.01-0.03-0.02c-0.01-0.01-0.02-0.01-0.04-0.03c-0.06-0.04-0.11-0.08-0.17-0.12c-0.09-0.07-0.18-0.13-0.27-0.2
			c-0.2-0.16-0.4-0.32-0.59-0.48c-0.37-0.32-0.72-0.67-1.06-1.03c-0.09-0.09-0.17-0.19-0.26-0.28c-0.05-0.05-0.09-0.11-0.14-0.16
			c-0.02-0.02-0.02-0.02-0.02-0.03c0,0,0,0-0.01-0.01c-0.15-0.18-0.3-0.37-0.45-0.55c0.04-0.16,0.09-0.32,0.14-0.47
			c0.01-0.02,0.01-0.04,0.02-0.06C480.56,216.37,480.58,216.31,480.61,216.25z"/>
		<path class="st1" d="M509.53,234.31C509.53,234.31,509.53,234.3,509.53,234.31c0.02-0.02,0.03-0.04,0.04-0.06
			C509.6,234.21,509.6,234.2,509.53,234.31z"/>
		<path class="st1" d="M492.76,223.19c-0.12-0.14-0.31-0.19-0.5-0.19c-0.09-0.02-0.18-0.03-0.27-0.02c-0.1,0.02-0.2,0.04-0.31,0.06
			c-0.19,0.06-0.36,0.17-0.5,0.32c-0.31,0.29-0.62,0.58-0.95,0.86c0.08-0.06,0.15-0.13,0.23-0.19c-0.29,0.25-0.57,0.5-0.85,0.75
			c-2.41-0.59-5.31,0.17-6.92,2.08c-1.7,2.03-2.1,5.02-1.25,7.49c0.2,0.6,0.87,0.94,1.47,0.74c0.36-0.12,0.62-0.41,0.74-0.75
			c0.99-0.88,1.97-1.77,2.96-2.65c0.42,0.41,0.85,0.81,1.31,1.17c-0.84,1.27-1.6,2.58-2.35,3.91c-0.08,0.14-0.09,0.29-0.07,0.45
			c-0.06,0.57,0.27,1.21,0.89,1.31c1.2,0.2,2.44-0.01,3.57-0.43c1.12-0.42,2.21-1.04,3.05-1.9c0.84-0.87,1.3-2.11,1.53-3.28
			c0.21-1.06,0.24-2.17,0.04-3.24c0.19-0.19,0.39-0.38,0.58-0.58c0.02-0.02,0.04-0.04,0.06-0.07c0,0,0.02-0.02,0.04-0.05
			c0.03-0.03,0.05-0.06,0.08-0.08c0.18-0.18,0.36-0.36,0.54-0.54c0.11-0.11,0.18-0.24,0.22-0.38c0.06-0.04,0.12-0.07,0.16-0.12
			c0.27-0.33,0.26-0.8-0.05-1.1C495,225.63,493.85,224.44,492.76,223.19z M492.38,231.63C492.38,231.64,492.38,231.64,492.38,231.63
			C492.39,231.56,492.39,231.55,492.38,231.63z M492.19,229.69c0.04,0.14,0.08,0.28,0.12,0.42c0.01,0.03,0.01,0.05,0.02,0.06
			c0,0.02,0,0.04,0.01,0.07c0.03,0.27,0.06,0.54,0.06,0.81c0,0.12,0,0.24,0,0.36c0,0.08-0.01,0.16-0.01,0.24
			c-0.03,0.26-0.07,0.52-0.12,0.77c-0.05,0.27-0.12,0.55-0.21,0.81c0,0-0.06,0.17-0.07,0.21c-0.04,0.11-0.09,0.21-0.13,0.32
			c-0.08,0.17-0.17,0.34-0.27,0.5c-0.02,0.04-0.07,0.12-0.1,0.15c-0.07,0.08-0.13,0.16-0.21,0.23c-0.06,0.07-0.13,0.13-0.2,0.19
			c-0.01,0.01-0.01,0-0.01,0.01c-0.04,0.04-0.09,0.07-0.14,0.11c-0.16,0.12-0.33,0.24-0.51,0.35c-0.2,0.13-0.41,0.24-0.62,0.35
			c-0.05,0.02-0.14,0.07-0.17,0.08c-0.14,0.06-0.27,0.11-0.41,0.17c-0.21,0.08-0.42,0.15-0.63,0.21c-0.14,0.04-0.28,0.07-0.42,0.11
			c-0.03,0.01-0.05,0.01-0.06,0.02c-0.02,0-0.03,0-0.05,0.01c-0.14,0.02-0.28,0.03-0.42,0.04c0.61-1.07,1.24-2.13,1.94-3.14
			c0.22-0.33,0.03-0.85-0.3-1.03c-0.04-0.1-0.1-0.2-0.19-0.26c-0.64-0.49-1.24-1.04-1.79-1.62c-0.01-0.01-0.02-0.01-0.02-0.01
			c-0.04-0.05-0.07-0.11-0.11-0.15c-0.35-0.29-0.77-0.24-1.1,0.05c-0.9,0.81-1.8,1.61-2.7,2.42c-0.01-0.12-0.02-0.24-0.03-0.39
			c-0.02-0.26-0.01-0.52,0-0.78c0-0.04,0-0.05,0-0.05c0.01-0.06,0.01-0.11,0.02-0.17c0.02-0.12,0.03-0.23,0.05-0.35
			c0.05-0.27,0.11-0.53,0.19-0.79c0.03-0.09,0.06-0.18,0.09-0.26c0.01-0.03,0.09-0.21,0.1-0.24c0.09-0.21,0.2-0.42,0.32-0.62
			c0.01-0.02,0.11-0.17,0.14-0.22c0.04-0.05,0.14-0.18,0.16-0.2c0.06-0.08,0.13-0.15,0.2-0.22c0.02-0.02,0.15-0.14,0.19-0.18
			c0.17-0.13,0.34-0.26,0.52-0.37c0.5-0.31,0.82-0.45,1.44-0.62c0.1-0.03,0.21-0.05,0.31-0.07c0.03,0,0.21-0.03,0.23-0.04
			c0.29-0.04,0.58-0.05,0.87-0.04c0.07,0,0.15,0,0.22,0.01c0.01,0,0.01,0,0.02,0c0.14,0.02,0.29,0.04,0.43,0.07
			c0.29,0.06,0.57,0.14,0.84,0.23c0.44,0.15,0.95-0.1,1.22-0.48c0.27-0.25,0.55-0.51,0.83-0.75c-0.08,0.06-0.15,0.13-0.23,0.19
			c0.35-0.3,0.7-0.61,1.04-0.92c0.5,0.55,1.02,1.09,1.55,1.61c-0.19,0.18-0.37,0.37-0.55,0.55c-0.02,0.02-0.04,0.04-0.06,0.07
			c0,0-0.02,0.02-0.04,0.05c-0.03,0.03-0.05,0.06-0.08,0.08c-0.18,0.18-0.36,0.36-0.54,0.54c-0.06,0.06-0.11,0.13-0.15,0.2
			C492.24,228.63,492.03,229.18,492.19,229.69z"/>
		<path class="st1" d="M488.02,227.32c-1.02-0.01-2.06,0.33-2.87,0.94c-0.33,0.24-0.48,0.72-0.23,1.07
			c0.23,0.32,0.73,0.49,1.08,0.23c0.19-0.14,0.38-0.25,0.59-0.36c0.27-0.12,0.54-0.21,0.83-0.27c0.23-0.04,0.45-0.06,0.68-0.06
			c0.41,0,0.78-0.41,0.74-0.81C488.79,227.62,488.46,227.32,488.02,227.32z"/>
	</g>
	<g>
		<g>
			<path class="st2" d="M261.19,330.1v-12.61h3.98c1.13,0,2.01,0.25,2.66,0.76c0.64,0.51,0.96,1.28,0.96,2.32
				c0,0.7-0.15,1.32-0.46,1.85c-0.31,0.53-0.77,0.88-1.38,1.04l0.25-0.29c0.88,0.14,1.55,0.49,2.04,1.05
				c0.48,0.55,0.72,1.31,0.72,2.26c0,1.1-0.36,1.98-1.07,2.63c-0.71,0.65-1.69,0.97-2.95,0.97H261.19z M262.9,322.73h2.05
				c0.61,0,1.11-0.12,1.5-0.37c0.38-0.25,0.58-0.74,0.58-1.49c0-0.74-0.19-1.23-0.58-1.48c-0.39-0.25-0.88-0.37-1.5-0.37h-2.05
				V322.73z M262.9,328.55h2.9c0.7,0,1.25-0.17,1.67-0.52c0.41-0.35,0.62-0.88,0.62-1.58c0-0.79-0.21-1.35-0.64-1.68
				c-0.42-0.32-0.97-0.49-1.65-0.49h-2.9V328.55z"/>
			<path class="st2" d="M275.84,330.28c-1.04,0-1.91-0.21-2.62-0.64c-0.71-0.43-1.24-0.99-1.61-1.7c-0.36-0.71-0.55-1.48-0.55-2.33
				c0-0.82,0.17-1.58,0.51-2.26c0.34-0.68,0.83-1.23,1.48-1.64c0.65-0.41,1.42-0.62,2.34-0.62c0.73,0,1.39,0.15,1.96,0.44
				c0.57,0.29,1.02,0.71,1.35,1.27c0.33,0.56,0.49,1.23,0.49,2.02c0,0.13,0,0.26-0.01,0.41c-0.01,0.15-0.03,0.3-0.06,0.45h-6.39
				c0.08,0.82,0.27,1.45,0.59,1.91c0.31,0.46,0.71,0.78,1.18,0.96c0.48,0.19,0.99,0.28,1.55,0.28c0.41,0,0.83-0.04,1.28-0.13
				c0.44-0.08,0.86-0.22,1.26-0.4l0.22,1.28c-0.34,0.15-0.76,0.3-1.25,0.45C277.05,330.2,276.48,330.28,275.84,330.28z
				 M272.86,324.57h4.65c0-0.41-0.08-0.77-0.23-1.08c-0.16-0.31-0.39-0.54-0.71-0.71c-0.32-0.17-0.72-0.25-1.22-0.25
				c-0.72,0-1.27,0.18-1.66,0.54C273.3,323.43,273.02,323.93,272.86,324.57z"/>
			<path class="st2" d="M284.39,334.6c-0.81,0-1.52-0.1-2.16-0.3c-0.63-0.2-1.13-0.49-1.5-0.88c-0.36-0.39-0.55-0.87-0.55-1.45
				c0-0.48,0.14-0.89,0.41-1.24c0.27-0.34,0.65-0.62,1.12-0.83c-0.28-0.14-0.5-0.3-0.64-0.49c-0.15-0.19-0.22-0.4-0.22-0.63
				c0-0.27,0.08-0.51,0.25-0.73c0.17-0.22,0.43-0.4,0.8-0.54c-0.49-0.31-0.87-0.72-1.13-1.24c-0.26-0.52-0.4-1.1-0.4-1.73
				c0-0.64,0.14-1.22,0.43-1.74c0.29-0.52,0.7-0.93,1.25-1.24c0.54-0.31,1.2-0.46,1.96-0.46c0.41,0,0.79,0.06,1.16,0.18
				s0.7,0.29,1,0.5c0.27-0.16,0.59-0.29,0.96-0.39s0.78-0.15,1.24-0.15c0.03,0,0.06,0,0.08,0c0.02,0,0.04,0,0.07,0l-0.2,1.08
				c-0.07,0-0.14,0-0.21,0c-0.07,0-0.13,0-0.21,0c-0.06,0-0.2,0.01-0.41,0.03s-0.41,0.05-0.59,0.1c0.25,0.29,0.44,0.61,0.57,0.97
				c0.13,0.36,0.2,0.73,0.2,1.12c0,0.67-0.15,1.27-0.44,1.81c-0.29,0.53-0.71,0.95-1.26,1.26s-1.2,0.46-1.96,0.46
				c-0.22,0-0.42-0.01-0.62-0.04c-0.2-0.03-0.39-0.07-0.57-0.12c-0.28,0.09-0.41,0.25-0.41,0.47c0,0.13,0.08,0.25,0.23,0.35
				c0.16,0.1,0.41,0.18,0.76,0.23l2.36,0.38c0.95,0.15,1.69,0.43,2.21,0.83c0.52,0.4,0.78,0.97,0.78,1.71
				c0,0.61-0.18,1.12-0.54,1.53c-0.36,0.4-0.86,0.71-1.52,0.91C286.04,334.5,285.28,334.6,284.39,334.6z M284.54,333.16
				c0.83,0,1.47-0.11,1.91-0.32c0.44-0.21,0.67-0.53,0.67-0.94c0-0.32-0.14-0.58-0.42-0.77c-0.28-0.19-0.68-0.33-1.2-0.42
				l-2.51-0.42c-0.33,0.14-0.62,0.34-0.86,0.58s-0.37,0.53-0.37,0.85c0,0.5,0.25,0.87,0.76,1.1
				C283.01,333.04,283.69,333.16,284.54,333.16z M284.01,326.77c0.68,0,1.21-0.21,1.57-0.62c0.36-0.41,0.54-0.94,0.54-1.6
				c0-0.63-0.18-1.15-0.54-1.55c-0.36-0.4-0.88-0.61-1.57-0.61c-0.69,0-1.2,0.2-1.56,0.61c-0.35,0.41-0.53,0.92-0.53,1.55
				c0,0.65,0.18,1.19,0.53,1.6C282.81,326.56,283.33,326.77,284.01,326.77z"/>
			<path class="st2" d="M290.14,319.29v-1.8h1.62v1.8H290.14z M290.14,330.1v-8.82h1.62v8.82H290.14z"/>
			<path class="st2" d="M293.96,330.1v-8.82h1.26l0.32,1.69l-0.63-0.27c0.6-0.66,1.18-1.09,1.74-1.3c0.57-0.2,1.12-0.31,1.66-0.31
				c1.29,0,2.21,0.37,2.77,1.12c0.56,0.74,0.83,1.75,0.83,3.03v4.86h-1.62v-4.86c0-0.94-0.17-1.62-0.52-2.05
				c-0.35-0.43-0.94-0.65-1.78-0.65c-0.59,0-1.14,0.13-1.64,0.39c-0.49,0.26-0.82,0.68-0.98,1.25l0.2-0.99v6.92H293.96z"/>
			<path class="st2" d="M310.93,330.1v-11.06h-3.68v-1.55h9.06v1.55h-3.67v11.06H310.93z"/>
			<path class="st2" d="M319.29,330.28c-0.69,0-1.28-0.14-1.77-0.42c-0.49-0.28-0.86-0.7-1.11-1.27c-0.26-0.57-0.38-1.3-0.38-2.18
				v-5.13h1.62v4.68c0,0.94,0.16,1.65,0.48,2.14c0.32,0.49,0.85,0.74,1.57,0.74c0.5,0,0.96-0.12,1.39-0.36
				c0.43-0.24,0.72-0.62,0.88-1.15l-0.23,0.88v-6.93h1.62v8.82h-1.44l-0.32-1.73l0.43,0.29c-0.29,0.55-0.65,0.95-1.08,1.22
				C320.52,330.14,319.97,330.28,319.29,330.28z"/>
			<path class="st2" d="M325.55,330.1v-8.82h1.33l0.2,1.46c0.45-0.56,0.88-0.97,1.29-1.24c0.41-0.27,0.85-0.4,1.32-0.4
				c0.15,0,0.29,0.02,0.41,0.05l-0.16,1.78c-0.08-0.02-0.16-0.03-0.25-0.04c-0.09-0.01-0.18-0.01-0.29-0.01
				c-0.47,0-0.9,0.1-1.29,0.31c-0.39,0.21-0.67,0.43-0.83,0.68v6.23H325.55z"/>
			<path class="st2" d="M331.25,330.1v-8.82h1.26l0.32,1.69l-0.63-0.27c0.6-0.66,1.18-1.09,1.74-1.3c0.57-0.2,1.12-0.31,1.66-0.31
				c1.29,0,2.21,0.37,2.77,1.12c0.56,0.74,0.83,1.75,0.83,3.03v4.86h-1.62v-4.86c0-0.94-0.17-1.62-0.52-2.05
				c-0.35-0.43-0.94-0.65-1.78-0.65c-0.59,0-1.14,0.13-1.64,0.39c-0.49,0.26-0.82,0.68-0.98,1.25l0.2-0.99v6.92H331.25z"/>
			<path class="st0" d="M281.71,351.89c-0.62,0-1.22-0.15-1.8-0.45c-0.58-0.3-0.98-0.74-1.21-1.32l0.4-0.29l-0.31,1.87h-1.44V338.2
				h1.62v6.41l-0.34-0.25c0.3-0.49,0.73-0.88,1.29-1.19c0.56-0.31,1.16-0.46,1.79-0.46c0.82,0,1.53,0.21,2.13,0.64
				c0.6,0.43,1.05,0.99,1.37,1.69c0.32,0.7,0.48,1.45,0.48,2.26c0,0.86-0.18,1.63-0.53,2.33c-0.35,0.69-0.83,1.24-1.43,1.65
				C283.12,351.68,282.45,351.89,281.71,351.89z M281.51,350.45c0.52,0,0.96-0.14,1.34-0.43c0.38-0.28,0.67-0.67,0.87-1.14
				c0.2-0.48,0.31-1,0.31-1.58c0-0.6-0.1-1.14-0.31-1.61c-0.2-0.47-0.5-0.85-0.87-1.13c-0.38-0.28-0.83-0.41-1.34-0.41
				c-0.46,0-0.89,0.12-1.29,0.35c-0.4,0.23-0.72,0.58-0.97,1.04c-0.25,0.47-0.37,1.05-0.37,1.76c0,0.74,0.12,1.34,0.37,1.8
				c0.25,0.46,0.57,0.8,0.97,1.02C280.62,350.34,281.05,350.45,281.51,350.45z"/>
			<path class="st0" d="M290.53,351.89c-0.69,0-1.28-0.14-1.77-0.42c-0.49-0.28-0.86-0.7-1.11-1.27c-0.26-0.57-0.38-1.3-0.38-2.18
				v-5.13h1.62v4.68c0,0.94,0.16,1.65,0.48,2.14c0.32,0.49,0.85,0.74,1.57,0.74c0.5,0,0.96-0.12,1.39-0.36
				c0.43-0.24,0.72-0.62,0.88-1.15l-0.23,0.88v-6.93h1.62v8.82h-1.44l-0.32-1.73l0.43,0.29c-0.29,0.55-0.65,0.95-1.08,1.22
				C291.77,351.76,291.22,351.89,290.53,351.89z"/>
			<path class="st0" d="M299.85,351.89c-0.56,0-1.01-0.1-1.34-0.31c-0.34-0.2-0.58-0.47-0.73-0.79c-0.15-0.32-0.23-0.66-0.23-1.01
				v-5.64h-1.51l0.14-1.26h1.37v-2.18l1.62-0.16v2.34h2.32v1.26h-2.32v4.65c0,0.56,0.03,0.97,0.1,1.22
				c0.07,0.25,0.23,0.41,0.49,0.48c0.26,0.07,0.68,0.1,1.26,0.1h0.41l-0.13,1.3H299.85z"/>
			<path class="st0" d="M305.92,351.89c-0.56,0-1.01-0.1-1.34-0.31c-0.34-0.2-0.58-0.47-0.73-0.79c-0.15-0.32-0.23-0.66-0.23-1.01
				v-5.64h-1.51l0.14-1.26h1.37v-2.18l1.62-0.16v2.34h2.32v1.26h-2.32v4.65c0,0.56,0.03,0.97,0.1,1.22
				c0.07,0.25,0.23,0.41,0.49,0.48c0.26,0.07,0.68,0.1,1.26,0.1h0.41l-0.13,1.3H305.92z"/>
			<path class="st0" d="M312.73,351.89c-0.92,0-1.71-0.21-2.36-0.62c-0.65-0.41-1.15-0.96-1.5-1.66c-0.35-0.69-0.52-1.47-0.52-2.32
				c0-0.85,0.17-1.63,0.52-2.32c0.35-0.69,0.84-1.25,1.5-1.66c0.65-0.41,1.44-0.62,2.36-0.62c0.92,0,1.71,0.21,2.36,0.62
				c0.65,0.41,1.15,0.96,1.5,1.66c0.35,0.69,0.52,1.47,0.52,2.32c0,0.85-0.17,1.63-0.52,2.32c-0.35,0.69-0.85,1.25-1.5,1.66
				C314.43,351.68,313.65,351.89,312.73,351.89z M312.73,350.45c0.88,0,1.55-0.28,2.02-0.83c0.47-0.56,0.7-1.33,0.7-2.32
				c0-0.99-0.23-1.76-0.7-2.32c-0.47-0.55-1.14-0.83-2.02-0.83c-0.87,0-1.54,0.28-2.01,0.83c-0.47,0.56-0.71,1.33-0.71,2.32
				c0,0.99,0.24,1.76,0.71,2.32C311.19,350.17,311.86,350.45,312.73,350.45z"/>
			<path class="st0" d="M318.78,351.71v-8.82h1.26l0.32,1.69l-0.63-0.27c0.6-0.66,1.18-1.09,1.74-1.3c0.57-0.2,1.12-0.31,1.66-0.31
				c1.29,0,2.21,0.37,2.77,1.12c0.56,0.74,0.83,1.75,0.83,3.03v4.86h-1.62v-4.86c0-0.94-0.17-1.62-0.52-2.05
				c-0.35-0.43-0.94-0.65-1.78-0.65c-0.59,0-1.14,0.13-1.64,0.39c-0.49,0.26-0.82,0.68-0.98,1.25l0.2-0.99v6.92H318.78z"/>
		</g>
	</g>
	<g>
		<path class="st2" d="M497.97,185.2c-20.6,0-37.36,16.76-37.36,37.35s16.76,37.35,37.36,37.35c20.6,0,37.36-16.76,37.36-37.35
			S518.57,185.2,497.97,185.2z M497.97,257.9c-19.5,0-35.36-15.86-35.36-35.35s15.86-35.35,35.36-35.35
			c19.5,0,35.36,15.86,35.36,35.35S517.47,257.9,497.97,257.9z"/>
		<path class="st2" d="M102.92,394.05c-20.14,0.53-36.36,17.07-36.36,37.32c0,20.59,16.76,37.35,37.36,37.35
			s37.36-16.76,37.36-37.35c0-20.26-16.22-36.79-36.36-37.32V335.6h146.75v-2H102.92V394.05z M139.28,431.38
			c0,19.49-15.86,35.35-35.36,35.35s-35.36-15.86-35.36-35.35s15.86-35.35,35.36-35.35S139.28,411.89,139.28,431.38z"/>
		<polygon class="st2" points="497.08,333.6 350.33,333.6 350.33,335.6 499.08,335.6 499.08,260.56 497.08,260.56 		"/>
	</g>
	<g>
		<path class="st0" d="M16.56,325.6h4.1c2.01-8.23,7.19-15.39,14.59-19.86l-1.04,5.04l3.92,0.81l2.44-11.8l-13.35-1.82l-0.54,3.96
			l5.86,0.8C24.29,307.94,18.59,316.19,16.56,325.6z"/>
		<path class="st0" d="M34.22,355.58l1.07,5.19c-7.52-4.53-12.76-11.84-14.71-20.23h-4.1c1.95,9.49,7.63,17.82,15.89,23.11
			l-5.69,0.78l0.54,3.96l13.35-1.82l-2.44-11.8L34.22,355.58z"/>
	</g>
	<g>
		<path class="st0" d="M9.3,336.99v-6.23c-0.16,0.1-0.32,0.19-0.49,0.26c-0.17,0.08-0.36,0.13-0.56,0.17l-0.13-1.3
			c0.17-0.04,0.36-0.12,0.58-0.26c0.21-0.14,0.41-0.3,0.59-0.48s0.31-0.38,0.38-0.57h1.18v8.4H9.3z"/>
		<path class="st0" d="M15.63,337.16c-0.61,0-1.13-0.11-1.58-0.33c-0.44-0.22-0.78-0.52-1.02-0.91c-0.24-0.39-0.36-0.84-0.36-1.34
			c0-0.5,0.12-0.95,0.37-1.33c0.25-0.38,0.59-0.68,1.04-0.89c0.44-0.21,0.96-0.32,1.55-0.32s1.1,0.11,1.55,0.32
			c0.44,0.21,0.79,0.51,1.04,0.89c0.25,0.38,0.37,0.83,0.37,1.33c0,0.51-0.12,0.96-0.36,1.34c-0.24,0.39-0.58,0.69-1.02,0.91
			C16.76,337.05,16.24,337.16,15.63,337.16z M15.63,332.91c-0.48,0-0.91-0.09-1.3-0.28c-0.39-0.19-0.7-0.45-0.93-0.78
			c-0.23-0.33-0.35-0.72-0.35-1.16c0-0.37,0.09-0.73,0.26-1.07c0.17-0.35,0.45-0.63,0.83-0.86c0.38-0.22,0.87-0.34,1.48-0.34
			c0.61,0,1.1,0.11,1.47,0.34s0.64,0.51,0.8,0.86c0.17,0.35,0.25,0.71,0.25,1.07c0,0.44-0.1,0.82-0.31,1.16
			c-0.21,0.33-0.5,0.6-0.88,0.78S16.15,332.91,15.63,332.91z M15.64,335.84c0.48,0,0.86-0.12,1.13-0.37c0.27-0.25,0.4-0.58,0.4-0.98
			c0-0.38-0.13-0.7-0.4-0.95c-0.27-0.25-0.65-0.38-1.13-0.38c-0.48,0-0.86,0.13-1.13,0.38c-0.27,0.25-0.41,0.57-0.41,0.95
			c0,0.41,0.13,0.74,0.41,0.98C14.77,335.72,15.15,335.84,15.64,335.84z M15.63,331.8c0.39,0,0.69-0.11,0.88-0.32
			c0.2-0.21,0.29-0.47,0.29-0.77c0-0.32-0.1-0.58-0.29-0.78c-0.2-0.2-0.49-0.3-0.88-0.3c-0.39,0-0.69,0.1-0.9,0.3
			c-0.21,0.2-0.32,0.46-0.32,0.78c0,0.3,0.11,0.56,0.32,0.77C14.94,331.69,15.25,331.8,15.63,331.8z"/>
		<path class="st0" d="M23.5,337.16c-0.71,0-1.33-0.19-1.86-0.56c-0.53-0.37-0.94-0.89-1.24-1.55c-0.3-0.67-0.44-1.44-0.44-2.33
			c0-0.85,0.15-1.6,0.44-2.24c0.3-0.65,0.71-1.15,1.24-1.51c0.53-0.36,1.15-0.54,1.86-0.54c0.71,0,1.33,0.18,1.86,0.55
			c0.53,0.36,0.94,0.87,1.24,1.52c0.29,0.65,0.44,1.39,0.44,2.24c0,0.89-0.15,1.67-0.44,2.33c-0.29,0.67-0.71,1.18-1.24,1.55
			C24.83,336.98,24.21,337.16,23.5,337.16z M23.5,335.78c0.38,0,0.72-0.1,1.02-0.31c0.3-0.21,0.54-0.54,0.72-0.99
			c0.18-0.45,0.26-1.04,0.26-1.76c0-1-0.19-1.74-0.57-2.22c-0.38-0.48-0.86-0.72-1.43-0.72c-0.57,0-1.04,0.24-1.43,0.72
			c-0.38,0.48-0.58,1.22-0.58,2.22c0,0.72,0.09,1.3,0.26,1.75c0.18,0.45,0.42,0.78,0.72,0.99C22.78,335.68,23.12,335.78,23.5,335.78
			z"/>
		<path class="st0" d="M29.47,331.21c-0.52,0-0.92-0.16-1.2-0.48c-0.29-0.32-0.43-0.71-0.43-1.15c0-0.44,0.14-0.83,0.43-1.16
			c0.29-0.33,0.69-0.49,1.2-0.49c0.52,0,0.93,0.16,1.22,0.49c0.29,0.33,0.43,0.71,0.43,1.16c0,0.44-0.14,0.83-0.43,1.15
			C30.4,331.05,29.99,331.21,29.47,331.21z M29.47,330.48c0.27,0,0.48-0.08,0.61-0.25c0.14-0.17,0.2-0.38,0.2-0.65
			c0-0.27-0.07-0.49-0.2-0.66s-0.34-0.25-0.61-0.25c-0.25,0-0.45,0.08-0.6,0.25c-0.15,0.17-0.22,0.39-0.22,0.66
			c0,0.27,0.07,0.49,0.22,0.65C29.02,330.39,29.22,330.48,29.47,330.48z"/>
	</g>
	<g>
		<path class="st0" d="M585.38,325.6h-4.1c-2.01-8.23-7.19-15.39-14.59-19.86l1.04,5.04l-3.92,0.81l-2.44-11.8l13.35-1.82l0.54,3.96
			l-5.86,0.8C577.65,307.94,583.35,316.19,585.38,325.6z"/>
		<path class="st0" d="M567.72,355.58l-1.07,5.19c7.52-4.53,12.76-11.84,14.71-20.23h4.1c-1.95,9.49-7.63,17.82-15.89,23.11
			l5.69,0.78l-0.54,3.96l-13.35-1.82l2.44-11.8L567.72,355.58z"/>
	</g>
	<g>
		<path class="st0" d="M575.06,336.99v-6.23c-0.16,0.1-0.32,0.19-0.49,0.26c-0.17,0.08-0.36,0.13-0.56,0.17l-0.13-1.3
			c0.17-0.04,0.36-0.12,0.58-0.26c0.21-0.14,0.41-0.3,0.59-0.48c0.18-0.19,0.31-0.38,0.38-0.57h1.18v8.4H575.06z"/>
		<path class="st0" d="M581.39,337.16c-0.61,0-1.13-0.11-1.58-0.33c-0.44-0.22-0.78-0.52-1.02-0.91c-0.24-0.39-0.36-0.84-0.36-1.34
			c0-0.5,0.12-0.95,0.37-1.33c0.25-0.38,0.59-0.68,1.04-0.89c0.44-0.21,0.96-0.32,1.55-0.32s1.1,0.11,1.55,0.32
			c0.44,0.21,0.79,0.51,1.04,0.89c0.25,0.38,0.37,0.83,0.37,1.33c0,0.51-0.12,0.96-0.36,1.34c-0.24,0.39-0.58,0.69-1.02,0.91
			C582.52,337.05,582,337.16,581.39,337.16z M581.39,332.91c-0.48,0-0.91-0.09-1.3-0.28s-0.7-0.45-0.93-0.78
			c-0.23-0.33-0.35-0.72-0.35-1.16c0-0.37,0.09-0.73,0.26-1.07c0.17-0.35,0.45-0.63,0.83-0.86c0.38-0.22,0.87-0.34,1.48-0.34
			c0.61,0,1.1,0.11,1.47,0.34s0.64,0.51,0.8,0.86c0.17,0.35,0.25,0.71,0.25,1.07c0,0.44-0.1,0.82-0.31,1.16
			c-0.21,0.33-0.5,0.6-0.88,0.78S581.91,332.91,581.39,332.91z M581.4,335.84c0.48,0,0.86-0.12,1.13-0.37
			c0.27-0.25,0.4-0.58,0.4-0.98c0-0.38-0.13-0.7-0.4-0.95c-0.27-0.25-0.65-0.38-1.13-0.38c-0.48,0-0.86,0.13-1.13,0.38
			c-0.27,0.25-0.41,0.57-0.41,0.95c0,0.41,0.13,0.74,0.41,0.98C580.53,335.72,580.91,335.84,581.4,335.84z M581.39,331.8
			c0.39,0,0.69-0.11,0.88-0.32c0.2-0.21,0.29-0.47,0.29-0.77c0-0.32-0.1-0.58-0.29-0.78c-0.2-0.2-0.49-0.3-0.88-0.3
			c-0.39,0-0.69,0.1-0.9,0.3c-0.21,0.2-0.32,0.46-0.32,0.78c0,0.3,0.11,0.56,0.32,0.77C580.7,331.69,581.01,331.8,581.39,331.8z"/>
		<path class="st0" d="M589.26,337.16c-0.71,0-1.33-0.19-1.86-0.56c-0.53-0.37-0.94-0.89-1.24-1.55s-0.44-1.44-0.44-2.33
			c0-0.85,0.15-1.6,0.44-2.24s0.71-1.15,1.24-1.51c0.53-0.36,1.15-0.54,1.86-0.54c0.71,0,1.33,0.18,1.86,0.55
			c0.53,0.36,0.94,0.87,1.24,1.52s0.44,1.39,0.44,2.24c0,0.89-0.15,1.67-0.44,2.33s-0.71,1.18-1.24,1.55
			C590.6,336.98,589.97,337.16,589.26,337.16z M589.26,335.78c0.38,0,0.72-0.1,1.02-0.31c0.3-0.21,0.54-0.54,0.72-0.99
			c0.18-0.45,0.26-1.04,0.26-1.76c0-1-0.19-1.74-0.57-2.22c-0.38-0.48-0.86-0.72-1.43-0.72c-0.57,0-1.04,0.24-1.43,0.72
			c-0.38,0.48-0.58,1.22-0.58,2.22c0,0.72,0.09,1.3,0.26,1.75c0.18,0.45,0.42,0.78,0.72,0.99
			C588.54,335.68,588.88,335.78,589.26,335.78z"/>
		<path class="st0" d="M595.23,331.21c-0.52,0-0.92-0.16-1.2-0.48c-0.29-0.32-0.43-0.71-0.43-1.15c0-0.44,0.14-0.83,0.43-1.16
			c0.29-0.33,0.69-0.49,1.2-0.49c0.52,0,0.93,0.16,1.22,0.49c0.29,0.33,0.43,0.71,0.43,1.16c0,0.44-0.14,0.83-0.43,1.15
			C596.16,331.05,595.75,331.21,595.23,331.21z M595.23,330.48c0.27,0,0.48-0.08,0.61-0.25c0.14-0.17,0.2-0.38,0.2-0.65
			c0-0.27-0.07-0.49-0.2-0.66c-0.14-0.17-0.34-0.25-0.61-0.25c-0.25,0-0.45,0.08-0.6,0.25c-0.15,0.17-0.22,0.39-0.22,0.66
			c0,0.27,0.07,0.49,0.22,0.65C594.78,330.39,594.98,330.48,595.23,330.48z"/>
	</g>
</g>
</svg>
