<?xml version="1.0" encoding="utf-8"?>
<!-- Generator: Adobe Illustrator 25.2.0, SVG Export Plug-In . SVG Version: 6.00 Build 0)  -->
<svg version="1.1" id="Layer_1" xmlns="http://www.w3.org/2000/svg" xmlns:xlink="http://www.w3.org/1999/xlink" x="0px" y="0px"
	 viewBox="0 0 612 396" style="enable-background:new 0 0 612 396;" xml:space="preserve">
<style type="text/css">
	.st0{fill:#A7A9AC;}
	.st1{fill:#FFFFFF;}
	.st2{fill:#F1B760;}
	.st3{fill:#80BFE9;}
	.st4{fill:#F5F08A;}
	.st5{fill:#F26E85;}
</style>
<g>
	<g>
		<path class="st0" d="M225.26,293.84c0.15-4.02,0.3-8.05,0.45-12.07c0.02-0.51-0.16-1-0.46-1.41c-0.12-1.12-0.9-2.17-2.34-2.2
			c-13.01-0.32-26.03,0.09-39,1.23c-1.32,0.12-2.45,1.04-2.45,2.45c0,0.29,0.07,0.59,0.18,0.87c-0.12,0.29-0.19,0.6-0.2,0.94
			c0,0.26,0,0.53,0,0.79c-0.86-0.14-1.97,0.38-2.11,1.31c-0.76,5.11-0.59,10.24,0.57,15.28c0.07,0.29,0.22,0.54,0.42,0.74
			c0.18,0.71,0.74,1.28,1.7,1.21c11.31-0.85,22.63-1.55,33.95-2.12c-0.06,0.76-0.07,1.53,0,2.29c0.03,0.32,0.26,0.63,0.61,0.61
			c0.31-0.01,0.64-0.27,0.61-0.61c-0.07-0.79-0.04-1.58,0.03-2.36c0.06,0,0.13-0.01,0.19-0.01c0.09,0.37,0.22,0.77,0.44,1.09
			c-0.09,1.91-0.14,3.83-0.1,5.74c0.02,0.79,1.24,0.79,1.23,0c-0.03-1.68,0-3.35,0.06-5.03c0.39,0.02,0.78-0.1,1.1-0.39
			c0.52-0.47,0.61-1.15,0.56-1.8c0.23-0.13,0.42-0.31,0.56-0.52c0.05-0.04,0.1-0.08,0.15-0.12c0.23-0.23,0.39-0.5,0.47-0.81
			c0.13-0.36,0.2-0.73,0.25-1.11c0.22,0.04,0.45,0.07,0.67,0.12C225.37,298.5,226.71,295.28,225.26,293.84z M220.76,283.03
			c-0.12,3.23-0.24,6.46-0.36,9.68c-5.14-0.44-10.46,0.18-15.55,0.4c-6.05,0.27-12.1,0.53-18.16,0.8c-0.28-3.26-0.39-6.54-0.35-9.81
			C197.79,283.18,209.27,282.82,220.76,283.03z M219.24,301.35c-0.02,0.01-0.06,0.03-0.08,0.04c-0.01,0-0.02,0-0.03,0.01
			c-0.01,0-0.02,0-0.04,0c0-0.09,0.01-0.18,0.02-0.28c0.08,0.04,0.17,0.07,0.26,0.06c0.01,0,0.01,0,0.01,0
			c-0.01,0.01-0.01,0.03-0.02,0.04c0,0-0.05,0.07-0.07,0.08C219.3,301.3,219.26,301.33,219.24,301.35z"/>
		<path class="st0" d="M188.6,288.05c0,0.19,0,0.38,0.02,0.57c0.05,0.55,0.13,1.1,0.3,1.63c0.15,0.45,0.43,0.86,0.85,1.1
			c0.21,0.13,0.44,0.21,0.68,0.22c0.24,0.05,0.49,0.04,0.73-0.03c0.45-0.14,0.88-0.42,1.1-0.85c0.23-0.43,0.34-0.94,0.19-1.42
			c-0.03-0.09-0.04-0.18-0.06-0.27c3.51-0.15,7.01-0.31,10.52-0.46c0.99-0.04,1.84-0.81,1.84-1.84c0-0.96-0.84-1.88-1.84-1.84
			c-4.23,0.19-8.46,0.37-12.68,0.56c-0.99,0.04-1.84,0.81-1.84,1.84C188.4,287.53,188.48,287.8,188.6,288.05z"/>
		<path class="st0" d="M206.33,288c0.12,0.1,0.25,0.19,0.37,0.29c0.29,0.17,0.6,0.25,0.93,0.25c0.08,0,0.16,0,0.23,0
			c0.25,0.01,0.49-0.04,0.71-0.16c0.23-0.07,0.43-0.2,0.59-0.38c0.18-0.17,0.31-0.36,0.38-0.59c0.12-0.22,0.17-0.46,0.16-0.71
			c-0.02-0.16-0.04-0.33-0.07-0.49c-0.09-0.31-0.25-0.58-0.47-0.81c-0.12-0.1-0.25-0.19-0.37-0.29c-0.29-0.17-0.6-0.25-0.93-0.25
			c-0.08,0-0.16,0-0.23,0c-0.25-0.01-0.49,0.04-0.71,0.16c-0.23,0.07-0.43,0.2-0.59,0.38c-0.18,0.17-0.31,0.36-0.38,0.59
			c-0.12,0.22-0.17,0.46-0.16,0.71c0.02,0.16,0.04,0.33,0.07,0.49C205.94,287.5,206.1,287.77,206.33,288z"/>
	</g>
	<g>
		<path class="st0" d="M444.73,294.23c0.3-0.4,0.49-0.9,0.52-1.46c0.15-2.49,0.3-4.98,0.45-7.47c0.08-1.28-1.18-2.51-2.45-2.45
			c-0.06,0-0.12,0.02-0.19,0.02c-0.43-0.41-1-0.67-1.66-0.67c-3.37,0-6.74,0-10.11,0c0.14-3.95,0.28-7.9,0.42-11.86
			c0.05-1.28-1.16-2.51-2.45-2.45c-0.61,0.03-1.15,0.26-1.58,0.61c-0.05,0-0.1-0.01-0.15-0.01c-5.51,0.27-11,0.97-16.4,2.07
			c-0.51,0.11-0.95,0.43-1.27,0.86c-0.43,0.33-0.71,0.83-0.71,1.42c0,0.87,0,1.73,0,2.6c-0.09,0.02-0.19,0.05-0.28,0.07
			c-0.23-0.08-0.48-0.12-0.72-0.11c-1.39,0.06-2.37,1.08-2.45,2.45c-0.09,1.53-0.18,3.05-0.27,4.58c-2.25,0.06-4.51,0.12-6.76,0.18
			c-1.27,0.03-2.5,1.09-2.45,2.43c-0.05,0.25-0.1,0.5-0.15,0.75c-0.12-0.02-0.23-0.03-0.34-0.03c-1.46,0.07-2.29,1.08-2.45,2.45
			c-0.56,4.79-0.73,9.61-0.51,14.42c0.06,1.28,1.09,2.52,2.45,2.45c0.11-0.01,0.23-0.03,0.34-0.05c0.08,0.01,0.17,0.03,0.25,0.03
			c1.95,0.07,3.89,0.05,5.83-0.02c0.12,2.42,0.24,4.83,0.35,7.25c0.04,0.79,1.27,0.79,1.23,0c-0.03-0.54-0.05-1.08-0.08-1.62
			c0.28-0.03,0.55-0.22,0.57-0.58c0.1-1.72,0.19-3.44,0.29-5.15c0.84-0.05,1.67-0.13,2.5-0.21c-0.09,3.37-0.03,6.75,0.18,10.12
			c0.04,0.57,0.26,1.13,0.62,1.58c0.35,0.94,1.2,1.69,2.28,1.65c4.8-0.18,9.61-0.09,14.41,0.27c0.34,0.03,0.67-0.05,0.98-0.19
			c0.19,0.05,0.39,0.09,0.59,0.08c0.22-0.03,0.43-0.06,0.65-0.09c0.42-0.12,0.78-0.33,1.08-0.63c0.13-0.17,0.26-0.33,0.38-0.5
			c0.22-0.38,0.33-0.8,0.34-1.24c0-0.6,0-1.21,0-1.81c0.21,0.06,0.44,0.1,0.68,0.09c1.27-0.06,2.53-1.08,2.45-2.45
			c-0.14-2.54-0.13-5.09,0.04-7.62c3.78,0,7.56,0,11.35,0c1.28,0,2.51-1.13,2.45-2.45c-0.03-0.66-0.3-1.27-0.72-1.72
			c0.12-1.66,0.24-3.33,0.4-4.98C444.69,294.64,444.71,294.43,444.73,294.23z M429.78,299.1c-0.12,0-0.23,0.02-0.35,0.04
			c-0.16-0.03-0.33-0.05-0.49-0.05c-1.45,0.06-2.31,1.08-2.45,2.45c-0.33,3.12-0.42,6.26-0.28,9.39c-0.21-0.06-0.42-0.11-0.65-0.13
			c-3.86-0.31-7.73-0.42-11.61-0.36c0.13-2.64,0.26-5.28,0.38-7.92c0.02-0.34-0.06-0.67-0.2-0.98c0.07-0.22,0.11-0.46,0.1-0.7
			c-0.06-1.29-1.08-2.5-2.45-2.45c-3.87,0.13-7.75,0.21-11.62,0.23c-0.07,0-0.15,0.02-0.22,0.02c-0.15-3.8,0.12-7.53,0.81-11.19
			c3.8-0.1,7.61-0.2,11.41-0.3c0.74-0.02,1.45-0.39,1.91-0.95c0.59-0.44,0.99-1.11,0.95-1.9c-0.17-3.18-0.12-6.36,0.11-9.53
			c3.83-0.68,7.62-1.11,11.56-1.34c-0.12,3.48-0.25,6.95-0.37,10.43c-0.08,0.24-0.13,0.5-0.12,0.76c0.05,1.19,0.88,2.21,2.04,2.41
			c0.08,0.02,0.16,0.02,0.24,0.02c0.06,0,0.11,0.02,0.17,0.02c0.02,0,0.04,0,0.06,0c0.01,0,0.02,0,0.03,0c0.01,0,0.01,0,0.02,0
			c0.2,0,0.39,0,0.59,0c-0.09,0.99-0.17,1.98-0.26,2.97c-0.03,0.32,0.3,0.63,0.61,0.61c0.36-0.02,0.58-0.27,0.61-0.61
			c0.09-0.99,0.17-1.98,0.26-2.97c0.15,0,0.3,0,0.46,0c0,0.05,0,0.1,0,0.15c0,0.32,0.28,0.63,0.61,0.61
			c0.33-0.01,0.61-0.27,0.61-0.61c0-0.05,0-0.1,0-0.15c2.8,0,5.61,0,8.41,0c-0.01,0.1-0.01,0.2-0.02,0.3
			c-0.55,3.89-0.97,7.78-1.28,11.7C436.19,299.1,432.99,299.1,429.78,299.1z"/>
		<path class="st0" d="M411.6,289.57c-1-0.05-1.99-0.11-2.99-0.16c-0.48-0.03-0.95-0.05-1.43-0.08c-0.47-0.02-0.95-0.08-1.42-0.05
			c-1.32,0.08-2.55,0.82-2.87,2.17c-0.13,0.53-0.14,1.1,0.02,1.63c0.21,0.7,0.64,1.2,1.22,1.61c0.37,0.26,1,0.3,1.42,0.19
			c0.43-0.12,0.89-0.45,1.1-0.85c0.18-0.35,0.26-0.7,0.23-1.04c0.05,0,0.11,0.01,0.16,0.01c0.5,0.03,1,0.05,1.49,0.08
			c1.02,0.05,2.04,0.11,3.05,0.16c0.96,0.05,1.88-0.88,1.84-1.84C413.4,290.37,412.64,289.62,411.6,289.57z M406.26,291.73
			c-0.02-0.02-0.04-0.03-0.05-0.04c0.04,0.03,0.06,0.04,0.01-0.02C406.22,291.67,406.24,291.7,406.26,291.73z"/>
		<path class="st0" d="M420.31,275.34c-0.04,0-0.07-0.01-0.08-0.01c-0.57,0-1.16,0.09-1.66,0.39c-1.03,0.61-1.41,1.78-1.42,2.92
			c-0.01,0.93,0.07,1.86,0.1,2.79c0.04,1,0.08,2,0.12,2.99c0.04,0.96,0.82,1.89,1.84,1.84c0.97-0.04,1.88-0.81,1.84-1.84
			c-0.07-1.81-0.15-3.62-0.21-5.43c0.67-0.06,1.33-0.25,1.78-0.79c0.62-0.74,0.78-1.89,0-2.6
			C422.02,275.07,421,274.87,420.31,275.34z M420.7,275.33c-0.01,0.01-0.06,0.02-0.12,0.02
			C420.62,275.35,420.66,275.34,420.7,275.33z"/>
	</g>
	<path class="st0" d="M136.31,285.94c-0.23-3.71-0.63-7.4-1.2-11.07c-0.02-0.16-0.09-0.3-0.19-0.42c0.02-0.15,0.01-0.3-0.03-0.42
		c-0.09-0.28-0.26-0.55-0.53-0.69c-0.29-0.16-0.57-0.16-0.89-0.12c-1.14,0.16-2.26,0.41-3.36,0.74c0.34-1.05,0.68-2.11,1.03-3.16
		c0.06-0.16,0.06-0.33,0.03-0.5c0.21-0.43,0.09-0.93-0.22-1.32c-2.61-3.24-5.42-6.31-8.03-9.55c-0.27-0.34-0.75-0.4-1.16-0.27
		c-0.22-0.11-0.48-0.14-0.79-0.03c-3.85,1.27-7.68,2.57-11.53,3.84c-0.45,0.15-0.7,0.48-0.77,0.85c-0.18,0.13-0.32,0.33-0.41,0.59
		c-1.07,3.42-2.12,6.85-3.19,10.28c-1.05,0-2.11,0-3.16,0c0,0,0,0,0,0c-0.3-0.01-0.6,0.09-0.83,0.33c-1.89,2-3.85,3.92-5.9,5.75
		c-0.15,0.13-0.23,0.32-0.28,0.51c-0.21,0.25-0.31,0.59-0.19,1c1.13,3.72,2.51,7.35,4.1,10.9c0.05,0.12,0.13,0.21,0.22,0.29
		c0.13,0.5,0.56,0.89,1.11,0.89c2.42,0,4.83,0,7.25,0c0.12,0,0.24-0.03,0.35-0.06c0.39,0.11,0.82,0.04,1.12-0.28
		c2.15-2.28,3.87-4.95,5.72-7.46c0.17-0.24,0.2-0.55,0.13-0.84c0.08-0.01,0.15-0.02,0.23-0.04c2.07-0.53,4.11-1.16,6.13-1.86
		c0,0.46,0,0.91,0,1.37c0,0.2,0.18,0.4,0.39,0.39c0.21-0.01,0.39-0.17,0.39-0.39c0-0.41,0-0.82,0-1.24
		c0.02,0.01,0.04,0.03,0.06,0.04c1.04,0.66,2.08,1.31,3.13,1.97c0,0.84,0,1.68,0,2.52c0,0.5,0.77,0.5,0.77,0c0-0.68,0-1.36,0-2.03
		c1.49,0.94,2.97,1.87,4.46,2.81c0.18,0.11,0.38,0.16,0.59,0.15c0.34,0.17,0.75,0.19,1.09-0.03c1.02-0.66,2.05-1.32,3.07-1.98
		c0.13-0.08,0.25-0.19,0.34-0.31C135.87,286.98,136.34,286.5,136.31,285.94z M129.68,276.52c0.61-0.21,1.23-0.4,1.86-0.56
		c-0.45,3.57-0.76,7.16-0.95,10.75c-2.15-1.35-4.3-2.71-6.45-4.06c0.78-0.31,1.55-0.64,2.32-0.97c0.61,0.14,1.18-0.24,1.38-0.82
		c0.48-1.43,0.94-2.87,1.41-4.3C129.39,276.58,129.53,276.57,129.68,276.52z M109.21,277.76c-0.03-0.1-0.09-0.2-0.18-0.28
		c-0.08-0.07-0.19-0.13-0.3-0.17c-0.15-0.14-0.29-0.27-0.44-0.41c0.99-0.06,1.97-0.11,2.96-0.17c-0.03,0.12-0.05,0.26,0,0.41
		c0.39,1.3,0.78,2.6,1.17,3.9C111.39,279.92,110.32,278.82,109.21,277.76z M114.1,269.52c0-0.83,0-1.65,0-2.48
		c0.6,0.39,1.19,0.78,1.79,1.17c0.76,0.5,1.53,1,2.32,1.43c-1.89,1.65-3.81,3.27-5.75,4.86c-0.43-3-0.69-6.02-0.78-9.05
		c0.55,0.36,1.1,0.72,1.65,1.08c0,0.01,0,0.01,0,0.02c0,0.99,0,1.98,0,2.97C113.33,270.02,114.1,270.02,114.1,269.52z
		 M125.99,279.06c-1-0.16-2-0.33-3-0.49c1.76-1.64,3.4-3.41,4.89-5.3C127.26,275.2,126.63,277.13,125.99,279.06z M113.46,275.68
		c2.01-1.65,4-3.33,5.96-5.04c0.53,2.53,1.07,5.06,1.6,7.6c-0.02,0.02-0.04,0.03-0.06,0.05c-2.5-0.71-5.01-1.43-7.51-2.14
		c0.03-0.08,0.05-0.17,0.05-0.26C113.5,275.81,113.48,275.74,113.46,275.68z M122.35,277.06c-0.48-2.29-0.97-4.58-1.45-6.86
		c0.03-0.04,0.05-0.09,0.06-0.14c2.49-0.04,4.99-0.08,7.48-0.11C126.66,272.51,124.61,274.89,122.35,277.06z M114.72,283.32
		c-0.57-1.9-1.14-3.8-1.71-5.7c2.14,0.61,4.28,1.22,6.42,1.83c-1.53,1.2-3,2.46-4.41,3.79
		C114.92,283.26,114.82,283.29,114.72,283.32z M121.27,279.97c0.2,0.05,0.37,0.02,0.52-0.05c0.7,0.12,1.41,0.23,2.11,0.35
		c-1.79,0.73-3.6,1.38-5.44,1.96C119.38,281.45,120.32,280.7,121.27,279.97z M127.47,268.41c-2.12,0.03-4.23,0.06-6.34,0.1
		c0.21-1.42,0.42-2.85,0.64-4.27c0.06-0.4-0.1-0.85-0.54-0.95c-0.37-0.08-0.89,0.11-0.95,0.54c-0.23,1.56-0.46,3.11-0.7,4.67
		c-0.01,0.04,0,0.09,0,0.13c-1.07-0.5-2.06-1.19-3.05-1.84c-1.27-0.83-2.53-1.66-3.8-2.49c2.93-0.98,5.86-1.96,8.79-2.93
		C123.46,263.76,125.49,266.06,127.47,268.41z M110.17,266.06c0.11,3.06,0.4,6.11,0.85,9.14c-1.25,0.07-2.5,0.14-3.75,0.22
		C108.23,272.3,109.2,269.18,110.17,266.06z M102.37,276.99c0.87,0,1.73,0,2.6,0c0.12,0.11,0.27,0.2,0.43,0.25
		c0.05,0.13,0.14,0.26,0.25,0.36c0.41,0.37,0.81,0.75,1.21,1.13c-1.02,1.13-2.11,2.2-3.28,3.18c0,0,0,0.01-0.01,0.01
		c-2.16,0.07-4.32,0.15-6.48,0.22c0,0,0-0.01,0-0.01C98.92,280.49,100.68,278.77,102.37,276.99z M112.59,285.37
		c-0.89,1.21-1.75,2.44-2.64,3.64c-0.23,0.31-0.46,0.61-0.69,0.92c-0.06,0.08-0.12,0.16-0.18,0.24c-0.07,0.09,0.04-0.05-0.07,0.09
		c-0.12,0.15-0.24,0.31-0.36,0.46c-0.36,0.45-0.75,0.89-1.14,1.32c-0.04,0-0.07-0.01-0.11-0.01c-2.19,0-4.38,0-6.58,0
		c0-0.01-0.01-0.02-0.01-0.03c-1.22-2.72-2.28-5.5-3.22-8.33c0.91-0.03,1.81-0.06,2.72-0.09c0,0.09,0,0.19,0,0.28
		c0,0.1,0.04,0.2,0.11,0.27c0.07,0.07,0.18,0.12,0.27,0.11c0.1,0,0.2-0.04,0.27-0.11c0.07-0.08,0.11-0.17,0.11-0.27
		c0-0.1,0-0.2,0-0.3c0.12,0,0.24-0.01,0.37-0.01c0.06,0.76,0.12,1.53,0.18,2.29c0.02,0.2,0.17,0.4,0.39,0.39
		c0.2-0.01,0.4-0.17,0.39-0.39c-0.06-0.77-0.12-1.55-0.19-2.32c0.53-0.02,1.06-0.04,1.59-0.05c-0.01,0.08-0.01,0.17,0.02,0.26
		c0.56,2.04,1.2,4.06,1.94,6.04c0.14,0.39,0.52,0.66,0.95,0.54c0.38-0.1,0.68-0.56,0.54-0.95c-0.73-1.98-1.38-4-1.94-6.04
		c-0.05-0.19-0.16-0.32-0.29-0.41c0.02-0.08,0.04-0.16,0.04-0.24c1.03-0.89,2.01-1.85,2.92-2.86c1.69,1.65,3.31,3.36,4.84,5.15
		c0.03,0.03,0.06,0.06,0.1,0.09C112.8,285.12,112.69,285.24,112.59,285.37z M132.15,286.48c0.18-3.34,0.47-6.67,0.87-9.98
		c0.43,2.93,0.73,5.88,0.93,8.84c-0.04,0.02-0.07,0.03-0.11,0.05C133.27,285.75,132.71,286.11,132.15,286.48z M97.2,270.4
		c0.39,0.06,0.78,0.14,1.17,0.25c0.2,0.06,0.39,0.12,0.58,0.2c0.04,0.01,0.07,0.03,0.11,0.04c0.08,0.04,0.17,0.07,0.25,0.11
		c0.36,0.17,0.7,0.37,1.03,0.6c0.08,0.05,0.16,0.11,0.24,0.17c0.02,0.01,0.03,0.02,0.05,0.03c0,0,0,0,0.01,0
		c0.17,0.14,0.33,0.28,0.49,0.43c0.44,0.42,1.21,0.47,1.64,0c0.41-0.45,0.47-1.19,0-1.64c-1.35-1.28-3.09-2.17-4.93-2.43
		c-0.32-0.05-0.6-0.05-0.89,0.12c-0.24,0.14-0.47,0.42-0.53,0.69c-0.07,0.3-0.05,0.63,0.12,0.89
		C96.66,270.1,96.91,270.36,97.2,270.4z M99.06,270.89c0.01,0,0.02,0.01,0.02,0.01C99.19,270.94,99.12,270.92,99.06,270.89z
		 M101.97,266.78c-0.23-0.21-0.33-0.52-0.34-0.82c-0.01-0.29,0.14-0.62,0.34-0.82c0.1-0.11,0.23-0.19,0.37-0.24
		c0.14-0.07,0.29-0.11,0.45-0.1c0.28,0.04,0.57,0.07,0.85,0.15c0.27,0.07,0.52,0.18,0.78,0.29c0.44,0.19,0.82,0.46,1.18,0.76
		c0.23,0.19,0.33,0.53,0.34,0.82c0.01,0.31-0.14,0.6-0.34,0.82c-0.2,0.21-0.53,0.34-0.82,0.34c-0.16,0.01-0.31-0.03-0.45-0.1
		c-0.12-0.04-0.22-0.11-0.32-0.19c-0.2-0.15-0.42-0.28-0.65-0.38c-0.26-0.1-0.53-0.17-0.81-0.21c-0.12-0.02-0.24-0.06-0.35-0.13
		C102.12,266.9,102.04,266.84,101.97,266.78z M94.7,269.03c0,0.63-0.51,1.15-1.15,1.15s-1.15-0.51-1.15-1.15
		c0-0.63,0.51-1.15,1.15-1.15S94.7,268.39,94.7,269.03z M99.2,273.57c0,0.63-0.51,1.15-1.15,1.15s-1.15-0.51-1.15-1.15
		c0-0.63,0.51-1.15,1.15-1.15S99.2,272.93,99.2,273.57z"/>
	<g>
		<path class="st0" d="M524.81,133.21c-1.84-1.79-3.67-3.59-5.55-5.33c-0.08-0.88-0.15-1.77-0.15-2.66c0-0.99,0.07-1.97,0.16-2.95
			c0.06-0.6-0.53-1.16-1.11-1.21c0.01-0.14,0.01-0.28,0.01-0.42c0.01-0.15-0.02-0.27-0.07-0.37c-0.06-0.4-0.37-0.69-0.79-0.71
			c-1.53-0.06-3.06-0.04-4.59,0.04c-0.09-0.03-0.18-0.06-0.27-0.05c-0.21,0.01-0.43,0.08-0.57,0.24c-0.15,0.17-0.21,0.35-0.24,0.57
			c-0.02,0.15-0.03,0.3-0.05,0.45c-0.82-0.78-1.64-1.55-2.45-2.34c-0.08-0.08-0.16-0.14-0.25-0.2c-0.07-0.13-0.15-0.26-0.25-0.36
			c-0.68-0.68-1.61-0.55-2.3,0c-6.42,5.09-12.62,10.45-18.61,16.05c-1.12,1.05-0.18,2.56,1,2.73c0.01,0.27,0.02,0.54,0.01,0.82
			c-0.02,0.48-0.07,0.95-0.13,1.36c-0.04,0.27,0.07,0.58,0.37,0.65c0.25,0.06,0.6-0.08,0.65-0.37c0.14-0.89,0.2-1.79,0.17-2.7
			c1.14-0.12,2.28-0.24,3.43-0.37c-0.6,4.5-1.03,9.01-1.26,13.54c-0.04,0.88,0.78,1.62,1.62,1.62c0.08,0,0.15-0.01,0.23-0.02
			c0.3,0,0.6-0.01,0.89-0.01c0.16,0.5,0.58,0.84,1.14,0.87c1.72,0.09,3.45,0.04,5.17-0.16c0.22-0.03,0.41-0.07,0.59-0.16
			c0.04,0.01,0.09,0.01,0.13,0.01c0.69,0,1.18-0.56,1.22-1.22c0.15-2.84,0.3-5.68,0.46-8.52c1.17,0,2.33-0.01,3.5-0.02
			c-0.06,1.12-0.11,2.24-0.17,3.36c-0.01,0.28,0.25,0.53,0.53,0.53c0.3,0,0.51-0.24,0.53-0.53c0.06-1.12,0.11-2.24,0.17-3.36
			c0.22,0,0.44,0,0.67,0c-0.03,2.24-0.06,4.49-0.11,6.73c-0.05,0.16-0.08,0.32-0.08,0.49c0.03,0.71,0.48,1.32,1.13,1.54
			c0.11,0.57,0.58,1.01,1.19,1.01c2.14,0,4.28,0,6.42,0c0.33,0,0.65-0.15,0.88-0.38c0.36-0.18,0.64-0.52,0.66-1.04
			c0.13-4.37,0.26-8.74,0.39-13.11c0.05,0.12,0.11,0.23,0.2,0.31c0.06,0.06,0.12,0.11,0.19,0.15c0.07,0.04,0.16,0.08,0.24,0.09
			c0.14,0.03,0.29,0.02,0.41-0.05c0.12-0.07,0.21-0.18,0.24-0.32c0.05-0.19,0.11-0.38,0.16-0.58c0.81,0,1.63,0,2.44,0
			c0.55,0,1.08-0.42,1.19-0.96c0.23-0.07,0.45-0.2,0.62-0.38C525.4,134.86,525.46,133.84,524.81,133.21z M507.35,121.24
			c0.99,0.96,1.99,1.92,2.99,2.86c0.29,0.28,0.68,0.45,1.09,0.47c0,0.35,0,0.71,0,1.06c0,0.28,0.24,0.54,0.53,0.53
			c0.29-0.01,0.53-0.23,0.53-0.53c0-0.36,0-0.72,0-1.08c0.35-0.09,0.66-0.38,0.64-0.77c-0.01-0.22-0.02-0.44-0.02-0.66
			c0.01-0.06,0.02-0.11,0.01-0.17c0-0.05-0.01-0.11-0.02-0.16c0-0.24,0-0.49,0.01-0.73c0.01-0.29,0.04-0.57,0.07-0.86
			c1.12-0.05,2.24-0.06,3.37-0.04c-0.11,2.48-0.15,4.96-0.13,7.45c-0.1,0.51,0.02,1.06,0.43,1.44c1.41,1.31,2.8,2.65,4.17,3.99
			c-1.24-0.08-2.48-0.1-3.73-0.05c-0.24-0.04-0.49-0.03-0.73,0.03c-0.07,0-0.15,0-0.22,0.01c-0.39,0.03-0.72,0.3-0.79,0.69
			c-0.14,0.22-0.23,0.49-0.24,0.82c-0.12,4.02-0.18,8.05-0.18,12.07c-1.66-0.01-3.31-0.01-4.97-0.02c0.04-2.23,0.07-4.46,0.11-6.68
			c0.06-0.17,0.1-0.35,0.09-0.54c-0.01-0.15-0.04-0.28-0.08-0.42c0-0.1,0-0.2,0-0.3c0.01-0.57-0.47-0.82-0.91-0.77
			c-0.2-0.09-0.41-0.14-0.65-0.14c-2.15-0.01-4.3,0.05-6.45,0.04c-0.85,0-1.66,0.75-1.62,1.62c0,0.05,0.01,0.09,0.02,0.14
			c-0.05,0.11-0.09,0.23-0.11,0.35c-0.27,2.28-0.37,4.59-0.46,6.89c-0.07-0.01-0.15-0.02-0.23-0.01c-1.53,0.1-3.05,0.14-4.58,0.16
			c0.25-4.06,0.65-8.11,1.19-12.15c0.02-0.17,0-0.34-0.05-0.49c0.04-0.09,0.07-0.2,0.07-0.32c0-0.4-0.37-0.86-0.81-0.81
			c-0.16,0.02-0.31,0.03-0.47,0.05c-0.12-0.03-0.24-0.05-0.36-0.05c-0.27,0-0.5,0.06-0.71,0.16c-0.78,0.08-1.57,0.17-2.35,0.25
			C496.85,129.97,502.02,125.51,507.35,121.24z"/>
		<path class="st0" d="M502.52,129.35c1.55-1.21,3.1-2.42,4.65-3.63c0.2,0.17,0.41,0.34,0.61,0.51c0.1,0.1,0.21,0.18,0.34,0.22
			c0.13,0.07,0.26,0.1,0.41,0.09c0.15,0.01,0.28-0.02,0.41-0.09c0.13-0.04,0.24-0.12,0.34-0.22c0.05-0.07,0.11-0.14,0.17-0.21
			c0.1-0.16,0.14-0.34,0.14-0.53c-0.01-0.09-0.03-0.19-0.04-0.28c-0.05-0.18-0.14-0.33-0.27-0.47c-0.34-0.28-0.68-0.56-1.02-0.85
			c-0.1-0.1-0.21-0.18-0.34-0.22c-0.04-0.02-0.08-0.03-0.12-0.05c-0.45-0.35-0.97-0.29-1.41,0.05c-1.79,1.39-3.57,2.79-5.36,4.18
			c-0.44,0.34-0.38,1.14,0,1.49C501.49,129.77,502.06,129.71,502.52,129.35z"/>
		<path class="st0" d="M512.52,118.34c1.63,0,3.26,0,4.89,0c0.48,0,0.94-0.42,0.91-0.91c-0.02-0.49-0.4-0.91-0.91-0.91
			c-1.63,0-3.26,0-4.89,0c-0.48,0-0.94,0.42-0.91,0.91C511.63,117.92,512.01,118.34,512.52,118.34z"/>
	</g>
	<g>
		<path class="st0" d="M529.92,252.03c-1.4-1.81-3.75-2.51-5.94-1.86c-2.21,0.66-3.84,2.5-4,4.83c-0.1,1.36,0.37,2.73,1.2,3.8
			c-4.32-2.61-10.15-2.57-15.03-1.13c-3.81,1.13-7.35,2.97-11.08,4.33c-1.24,0.45-3.99,1.59-5.95,1.35
			c-0.17-0.04-0.33-0.09-0.49-0.15c-0.15-0.08-0.3-0.16-0.45-0.26c-0.25-0.21-0.47-0.43-0.68-0.68c-0.17-0.27-0.33-0.54-0.46-0.84
			c-0.15-0.28-0.36-0.5-0.62-0.67c-0.23-0.21-0.5-0.35-0.82-0.43c-0.43-0.12-0.97-0.11-1.43,0.04c-0.04,0-0.07-0.01-0.1-0.01
			c-1.17,0-2.56,1.1-2.4,2.4c0.22,1.72,0.38,3.45,0.43,5.19c0.03,0.91,0.02,1.83-0.03,2.74c-0.04,0.83-0.13,1.73-0.23,2.35
			c-0.59,3.48-1.89,6.28-4.66,8.49c-0.92,0.73-0.86,2.24-0.2,3.14c0,0.37,0.09,0.77,0.31,1.17c2.44,4.43,7.56,5.86,12.29,5.34
			c-0.18,1.36-0.33,2.73-0.39,4.1c-0.01,0.32,0.29,0.6,0.6,0.6c0.35,0,0.57-0.28,0.6-0.6c0.14-1.43,0.29-2.85,0.43-4.28
			c0.03-0.01,0.06-0.01,0.09-0.01c0.13-0.03,0.27-0.06,0.4-0.09c0,0.16,0,0.32,0,0.47c0,0.31,0.28,0.61,0.6,0.6
			c0.32-0.01,0.6-0.26,0.6-0.6c0-0.26,0-0.51,0-0.77c4.57-1.28,8.78-4.03,13.49-4.54c0.05,0,0.1-0.01,0.15-0.01
			c0.11-0.01,0.23-0.02,0.35-0.03c0.21-0.02,0.43-0.03,0.64-0.04c0.19,0,0.37,0,0.56,0c0.17,0.01,0.35,0.02,0.52,0.03
			c0.62,0.11,1.23,0.27,1.82,0.49c0.36,0.17,0.7,0.36,1.03,0.57c-1.42,5.27-2.55,10.61-3.34,16.03c-0.19,1.28,0.32,2.58,1.67,2.95
			c1.13,0.31,2.76-0.39,2.95-1.67c1.89-12.89,5.58-25.49,11.02-37.34c0.16-0.01,0.32-0.03,0.48-0.07c-0.14,1.91-0.29,3.81-0.43,5.72
			c-0.06,0.77,1.14,0.77,1.2,0c0.16-2.14,0.32-4.28,0.48-6.42c0.7-0.68,1.05-1.73,0.46-2.84c-0.24-0.44-0.49-0.86-0.77-1.26
			c0.19-0.43,0.38-0.87,0.57-1.3c0.48,0,0.96-0.08,1.42-0.2c-0.01,0.39,0,0.78,0.06,1.16c0.02,0.14,0.16,0.29,0.28,0.36
			c0.13,0.08,0.32,0.11,0.46,0.06c0.34-0.11,0.47-0.4,0.42-0.74c0.02,0.15,0-0.04-0.01-0.07c-0.01-0.06-0.01-0.12-0.02-0.18
			c-0.01-0.1-0.01-0.2-0.01-0.31c0-0.23,0.01-0.46,0.03-0.69c0-0.01,0-0.03,0-0.06c0.62-0.32,1.18-0.76,1.64-1.29
			c0.4-0.02,0.8-0.19,0.97-0.56C531.59,256.29,531.32,253.84,529.92,252.03z M512.99,280.64c-0.66-1.03-0.87-2.39-0.78-3.61
			c0.17-2.12,1.04-4.23,2.15-6.03c0.99-1.6,2.31-3.03,3.85-4.13C516.24,271.38,514.5,275.97,512.99,280.64z M508.69,281.25
			c-0.16-0.04-0.33-0.07-0.51-0.08c-5.63-0.29-10.39,2.62-15.54,4.36c-3.51,1.18-8.52,1.84-10.9-1.66
			c4.25-4.17,5.3-10.24,5.13-16.13c0.35,0.11,0.72,0.2,1.09,0.26c0.03,0.01,0.05,0.02,0.08,0.02c0.2,0.04,0.41,0.06,0.61,0.06
			c4.55,0.38,10.19-2.47,13.69-3.93c4.94-2.07,12.72-4.61,17.2-0.71c-3.24,1.39-5.94,3.95-7.68,7.08
			c-1.72,3.12-2.86,7.95-1.09,11.13c-0.06-0.02-0.12-0.05-0.19-0.07C509.96,281.42,509.33,281.32,508.69,281.25z M528.08,257.04
			c-0.04,0.07-0.09,0.14-0.14,0.21c-0.02,0.02-0.12,0.14-0.13,0.15c-0.11,0.12-0.22,0.22-0.34,0.33c-0.03,0.03-0.14,0.11-0.15,0.12
			c-0.09,0.06-0.18,0.12-0.28,0.17c-0.06,0.04-0.13,0.07-0.19,0.1c-0.06,0.03-0.12,0.06-0.17,0.08c-0.02,0.01-0.01,0.01-0.04,0.01
			c-0.17,0.06-0.34,0.12-0.52,0.16c-0.11,0.03-0.21,0.05-0.32,0.07c-0.02,0-0.03,0.01-0.04,0.01c-0.02,0-0.04,0-0.07,0
			c-0.18,0.01-0.36,0.02-0.54,0.01c-0.08,0-0.16-0.01-0.24-0.02c-0.03-0.01-0.17-0.03-0.19-0.04c-0.11-0.02-0.21-0.05-0.31-0.08
			c-0.02,0-0.13-0.05-0.18-0.06c-0.14-0.07-0.29-0.14-0.42-0.22c-0.07-0.05-0.14-0.1-0.21-0.15c-0.03-0.03-0.08-0.07-0.1-0.09
			c-0.06-0.06-0.13-0.12-0.19-0.19c-0.02-0.02-0.16-0.19-0.2-0.22c-0.1-0.13-0.19-0.26-0.27-0.4c-0.05-0.09-0.1-0.19-0.15-0.29
			c-0.02-0.03-0.02-0.04-0.03-0.06c-0.01-0.02-0.01-0.03-0.02-0.06c-0.06-0.17-0.12-0.34-0.16-0.52c-0.03-0.11-0.05-0.21-0.07-0.32
			c-0.01-0.02-0.01-0.04-0.01-0.05c0-0.02,0-0.03,0-0.06c-0.01-0.22-0.01-0.43,0-0.65c0-0.02,0-0.03,0-0.05
			c0.01-0.09,0.03-0.19,0.05-0.28c0.02-0.11,0.05-0.21,0.09-0.31c0,0.01,0.04-0.1,0.06-0.16c0.03-0.06,0.07-0.15,0.07-0.14
			c0.06-0.12,0.13-0.24,0.21-0.36c0,0,0.06-0.08,0.09-0.13c0.04-0.05,0.1-0.12,0.1-0.12c0.13-0.14,0.27-0.27,0.41-0.39
			c0.02-0.01,0.01-0.01,0.01-0.01c0.01-0.01,0.01-0.01,0.03-0.02c0.09-0.06,0.17-0.12,0.26-0.17c0.16-0.1,0.32-0.18,0.49-0.26
			c0.05-0.02,0.14-0.06,0.16-0.06c0.1-0.03,0.2-0.06,0.3-0.09c0.14-0.04,0.29-0.07,0.44-0.1c-0.01,0.01,0.3-0.03,0.38-0.03
			c0.1,0,0.21,0,0.31,0c0.04,0,0.24,0.03,0.29,0.03c0.14,0.03,0.28,0.05,0.42,0.09c0.1,0.03,0.2,0.06,0.3,0.1
			c0.01,0,0.01,0,0.02,0.01c0.01,0,0.01,0.01,0.03,0.02c0.17,0.09,0.34,0.19,0.5,0.29c0.04,0.02,0.04,0.02,0.05,0.03
			c0.01,0.01,0.01,0.01,0.04,0.04c0.08,0.07,0.16,0.14,0.23,0.21c0.08,0.07,0.15,0.15,0.22,0.23c0.04,0.04,0.07,0.08,0.11,0.13
			c0.13,0.19,0.25,0.38,0.36,0.58c0.03,0.06,0.06,0.13,0.09,0.19c0.01,0.03,0.01,0.03,0.02,0.04c0.02,0.05,0.04,0.11,0.06,0.16
			c0.07,0.2,0.13,0.4,0.17,0.61c0.02,0.07,0.03,0.15,0.04,0.22c0,0.02,0.02,0.26,0.03,0.3c0.01,0.21,0,0.42-0.01,0.63
			c0,0.02,0,0.03,0,0.05c0,0.02-0.01,0.03-0.01,0.05c-0.02,0.07-0.03,0.13-0.04,0.2C528.48,256.62,528.24,256.79,528.08,257.04z"/>
		<path class="st0" d="M525.5,253.78c-0.08-0.06-0.16-0.12-0.24-0.19c-0.19-0.11-0.39-0.16-0.61-0.16c-0.05,0-0.1,0-0.15,0
			c-0.17-0.01-0.32,0.03-0.46,0.1c-0.15,0.05-0.28,0.13-0.39,0.25c-0.12,0.11-0.2,0.24-0.25,0.39c-0.08,0.14-0.11,0.3-0.1,0.46
			c0.01,0.11,0.03,0.21,0.04,0.32c0.06,0.2,0.16,0.38,0.31,0.53c0.08,0.06,0.16,0.12,0.24,0.19c0.19,0.11,0.39,0.16,0.61,0.16
			c0.05,0,0.1,0,0.15,0c0.17,0.01,0.32-0.03,0.46-0.1c0.15-0.05,0.28-0.13,0.39-0.25c0.12-0.11,0.2-0.24,0.25-0.39
			c0.08-0.14,0.11-0.3,0.1-0.46c-0.01-0.11-0.03-0.21-0.04-0.32C525.76,254.1,525.65,253.93,525.5,253.78z"/>
	</g>
	<path class="st0" d="M114.54,308.17c-16.69,0-30.26-13.58-30.26-30.27c0-16.69,13.58-30.27,30.26-30.27s30.26,13.58,30.26,30.27
		C144.8,294.6,131.23,308.17,114.54,308.17z M114.54,249.64c-15.58,0-28.26,12.68-28.26,28.27c0,15.59,12.68,28.27,28.26,28.27
		s28.26-12.68,28.26-28.27C142.8,262.32,130.12,249.64,114.54,249.64z"/>
	<path class="st0" d="M507.3,316.41c-21.91,0-39.73-17.83-39.73-39.74s17.82-39.74,39.73-39.74c21.91,0,39.73,17.83,39.73,39.74
		S529.21,316.41,507.3,316.41z M507.3,238.94c-20.81,0-37.73,16.93-37.73,37.74c0,20.81,16.93,37.74,37.73,37.74
		c20.81,0,37.73-16.93,37.73-37.74C545.03,255.87,528.11,238.94,507.3,238.94z"/>
	<path class="st0" d="M385.81,329.2h-151.6v-41.09c0-41.8,34-75.8,75.8-75.8s75.8,34.01,75.8,75.8V329.2z M237.22,326.2h145.6
		v-38.09c0-40.14-32.66-72.8-72.8-72.8s-72.8,32.66-72.8,72.8V326.2z"/>
	<path class="st0" d="M246.11,126.11c-1.3-2.7-2.41-5.48-3.41-8.31c0.89-2.95,1.95-5.82,3.15-8.65c0.31-0.73-0.18-1.4-0.75-1.6
		c0,0,0,0-0.01,0c-0.23-0.08-0.48-0.08-0.69,0.03c-6.15,2.11-11.95,5.56-16.69,10.02c-0.17,0.16-0.27,0.34-0.31,0.52
		c-0.11,0.31-0.06,0.65,0.24,0.94c-0.39,0.38-0.52,1,0,1.47c4.43,3.99,10.18,6.77,16.03,7.89c0.6,0.12,1.05-0.23,1.25-0.67
		c0,0,0,0,0.01,0C245.67,127.85,246.55,127.02,246.11,126.11z M230.14,118.31c2.81-2.49,5.98-4.63,9.35-6.33c0,0.61,0,1.22,0,1.82
		c0,0.25,0.39,0.25,0.39,0c0-0.67,0-1.34,0-2.02c0.13-0.06,0.26-0.13,0.4-0.19c0.01,0.03,0.01,0.07,0.02,0.1
		c0.01,0.03,0.02,0.05,0.04,0.07c0.01,0.02,0.03,0.04,0.06,0.05c0.02,0.01,0.05,0.02,0.07,0.02c0.03,0.01,0.05,0,0.08,0
		c0.05-0.02,0.09-0.04,0.12-0.09c0.01-0.02,0.01-0.03,0.02-0.05c0.01-0.03,0.01-0.07,0-0.1c-0.01-0.06-0.02-0.11-0.03-0.17
		c0.78-0.37,1.57-0.71,2.37-1.03c-0.91,2.28-1.74,4.58-2.44,6.94c-0.06,0.2-0.06,0.37-0.03,0.53c-0.02,0.15-0.01,0.32,0.05,0.51
		c0.79,2.23,1.65,4.45,2.61,6.62C238.56,123.45,234.04,121.3,230.14,118.31z M234.05,118.04c-0.3,0.22-0.77,0.05-0.94-0.25
		c-0.2-0.34-0.05-0.72,0.25-0.94c0.41-0.3,0.81-0.59,1.22-0.89c0.3-0.22,0.77-0.05,0.94,0.25c0.2,0.34,0.05,0.72-0.25,0.94
		C234.86,117.45,234.45,117.74,234.05,118.04L234.05,118.04z M236.73,116.05c-0.12,0-0.24-0.03-0.35-0.09
		c-0.05-0.04-0.09-0.07-0.14-0.11c-0.09-0.09-0.14-0.19-0.18-0.3c-0.01-0.06-0.02-0.12-0.02-0.18c0-0.09,0.02-0.18,0.06-0.27
		c0.03-0.09,0.08-0.16,0.14-0.22c0.06-0.07,0.14-0.11,0.22-0.14c0.08-0.04,0.17-0.06,0.27-0.06c0.05,0,0.1,0,0.15,0
		c0.12,0,0.24,0.03,0.35,0.09c0.05,0.04,0.09,0.07,0.14,0.11c0.09,0.09,0.14,0.19,0.18,0.3c0.01,0.06,0.02,0.12,0.02,0.18
		c0,0.09-0.02,0.18-0.06,0.27c-0.03,0.09-0.08,0.16-0.14,0.22c-0.06,0.07-0.14,0.11-0.22,0.14c-0.08,0.04-0.17,0.06-0.27,0.06
		C236.83,116.05,236.78,116.05,236.73,116.05L236.73,116.05z"/>
	<path class="st0" d="M393.84,118.12c-0.04-0.18-0.14-0.36-0.31-0.53c-4.74-4.46-10.54-7.91-16.7-10.02
		c-0.74-0.37-1.88,0.55-1.44,1.58c0.02,0.05,0.04,0.1,0.06,0.15c-0.44,0.19-0.73,0.62-0.49,1.19c0.23,0.56,0.45,1.13,0.68,1.69
		c0,0.19,0,0.38,0,0.56c0,0.1,0.09,0.2,0.2,0.2c0.04,0,0.07-0.01,0.1-0.03c0,0,0,0,0,0c-0.01,0.58-0.02,1.16-0.02,1.74
		c0,0.25,0.39,0.25,0.39,0c0-0.26,0-0.53,0-0.79c0.51,1.27,1.02,2.54,1.53,3.81c-1.3,3.1-2.6,6.19-3.89,9.29
		c-0.03,0.07-0.05,0.15-0.07,0.22c-0.43,0.73,0.14,1.94,1.19,1.63c6.14-1.81,12.09-4.69,17.15-8.61c0.07-0.05,0.13-0.11,0.17-0.17
		c-0.03,0.22-0.06,0.44-0.09,0.66c-0.01,0.11,0.1,0.2,0.2,0.2c0.12,0,0.18-0.09,0.2-0.2c0.04-0.33,0.09-0.67,0.13-1
		c0.24-0.18,0.47-0.37,0.7-0.56C393.9,118.82,393.96,118.45,393.84,118.12z M378.02,124.99c0.96-2.17,1.82-4.38,2.61-6.62
		c0.07-0.18,0.08-0.35,0.05-0.51c0.04-0.16,0.03-0.34-0.03-0.54c-0.7-2.36-1.53-4.66-2.44-6.94c4.69,1.86,9.12,4.57,12.88,7.92
		C387.21,121.3,382.68,123.45,378.02,124.99z M383.24,117.54c0.01,0.09,0.01,0.18-0.02,0.27c-0.1,0.31-0.14,0.63-0.23,0.93
		c-0.12,0.37-0.47,0.57-0.85,0.48c-0.35-0.08-0.59-0.5-0.48-0.85c0.09-0.28,0.13-0.57,0.21-0.85c-0.17-0.72-0.39-1.42-0.63-2.12
		c-0.3-0.84,1.03-1.2,1.33-0.37c0.26,0.74,0.5,1.49,0.67,2.25C383.25,117.38,383.25,117.46,383.24,117.54z"/>
	<g>
		<path class="st0" d="M114.22,138.43c0.03-0.14,0.04-0.29,0-0.44c-0.2-7.37-0.22-14.75-0.07-22.13c0.08-0.23,0.06-0.46-0.03-0.68
			c-0.15-0.61-0.77-0.87-1.33-0.78c-0.21,0.03-0.42,0.11-0.62,0.28c-2.59,2.19-5.1,4.48-7.68,6.69c-0.05,0.01-0.1,0.02-0.16,0.04
			c-1.41,0.49-2.81,1.01-4.19,1.56c-0.1,0.04-0.19,0.09-0.27,0.14c-0.38,0.12-0.72,0.4-0.77,0.79c-0.27,1.97-0.34,3.91-0.05,5.89
			c0.07,0.48,0.55,0.78,1.01,0.83c0.05,0.02,0.09,0.04,0.14,0.06c1.2,0.47,2.42,0.87,3.67,1.19c2.85,2.32,5.7,4.66,8.38,7.18
			c0.34,0.32,0.73,0.38,1.07,0.28C113.77,139.28,114.16,138.97,114.22,138.43z M101.22,128.62c-0.12-1.19-0.08-2.42,0.06-3.6
			c0.9-0.35,1.8-0.69,2.71-1.02c-0.12,1.83-0.17,3.66-0.12,5.49C102.97,129.24,102.09,128.95,101.22,128.62z M105.44,123.58
			c0.06-0.04,0.12-0.08,0.19-0.13c0.15-0.13,0.31-0.26,0.46-0.39c-0.02,0.63-0.04,1.25-0.07,1.88c-0.01,0.34,0.52,0.34,0.54,0
			c0.03-0.78,0.05-1.57,0.08-2.35c0.07-0.06,0.14-0.12,0.22-0.19c0,0.14,0,0.28,0,0.42c0,0.14,0.12,0.27,0.27,0.27
			c0.14-0.01,0.27-0.12,0.27-0.27c0-0.3,0-0.59,0-0.89c1.47-1.28,2.93-2.58,4.4-3.86c-0.09,5.83-0.07,11.67,0.05,17.5
			c-2.13-1.88-4.33-3.68-6.53-5.48C105.24,127.93,105.28,125.75,105.44,123.58z"/>
		<g>
			<path class="st0" d="M117.55,122.8c-0.89-0.9-2.28,0.49-1.39,1.39c1.68,1.69,1.64,3.87-0.1,5.49c-0.93,0.86,0.46,2.25,1.39,1.39
				C119.97,128.72,119.95,125.22,117.55,122.8z"/>
			<path class="st0" d="M123.76,127.13c0.05-3.35-1.63-6.54-4.31-8.5c-1.02-0.75-2,0.95-0.99,1.69c0.61,0.45,1.13,0.97,1.57,1.55
				c-0.07,0.45-0.1,0.91-0.06,1.36c0.01,0.14,0.12,0.27,0.27,0.27c0.14-0.01,0.28-0.12,0.27-0.27c-0.02-0.21-0.02-0.43-0.01-0.64
				c0-0.02,0-0.04,0-0.06c2.23,3.62,1.43,8.78-2.28,11.33c-1.03,0.71-0.05,2.41,0.99,1.69
				C121.96,133.67,123.71,130.48,123.76,127.13z"/>
			<path class="st0" d="M128.18,126.65c-0.11-4.88-2.67-9.44-6.65-12.22c-1.04-0.72-2.02,0.98-0.99,1.69
				c2.21,1.54,3.91,3.78,4.85,6.31c-0.03,1.22-0.06,2.45-0.09,3.67c-0.01,0.34,0.53,0.34,0.54,0c0.02-0.68,0.03-1.35,0.05-2.03
				c0.2,0.84,0.31,1.71,0.33,2.58c0.1,4.24-1.98,8.44-5.39,10.95c-1.01,0.74-0.03,2.44,0.99,1.69
				C125.79,136.37,128.29,131.62,128.18,126.65z"/>
		</g>
	</g>
	<g>
		<path class="st0" d="M307.58,315.41h-31.19v-6.19l14.72-15.69c2.02-2.21,3.52-4.14,4.48-5.78c0.97-1.65,1.45-3.21,1.45-4.69
			c0-2.02-0.51-3.61-1.53-4.77c-1.02-1.16-2.48-1.73-4.38-1.73c-2.04,0-3.65,0.7-4.83,2.11c-1.18,1.41-1.77,3.26-1.77,5.55h-9.06
			c0-2.77,0.66-5.3,1.98-7.59c1.32-2.29,3.19-4.09,5.61-5.39c2.42-1.3,5.16-1.95,8.22-1.95c4.69,0,8.33,1.13,10.92,3.38
			s3.89,5.43,3.89,9.53c0,2.25-0.58,4.54-1.75,6.88c-1.17,2.33-3.17,5.05-6,8.16l-10.34,10.91h19.56V315.41z"/>
		<path class="st0" d="M314.45,293.04l2.62-23.13h25.5v7.53h-18.09l-1.12,9.78c2.15-1.15,4.43-1.72,6.84-1.72
			c4.33,0,7.73,1.34,10.19,4.03c2.46,2.69,3.69,6.45,3.69,11.28c0,2.94-0.62,5.57-1.86,7.89c-1.24,2.32-3.02,4.13-5.33,5.41
			c-2.31,1.28-5.04,1.92-8.19,1.92c-2.75,0-5.3-0.56-7.66-1.67c-2.35-1.11-4.21-2.68-5.58-4.7c-1.37-2.02-2.09-4.32-2.17-6.91h8.94
			c0.19,1.9,0.85,3.37,1.98,4.42c1.13,1.05,2.62,1.58,4.45,1.58c2.04,0,3.61-0.73,4.72-2.2c1.1-1.47,1.66-3.55,1.66-6.23
			c0-2.58-0.64-4.56-1.91-5.94c-1.27-1.38-3.07-2.06-5.41-2.06c-2.15,0-3.89,0.56-5.22,1.69l-0.88,0.81L314.45,293.04z"/>
	</g>
	<g>
		<path class="st0" d="M309.19,230.37c1.75,0,2.62,1.88,2.62,5.63c0.23,6.5,0.48,9.75,0.75,9.75l-0.12,1.63
			c0.17,5.58,0.42,9.42,0.75,11.5c0,1.25-0.88,2.08-2.62,2.5c-1.6,0-2.52-1.29-2.75-3.88l-0.38-7.13h-0.12
			c-7.58,0.63-11.75,1.5-12.5,2.63l1,4.63c0,1.25-0.88,2.08-2.62,2.5c-1.6,0-2.65-1.71-3.12-5.13c-0.12-0.44-0.62-0.9-1.5-1.38
			c-0.5-0.58-0.75-1.17-0.75-1.75v-0.25c0-0.31,0.25-1.02,0.75-2.13v-0.13c-2.08-6.54-3.12-10.04-3.12-10.5
			c0-1.19,0.83-2.02,2.5-2.5c1.67,0,2.83,1.79,3.5,5.38c1.25,3.81,1.96,5.77,2.12,5.88h0.12c5.77-1.6,10.23-2.44,13.37-2.5
			l-0.5-11.13C306.56,231.58,307.44,230.37,309.19,230.37z"/>
		<path class="st0" d="M331.19,233.62c1.33,0,2.71,0.71,4.12,2.13l0.38,1.38v0.88c0,2.58-3.04,6.38-9.12,11.38l-5.62,3v0.13
			c1.33,3.81,2,5.98,2,6.5c0,1.27-0.88,2.06-2.62,2.38c-1.58,0-2.79-1.88-3.62-5.63c-3.56-10.17-5.4-16.17-5.5-18
			c0-1.38,0.88-2.17,2.62-2.38h0.12c0.42,0,1.04,0.38,1.87,1.13C322.17,234.58,327.29,233.62,331.19,233.62z M317.31,241.37
			c1.17,4.08,1.88,6.13,2.12,6.13c3.65-1.31,7.06-4.1,10.25-8.38v-0.25C326.77,238.87,322.65,239.7,317.31,241.37z"/>
	</g>
	<rect x="266.36" y="190.1" class="st0" width="87.32" height="4"/>
	<rect x="240.7" y="162.52" class="st0" width="137.33" height="14"/>
	<rect x="291.53" y="124.51" class="st0" width="37.16" height="4"/>
	<rect x="280.14" y="108.39" class="st0" width="58.98" height="4"/>
	<g>
		<path class="st1" d="M578.6,56.4H214.36v-1.79c0-1.77-1.44-3.2-3.2-3.2h-27c-1.77,0-3.2,1.44-3.2,3.2v1.79h-13.32v-1.79
			c0-1.77-1.44-3.2-3.2-3.2H88.66c-1.77,0-3.2,1.44-3.2,3.2v1.79H43.89c-18.42,0-33.4,14.98-33.4,33.4v221.86
			c0,18.42,14.98,33.4,33.4,33.4H578.6c18.41,0,33.4-14.98,33.4-33.4V89.8C612,71.38,597.02,56.4,578.6,56.4z M182.95,54.61
			c0-0.66,0.54-1.2,1.2-1.2h27c0.66,0,1.2,0.54,1.2,1.2v1.79h-29.4V54.61z M87.46,54.61c0-0.66,0.54-1.2,1.2-1.2h75.77
			c0.66,0,1.2,0.54,1.2,1.2v1.79H87.46V54.61z M606,311.66c0,15.11-12.29,27.4-27.4,27.4H43.89c-15.11,0-27.4-12.29-27.4-27.4V89.8
			c0-15.11,12.29-27.4,27.4-27.4H578.6c15.11,0,27.4,12.29,27.4,27.4V311.66z"/>
		<path class="st1" d="M59.36,329.7h503.79V71.76H59.36V329.7z M63.36,75.76h495.79V325.7H63.36V75.76z"/>
		<path class="st1" d="M41.11,223.28c1.84,0,3.33-1.5,3.33-3.34v-38.42c0-1.84-1.5-3.34-3.33-3.34c-1.84,0-3.34,1.5-3.34,3.34v38.42
			C37.77,221.78,39.27,223.28,41.11,223.28z M39.77,181.52c0-0.74,0.6-1.34,1.34-1.34c0.74,0,1.33,0.6,1.33,1.34v38.42
			c0,0.74-0.6,1.34-1.33,1.34c-0.74,0-1.34-0.6-1.34-1.34V181.52z"/>
		<path class="st1" d="M40.5,257.14c-4.49,0-8.15,3.66-8.15,8.15s3.66,8.15,8.15,8.15s8.15-3.66,8.15-8.15S45,257.14,40.5,257.14z
			 M40.5,271.44c-3.39,0-6.15-2.76-6.15-6.15s2.76-6.15,6.15-6.15s6.15,2.76,6.15,6.15S43.89,271.44,40.5,271.44z"/>
	</g>
	<path class="st2" d="M312.25,88.85V28.57h-2v60.28h-97.39v116.14h196.77V88.85H312.25z M407.63,202.99H214.86V90.85h192.77V202.99z
		"/>
	<g>
		<path class="st2" d="M202.72,17.14V0.34h2.47l8.28,12.58V0.34h2.3v16.8h-1.94L205,3.86v13.27H202.72z"/>
		<path class="st2" d="M221.66,17.38c-0.73,0-1.36-0.15-1.91-0.44c-0.54-0.3-0.97-0.7-1.27-1.21c-0.3-0.51-0.45-1.1-0.45-1.75
			c0-0.66,0.15-1.23,0.44-1.71s0.68-0.87,1.18-1.19c0.49-0.32,1.04-0.57,1.65-0.76c0.61-0.19,1.24-0.32,1.89-0.41
			c0.65-0.08,1.28-0.13,1.88-0.14c0-1.12-0.22-1.85-0.66-2.2c-0.44-0.34-1.08-0.52-1.91-0.52c-0.44,0-0.91,0.07-1.41,0.2
			c-0.5,0.14-1.06,0.42-1.69,0.85l-0.31-1.75c0.47-0.36,1.06-0.65,1.76-0.88c0.7-0.23,1.44-0.34,2.22-0.34
			c0.99,0,1.79,0.17,2.4,0.52c0.61,0.35,1.05,0.93,1.33,1.76c0.28,0.82,0.42,1.94,0.42,3.36v2.4c0,0.56,0.03,1.02,0.08,1.39
			c0.05,0.36,0.17,0.64,0.36,0.82c0.19,0.18,0.49,0.27,0.91,0.27h0.22l-0.34,1.73h-0.17c-0.7,0-1.23-0.07-1.61-0.2
			c-0.38-0.14-0.67-0.33-0.87-0.59c-0.2-0.26-0.38-0.57-0.54-0.94c-0.44,0.51-0.96,0.93-1.56,1.25
			C223.1,17.22,222.42,17.38,221.66,17.38z M222.07,15.65c0.58,0,1.13-0.14,1.67-0.43c0.54-0.29,0.98-0.67,1.33-1.15v-2.81
			c-1.14,0.04-2.07,0.15-2.78,0.34c-0.71,0.18-1.23,0.46-1.55,0.83c-0.33,0.37-0.49,0.84-0.49,1.43c0,0.63,0.17,1.09,0.51,1.37
			C221.09,15.51,221.53,15.65,222.07,15.65z"/>
		<path class="st2" d="M230.44,17.14V5.38h1.68l0.43,2.26l-0.82-0.38c0.74-0.79,1.45-1.34,2.15-1.65c0.7-0.31,1.43-0.46,2.2-0.46
			c0.58,0,1.13,0.09,1.66,0.28s1.01,0.52,1.44,0.98c0.43,0.47,0.77,1.12,1.03,1.95l-0.6-0.26c0.35-0.91,0.89-1.63,1.62-2.16
			s1.71-0.79,2.94-0.79c0.98,0,1.81,0.18,2.48,0.55c0.67,0.36,1.18,0.92,1.52,1.67c0.34,0.75,0.51,1.7,0.51,2.85v6.94h-2.16v-6.91
			c0-1.1-0.22-1.91-0.65-2.41c-0.43-0.5-1.14-0.76-2.11-0.76c-0.69,0-1.24,0.11-1.66,0.32c-0.42,0.21-0.73,0.49-0.94,0.82
			c-0.21,0.34-0.35,0.69-0.42,1.07c-0.07,0.38-0.1,0.73-0.1,1.06v6.82h-2.16v-6.48c0-0.96-0.12-1.7-0.35-2.22
			c-0.23-0.52-0.56-0.88-0.97-1.08c-0.42-0.2-0.9-0.3-1.44-0.3c-0.79,0-1.5,0.17-2.12,0.52c-0.62,0.35-1.04,0.9-1.26,1.66l0.26-1.18
			v9.07H230.44z"/>
		<path class="st2" d="M257.13,17.38c-1.38,0-2.55-0.28-3.49-0.85c-0.94-0.57-1.66-1.32-2.14-2.26c-0.48-0.94-0.73-1.97-0.73-3.1
			c0-1.1,0.23-2.1,0.68-3.01c0.45-0.91,1.11-1.64,1.97-2.19c0.86-0.55,1.9-0.82,3.11-0.82c0.98,0,1.85,0.19,2.61,0.58
			c0.76,0.39,1.36,0.95,1.8,1.69c0.44,0.74,0.65,1.64,0.65,2.69c0,0.17-0.01,0.35-0.02,0.55c-0.01,0.2-0.04,0.4-0.08,0.61h-8.52
			c0.1,1.09,0.36,1.94,0.78,2.54c0.42,0.61,0.94,1.04,1.57,1.28s1.32,0.37,2.06,0.37c0.54,0,1.11-0.06,1.7-0.17
			c0.59-0.11,1.15-0.29,1.68-0.53l0.29,1.7c-0.46,0.2-1.01,0.4-1.67,0.61C258.74,17.28,257.99,17.38,257.13,17.38z M253.17,9.77
			h6.19c0-0.55-0.1-1.03-0.31-1.44c-0.21-0.41-0.52-0.72-0.95-0.94c-0.42-0.22-0.96-0.33-1.62-0.33c-0.96,0-1.7,0.24-2.21,0.71
			C253.75,8.25,253.39,8.91,253.17,9.77z"/>
		<path class="st2" d="M277.12,17.47c-1.63,0-3.09-0.36-4.36-1.07c-1.28-0.72-2.28-1.73-3.01-3.04c-0.73-1.31-1.1-2.85-1.1-4.63
			s0.37-3.32,1.11-4.63s1.76-2.32,3.05-3.04C274.1,0.36,275.57,0,277.22,0c0.86,0,1.67,0.09,2.45,0.28
			c0.78,0.18,1.46,0.42,2.04,0.71l-0.24,2.11c-0.6-0.29-1.26-0.53-1.98-0.73c-0.72-0.2-1.48-0.3-2.29-0.3
			c-1.32,0-2.43,0.3-3.32,0.89c-0.9,0.6-1.57,1.4-2.03,2.41s-0.69,2.13-0.69,3.37c0,1.24,0.23,2.36,0.68,3.37
			c0.45,1.01,1.12,1.81,2.02,2.41c0.89,0.6,1.99,0.89,3.31,0.89c0.83,0,1.6-0.09,2.31-0.27s1.38-0.43,2.01-0.74l0.24,2.11
			c-0.6,0.27-1.28,0.5-2.03,0.68S278.08,17.47,277.12,17.47z"/>
		<path class="st2" d="M287.83,17.38c-0.92,0-1.7-0.19-2.35-0.56c-0.65-0.37-1.14-0.94-1.48-1.7c-0.34-0.76-0.51-1.73-0.51-2.9V5.38
			h2.16v6.24c0,1.25,0.21,2.2,0.64,2.86c0.43,0.66,1.12,0.98,2.09,0.98c0.66,0,1.28-0.16,1.85-0.48c0.57-0.32,0.96-0.83,1.18-1.54
			l-0.31,1.18V5.38h2.16v11.76h-1.92l-0.43-2.3l0.58,0.38c-0.39,0.73-0.87,1.27-1.43,1.63C289.48,17.2,288.74,17.38,287.83,17.38z"
			/>
		<path class="st2" d="M299.52,17.38c-1.04,0-1.9-0.12-2.59-0.37c-0.68-0.25-1.17-0.47-1.45-0.66l0.26-2.09
			c0.26,0.22,0.71,0.48,1.36,0.77c0.65,0.29,1.42,0.43,2.32,0.43c0.76,0,1.34-0.13,1.75-0.38c0.4-0.26,0.61-0.62,0.61-1.08
			c0-0.41-0.13-0.74-0.39-0.99c-0.26-0.25-0.57-0.45-0.94-0.6c-0.36-0.15-0.71-0.27-1.03-0.35c-0.54-0.14-1.09-0.33-1.66-0.55
			c-0.57-0.22-1.05-0.55-1.45-0.99c-0.39-0.44-0.59-1.06-0.59-1.85c0-0.6,0.14-1.17,0.43-1.71c0.29-0.54,0.76-0.98,1.4-1.31
			c0.65-0.34,1.51-0.5,2.58-0.5c0.78,0,1.42,0.08,1.91,0.25s0.92,0.34,1.28,0.52l-0.26,1.97c-0.34-0.29-0.74-0.53-1.2-0.73
			c-0.46-0.2-1.02-0.3-1.68-0.3c-0.67,0-1.22,0.13-1.64,0.38s-0.64,0.65-0.64,1.21c0,0.55,0.23,0.94,0.68,1.18
			c0.45,0.23,1.14,0.49,2.06,0.77c0.29,0.08,0.62,0.2,1,0.35c0.38,0.15,0.75,0.36,1.11,0.61c0.36,0.26,0.66,0.59,0.89,1
			c0.24,0.41,0.35,0.93,0.35,1.54c0,0.52-0.12,1.05-0.37,1.59c-0.25,0.54-0.7,0.99-1.34,1.36
			C301.64,17.19,300.72,17.38,299.52,17.38z"/>
		<path class="st2" d="M310.17,17.38c-0.74,0-1.34-0.14-1.79-0.41c-0.45-0.27-0.77-0.62-0.98-1.05c-0.2-0.43-0.31-0.88-0.31-1.35
			V7.06h-2.02l0.19-1.68h1.82v-2.9l2.16-0.22v3.12h3.1v1.68h-3.1v6.19c0,0.75,0.04,1.3,0.13,1.63s0.31,0.55,0.65,0.64
			c0.35,0.09,0.91,0.13,1.69,0.13h0.55l-0.17,1.73H310.17z"/>
		<path class="st2" d="M319.24,17.38c-1.23,0-2.28-0.27-3.15-0.82c-0.87-0.55-1.53-1.28-1.99-2.21s-0.69-1.95-0.69-3.09
			c0-1.14,0.23-2.17,0.69-3.09c0.46-0.92,1.12-1.66,1.99-2.21c0.87-0.55,1.92-0.82,3.15-0.82c1.22,0,2.27,0.27,3.14,0.82
			c0.87,0.55,1.54,1.28,2,2.21c0.46,0.92,0.69,1.95,0.69,3.09c0,1.14-0.23,2.17-0.69,3.09s-1.13,1.66-2,2.21
			C321.52,17.1,320.47,17.38,319.24,17.38z M319.24,15.46c1.17,0,2.06-0.37,2.69-1.11c0.62-0.74,0.94-1.77,0.94-3.09
			c0-1.32-0.31-2.35-0.94-3.09c-0.62-0.74-1.52-1.11-2.69-1.11c-1.16,0-2.05,0.37-2.68,1.11c-0.63,0.74-0.94,1.77-0.94,3.09
			c0,1.32,0.31,2.35,0.94,3.09C317.19,15.09,318.08,15.46,319.24,15.46z"/>
		<path class="st2" d="M327.31,17.14V5.38h1.68l0.43,2.26l-0.82-0.38c0.74-0.79,1.45-1.34,2.15-1.65c0.7-0.31,1.43-0.46,2.2-0.46
			c0.58,0,1.13,0.09,1.66,0.28c0.53,0.19,1.01,0.52,1.44,0.98c0.43,0.47,0.77,1.12,1.03,1.95l-0.6-0.26
			c0.35-0.91,0.89-1.63,1.62-2.16s1.71-0.79,2.94-0.79c0.98,0,1.81,0.18,2.48,0.55c0.67,0.36,1.18,0.92,1.52,1.67
			c0.34,0.75,0.51,1.7,0.51,2.85v6.94h-2.16v-6.91c0-1.1-0.22-1.91-0.65-2.41c-0.43-0.5-1.14-0.76-2.11-0.76
			c-0.69,0-1.24,0.11-1.66,0.32c-0.42,0.21-0.73,0.49-0.94,0.82c-0.21,0.34-0.35,0.69-0.42,1.07c-0.07,0.38-0.1,0.73-0.1,1.06v6.82
			h-2.16v-6.48c0-0.96-0.12-1.7-0.35-2.22c-0.23-0.52-0.56-0.88-0.97-1.08c-0.42-0.2-0.9-0.3-1.44-0.3c-0.79,0-1.5,0.17-2.12,0.52
			c-0.62,0.35-1.04,0.9-1.26,1.66l0.26-1.18v9.07H327.31z"/>
		<path class="st2" d="M348.35,2.74v-2.4h2.16v2.4H348.35z M348.35,17.14V5.38h2.16v11.76H348.35z"/>
		<path class="st2" d="M352.51,17.14l7.27-10.94l0.26,1.08h-7.15v-1.9h9.79l-7.27,10.94l-0.26-1.08h7.42v1.9H352.51z"/>
		<path class="st2" d="M367.48,17.38c-0.73,0-1.36-0.15-1.91-0.44c-0.54-0.3-0.97-0.7-1.27-1.21c-0.3-0.51-0.45-1.1-0.45-1.75
			c0-0.66,0.15-1.23,0.44-1.71s0.68-0.87,1.18-1.19c0.49-0.32,1.04-0.57,1.65-0.76c0.61-0.19,1.24-0.32,1.89-0.41
			c0.65-0.08,1.28-0.13,1.88-0.14c0-1.12-0.22-1.85-0.66-2.2c-0.44-0.34-1.08-0.52-1.91-0.52c-0.44,0-0.91,0.07-1.41,0.2
			c-0.5,0.14-1.06,0.42-1.69,0.85l-0.31-1.75c0.47-0.36,1.06-0.65,1.76-0.88c0.7-0.23,1.44-0.34,2.22-0.34
			c0.99,0,1.79,0.17,2.4,0.52c0.61,0.35,1.05,0.93,1.33,1.76c0.28,0.82,0.42,1.94,0.42,3.36v2.4c0,0.56,0.03,1.02,0.08,1.39
			c0.05,0.36,0.17,0.64,0.36,0.82c0.19,0.18,0.49,0.27,0.91,0.27h0.22l-0.34,1.73h-0.17c-0.7,0-1.23-0.07-1.61-0.2
			c-0.38-0.14-0.67-0.33-0.87-0.59c-0.2-0.26-0.38-0.57-0.54-0.94c-0.44,0.51-0.96,0.93-1.56,1.25
			C368.92,17.22,368.24,17.38,367.48,17.38z M367.89,15.65c0.58,0,1.13-0.14,1.67-0.43c0.54-0.29,0.98-0.67,1.33-1.15v-2.81
			c-1.14,0.04-2.07,0.15-2.78,0.34c-0.71,0.18-1.23,0.46-1.55,0.83c-0.33,0.37-0.49,0.84-0.49,1.43c0,0.63,0.17,1.09,0.51,1.37
			C366.92,15.51,367.35,15.65,367.89,15.65z"/>
		<path class="st2" d="M380.08,17.38c-0.74,0-1.34-0.14-1.79-0.41c-0.45-0.27-0.77-0.62-0.98-1.05c-0.2-0.43-0.31-0.88-0.31-1.35
			V7.06h-2.02l0.19-1.68h1.82v-2.9l2.16-0.22v3.12h3.1v1.68h-3.1v6.19c0,0.75,0.04,1.3,0.13,1.63s0.31,0.55,0.65,0.64
			c0.35,0.09,0.91,0.13,1.69,0.13h0.55l-0.17,1.73H380.08z"/>
		<path class="st2" d="M384.11,2.74v-2.4h2.16v2.4H384.11z M384.11,17.14V5.38h2.16v11.76H384.11z"/>
		<path class="st2" d="M394.34,17.38c-1.23,0-2.28-0.27-3.15-0.82c-0.87-0.55-1.53-1.28-1.99-2.21s-0.69-1.95-0.69-3.09
			c0-1.14,0.23-2.17,0.69-3.09c0.46-0.92,1.12-1.66,1.99-2.21c0.87-0.55,1.92-0.82,3.15-0.82c1.22,0,2.27,0.27,3.14,0.82
			c0.87,0.55,1.54,1.28,2,2.21c0.46,0.92,0.69,1.95,0.69,3.09c0,1.14-0.23,2.17-0.69,3.09s-1.13,1.66-2,2.21
			C396.61,17.1,395.56,17.38,394.34,17.38z M394.34,15.46c1.17,0,2.06-0.37,2.69-1.11c0.62-0.74,0.94-1.77,0.94-3.09
			c0-1.32-0.31-2.35-0.94-3.09c-0.62-0.74-1.52-1.11-2.69-1.11c-1.16,0-2.05,0.37-2.68,1.11c-0.63,0.74-0.94,1.77-0.94,3.09
			c0,1.32,0.31,2.35,0.94,3.09C392.28,15.09,393.18,15.46,394.34,15.46z"/>
		<path class="st2" d="M402.4,17.14V5.38h1.68l0.43,2.26l-0.84-0.36c0.79-0.88,1.57-1.46,2.32-1.73c0.76-0.27,1.49-0.41,2.21-0.41
			c1.72,0,2.95,0.5,3.69,1.49c0.74,0.99,1.11,2.34,1.11,4.03v6.48h-2.16v-6.48c0-1.25-0.23-2.16-0.7-2.74
			c-0.46-0.58-1.26-0.86-2.38-0.86c-0.79,0-1.52,0.17-2.18,0.52c-0.66,0.35-1.09,0.9-1.3,1.66l0.26-1.32v9.22H402.4z"/>
	</g>
	<path class="st3" d="M455.78,207.58H168.85V325h141.4v44.96h2V325h143.53V207.58z M453.78,323H170.85V209.58h282.94V323z"/>
	<g>
		<path class="st3" d="M259.83,395.76v-16.8h2.28v6.94h8.54v-6.94h2.28v16.8h-2.28v-7.7h-8.54v7.7H259.83z"/>
		<path class="st3" d="M276.77,395.76v-16.8h5.54c1.13,0,2.12,0.18,2.98,0.54c0.86,0.36,1.52,0.94,2,1.74
			c0.48,0.8,0.71,1.86,0.71,3.17c0,1.29-0.24,2.33-0.71,3.14c-0.48,0.8-1.14,1.39-2,1.77c-0.86,0.38-1.85,0.56-2.98,0.56h-3.14v5.88
			H276.77z M279.17,387.84h2.81c1.22,0,2.14-0.28,2.75-0.83s0.92-1.41,0.92-2.57c0-1.17-0.29-2.03-0.87-2.59
			c-0.58-0.56-1.51-0.84-2.8-0.84h-2.81V387.84z"/>
		<path class="st3" d="M299.24,395.76v-14.74h-4.9v-2.06h12.07v2.06h-4.9v14.74H299.24z"/>
		<path class="st3" d="M306.12,395.76V384h1.78l0.26,1.94c0.6-0.74,1.17-1.29,1.72-1.65s1.13-0.53,1.76-0.53
			c0.2,0,0.38,0.02,0.55,0.07l-0.22,2.38c-0.1-0.02-0.21-0.04-0.33-0.05c-0.12-0.01-0.25-0.02-0.39-0.02c-0.62,0-1.2,0.14-1.72,0.41
			s-0.89,0.58-1.11,0.91v8.3H306.12z"/>
		<path class="st3" d="M316.28,396c-0.73,0-1.36-0.15-1.91-0.44s-0.97-0.7-1.27-1.21c-0.3-0.51-0.45-1.1-0.45-1.75
			c0-0.66,0.15-1.23,0.44-1.71c0.29-0.48,0.68-0.87,1.18-1.19c0.49-0.32,1.04-0.57,1.65-0.76c0.61-0.19,1.24-0.32,1.89-0.41
			c0.65-0.08,1.28-0.13,1.88-0.14c0-1.12-0.22-1.85-0.66-2.2c-0.44-0.34-1.08-0.52-1.91-0.52c-0.44,0-0.91,0.07-1.41,0.2
			c-0.5,0.14-1.06,0.42-1.69,0.85l-0.31-1.75c0.47-0.36,1.06-0.65,1.76-0.88c0.7-0.23,1.44-0.34,2.22-0.34
			c0.99,0,1.79,0.17,2.4,0.52c0.61,0.35,1.05,0.93,1.33,1.76c0.28,0.82,0.42,1.94,0.42,3.36v2.4c0,0.56,0.03,1.02,0.08,1.39
			c0.05,0.36,0.17,0.64,0.36,0.82c0.19,0.18,0.49,0.27,0.91,0.27h0.22l-0.34,1.73h-0.17c-0.7,0-1.23-0.07-1.61-0.2
			c-0.38-0.14-0.67-0.33-0.87-0.59c-0.2-0.26-0.38-0.57-0.54-0.94c-0.44,0.51-0.96,0.93-1.56,1.25
			C317.72,395.84,317.04,396,316.28,396z M316.68,394.27c0.58,0,1.13-0.14,1.67-0.43s0.98-0.67,1.33-1.15v-2.81
			c-1.14,0.04-2.07,0.15-2.78,0.34c-0.71,0.18-1.23,0.46-1.55,0.83c-0.33,0.37-0.49,0.84-0.49,1.43c0,0.63,0.17,1.09,0.51,1.37
			C315.71,394.13,316.15,394.27,316.68,394.27z"/>
		<path class="st3" d="M330.46,396c-1.33,0-2.44-0.27-3.34-0.81c-0.9-0.54-1.58-1.27-2.04-2.18c-0.46-0.92-0.69-1.93-0.69-3.05
			c0-1.17,0.22-2.22,0.67-3.16c0.44-0.94,1.13-1.68,2.05-2.22c0.92-0.54,2.1-0.82,3.53-0.82c0.62,0,1.2,0.06,1.75,0.19
			c0.55,0.12,1.04,0.29,1.47,0.51l-0.34,1.9c-0.44-0.21-0.91-0.37-1.4-0.49c-0.49-0.12-1-0.18-1.53-0.18c-1.3,0-2.28,0.37-2.96,1.1
			c-0.68,0.74-1.02,1.76-1.02,3.07c0,1.28,0.32,2.31,0.97,3.08c0.65,0.78,1.64,1.16,2.96,1.16c0.54,0,1.07-0.06,1.57-0.19
			c0.5-0.13,0.98-0.3,1.43-0.53l0.29,1.73c-0.32,0.22-0.79,0.43-1.4,0.61C331.8,395.91,331.15,396,330.46,396z"/>
		<path class="st3" d="M335.93,395.76v-18h2.16v11.54l4.32-5.3h2.64l-4.68,5.47l4.8,6.29h-2.64l-4.44-5.98v5.98H335.93z"/>
		<path class="st3" d="M351.82,396c-1.38,0-2.55-0.28-3.49-0.85c-0.94-0.57-1.66-1.32-2.14-2.26c-0.48-0.94-0.73-1.97-0.73-3.1
			c0-1.1,0.23-2.1,0.68-3.01c0.45-0.91,1.11-1.64,1.97-2.19c0.86-0.55,1.9-0.82,3.11-0.82c0.98,0,1.85,0.19,2.61,0.58
			c0.76,0.39,1.36,0.95,1.8,1.69c0.44,0.74,0.65,1.64,0.65,2.69c0,0.17-0.01,0.35-0.02,0.55c-0.01,0.2-0.04,0.4-0.08,0.61h-8.52
			c0.1,1.09,0.36,1.94,0.78,2.54c0.42,0.61,0.94,1.04,1.57,1.28s1.32,0.37,2.06,0.37c0.54,0,1.11-0.06,1.7-0.17
			c0.59-0.11,1.15-0.29,1.68-0.53l0.29,1.7c-0.46,0.2-1.01,0.4-1.67,0.61C353.43,395.9,352.68,396,351.82,396z M347.86,388.39h6.19
			c0-0.55-0.1-1.03-0.31-1.44c-0.21-0.41-0.52-0.72-0.95-0.94c-0.42-0.22-0.96-0.33-1.62-0.33c-0.96,0-1.7,0.24-2.21,0.71
			C348.44,386.87,348.08,387.53,347.86,388.39z"/>
		<path class="st3" d="M358.47,395.76V384h1.78l0.26,1.94c0.6-0.74,1.17-1.29,1.72-1.65s1.13-0.53,1.76-0.53
			c0.2,0,0.38,0.02,0.55,0.07l-0.22,2.38c-0.1-0.02-0.21-0.04-0.33-0.05c-0.12-0.01-0.25-0.02-0.39-0.02c-0.62,0-1.2,0.14-1.72,0.41
			s-0.89,0.58-1.11,0.91v8.3H358.47z"/>
	</g>
	<path class="st4" d="M152.31,278.04c0-20.83-16.94-37.77-37.77-37.77s-37.77,16.94-37.77,37.77c0,20.49,16.4,37.21,36.77,37.74
		v49.09H84.28v2h31.26v-51.09C135.9,315.25,152.31,298.53,152.31,278.04z M114.54,313.81c-19.72,0-35.77-16.05-35.77-35.77
		c0-19.72,16.04-35.77,35.77-35.77s35.77,16.05,35.77,35.77C150.31,297.77,134.26,313.81,114.54,313.81z"/>
	<path class="st5" d="M555.11,276.68c0-26.36-21.45-47.81-47.81-47.81c-26.36,0-47.81,21.45-47.81,47.81
		c0,26.01,20.88,47.22,46.75,47.79v42.41h31.26v-2h-29.26v-40.41C534.17,323.96,555.11,302.72,555.11,276.68z M461.49,276.68
		c0-25.26,20.55-45.81,45.81-45.81c25.26,0,45.81,20.55,45.81,45.81s-20.55,45.81-45.81,45.81
		C482.04,322.49,461.49,301.94,461.49,276.68z"/>
	<g>
		<path class="st5" d="M545.69,369.96v-12.6h7.69v1.55h-5.98v3.69h4.75v1.55h-4.75v4.27h6.14v1.55H545.69z"/>
		<path class="st5" d="M555.16,369.96v-8.82h1.26l0.32,1.69l-0.63-0.27c0.59-0.66,1.17-1.09,1.74-1.3c0.57-0.2,1.12-0.31,1.66-0.31
			c1.29,0,2.21,0.37,2.77,1.12c0.55,0.74,0.83,1.75,0.83,3.02v4.86h-1.62v-4.86c0-0.94-0.17-1.62-0.52-2.05
			c-0.35-0.43-0.94-0.65-1.78-0.65c-0.59,0-1.14,0.13-1.63,0.39c-0.49,0.26-0.82,0.68-0.98,1.25l0.2-0.99v6.91H555.16z"/>
		<path class="st5" d="M568.71,370.14c-0.75,0-1.43-0.2-2.03-0.61c-0.61-0.41-1.09-0.96-1.44-1.65c-0.36-0.69-0.54-1.46-0.54-2.31
			c0-0.81,0.16-1.57,0.49-2.27c0.33-0.7,0.79-1.27,1.39-1.7s1.31-0.64,2.13-0.64c0.59,0,1.16,0.13,1.71,0.38
			c0.55,0.26,0.99,0.68,1.34,1.27l-0.34,0.23v-6.39h1.62v13.5h-1.44l-0.31-1.87l0.41,0.29c-0.26,0.58-0.66,1.02-1.21,1.32
			C569.93,369.99,569.34,370.14,568.71,370.14z M569,368.7c0.41,0,0.81-0.1,1.21-0.32c0.4-0.21,0.73-0.54,0.99-1
			c0.26-0.46,0.39-1.06,0.39-1.81c0-0.7-0.13-1.28-0.39-1.75c-0.26-0.47-0.59-0.82-0.99-1.06c-0.4-0.24-0.8-0.36-1.21-0.36
			c-0.55,0-1.03,0.14-1.42,0.41c-0.4,0.28-0.7,0.65-0.91,1.13c-0.21,0.48-0.31,1.02-0.31,1.62c0,0.57,0.1,1.09,0.31,1.57
			c0.21,0.47,0.51,0.85,0.91,1.14C567.97,368.56,568.45,368.7,569,368.7z"/>
		<path class="st5" d="M582.1,369.96v-11.05h-3.67v-1.55h9.05v1.55h-3.67v11.05H582.1z"/>
		<path class="st5" d="M590.46,370.14c-0.69,0-1.28-0.14-1.76-0.42c-0.49-0.28-0.86-0.7-1.11-1.27c-0.25-0.57-0.38-1.3-0.38-2.18
			v-5.13h1.62v4.68c0,0.94,0.16,1.65,0.48,2.14c0.32,0.49,0.84,0.74,1.57,0.74c0.5,0,0.96-0.12,1.39-0.36
			c0.43-0.24,0.72-0.62,0.88-1.15l-0.23,0.88v-6.93h1.62v8.82h-1.44l-0.32-1.73l0.43,0.29c-0.29,0.55-0.65,0.95-1.08,1.22
			C591.69,370.01,591.14,370.14,590.46,370.14z"/>
		<path class="st5" d="M596.72,369.96v-8.82h1.33l0.2,1.46c0.45-0.56,0.88-0.97,1.29-1.24c0.41-0.27,0.85-0.4,1.32-0.4
			c0.15,0,0.29,0.02,0.41,0.05l-0.16,1.78c-0.08-0.02-0.16-0.03-0.25-0.04c-0.09-0.01-0.18-0.01-0.29-0.01
			c-0.47,0-0.9,0.1-1.29,0.31c-0.39,0.21-0.67,0.43-0.83,0.68v6.23H596.72z"/>
		<path class="st5" d="M602.41,369.96v-8.82h1.26l0.32,1.69l-0.63-0.27c0.59-0.66,1.17-1.09,1.74-1.3c0.57-0.2,1.12-0.31,1.66-0.31
			c1.29,0,2.21,0.37,2.77,1.12c0.55,0.74,0.83,1.75,0.83,3.02v4.86h-1.62v-4.86c0-0.94-0.17-1.62-0.52-2.05
			c-0.35-0.43-0.94-0.65-1.78-0.65c-0.59,0-1.14,0.13-1.63,0.39c-0.49,0.26-0.82,0.68-0.98,1.25l0.2-0.99v6.91H602.41z"/>
		<path class="st1" d="M559.55,391.74c-0.62,0-1.22-0.15-1.79-0.45c-0.58-0.3-0.98-0.74-1.21-1.32l0.4-0.29l-0.31,1.87h-1.44v-13.5
			h1.62v6.41l-0.34-0.25c0.3-0.49,0.73-0.88,1.29-1.19c0.56-0.31,1.16-0.46,1.79-0.46c0.82,0,1.53,0.21,2.12,0.64
			c0.59,0.43,1.05,0.99,1.37,1.69c0.32,0.7,0.48,1.45,0.48,2.25c0,0.86-0.18,1.63-0.53,2.33c-0.35,0.69-0.83,1.24-1.43,1.65
			C560.96,391.54,560.29,391.74,559.55,391.74z M559.35,390.3c0.52,0,0.96-0.14,1.34-0.43c0.38-0.28,0.67-0.67,0.87-1.14
			c0.2-0.48,0.31-1,0.31-1.58c0-0.6-0.1-1.14-0.31-1.61s-0.5-0.85-0.87-1.13s-0.83-0.41-1.34-0.41c-0.46,0-0.89,0.12-1.29,0.35
			c-0.4,0.23-0.72,0.58-0.97,1.04c-0.25,0.46-0.37,1.05-0.37,1.76c0,0.74,0.12,1.34,0.37,1.8s0.57,0.8,0.97,1.02
			C558.46,390.19,558.89,390.3,559.35,390.3z"/>
		<path class="st1" d="M568.37,391.74c-0.69,0-1.28-0.14-1.76-0.42c-0.49-0.28-0.86-0.7-1.11-1.27c-0.25-0.57-0.38-1.3-0.38-2.18
			v-5.13h1.62v4.68c0,0.94,0.16,1.65,0.48,2.14c0.32,0.49,0.84,0.74,1.57,0.74c0.5,0,0.96-0.12,1.39-0.36
			c0.43-0.24,0.72-0.62,0.88-1.15l-0.23,0.88v-6.93h1.62v8.82H571l-0.32-1.73l0.43,0.29c-0.29,0.55-0.65,0.95-1.08,1.22
			C569.61,391.61,569.05,391.74,568.37,391.74z"/>
		<path class="st1" d="M577.67,391.74c-0.56,0-1-0.1-1.34-0.31c-0.34-0.2-0.58-0.47-0.73-0.79c-0.15-0.32-0.23-0.66-0.23-1.01V384
			h-1.51l0.14-1.26h1.37v-2.18l1.62-0.16v2.34h2.32V384h-2.32v4.64c0,0.56,0.03,0.97,0.1,1.22c0.07,0.25,0.23,0.41,0.49,0.48
			c0.26,0.07,0.68,0.1,1.26,0.1h0.41l-0.13,1.3H577.67z"/>
		<path class="st1" d="M583.74,391.74c-0.56,0-1-0.1-1.34-0.31c-0.34-0.2-0.58-0.47-0.73-0.79c-0.15-0.32-0.23-0.66-0.23-1.01V384
			h-1.51l0.14-1.26h1.37v-2.18l1.62-0.16v2.34h2.32V384h-2.32v4.64c0,0.56,0.03,0.97,0.1,1.22c0.07,0.25,0.23,0.41,0.49,0.48
			c0.26,0.07,0.68,0.1,1.26,0.1h0.41l-0.13,1.3H583.74z"/>
		<path class="st1" d="M590.54,391.74c-0.92,0-1.71-0.21-2.36-0.62c-0.65-0.41-1.15-0.96-1.49-1.66c-0.35-0.69-0.52-1.47-0.52-2.32
			c0-0.85,0.17-1.62,0.52-2.32c0.34-0.69,0.84-1.25,1.49-1.66c0.65-0.41,1.44-0.62,2.36-0.62c0.92,0,1.7,0.21,2.36,0.62
			c0.65,0.41,1.15,0.96,1.5,1.66c0.34,0.69,0.52,1.47,0.52,2.32c0,0.85-0.17,1.62-0.52,2.32c-0.35,0.69-0.84,1.25-1.5,1.66
			C592.25,391.54,591.46,391.74,590.54,391.74z M590.54,390.3c0.88,0,1.55-0.28,2.02-0.83c0.47-0.56,0.7-1.33,0.7-2.32
			c0-0.99-0.23-1.76-0.7-2.32c-0.47-0.55-1.14-0.83-2.02-0.83c-0.87,0-1.54,0.28-2.01,0.83c-0.47,0.56-0.71,1.33-0.71,2.32
			c0,0.99,0.24,1.76,0.71,2.32C589,390.02,589.67,390.3,590.54,390.3z"/>
		<path class="st1" d="M596.59,391.56v-8.82h1.26l0.32,1.69l-0.63-0.27c0.59-0.66,1.17-1.09,1.74-1.3c0.57-0.2,1.12-0.31,1.66-0.31
			c1.29,0,2.21,0.37,2.77,1.12c0.55,0.74,0.83,1.75,0.83,3.02v4.86h-1.62v-4.86c0-0.94-0.17-1.62-0.52-2.05
			c-0.35-0.43-0.94-0.65-1.78-0.65c-0.59,0-1.14,0.13-1.63,0.39c-0.49,0.26-0.82,0.68-0.98,1.25l0.2-0.99v6.91H596.59z"/>
	</g>
	<g>
		<path class="st4" d="M0,370.14v-12.6h4.66c1.22,0,2.3,0.25,3.24,0.75c0.94,0.5,1.68,1.22,2.22,2.16c0.54,0.94,0.81,2.07,0.81,3.4
			c0,1.33-0.27,2.46-0.81,3.4c-0.54,0.94-1.28,1.66-2.22,2.16c-0.94,0.5-2.02,0.75-3.24,0.75H0z M1.71,368.59h2.95
			c0.96,0,1.77-0.2,2.42-0.6s1.14-0.96,1.48-1.67c0.33-0.71,0.5-1.54,0.5-2.48c0-0.94-0.17-1.77-0.5-2.48
			c-0.33-0.71-0.82-1.27-1.48-1.67c-0.65-0.4-1.46-0.6-2.42-0.6H1.71V368.59z"/>
		<path class="st4" d="M12.62,359.34v-1.8h1.62v1.8H12.62z M12.62,370.14v-8.82h1.62v8.82H12.62z"/>
		<path class="st4" d="M20.48,370.32c-1,0-1.83-0.2-2.51-0.61c-0.67-0.4-1.19-0.95-1.53-1.64c-0.34-0.69-0.52-1.45-0.52-2.29
			c0-0.88,0.17-1.67,0.5-2.37c0.33-0.7,0.84-1.26,1.53-1.67c0.69-0.41,1.57-0.61,2.65-0.61c0.46,0,0.9,0.05,1.31,0.14
			c0.41,0.09,0.78,0.22,1.1,0.38l-0.25,1.42c-0.33-0.16-0.68-0.28-1.05-0.37c-0.37-0.09-0.75-0.14-1.15-0.14
			c-0.97,0-1.71,0.28-2.22,0.83c-0.51,0.55-0.76,1.32-0.76,2.3c0,0.96,0.24,1.73,0.73,2.31c0.49,0.58,1.23,0.87,2.22,0.87
			c0.41,0,0.8-0.05,1.17-0.14c0.37-0.1,0.73-0.23,1.08-0.4l0.22,1.3c-0.24,0.17-0.59,0.32-1.05,0.46
			C21.49,370.25,21,370.32,20.48,370.32z"/>
		<path class="st4" d="M28.71,370.32c-1.04,0-1.91-0.21-2.62-0.64c-0.71-0.43-1.24-0.99-1.61-1.7c-0.36-0.71-0.54-1.48-0.54-2.33
			c0-0.82,0.17-1.58,0.51-2.26c0.34-0.68,0.83-1.23,1.48-1.64c0.64-0.41,1.42-0.62,2.33-0.62c0.73,0,1.38,0.15,1.96,0.44
			c0.57,0.29,1.02,0.71,1.35,1.27c0.33,0.56,0.49,1.23,0.49,2.02c0,0.13,0,0.26-0.01,0.41c-0.01,0.15-0.03,0.3-0.06,0.45H25.6
			c0.08,0.82,0.27,1.45,0.58,1.91c0.31,0.46,0.71,0.78,1.18,0.96c0.47,0.19,0.99,0.28,1.55,0.28c0.41,0,0.83-0.04,1.28-0.13
			c0.44-0.08,0.86-0.22,1.26-0.4l0.22,1.28c-0.34,0.15-0.76,0.3-1.25,0.45C29.92,370.24,29.35,370.32,28.71,370.32z M25.74,364.61
			h4.64c0-0.41-0.08-0.77-0.23-1.08c-0.16-0.31-0.39-0.54-0.71-0.71c-0.32-0.17-0.72-0.25-1.21-0.25c-0.72,0-1.27,0.18-1.66,0.54
			C26.18,363.47,25.9,363.97,25.74,364.61z"/>
		<path class="st4" d="M38.09,370.14v-12.6h4.09c0.88,0,1.64,0.14,2.29,0.41c0.65,0.27,1.16,0.69,1.52,1.25
			c0.36,0.56,0.54,1.29,0.54,2.18c0,0.86-0.19,1.59-0.56,2.17c-0.38,0.58-0.92,1.04-1.63,1.38l2.83,5.22h-2.09l-2.56-4.91
			c-0.02,0-0.03,0-0.04,0c-0.01,0-0.03,0-0.04,0h-2.54v4.91H38.09z M39.89,363.69h2.27c0.86,0,1.5-0.21,1.94-0.62
			c0.44-0.41,0.65-0.98,0.65-1.7c0-0.73-0.22-1.3-0.65-1.7c-0.43-0.4-1.08-0.6-1.94-0.6h-2.27V363.69z"/>
		<path class="st4" d="M52.11,370.32c-0.92,0-1.71-0.21-2.36-0.62c-0.65-0.41-1.15-0.96-1.49-1.66c-0.35-0.69-0.52-1.47-0.52-2.32
			c0-0.85,0.17-1.62,0.52-2.32c0.34-0.69,0.84-1.25,1.49-1.66c0.65-0.41,1.44-0.62,2.36-0.62c0.92,0,1.7,0.21,2.36,0.62
			c0.65,0.41,1.15,0.96,1.5,1.66c0.34,0.69,0.52,1.47,0.52,2.32c0,0.85-0.17,1.62-0.52,2.32c-0.35,0.69-0.84,1.25-1.5,1.66
			C53.81,370.11,53.03,370.32,52.11,370.32z M52.11,368.88c0.88,0,1.55-0.28,2.02-0.83c0.47-0.56,0.7-1.33,0.7-2.32
			c0-0.99-0.23-1.76-0.7-2.32c-0.47-0.55-1.14-0.83-2.02-0.83c-0.87,0-1.54,0.28-2.01,0.83c-0.47,0.56-0.71,1.33-0.71,2.32
			c0,0.99,0.24,1.76,0.71,2.32C50.57,368.6,51.24,368.88,52.11,368.88z"/>
		<path class="st4" d="M60.42,370.32c-0.57,0-1.02-0.1-1.35-0.31c-0.33-0.21-0.57-0.47-0.72-0.8c-0.14-0.32-0.22-0.66-0.22-1.02
			v-11.56h1.62v10.62c0,0.5,0.03,0.88,0.1,1.13c0.07,0.25,0.2,0.42,0.4,0.5c0.2,0.08,0.51,0.13,0.92,0.13l-0.23,1.3H60.42z"/>
		<path class="st4" d="M64.67,370.32c-0.57,0-1.02-0.1-1.35-0.31c-0.33-0.21-0.57-0.47-0.72-0.8c-0.14-0.32-0.22-0.66-0.22-1.02
			v-11.56h1.62v10.62c0,0.5,0.03,0.88,0.1,1.13c0.07,0.25,0.2,0.42,0.4,0.5c0.2,0.08,0.51,0.13,0.92,0.13l-0.23,1.3H64.67z"/>
		<path class="st4" d="M70.79,370.32c-1.04,0-1.91-0.21-2.62-0.64c-0.71-0.43-1.24-0.99-1.61-1.7s-0.54-1.48-0.54-2.33
			c0-0.82,0.17-1.58,0.51-2.26c0.34-0.68,0.83-1.23,1.48-1.64c0.64-0.41,1.42-0.62,2.33-0.62c0.73,0,1.38,0.15,1.96,0.44
			c0.57,0.29,1.02,0.71,1.35,1.27c0.33,0.56,0.49,1.23,0.49,2.02c0,0.13,0,0.26-0.01,0.41c-0.01,0.15-0.03,0.3-0.06,0.45h-6.39
			c0.08,0.82,0.27,1.45,0.58,1.91c0.31,0.46,0.71,0.78,1.18,0.96c0.47,0.19,0.99,0.28,1.55,0.28c0.41,0,0.83-0.04,1.28-0.13
			c0.44-0.08,0.86-0.22,1.26-0.4l0.22,1.28c-0.34,0.15-0.76,0.3-1.25,0.45C72,370.24,71.43,370.32,70.79,370.32z M67.82,364.61h4.64
			c0-0.41-0.08-0.77-0.23-1.08c-0.16-0.31-0.39-0.54-0.71-0.71c-0.32-0.17-0.72-0.25-1.21-0.25c-0.72,0-1.27,0.18-1.66,0.54
			S67.98,363.97,67.82,364.61z"/>
		<path class="st4" d="M75.78,370.14v-8.82h1.33l0.2,1.46c0.45-0.56,0.88-0.97,1.29-1.24c0.41-0.27,0.85-0.4,1.32-0.4
			c0.15,0,0.29,0.02,0.41,0.05l-0.16,1.78c-0.08-0.02-0.16-0.03-0.25-0.04c-0.09-0.01-0.18-0.01-0.29-0.01
			c-0.47,0-0.9,0.1-1.29,0.31c-0.39,0.21-0.67,0.43-0.83,0.68v6.23H75.78z"/>
	</g>
</g>
</svg>
