<?xml version="1.0" encoding="utf-8"?>
<!-- Generator: Adobe Illustrator 25.2.0, SVG Export Plug-In . SVG Version: 6.00 Build 0)  -->
<svg version="1.1" id="Layer_1" xmlns="http://www.w3.org/2000/svg" xmlns:xlink="http://www.w3.org/1999/xlink" x="0px" y="0px"
	 viewBox="0 0 606 448" style="enable-background:new 0 0 606 448;" xml:space="preserve">
<style type="text/css">
	.st0{fill:#5DA1D7;}
	.st1{fill:#FFFFFF;}
</style>
<g>
	<polygon class="st0" points="240.43,386.74 238.88,381.73 244.44,365 259,331.31 262.78,329.4 380.23,330.29 382.34,331.35 
		387.12,383.6 384.53,386.74 374.87,387.55 324.11,388.32 	"/>
	<g>
		<path class="st1" d="M202.38,334.22c-0.17,0.32-0.34,0.63-0.5,0.95c-0.24-1.15-1.2-2.05-2.44-2.05c-5.36,0-10.73,0-16.09,0
			c-0.57,0-1.11,0.22-1.56,0.58c-0.75-0.09-1.53,0.1-2.02,0.69c-11.95,14.46-23.4,29.34-34.31,44.6c-0.35,0.49-0.42,1.1-0.29,1.68
			c-0.13,0.2-0.25,0.43-0.32,0.68c-0.34,1.22,0.41,2.82,1.75,3.08c9.83,1.89,19.84,2.64,29.83,2.17c1.27-0.06,2.03-0.88,2.3-1.84
			c0.38-0.19,0.73-0.48,1.01-0.92c9.59-15.34,18.59-31.05,26.97-47.08C208.18,333.9,203.87,331.37,202.38,334.22z M200.44,337.89
			c-1.08,2.04-2.17,4.07-3.27,6.1c-0.05-0.23-0.13-0.46-0.25-0.65c-0.81-1.26-2.13-1.45-3.42-0.9c0.15-0.06,0.41-0.14,0.11-0.07
			c-0.11,0.03-0.22,0.06-0.33,0.09c0,0,0,0-0.01,0c-0.06,0.01-0.13,0.02-0.19,0.02c-0.17,0.01-0.45-0.06-0.63-0.03
			c-0.11-0.03-0.23-0.05-0.34-0.08c-0.08-0.02-0.17-0.06-0.25-0.08c-0.18-0.11-0.37-0.22-0.55-0.32c-0.06-0.05-0.12-0.1-0.17-0.16
			c-0.07-0.07-0.14-0.15-0.22-0.23c-0.71-1.04-2.26-1.73-3.42-0.9c-0.21,0.15-0.42,0.29-0.64,0.41c-0.03,0.01-0.12,0.06-0.21,0.11
			c-0.06,0.02-0.13,0.05-0.15,0.06c-0.24,0.08-0.49,0.15-0.74,0.2c-0.03,0.01-0.1,0.02-0.16,0.02c-0.1,0.01-0.21,0.01-0.21,0.01
			c-0.25,0.01-0.5,0-0.75-0.01c-0.1-0.02-0.27-0.05-0.29-0.06c-0.12-0.03-0.25-0.06-0.37-0.1c0,0-0.09-0.03-0.18-0.06
			c-0.07-0.03-0.16-0.07-0.19-0.08c-0.14-0.07-0.28-0.15-0.42-0.23c-0.66-0.4-1.51-0.42-2.23-0.13c0.74-0.91,1.47-1.83,2.22-2.74
			c0.06,0,0.12,0.02,0.18,0.02c5.36,0,10.72,0,16.09,0C199.78,338.12,200.12,338.04,200.44,337.89z M193.41,342.47
			c-0.04-0.01-0.08,0-0.13,0C193.33,342.47,193.38,342.47,193.41,342.47z M193.22,342.49C193.07,342.53,193.12,342.51,193.22,342.49
			L193.22,342.49z M192.52,342.49c-0.02-0.01-0.05-0.01-0.07-0.02C192.6,342.48,192.81,342.56,192.52,342.49z M192.43,342.47
			c-0.02,0-0.04,0-0.06,0.01C192.39,342.47,192.41,342.47,192.43,342.47z M184.7,341.52c0,0-0.04-0.01-0.09-0.02
			C184.66,341.5,184.7,341.51,184.7,341.52z M184.61,341.5C184.61,341.5,184.61,341.5,184.61,341.5
			C184.29,341.48,184.48,341.48,184.61,341.5z M175.41,381.31c-0.07,0.11-0.11,0.22-0.16,0.33c-8.18,0.31-16.37-0.18-24.45-1.52
			c9.19-12.78,18.76-25.28,28.69-37.49c-0.2,1.02,0.2,2.09,1.16,2.66c2.26,1.35,5.17,1.58,7.63,0.63c0.73,0.57,1.56,1.02,2.49,1.29
			c1.63,0.48,3.23,0.32,4.78-0.26C189.17,358.59,182.45,370.05,175.41,381.31z"/>
		<path class="st1" d="M206.94,346.07c0.1,0.35,0.36,0.72,0.69,0.9c0.54,0.29,1.23,0.24,1.7-0.14c0.06,0.01,0.12,0.02,0.19,0.02
			c1.68,0,3.36,0,5.04,0c0.32,0,0.63-0.12,0.89-0.31c0.26,0,0.52-0.05,0.74-0.19c0.34-0.22,0.55-0.51,0.69-0.9
			c0.05-0.14,0.11-0.28,0.16-0.41c0.47-1.08,1.07-2.1,1.78-3.04c0.01-0.01,0.02-0.03,0.03-0.04c0.26-0.32,0.44-0.64,0.44-1.06
			c0-0.37-0.16-0.81-0.44-1.06c-0.29-0.26-0.66-0.46-1.06-0.44c-0.23,0.01-0.48,0.07-0.7,0.17c-0.27-0.28-0.64-0.46-1.06-0.46
			c-1.88,0-3.75,0-5.63,0c-0.78,0-1.54,0.69-1.5,1.5c0.01,0.22,0.07,0.44,0.16,0.63c-0.66,1.23-1.32,2.45-1.98,3.68
			C206.9,345.26,206.83,345.68,206.94,346.07z M214.32,343.84c-1.08,0-2.17,0-3.25,0c0.23-0.42,0.46-0.85,0.68-1.27
			c0.08-0.15,0.13-0.31,0.16-0.47c1.08,0,2.17,0,3.25,0C214.85,342.66,214.57,343.24,214.32,343.84z"/>
		<path class="st1" d="M214.13,349.08c-0.43-0.23-0.9-0.23-1.31-0.06c-0.19-0.09-0.4-0.15-0.63-0.15c-1.88,0-3.75,0-5.63,0
			c-0.41,0-0.82,0.2-1.1,0.5c-0.21,0.12-0.41,0.28-0.55,0.51c-0.67,1.1-1.35,2.2-2.02,3.29c-0.06,0.09-0.1,0.2-0.13,0.31
			c-0.14,0.16-0.25,0.35-0.3,0.57c-0.17,0.75,0.23,1.67,1.05,1.85c2.16,0.45,4.38,0.45,6.53-0.03c0.73,0.38,1.61,0.17,2.05-0.54
			c0.86-1.4,1.73-2.8,2.59-4.2C215.08,350.47,214.84,349.46,214.13,349.08z M208.32,353.16c-0.12,0.02-0.24,0.03-0.36,0.04
			c-0.26,0.02-0.53,0.04-0.79,0.05c-0.26,0.01-0.53-0.01-0.79-0.02c0.27-0.45,0.55-0.9,0.83-1.35c1.16,0,2.32,0,3.48,0
			c-0.18,0.3-0.37,0.59-0.55,0.89c-0.04,0.01-0.08,0.01-0.13,0.02c-0.51,0.14-1.02,0.26-1.54,0.35
			C208.42,353.14,208.37,353.15,208.32,353.16z"/>
		<path class="st1" d="M208.73,358.88c-0.06-0.03-0.12-0.05-0.18-0.07c-0.24-0.18-0.53-0.31-0.88-0.33
			c-2.07-0.12-4.15-0.24-6.22-0.36c-0.48-0.03-0.95,0.25-1.23,0.65c-0.12,0.1-0.24,0.22-0.33,0.37c-0.82,1.27-1.63,2.53-2.45,3.8
			c-0.33,0.52-0.24,1.25,0.15,1.72c0.06,0.77,0.67,1.49,1.49,1.45c1.12-0.05,2.24-0.02,3.36,0.08c0.28,0.03,0.57,0.05,0.85,0.09
			c0.04,0.01,0.09,0.01,0.13,0.02c0.13,0.02,0.26,0.04,0.39,0.06c0.56,0.09,1.12,0.21,1.68,0.34c0.76,0.18,1.66-0.24,1.85-1.05
			c0.09-0.41,0.02-0.84-0.19-1.2c0.64-1.22,1.34-2.41,2.12-3.55c0.21-0.31,0.25-0.81,0.15-1.16
			C209.32,359.43,209.05,359.05,208.73,358.88z M200.9,363.11c0.42-0.65,0.84-1.3,1.26-1.95c1.1,0.06,2.2,0.13,3.29,0.19
			c-0.41,0.68-0.79,1.38-1.15,2.09C203.18,363.26,202.04,363.14,200.9,363.11z"/>
		<path class="st1" d="M204.06,369.35c-0.18-0.27-0.44-0.47-0.78-0.52c-2.39-0.37-4.79-0.51-7.21-0.34c-0.78,0.05-1.54,0.65-1.5,1.5
			c0,0.06,0.01,0.11,0.02,0.17c-0.5,0.88-1.01,1.77-1.51,2.65c-0.19,0.34-0.26,0.78-0.15,1.16c0.05,0.17,0.14,0.35,0.25,0.5
			c-0.01,0.04-0.03,0.07-0.04,0.1c-0.17,0.75,0.23,1.67,1.05,1.85c1.78,0.38,3.61,0.52,5.43,0.36c0.1-0.01,0.19-0.02,0.28-0.04
			c0.63,0.14,1.32-0.06,1.64-0.67c0.89-1.64,1.86-3.23,2.91-4.77C204.87,370.7,204.64,369.77,204.06,369.35z M196.03,373.71
			c0.43-0.76,0.86-1.52,1.3-2.27c0.7-0.02,1.4-0.03,2.1,0c0.44,0.02,0.89,0.05,1.33,0.09c-0.47,0.74-0.92,1.5-1.35,2.26
			C198.28,373.87,197.15,373.84,196.03,373.71z"/>
		<path class="st1" d="M198.91,379.44c-0.18-0.08-0.38-0.13-0.59-0.15c-1.98-0.17-3.96-0.34-5.94-0.52
			c-0.11-0.14-0.25-0.26-0.41-0.35c-0.72-0.38-1.63-0.18-2.05,0.54c-1.01,1.71-1.86,3.51-2.57,5.37c-0.13,0.34-0.03,0.85,0.15,1.16
			c0.18,0.31,0.54,0.61,0.9,0.69c0.13,0.03,0.26,0.04,0.39,0.04c0.19,0.08,0.39,0.13,0.62,0.15c1.97,0.23,3.96,0.28,5.94,0.14
			c0.06,0,0.12-0.02,0.19-0.03c0.02,0,0.03,0.01,0.05,0.02c0.38,0.09,0.82,0.07,1.16-0.15c0.33-0.21,0.51-0.48,0.66-0.83
			c0.44-1.03,1-1.99,1.67-2.88c0.19-0.24,0.38-0.47,0.59-0.7c0.53-0.58,0.62-1.56,0-2.12C199.44,379.64,199.18,379.51,198.91,379.44
			z M190.94,383.52c0.28-0.61,0.57-1.2,0.89-1.79c1.33,0.12,2.67,0.23,4,0.35c-0.29,0.47-0.55,0.96-0.79,1.46
			C193.67,383.62,192.3,383.62,190.94,383.52z"/>
		<path class="st1" d="M263.79,331.34c-0.05-0.01-0.1-0.01-0.13-0.01c0,0,0,0,0,0C263.64,331.33,263.67,331.33,263.79,331.34z"/>
		<path class="st1" d="M377.73,379.26c-16.76,0.34-33.53,0.53-50.29,0.54c-16.77,0.01-33.53-0.14-50.3-0.46
			c-9.46-0.18-18.92-0.41-28.38-0.7c-1.93-0.06-1.93,2.94,0,3c16.76,0.51,33.52,0.85,50.29,1.02c16.77,0.17,33.53,0.18,50.3,0.02
			c9.46-0.09,18.92-0.23,28.38-0.43C379.66,382.22,379.67,379.22,377.73,379.26z"/>
		<path class="st1" d="M241.4,384.91c0.02,0.03,0.04,0.06,0.06,0.09c0.01,0.01,0.01,0.01,0.02,0.02
			C241.48,384.98,241.43,384.92,241.4,384.91z"/>
		<path class="st1" d="M251.5,224.41c-0.35-0.08-0.75-0.07-1.14,0.01c-0.08-1.18-0.88-2.32-2.4-2.37
			c-11.4-0.36-22.82-0.43-34.23-0.21c-0.84,0.02-1.46,0.38-1.86,0.89c-0.85-0.48-1.92-0.48-2.77,0.49
			c-9.46,10.69-18.67,21.61-27.61,32.74c-0.09,0.11-0.17,0.24-0.25,0.36c-0.77,0.42-1.26,1.21-1.34,2.18
			c-0.42,5.19,0.03,10.44,1.26,15.49c0.08,0.33,0.25,0.64,0.47,0.9c-0.16,1.11,0.33,2.27,1.76,2.59c7.7,1.72,15.64,2.36,23.51,2.52
			c7.83,0.16,15.68-0.17,23.48-0.95c0.01,0,0.02,0,0.03,0c0.81,0.06,1.63-0.28,2.13-1.23c6.08-11.52,12.16-23.04,18.25-34.56
			c0.23-0.43,0.31-0.84,0.3-1.24c0.14-0.21,0.24-0.44,0.28-0.71c0.62-4.6,1.25-9.21,1.87-13.81
			C253.42,226.2,252.93,224.74,251.5,224.41z M207.34,275.01c-7.13-0.13-14.3-0.64-21.3-2.08c-0.01-0.09-0.02-0.18-0.04-0.27
			c-0.29-1.19-0.54-2.38-0.73-3.59c-0.05-0.28-0.09-0.56-0.13-0.84c-0.04-0.31-0.05-0.37-0.02-0.17c-0.02-0.14-0.03-0.28-0.05-0.42
			c-0.07-0.61-0.13-1.21-0.18-1.82c-0.01-0.08-0.01-0.16-0.01-0.24c11.8,1.15,23.65,1.6,35.5,1.33c2.41-0.06,2.42-3.81,0-3.75
			c-11.89,0.28-23.78-0.18-35.61-1.34c0.01-0.72,0.04-1.43,0.08-2.15c0.06-0.06,0.14-0.11,0.19-0.18
			c8.94-11.13,18.15-22.05,27.61-32.74c0.03-0.03,0.04-0.06,0.07-0.1c0.29,0.12,0.63,0.19,1.02,0.18
			c11.28-0.22,22.57-0.16,33.85,0.2c-6.73,12.04-13.62,23.99-20.68,35.84c-0.14,0.24-0.23,0.47-0.28,0.71
			c-0.36,0.42-0.58,0.96-0.58,1.57c0,2.21,0,4.43,0,6.64c0,1.14,0.88,2.24,2,2.46C221.16,274.86,214.24,275.13,207.34,275.01z
			 M231.05,269.95c0-1.43,0-2.87,0-4.3c0.06-0.08,0.13-0.16,0.19-0.25c5.25-8.82,10.41-17.69,15.48-26.62
			c-0.05,0.4-0.11,0.79-0.16,1.19c-0.03,0.22-0.03,0.45-0.02,0.68c-0.02,0.03-0.04,0.05-0.05,0.08
			C241.33,250.47,236.19,260.21,231.05,269.95z"/>
		<path class="st1" d="M223.96,234.68C223.97,234.68,223.97,234.68,223.96,234.68C223.56,234.72,223.85,234.7,223.96,234.68z"/>
		<path class="st1" d="M220.71,234.75c0,0,0.01,0,0.01,0C220.85,234.78,221.1,234.78,220.71,234.75z"/>
		<path class="st1" d="M224.97,242.36c-0.39-0.48-0.86-0.91-1.38-1.27c0.44-0.29,0.87-0.58,1.31-0.87c0.22-0.12,0.39-0.28,0.53-0.48
			c0.17-0.18,0.28-0.39,0.34-0.64c0.08-0.25,0.09-0.5,0.03-0.75c0-0.06-0.02-0.12-0.03-0.18c0.11-0.02,0.22-0.04,0.33-0.06
			c0.97-0.18,1.6-1.4,1.31-2.31c-0.33-1.03-1.27-1.5-2.31-1.31c-0.37,0.07-0.74,0.13-1.12,0.19c0.02,0,0.04,0,0.07-0.01
			c-0.08,0.01-0.16,0.02-0.24,0.03c-0.2,0.02-0.41,0.05-0.61,0.06c-0.77,0.07-1.54,0.08-2.31,0.01c-0.08-0.01-0.16-0.02-0.24-0.03
			c0.03,0,0.05,0,0.08,0c-0.17-0.03-0.33-0.06-0.5-0.1c-0.18-0.04-0.36-0.1-0.54-0.16c-0.05-0.02-0.09-0.03-0.14-0.05
			c-0.15-0.09-0.31-0.16-0.46-0.25c-0.04-0.03-0.09-0.06-0.13-0.09c-0.07-0.11-0.3-0.27-0.38-0.35c-0.02-0.02-0.08-0.1-0.12-0.14
			c0-0.01-0.01-0.01-0.02-0.02c-0.55-0.81-1.67-1.25-2.57-0.67c-0.31,0.2-0.57,0.5-0.73,0.84c-0.59-0.62-1.57-0.86-2.33-0.37
			c-0.83,0.53-1.23,1.68-0.67,2.57c0.37,0.58,0.68,1.19,0.96,1.81c0.41,1.03,0.7,2.1,0.85,3.19c-0.36-0.83-1.31-1.48-2.24-1.15
			c-2.82,1.02-6.15,2.76-6.87,5.97c-0.83,3.71,2.13,6.97,5.62,7.73c2.27,0.5,4.54,0.18,6.81-0.16c0.03,0,0.06-0.02,0.09-0.03
			c0.16,0.1,0.33,0.19,0.52,0.25c2.94,0.79,6.05-0.54,7.76-3C227.4,248,226.86,244.68,224.97,242.36z M218.92,234.09
			c-0.02-0.02-0.05-0.03-0.07-0.05C218.66,233.92,218.83,234.02,218.92,234.09z M213.9,240.66c0.02,0.12,0.03,0.24,0.06,0.35
			c0-0.01-0.01-0.02-0.01-0.03C213.93,240.87,213.91,240.76,213.9,240.66z M222.82,247.9c-0.01,0.04-0.03,0.07-0.04,0.1
			c-0.09,0.11-0.14,0.28-0.22,0.4c-0.01,0.02-0.07,0.1-0.12,0.18c-0.04,0.04-0.2,0.25-0.23,0.28c-0.11,0.11-0.22,0.22-0.33,0.32
			c-0.05,0.04-0.1,0.09-0.15,0.13c-0.16,0.13-0.14,0.11,0.07-0.05c-0.06,0.1-0.29,0.2-0.39,0.26c-0.13,0.08-0.27,0.16-0.41,0.22
			c-0.03,0.02-0.07,0.03-0.1,0.05c-0.26,0.04-0.64,0.15-0.88,0.24c-0.03,0-0.06,0.01-0.09,0.01c-0.15,0.01-0.31,0.01-0.46,0.01
			c-0.07,0-0.13,0-0.2-0.01c-0.21-0.02-0.18-0.01,0.11,0.02c-0.1,0.04-0.42-0.09-0.52-0.11c-0.36-0.1-0.74-0.07-1.09,0.04
			c-0.42-0.26-0.95-0.35-1.51-0.26c-0.25,0.04-0.5,0.07-0.75,0.11c-0.04,0-0.06,0.01-0.08,0.01c-0.12,0.02-0.24,0.03-0.36,0.04
			c-0.5,0.06-1.01,0.1-1.51,0.12c-0.5,0.02-1,0-1.5-0.03c-0.09-0.01-0.14-0.02-0.17-0.02c-0.09-0.01-0.17-0.03-0.26-0.04
			c-0.25-0.05-0.49-0.11-0.73-0.18c-0.06-0.02-0.33-0.12-0.39-0.14c-0.13-0.06-0.26-0.12-0.38-0.19c-0.13-0.07-0.26-0.15-0.38-0.23
			c-0.06-0.04-0.12-0.09-0.19-0.13c-0.01-0.01-0.01-0.01-0.03-0.02c-0.14-0.13-0.29-0.26-0.43-0.4c-0.06-0.06-0.28-0.38-0.25-0.31
			c-0.08-0.12-0.15-0.23-0.22-0.35c-0.03-0.05-0.05-0.1-0.07-0.15c-0.01-0.02-0.01-0.03-0.02-0.05c-0.04-0.14-0.17-0.4-0.14-0.55
			c0.03,0.26,0.04,0.29,0.02,0.07c-0.01-0.1-0.01-0.19,0-0.29c0-0.06,0.01-0.12,0.01-0.18c0.04-0.16,0.09-0.32,0.14-0.49
			c0.03-0.05,0.05-0.11,0.08-0.16c0.06-0.11,0.13-0.23,0.2-0.34c0.02-0.03,0.05-0.07,0.07-0.1c0.01-0.01,0.02-0.03,0.04-0.05
			c0.13-0.13,0.24-0.27,0.37-0.39c0.13-0.13,0.27-0.24,0.41-0.36c0.06-0.05,0.13-0.09,0.19-0.14c0.32-0.22,0.65-0.42,0.98-0.6
			c0.34-0.19,0.69-0.35,1.04-0.51c0,0,0,0,0,0c0.07-0.03,0.14-0.06,0.21-0.09c0.17-0.07,0.35-0.13,0.53-0.2
			c0.85-0.31,1.52-1.15,1.36-2.08c0.08,0.22,0.2,0.42,0.39,0.61c0.33,0.33,0.86,0.57,1.33,0.55c0.48-0.02,0.99-0.18,1.33-0.55
			c0.31-0.34,0.61-0.85,0.55-1.33c-0.15-1.17-0.37-2.31-0.77-3.42c0-0.01-0.01-0.02-0.02-0.04c1.19,0.83,2.59,1.21,4.06,1.33
			c-0.15,0.18-0.26,0.38-0.32,0.61c-0.08,0.25-0.09,0.5-0.03,0.75c0,0.03,0.01,0.07,0.02,0.1c-0.87-0.02-1.76,0.38-1.98,1.33
			c-0.2,0.89,0.27,2.16,1.31,2.31c0.32,0.05,0.61,0.13,0.91,0.22c0.01,0,0.02,0.01,0.03,0.01c0.05,0.02,0.09,0.04,0.14,0.07
			c0.12,0.06,0.23,0.13,0.35,0.2c0.08,0.05,0.15,0.1,0.22,0.15c0.17,0.12,0.15,0.1-0.06-0.05c0.1,0.04,0.22,0.19,0.3,0.27
			c0.13,0.12,0.25,0.26,0.37,0.39c0.02,0.02,0.02,0.02,0.03,0.03c0,0.01,0,0.01,0.01,0.01c0.17,0.27,0.33,0.53,0.48,0.81
			c0.01,0.01,0.01,0.02,0.01,0.03c0.02,0.05,0.04,0.1,0.05,0.15c0.04,0.13,0.08,0.26,0.12,0.39c0.02,0.09,0.04,0.17,0.06,0.26
			c0.04,0.21,0.04,0.17,0-0.1c0.05,0.11,0.03,0.28,0.03,0.4c0.01,0.18-0.01,0.36-0.01,0.53c0,0,0,0,0,0
			c-0.01,0.03-0.01,0.05-0.02,0.1C222.91,247.61,222.87,247.76,222.82,247.9z"/>
		<path class="st1" d="M359.63,237.05c-0.05-1.01-0.83-1.86-1.87-1.86c-2.33,0-4.67,0-7,0c0.23-0.78,0.43-1.58,0.59-2.38
			c0.08-0.38,0.07-0.75,0-1.12c0.21-1.03-0.17-2.24-1.15-2.71c-18.23-8.66-39.99-11.66-59.44-5.38c-5.42,1.75-10.62,4.22-15.35,7.41
			c-0.06,0.04-0.1,0.08-0.15,0.12c-0.05,0.04-0.1,0.07-0.15,0.11c-0.07,0.06-0.13,0.12-0.2,0.19c-0.05,0.05-0.11,0.11-0.16,0.16
			c-0.05,0.06-0.09,0.12-0.14,0.19c-0.06,0.08-0.11,0.16-0.16,0.25c-0.01,0.03-0.03,0.05-0.04,0.08c-0.28,0.53-0.38,1.15-0.16,1.72
			c0.01,0.03,0.02,0.05,0.03,0.08c0.03,0.08,0.06,0.15,0.09,0.22c0.38,0.93,0.79,1.85,1.24,2.76c-0.71-0.08-1.42-0.17-2.14-0.25
			c-0.45-0.05-1.02,0.25-1.33,0.55c-0.03,0.03-0.05,0.07-0.08,0.1c-0.45,0.09-0.87,0.37-1.16,0.91
			c-4.98,9.42-9.96,18.83-14.94,28.25c-1.15,0.96-0.77,3.35,1.16,3.35c26.57-0.04,53.15-0.09,79.72-0.13
			c7.47-0.01,14.95-0.02,22.42-0.04c1.06,0,1.66-0.73,1.78-1.55c0.37-0.3,0.61-0.76,0.57-1.4c-0.51-9.45-0.93-18.91-1.43-28.36
			C360.18,237.77,359.95,237.35,359.63,237.05z M332.36,227.78c3.54,0.9,7.01,2.04,10.41,3.39c-7.5,3.03-15.69,4.45-23.71,5.01
			c-9.24,0.64-18.63,0.2-27.74-1.53c-2.93-0.56-5.83-1.27-8.69-2.12C297.7,224.41,315.86,223.59,332.36,227.78z M345.38,235.46
			c-1.31,3.5-3.36,6.63-6.23,9.18c-3.82,3.39-8.72,5.4-13.67,6.51c-5.67,1.28-11.64,1.39-17.42,1.04
			c-5.51-0.33-11.49-1.01-16.27-3.98c-4.16-2.58-7.71-6.47-10.27-10.79c7.04,2.09,14.38,3.23,21.68,3.74
			c9.73,0.68,19.62,0.19,29.19-1.76C336.84,238.5,341.18,237.19,345.38,235.46z M279.57,266.01c-6.38,0.01-12.75,0.02-19.13,0.03
			c4.51-8.53,9.03-17.06,13.54-25.59c1.29,0.15,2.58,0.3,3.86,0.45c2.3,3.66,5.18,6.96,8.56,9.61c2.67,2.09,5.57,3.73,8.84,4.69
			c3.09,0.91,6.3,1.39,9.49,1.72c12.31,1.29,26.36,0.35,36.48-7.54c3.57-2.78,6.3-6.39,8.13-10.45c2.38,0,4.76,0,7.14,0
			c0.48,8.98,0.88,17.96,1.36,26.94C331.76,265.92,305.66,265.97,279.57,266.01z"/>
		<path class="st1" d="M448.94,289.39c0.13,0,0.25-0.01,0.38-0.04c0.39-0.07,0.7-0.24,0.94-0.48c0.44-0.37,0.73-0.9,0.68-1.48
			c-1.86-19.54-3.71-39.08-5.57-58.62c-0.5-5.3-1.01-10.61-1.51-15.91c-0.03-0.31-0.12-0.61-0.25-0.88
			c-0.27-0.63-0.85-1.12-1.75-1.12c-30.6,0-61.21,0.06-91.81,0.39c-30.66,0.33-61.31,1.1-91.97,1.66
			c-17.02,0.31-34.04,0.66-51.06,1.28c-0.02,0-0.04,0.01-0.06,0.01c-0.52-0.01-1.03,0.16-1.35,0.58
			c-14.73,18.81-29.44,37.63-43.32,57.08c-3.96,5.55-7.85,11.15-11.67,16.79c-0.58,0.86-0.36,1.69,0.19,2.24
			c0.32,0.45,0.83,0.76,1.54,0.77c20.11,0.12,40.23,0.17,60.34,0.14c18.89-0.03,37.78-0.13,56.67-0.28
			c18.57-0.15,37.14-0.35,55.72-0.57c18.8-0.23,37.6-0.48,56.4-0.73c19.93-0.26,39.87-0.53,59.8-0.76
			C443.83,289.44,446.38,289.42,448.94,289.39z M331.93,286.88c-18.57,0.23-37.14,0.44-55.72,0.6c-18.8,0.16-37.6,0.27-56.4,0.32
			c-19.94,0.05-39.87,0.02-59.81-0.08c-1.3-0.01-2.59-0.01-3.88-0.02c12.6-18.45,26.02-36.31,39.73-53.96
			c4.04-5.2,8.1-10.39,12.16-15.57c29.84-1.08,59.7-1.41,89.55-2.07c30.95-0.68,61.9-1.01,92.85-1.14
			c16.55-0.07,33.09-0.09,49.64-0.09c1.79,18.87,3.58,37.74,5.38,56.61c0.44,4.64,0.88,9.29,1.32,13.94
			c-19.38,0.23-38.77,0.47-58.15,0.73C369.71,286.39,350.82,286.65,331.93,286.88z"/>
		<path class="st1" d="M427.41,225.1c-0.11-0.56-0.38-0.93-0.73-1.16c0.25-1.13-0.38-2.5-1.87-2.54
			c-12.71-0.39-25.43,0.26-38.03,1.92c-0.4,0.05-0.78,0.18-1.11,0.39c-0.92,0.3-1.7,1.17-1.48,2.39c0.12,0.65,0.23,1.29,0.35,1.94
			c-0.37-0.13-0.78-0.16-1.2-0.07c-3.57,0.75-7.14,1.5-10.71,2.25c-0.57,0.12-1.03,0.56-1.27,1.1c-0.55,0.43-0.89,1.12-0.7,2
			c3.48,15.85,6.97,31.69,10.45,47.54c0.06,0.3,0.18,0.54,0.32,0.74c0.22,0.73,0.83,1.32,1.83,1.28c1.8-0.07,3.62-0.46,5.39-0.78
			c2.72-0.5,5.44-1.07,8.14-1.67c2.68-0.59,5.36-1.22,8.02-1.9c1.69-0.43,3.44-0.82,5.05-1.5c0.41-0.17,0.76-0.43,1.03-0.75
			c7.21-0.64,14.41-1.28,21.62-1.92c1.08-0.1,2-0.85,2-2c0-0.03-0.01-0.06-0.01-0.09c0.16-0.28,0.24-0.59,0.2-0.91
			C432.71,255.85,430.28,240.43,427.41,225.1z M423.55,225.37c-0.05,0.25-0.05,0.51,0,0.79c2.76,14.71,5.11,29.5,7.03,44.34
			c-11.44,1.02-22.88,2.03-34.32,3.05c-2.43-15.51-5.04-30.99-7.84-46.44C400.07,225.66,411.81,225.07,423.55,225.37z
			 M388.05,278.12c-1.05,0.2-2.11,0.39-3.17,0.55c-0.06,0.01-0.11,0.02-0.17,0.02c-3.29-14.96-6.58-29.92-9.87-44.88
			c3.18-0.67,6.36-1.34,9.54-2c0.28-0.06,0.53-0.2,0.75-0.39c2.62,14.61,5.09,29.25,7.38,43.92c0.12,0.77,0.85,1.28,1.6,1.42
			c0.02,0.04,0.05,0.07,0.08,0.1C392.16,277.31,390.11,277.73,388.05,278.12z"/>
		<path class="st1" d="M393.59,231.09c0,0.07-0.02,0.13-0.01,0.21c1.91,11.7,3.82,23.4,5.73,35.1c0.09,0.54,0.5,0.74,0.92,0.7
			c0.19,0.39,0.58,0.69,1.12,0.61c7.62-1.18,15.56-1.46,23.26-1.07c0.57,0.03,0.87-0.35,0.94-0.78c0.01-0.04,0.02-0.09,0.02-0.13
			c0-0.02,0-0.04,0-0.06c0.01-0.09,0.02-0.18,0-0.29c-2.14-11.75-4.27-23.5-6.41-35.25c-0.09-0.52-0.47-0.72-0.87-0.71
			c-0.03-0.01-0.06-0.02-0.09-0.03c-7.91-0.53-16.06-0.41-23.92,0.68C393.68,230.15,393.49,230.63,393.59,231.09z M417.36,231.34
			c2.01,11.08,4.03,22.17,6.04,33.25c-7.37-0.3-14.9,0.04-22.19,1.14c-1.84-11.28-3.69-22.56-5.53-33.84
			C402.82,230.98,410.2,230.9,417.36,231.34z"/>
		<path class="st1" d="M405.5,253.46c2.62,0.04,5.14-1.21,6.74-3.26c0.83,0.45,1.67,0.89,2.5,1.34c1.13,0.61,2.15-1.12,1.01-1.73
			c-1.11-0.59-2.21-1.18-3.31-1.78c-0.48-0.26-1.08-0.12-1.37,0.36c-1.17,1.93-3.32,3.09-5.57,3.06
			C404.22,251.44,404.22,253.44,405.5,253.46z"/>
		<path class="st1" d="M415.06,256.85c-2.08,0.31-4.15,0.62-6.23,0.93c-0.52,0.08-0.85,0.76-0.7,1.23c0.18,0.57,0.67,0.78,1.23,0.7
			c2.08-0.31,4.15-0.62,6.23-0.93c0.52-0.08,0.85-0.76,0.7-1.23C416.1,256.99,415.61,256.77,415.06,256.85z"/>
		<path class="st1" d="M256.95,357.4c0.86,0.2,1.54-0.26,1.85-1.05c1.1-2.83,2.21-5.65,3.31-8.48c0.29-0.73-0.31-1.68-1.05-1.85
			c-0.86-0.2-1.54,0.26-1.85,1.05c-1.1,2.83-2.21,5.65-3.31,8.48C255.61,356.29,256.21,357.23,256.95,357.4z"/>
		<path class="st1" d="M252.44,367.95c0.01,0.02,0.02,0.04,0.03,0.06c0,0,0,0.01,0.01,0.01
			C252.47,368.01,252.45,367.98,252.44,367.95C252.44,367.95,252.44,367.95,252.44,367.95z"/>
		<path class="st1" d="M253.41,370.49c0.28-0.04,0.5-0.09,0.71-0.29c0.16-0.16,0.27-0.41,0.28-0.65c0.43,0.12,0.92-0.01,1.15-0.43
			c0.46-0.84,0.42-1.82-0.01-2.67c-0.43-0.85-1.29-1.39-2.23-1.45c-0.97-0.06-1.89,0.49-2.44,1.26c-0.59,0.8-0.59,1.86-0.15,2.73
			C251.2,369.92,252.34,370.63,253.41,370.49z M253.8,367.45c0,0.01,0.01,0.02,0.01,0.03C253.72,367.3,253.78,367.38,253.8,367.45z
			 M253.54,367.11c-0.03-0.03-0.06-0.05-0.06-0.05c0,0,0,0,0,0C253.48,367.06,253.49,367.07,253.54,367.11
			C253.53,367.1,253.54,367.1,253.54,367.11z M253.6,367.15c0,0-0.02-0.01-0.04-0.02C253.58,367.14,253.6,367.15,253.6,367.15z
			 M253.1,367.01c0.07,0,0.15,0,0.22,0c0.04,0.01,0.07,0.02,0.11,0.03c0.02,0.01,0.04,0.02,0.06,0.03c0.01,0,0.04,0.03,0.07,0.05
			c0.05,0.04,0.09,0.09,0.13,0.14c0.01,0.02,0.03,0.04,0.04,0.06c0.03,0.05,0.06,0.11,0.09,0.17c0.01,0.03,0.02,0.06,0.03,0.09
			c0.01,0.04,0.01,0.07,0.02,0.11c0.01,0.09,0,0.18,0,0.26c-0.01,0.04-0.01,0.07-0.02,0.11c0,0,0,0,0,0
			c-0.01,0.02-0.02,0.04-0.02,0.05c-0.07,0.13-0.1,0.27-0.12,0.42c-0.1-0.03-0.19-0.05-0.29-0.04c-0.11,0.01-0.22,0.01-0.32,0
			c-0.04-0.01-0.07-0.01-0.11-0.02c-0.01,0-0.02-0.01-0.04-0.01c0,0,0,0-0.01,0c-0.07-0.04-0.14-0.08-0.21-0.12
			c-0.02-0.02-0.05-0.04-0.07-0.06c-0.03-0.03-0.07-0.07-0.1-0.1c0,0,0,0,0-0.01c0-0.01-0.01-0.01-0.01-0.02
			c-0.02-0.04-0.05-0.07-0.07-0.11c0.02,0.05-0.02-0.01-0.04-0.07c0,0,0,0,0,0c-0.01-0.02-0.02-0.04-0.03-0.06v0
			c0.01,0.03,0.02,0.04,0.03,0.06c-0.01-0.04-0.02-0.08-0.03-0.12c0-0.06-0.01-0.13,0-0.2c0.01-0.03,0.01-0.07,0.02-0.1
			c0-0.01,0-0.01,0-0.02c0.01-0.01,0.01-0.02,0.02-0.03c0.02-0.04,0.04-0.08,0.07-0.11c0.02-0.03,0.02-0.04,0.03-0.05
			c0.05-0.05,0.1-0.09,0.12-0.11c0.01-0.01,0.03-0.03,0.04-0.04c0.07-0.04,0.14-0.08,0.21-0.12c0.02-0.01,0.04-0.02,0.07-0.02
			C253.02,367.03,253.06,367.02,253.1,367.01z"/>
		<path class="st1" d="M257.3,376.71c0.01,0.01,0.03,0.03,0.04,0.04c0.03,0.03,0.06,0.05,0.1,0.07c0.15,0.13,0.34,0.22,0.6,0.22
			c30.08,0.07,60.16,0.14,90.24,0.2c8.53,0.02,17.06,0.04,25.59,0.06c0.23,0,0.4-0.08,0.55-0.18c0.27-0.15,0.47-0.41,0.45-0.82
			c-0.55-13.81-0.9-27.62-1.46-41.43c-0.01-0.15-0.04-0.27-0.09-0.38c0,0,0,0,0-0.01c-0.01-0.03-0.03-0.05-0.04-0.08
			c-0.14-0.31-0.42-0.54-0.86-0.53c-26.54,0.65-53.1,0.73-79.65,0.3c-7.36-0.12-14.73-0.28-22.09-0.48
			c-0.34-0.01-0.59,0.13-0.75,0.34c-0.04,0.05-0.07,0.12-0.1,0.18c-0.02,0.04-0.04,0.07-0.06,0.11c-0.02,0.04-0.04,0.07-0.06,0.11
			c-3.89,13.87-7.99,27.71-12.62,41.35C256.94,376.18,257.07,376.5,257.3,376.71z M350.31,336.28c7.04-0.09,14.09-0.22,21.13-0.39
			c0.52,13.13,0.87,26.27,1.38,39.41c-29.73-0.07-59.47-0.13-89.2-0.2c-8.07-0.02-16.14-0.04-24.21-0.05
			c4.38-12.99,8.29-26.14,11.99-39.33C297.7,336.43,324.01,336.61,350.31,336.28z"/>
		<path class="st1" d="M554.13,269.01c0.44,1.86,1.17,3.67,2.14,5.32c0.24,0.41,0.69,0.67,1.16,0.73c0.33,0.63,0.98,0.94,1.71,0.79
			c0.27-0.05,0.53-0.11,0.8-0.15c0.14-0.02,0.29-0.05,0.43-0.07c0.02,0,0.08-0.01,0.13-0.02c0.51-0.07,1.02-0.12,1.53-0.15
			c1.07-0.07,2.14-0.06,3.2,0.01c0.58,0.04,1.14-0.38,1.38-0.91c0.05-0.02,0.1-0.04,0.15-0.07c0.72-0.47,0.91-1.3,0.54-2.05
			c-0.76-1.54-1.51-3.07-2.27-4.61c-0.15-0.31-0.44-0.53-0.78-0.64c-0.25-0.48-0.72-0.8-1.32-0.84c-2.57-0.17-5.14,0.01-7.66,0.48
			c-0.58,0.11-1.02,0.69-1.09,1.28C554.08,268.38,554.05,268.69,554.13,269.01z M559.36,269.32c1.02-0.06,2.05-0.05,3.07,0
			c0,0,0,0.01,0,0.01c0.51,1.03,1.01,2.06,1.52,3.09c-1.7-0.02-3.4,0.13-5.07,0.44c-0.01-0.01-0.01-0.03-0.02-0.05
			c-0.37-0.63-0.7-1.28-0.99-1.95c-0.18-0.45-0.35-0.9-0.49-1.36c0.06-0.01,0.18-0.02,0.23-0.03
			C558.19,269.41,558.78,269.36,559.36,269.32z"/>
		<path class="st1" d="M568.71,272.46c0.15,0.38,0.33,0.69,0.69,0.9c0.32,0.19,0.8,0.27,1.16,0.15c0.01,0,0.02-0.01,0.03-0.01
			c0.13,0.04,0.26,0.06,0.39,0.05c1.77-0.22,3.55-0.44,5.32-0.66c0.47,0.31,1.14,0.35,1.6,0.06c0.72-0.46,0.91-1.3,0.54-2.05
			c-0.21-0.42-0.41-0.84-0.6-1.27c-0.05-0.11-0.13-0.25-0.16-0.37c0.02,0.06,0.05,0.12,0.07,0.17c-0.03-0.06-0.05-0.12-0.08-0.18
			c-0.09-0.22-0.18-0.43-0.26-0.65c-0.34-0.87-0.63-1.76-0.88-2.66c-0.06-0.19-0.15-0.37-0.28-0.53c0.05-0.24,0.06-0.5-0.01-0.72
			c-0.12-0.36-0.34-0.71-0.69-0.9c-0.38-0.2-0.73-0.21-1.16-0.15c-0.04,0.01-0.06,0.01-0.08,0.01c-0.01,0-0.01,0-0.02,0
			c-0.15,0.02-0.3,0.04-0.44,0.06c-0.25,0.03-0.51,0.06-0.76,0.09c-0.53,0.06-1.06,0.1-1.59,0.14c-1.06,0.08-2.13,0.12-3.19,0.13
			c-0.7,0.01-1.37,0.55-1.48,1.25c-0.35,0.37-0.54,0.89-0.34,1.39C567.22,268.62,567.97,270.54,568.71,272.46z M573.65,266.72
			C573.65,266.72,573.65,266.72,573.65,266.72c0.32,1.14,0.72,2.26,1.16,3.35c-1.22,0.15-2.43,0.3-3.65,0.45
			c-0.45-1.17-0.91-2.34-1.36-3.5C571.09,266.96,572.37,266.86,573.65,266.72z"/>
		<path class="st1" d="M578.37,266.27c0.03,0.07,0.24,0.53,0.07,0.16c0.05,0.1,0.09,0.21,0.13,0.31c0.2,0.49,0.39,0.98,0.56,1.48
			c0.35,0.99,0.65,2,0.91,3.02c0.19,0.76,1.09,1.29,1.84,1.05c0.26-0.08,0.49-0.23,0.66-0.42c0.1-0.01,0.19-0.02,0.3-0.04
			c1.46-0.26,2.91-0.52,4.36-0.78c0.33,0.17,0.71,0.23,1.07,0.11c0.78-0.25,1.27-1.03,1.05-1.85c-0.55-2.03-1.1-4.06-1.65-6.1
			c-0.15-0.56-0.67-1.01-1.25-1.09c-0.25-0.2-0.55-0.32-0.89-0.29c-1.92,0.17-3.84,0.35-5.77,0.52c-0.41,0.04-0.76,0.14-1.06,0.44
			c-0.24,0.24-0.41,0.61-0.43,0.96c-0.46,0.48-0.54,1.14-0.24,1.78C578.16,265.79,578.27,266.03,578.37,266.27z M585.02,264.9
			c0.3,1.12,0.6,2.24,0.91,3.36c-1.14,0.21-2.29,0.41-3.43,0.62c-0.38-1.23-0.83-2.44-1.33-3.62
			C582.45,265.13,583.74,265.02,585.02,264.9z"/>
		<path class="st1" d="M589.31,264.82c0.45,1.64,0.9,3.28,1.35,4.93c0.15,0.56,0.67,1,1.24,1.09c0.05,0.03,0.09,0.07,0.14,0.1
			c0.38,0.2,0.74,0.23,1.16,0.15c1.4-0.25,2.81-0.5,4.22-0.76c0.35-0.06,0.72-0.39,0.9-0.69c0.09-0.15,0.15-0.32,0.18-0.51
			c0.57-0.34,0.9-1,0.71-1.69c-0.51-1.79-1.01-3.58-1.52-5.37c-0.21-0.73-1.01-1.25-1.76-1.07c-1.97-0.32-3.99,0-5.74,1
			c-0.55,0.32-0.84,1.03-0.7,1.64C589.28,263.99,589.2,264.4,589.31,264.82z M595.08,263.91c0.34,1.21,0.68,2.41,1.02,3.62
			c-0.93,0.17-1.87,0.33-2.8,0.5c-0.34-1.24-0.68-2.48-1.02-3.72c0.47-0.18,0.95-0.31,1.45-0.39
			C594.18,263.87,594.63,263.87,595.08,263.91z"/>
		<path class="st1" d="M605.97,221.42V0H0v448h605.97V222.07C606.01,221.86,606.01,221.65,605.97,221.42z M385.38,383.56
			c-0.15,0.32-0.32,0.62-0.53,0.9c-0.24,0.29-0.51,0.56-0.8,0.8c-0.11,0.08-0.22,0.15-0.34,0.22c-18.42,0.66-36.85,1.05-55.28,1.18
			c-18.73,0.13-37.47-0.02-56.19-0.48c-10.22-0.25-20.43-0.6-30.64-1.04c-0.04-0.04-0.08-0.08-0.11-0.12c0,0.01,0.01,0.02,0.01,0.02
			c0,0-0.02-0.03-0.02-0.04c0,0-0.01-0.01-0.01-0.01c-0.07-0.07-0.07-0.08-0.05-0.07c-0.01-0.01-0.02-0.02-0.02-0.03
			c-0.08-0.12-0.16-0.25-0.23-0.38c-0.08-0.15-0.15-0.3-0.22-0.45c-0.03-0.08-0.06-0.15-0.08-0.23c-0.12-0.35-0.22-0.71-0.3-1.07
			c-0.02-0.08-0.06-0.35-0.07-0.38c-0.02-0.15-0.03-0.29-0.04-0.44c-0.02-0.4-0.01-0.8,0.02-1.2c0-0.03,0-0.04,0-0.06
			c0.01-0.08,0.03-0.16,0.04-0.24c0.04-0.19,0.08-0.38,0.13-0.57c0.06-0.21,0.13-0.42,0.2-0.62c0-0.01,0-0.01,0.01-0.02
			c0.06-0.11,0.11-0.23,0.17-0.34c0.17-0.32,0.21-0.7,0.15-1.06c4.64-11.11,9.28-22.22,13.92-33.34c0.37-0.41,0.58-0.94,0.63-1.5
			c1.38-3.31,2.76-6.61,4.14-9.92c0.03-0.04,0.07-0.08,0.1-0.13c0.05-0.07,0.1-0.15,0.15-0.22c0.03-0.03,0.05-0.06,0.08-0.09
			c0.16-0.17,0.33-0.33,0.51-0.48c0.03-0.02,0.05-0.04,0.08-0.06c0.1-0.07,0.2-0.13,0.3-0.19c0.1-0.06,0.21-0.12,0.32-0.17
			c0.12-0.06,0.54-0.19,0.09-0.05c0.23-0.08,0.46-0.17,0.7-0.23c0.12-0.03,0.24-0.06,0.36-0.08c0.07-0.01,0.14-0.02,0.2-0.04
			c0.05-0.01,0.05-0.01,0.06-0.01c0.09,0,0.17,0,0.2,0c0.12-0.01,0.25-0.01,0.37,0c0.09,0,0.19,0.01,0.28,0.02c0,0,0,0,0,0
			c0.03,0,0.06,0,0.09,0c0.04,0,0.09,0.01,0.13,0.01c0,0,0,0,0,0c-0.04,0-0.07-0.01-0.09-0.01c0.02,0,0.04,0,0.05,0.01
			c0.12,0.02,0.23,0.03,0.34,0.04c0.02,0,0.04,0.01,0.06,0.01c30.22,0.15,60.44,0.29,90.66,0.44c7.98,0.04,15.96,0.08,23.93,0.12
			c0.22,0.12,0.46,0.2,0.71,0.19c0.09,0,0.18,0.01,0.26,0.01c0.17,0.03,0.33,0.08,0.49,0.13c0.14,0.07,0.27,0.14,0.39,0.23
			c0.1,0.09,0.19,0.18,0.28,0.27c0.05,0.07,0.09,0.14,0.13,0.22c0.03,0.1,0.07,0.2,0.09,0.31c0,0,0,0.01,0,0.01
			c1.43,16.33,2.86,32.66,4.29,48.98c0.02,0.17,0.06,0.33,0.12,0.47C385.54,383.04,385.47,383.31,385.38,383.56z M262.59,331.35
			c0.02-0.02,0.1-0.03,0.19-0.03C262.72,331.33,262.6,331.34,262.59,331.35z M384.12,332.58c-0.03-0.31-0.13-0.56-0.28-0.76
			c-0.08-0.2-0.17-0.39-0.29-0.57c-0.34-0.51-0.73-0.89-1.22-1.25c-0.27-0.2-0.57-0.35-0.88-0.47c-0.24-0.33-0.62-0.56-1.15-0.56
			c-30.22-0.15-60.44-0.29-90.66-0.44c-8.47-0.04-16.94-0.08-25.4-0.12c-0.04,0-0.07,0.01-0.1,0.01c-2.12-0.24-4.31,0.41-5.83,1.89
			c-0.42,0.17-0.75,0.55-0.94,1.01c-1.24,2.98-2.49,5.96-3.73,8.94c-0.1-0.01-0.2-0.03-0.31-0.03c-8.15-0.09-16.3-0.22-24.45-0.33
			c1.64-3.48,3.28-6.95,4.94-10.41c0.03-0.07,0.05-0.13,0.08-0.2c0.16-0.34,0.26-0.7,0.26-1.06c0-0.55-0.17-1.03-0.45-1.42
			c-0.19-0.29-0.45-0.54-0.78-0.74c-0.31-0.18-0.67-0.28-1.03-0.31c-0.08-0.01-0.15-0.03-0.23-0.04
			c-18.16-1.33-36.39-0.85-54.58-1.33c-0.05,0-0.1,0.01-0.15,0.01c-0.01,0-0.03,0-0.04,0c-0.94,0.04-1.58,0.51-1.92,1.17
			c-0.02,0.02-0.04,0.04-0.05,0.06c-3.5,4.54-6.99,9.07-10.49,13.61c-21.12-0.27-42.23-0.57-63.35-0.89
			c-20.54-0.31-41.08-0.65-61.62-1c-11.82-0.2-23.64-0.41-35.46-0.61v-17.35c0.09-0.07,0.18-0.14,0.27-0.24
			c12.07-12.92,24.14-25.84,36.2-38.78c3.54-3.8,7.08-7.61,10.62-11.41c0.03-0.03,0.05-0.07,0.08-0.11
			c11.32,0.74,22.64,1.34,33.96,1.87c0.23,0.03,0.46,0.03,0.69-0.02c0.64-0.09,1.09-0.44,1.37-0.91
			c10.01-10.43,18.77-22.02,27.26-33.69c0.11-0.12,0.2-0.25,0.28-0.39c0.02-0.03,0.05-0.06,0.07-0.09c0.73-1,0.43-1.99-0.28-2.61
			c-0.36-0.45-0.91-0.76-1.66-0.78c-9.04-0.19-18.08-0.38-27.11-0.57c9.54-10.24,19.07-20.49,28.62-30.72
			c3.03-3.25,6.07-6.5,9.1-9.75c26.45-0.94,52.9-1.75,79.35-2.42c26.3-0.66,52.6-1.19,78.9-1.57c26.11-0.38,52.23-0.61,78.35-0.7
			c26.26-0.09,52.53-0.04,78.79,0.14c26.75,0.19,53.5,0.51,80.25,0.95c2.74,0.05,5.48,0.09,8.23,0.14
			c5.64,20.09,11.28,40.18,16.78,60.31c1.16,4.26,2.32,8.51,3.47,12.77c-5.08,0.65-10.16,1.31-15.24,1.99
			c-1.34,0.18-2.5,1.02-2.5,2.5c0,0.2,0.04,0.4,0.1,0.6c-0.12,0.59-0.03,1.24,0.25,1.83c5.88,12.37,11.76,24.75,17.64,37.12
			c0.11,0.23,0.27,0.41,0.44,0.58c0.01,0.14,0.03,0.29,0.07,0.42c0.39,1.42,1.74,1.96,3.08,1.75c2.78-0.45,5.57-0.87,8.36-1.27
			c3.05,11.63,6.06,23.27,9.06,34.91c-23.36-0.05-46.72,0.02-70.08,0.1c-24.18,0.08-48.36,0.18-72.55,0.16
			c-13.52-0.01-27.04-0.06-40.57-0.16c-0.28,0-0.52,0.04-0.75,0.11C384.64,338.49,384.38,335.53,384.12,332.58z M197,396.55
			c-17.27-0.94-34.48-2.66-51.75-3.67c-4.94-0.29-9.93-0.37-14.76-1.49c12.65-16.42,25.3-32.84,37.96-49.26
			c3.27-4.24,6.54-8.48,9.8-12.72c16.52,0.4,33.06,0.08,49.56,1.07c-8.22,17.22-16.05,34.62-24.12,51.91
			C201.49,387.12,199.26,391.84,197,396.55z M40.56,235.21c9.14,0.19,18.28,0.38,27.42,0.57c-7.51-0.05-15.02-0.13-22.52-0.25
			c-0.83-0.01-1.39,0.4-1.68,0.96c-0.52-0.17-1.09-0.15-1.6,0.16c-4.21,2.55-8.19,5.48-11.89,8.74c-0.79,0.69-0.76,2.13,0,2.83
			c0.78,0.71,1.82,0.73,2.63,0.14c0.2,0.79,0.81,1.49,1.84,1.58c4.42,0.37,8.84,0.68,13.26,0.95c-0.34,0-0.69,0-1.03,0
			c-0.28-0.01-0.53,0.05-0.77,0.17c-0.25,0.08-0.46,0.22-0.64,0.41c-0.2,0.18-0.33,0.4-0.41,0.64c-0.07,0.14-0.12,0.29-0.14,0.45
			c-0.48,0.13-0.9,0.44-1.2,0.9c-1.01,1.54-2.01,3.08-3.02,4.63c-0.28,0.42-0.33,1.07-0.2,1.54c0.13,0.46,0.49,0.97,0.92,1.2
			c0.57,0.3,1.19,0.32,1.72,0.11c0.15,0,0.29-0.02,0.45-0.05c1.09-0.2,2.19-0.39,3.28-0.59c0.14,0.16,0.29,0.3,0.47,0.39
			c0.46,0.25,1.03,0.37,1.54,0.2c0.48-0.16,0.96-0.46,1.2-0.92c0.52-1.02,1.04-2.03,1.57-3.05c0.25-0.48,0.35-1.01,0.2-1.54
			c-0.13-0.46-0.49-0.97-0.92-1.2c-0.05-0.03-0.11-0.05-0.16-0.07c0.11-0.14,0.21-0.29,0.27-0.47c0.13-0.24,0.18-0.5,0.17-0.77
			c-0.02-0.52-0.19-1.05-0.59-1.41c-0.24-0.22-0.52-0.38-0.82-0.48c13.07,0.74,26.16,1.04,39.25,0.88c0.09,0,0.16-0.02,0.24-0.03
			c0.71,0.26,1.53,0.14,2.1-0.44c3.83-3.83,7.66-7.66,11.49-11.5c0.74-0.74,0.8-2.1,0-2.83c-0.8-0.73-2.04-0.79-2.83,0
			c-0.22,0.22-0.44,0.44-0.65,0.66c-0.01-0.48-0.17-0.95-0.48-1.31c3.17,0.07,6.35,0.13,9.52,0.2
			c-7.52,10.25-15.32,20.33-24.1,29.53c-25.16-1.18-50.32-2.74-75.38-5.33C18.91,251.57,29.64,243.19,40.56,235.21z M89.33,247.89
			c-0.07-0.01-0.13-0.02-0.21-0.02c-17.82,0.22-35.64-0.4-53.39-1.86c2.65-2.14,5.39-4.05,8.46-5.91c0.27-0.17,0.49-0.4,0.66-0.67
			c0.18,0.06,0.38,0.1,0.6,0.1c17.31,0.27,34.62,0.37,51.94,0.29C94.7,242.51,92.01,245.2,89.33,247.89z M47.2,256.22
			c-0.16,0.03-0.31,0.06-0.47,0.08c0.18-0.27,0.36-0.55,0.53-0.82c0.11-0.17,0.18-0.38,0.22-0.6c0.27,0,0.54,0,0.81,0
			c-0.01,0.01-0.01,0.02-0.02,0.03c-0.21,0.42-0.43,0.84-0.64,1.25C47.49,256.18,47.35,256.19,47.2,256.22z M4,264.43
			c0.33,0.27,0.74,0.46,1.24,0.51c13.14,1.42,26.32,2.54,39.51,3.46c-10.96,11.77-21.93,23.54-32.9,35.29
			c-2.62,2.8-5.23,5.6-7.85,8.4V264.43z M552.2,302.45c-0.02-0.04-0.03-0.08-0.05-0.12c-5.54-11.65-11.07-23.3-16.61-34.95
			c16.84-2.23,33.7-4.29,50.59-6.1c5.27-0.57,10.55-1.11,15.82-1.64v1.14c-0.22,0.08-0.45,0.14-0.69,0.19
			c-0.27,0.02-0.54,0.02-0.8,0c-0.21-0.01-0.4,0.04-0.58,0.13c-0.19,0.06-0.35,0.16-0.48,0.31c-0.22,0.22-0.39,0.56-0.42,0.89
			c-0.13,0.3-0.18,0.64-0.08,0.99c0.4,1.53,0.81,3.05,1.21,4.58c0.2,0.76,1.08,1.3,1.85,1.05c0,0,0,0,0,0v2.73
			c-16.44,2.01-32.88,4.03-49.31,6.04c-1.01,0.12-1.92,0.65-2.31,1.54c-0.36,0.56-0.51,1.26-0.3,1.96
			c1.66,5.36,4.12,10.47,7.31,15.09c0.38,0.56,0.97,0.98,1.61,1.15c0.46,0.65,1.2,1.11,2.01,1.05c13.71-0.96,27.4-2.54,40.99-4.61
			v1.55c-0.2,0-0.39,0.01-0.59,0.04C585.03,298.08,568.56,299.89,552.2,302.45z M575.05,250.33c-0.54-0.42-1.07-0.83-1.61-1.25
			c-8.97-15.24-17.67-30.64-26.08-46.19c-0.09-0.16-0.19-0.3-0.3-0.42c-0.01-0.02-0.03-0.05-0.05-0.08
			c0.02,0.03,0.04,0.05,0.05,0.08c0,0-0.01-0.01-0.01-0.01c-0.02-0.03-0.03-0.05-0.05-0.08c-0.12-0.15-0.05-0.07,0.02,0.01
			c-0.03-0.04-0.07-0.08-0.09-0.12c-0.1-0.14-0.18-0.29-0.27-0.43c-0.08-0.15-0.16-0.3-0.23-0.45c-0.02-0.04-0.03-0.07-0.04-0.11
			c-0.12-0.32-0.21-0.64-0.28-0.97c-0.03-0.12-0.04-0.25-0.07-0.38c-0.01-0.1-0.02-0.19-0.02-0.29c-0.02-0.34-0.02-0.69-0.01-1.03
			c0.01-0.17,0.02-0.35,0.04-0.52c0,0,0-0.01,0-0.01c0.01-0.04,0.01-0.08,0.02-0.1c0.07-0.4,0.16-0.79,0.28-1.17
			c11.42-1.89,22.83-3.79,34.25-5.68c0.06,0.03,0.13,0.05,0.19,0.08c0.35,0.1,0.71,0.1,1.06,0c0.1-0.04,0.21-0.06,0.31-0.08
			c0.03,0,0.06,0,0.09,0c0.07,0.02,0.13,0.03,0.19,0.05c0.05,0.03,0.09,0.05,0.14,0.08c0.04,0.1,0.09,0.19,0.15,0.29
			c6.53,10.17,12.94,20.42,19.23,30.74v1.02c-5.56-8.74-11.21-17.42-16.45-26.36c0.21-0.7-0.34-1.66-1.29-1.52
			c-0.28-0.05-0.57,0.01-0.81,0.15c-9.95,1.99-20.07,3.05-30.01,5.09c-0.47,0.1-0.72,0.4-0.79,0.76c-0.1,0.27-0.08,0.58,0.11,0.9
			c7.85,12.82,15.22,25.92,22.7,38.97c0.24,0.42,0.61,0.57,0.98,0.54c0.09,0,0.19,0,0.29-0.02c8.37-1.74,16.8-3.19,25.27-4.4v8.85
			C593.11,248.34,584.12,249.7,575.05,250.33z M546.01,199.81c0,0.01,0.01,0.04,0.01,0.06
			C546.02,199.85,546.02,199.83,546.01,199.81z M546.4,201.36C546.37,201.28,546.38,201.3,546.4,201.36L546.4,201.36z
			 M546.43,201.41c0.02,0.04,0.04,0.08,0.04,0.11C546.46,201.49,546.44,201.45,546.43,201.41z M561.48,293.43
			c-1.43-2.09-2.72-4.28-3.83-6.55c-0.57-1.16-1.06-2.28-1.41-3.16c-0.19-0.47-0.36-0.94-0.53-1.42
			c15.42-1.89,30.84-3.78,46.26-5.67v12.2C588.55,290.91,575.02,292.47,561.48,293.43z M576.98,239.46
			c-7.07-12.35-14.08-24.75-21.48-36.91c9.27-1.81,18.68-2.87,27.95-4.69c5.89,10.06,12.29,19.8,18.52,29.65v7.63
			C593.6,236.33,585.26,237.76,576.98,239.46z M586.37,189.83c-0.2-0.45-0.45-0.88-0.79-1.26c-0.34-0.38-0.78-0.71-1.24-0.93
			c-0.66-0.31-1.24-0.48-1.98-0.53c-0.35-0.02-0.7,0.04-1.04,0.09c-0.17,0.03-0.33,0.08-0.48,0.14c-0.37-0.12-0.79-0.15-1.21-0.08
			c-11.72,1.94-23.44,3.89-35.16,5.83c-0.55,0.09-0.98,0.5-1.22,1c-0.19,0.22-0.35,0.47-0.46,0.77c-0.61,1.58-0.91,3.36-0.75,5.05
			c0.17,1.8,0.76,3.4,1.8,4.84c0.02,0.06,0.04,0.11,0.07,0.17c8.19,15.15,16.66,30.15,25.39,45c0,0.01,0,0.01,0,0.02
			c0.02,0.18,0.05,0.35,0.07,0.53c0.09,0.34,0.27,0.63,0.51,0.88c0.15,0.12,0.3,0.24,0.46,0.36c0.03,0.04,0.05,0.09,0.08,0.13
			c0.33,0.56,0.8,0.85,1.3,0.93c0.32,0.25,0.64,0.5,0.96,0.74c0.18,0.2,0.4,0.33,0.64,0.41c0.1,0.05,0.21,0.09,0.32,0.12
			c0.3,0.22,0.7,0.35,1.2,0.31c9.14-0.62,18.21-1.96,27.14-4v4.29c-16.47,1.66-32.93,3.5-49.36,5.55
			c-5-18.43-10.09-36.84-15.24-55.23c-1.9-6.79-3.8-13.57-5.71-20.35c-0.22-0.77-0.68-1.27-1.25-1.54c-0.33-0.18-0.71-0.29-1.17-0.3
			c-26.83-0.48-53.67-0.83-80.5-1.05c-26.31-0.22-52.61-0.3-78.92-0.24c-26.12,0.06-52.23,0.26-78.35,0.6
			c-26.26,0.34-52.52,0.83-78.78,1.46c-26.74,0.64-53.48,1.43-80.22,2.35c-3.3,0.11-6.61,0.23-9.91,0.35
			c-0.66-0.1-1.38,0.09-1.99,0.74c-10.58,11.33-21.15,22.66-31.71,34c-3.11,3.35-6.23,6.69-9.34,10.04
			c-0.16,0.17-0.28,0.34-0.38,0.52c-12.87-0.27-25.74-0.54-38.62-0.81c-0.46-0.18-0.99-0.17-1.54,0.13
			c-0.31,0.12-0.57,0.3-0.77,0.53c-11.89,8.69-23.6,17.81-34.23,28.01v-98.75c1.66,0.88,3.67,1.16,5.64,0.74
			c36.97-7.81,74.59-11.58,112.22-14.38c38.97-2.9,78-5.05,117.05-6.41c38.17-1.34,76.37-1.9,114.57-1.61
			c38.21,0.29,76.41,1.42,114.57,3.41c38.66,2.02,77.28,4.92,115.81,8.65c4.84,0.47,9.67,0.95,14.51,1.45
			c1.29,0.13,2.52-0.21,3.6-0.85v63.05C596.84,206.36,591.65,198.06,586.37,189.83z M601.97,4v134.55c-1.08-0.58-2.31-0.94-3.6-1.08
			c-38.81-3.96-77.71-7.11-116.66-9.35c-38.17-2.2-76.39-3.54-114.62-4.03c-38.52-0.49-77.05-0.12-115.55,1.06
			c-39.04,1.19-78.05,3.21-117.02,5.92c-38.56,2.68-77.19,6.05-115.23,13.11c-4.56,0.85-9.1,1.75-13.64,2.71
			c-0.59,0.12-1.14,0.34-1.65,0.62V4H601.97z M4,444V341.72c20.86,0.36,41.72,0.73,62.57,1.07c20.54,0.34,41.08,0.66,61.62,0.95
			c10.8,0.15,21.61,0.3,32.42,0.44c-8.23,10.68-16.46,21.36-24.68,32.03c-3.59,4.66-7.18,9.32-10.78,13.99
			c-0.72,0.94-0.3,2.39,0.53,3.15c-0.03,1.02,0.48,2.05,1.75,2.42c5.1,1.5,10.44,1.72,15.72,2c4.26,0.23,8.52,0.52,12.77,0.82
			c9.41,0.68,18.81,1.45,28.22,2.13c4.8,0.35,9.59,0.67,14.4,0.92c1.09,0.06,1.8-0.48,2.15-1.22c0-0.01,0.01-0.01,0.01-0.02
			c8.84-18.37,17.17-36.97,25.79-55.44c0.02-0.04,0.03-0.07,0.05-0.11c8.35,0.1,16.69,0.24,25.04,0.34
			c-4.49,10.75-8.97,21.5-13.46,32.25c-0.1,0.23-0.09,0.48-0.03,0.72c-0.69,1.71-0.79,3.58-0.42,5.41c0.34,1.66,1.16,3.4,2.62,4.35
			c0.21,0.14,0.46,0.2,0.72,0.2c0.01,0,0.03,0.01,0.04,0.01c18.57,0.81,37.15,1.29,55.73,1.48c18.73,0.19,37.47,0.1,56.2-0.27
			c10.41-0.2,20.82-0.49,31.22-0.87c0.05,0,0.09-0.01,0.13-0.02c0.04,0,0.09-0.01,0.13-0.02c0.04-0.01,0.08-0.02,0.12-0.03
			c0.13-0.03,0.25-0.08,0.37-0.14c1.03-0.57,1.89-1.38,2.56-2.35c0.66-0.95,1-2.04,1.12-3.18c0.02-0.21-0.05-0.45-0.16-0.66
			c-1.04-11.92-2.09-23.84-3.13-35.76c0.11,0.01,0.21,0.03,0.33,0.03c24.12,0.18,48.25,0.18,72.37,0.13
			c24.27-0.06,48.54-0.17,72.81-0.22c13.75-0.03,27.49-0.04,41.24,0c1.01,0,1.7-0.49,2.08-1.17c0.37-0.52,0.54-1.2,0.33-2
			c-3.21-12.5-6.44-24.99-9.72-37.47c12.4-1.74,24.83-3.25,37.2-5.22V444H4z"/>
		<path class="st1" d="M549.33,199.87c-0.71-1.26-2.66-0.13-1.94,1.14c8.57,15.13,17.05,30.31,26.02,45.2
			c0.75,1.24,2.69,0.11,1.94-1.14C566.38,230.18,557.9,215,549.33,199.87z"/>
		<path class="st1" d="M600.77,241.01c-0.12-0.36-0.34-0.71-0.69-0.9c-0.38-0.2-0.73-0.22-1.16-0.15c-1.78,0.28-3.57,0.55-5.35,0.83
			c-0.35,0.05-0.73,0.4-0.9,0.69c-0.19,0.32-0.27,0.8-0.15,1.16c0.12,0.36,0.34,0.71,0.69,0.9c0.38,0.2,0.73,0.22,1.16,0.15
			c1.78-0.28,3.57-0.55,5.35-0.83c0.35-0.05,0.73-0.4,0.9-0.69C600.81,241.85,600.89,241.37,600.77,241.01z"/>
		<path class="st1" d="M66.47,260.96c-0.02,0.12-0.03,0.23-0.03,0.34c0.02,0.52,0.19,1.05,0.59,1.41c0.13,0.1,0.27,0.21,0.4,0.31
			c0.31,0.18,0.65,0.27,1.01,0.27c2.05,0.27,4.1-0.12,6-0.9c0.08,0.14,0.17,0.26,0.28,0.36c0.38,0.35,0.88,0.61,1.41,0.59
			c0.51-0.02,1.07-0.19,1.41-0.59c1.53-1.79,3.06-3.58,4.59-5.37c0.35-0.41,0.59-0.86,0.59-1.41c0-0.49-0.22-1.08-0.59-1.41
			c-0.06-0.06-0.14-0.11-0.21-0.17c-0.06-1.07-0.88-1.97-2-1.97c-1.53,0-3.06,0-4.6,0c-0.51,0-1.05,0.22-1.41,0.59
			c-0.1,0.1-0.18,0.21-0.26,0.33c-0.86-0.22-1.76,0.1-2.25,0.9c-0.34,0.56-0.72,1.09-1.11,1.61c-0.97,1.21-2.07,2.3-3.29,3.25
			c-0.38,0.29-0.59,0.96-0.59,1.41C66.41,260.66,66.43,260.81,66.47,260.96z M77.71,256.42c-0.8,0.94-1.6,1.88-2.41,2.82
			c-0.26-0.31-0.59-0.56-0.99-0.65c-0.18-0.02-0.35-0.05-0.53-0.07c-0.23,0-0.44,0.05-0.64,0.12c0.6-0.73,1.16-1.5,1.66-2.3
			c0.17,0.05,0.34,0.08,0.53,0.08C76.12,256.42,76.92,256.42,77.71,256.42z"/>
		<path class="st1" d="M52.73,261.19c0.16,0.48,0.46,0.95,0.92,1.2c0.5,0.27,0.98,0.29,1.54,0.2c1.92-0.31,3.85-0.62,5.77-0.93
			c0.85,0.21,1.76-0.1,2.23-0.9c1.05-1.77,2.1-3.54,3.15-5.31c0.11-0.19,0.18-0.4,0.22-0.61c0-0.01,0.01-0.03,0.01-0.04
			c0.02-0.09,0.02-0.19,0.02-0.29c0-0.03,0.01-0.05,0.01-0.08c0-0.01,0-0.02,0-0.03c-0.02-0.68-0.35-1.36-0.97-1.69
			c-0.04-0.02-0.07-0.03-0.11-0.05c-0.27-0.14-0.58-0.23-0.91-0.23c-1.53,0-3.06,0-4.6,0c-0.51,0-1.05,0.22-1.41,0.59
			c-0.1,0.1-0.19,0.22-0.27,0.35c-0.33-0.09-0.69-0.11-1.02,0c-0.16,0.07-0.32,0.13-0.48,0.2c-0.3,0.18-0.54,0.42-0.72,0.72
			c-0.99,1.3-1.99,2.59-2.98,3.89c-0.29,0.38-0.32,1.08-0.2,1.52C52.68,260.12,52.58,260.72,52.73,261.19z M61.11,256.42
			c-0.26,0.44-0.52,0.87-0.78,1.31c-0.04,0.01-0.07,0.01-0.11,0.01c-0.67,0.11-1.35,0.22-2.02,0.33c0.44-0.57,0.88-1.15,1.32-1.72
			c0.16,0.04,0.32,0.07,0.49,0.07C60.38,256.42,60.74,256.42,61.11,256.42z"/>
		<path class="st1" d="M29.07,259.05c0.01,0.02,0.02,0.04,0.03,0.06c0.04,0.09,0.08,0.18,0.14,0.26c0.08,0.12,0.16,0.22,0.26,0.32
			c0.12,0.11,0.24,0.2,0.37,0.27c0,0,0.01,0.01,0.01,0.01c0.01,0.01,0.03,0.01,0.04,0.02c0.14,0.08,0.28,0.13,0.42,0.18
			c0.02,0,0.03,0.01,0.05,0.01c0.19,0.05,0.38,0.08,0.58,0.07c1.36,0.14,2.72-0.05,4.01-0.47c0.04,0.03,0.07,0.06,0.11,0.08
			c0.46,0.25,1.03,0.37,1.54,0.2c0.52-0.17,0.87-0.48,1.2-0.92c1.3-1.77,2.6-3.54,3.9-5.31c0.29-0.39,0.33-1.09,0.2-1.54
			c-0.13-0.46-0.49-0.97-0.92-1.2c-0.46-0.25-1.03-0.37-1.54-0.2c-0.41,0.13-0.71,0.35-0.97,0.65c-0.03-0.04-0.06-0.08-0.1-0.11
			c-0.84-0.77-1.99-0.75-2.83,0c-1.91,1.71-3.82,3.42-5.73,5.13c-0.13,0.08-0.26,0.18-0.36,0.27c-0.35,0.35-0.61,0.92-0.59,1.41
			C28.91,258.52,28.96,258.79,29.07,259.05z"/>
		<path class="st1" d="M74.47,203.73c0.22-0.24,0.4-0.52,0.47-0.82c0.12-0.51,0.09-1.09-0.2-1.54c-0.3-0.47-0.69-0.71-1.2-0.92
			c-2.54-1.06-5.07-2.13-7.61-3.19c-0.36-0.15-0.87-0.07-1.27,0.08c-0.05,0.02-0.09,0.04-0.14,0.06c-0.38-0.16-0.8-0.2-1.22-0.05
			c-2.29,0.8-4.57,1.61-6.86,2.41c-0.93,0.33-1.64,1.27-1.43,2.27c-0.15,0.04-0.29,0.1-0.42,0.18c-0.47,0.3-0.71,0.69-0.92,1.2
			c-0.82,2.02-1.64,4.04-2.45,6.07c-0.18,0.45-0.03,1.14,0.2,1.54c0.13,0.22,0.33,0.43,0.55,0.6c-0.07,0.17-0.12,0.34-0.14,0.51
			c-0.13-0.3-0.34-0.58-0.59-0.79c-1.47-2.11-3.47-3.86-5.83-4.9c-0.38-0.17-0.74-0.27-1.16-0.15c-0.35,0.1-0.73,0.37-0.9,0.69
			c-0.1,0.18-0.15,0.4-0.17,0.62c-1.97,0.03-3.94,0.33-5.83,0.88c-0.03,0.01-0.05,0.02-0.08,0.03c-0.09-0.02-0.18-0.02-0.27-0.02
			c-0.81,0.04-1.5,0.66-1.5,1.5c0,1.28,0,2.55,0,3.83c0,0.26,0.08,0.52,0.22,0.75c-0.31,0.47-0.4,1.08-0.07,1.58
			c0.85,1.27,1.71,2.54,2.56,3.81c-0.01,0.35,0.05,0.68,0.24,1.01c0.24,0.41,0.72,0.81,1.19,0.92c0.06,0.42,0.23,0.84,0.55,1.13
			c0.36,0.33,0.9,0.65,1.41,0.59c2.29-0.3,4.59-0.59,6.88-0.89c0.55-0.07,1-0.18,1.41-0.59c0.26-0.26,0.46-0.64,0.55-1.02
			c0.88-0.22,1.57-0.97,1.57-1.94c0-1.79,0-3.57,0-5.36c0-0.16-0.03-0.31-0.07-0.46c0.01-0.04,0.02-0.08,0.02-0.12
			c0.16,0.35,0.43,0.66,0.79,0.89c2.04,1.32,4.07,2.64,6.11,3.96c0.03,0.29,0.11,0.59,0.25,0.82c0.28,0.43,0.69,0.8,1.2,0.92
			c0.56,0.13,1.02,0.02,1.54-0.2c-0.59,0.25,0.1-0.03,0.25-0.08c0.21-0.07,0.42-0.14,0.63-0.19c0.34-0.09,0.68-0.15,1.03-0.21
			c0.74-0.08,1.48-0.08,2.22,0c0.39,0.07,0.78,0.14,1.17,0.25c0.9,0.26,1.96-0.23,2.35-1.08c0.18-0.14,0.34-0.31,0.46-0.52
			c1.53-2.56,3.06-5.11,4.59-7.67c0.24-0.4,0.3-0.89,0.22-1.35c0.02-0.03,0.05-0.06,0.07-0.09c0.26-0.5,0.3-0.98,0.2-1.54
			C74.87,206,74.67,204.87,74.47,203.73z M62.55,204.66c-0.16-0.1-0.34-0.2-0.54-0.26c-1.13-0.39-2.25-0.78-3.38-1.17
			c1.31-0.46,2.63-0.92,3.94-1.39C62.47,202.77,62.46,203.72,62.55,204.66z M56.62,206.75c1.44,0.5,2.89,1,4.33,1.5
			c0.02,0.01,0.04,0.01,0.06,0.01c-0.65,1.73-1.3,3.45-1.94,5.18c-1.37-0.89-2.73-1.77-4.1-2.66c0.04-0.08,0.08-0.16,0.11-0.24
			C55.6,209.28,56.11,208.01,56.62,206.75z M66.57,204.8c-0.01-0.03-0.01-0.06-0.01-0.09c-0.09-0.82-0.09-1.64-0.01-2.46
			c0.02-0.13,0.05-0.27,0.08-0.4c1.25,0.53,2.51,1.05,3.76,1.58c0.01,0.06,0.01,0.12,0.02,0.19c0.02,0.1,0.04,0.2,0.05,0.31
			C69.16,204.22,67.86,204.51,66.57,204.8z M38.27,214.65c0.11-0.16,0.19-0.34,0.23-0.54c0.18,0.09,0.35,0.18,0.53,0.26
			c-0.06,0.38-0.11,0.76-0.17,1.15C38.66,215.23,38.46,214.94,38.27,214.65z M42.86,215.6c1.73-0.17,3.46-0.33,5.19-0.5
			c0,1.23,0,2.45,0,3.68c-1.92,0.25-3.85,0.5-5.77,0.75C42.47,218.22,42.66,216.91,42.86,215.6z M46.21,210.76
			c0.16,0.02,0.31-0.01,0.46-0.05c0.18,0.15,0.33,0.32,0.5,0.48c-1.6,0.15-3.2,0.31-4.8,0.46c-0.03,0-0.06,0.01-0.09,0.01
			c-0.12-0.13-0.26-0.24-0.42-0.33c-0.36-0.18-0.71-0.36-1.07-0.54c0.42-0.06,0.83-0.11,1.24-0.15
			C43.43,210.54,44.83,210.59,46.21,210.76z M64.2,215.09c-0.55,0.04-1.07,0.12-1.59,0.22c0.03-0.07,0.06-0.13,0.09-0.2
			c0.63-1.67,1.25-3.34,1.88-5.01c0.71,1.06,1.42,2.13,2.13,3.19c0.22,0.33,0.5,0.61,0.85,0.78c-0.23,0.38-0.46,0.77-0.69,1.15
			C65.99,215.09,65.09,215.03,64.2,215.09z M69.67,210.55c-0.45-0.68-0.91-1.36-1.36-2.04c0.95-0.21,1.9-0.43,2.85-0.64
			c0.01,0.06,0.02,0.11,0.03,0.17c-0.02,0.03-0.04,0.05-0.06,0.08C70.64,208.92,70.16,209.74,69.67,210.55z"/>
	</g>
</g>
</svg>
