<?xml version="1.0" encoding="utf-8"?>
<!-- Generator: Adobe Illustrator 25.2.0, SVG Export Plug-In . SVG Version: 6.00 Build 0)  -->
<svg version="1.1" id="Layer_1" xmlns="http://www.w3.org/2000/svg" xmlns:xlink="http://www.w3.org/1999/xlink" x="0px" y="0px"
	 viewBox="0 0 430 496.5" style="enable-background:new 0 0 430 496.5;" xml:space="preserve">
<style type="text/css">
	.st0{fill:currentColor;}
</style>
<path class="st0" d="M215,0L0,124.1v248.3l215,124.1l215-124.1V124.1L215,0z M412.9,134v11.1l-50.9,197L223.2,101.7l184.9,29.5
	L412.9,134z M21.9,131.3l184.9-29.5L68,342.1l-50.9-197V134L21.9,131.3z M215,104.7L356.1,349H73.9L215,104.7z M210.7,92.4
	l-168,26.9l168.1-97v70.1H210.7z M61.3,350.1l-44.1,10.8V179.4L61.3,350.1z M65.3,358l100.8,90.5L26,367.6L65.3,358z M77.7,357.6
	h274.6L227.9,469.3l-12.9,7.5l-12.9-7.5L77.7,357.6z M364.7,358l39.3,9.6l-140.2,80.9L364.7,358z M368.7,350.1l44.1-170.8v181.6
	L368.7,350.1z M219.3,92.4V22.3l168.1,97L219.3,92.4z"/>
</svg>
