<?xml version="1.0" encoding="utf-8"?>
<!-- Generator: Adobe Illustrator 25.2.0, SVG Export Plug-In . SVG Version: 6.00 Build 0)  -->
<svg version="1.1" id="Layer_1" xmlns="http://www.w3.org/2000/svg" xmlns:xlink="http://www.w3.org/1999/xlink" x="0px" y="0px"
	 viewBox="0 0 200 200" style="enable-background:new 0 0 200 200;" xml:space="preserve">
<style type="text/css">
	.st0{fill:url(#SVGID_1_);}
</style>
<linearGradient id="SVGID_1_" gradientUnits="userSpaceOnUse" x1="12.71" y1="100" x2="187.29" y2="100">
	<stop  offset="0" style="stop-color:#F9D420"/>
	<stop  offset="1" style="stop-color:#F0972A"/>
</linearGradient>
<path class="st0" d="M142.6,30.2l12.1,9.3c-17.8,23.2-26.8,50.9-28.7,65.2c-9.3-3.5-15.7-4.3-20.1-4.2V39.1h16.7L100,0L77.4,39.1
	h16.7v61.4c-4.4-0.2-10.8,0.6-20.1,4.2c-1.9-14.3-10.8-42-28.7-65.2l12.1-9.3L12.7,14.9l15.6,19.5l0,0l7.5,9.4
	c20.5,29.2,24.3,70.6,24.3,71.1l0.5,9l8.2-3.8c13.1-6.1,21.1-6.9,25.2-6.7V200h11.8v-86.7c4.1-0.2,12.1,0.6,25.2,6.7l8.2,3.8l0.5-9
	c0-0.5,3.9-41.9,24.3-71.1l7.6-9.4l0,0l15.6-19.5L142.6,30.2z"/>
</svg>
