<?xml version="1.0" encoding="utf-8"?>
<!-- Generator: Adobe Illustrator 25.2.0, SVG Export Plug-In . SVG Version: 6.00 Build 0)  -->
<svg version="1.1" id="Layer_1" xmlns="http://www.w3.org/2000/svg" xmlns:xlink="http://www.w3.org/1999/xlink" x="0px" y="0px"
	 viewBox="0 0 200 200" style="enable-background:new 0 0 200 200;" xml:space="preserve">
<style type="text/css">
	.st0{fill:url(#SVGID_1_);}
	.st1{fill:url(#SVGID_2_);}
</style>
<g>
	<linearGradient id="SVGID_1_" gradientUnits="userSpaceOnUse" x1="0" y1="100" x2="200.01" y2="100">
		<stop  offset="0" style="stop-color:#F3A429"/>
		<stop  offset="1" style="stop-color:#E9672B"/>
	</linearGradient>
	<path class="st0" d="M38.8,8.4C21.3,12.2,0,0,0,0s12.2,21.3,8.4,38.8c9.2-2,19.3,0.4,27,3.1l1.3,1.3l-1.5,1.5c-2,2-2,5.2,0,7.2
		s5.2,2,7.2,0l1.5-1.5l128.3,128.3c-0.5,3.8,1.2,8.4,4.9,12c5.4,5.4,22.9,9.2,22.9,9.2s-3.8-17.6-9.2-22.9c-3.7-3.7-8.3-5.4-12-4.9
		L50.5,43.9l1.5-1.5c2-2,2-5.2,0-7.2s-5.2-2-7.2,0l-1.5,1.5l-1.3-1.3C39.2,27.7,36.8,17.5,38.8,8.4z"/>
	<linearGradient id="SVGID_2_" gradientUnits="userSpaceOnUse" x1="0" y1="100" x2="200" y2="100">
		<stop  offset="0" style="stop-color:#F3A429"/>
		<stop  offset="1" style="stop-color:#E9672B"/>
	</linearGradient>
	<path class="st1" d="M161.2,8.4C178.7,12.2,200,0,200,0s-12.2,21.3-8.4,38.8c-9.1-2-19.3,0.4-27,3.1l-1.3,1.3l1.4,1.5
		c2,2,2,5.2,0,7.2s-5.2,2-7.2,0l-1.4-1.5L27.8,178.8c0.5,3.8-1.2,8.4-4.9,12C17.6,196.2,0,200,0,200s3.8-17.6,9.2-22.9
		c3.7-3.7,8.3-5.4,12-4.9L149.5,43.9l-1.4-1.5c-2-2-2-5.2,0-7.2s5.2-2,7.2,0l1.4,1.5l1.3-1.3C160.8,27.7,163.2,17.5,161.2,8.4z"/>
</g>
</svg>
