<?xml version="1.0" encoding="utf-8"?>
<!-- Generator: Adobe Illustrator 25.2.0, SVG Export Plug-In . SVG Version: 6.00 Build 0)  -->
<svg version="1.1" id="Layer_1" xmlns="http://www.w3.org/2000/svg" xmlns:xlink="http://www.w3.org/1999/xlink" x="0px" y="0px"
	 viewBox="0 0 200 200" style="enable-background:new 0 0 200 200;" xml:space="preserve">
<style type="text/css">
	.st0{fill:url(#SVGID_1_);}
	.st1{fill:url(#SVGID_2_);}
</style>
<g>
	<linearGradient id="SVGID_1_" gradientUnits="userSpaceOnUse" x1="0" y1="100" x2="200" y2="100">
		<stop  offset="0" style="stop-color:#F9D420"/>
		<stop  offset="1" style="stop-color:#F0972A"/>
	</linearGradient>
	<path class="st0" d="M142.1,69.9c11.1,11.3,39.6,36.3,57.9,16.4c0,0-18,9-52.5-25.3c0,0,0,0,0-0.1c11.5,4.9,43.7,17.3,45.5,5.8
		c0,0-5.7,2.6-43.8-12.9c10.8,0.4,31.2,0,32.8-9.6c0,0-13.7,4.8-36.7,3.2c8.9-3.1,23.9-9.2,21.6-15.4c0,0-14.1,8.1-25,12.5
		c6.5-5.3,18.6-16.6,12.8-21.1c0,0-0.1,4.9-18,19.3c4.1-5.3,11.1-15.4,8.3-20.5c0,0-5.4,11.3-15.7,21.5c-0.2,0.2-0.4,0.4-0.6,0.6
		c-0.1,0-0.1,0.1-0.1,0.1l0.1,0c-0.5,0.8-0.8,1.6-0.8,2.6c0.2,2.3,2.1,4,4.4,3.8c1-0.1,1.9-0.1,2.7,0c2.8,0.2,4.3,2.3,4.8,4
		c0.3,1,0.6,3.4-1.7,5.1c-3.3,2.4-9.9,2.6-17.5,0.4c-2-0.6-4.2,0.1-5.5,1.7c-1.3,1.6-1.6,3.9-0.7,5.8c0,0.1,0.1,0.1,0.1,0.2h-4.4
		V50.7c0-5.5-4.5-10-9.9-10h-0.5c-2.1,0-4,0.7-5.7,1.8c-3.2-5.8-10.5-1.8-10.5-1.8s8.5,0,6.2,8.1c-3.4,3.4-7.5-1.3-7.5-1.3
		c0,7.2,7.5,9.1,7.5,9.1v11.6h-4.4c0-0.1,0.1-0.1,0.1-0.2c0.9-1.9,0.7-4.2-0.7-5.8c-1.3-1.6-3.5-2.3-5.5-1.7
		c-7.6,2.1-14.2,2-17.5-0.4c-2.4-1.7-2-4.1-1.7-5.1c0.5-1.7,2-3.8,4.8-4c0.8-0.1,1.7-0.1,2.7,0c2.3,0.2,4.3-1.6,4.4-3.8
		c0.1-1-0.3-1.9-0.8-2.6l0.1,0c-0.1,0-0.1-0.1-0.1-0.1c-0.2-0.2-0.4-0.4-0.6-0.6C60.2,33.5,54.8,22.2,54.8,22.2
		C52,27.3,59,37.4,63.1,42.7c-17.8-14.4-18-19.3-18-19.3c-5.8,4.5,6.3,15.7,12.8,21.1C47,40.1,32.9,32,32.9,32
		c-2.2,6.2,12.7,12.4,21.7,15.4c-23,1.6-36.7-3.2-36.7-3.2c1.6,9.6,22,10.1,32.8,9.6C12.6,69.3,6.9,66.8,6.9,66.8
		c1.8,11.5,34-0.9,45.5-5.8c0,0,0,0,0,0.1C18,95.3,0,86.3,0,86.3c18.4,19.9,46.8-5.1,57.9-16.4C29,109,15.1,102.2,15.1,102.2
		c18.1,17.5,44-15.2,54-29.5c-21,40.1-36.5,42.6-36.5,42.6c13.9,12,31.2-12.8,40.4-29.2c-4.9,14-12.8,33.9-18.2,34.3
		c0,0,12.5,4.4,26.3-29.3v4.5c0,2.2,0.5,4.4,1.3,6.4c-1.1,5.8-3,11.1-6.4,13.7c0,0,5.5-0.9,9.9-8.4c0.4,0.5,0.9,0.9,1.4,1.3
		c-2.4,5.9-5,13.5-5.2,18.4L68,134.8l-4.6-6.1c-1-1.3-2.8-1.5-4.1-0.6c-1.3,1-1.5,2.8-0.5,4.1l1.5,2l-5.5-1
		c-1.6-0.3-3.1,0.8-3.4,2.3s0.8,3.1,2.3,3.4l6.8,1.3l-4.5,3.7c-1.2,1-1.4,2.9-0.4,4.1c0.6,0.7,1.4,1.1,2.3,1.1
		c0.7,0,1.3-0.2,1.9-0.7l6.2-5.1l1.6,4c0.4,1.2,1.6,1.9,2.7,1.9c0.3,0,0.7-0.1,1.1-0.2c1.5-0.6,2.2-2.3,1.7-3.8l-2.1-5.4l18.6-10.2
		c1.1-0.6,1.6-1.8,1.5-2.9c1.4-1.9,3-4.5,4.7-8.2l1.3,2.6v7.7c-4.5,1.3-12.5,4.4-11.2,10.4c0,0,3.2-4.2,11.2-5.1v6.4
		c-5.8-0.9-18.8-1.2-21,12.3c-2.2,13.3-15,9.7-13.4,1c0,0-7.5,13.1,7.6,14c0,0,9.4-0.6,12.7-12.5c1.2-4.3,5.4-7.1,9.7-6.7
		c-5,1.7-10,5.8-5.7,15.9c0,0,2.2,6.3-2.8,6.3c12.6,0.7,5.1-13.9,12.9-15.1l0,0c-1.4,2.4-2.9,5.6-2.9,9.2c0,7.2,5.8,13.1,5.8,13.1
		s5.8-5.8,5.8-13.1c0-3.6-1.4-6.8-2.9-9.2l0,0c7.8,1.2,0.3,15.8,12.9,15.1c-4.9,0-2.8-6.3-2.8-6.3c4.3-10.1-0.7-14.2-5.7-15.9
		c4.3-0.4,8.5,2.4,9.7,6.7c3.3,11.9,12.7,12.5,12.7,12.5c15.1-0.9,7.6-14,7.6-14c1.5,8.7-11.2,12.2-13.4-1
		c-2.3-13.5-15.2-13.1-21-12.3V134c8,0.9,11.2,5.1,11.2,5.1c1.3-6-6.7-9.1-11.2-10.4V121l1.3-2.6c1.7,3.7,3.3,6.4,4.7,8.2
		c-0.1,1.2,0.4,2.3,1.5,2.9l18.6,10.2l-2.1,5.4c-0.6,1.5,0.2,3.2,1.7,3.8c0.4,0.1,0.7,0.2,1.1,0.2c1.2,0,2.3-0.7,2.7-1.9l1.6-4
		l6.1,5.1c0.5,0.4,1.2,0.7,1.9,0.7c0.8,0,1.7-0.4,2.3-1.1c1-1.2,0.9-3.1-0.4-4.1l-4.5-3.7l6.8-1.3c1.6-0.3,2.6-1.8,2.3-3.4
		c-0.3-1.6-1.8-2.6-3.4-2.3l-5.5,1l1.5-2c1-1.3,0.7-3.1-0.6-4.1c-1.3-1-3.1-0.7-4.1,0.6l-4.6,6.1l-14.1-7.8
		c-0.2-4.9-2.8-12.5-5.2-18.4c0.5-0.4,1-0.8,1.4-1.3c4.3,7.5,9.9,8.4,9.9,8.4c-3.4-2.6-5.3-7.9-6.4-13.7c0.8-2,1.3-4.2,1.3-6.4v-4.5
		c13.9,33.8,26.4,29.3,26.4,29.3c-5.4-0.4-13.3-20.3-18.2-34.3c9.3,16.3,26.5,41.2,40.4,29.2c0,0-15.5-2.6-36.5-42.6
		c10,14.3,35.8,47.1,54,29.5C184.9,102.2,171,109,142.1,69.9z M111.9,102.9c-0.3,0.5-0.7,0.9-1.1,1.3c-0.7,0.8-1.6,1.4-2.5,1.9
		l-8.3,5l-8.3-5c-0.9-0.6-1.8-1.2-2.5-1.9c-0.4-0.4-0.8-0.9-1.1-1.3c-1.5-2.1-2.4-4.7-2.4-7.3V84v-4v-4.4v-2.9h4.2h20.4h4.2v2.9v4.4
		v4v11.6C114.4,98.2,113.5,100.8,111.9,102.9z"/>
	<linearGradient id="SVGID_2_" gradientUnits="userSpaceOnUse" x1="88.36" y1="91.68" x2="111.62" y2="91.68">
		<stop  offset="0" style="stop-color:#F9D420"/>
		<stop  offset="1" style="stop-color:#F0972A"/>
	</linearGradient>
	<path class="st1" d="M89.8,75.4h-1.4v0.6v4v4.3v11.4c0,1.3,0.3,2.6,0.8,3.7c0.3,0.8,0.7,1.5,1.2,2.1c0.7,0.9,1.6,1.8,2.6,2.4
		l6.9,4.1l6.9-4.1c1.1-0.6,1.9-1.5,2.6-2.4c0.5-0.7,0.9-1.3,1.2-2.1c0.5-1.2,0.8-2.4,0.8-3.7V84.2v-4.3v-4v-0.6h-1.4L89.8,75.4
		L89.8,75.4z"/>
</g>
</svg>
