<?xml version="1.0" encoding="utf-8"?>
<!-- Generator: Adobe Illustrator 25.2.0, SVG Export Plug-In . SVG Version: 6.00 Build 0)  -->
<svg version="1.1" id="Layer_1" xmlns="http://www.w3.org/2000/svg" xmlns:xlink="http://www.w3.org/1999/xlink" x="0px" y="0px"
	 viewBox="0 0 200 200" style="enable-background:new 0 0 200 200;" xml:space="preserve">
<style type="text/css">
	.st0{fill:url(#SVGID_1_);}
	.st1{fill:url(#SVGID_2_);}
	.st2{fill:url(#SVGID_3_);}
	.st3{fill:url(#SVGID_4_);}
	.st4{fill:url(#SVGID_5_);}
	.st5{fill:url(#SVGID_6_);}
	.st6{fill:url(#SVGID_7_);}
	.st7{fill:url(#SVGID_8_);}
	.st8{fill:url(#SVGID_9_);}
	.st9{fill:url(#SVGID_10_);}
	.st10{fill:url(#SVGID_11_);}
	.st11{fill:url(#SVGID_12_);}
</style>
<g>
	<linearGradient id="SVGID_1_" gradientUnits="userSpaceOnUse" x1="59.9" y1="113.955" x2="140.09" y2="113.955">
		<stop  offset="0" style="stop-color:#D1008C"/>
		<stop  offset="1" style="stop-color:#9B118F"/>
	</linearGradient>
	<path class="st0" d="M125.8,102.1c-0.2-1.2-0.2-2.3-0.3-3.4l-24.4,15.5c-0.3,0.2-0.8,0.3-1.2,0.3c0,0,0,0,0,0
		c-0.4,0-0.8-0.1-1.2-0.3L74.5,98.8c0,1.1-0.1,2.2-0.3,3.3c-1,6.5-6.6,12-14.3,14.4l8.4,9.8l2.5,2.9H100v-2.9h31.6l8.4-9.8
		C132.4,114.1,126.8,108.6,125.8,102.1z"/>
	<linearGradient id="SVGID_2_" gradientUnits="userSpaceOnUse" x1="136.27" y1="144.29" x2="197.55" y2="144.29">
		<stop  offset="0" style="stop-color:#D1008C"/>
		<stop  offset="1" style="stop-color:#9B118F"/>
	</linearGradient>
	<polygon class="st1" points="146.5,118 136.3,129.8 136.3,170.6 197.6,153 197.6,128.7 	"/>
	<linearGradient id="SVGID_3_" gradientUnits="userSpaceOnUse" x1="2.45" y1="144.705" x2="66.63" y2="144.705">
		<stop  offset="0" style="stop-color:#D1008C"/>
		<stop  offset="1" style="stop-color:#9B118F"/>
	</linearGradient>
	<polygon class="st2" points="53.5,118 2.5,128.7 2.5,153 63.7,170.6 66.6,171.4 66.6,133.1 63.7,129.8 	"/>
	<linearGradient id="SVGID_4_" gradientUnits="userSpaceOnUse" x1="51.76" y1="27.765" x2="93.04" y2="27.765">
		<stop  offset="0" style="stop-color:#D1008C"/>
		<stop  offset="1" style="stop-color:#9B118F"/>
	</linearGradient>
	<path class="st3" d="M57.6,49.4l34.7-22.1l0.7-0.5V8.4V2.6c0,0,0-0.1,0-0.2c-0.2,0-0.5,0.1-0.7,0.1c-23,3.7-40.5,23.6-40.5,47.6
		c0,1,0.1,1.9,0.2,2.9L57.6,49.4z"/>
	<linearGradient id="SVGID_5_" gradientUnits="userSpaceOnUse" x1="106.96" y1="27.785" x2="148.25" y2="27.785">
		<stop  offset="0" style="stop-color:#D1008C"/>
		<stop  offset="1" style="stop-color:#9B118F"/>
	</linearGradient>
	<path class="st4" d="M107,8.4v18.5l0.7,0.5l34.7,22.1l5.7,3.6c0.1-1,0.1-1.9,0.1-2.9c0-24-17.6-43.9-40.6-47.6
		c-0.2,0-0.5-0.1-0.7-0.1c0,0,0,0.1,0,0.2L107,8.4L107,8.4z"/>
	<linearGradient id="SVGID_6_" gradientUnits="userSpaceOnUse" x1="97.37" y1="12.05" x2="102.62" y2="12.05">
		<stop  offset="0" style="stop-color:#D1008C"/>
		<stop  offset="1" style="stop-color:#9B118F"/>
	</linearGradient>
	<path class="st5" d="M98.8,23.2c0.7-0.5,1.6-0.5,2.3,0l0.8,0.5l0.7,0.5V7.8V2.6c0-0.2-0.1-0.4-0.1-0.6C102.2,0.9,101.2,0,100,0
		s-2.2,0.9-2.5,2c-0.1,0.2-0.1,0.4-0.1,0.6v5.2v16.2l0.7-0.5L98.8,23.2z"/>
	<linearGradient id="SVGID_7_" gradientUnits="userSpaceOnUse" x1="49.5409" y1="68.865" x2="68.26" y2="68.865">
		<stop  offset="0" style="stop-color:#D1008C"/>
		<stop  offset="1" style="stop-color:#9B118F"/>
	</linearGradient>
	<path class="st6" d="M50.9,78.6l5.7,3.6l11.7,7.4c-0.6-1.2-1.2-2.6-1.8-4.3c-0.1-0.2-0.1-0.5-0.2-0.7c-0.7-2-1.3-4.4-1.8-6.9
		c-0.2-1.4-0.5-2.9-0.7-4.4c0-0.4-0.1-0.8-0.1-1.2c-0.1-1.1-0.1-2.2-0.2-3.3c-0.1-3.1,0.2-6.2,0.6-9c0.4-2.9,1.1-5.5,1.9-7.7
		c0.6-1.6,1.2-2.8,1.7-3.9l-10,6.4l-5.3,3.4l-1.7,1.1c-0.5,1.2-1.4,4.8-1.2,10.6C49.7,72.1,50.1,75.1,50.9,78.6z"/>
	<linearGradient id="SVGID_8_" gradientUnits="userSpaceOnUse" x1="69.0428" y1="68.62" x2="84.9" y2="68.62">
		<stop  offset="0" style="stop-color:#D1008C"/>
		<stop  offset="1" style="stop-color:#9B118F"/>
	</linearGradient>
	<path class="st7" d="M79.2,55.8c0.7-4.1,1.7-7.8,2.7-11c1-3.2,2.1-5.7,3-7.5c0,0,0-0.1,0.1-0.1L69.5,47c0,0.1,0,0.1,0,0.2
		c0,0.8-0.1,1.7-0.1,2.8c0,0.8-0.1,1.6-0.1,2.6c0,1.1-0.1,2.3-0.1,3.5c0,1.2,0,2.6-0.1,3.9c-0.1,1.4,0.1,2.8,0,4.2
		c0,1.4,0.1,2.9,0.1,4.3c0.1,3.8,0.2,7.6,0.3,11c0,1.2,0.1,2.4,0.1,3.5c0,0,0,0,0,0c0,0.5,0,1.1,0.1,1.6c0,1.1,0,2.1,0.1,3
		c0,0.7,0,1.4,0,1.9c0,0.2,0,0.4,0,0.6c0,0.1,0,0.3,0,0.4l0.6,0.4l2.3,1.5l1.6,1l10.5,6.7c-0.4-0.8-1.1-1.8-1.6-3
		c-0.3-0.6-0.6-1.4-0.8-2.1c-0.3-0.7-0.6-1.4-0.9-2.2c-0.6-1.6-1-3.3-1.5-5.2c0,0,0-0.1,0-0.1c-0.4-1.4-0.6-2.9-0.9-4.4
		c-0.1-0.5-0.2-0.9-0.2-1.4c-0.4-2.1-0.5-4.2-0.7-6.4c-0.2-2.2-0.1-4.4-0.1-6.6c0.1-2.2,0.2-4.4,0.4-6.6
		C78.6,59.9,78.8,57.8,79.2,55.8z"/>
	<linearGradient id="SVGID_9_" gradientUnits="userSpaceOnUse" x1="111.23" y1="69.42" x2="150.0508" y2="69.42">
		<stop  offset="0" style="stop-color:#D1008C"/>
		<stop  offset="1" style="stop-color:#9B118F"/>
	</linearGradient>
	<path class="st8" d="M134.2,75.2c-0.1,0.4-0.1,0.8-0.1,1.3c-0.2,1.5-0.5,2.9-0.8,4.4c-0.5,2.2-1.1,4.1-1.8,5.9
		c-0.2,0.5-0.4,1.1-0.6,1.6c-0.2,0.5-0.4,0.9-0.6,1.3c-0.2,0.4-0.4,0.9-0.6,1.3l0.6-0.4l1.5-0.9l11.7-7.4l5.6-3.6
		c0.6-2.9,0.9-5.6,1-8c0.2-5.7-0.6-10-1-11.7l-1.5-1l-5.3-3.4l-10-6.4l-1.7-1.1l-15.4-9.8l-1.5-1l-0.2-0.1c0,0.1,0.1,0.2,0.1,0.3
		c0.2,0.5,0.6,1.2,1.1,2.3c0.8,1.8,1.7,4.4,2.6,7.6c0.9,3.2,1.7,7,2.2,11.1c0.3,2,0.4,4.2,0.6,6.3c0.1,2.2,0.1,4.4,0.1,6.6
		c-0.1,2.2-0.2,4.4-0.4,6.6c-0.3,2.1-0.5,4.2-0.9,6.2c0,0.1,0,0.1,0,0.2c-0.4,1.9-0.8,3.8-1.3,5.5c0,0.1-0.1,0.2-0.1,0.3
		c-0.6,1.8-1.1,3.6-1.7,5.1c-0.3,0.7-0.5,1.2-0.8,1.8c-0.4,0.8-0.8,1.7-1.1,2.4c0,0,0,0.1-0.1,0.1c-0.6,1.2-1.2,2.2-1.7,3
		c-0.3,0.5-0.5,0.8-0.8,1.2l2.4-1.6l1.7-1.1l10.4-6.7l1.6-1c0-0.8,0.1-1.7,0.2-2.7c0.1-0.7,0.1-1.3,0.1-2.1c0-0.1,0-0.1,0-0.2
		c0.1-1.1,0.2-2.2,0.3-3.4c0-0.3,0.1-0.6,0.1-0.9c0-0.4,0.1-0.9,0.1-1.3c0-0.6,0.1-1.1,0.1-1.7c0.2-2.7,0.4-5.6,0.6-8.5
		c0.1-1.4,0.2-2.9,0.3-4.3c0-1.4,0.2-2.8,0.2-4.2c0.1-2.7,0.1-5.3,0.2-7.5c0-2.2,0-4.1,0-5.4c0-1.3-0.1-2.1-0.1-2.1s0.5,0.6,1.1,1.8
		c0,0,0.1,0.1,0.1,0.1c0.6,1.2,1.4,2.9,2.1,5.1c0.7,2.2,1.3,4.9,1.6,7.8c0.3,2.9,0.4,6,0.2,9C134.4,73,134.3,74.1,134.2,75.2z"/>
	<linearGradient id="SVGID_10_" gradientUnits="userSpaceOnUse" x1="86.1046" y1="68.715" x2="99.3" y2="68.715">
		<stop  offset="0" style="stop-color:#D1008C"/>
		<stop  offset="1" style="stop-color:#9B118F"/>
	</linearGradient>
	<path class="st9" d="M86.6,36.1l-0.2,0.1c0,0.1,0,0.1,0,0.2c0,0.4,0,0.8,0.1,1.2c0.1,1.9,0.2,4.7,0.2,7.9c0,3.2,0,7-0.1,10.9
		c-0.1,4-0.2,8.2-0.3,12.4c0,2.1-0.1,4.2-0.1,6.2c0,2.1-0.1,4.1-0.1,6.1c0,0.7,0,1.3,0,2c0,1.3-0.1,2.5,0,3.7c0,1.2,0,2.3,0,3.4
		c0,0.6,0,1.2,0,1.7c0.1,1.6,0,3.1,0,4.4c0,0,0,0,0,0c0,0.8,0.1,1.5,0.1,2.2c0,0.4,0,0.9,0,1.2c0,0.5,0,1,0,1.4l2.5,1.6l0.7,0.4
		l0.2,0.2l9.6,6.1c-0.1-0.2-0.1-0.5-0.2-0.7c-0.2-1.2-0.5-2.8-0.8-4.6c-0.3-1.6-0.5-3.4-0.8-5.3c0-0.2,0-0.3-0.1-0.5
		c-0.2-1.8-0.5-3.8-0.7-5.8c-0.3-2.9-0.5-6.1-0.7-9.3c-0.2-4.7-0.4-9.5-0.4-14.4c0-10.9,0.7-21.9,1.8-30.1c0.4-3.1,0.8-5.7,1.2-7.9
		c0.1-0.3,0.1-0.5,0.1-0.7c0.1-0.5,0.2-0.9,0.2-1.3c0.1-0.3,0.1-0.5,0.2-0.7l-3.2,2L95,30.8l-8.3,5.3L86.6,36.1z"/>
	<linearGradient id="SVGID_11_" gradientUnits="userSpaceOnUse" x1="100.66" y1="68.71" x2="113.29" y2="68.71">
		<stop  offset="0" style="stop-color:#D1008C"/>
		<stop  offset="1" style="stop-color:#9B118F"/>
	</linearGradient>
	<path class="st10" d="M100.7,28c0.1,0.2,0.1,0.5,0.2,0.7c0.1,0.4,0.2,0.9,0.2,1.3c0.1,0.2,0.1,0.5,0.1,0.7c0.4,2.1,0.8,4.8,1.2,7.9
		c1.1,8.2,1.8,19.1,1.8,30.1c0,4.9-0.2,9.8-0.4,14.4c-0.2,3.3-0.4,6.4-0.7,9.3c-0.2,2.1-0.4,4-0.7,5.8c0,0.2,0,0.3-0.1,0.5
		c-0.2,1.9-0.5,3.7-0.8,5.3c-0.3,1.8-0.6,3.3-0.8,4.6c-0.1,0.3-0.1,0.5-0.2,0.7l0.1,0l9.6-6.1c0,0,0-0.1,0-0.1
		c0-0.5,0.1-1.3,0.1-2.2c0.1-0.9,0.2-2.1,0.3-3.4c0-0.1,0-0.3,0-0.4c0.1-1.2,0.1-2.6,0.2-4c0.1-0.6,0.1-1.4,0.1-2.1c0-1,0.1-2,0.2-3
		c0.1-1.6,0.1-3.3,0.2-5c0-0.2,0-0.5,0-0.7c0.2-1.9,0.1-4,0.2-6c0.1-2.1,0.1-4.2,0.2-6.2c0.1-4.2,0.2-8.4,0.3-12.4
		c0.1-4,0.2-7.7,0.4-10.9s0.4-6,0.6-7.9c0.1-1.6,0.3-2.6,0.3-2.9l-8.3-5.3l-1.1-0.7L100.7,28L100.7,28z"/>
	<linearGradient id="SVGID_12_" gradientUnits="userSpaceOnUse" x1="72.43" y1="167.48" x2="127.57" y2="167.48">
		<stop  offset="0" style="stop-color:#D1008C"/>
		<stop  offset="1" style="stop-color:#9B118F"/>
	</linearGradient>
	<path class="st11" d="M72.4,135v38.1v4.8c0,3.3,1.7,6.4,4.5,8.1l23.1,14l23.1-14.1c2.8-1.7,4.5-4.8,4.5-8.1v-4.8V135H100L72.4,135
		L72.4,135z M100,184.3c0,0-2.2-1.8-2.8-4.1c-0.1-0.4-0.2-0.9-0.2-1.3c0-0.2,0.1-0.5,0.1-0.8c-2.6,1.6-6,0.3-6,0.3
		c2.7,0,4.2-2.2,5-4.6c0.1-0.2,0.2-0.5,0.2-0.7h2.5h1.1h0.2h0.2h1.1h2.5c0.1,0.2,0.2,0.5,0.2,0.7c0.8,2.4,2.3,4.6,5,4.6
		c0,0-3.4,1.3-6-0.3c0,0.3,0.1,0.6,0.1,0.8c0,0.4-0.1,0.9-0.2,1.3C102.2,182.5,100,184.3,100,184.3z M95.9,171.6v-2h1h2h0.8h0.3h0.3
		h0.8h2h1v2h-0.7h-2.9H100h0h-0.1h-0.5h-2.9H95.9z M105.5,167.4c-0.7,0.2-1.3,0.4-1.9,0.7h-0.7h-2.2H100h-0.7h-2.2h-0.7
		c-0.6-0.3-1.3-0.5-1.9-0.7c-6.1-1.7-12.5,0.9-12.5,0.9c0-13.7,10-9.8,15.1-6.9c-1.2-1.6-2.2-3.6-2.2-5.9c0-5,5.1-9.1,5.1-9.1
		s5.1,4.1,5.1,9.1c0,2.3-1.1,4.3-2.2,5.9c5.1-2.9,15.1-6.9,15.1,6.9C118,168.3,111.6,165.7,105.5,167.4z"/>
</g>
</svg>
