<?xml version="1.0" encoding="utf-8"?>
<!-- Generator: Adobe Illustrator 25.2.0, SVG Export Plug-In . SVG Version: 6.00 Build 0)  -->
<svg version="1.1" id="Layer_1" xmlns="http://www.w3.org/2000/svg" xmlns:xlink="http://www.w3.org/1999/xlink" x="0px" y="0px"
	 viewBox="0 0 200 200" style="enable-background:new 0 0 200 200;" xml:space="preserve">
<style type="text/css">
	.st0{fill:url(#SVGID_1_);}
	.st1{fill:url(#SVGID_2_);}
	.st2{fill:url(#SVGID_3_);}
	.st3{fill:url(#SVGID_4_);}
</style>
<g>
	
		<linearGradient id="SVGID_1_" gradientUnits="userSpaceOnUse" x1="0" y1="125.7" x2="143.8" y2="125.7" gradientTransform="matrix(1 0 0 -1 0 202)">
		<stop  offset="0" style="stop-color:#2D74BE"/>
		<stop  offset="1" style="stop-color:#224DA3"/>
	</linearGradient>
	<polygon class="st0" points="143.8,146.5 26.9,27 0,0.1 5.4,41.8 138.4,152.5 	"/>
	
		<linearGradient id="SVGID_2_" gradientUnits="userSpaceOnUse" x1="150.91" y1="26.4" x2="199.9869" y2="26.4" gradientTransform="matrix(1 0 0 -1 0 202)">
		<stop  offset="0" style="stop-color:#2D74BE"/>
		<stop  offset="1" style="stop-color:#224DA3"/>
	</linearGradient>
	<path class="st1" d="M192.2,175.1c0,0-0.1,0-0.1,0.1c-0.4,0.2-0.7,0.4-1,0.8l0,0l-0.8,0.8L165.5,152l-1-1l-6.5,7.2l-0.1,0.1
		l-7.1,6.4l1,1l24.8,24.8l-0.8,0.8l0,0c-0.3,0.3-0.6,0.6-0.8,1c0,0,0,0.1-0.1,0.1c-1.3,2.4-0.4,5.5,2.2,6.6c0.1,0,0.2,0.1,0.2,0.1
		l0.1,0.1c0.3,0.1,0.7,0.2,1,0.3c0.4,0.1,0.7,0.2,1.1,0.3c0.4,0.1,0.8,0.1,1.2,0.2c0.4,0.1,0.7,0.1,1.1,0.2c0.4,0,0.9,0,1.3,0
		c0.4,0,0.7,0,1.1,0c0.4,0,0.9-0.1,1.3-0.1c0.4-0.1,0.7-0.1,1-0.1c0.4-0.1,0.9-0.2,1.3-0.4c0.3-0.1,0.7-0.2,1-0.3
		c0.4-0.2,0.9-0.4,1.3-0.6c0.3-0.1,0.6-0.2,0.9-0.4c0.5-0.2,0.9-0.6,1.4-0.9c0.2-0.1,0.5-0.3,0.7-0.4c0.7-0.5,1.3-1,1.9-1.6
		s1.1-1.2,1.6-1.9c0.2-0.2,0.3-0.5,0.4-0.7c0.3-0.4,0.6-0.9,0.9-1.4c0.1-0.3,0.2-0.6,0.4-0.9c0.2-0.4,0.4-0.9,0.6-1.3
		c0.1-0.3,0.2-0.6,0.3-1s0.3-0.9,0.4-1.3c0.1-0.4,0.1-0.7,0.1-1.1c0.1-0.4,0.1-0.9,0.1-1.3c0-0.4,0-0.7,0-1.1c0-0.4,0-0.9,0-1.3
		c0-0.4-0.1-0.7-0.2-1.1c-0.1-0.4-0.1-0.8-0.2-1.2c-0.1-0.4-0.2-0.7-0.3-1.1c-0.1-0.3-0.2-0.7-0.3-1c0,0,0-0.1-0.1-0.1
		c0-0.1-0.1-0.2-0.1-0.2C197.7,174.7,194.6,173.9,192.2,175.1z"/>
	
		<linearGradient id="SVGID_3_" gradientUnits="userSpaceOnUse" x1="0.1" y1="129.6" x2="153.5" y2="129.6" gradientTransform="matrix(1 0 0 -1 0 202)">
		<stop  offset="0" style="stop-color:#2D74BE"/>
		<stop  offset="1" style="stop-color:#224DA3"/>
	</linearGradient>
	<polygon class="st2" points="147.6,144.8 153.5,139.5 152.6,138.4 41.8,5.4 0.1,0 27,26.9 146.5,143.8 	"/>
	
		<linearGradient id="SVGID_4_" gradientUnits="userSpaceOnUse" x1="119.3694" y1="49.9603" x2="184.8406" y2="49.9603" gradientTransform="matrix(1 0 0 -1 0 202)">
		<stop  offset="0" style="stop-color:#2D74BE"/>
		<stop  offset="1" style="stop-color:#224DA3"/>
	</linearGradient>
	<path class="st3" d="M174.1,119.7c-0.6,0.2-1.1,0.4-1.6,0.7c-0.7,0.4-1.4,0.8-1.9,1.4c-0.4,0.4-0.8,0.8-1.1,1.3
		c-0.6,0.9-1,2-1.2,3.1s-0.2,2.2,0.1,3.4l-13.2,11.9l-5.7,5.1l-1.4,1.3l0,0l0,0l-1.3,1.4l-5.1,5.7l-11.9,13.2
		c-1.1-0.2-2.2-0.3-3.3-0.1c-1.1,0.2-2.1,0.6-3.1,1.3c-0.4,0.3-0.9,0.6-1.3,1.1c-0.6,0.6-1,1.2-1.4,1.9c-0.3,0.5-0.5,1.1-0.7,1.6
		c-0.8,2.9-0.2,6.1,2.1,8.3c2.2,2.2,5.5,2.9,8.3,2.1c0.6-0.2,1.1-0.4,1.6-0.7c0.7-0.4,1.3-0.8,1.9-1.4c0.4-0.4,0.8-0.8,1.1-1.3
		c0.6-0.9,1.1-2,1.3-3.1s0.2-2.2-0.1-3.4l13.2-11.9l7.2-6.5l6.5-7.2l11.9-13.2c1.1,0.2,2.2,0.3,3.4,0.1c1.1-0.2,2.1-0.6,3.1-1.3
		c0.4-0.3,0.9-0.6,1.3-1.1c0.6-0.6,1-1.2,1.4-1.9c0.3-0.5,0.5-1.1,0.7-1.6c0.8-2.9,0.2-6.1-2.1-8.3
		C180.1,119.5,176.9,118.9,174.1,119.7z"/>
</g>
</svg>
