<?xml version="1.0" encoding="utf-8"?>
<!-- Generator: Adobe Illustrator 25.2.0, SVG Export Plug-In . SVG Version: 6.00 Build 0)  -->
<svg version="1.1" id="Layer_1" xmlns="http://www.w3.org/2000/svg" xmlns:xlink="http://www.w3.org/1999/xlink" x="0px" y="0px"
	 viewBox="0 0 200 200" style="enable-background:new 0 0 200 200;" xml:space="preserve">
<style type="text/css">
	.st0{fill:url(#SVGID_1_);}
</style>
<linearGradient id="SVGID_1_" gradientUnits="userSpaceOnUse" x1="3.264897e-02" y1="102.1522" x2="199.9" y2="102.1522" gradientTransform="matrix(1 0 0 -1 0 202)">
	<stop  offset="0" style="stop-color:#2D74BE"/>
	<stop  offset="1" style="stop-color:#224DA3"/>
</linearGradient>
<path class="st0" d="M184.9,145.7c-4.6-4.7-10.6-7.8-16.5-10.8c5.6,0.4,11.4-1.1,16.2-4c2.3-1.4,4.8-3.3,6.4-5.5
	c0.3-0.4,3.3-7.1,1.3-6.5c-8,2.4-16.7-3.4-20-11.1s-2.5-16.4-0.8-24.6c8.6,4.8,19.4,5.4,28.4,1.5c-4.1-2.5-7.4-6.2-9.6-10.4
	c-1.9-3.7-2.8-7.7-4.6-11.4c-4.7-9.6-14.4-15.6-23.6-21c3.9-1,7.8-2.3,11.6-3.9c-9.9-6-15.4-17.4-25-23.9c-7.4-5-16.7-6.6-25.7-6.5
	c-12.2,0.2-24.9,3.9-32.9,13.2c-0.9,1-1.7,2.1-3,2.6c-1.1,0.4-2.3,0.2-3.5,0.1c-3.8-0.2-7.5,0.9-10.6,3c-2.9,2-4.3,5.9-7.1,7.6
	C57.5,39,42.2,27.7,36,34.6c-3.3,3.8-6.7,7.6-10.1,11.4c-1.8,2-3.6,4.2-3.7,6.8c-0.1,2.7,1.5,5.1,3.2,7.2c3.6,4.5,7.8,8.6,12.3,12.3
	c0.3-2.8,0.6-5.7,1-8.6c0.1-1.2,0.5-2.7,1.6-3.1c3.6-1.2,9.9-0.4,13.8-0.7c5.5-0.4,11.4-0.6,15.9,2.5c2.5,1.8,4.2,4.5,5.3,7.4
	c-2.4-0.8-4.3-1.3-5-1.4c-9.4-1.6-17.2,1.7-24.7,6.3c-2.2,1.4-4.4,2.9-6.6,4.4c-3.5,2.4-7,4.8-11,6.2c-6,2.1-12.4,1.1-16.8-3.6
	c-2.1-2.3-3.5-5.1-4.2-8.2c-0.9-4.1,0.5-9.6,4.7-10.2C4.4,63.7-1,71.9,0.2,79.1s7.6,12.9,14.6,15c7.8,2.4,18.2,1.2,24.5-4.4
	c3.9-3.5,8.2-5.9,12.6-8.6c9.2-5.7,16.2-4.2,24.8-2.1c0.1,4.8-0.9,10.1-4.8,12.6c-6,3.9-14.3-3.8-20.7-0.7c-2.9,1.4-4.5,4.6-4.7,7.8
	c-0.2,3.2,0.7,6.3,1.6,9.4c1.1,3.5,2.5,7.3,5.7,8.9s7.3,0.4,10.2-1.8c2.9-2.2,4.9-5.3,7.3-8.1c4.3-5,10.4-9.1,17-8.6
	c2.1,0.1,4.2,0.8,5.6,2.4c1.8,2.1,1.6,5.4,0.3,7.9s-3.6,4.3-5.9,5.9c-11.5,8.5-24.2,15.4-34.9,24.9s-19.3,22.6-19.1,36.9
	c9.3-9,21.2-15.4,34-18c0.1,8.9,0.8,17.9,2.1,26.7c6.4-8.3,15.1-14.9,24.8-18.8c0,8.2,1.2,16.4,3.7,24.3c4.8-6.9,9.1-14.2,12.8-21.9
	c6.5,13.2,20.4,22.5,35.1,23.3c-8.9-6.2-13.1-18.6-9.8-28.9c6.5,2,13.6,4.4,19.1,8.4c2.1,1.6,13.2,11.2,11.8,14.4
	c4.8-10.2,3-23.2-4.5-31.7c12.2,1.6,23.9,7.4,32.5,16.2C194.4,161.6,191.4,152.3,184.9,145.7z M92.1,44.3l-5.8,6.2
	c-0.7,0.7-1.9,0.6-2.4-0.2L80,43.9c-0.6-0.9,0.1-2.1,1.2-2.1H91C92.3,41.8,93,43.4,92.1,44.3z"/>
</svg>
