<?xml version="1.0" encoding="utf-8"?>
<!-- Generator: Adobe Illustrator 25.2.0, SVG Export Plug-In . SVG Version: 6.00 Build 0)  -->
<svg version="1.1" id="Layer_1" xmlns="http://www.w3.org/2000/svg" xmlns:xlink="http://www.w3.org/1999/xlink" x="0px" y="0px"
	 viewBox="0 0 200 200" style="enable-background:new 0 0 200 200;" xml:space="preserve">
<style type="text/css">
	.st0{fill:url(#SVGID_1_);}
	.st1{fill:url(#SVGID_2_);}
</style>
<g>
	<linearGradient id="SVGID_1_" gradientUnits="userSpaceOnUse" x1="0" y1="100.01" x2="200" y2="100.01">
		<stop  offset="0" style="stop-color:#2D74BE"/>
		<stop  offset="1" style="stop-color:#224DA3"/>
	</linearGradient>
	<path class="st0" d="M189.4,162.2V37.8V31V15.7h-22.1V31h-17V15.7h-22.1V31h-17V15.7H88.9V31h-17V15.7H49.8V31h-17V15.7H10.6V31
		v6.9v124.3H0v22.1h10.6h12.6v-22.1v-34.3c0-12,2.8-23.2,7.7-33.3c2.7-5.6,6-10.8,9.9-15.6c0.5-0.6,1-1.1,1.5-1.6
		c1.5-1.7,3-3.3,4.6-4.8c0.5-0.5,1-0.9,1.5-1.3c1.2-1.1,2.3-2.1,3.5-3.1c0.5-0.4,1-0.7,1.5-1.1c1.5-1.2,3-2.3,4.6-3.3
		c0.5-0.3,1-0.6,1.5-0.9c1.2-0.7,2.3-1.5,3.5-2.1c0.5-0.3,1-0.5,1.5-0.8c1.5-0.8,3.1-1.5,4.6-2.2c0.5-0.2,1-0.5,1.5-0.7
		c9.1-3.8,19-5.9,29.4-5.9s20.3,2.1,29.4,5.9c0.5,0.2,1,0.4,1.5,0.7c1.6,0.7,3.1,1.4,4.6,2.2c0.5,0.3,1,0.5,1.5,0.8
		c1.2,0.7,2.4,1.4,3.5,2.1c0.5,0.3,1,0.6,1.5,0.9c1.6,1,3.1,2.2,4.6,3.3c0.5,0.4,1,0.7,1.5,1.1c1.2,1,2.4,2,3.5,3.1
		c0.5,0.4,1,0.9,1.5,1.3c1.6,1.5,3.1,3.2,4.6,4.8c0.5,0.6,1,1.1,1.5,1.6c3.9,4.7,7.2,10,9.9,15.6c4.9,10.1,7.7,21.4,7.7,33.4v34.3
		v22.1h12.6H200v-22.1L189.4,162.2L189.4,162.2z"/>
	<linearGradient id="SVGID_2_" gradientUnits="userSpaceOnUse" x1="26.25" y1="119.245" x2="173.7" y2="119.245">
		<stop  offset="0" style="stop-color:#2D74BE"/>
		<stop  offset="1" style="stop-color:#224DA3"/>
	</linearGradient>
	<path class="st1" d="M173.1,118.9c0-0.2-0.1-0.3-0.1-0.5c0-0.3-0.1-0.7-0.1-1c-0.8-5.2-2-10.3-3.8-15.1c-2.4-6.6-5.8-12.7-9.9-18.3
		c-0.5-0.7-1-1.3-1.5-2c-1.5-1.8-3-3.6-4.6-5.3c-0.5-0.5-1-1-1.5-1.5c-1.1-1.1-2.3-2.2-3.5-3.2c-0.5-0.4-1-0.9-1.5-1.3
		c-1.5-1.2-3-2.4-4.6-3.4c-0.5-0.3-1-0.7-1.5-1c-1.1-0.8-2.3-1.4-3.5-2.1c-0.5-0.3-1-0.6-1.5-0.9c-1.5-0.8-3.1-1.5-4.6-2.3
		c-0.5-0.2-1-0.5-1.5-0.7c-1.1-0.5-2.3-0.9-3.5-1.4c-0.5-0.2-1-0.4-1.5-0.5c-1.5-0.5-3.1-1-4.6-1.5c-0.5-0.1-1-0.2-1.5-0.4
		c-5.9-1.5-12-2.4-18.3-2.4c-6.3,0-12.5,0.9-18.3,2.4c-0.5,0.1-1,0.2-1.5,0.4c-1.6,0.4-3.1,0.9-4.6,1.5c-0.5,0.2-1,0.3-1.5,0.5
		c-1.2,0.4-2.4,0.9-3.5,1.4c-0.5,0.2-1,0.5-1.5,0.7c-1.6,0.7-3.1,1.5-4.6,2.3c-0.5,0.3-1,0.6-1.5,0.9c-1.2,0.7-2.4,1.4-3.5,2.1
		c-0.5,0.3-1,0.7-1.5,1c-1.6,1.1-3.1,2.2-4.6,3.4c-0.5,0.4-1,0.9-1.5,1.3c-1.2,1-2.4,2.1-3.5,3.2c-0.5,0.5-1,1-1.5,1.5
		c-1.6,1.7-3.2,3.4-4.6,5.3c-0.5,0.6-1,1.3-1.5,2c-4.1,5.6-7.5,11.7-9.9,18.3c-1.8,4.8-3.1,9.9-3.8,15.1c-0.1,0.5-0.1,1-0.1,1.5h0
		v0.3c-0.2,1.9-0.5,3.9-0.5,5.8c0,1-0.1,1.9-0.1,2.9v34.3v22.1h4.6h1.8h0.8v-56.4c0-1,0.1-1.9,0.2-2.9c0-0.5,0-1,0.1-1.5h1.9h1.9
		h3.4h1.5v1.5v7.4H47V125v-1.5h1.5H52h1.5v1.5v7.4h4.6V125v-1.5h1.5H63h1.5v1.5v7.4h4.6V125v-1.5h1.5h3.5h1.5v1.5v7.4h4.6V125v-1.5
		h1.5h3.5h1.5v1.5v7.4h4.6V125v-1.5h1.5h3.5h1.5v1.5v7.4h4.6V125v-1.5h1.5h3.5h1.5v1.5v7.4h4.6V125v-1.5h1.5h3.5h1.5v1.5v7.4h4.6
		V125v-1.5h1.5h3.5h1.5v1.5v7.4h4.6V125v-1.5h1.5h3.5h1.5v1.5v7.4h4.6V125v-1.5h1.5h3.5h1.4v1.5v7.4h4.6V125v-1.5h1.5h3.4h1.9h1.9
		c0,0.5,0.1,1,0.1,1.5c0,1,0.1,1.9,0.1,2.9v56.4h0.8h1.8h4.7v-22.1v-34.3c0-1.5-0.1-2.9-0.2-4.4C173.4,122,173.3,120.4,173.1,118.9z
		 M40.9,118.9H38h-1.9h-1.9c0.1-0.5,0.2-1,0.2-1.5c1.1-7.1,3.3-13.8,6.5-19.9c0.5-0.9,1-1.8,1.5-2.7v3.9v4.4v14.3v1.5L40.9,118.9
		L40.9,118.9z M52,118.9h-3.5H47v-1.5V94.5V91v-3.1c0.5-0.7,1-1.3,1.5-2c1.1-1.4,2.3-2.7,3.5-3.9c0.5-0.5,1-1,1.5-1.5v2.7V86v31.4
		v1.5L52,118.9L52,118.9z M63,118.9h-3.5h-1.5v-1.5v-36v-2.6v-2.4c0.5-0.4,1-0.7,1.5-1.1c1.2-0.9,2.3-1.8,3.5-2.6
		c0.5-0.3,1-0.6,1.5-0.9V74v2.3v41.2v1.5L63,118.9L63,118.9z M74.1,118.9h-3.5h-1.5v-1.5V73.4v-2.2v-2.1c0.5-0.2,1-0.5,1.5-0.7
		c1.2-0.6,2.3-1.2,3.5-1.7c0.5-0.2,1-0.3,1.5-0.5v2v2v47.3v1.5L74.1,118.9L74.1,118.9z M85.2,118.9h-3.5h-1.5v-1.5v-49v-2v-2
		c0.5-0.2,1-0.2,1.5-0.4c1.2-0.3,2.3-0.6,3.5-0.9c0.5-0.1,1-0.3,1.5-0.4v1.9v1.9v50.8v1.5L85.2,118.9L85.2,118.9z M96.2,118.9h-3.5
		h-1.5v-1.5V65.9V64v-1.9c0.5-0.1,1-0.2,1.5-0.2c1.2-0.1,2.3-0.2,3.5-0.2c0.5,0,1-0.1,1.5-0.1v1.9v1.9v52.2v1.5L96.2,118.9
		L96.2,118.9z M107.3,118.9h-3.5h-1.5v-1.5V65.3v-1.9v-1.9c0.5,0,1,0,1.5,0.1c1.2,0.1,2.4,0.1,3.5,0.2c0.5,0,1,0.2,1.5,0.2V64v1.9
		v51.6v1.5L107.3,118.9L107.3,118.9z M118.3,118.9h-3.5h-1.5v-1.5V66.7v-1.9v-1.9c0.5,0.1,1,0.3,1.5,0.4c1.2,0.3,2.3,0.6,3.5,0.9
		c0.5,0.1,1,0.2,1.5,0.4v2v2v49v1.5L118.3,118.9L118.3,118.9z M129.4,118.9h-3.5h-1.5v-1.5V70.2v-2v-2c0.5,0.2,1,0.3,1.5,0.5
		c1.2,0.5,2.3,1.1,3.5,1.7c0.5,0.2,1,0.4,1.5,0.7v2.1v2.2v44.1v1.5L129.4,118.9L129.4,118.9z M140.5,118.9H137h-1.5v-1.5V76.2v-2.3
		v-2.2c0.5,0.3,1,0.6,1.5,0.9c1.2,0.8,2.4,1.7,3.5,2.6c0.5,0.4,1,0.7,1.5,1.1v2.4v2.6v36v1.5L140.5,118.9L140.5,118.9z M151.5,118.9
		H148h-1.5v-1.5V86v-2.8v-2.7c0.5,0.5,1,1,1.5,1.5c1.2,1.3,2.4,2.6,3.5,3.9c0.5,0.6,1,1.3,1.5,2V91v3.5v22.9v1.5L151.5,118.9
		L151.5,118.9z M163.9,118.9H162h-2.9h-1.5v-1.5v-14.3v-4.4v-3.9c0.5,0.9,1,1.8,1.5,2.7c3.2,6.2,5.4,12.8,6.5,19.9
		c0.1,0.5,0.2,1,0.2,1.5H163.9z"/>
</g>
</svg>
