<?xml version="1.0" encoding="utf-8"?>
<!-- Generator: Adobe Illustrator 25.2.0, SVG Export Plug-In . SVG Version: 6.00 Build 0)  -->
<svg version="1.1" id="Layer_1" xmlns="http://www.w3.org/2000/svg" xmlns:xlink="http://www.w3.org/1999/xlink" x="0px" y="0px"
	 viewBox="0 0 115 200" style="enable-background:new 0 0 115 200;" xml:space="preserve">
<style type="text/css">
	.st0{fill:#777777;}
</style>
<g>
	<path class="st0" d="M87.9,0c12.82,0,21.61,5.62,26.37,16.85l0.73,4.4c0,7.82-11.72,22.96-35.16,45.42
		C65.92,85.59,58.11,98.78,56.4,106.23v0.73l3.66,0.73h3.66l15.38-0.73c8.3,2.93,12.45,7.82,12.45,14.65
		c0,8.67-5.86,13.55-17.58,14.65L62.26,137H56.4c-14.65,0-24.66-6.35-30.03-19.05l-1.46-10.26c1.59-12.21,10.62-30.04,27.1-53.48
		c11.23-11.6,16.85-18.43,16.85-20.51c-10.01,2.44-25.88,10.01-47.61,22.71l-5.86,0.73C5.13,55.56,0,50.67,0,42.49
		c0-6.84,8.54-14.16,25.64-21.98C50.91,6.84,71.66,0,87.9,0z M68.12,149.45h0.73c10.25,0,15.38,8.06,15.38,24.18
		c2.44,4.4,3.66,8.79,3.66,13.19c0,6.23-4.88,10.62-14.65,13.19c-8.3,0-13.92-7.08-16.85-21.25c-1.46-6.59-2.2-12.21-2.2-16.85
		C54.2,155.43,58.84,151.28,68.12,149.45z"/>
</g>
</svg>
