<?xml version="1.0" encoding="utf-8"?>
<!-- Generator: Adobe Illustrator 25.2.0, SVG Export Plug-In . SVG Version: 6.00 Build 0)  -->
<svg version="1.1" id="Layer_1" xmlns="http://www.w3.org/2000/svg" xmlns:xlink="http://www.w3.org/1999/xlink" x="0px" y="0px"
	 viewBox="0 0 200 200" style="enable-background:new 0 0 200 200;" xml:space="preserve">
<style type="text/css">
	.st0{fill:url(#SVGID_1_);}
	.st1{fill:url(#SVGID_2_);}
	.st2{fill:url(#SVGID_3_);}
	.st3{fill:url(#SVGID_4_);}
	.st4{fill:url(#SVGID_5_);}
	.st5{fill:url(#SVGID_6_);}
	.st6{fill:url(#SVGID_7_);}
	.st7{fill:url(#SVGID_8_);}
	.st8{fill:url(#SVGID_9_);}
	.st9{fill:url(#SVGID_10_);}
	.st10{fill:url(#SVGID_11_);}
	.st11{fill:url(#SVGID_12_);}
	.st12{fill:url(#SVGID_13_);}
	.st13{fill:url(#SVGID_14_);}
	.st14{fill:url(#SVGID_15_);}
	.st15{fill:url(#SVGID_16_);}
	.st16{fill:url(#SVGID_17_);}
	.st17{fill:url(#SVGID_18_);}
	.st18{fill:url(#SVGID_19_);}
	.st19{fill:url(#SVGID_20_);}
</style>
<g>
	<linearGradient id="SVGID_1_" gradientUnits="userSpaceOnUse" x1="0" y1="166.785" x2="58" y2="166.785">
		<stop  offset="0" style="stop-color:#AC018E"/>
		<stop  offset="1" style="stop-color:#791E8F"/>
	</linearGradient>
	<path class="st0" d="M53.8,187.9c-10.3,4.1-24.6,0.2-35.3-10.6C7.7,166.6,3.8,152.2,7.9,142c-0.2-0.2-0.4-0.3-0.6-0.5l-3.7-3.7
		c-5.7,11.3-2.9,27.1,7.4,39.7c-2.9-0.5-6.1,0.3-8.3,2.5C1,181.7,0,184,0,186.5c0,2.5,1,4.8,2.7,6.6c1.8,1.8,4.1,2.7,6.6,2.7
		s4.8-1,6.6-2.7c1.8-1.8,2.7-4.1,2.7-6.6c0-0.6-0.1-1.1-0.2-1.7c8.3,6.7,17.9,10.2,26.8,10.2c4.6,0,9-0.9,12.8-2.9l-3.7-3.7
		C54.1,188.3,54,188.1,53.8,187.9z M5.9,189.8c-0.9-0.9-1.4-2.1-1.4-3.3c0-0.3,0-0.6,0.1-0.9c0.2-0.9,0.6-1.7,1.3-2.4l0,0
		c0.9-0.9,2.1-1.4,3.3-1.4c1.3,0,2.4,0.5,3.3,1.4c0.9,0.9,1.4,2.1,1.4,3.3s-0.5,2.4-1.4,3.3C10.8,191.6,7.7,191.6,5.9,189.8z"/>
	<linearGradient id="SVGID_2_" gradientUnits="userSpaceOnUse" x1="1.555" y1="133.4353" x2="18.6994" y2="133.4353">
		<stop  offset="0" style="stop-color:#AC018E"/>
		<stop  offset="1" style="stop-color:#791E8F"/>
	</linearGradient>
	<path class="st1" d="M4.4,136.2l4,4c0.1,0.1,0.1,0.1,0.2,0.1c2.3,2.2,6,2.2,8.3-0.1c2.3-2.3,2.3-6,0.1-8.3c0,0,0,0,0,0
		c0,0-0.1-0.1-0.1-0.1l-4-4l0,0l-1.1-1.1c-2.3-2.3-6.1-2.3-8.5,0c-2.3,2.3-2.3,6.1,0,8.5L4.4,136.2z"/>
	<linearGradient id="SVGID_3_" gradientUnits="userSpaceOnUse" x1="53.7506" y1="185.6497" x2="70.905" y2="185.6497">
		<stop  offset="0" style="stop-color:#AC018E"/>
		<stop  offset="1" style="stop-color:#791E8F"/>
	</linearGradient>
	<path class="st2" d="M68,182.9l-4-4c0-0.1-0.1-0.1-0.2-0.1c-2.3-2.2-6-2.2-8.3,0.1c-2.3,2.3-2.3,6-0.1,8.3c0,0.1,0.1,0.1,0.1,0.2
		l4,4l1.1,1.1c2.3,2.3,6.1,2.3,8.5,0c2.3-2.3,2.3-6.1,0-8.5L68,182.9z"/>
	<linearGradient id="SVGID_4_" gradientUnits="userSpaceOnUse" x1="14.49" y1="152.6507" x2="71.7363" y2="152.6507">
		<stop  offset="0" style="stop-color:#AC018E"/>
		<stop  offset="1" style="stop-color:#791E8F"/>
	</linearGradient>
	<path class="st3" d="M66,136.2L66,136.2l-6.4-6.4l-4.9,4.9C42,124.1,26,121.2,14.5,126.9l0,0l3.7,3.7c0.2,0.2,0.4,0.4,0.5,0.6l0,0
		c0,0,0,0,0,0c0.7-0.3,1.4-0.5,2.2-0.7c0,0,0,0,0.1,0c0.8-0.2,1.6-0.4,2.4-0.5c0.2,0,0.5-0.1,0.7-0.1c0.6-0.1,1.2-0.1,1.8-0.2
		c0.3,0,0.6,0,0.8,0c0.5,0,0.9,0,1.4,0c0.6,0,1.3,0.1,2,0.1c0.4,0,0.8,0.1,1.2,0.1c0.7,0.1,1.4,0.2,2.2,0.4c0.3,0.1,0.7,0.1,1,0.2
		c1.1,0.2,2.1,0.5,3.2,0.9c0.1,0,0.2,0.1,0.3,0.1c1,0.3,2,0.7,2.9,1.1c0.3,0.1,0.7,0.3,1,0.5c0.7,0.3,1.4,0.7,2.1,1.1
		c0.4,0.2,0.8,0.4,1.2,0.7c0.7,0.4,1.3,0.8,2,1.2c0.4,0.2,0.8,0.5,1.1,0.8c0.7,0.5,1.4,1,2,1.6c0.3,0.2,0.6,0.5,1,0.8
		c1,0.8,1.9,1.7,2.8,2.6c10.7,10.7,14.6,25.1,10.6,35.3c0.2,0.2,0.4,0.3,0.6,0.5l3.7,3.7c5.7-11.5,2.8-27.5-7.8-40.1L66,136.2z"/>
	<linearGradient id="SVGID_5_" gradientUnits="userSpaceOnUse" x1="63.594" y1="128.0159" x2="71.9246" y2="128.0159">
		<stop  offset="0" style="stop-color:#AC018E"/>
		<stop  offset="1" style="stop-color:#791E8F"/>
	</linearGradient>
	<polygon class="st4" points="63.6,125.8 65.5,123.9 71.9,130.3 70,132.2 	"/>
	<linearGradient id="SVGID_6_" gradientUnits="userSpaceOnUse" x1="69.51" y1="122.085" x2="77.84" y2="122.085">
		<stop  offset="0" style="stop-color:#AC018E"/>
		<stop  offset="1" style="stop-color:#791E8F"/>
	</linearGradient>
	<polygon class="st5" points="75.9,126.2 77.8,124.3 71.4,117.9 69.5,119.8 69.5,119.8 	"/>
	<linearGradient id="SVGID_7_" gradientUnits="userSpaceOnUse" x1="53.887" y1="130.3849" x2="74.515" y2="130.3849">
		<stop  offset="0" style="stop-color:#AC018E"/>
		<stop  offset="1" style="stop-color:#791E8F"/>
	</linearGradient>
	<path class="st6" d="M69.2,133l-6.4-6.4l-6-6c-0.2-0.2-0.3-0.3-0.5-0.4c-0.6-0.3-1.4-0.2-1.9,0.4c-0.5,0.5-0.6,1.2-0.3,1.9
		c0.1,0.2,0.2,0.4,0.3,0.5l6,6l6.4,6.4l4.8,4.8c0.3,0.3,0.8,0.5,1.2,0.5s0.9-0.2,1.2-0.5c0.7-0.7,0.7-1.7,0-2.4L69.2,133z"/>
	<linearGradient id="SVGID_8_" gradientUnits="userSpaceOnUse" x1="59.807" y1="124.4549" x2="80.425" y2="124.4549">
		<stop  offset="0" style="stop-color:#AC018E"/>
		<stop  offset="1" style="stop-color:#791E8F"/>
	</linearGradient>
	<path class="st7" d="M75.1,127.1l-6.4-6.4l-6-6c-0.2-0.2-0.3-0.3-0.5-0.4c-0.6-0.3-1.4-0.2-1.9,0.4c-0.5,0.5-0.6,1.2-0.3,1.9
		c0.1,0.2,0.2,0.4,0.3,0.5l6,6l6.4,6.4l4.8,4.8c0.3,0.3,0.8,0.5,1.2,0.5s0.9-0.2,1.2-0.5c0.7-0.7,0.7-1.7,0-2.4L75.1,127.1z"/>
	<linearGradient id="SVGID_9_" gradientUnits="userSpaceOnUse" x1="65.745" y1="118.5387" x2="86.365" y2="118.5387">
		<stop  offset="0" style="stop-color:#AC018E"/>
		<stop  offset="1" style="stop-color:#791E8F"/>
	</linearGradient>
	<path class="st8" d="M81.1,121.1l-6.4-6.4l-6-6c-0.7-0.7-1.7-0.7-2.4,0c-0.7,0.7-0.7,1.7,0,2.4l6,6l6.4,6.4l4.8,4.8
		c0.3,0.3,0.8,0.5,1.2,0.5s0.9-0.2,1.2-0.5c0.7-0.7,0.7-1.7,0-2.4L81.1,121.1z"/>
	<linearGradient id="SVGID_10_" gradientUnits="userSpaceOnUse" x1="128.2814" y1="152.6357" x2="185.52" y2="152.6357">
		<stop  offset="0" style="stop-color:#AC018E"/>
		<stop  offset="1" style="stop-color:#791E8F"/>
	</linearGradient>
	<path class="st9" d="M134.8,177.6c0.2-0.2,0.4-0.3,0.6-0.5c-4.1-10.3-0.2-24.6,10.6-35.3c0.9-0.9,1.9-1.8,2.9-2.6
		c0.3-0.3,0.6-0.5,0.9-0.8c0.7-0.5,1.4-1.1,2-1.6c0.4-0.3,0.8-0.5,1.1-0.8c0.6-0.4,1.3-0.9,2-1.2c0.4-0.2,0.8-0.5,1.2-0.7
		c0.7-0.4,1.4-0.7,2.1-1.1c0.4-0.2,0.7-0.4,1.1-0.5c0.9-0.4,1.9-0.8,2.9-1.1c0.1,0,0.2-0.1,0.3-0.1c1.1-0.4,2.1-0.6,3.2-0.9
		c0.4-0.1,0.7-0.1,1-0.2c0.7-0.1,1.4-0.3,2.1-0.4c0.4-0.1,0.8-0.1,1.2-0.1c0.7-0.1,1.3-0.1,2-0.1c0.5,0,0.9,0,1.4,0
		c0.3,0,0.6,0,0.9,0c0.6,0,1.2,0.1,1.8,0.2c0.2,0,0.5,0.1,0.7,0.1c0.8,0.1,1.6,0.3,2.4,0.5c0.1,0,0.1,0,0.2,0.1
		c0.7,0.2,1.4,0.4,2.1,0.7c0,0,0,0,0.1,0l0,0c0.2-0.2,0.3-0.4,0.5-0.6l3.7-3.7c-11.5-5.7-27.5-2.8-40.2,7.8l-4.9-4.9l-6.4,6.4l0,0
		l4.9,4.9c-10.6,12.7-13.5,28.7-7.8,40.1L134.8,177.6z"/>
	<linearGradient id="SVGID_11_" gradientUnits="userSpaceOnUse" x1="181.3045" y1="133.4422" x2="198.455" y2="133.4422">
		<stop  offset="0" style="stop-color:#AC018E"/>
		<stop  offset="1" style="stop-color:#791E8F"/>
	</linearGradient>
	<path class="st10" d="M182.9,131.9C182.9,131.9,182.9,131.9,182.9,131.9c-2.2,2.4-2.2,6.1,0.1,8.4c2.3,2.3,6,2.3,8.3,0.1
		c0.1-0.1,0.1-0.1,0.2-0.1l4-4l1.1-1.1c2.3-2.3,2.3-6.1,0-8.5c-2.3-2.3-6.1-2.3-8.5,0l-1.1,1.1l-4,4
		C183,131.8,183,131.9,182.9,131.9z"/>
	<linearGradient id="SVGID_12_" gradientUnits="userSpaceOnUse" x1="129.095" y1="185.6378" x2="146.2455" y2="185.6378">
		<stop  offset="0" style="stop-color:#AC018E"/>
		<stop  offset="1" style="stop-color:#791E8F"/>
	</linearGradient>
	<path class="st11" d="M144.6,187.1c2.2-2.4,2.2-6-0.1-8.3c-2.3-2.3-6-2.3-8.3-0.1c-0.1,0.1-0.1,0.1-0.2,0.1l-4,4l-1.1,1.1
		c-2.3,2.3-2.3,6.1,0,8.5c2.3,2.3,6.1,2.3,8.5,0l1.1-1.1l4-4C144.6,187.2,144.6,187.2,144.6,187.1z"/>
	<linearGradient id="SVGID_13_" gradientUnits="userSpaceOnUse" x1="142.01" y1="166.78" x2="200.01" y2="166.78">
		<stop  offset="0" style="stop-color:#AC018E"/>
		<stop  offset="1" style="stop-color:#791E8F"/>
	</linearGradient>
	<path class="st12" d="M199.8,184.7c-0.4-1.8-1.2-3.4-2.5-4.7c-2.2-2.2-5.4-3-8.3-2.5c10.3-12.6,13.1-28.3,7.4-39.7l-3.7,3.7
		c-0.2,0.2-0.4,0.3-0.6,0.5c4.1,10.3,0.2,24.6-10.6,35.3c-10.7,10.7-25.1,14.6-35.3,10.6c-0.2,0.2-0.3,0.4-0.5,0.6l-3.7,3.7
		c3.9,1.9,8.2,2.9,12.9,2.9c8.9,0,18.5-3.5,26.8-10.2c-0.1,0.5-0.2,1.1-0.2,1.7c0,0.6,0.1,1.2,0.2,1.8c0.4,1.8,1.2,3.4,2.5,4.7
		c0.6,0.6,1.3,1.1,2.1,1.5c1.4,0.8,2.9,1.2,4.5,1.2c2.5,0,4.8-1,6.6-2.7c1.8-1.8,2.7-4.1,2.7-6.6C200,185.9,199.9,185.3,199.8,184.7
		z M194.1,189.8c-0.9,0.9-2.1,1.3-3.4,1.3c-0.6,0-1.2-0.1-1.8-0.3c-0.6-0.2-1.1-0.6-1.5-1l0,0c-0.9-0.9-1.4-2.1-1.4-3.3
		c0-1.3,0.5-2.4,1.4-3.3c0.9-0.9,2.1-1.4,3.3-1.4s2.4,0.5,3.3,1.4c0.9,0.9,1.4,2.1,1.4,3.3C195.5,187.8,195,188.9,194.1,189.8z"/>
	<linearGradient id="SVGID_14_" gradientUnits="userSpaceOnUse" x1="22.62" y1="79.48" x2="177.38" y2="79.48">
		<stop  offset="0" style="stop-color:#AC018E"/>
		<stop  offset="1" style="stop-color:#791E8F"/>
	</linearGradient>
	<polygon class="st13" points="124.6,113.9 106.4,95.8 122.4,79.8 148.9,106.3 160.6,94.7 152.2,86.3 147.5,91 138.1,81.6 
		142.8,76.9 134,68.2 139.2,63 148,71.7 152.7,67 162.1,76.4 157.4,81.2 165.8,89.5 177.4,77.9 150.8,51.4 157.1,45 150.7,38.6 
		100,89.3 49.3,38.6 42.9,45 49.2,51.4 22.6,77.9 34.2,89.5 42.6,81.2 37.9,76.4 47.3,67 52,71.7 60.8,63 66,68.2 57.2,76.9 
		61.9,81.6 52.5,91 47.8,86.3 39.4,94.7 51.1,106.3 77.6,79.8 93.6,95.8 75.4,113.9 81.9,120.3 100,102.2 118.1,120.3 	"/>
	<linearGradient id="SVGID_15_" gradientUnits="userSpaceOnUse" x1="122.16" y1="122.085" x2="130.49" y2="122.085">
		<stop  offset="0" style="stop-color:#AC018E"/>
		<stop  offset="1" style="stop-color:#791E8F"/>
	</linearGradient>
	<polygon class="st14" points="124.1,126.2 124.1,126.2 127.7,122.6 130.5,119.8 128.6,117.9 122.2,124.3 	"/>
	<linearGradient id="SVGID_16_" gradientUnits="userSpaceOnUse" x1="128.08" y1="128.01" x2="136.41" y2="128.01">
		<stop  offset="0" style="stop-color:#AC018E"/>
		<stop  offset="1" style="stop-color:#791E8F"/>
	</linearGradient>
	<polygon class="st15" points="131.7,126.6 128.1,130.3 130,132.2 136.4,125.8 134.5,123.8 134.5,123.8 	"/>
	<linearGradient id="SVGID_17_" gradientUnits="userSpaceOnUse" x1="125.475" y1="130.3921" x2="146.1006" y2="130.3921">
		<stop  offset="0" style="stop-color:#AC018E"/>
		<stop  offset="1" style="stop-color:#791E8F"/>
	</linearGradient>
	<path class="st16" d="M133.2,135.4l6.4-6.4l6-6c0.2-0.2,0.3-0.3,0.4-0.5c0.3-0.6,0.1-1.4-0.4-1.9c-0.5-0.5-1.2-0.6-1.9-0.4
		c-0.2,0.1-0.4,0.2-0.5,0.4l-6,6l-6.4,6.4l-4.8,4.8c-0.7,0.7-0.7,1.7,0,2.4c0.3,0.3,0.8,0.5,1.2,0.5s0.9-0.2,1.2-0.5L133.2,135.4z"
		/>
	<linearGradient id="SVGID_18_" gradientUnits="userSpaceOnUse" x1="119.575" y1="124.4521" x2="140.1857" y2="124.4521">
		<stop  offset="0" style="stop-color:#AC018E"/>
		<stop  offset="1" style="stop-color:#791E8F"/>
	</linearGradient>
	<path class="st17" d="M133.7,123l6-6c0.2-0.2,0.3-0.3,0.4-0.5c0.3-0.6,0.1-1.4-0.4-1.9s-1.2-0.6-1.9-0.4c-0.2,0.1-0.4,0.2-0.5,0.4
		l-6,6l-6.4,6.4l-4.8,4.8c-0.7,0.7-0.7,1.7,0,2.4c0.3,0.3,0.8,0.5,1.2,0.5s0.9-0.2,1.2-0.5l4.8-4.8L133.7,123z"/>
	<linearGradient id="SVGID_19_" gradientUnits="userSpaceOnUse" x1="113.655" y1="118.5287" x2="134.265" y2="118.5287">
		<stop  offset="0" style="stop-color:#AC018E"/>
		<stop  offset="1" style="stop-color:#791E8F"/>
	</linearGradient>
	<path class="st18" d="M127.8,117.1l6-6c0.7-0.7,0.7-1.7,0-2.4c-0.7-0.7-1.7-0.7-2.4,0l-6,6l-6.4,6.4l-4.8,4.8
		c-0.7,0.7-0.7,1.7,0,2.4c0.3,0.3,0.8,0.5,1.2,0.5s0.9-0.2,1.2-0.5l4.8-4.8L127.8,117.1z"/>
	<linearGradient id="SVGID_20_" gradientUnits="userSpaceOnUse" x1="65.07" y1="18.99" x2="134.87" y2="18.99">
		<stop  offset="0" style="stop-color:#AC018E"/>
		<stop  offset="1" style="stop-color:#791E8F"/>
	</linearGradient>
	<path class="st19" d="M131.4,33.8c1.1-3.5,2.3-7,3.4-10.5c-1.4-5.2-3.2-10.3-5.3-15.5c-3.2,2.7-6.3,5.6-9.1,8.6
		c-1.7-3.8-3.5-7.5-5.6-11.2c-2.9,3.1-5.6,6.3-8,9.6c-2.1-3.6-4.4-7.1-6.8-10.5c-2.5,3.4-4.8,6.9-6.8,10.5c-2.5-3.3-5.2-6.5-8-9.6
		c-2.1,3.7-3.9,7.4-5.6,11.2c-2.9-3-5.9-5.8-9.1-8.6c-2.1,5.1-3.9,10.3-5.3,15.5c1.1,3.5,2.3,7,3.4,10.5
		C88.9,27.1,111,27.1,131.4,33.8z"/>
</g>
</svg>
