<?xml version="1.0" encoding="utf-8"?>
<!-- Generator: Adobe Illustrator 25.2.0, SVG Export Plug-In . SVG Version: 6.00 Build 0)  -->
<svg version="1.1" id="Layer_1" xmlns="http://www.w3.org/2000/svg" xmlns:xlink="http://www.w3.org/1999/xlink" x="0px" y="0px"
	 viewBox="0 0 200 200" style="enable-background:new 0 0 200 200;" xml:space="preserve">
<style type="text/css">
	.st0{fill:url(#SVGID_1_);}
	.st1{fill:url(#SVGID_2_);}
	.st2{fill:url(#SVGID_3_);}
	.st3{fill:url(#SVGID_4_);}
	.st4{fill:url(#SVGID_5_);}
	.st5{fill:url(#SVGID_6_);}
	.st6{fill:url(#SVGID_7_);}
	.st7{fill:url(#SVGID_8_);}
	.st8{fill:url(#SVGID_9_);}
	.st9{fill:url(#SVGID_10_);}
	.st10{fill:url(#SVGID_11_);}
	.st11{fill:url(#SVGID_12_);}
	.st12{fill:url(#SVGID_13_);}
	.st13{fill:url(#SVGID_14_);}
	.st14{fill:url(#SVGID_15_);}
	.st15{fill:url(#SVGID_16_);}
	.st16{fill:url(#SVGID_17_);}
	.st17{fill:url(#SVGID_18_);}
	.st18{fill:url(#SVGID_19_);}
	.st19{fill:url(#SVGID_20_);}
	.st20{fill:url(#SVGID_21_);}
	.st21{fill:url(#SVGID_22_);}
	.st22{fill:url(#SVGID_23_);}
	.st23{fill:url(#SVGID_24_);}
	.st24{fill:url(#SVGID_25_);}
	.st25{fill:url(#SVGID_26_);}
</style>
<g>
	<linearGradient id="SVGID_1_" gradientUnits="userSpaceOnUse" x1="9.1994" y1="100.005" x2="190.8006" y2="100.005">
		<stop  offset="0" style="stop-color:#75C247"/>
		<stop  offset="1" style="stop-color:#2CAD50"/>
	</linearGradient>
	<path class="st0" d="M185.1,18.8c0,0-0.1,0-0.1,0c0-0.1,0-0.1,0-0.1C159.6,4.2,117.5,0.9,104.2,0.2C101.6,0,100.1,0,100.1,0
		S100,0,100,0c0,0-0.1,0-0.1,0s-1.5,0-4.1,0.2c-13.4,0.7-55.4,4-80.8,18.4c0,0,0,0.1,0,0.1c0,0-0.1,0-0.1,0c0,0-5.8,24.7-5.7,56.5
		c0,15.8,1.5,33.4,5.9,50.6C28.3,177.5,99.8,200,99.8,200s0.1,0,0.2-0.1c0.1,0,0.2,0.1,0.2,0.1s71.5-22.5,84.8-74.2
		c4.4-17.2,5.9-34.8,5.9-50.6C190.9,43.5,185.1,18.8,185.1,18.8z M99.9,188.3c-6.6-2.4-22-8.7-37.2-19c-0.3-0.2-0.7-0.5-1-0.7
		c-0.3-0.2-0.7-0.5-1-0.7c-0.7-0.5-1.3-0.9-2-1.4c-0.1-0.1-0.2-0.2-0.3-0.3c-2.8-2.1-5.5-4.2-8.2-6.6c-0.1-0.1-0.2-0.2-0.3-0.3
		c-0.8-0.7-1.6-1.4-2.3-2.1c-0.4-0.4-0.8-0.8-1.2-1.2c-0.5-0.4-0.9-0.9-1.4-1.3c-8.7-8.8-15.9-19.3-19-31.6
		c-4.1-16.2-5.5-32.9-5.5-48c0-21.9,2.9-40.4,4.5-48.9c0,0,0-0.1,0-0.1c23.5-11.2,59.6-14,71.5-14.7c1.8-0.1,3.1-0.1,3.6-0.2
		c0,0,0.1,0,0.1,0c0.5,0,1.8,0.1,3.6,0.2c11.8,0.7,47.9,3.5,71.5,14.8c0,0,0.1,0,0.1,0c1.6,8.4,4.4,27,4.4,48.9
		c0,15.2-1.4,32-5.6,48.2c-2.9,11-8.9,20.6-16.4,28.8l0,0c-0.8,0.9-1.6,1.7-2.5,2.6c-0.5,0.5-0.9,0.9-1.4,1.4
		c-0.4,0.4-0.8,0.8-1.2,1.1c-0.8,0.7-1.6,1.4-2.4,2.1c-0.1,0.1-0.2,0.2-0.3,0.3c-2.7,2.3-5.4,4.5-8.2,6.6c-0.1,0.1-0.2,0.1-0.3,0.2
		c-0.6,0.5-1.3,0.9-2,1.4c-0.3,0.2-0.7,0.5-1,0.7c-0.3,0.2-0.7,0.5-1,0.7c-15.2,10.3-30.6,16.5-37.3,19
		C100,188.2,99.9,188.2,99.9,188.3z"/>
	<linearGradient id="SVGID_2_" gradientUnits="userSpaceOnUse" x1="65.96" y1="40.43" x2="82.98" y2="40.43">
		<stop  offset="0" style="stop-color:#75C247"/>
		<stop  offset="1" style="stop-color:#2CAD50"/>
	</linearGradient>
	<rect x="66" y="31.9" class="st1" width="17" height="17"/>
	<linearGradient id="SVGID_3_" gradientUnits="userSpaceOnUse" x1="100" y1="40.43" x2="117.02" y2="40.43">
		<stop  offset="0" style="stop-color:#75C247"/>
		<stop  offset="1" style="stop-color:#2CAD50"/>
	</linearGradient>
	<rect x="100" y="31.9" class="st2" width="17" height="17"/>
	<linearGradient id="SVGID_4_" gradientUnits="userSpaceOnUse" x1="134.05" y1="40.43" x2="151.07" y2="40.43">
		<stop  offset="0" style="stop-color:#75C247"/>
		<stop  offset="1" style="stop-color:#2CAD50"/>
	</linearGradient>
	<rect x="134.1" y="31.9" class="st3" width="17" height="17"/>
	<linearGradient id="SVGID_5_" gradientUnits="userSpaceOnUse" x1="48.93" y1="57.45" x2="65.95" y2="57.45">
		<stop  offset="0" style="stop-color:#75C247"/>
		<stop  offset="1" style="stop-color:#2CAD50"/>
	</linearGradient>
	<rect x="48.9" y="48.9" class="st4" width="17" height="17"/>
	<linearGradient id="SVGID_6_" gradientUnits="userSpaceOnUse" x1="82.98" y1="57.45" x2="100" y2="57.45">
		<stop  offset="0" style="stop-color:#75C247"/>
		<stop  offset="1" style="stop-color:#2CAD50"/>
	</linearGradient>
	<rect x="83" y="48.9" class="st5" width="17" height="17"/>
	<linearGradient id="SVGID_7_" gradientUnits="userSpaceOnUse" x1="117.02" y1="57.45" x2="134.04" y2="57.45">
		<stop  offset="0" style="stop-color:#75C247"/>
		<stop  offset="1" style="stop-color:#2CAD50"/>
	</linearGradient>
	<rect x="117" y="48.9" class="st6" width="17" height="17"/>
	<linearGradient id="SVGID_8_" gradientUnits="userSpaceOnUse" x1="151.07" y1="57.45" x2="168.09" y2="57.45">
		<stop  offset="0" style="stop-color:#75C247"/>
		<stop  offset="1" style="stop-color:#2CAD50"/>
	</linearGradient>
	<rect x="151.1" y="48.9" class="st7" width="17" height="17"/>
	<linearGradient id="SVGID_9_" gradientUnits="userSpaceOnUse" x1="31.91" y1="74.47" x2="48.93" y2="74.47">
		<stop  offset="0" style="stop-color:#75C247"/>
		<stop  offset="1" style="stop-color:#2CAD50"/>
	</linearGradient>
	<rect x="31.9" y="66" class="st8" width="17" height="17"/>
	<linearGradient id="SVGID_10_" gradientUnits="userSpaceOnUse" x1="65.96" y1="74.47" x2="82.98" y2="74.47">
		<stop  offset="0" style="stop-color:#75C247"/>
		<stop  offset="1" style="stop-color:#2CAD50"/>
	</linearGradient>
	<rect x="66" y="66" class="st9" width="17" height="17"/>
	<linearGradient id="SVGID_11_" gradientUnits="userSpaceOnUse" x1="100" y1="74.47" x2="117.02" y2="74.47">
		<stop  offset="0" style="stop-color:#75C247"/>
		<stop  offset="1" style="stop-color:#2CAD50"/>
	</linearGradient>
	<rect x="100" y="66" class="st10" width="17" height="17"/>
	<linearGradient id="SVGID_12_" gradientUnits="userSpaceOnUse" x1="134.05" y1="74.47" x2="151.07" y2="74.47">
		<stop  offset="0" style="stop-color:#75C247"/>
		<stop  offset="1" style="stop-color:#2CAD50"/>
	</linearGradient>
	<rect x="134.1" y="66" class="st11" width="17" height="17"/>
	<linearGradient id="SVGID_13_" gradientUnits="userSpaceOnUse" x1="48.93" y1="91.5" x2="65.95" y2="91.5">
		<stop  offset="0" style="stop-color:#75C247"/>
		<stop  offset="1" style="stop-color:#2CAD50"/>
	</linearGradient>
	<rect x="48.9" y="83" class="st12" width="17" height="17"/>
	<linearGradient id="SVGID_14_" gradientUnits="userSpaceOnUse" x1="82.98" y1="91.5" x2="100" y2="91.5">
		<stop  offset="0" style="stop-color:#75C247"/>
		<stop  offset="1" style="stop-color:#2CAD50"/>
	</linearGradient>
	<rect x="83" y="83" class="st13" width="17" height="17"/>
	<linearGradient id="SVGID_15_" gradientUnits="userSpaceOnUse" x1="117.02" y1="91.5" x2="134.04" y2="91.5">
		<stop  offset="0" style="stop-color:#75C247"/>
		<stop  offset="1" style="stop-color:#2CAD50"/>
	</linearGradient>
	<rect x="117" y="83" class="st14" width="17" height="17"/>
	<linearGradient id="SVGID_16_" gradientUnits="userSpaceOnUse" x1="151.07" y1="91.5" x2="168.09" y2="91.5">
		<stop  offset="0" style="stop-color:#75C247"/>
		<stop  offset="1" style="stop-color:#2CAD50"/>
	</linearGradient>
	<rect x="151.1" y="83" class="st15" width="17" height="17"/>
	<linearGradient id="SVGID_17_" gradientUnits="userSpaceOnUse" x1="65.96" y1="108.52" x2="82.98" y2="108.52">
		<stop  offset="0" style="stop-color:#75C247"/>
		<stop  offset="1" style="stop-color:#2CAD50"/>
	</linearGradient>
	<rect x="66" y="100" class="st16" width="17" height="17"/>
	<linearGradient id="SVGID_18_" gradientUnits="userSpaceOnUse" x1="100" y1="108.52" x2="117.02" y2="108.52">
		<stop  offset="0" style="stop-color:#75C247"/>
		<stop  offset="1" style="stop-color:#2CAD50"/>
	</linearGradient>
	<rect x="100" y="100" class="st17" width="17" height="17"/>
	<linearGradient id="SVGID_19_" gradientUnits="userSpaceOnUse" x1="134.05" y1="108.52" x2="151.07" y2="108.52">
		<stop  offset="0" style="stop-color:#75C247"/>
		<stop  offset="1" style="stop-color:#2CAD50"/>
	</linearGradient>
	<rect x="134.1" y="100" class="st18" width="17" height="17"/>
	<linearGradient id="SVGID_20_" gradientUnits="userSpaceOnUse" x1="48.93" y1="125.54" x2="65.95" y2="125.54">
		<stop  offset="0" style="stop-color:#75C247"/>
		<stop  offset="1" style="stop-color:#2CAD50"/>
	</linearGradient>
	<rect x="48.9" y="117" class="st19" width="17" height="17"/>
	<linearGradient id="SVGID_21_" gradientUnits="userSpaceOnUse" x1="82.98" y1="125.54" x2="100" y2="125.54">
		<stop  offset="0" style="stop-color:#75C247"/>
		<stop  offset="1" style="stop-color:#2CAD50"/>
	</linearGradient>
	<rect x="83" y="117" class="st20" width="17" height="17"/>
	<linearGradient id="SVGID_22_" gradientUnits="userSpaceOnUse" x1="117.02" y1="125.54" x2="134.04" y2="125.54">
		<stop  offset="0" style="stop-color:#75C247"/>
		<stop  offset="1" style="stop-color:#2CAD50"/>
	</linearGradient>
	<rect x="117" y="117" class="st21" width="17" height="17"/>
	<linearGradient id="SVGID_23_" gradientUnits="userSpaceOnUse" x1="65.96" y1="142.56" x2="82.98" y2="142.56">
		<stop  offset="0" style="stop-color:#75C247"/>
		<stop  offset="1" style="stop-color:#2CAD50"/>
	</linearGradient>
	<rect x="66" y="134.1" class="st22" width="17" height="17"/>
	<linearGradient id="SVGID_24_" gradientUnits="userSpaceOnUse" x1="100" y1="142.56" x2="117.02" y2="142.56">
		<stop  offset="0" style="stop-color:#75C247"/>
		<stop  offset="1" style="stop-color:#2CAD50"/>
	</linearGradient>
	<rect x="100" y="134.1" class="st23" width="17" height="17"/>
	<linearGradient id="SVGID_25_" gradientUnits="userSpaceOnUse" x1="82.98" y1="159.59" x2="100" y2="159.59">
		<stop  offset="0" style="stop-color:#75C247"/>
		<stop  offset="1" style="stop-color:#2CAD50"/>
	</linearGradient>
	<rect x="83" y="151.1" class="st24" width="17" height="17"/>
	<linearGradient id="SVGID_26_" gradientUnits="userSpaceOnUse" x1="24.8584" y1="99.52" x2="175.1478" y2="99.52">
		<stop  offset="0" style="stop-color:#75C247"/>
		<stop  offset="1" style="stop-color:#2CAD50"/>
	</linearGradient>
	<path class="st25" d="M169.7,122.1c9.4-36.3,4.4-76.2,1.7-91.7l-0.2-1.2l-1.1-0.5c-26-11.1-65.5-13-70.1-13.1
		c-4.4,0.2-43.9,1.9-70,13l-1.1,0.5l-0.2,1.2c-2.6,15.5-7.8,55.3,1.5,91.7c9,35.2,55,55.7,68.9,61.2l0.8,0.3l0.8-0.3
		C114.6,177.8,160.5,157.5,169.7,122.1z M78.1,168.1c-4-2.3-8.1-4.8-12.2-7.7v-9.4H54.3c-1.9-1.7-3.6-3.5-5.3-5.4v-11.7h-8.8
		c-2.4-4.1-4.4-8.5-5.6-13.2c-0.3-1.3-0.6-2.5-0.9-3.8h15.2v-17h-17v8.1c-0.5-2.7-0.8-5.4-1.1-8.1h1.1V83h-2.4
		c-0.2-5.9-0.1-11.6,0-17h2.4v-17h-1.2c0.4-3.7,0.8-7,1.2-10v10h17v-17H33.9c4.7-1.9,9.8-3.4,15.1-4.8v4.8h17v-8.3
		c6.1-1,11.9-1.7,17-2.3v10.5h17V20.1c1.7,0.1,8.2,0.4,17,1.3v10.5h17v-8.2c5.6,0.9,11.4,2.1,17,3.5v4.7h14.8
		c0.4,0.2,0.9,0.3,1.4,0.5c0.3,1.8,0.6,3.8,0.9,6.1V49h1.2c0.5,5.1,0.9,10.9,1.1,17h-2.4v17h2.4c-0.2,5.6-0.6,11.3-1.3,17h-1.1v7.8
		c-0.5,3.1-1.1,6.1-1.8,9.2H151v17h8.7c-2.4,4.2-5.4,8-8.7,11.6v-11.6h-17v17h11.7c-3.7,3.4-7.7,6.5-11.7,9.4v-9.4h-17v17h4.8
		c-1.6,0.9-3.2,1.8-4.8,2.6v-2.6h-17v10.5c0,0-0.1,0-0.1,0c-3.9-1.6-10-4.2-16.9-7.9v-2.7L78.1,168.1
		C78.1,168.1,78.1,168.1,78.1,168.1z"/>
</g>
</svg>
