<?xml version="1.0" encoding="utf-8"?>
<!-- Generator: Adobe Illustrator 25.2.0, SVG Export Plug-In . SVG Version: 6.00 Build 0)  -->
<svg version="1.1" id="Layer_1" xmlns="http://www.w3.org/2000/svg" xmlns:xlink="http://www.w3.org/1999/xlink" x="0px" y="0px"
	 viewBox="0 0 200 200" style="enable-background:new 0 0 200 200;" xml:space="preserve">
<style type="text/css">
	.st0{fill:url(#SVGID_1_);}
	.st1{fill:url(#SVGID_2_);}
	.st2{fill:url(#SVGID_3_);}
</style>
<g>
	<linearGradient id="SVGID_1_" gradientUnits="userSpaceOnUse" x1="33.03" y1="75.245" x2="129" y2="75.245">
		<stop  offset="0" style="stop-color:#D1008C"/>
		<stop  offset="1" style="stop-color:#9B118F"/>
	</linearGradient>
	<path class="st0" d="M122.2,146.1c-2.7-2.3-6.6-5.7-11.1-10.1c-4.3-4.1-9.3-9.1-14.4-14.6c-5.1-5.5-10.3-11.6-15.2-17.9
		c-2.3-3.2-4.9-6.3-7-9.6c-2.2-3.3-4.5-6.4-6.3-9.7c-1.9-3.2-3.9-6.2-5.4-9.3c-1.5-3.1-3.2-5.8-4.4-8.6C57.1,63.5,56,61,55,58.8
		c-0.9-2.2-1.5-4.3-2.1-5.9c-1.2-3.3-1.8-5.2-1.8-5.2s0.7,1.9,2,5.1c0.7,1.6,1.3,3.6,2.3,5.8c1,2.2,2.2,4.7,3.5,7.3
		c1.2,2.7,3,5.4,4.6,8.4c1.6,3,3.7,6,5.7,9.1c1.9,3.2,4.3,6.2,6.6,9.4c2.2,3.2,4.9,6.2,7.3,9.3c5.1,6.1,10.4,12,15.6,17.3
		c5.2,5.3,10.3,10,14.7,14c4.8,4.3,8.9,7.6,11.6,9.8l4-4C70.6,89.9,52,0,52,0L33,34.8c9.3,52.5,69.1,103.2,84.8,115.7L122.2,146.1z"
		/>
	<linearGradient id="SVGID_2_" gradientUnits="userSpaceOnUse" x1="128.96" y1="174.6225" x2="166.985" y2="174.6225">
		<stop  offset="0" style="stop-color:#D1008C"/>
		<stop  offset="1" style="stop-color:#9B118F"/>
	</linearGradient>
	<path class="st1" d="M139.7,149.2L129,160c14.8,10.4,22.4,20.5,26.3,28.1c0,0-0.1,0-0.1,0.1c-2.7,2.7-2.7,7.1,0,9.8s7.1,2.7,9.8,0
		s2.7-7.1,0-9.8c-0.1-0.1-0.2-0.2-0.4-0.3C163.9,172.6,146.2,155.1,139.7,149.2z"/>
	<linearGradient id="SVGID_3_" gradientUnits="userSpaceOnUse" x1="106.0931" y1="149.815" x2="151.5569" y2="149.815">
		<stop  offset="0" style="stop-color:#D1008C"/>
		<stop  offset="1" style="stop-color:#9B118F"/>
	</linearGradient>
	<path class="st2" d="M113.1,172.4c1-0.2,2-0.7,2.8-1.5c1.1-1.1,1.6-2.4,1.7-3.8l8.8-8.8l11-11l8.6-8.6c1.4-0.1,2.8-0.6,3.8-1.7
		c0.8-0.8,1.3-1.8,1.5-2.8c0.4-1.9-0.1-3.9-1.5-5.3c-1.4-1.4-3.4-1.9-5.3-1.5c-1,0.2-2,0.7-2.8,1.5c-1.1,1.1-1.6,2.4-1.7,3.8
		l-8.7,8.7l-3.9,3.9l-2.9,2.9l-4.3,4.3l-8.7,8.7c-1.4,0.1-2.8,0.6-3.8,1.7c-0.8,0.8-1.3,1.8-1.5,2.8c-0.4,1.9,0.1,3.9,1.5,5.3
		C109.2,172.3,111.2,172.8,113.1,172.4z"/>
</g>
</svg>
