<?xml version="1.0" encoding="utf-8"?>
<!-- Generator: Adobe Illustrator 25.2.0, SVG Export Plug-In . SVG Version: 6.00 Build 0)  -->
<svg version="1.1" id="Layer_1" xmlns="http://www.w3.org/2000/svg" xmlns:xlink="http://www.w3.org/1999/xlink" x="0px" y="0px"
	 viewBox="0 0 200 200" style="enable-background:new 0 0 200 200;" xml:space="preserve">
<style type="text/css">
	.st0{fill:url(#SVGID_1_);}
	.st1{fill:url(#SVGID_2_);}
	.st2{fill:url(#SVGID_3_);}
</style>
<g>
	<linearGradient id="SVGID_1_" gradientUnits="userSpaceOnUse" x1="50.41" y1="32.02" x2="149.59" y2="32.02">
		<stop  offset="0" style="stop-color:#F9C923"/>
		<stop  offset="1" style="stop-color:#EE8B2A"/>
	</linearGradient>
	<path class="st0" d="M61.2,63.7V49.6c0-21.4,17.4-38.8,38.8-38.8s38.9,17.4,38.9,38.8v14.1h7.1c1.2,0,2.5,0.1,3.7,0.4V49.6
		C149.6,22.2,127.3,0,100,0S50.4,22.2,50.4,49.6V64c1.2-0.2,2.4-0.4,3.7-0.4L61.2,63.7L61.2,63.7z"/>
	<linearGradient id="SVGID_2_" gradientUnits="userSpaceOnUse" x1="35.2536" y1="149.025" x2="164.7464" y2="149.025">
		<stop  offset="0" style="stop-color:#F9C923"/>
		<stop  offset="1" style="stop-color:#EE8B2A"/>
	</linearGradient>
	<path class="st1" d="M163.4,137.9l-9.7-39.8c-2.4,1.1-5,1.8-7.8,1.8H100H54.1c-2.8,0-5.4-0.7-7.8-1.8l-9.7,39.8
		c-1.4,5.5-1.8,11.3-0.8,16.9c0.9,5.1,2.9,9.9,5.5,14.2h0c0,0,11.2,31,58.7,31s58.7-31,58.7-31h0c2.7-4.3,4.6-9.1,5.5-14.2
		C165.2,149.2,164.8,143.4,163.4,137.9z M147.5,132.5c1.6,0,2.9,1.3,2.9,2.9c0,1.6-1.3,2.9-2.9,2.9c-1.6,0-2.9-1.3-2.9-2.9
		S145.9,132.5,147.5,132.5z M147.5,158.2c0,1.6-1.3,2.9-2.9,2.9c-1.6,0-2.9-1.3-2.9-2.9c0-1.6,1.3-2.9,2.9-2.9
		C146.2,155.3,147.5,156.6,147.5,158.2z M141.8,109.8c1.6,0,2.9,1.3,2.9,2.9c0,1.6-1.3,2.9-2.9,2.9c-1.6,0-2.9-1.3-2.9-2.9
		C138.9,111.1,140.2,109.8,141.8,109.8z M86.2,130.3c0-7.6,6.2-13.8,13.8-13.8c7.6,0,13.8,6.2,13.8,13.8c0,5.1-2.8,9.5-6.9,11.9
		l7.9,27.4H100H85.2l7.9-27.4C89.1,139.8,86.2,135.4,86.2,130.3z M58.2,109.8c1.6,0,2.9,1.3,2.9,2.9c0,1.6-1.3,2.9-2.9,2.9
		c-1.6,0-2.9-1.3-2.9-2.9C55.3,111.1,56.6,109.8,58.2,109.8z M58.3,158.2c0,1.6-1.3,2.9-2.9,2.9c-1.6,0-2.9-1.3-2.9-2.9
		c0-1.6,1.3-2.9,2.9-2.9C57,155.3,58.3,156.6,58.3,158.2z M52.5,132.5c1.6,0,2.9,1.3,2.9,2.9c0,1.6-1.3,2.9-2.9,2.9
		c-1.6,0-2.9-1.3-2.9-2.9C49.6,133.8,50.9,132.5,52.5,132.5z M72.7,181.5c-1.6,0-2.9-1.3-2.9-2.9c0-1.6,1.3-2.9,2.9-2.9
		c1.6,0,2.9,1.3,2.9,2.9C75.6,180.2,74.3,181.5,72.7,181.5z M100,187.4c-0.2,0-0.5-0.1-0.7-0.1c-1.2-0.3-2.2-1.4-2.2-2.8
		c0-1.6,1.3-2.9,2.9-2.9c1.6,0,2.9,1.3,2.9,2.9c0,1.4-0.9,2.4-2.2,2.8C100.5,187.3,100.2,187.4,100,187.4z M127.3,181.5
		c-1.6,0-2.9-1.3-2.9-2.9c0-1.6,1.3-2.9,2.9-2.9c1.6,0,2.9,1.3,2.9,2.9C130.2,180.2,128.9,181.5,127.3,181.5z"/>
	<linearGradient id="SVGID_3_" gradientUnits="userSpaceOnUse" x1="41.32" y1="81.76" x2="158.66" y2="81.76">
		<stop  offset="0" style="stop-color:#F9C923"/>
		<stop  offset="1" style="stop-color:#EE8B2A"/>
	</linearGradient>
	<path class="st2" d="M47.6,92.7c1.9,1.1,4.1,1.8,6.4,1.8H100h45.9c2.4,0,4.5-0.7,6.4-1.8c3.8-2.2,6.3-6.3,6.3-10.9
		c0-5.8-3.8-10.6-9.1-12.1c-1.2-0.3-2.4-0.6-3.7-0.6h-7.1H61.1h-7.1c-1.3,0-2.5,0.2-3.7,0.6c-5.2,1.6-9.1,6.4-9.1,12.1
		C41.3,86.4,43.9,90.5,47.6,92.7z"/>
</g>
</svg>
