<?xml version="1.0" encoding="utf-8"?>
<!-- Generator: Adobe Illustrator 25.2.0, SVG Export Plug-In . SVG Version: 6.00 Build 0)  -->
<svg version="1.1" id="Layer_1" xmlns="http://www.w3.org/2000/svg" xmlns:xlink="http://www.w3.org/1999/xlink" x="0px" y="0px"
	 viewBox="0 0 200 200" style="enable-background:new 0 0 200 200;" xml:space="preserve">
<style type="text/css">
	.st0{fill:url(#SVGID_1_);}
	.st1{fill:url(#SVGID_2_);}
	.st2{fill:url(#SVGID_3_);}
</style>
<g>
	<linearGradient id="SVGID_1_" gradientUnits="userSpaceOnUse" x1="10.9619" y1="62.527" x2="189.0376" y2="62.527">
		<stop  offset="0" style="stop-color:#E30084"/>
		<stop  offset="1" style="stop-color:#B7008D"/>
	</linearGradient>
	<path class="st0" d="M170.7,60.5c-21.6-11.9-40.9,0.2-53.8,13.5c6.2-9.4,12.1-20.3,13.8-29.5C134.4,24.7,100,0,100,0
		S65.6,24.7,69.3,44.5C71,53.7,76.9,64.6,83.1,74C70.2,60.8,50.9,48.7,29.3,60.5c-35,19.2-14.6,66.2,17.4,64.5
		c10.4-0.6,20.1-7,22.3-17.2c1.5-6.8,0-15.6-12.7-17.5c0,0-17.9-0.3-11.6,17.4c0,0-17.8-9.5-7.2-23.1c11.4-14.6,38.6-4,45.3,15H98
		l0.1-5.5l0-0.9l1.8-69.5l1.8,69.5l0,0.9l0.2,5.6h15.1c6.7-19.1,33.9-29.6,45.3-15c10.6,13.6-7.1,23.1-7.1,23.1
		c6.3-17.8-11.6-17.4-11.6-17.4C131,92.2,129.5,101,131,107.8c2.2,10.2,11.9,16.6,22.3,17.2C185.3,126.7,205.7,79.7,170.7,60.5z"/>
	<linearGradient id="SVGID_2_" gradientUnits="userSpaceOnUse" x1="43.58" y1="159.56" x2="156.41" y2="159.56">
		<stop  offset="0" style="stop-color:#E30084"/>
		<stop  offset="1" style="stop-color:#B7008D"/>
	</linearGradient>
	<path class="st1" d="M128.2,135.6c-9-2.9-12.1-10.1-13-16.5h-11.5H102l-0.2,5.5l-1.8,50.4l-1.8-50.3l-0.2-5.6h-1.8H84.8
		c-0.9,6.4-4,13.7-13,16.5c-17.5,5.6-28.2-2-28.2-2s4.8,26.6,31.4,19.5c7.4-2,12.6-6.4,16.3-11.8v4.8c0,5.3-1.9,10.4-5.4,14.4
		l-4.7,5.4c-3.7,4.2-3.6,10.6,0.3,14.6L100,200l18.6-19.4c3.9-4.1,4-10.4,0.3-14.6l-4.7-5.4c-3.5-4-5.4-9.1-5.4-14.4v-4.8
		c3.7,5.3,8.9,9.8,16.3,11.8c26.6,7.1,31.4-19.5,31.4-19.5S145.7,141.2,128.2,135.6z"/>
	<linearGradient id="SVGID_3_" gradientUnits="userSpaceOnUse" x1="76.96" y1="109.46" x2="123.05" y2="109.46">
		<stop  offset="0" style="stop-color:#E30084"/>
		<stop  offset="1" style="stop-color:#B7008D"/>
	</linearGradient>
	<path class="st2" d="M85.1,115.1H98h1.8h0.6h1.8h12.9h2.5c3.1,0,5.6-2.5,5.6-5.6c0-3.1-2.5-5.6-5.6-5.6H116h-16H84.1h-1.5
		c-3.1,0-5.6,2.5-5.6,5.6c0,3.1,2.5,5.6,5.6,5.6H85.1z"/>
</g>
</svg>
