<?xml version="1.0" encoding="utf-8"?>
<!-- Generator: Adobe Illustrator 25.2.0, SVG Export Plug-In . SVG Version: 6.00 Build 0)  -->
<svg version="1.1" id="Layer_1" xmlns="http://www.w3.org/2000/svg" xmlns:xlink="http://www.w3.org/1999/xlink" x="0px" y="0px"
	 viewBox="0 0 200 200" style="enable-background:new 0 0 200 200;" xml:space="preserve">
<style type="text/css">
	.st0{fill:url(#SVGID_1_);}
	.st1{fill:url(#SVGID_2_);}
	.st2{fill:url(#SVGID_3_);}
	.st3{fill:url(#SVGID_4_);}
</style>
<g>
	<g>
		<linearGradient id="SVGID_1_" gradientUnits="userSpaceOnUse" x1="0" y1="70.575" x2="63.74" y2="70.575">
			<stop  offset="0" style="stop-color:#EB732B"/>
			<stop  offset="1" style="stop-color:#E5122B"/>
		</linearGradient>
		<path class="st0" d="M2.4,44.8L0,47.2c0,0,14.6,35.5,63.7,49.1c0,0-3.5-3.6-7.3-8.4C28.7,78.2,10,55.5,2.4,44.8z"/>
		<linearGradient id="SVGID_2_" gradientUnits="userSpaceOnUse" x1="4.63" y1="99.9975" x2="200.01" y2="99.9975">
			<stop  offset="0" style="stop-color:#EB732B"/>
			<stop  offset="1" style="stop-color:#E5122B"/>
		</linearGradient>
		<path class="st1" d="M179.9,150.8L86.4,57.3c0.3-1.9-0.3-3.9-1.8-5.4L58.4,25.6c-2.5-2.5-6.4-2.5-8.9,0c-2,2-2.3,5-1.1,7.4
			c-8,6.3-22.1,13.5-37.9,3.7l-5.8,5.8c6.7,9.6,23.6,30.5,48.5,40.8c-5.8-8.7-9.7-19.1,1.2-22.5c0,0,7.3-1,12,3.7
			c0,0-2.9-5.2,0.4-12.7l9,9c1.5,1.5,3.5,2,5.4,1.8l93.5,93.5c-0.8,3.6,0.8,8.1,4.4,11.7c4.9,4.9,21,8.4,21,8.4s-3.5-16.1-8.4-21
			C188,151.6,183.4,150.1,179.9,150.8z"/>
	</g>
	<g>
		<linearGradient id="SVGID_3_" gradientUnits="userSpaceOnUse" x1="136.26" y1="70.575" x2="200" y2="70.575">
			<stop  offset="0" style="stop-color:#EB732B"/>
			<stop  offset="1" style="stop-color:#E5122B"/>
		</linearGradient>
		<path class="st2" d="M197.6,44.8l2.4,2.4c0,0-14.6,35.5-63.7,49.1c0,0,3.6-3.6,7.3-8.4C171.3,78.2,190,55.5,197.6,44.8z"/>
		<linearGradient id="SVGID_4_" gradientUnits="userSpaceOnUse" x1="0" y1="99.9975" x2="195.37" y2="99.9975">
			<stop  offset="0" style="stop-color:#EB732B"/>
			<stop  offset="1" style="stop-color:#E5122B"/>
		</linearGradient>
		<path class="st3" d="M20.1,150.8l93.5-93.5c-0.3-1.9,0.3-3.9,1.8-5.4l26.3-26.3c2.5-2.5,6.4-2.5,8.9,0c2,2,2.4,5,1.1,7.4
			c8,6.3,22.1,13.5,37.9,3.7l5.8,5.8c-6.7,9.6-23.6,30.5-48.5,40.8c5.8-8.7,9.7-19.1-1.2-22.5c0,0-7.3-1-12,3.7
			c0,0,2.9-5.2-0.4-12.7l-9,9c-1.5,1.5-3.5,2-5.4,1.8L25.4,156c0.8,3.6-0.8,8.1-4.4,11.7c-4.9,4.9-21,8.4-21,8.4s3.5-16.1,8.4-21
			C12,151.6,16.6,150.1,20.1,150.8z"/>
	</g>
</g>
</svg>
