<?xml version="1.0" encoding="utf-8"?>
<!-- Generator: Adobe Illustrator 25.2.0, SVG Export Plug-In . SVG Version: 6.00 Build 0)  -->
<svg version="1.1" id="Layer_1" xmlns="http://www.w3.org/2000/svg" xmlns:xlink="http://www.w3.org/1999/xlink" x="0px" y="0px"
	 viewBox="0 0 200 200" style="enable-background:new 0 0 200 200;" xml:space="preserve">
<style type="text/css">
	.st0{fill:url(#SVGID_1_);}
	.st1{fill:url(#SVGID_2_);}
	.st2{fill:url(#SVGID_3_);}
	.st3{fill:url(#SVGID_4_);}
	.st4{fill:url(#SVGID_5_);}
</style>
<g>
	<linearGradient id="SVGID_1_" gradientUnits="userSpaceOnUse" x1="0" y1="71.495" x2="200" y2="71.495">
		<stop  offset="0" style="stop-color:#FAE822"/>
		<stop  offset="1" style="stop-color:#F4AA28"/>
	</linearGradient>
	<path class="st0" d="M84.6,99.7c-11.7,11.4-21.5,21.1-27.5,27.1h13.8l20.6-20c0.6,0.6,1.2,1.2,1.7,1.8l-20,20.5V143
		c6-6,15.6-15.7,26.8-27.3c11.3,11.6,20.8,21.2,26.8,27.3v-13.8l-20-20.5c0.6-0.6,1.2-1.2,1.7-1.8l20.6,20H143
		c-6.1-6.1-15.8-15.7-27.6-27.1C151.2,62.5,194.3,15.4,200,0c-15.5,5.7-62.7,49-100,84.8C62.7,49,15.5,5.7,0,0
		C5.7,15.4,48.8,62.5,84.6,99.7z M100,101.6l-1.6-1.6l1.6-1.5l1.6,1.5L100,101.6z M156.7,43.3l-48.3,49.7c-0.4-0.4-0.9-0.9-1.4-1.3
		L156.7,43.3z M91.6,92.9L43.3,43.3l49.7,48.4C92.5,92.1,92,92.5,91.6,92.9z"/>
	<linearGradient id="SVGID_2_" gradientUnits="userSpaceOnUse" x1="110.17" y1="141.66" x2="173.15" y2="141.66">
		<stop  offset="0" style="stop-color:#FAE822"/>
		<stop  offset="1" style="stop-color:#F4AA28"/>
	</linearGradient>
	<path class="st1" d="M152.4,137.8l0.5-0.5l1.9-1.9l1.6-1.6l7.2-7.2c2.5,0.4,5.2-0.4,7.1-2.3c3.2-3.2,3.2-8.5,0-11.7
		s-8.5-3.2-11.7,0c-1.9,1.9-2.7,4.6-2.3,7.1l-7.2,7.2l-1.6,1.6l-1.6,1.6l-0.8,0.8h-12.2h-2.4v2.4v12.2l-0.8,0.8l-1.6,1.6l-1.6,1.6
		l-7.2,7.2c-2.5-0.4-5.2,0.4-7.1,2.3c-3.2,3.2-3.2,8.5,0,11.7c3.2,3.2,8.5,3.2,11.7,0c1.9-1.9,2.7-4.6,2.3-7.1l7.2-7.2l1.6-1.6
		l1.9-1.9l0.5-0.5h14.6V137.8z"/>
	<linearGradient id="SVGID_3_" gradientUnits="userSpaceOnUse" x1="141.64" y1="170.83" x2="200" y2="170.83">
		<stop  offset="0" style="stop-color:#FAE822"/>
		<stop  offset="1" style="stop-color:#F4AA28"/>
	</linearGradient>
	<path class="st2" d="M198,178.4h-10.7l-30.8-36.8v14.8l0,0h-14.8l36.8,30.8V198c0,1.1,0.9,2,2,2H198c1.1,0,2-0.9,2-2v-17.5
		C200,179.4,199.1,178.4,198,178.4z"/>
	<linearGradient id="SVGID_4_" gradientUnits="userSpaceOnUse" x1="26.85" y1="141.66" x2="89.83" y2="141.66">
		<stop  offset="0" style="stop-color:#FAE822"/>
		<stop  offset="1" style="stop-color:#F4AA28"/>
	</linearGradient>
	<path class="st3" d="M80.3,156.7l-7.2-7.2l-1.6-1.6l-1.6-1.6l-0.8-0.8v-12.2v-2.4h-2.4H54.5l-0.8-0.8l-1.6-1.6l-1.6-1.6l-7.2-7.2
		c0.4-2.5-0.4-5.2-2.3-7.1c-3.2-3.2-8.5-3.2-11.7,0s-3.2,8.5,0,11.7c1.9,1.9,4.6,2.7,7.1,2.3l7.2,7.2l1.6,1.6l2,1.9l0.5,0.5v14.6
		h14.6l0.5,0.5l2,1.9l1.6,1.6l7.2,7.2c-0.4,2.5,0.4,5.2,2.3,7.1c3.2,3.2,8.5,3.2,11.7,0s3.2-8.5,0-11.7
		C85.5,157.1,82.8,156.3,80.3,156.7z"/>
	<linearGradient id="SVGID_5_" gradientUnits="userSpaceOnUse" x1="0" y1="170.825" x2="58.36" y2="170.825">
		<stop  offset="0" style="stop-color:#FAE822"/>
		<stop  offset="1" style="stop-color:#F4AA28"/>
	</linearGradient>
	<path class="st4" d="M43.5,156.5L43.5,156.5v-14.8l-30.8,36.8H2c-1.1,0-2,0.9-2,2V198c0,1.1,0.9,2,2,2h17.5c1.1,0,2-0.9,2-2v-10.7
		l36.8-30.8L43.5,156.5z"/>
</g>
</svg>
