<?xml version="1.0" encoding="utf-8"?>
<!-- Generator: Adobe Illustrator 25.2.0, SVG Export Plug-In . SVG Version: 6.00 Build 0)  -->
<svg version="1.1" id="Layer_1" xmlns="http://www.w3.org/2000/svg" xmlns:xlink="http://www.w3.org/1999/xlink" x="0px" y="0px"
	 viewBox="0 0 200 200" style="enable-background:new 0 0 200 200;" xml:space="preserve">
<style type="text/css">
	.st0{fill:url(#SVGID_1_);}
	.st1{fill:url(#SVGID_2_);}
	.st2{fill:url(#SVGID_3_);}
</style>
<g>
	<linearGradient id="SVGID_1_" gradientUnits="userSpaceOnUse" x1="13.24" y1="100" x2="186.77" y2="100">
		<stop  offset="0" style="stop-color:#E8552A"/>
		<stop  offset="1" style="stop-color:#E40037"/>
	</linearGradient>
	<path class="st0" d="M180.6,113.2c-1.6-1.5-2.6-3.5-3-5.5c-0.3-1.4,0.2-4.6,0.4-7.3l0.8-8.4c0.2-2.9,0.6-5.4,0.8-8.6
		c0.2-3.7-0.5-7.5-2-11c-3-7-9.4-12.7-17.3-14.8c-1.1-0.2-2.5-0.5-3.3-0.6l-1-0.2l-0.5-0.1l-1.2,0c-2-0.1-4.1,0-6.2,0.5
		c-4.1,0.8-8.1,2.5-11.5,5c-3.4,2.6-6.3,5.9-8.4,9.8c-1,1.9-1.8,4-2.4,6.2c-0.3,1.2-0.6,2.8-0.7,3.7l-0.2,1l-0.1,0.5l0,0.1l0,0.6
		l0,0.1l0,0.3l-2.9,31.1l-15.7,1.8V62.4c8.8-1,15.3-5,15.3-17.3c0-15.1-21.6-37.2-21.6-37.2S78.5,29.9,78.5,45
		c0,12.4,6.5,16.3,15.3,17.3v54.9l-15.7-1.8l-2.9-31.1l0-0.3l0-0.1l0-0.6l0-0.1l-0.1-0.5l-0.2-1c-0.1-0.9-0.4-2.5-0.7-3.7
		c-0.6-2.2-1.4-4.2-2.4-6.2c-2.1-3.9-5-7.2-8.4-9.8c-3.4-2.5-7.4-4.2-11.5-5c-2-0.4-4.1-0.5-6.2-0.5l-1.2,0l-0.5,0.1l-1,0.2
		c-0.8,0.1-2.2,0.4-3.3,0.6c-7.9,2.1-14.3,7.8-17.3,14.8c-1.5,3.5-2.2,7.3-2,11c0.2,3.1,0.5,5.7,0.8,8.6l0.8,8.4
		c0.2,2.8,0.7,5.9,0.4,7.3c-0.3,2-1.3,4-3,5.5c-1.6,1.6-3.8,2.6-6.1,2.8l0,0v4c3.2,0.2,6.6-0.5,9.5-2.4c2.9-1.8,5.2-4.7,6.5-8
		c0.3-0.8,0.6-1.7,0.8-2.7c0.2-1,0.2-1.3,0.3-2.4l0.4-4.2l0.8-8.4c0.3-2.7,0.5-5.8,0.8-8.2c0.3-1.9,1.1-3.7,2.1-5.2
		c2.1-3,5.5-4.7,8.6-4.8c0.3,0.1,0.3,0,0.9,0.1l1,0l0.5,0h0c0.4,0-0.5,0-0.4,0l0,0l0.1,0l0.1,0c0.8,0.2,1.5,0.4,2.1,0.7
		c1.3,0.6,2.5,1.5,3.3,2.6c0.8,1.1,1.4,2.3,1.7,3.5c0.2,0.6,0.2,1.2,0.2,1.8c-0.1,0.2-0.1,0-0.1,0.5l0,1.1l0,0.5v0.1v0
		c0,0.1,0-1.1,0-0.5l0,0.1l0,0.3l-2.8,30.2l-10.8,19.6h54.9v15.9L75.9,168l24.1,24.1l24.1-24.1l-17.9-17.9v-15.9h54.9l-10.7-19.6
		l-2.8-30.2l0-0.3l0-0.1c0-0.5,0,0.7,0,0.5v0v-0.1l0-0.5l0-1.1c0-0.5,0-0.3-0.1-0.5c0-0.6,0-1.2,0.2-1.8c0.3-1.2,0.8-2.4,1.7-3.5
		c0.9-1.1,2-1.9,3.3-2.6c0.7-0.3,1.4-0.5,2.1-0.7l0.1,0l0.1,0l0,0c0.1,0-0.8,0-0.4,0h0l0.5,0l1.1,0c0.6,0,0.6,0,0.9-0.1
		c3.1,0.1,6.5,1.8,8.6,4.8c1.1,1.5,1.8,3.2,2.1,5.2c0.3,2.5,0.5,5.5,0.8,8.2l0.8,8.4l0.4,4.2c0.1,1.2,0.1,1.4,0.3,2.4
		c0.2,1,0.4,1.9,0.8,2.7c1.3,3.4,3.6,6.2,6.5,8c2.9,1.9,6.3,2.6,9.5,2.4v-4l0,0C184.4,115.7,182.2,114.7,180.6,113.2z"/>
	<linearGradient id="SVGID_2_" gradientUnits="userSpaceOnUse" x1="186.77" y1="109.45" x2="199.9996" y2="109.45">
		<stop  offset="0" style="stop-color:#E8552A"/>
		<stop  offset="1" style="stop-color:#E40037"/>
	</linearGradient>
	<path class="st1" d="M199.9,103.8c0,0.2,0,0.3-0.1,0.4c-0.1-3-2.6-5.3-5.6-5.3c-3.1,0-5.6,2.5-5.6,5.6s2.5,5.6,5.6,5.6
		c2.6,0,4.7-1.8,5.3-4.3c-0.2,1.1-0.4,2.2-0.9,3.1c-0.7,1.6-1.8,3-3,4.1c-2.5,2.2-5.8,3.3-8.9,2.9v4c4.2-0.3,8-2.5,10.4-5.6
		c1.2-1.6,2-3.3,2.5-5.2C200.1,107.4,200.1,105.6,199.9,103.8z"/>
	<linearGradient id="SVGID_3_" gradientUnits="userSpaceOnUse" x1="-9.569925e-03" y1="109.45" x2="13.22" y2="109.45">
		<stop  offset="0" style="stop-color:#E8552A"/>
		<stop  offset="1" style="stop-color:#E40037"/>
	</linearGradient>
	<path class="st2" d="M4.3,113.1c-1.2-1.1-2.3-2.5-3-4.1c-0.5-1-0.7-2-0.9-3.1c0.6,2.4,2.7,4.3,5.3,4.3c3.1,0,5.6-2.5,5.6-5.6
		s-2.5-5.6-5.6-5.6c-3,0-5.4,2.4-5.6,5.3c0-0.2,0-0.3-0.1-0.4c-0.2,1.8-0.2,3.7,0.2,5.5c0.4,1.8,1.3,3.6,2.5,5.2
		c2.4,3.1,6.2,5.3,10.4,5.6v-4l0,0C10.2,116.3,6.8,115.3,4.3,113.1z"/>
</g>
</svg>
