<?xml version="1.0" encoding="utf-8"?>
<!-- Generator: Adobe Illustrator 25.2.0, SVG Export Plug-In . SVG Version: 6.00 Build 0)  -->
<svg version="1.1" id="Layer_1" xmlns="http://www.w3.org/2000/svg" xmlns:xlink="http://www.w3.org/1999/xlink" x="0px" y="0px"
	 viewBox="0 0 200 200" style="enable-background:new 0 0 200 200;" xml:space="preserve">
<style type="text/css">
	.st0{fill:url(#SVGID_1_);}
</style>
<linearGradient id="SVGID_1_" gradientUnits="userSpaceOnUse" x1="44.67" y1="99.99" x2="155.3253" y2="99.99">
	<stop  offset="0" style="stop-color:#E6322B"/>
	<stop  offset="1" style="stop-color:#E40043"/>
</linearGradient>
<path class="st0" d="M154.4,126.6c-1.6-10-4.7-19.7-7-29.5c-3-13-4.4-26.9,0.9-39.1c-16.3,4.8-25.3,26.9-17.9,41.8
	c1.7,3.4,4.1,6.5,5.7,10s2.2,7.8,0.2,11.1c-3.2,5.5-12.2,5.1-16.7,0.5s-5.5-11.5-5.5-17.9c0-6.3,0.9-12.6,3.4-18.4
	c2.5-5.8,6.6-10.8,9.3-16.5c6.9-14.6,2.9-30.5-4.1-44.2c-6.4-12.5-20.2-19-33.2-24.3c7.1,7.7,8.6,19.3,5.9,29.5
	c-2.6,9.4-9.5,17.1-13,26.1c-4.2,10.6-1.8,20.1,3.9,29.8c4.9,8.4,11.1,16.5,12.4,26.1c1.1,8.2-4.1,20-13.8,19
	c-9.4-1-14.1-12.6-14.5-20.8c-0.1-3.8,0.2-7.7,0.5-11.5c0.6-5.9,1.1-11.7-0.2-17.4c-2.4-10.3-11.1-18.8-21.4-21
	c8,15.7,3.3,33.2-0.5,49.4c-2.6,11.3-4.3,24-4.3,35.8c0,30.4,24.6,54.9,54.9,54.9C138.6,200,160.1,162.3,154.4,126.6z"/>
</svg>
