<?xml version="1.0" encoding="utf-8"?>
<!-- Generator: Adobe Illustrator 25.2.0, SVG Export Plug-In . SVG Version: 6.00 Build 0)  -->
<svg version="1.1" id="Layer_1" xmlns="http://www.w3.org/2000/svg" xmlns:xlink="http://www.w3.org/1999/xlink" x="0px" y="0px"
	 viewBox="0 0 200 200" style="enable-background:new 0 0 200 200;" xml:space="preserve">
<style type="text/css">
	.st0{fill:url(#SVGID_1_);}
	.st1{fill:url(#SVGID_2_);}
	.st2{fill:url(#SVGID_3_);}
	.st3{fill:url(#SVGID_4_);}
	.st4{fill:url(#SVGID_5_);}
</style>
<g>
	<linearGradient id="SVGID_1_" gradientUnits="userSpaceOnUse" x1="27.5067" y1="100" x2="172.5233" y2="100">
		<stop  offset="0" style="stop-color:#BB008D"/>
		<stop  offset="1" style="stop-color:#871A8F"/>
	</linearGradient>
	<path class="st0" d="M161.7,64.5c0,0-1.4,26.2-11.9,34.3c-0.3-10.3-3.8-19.9-9.4-27.7l14.8-24.2c0.8,0.5,1.7,0.9,2.8,0.9
		c3,0,5.4-2.4,5.4-5.4s-2.4-5.4-5.4-5.4s-5.4,2.4-5.4,5.4c0,1,0.4,1.9,0.9,2.8l-24.1,14.8c-7.8-5.7-17.4-9.1-27.7-9.4
		c8.1-10.5,34.3-11.9,34.3-11.9c-8.2-24.3-35.7,0-35.7,0s-27.5-24.3-35.7,0c0,0,26.2,1.4,34.3,11.9c-10.3,0.3-19.9,3.8-27.7,9.4
		L46.7,45.2c0.5-0.8,0.9-1.7,0.9-2.8c0-3-2.4-5.4-5.4-5.4s-5.4,2.4-5.4,5.4s2.4,5.4,5.4,5.4c1,0,1.9-0.4,2.8-0.9l14.8,24.2
		c-5.7,7.8-9.1,17.4-9.4,27.7c-10.5-8.1-11.9-34.3-11.9-34.3c-24.3,8.2,0,35.7,0,35.7s-24.3,27.5,0,35.7c0,0,1.4-26.2,11.9-34.3
		c0.3,10.2,3.7,19.7,9.3,27.5l-14.6,23.9c-0.8-0.5-1.7-0.9-2.8-0.9c-3,0-5.4,2.4-5.4,5.4s2.4,5.4,5.4,5.4s5.4-2.4,5.4-5.4
		c0-1-0.4-1.9-0.9-2.8l23.8-14.5c7.8,5.8,17.3,9.3,27.6,9.7c-8.5,10.1-33.8,11.4-33.8,11.4c8.2,24.3,35.7,0,35.7,0s27.5,24.3,35.7,0
		c0,0-25.3-1.4-33.8-11.4c10.3-0.4,19.8-3.9,27.6-9.7l23.8,14.5c-0.5,0.8-0.9,1.7-0.9,2.8c0,3,2.4,5.4,5.4,5.4s5.4-2.4,5.4-5.4
		s-2.4-5.4-5.4-5.4c-1,0-1.9,0.4-2.8,0.9l-14.6-23.9c5.6-7.8,9-17.2,9.3-27.5c10.5,8.1,11.9,34.3,11.9,34.3c24.3-8.2,0-35.7,0-35.7
		S186,72.7,161.7,64.5z M143.8,96.7c-3.5-1.8-9.6-3.1-16.6-3.1c-6.6,0-12.4,1.1-16,2.8c-0.3-0.9-0.7-1.7-1.2-2.5l26.7-16.8l0.4-0.6
		C140.7,82.5,143.2,89.3,143.8,96.7z M123.7,63.3l-0.6,0.3l-16.8,26.7c-0.8-0.5-1.6-0.9-2.5-1.2c1.7-3.6,2.8-9.4,2.8-16
		c0-7-1.2-13.1-3.1-16.6C110.9,57.1,117.8,59.5,123.7,63.3z M96.4,56.5c-1.8,3.5-3.1,9.6-3.1,16.6c0,6.6,1.1,12.4,2.8,16
		c-0.9,0.3-1.7,0.7-2.5,1.2L76.9,63.7l-0.6-0.3C82.2,59.5,89.1,57.1,96.4,56.5z M63,76.6l0.3,0.6l26.7,16.8
		c-0.5,0.8-0.9,1.6-1.2,2.5c-3.6-1.7-9.4-2.8-16-2.8c-7,0-13.1,1.2-16.6,3.1C56.8,89.3,59.2,82.5,63,76.6z M56.2,103.8
		c3.5,1.8,9.6,3.1,16.6,3.1c6.6,0,12.4-1.1,16-2.8c0.2,0.7,0.6,1.4,1,2.1l-26.5,16.6l-0.5,0.8C59.2,117.8,56.8,111.1,56.2,103.8z
		 M75.9,136.9l1-0.6L93.4,110c0.8,0.6,1.8,1,2.7,1.3c-1.7,3.6-2.8,9.4-2.8,16c0,7,1.2,13.1,3.1,16.6
		C88.9,143.4,81.9,140.9,75.9,136.9z M103.6,144c1.8-3.5,3.1-9.6,3.1-16.6c0-6.6-1.1-12.4-2.8-16c1-0.3,1.9-0.8,2.7-1.3l16.5,26.3
		l1,0.6C118.1,140.9,111.1,143.4,103.6,144z M137.1,123.7l-0.5-0.8l-26.5-16.6c0.4-0.7,0.7-1.4,1-2.1c3.6,1.7,9.4,2.8,16,2.8
		c7,0,13.1-1.2,16.6-3.1C143.2,111.1,140.8,117.8,137.1,123.7z"/>
	<linearGradient id="SVGID_2_" gradientUnits="userSpaceOnUse" x1="161.7" y1="100.265" x2="200" y2="100.265">
		<stop  offset="0" style="stop-color:#BB008D"/>
		<stop  offset="1" style="stop-color:#871A8F"/>
	</linearGradient>
	<path class="st1" d="M180.9,90.2c-10.6,0-19.1,10.1-19.1,10.1s8.6,10.1,19.1,10.1c10.6,0,19.1-10.1,19.1-10.1
		S191.4,90.2,180.9,90.2z"/>
	<linearGradient id="SVGID_3_" gradientUnits="userSpaceOnUse" x1="89.93" y1="19.41" x2="110.07" y2="19.41">
		<stop  offset="0" style="stop-color:#BB008D"/>
		<stop  offset="1" style="stop-color:#871A8F"/>
	</linearGradient>
	<path class="st2" d="M110.1,19.4C110.1,8.8,100,0.3,100,0.3S89.9,8.8,89.9,19.4C89.9,30,100,38.6,100,38.6S110.1,30,110.1,19.4z"/>
	<linearGradient id="SVGID_4_" gradientUnits="userSpaceOnUse" x1="0" y1="100.265" x2="38.3" y2="100.265">
		<stop  offset="0" style="stop-color:#BB008D"/>
		<stop  offset="1" style="stop-color:#871A8F"/>
	</linearGradient>
	<path class="st3" d="M19.1,90.2C8.6,90.2,0,100.3,0,100.3s8.6,10.1,19.1,10.1s19.1-10.1,19.1-10.1S29.7,90.2,19.1,90.2z"/>
	<linearGradient id="SVGID_5_" gradientUnits="userSpaceOnUse" x1="89.93" y1="180.59" x2="110.07" y2="180.59">
		<stop  offset="0" style="stop-color:#BB008D"/>
		<stop  offset="1" style="stop-color:#871A8F"/>
	</linearGradient>
	<path class="st4" d="M89.9,180.6c0,10.6,10.1,19.1,10.1,19.1s10.1-8.6,10.1-19.1c0-10.6-10.1-19.1-10.1-19.1S89.9,170,89.9,180.6z"
		/>
</g>
</svg>
