<?xml version="1.0" encoding="utf-8"?>
<!-- Generator: Adobe Illustrator 25.2.0, SVG Export Plug-In . SVG Version: 6.00 Build 0)  -->
<svg version="1.1" id="Layer_1" xmlns="http://www.w3.org/2000/svg" xmlns:xlink="http://www.w3.org/1999/xlink" x="0px" y="0px"
	 viewBox="0 0 200 200" style="enable-background:new 0 0 200 200;" xml:space="preserve">
<style type="text/css">
	.st0{fill:url(#SVGID_1_);}
	.st1{fill:url(#SVGID_2_);}
</style>
<g>
	<linearGradient id="SVGID_1_" gradientUnits="userSpaceOnUse" x1="7.381192e-04" y1="104.4296" x2="57.18" y2="104.4296">
		<stop  offset="0" style="stop-color:#FAE922"/>
		<stop  offset="1" style="stop-color:#F4AD28"/>
	</linearGradient>
	<path class="st0" d="M9.6,75.8c-3.2,1-6.4,1.9-9.6,2.6c0,0-1.3,18.4,17.5,37.1S54.6,133,54.6,133c0.7-3.1,1.5-6.3,2.6-9.6
		c-7.3-1.4-18.8-5.5-30.4-17.2C15.1,94.6,11,83.2,9.6,75.8z"/>
	<linearGradient id="SVGID_2_" gradientUnits="userSpaceOnUse" x1="12.6" y1="99.9942" x2="199.99" y2="99.9942">
		<stop  offset="0" style="stop-color:#FAE922"/>
		<stop  offset="1" style="stop-color:#F4AD28"/>
	</linearGradient>
	<path class="st1" d="M82.6,42.3L79.8,44l-3.4,2.1l-5.7-5.7l-2.3-2.3L66.3,36c0.8-3,0-6.4-2.4-8.7c-3.6-3.6-16.3-3.4-16.3-3.4
		S47.5,36.6,51,40.2c2.4,2.4,5.7,3.1,8.7,2.4l0.9,0.9l2.3,2.3l0.8,0.8c0,0-25.3,19.1-51.1,28.4c1.3,6.8,5.1,18,16.4,29.2
		s22.4,15.1,29.2,16.4c9.2-25.8,28.4-51.1,28.4-51.1l0.8,0.8l2.3,2.3l103.8,103.8l6.6-6.6L94.9,64.5l-2.3-2.3l-5.7-5.7l2.1-3.4
		l1.7-2.8L104.1,29L82.6,42.3z"/>
</g>
</svg>
