<?xml version="1.0" encoding="utf-8"?>
<!-- Generator: Adobe Illustrator 25.2.0, SVG Export Plug-In . SVG Version: 6.00 Build 0)  -->
<svg version="1.1" id="Layer_1" xmlns="http://www.w3.org/2000/svg" xmlns:xlink="http://www.w3.org/1999/xlink" x="0px" y="0px"
	 viewBox="0 0 200 200" style="enable-background:new 0 0 200 200;" xml:space="preserve">
<style type="text/css">
	.st0{fill:url(#SVGID_1_);}
</style>
<linearGradient id="SVGID_1_" gradientUnits="userSpaceOnUse" x1="0" y1="100.005" x2="200" y2="100.005">
	<stop  offset="0" style="stop-color:#68BE49"/>
	<stop  offset="1" style="stop-color:#2CAA51"/>
</linearGradient>
<path class="st0" d="M181.4,37.9c0,6,3,11.2,7.4,14.6v88.4c-0.9,1.9-1.8,3.8-2.8,5.4c-4.9,8.1-17.3,8.1-22.3,0
	c-1.4-2.3-2.6-5.1-3.7-7.9V53.2c5-3.3,8.3-8.8,8.3-15.2c0-10.2-18.4-30.6-18.4-30.6S131.4,27.7,131.4,38c0,5.6,2.6,10.4,6.4,13.8
	v91.1c-0.6,1.2-1.1,2.4-1.8,3.6c-4.9,8.1-17.3,8.1-22.3,0c-1-1.7-1.9-3.6-2.7-5.4V52.5c4.4-3.3,7.3-8.6,7.3-14.6
	c0-10.2-18.4-30.5-18.4-30.5S81.4,27.7,81.4,37.9c0,6,3,11.2,7.4,14.6v88.4c-0.9,1.9-1.8,3.8-2.8,5.4c-4.9,8.1-17.3,8.1-22.3,0
	c-1-1.7-1.9-3.6-2.7-5.4V52.5c4.4-3.3,7.3-8.6,7.3-14.6C68.4,27.7,50,7.4,50,7.4S31.4,27.7,31.4,37.9c0,6,3,11.2,7.4,14.6v88.4
	c-0.9,1.9-1.8,3.8-2.8,5.4c-4.9,8.1-17.3,8.1-22.3,0c-1-1.7-1.9-3.6-2.7-5.4V52.5c4.4-3.3,7.3-8.6,7.3-14.6C18.4,27.7,0,7.4,0,7.4
	v147.7v9.8v27.8h200v-27.8v-9.8V7.4C200,7.4,181.4,27.7,181.4,37.9z M14.5,176.8c-2.5,0-4.6-2.1-4.6-4.6c0-2.5,2.1-4.6,4.6-4.6
	c2.5,0,4.6,2.1,4.6,4.6C19.1,174.7,17,176.8,14.5,176.8z M33.5,176.8c-2.5,0-4.6-2.1-4.6-4.6c0-2.5,2.1-4.6,4.6-4.6
	c2.5,0,4.6,2.1,4.6,4.6S36,176.8,33.5,176.8z M52.5,176.8c-2.5,0-4.6-2.1-4.6-4.6c0-2.5,2.1-4.6,4.6-4.6c2.5,0,4.6,2.1,4.6,4.6
	C57.1,174.7,55,176.8,52.5,176.8z M71.5,176.8c-2.5,0-4.6-2.1-4.6-4.6c0-2.5,2.1-4.6,4.6-4.6s4.6,2.1,4.6,4.6
	C76.1,174.7,74,176.8,71.5,176.8z M90.5,176.8c-2.5,0-4.6-2.1-4.6-4.6c0-2.5,2.1-4.6,4.6-4.6c2.5,0,4.6,2.1,4.6,4.6
	C95.1,174.7,93,176.8,90.5,176.8z M109.5,176.8c-2.5,0-4.6-2.1-4.6-4.6c0-2.5,2.1-4.6,4.6-4.6c2.5,0,4.6,2.1,4.6,4.6
	S112,176.8,109.5,176.8z M128.5,176.8c-2.5,0-4.6-2.1-4.6-4.6c0-2.5,2.1-4.6,4.6-4.6c2.5,0,4.6,2.1,4.6,4.6S131,176.8,128.5,176.8z
	 M147.5,176.8c-2.5,0-4.6-2.1-4.6-4.6c0-2.5,2.1-4.6,4.6-4.6c2.5,0,4.6,2.1,4.6,4.6C152.1,174.7,150,176.8,147.5,176.8z
	 M166.5,176.8c-2.5,0-4.6-2.1-4.6-4.6c0-2.5,2.1-4.6,4.6-4.6c2.5,0,4.6,2.1,4.6,4.6S169,176.8,166.5,176.8z M185.5,176.8
	c-2.5,0-4.6-2.1-4.6-4.6c0-2.5,2.1-4.6,4.6-4.6c2.5,0,4.6,2.1,4.6,4.6S188,176.8,185.5,176.8z"/>
</svg>
