<?xml version="1.0" encoding="utf-8"?>
<!-- Generator: Adobe Illustrator 25.2.0, SVG Export Plug-In . SVG Version: 6.00 Build 0)  -->
<svg version="1.1" id="Layer_1" xmlns="http://www.w3.org/2000/svg" xmlns:xlink="http://www.w3.org/1999/xlink" x="0px" y="0px"
	 viewBox="0 0 160 170" style="enable-background:new 0 0 160 170;" xml:space="preserve">
<style type="text/css">
	.st0{fill:#FFFFFF;}
</style>
<path class="st0" d="M114,64.2c1.8,8.8,1.5,18.3-3.9,25.8c-0.2,0.2-1.6,1-2.2,1.4c-6.8,5.3-16.1-0.5-18.7-7.4
	c-3.1-8.2-0.6-18.3,4.6-25.1c2.8-3.7,7.5-8.2,12.5-6.6C111.2,53.9,113.1,59.5,114,64.2z M133.8,71.5c-3.9,2.3-6.3,8.4-6.4,12.7
	c-0.1,2.6,1.3,6.3,4.1,7.4c1.1,0.3,2.4,0.4,3.6-0.1c3.7-1.5,5.1-7.6,5-12.7C140.1,74.8,138,69,133.8,71.5z M136.1,65.2
	c-0.7,0.2-1.5,0.5-2.1,0.9c-0.6,0.4-1.2,1-1.4,1.8l0.2,0.2c0.8-0.2,1.4-0.5,2-0.9c0.6-0.3,1.2-0.6,1.8-0.9c1.3-0.5,2.6-0.7,4.1-0.8
	l0-0.2C139.3,64.8,137.6,64.8,136.1,65.2z M49.3,93c-0.5-0.7-0.9-1.4-1-2.2c0-0.4,0-0.7,0.2-1.1c0.2-0.4,0.5-0.7,0.9-0.9l0,0
	c-0.5-0.1-1,0.1-1.4,0.5c-0.4,0.4-0.6,0.9-0.7,1.4c0,0.2,0,0.4,0,0.6c-0.5,0.1-1,0.4-1.3,0.7c-0.5,0.4-0.8,1-0.9,1.6l0.1,0
	c0.3-0.5,0.8-0.8,1.2-1.1c0.3-0.2,0.7-0.3,1-0.4c0.1,0.5,0.4,1,0.6,1.5c0.6,1.2,1.5,2.2,2.5,3.1c-0.3,0.1-0.7,0.3-0.9,0.5
	c-0.4,0.3-0.8,0.6-1.1,1c-0.3,0.4-0.6,0.9-0.7,1.3c-0.3,0.9-0.3,2,0.1,2.9c0.4,0.9,1,1.5,1.6,2.1l0.1,0c-0.4-0.8-0.8-1.5-1-2.3
	c-0.1-0.8,0-1.5,0.3-2.2c0.3-0.7,0.9-1.1,1.5-1.5c0.6-0.4,1.4-0.6,2-0.6l0,0l2,0l-1.5-1.2C51.5,95.6,50.3,94.4,49.3,93z M47.8,85.2
	c1.7,1.6,3.2,3.5,4.7,5.3c-1.1-2.1-2.3-4.2-4-6.1c-0.8-0.9-1.8-1.7-2.9-2.3c-1.1-0.6-2.4-1-3.6-0.9l0,0.3c1.1,0.5,2.1,1,3.1,1.6
	C46,83.7,46.9,84.4,47.8,85.2z M109,135c-0.2,0.4-0.4,0.7-0.5,1.1c-0.2,0.8-0.3,1.7,0.1,2.4l0,0c0.3-0.7,0.7-1.3,1-1.9
	c0.2-0.3,0.4-0.5,0.5-0.8c0.2-0.3,0.3-0.6,0.2-1.1l-0.2-0.3C109.6,134.4,109.2,134.7,109,135z M159.9,44.9c-0.2,1.1-0.6,2-1.2,2.9
	c-0.5,0.7-1,1.3-1.6,1.9c0.4,2.2,0.7,4.3,0.9,6.5c0.5,5.2,0.5,10.2,0.6,15.2l0,0l0,1.2l-0.5,0.6c-2,2.3-3.9,4.8-6.1,7.2
	c-2,2.1-4,4.2-6.5,5.9c1.9,2.1,3.6,4.5,5,6.9c1.6,2.8,3,5.7,4,8.8c2.1,6.1,3,12.7,2.5,19.3l0,0l-0.1,1.5l-1.6,0.7
	c-2.5,1-5.2,1.6-7.9,1.9c-2.5,0.2-5,0.1-7.5-0.2c-0.1,1.2,0,2.4,0.1,3.6c0.1,0.9,0.3,1.8,0.6,2.7c0.3,0.8,0.6,1.7,1,2.3l0.9,1.5
	l-1.5,1l0,0c-2,1.4-4.3,2.3-6.7,2.7c0.1,0.1,0.3,0.3,0.4,0.4c0.7,0.8,1.4,1.6,2,2.5l0.7,1l-0.9,0.6l0,0c-1.3,0.9-2.6,1.5-3.9,1.9
	c-0.4,0.1-0.8,0.2-1.2,0.3c-0.1,1.4,0.2,2.7,0.7,3.8c0.5,1.2,1.3,2.2,2.2,2.6l0,0l0.7,1.5l-0.2,0.5c-0.9,1.9-1.8,3.8-2.8,5.5
	c-1.1,1.8-2.4,3.4-3.9,4.8c-1.5,1.4-3.1,2.7-5,3.7c-1.9,1-4.2,1.7-6.7,1.7l0,0l-0.4-0.1l-0.4-0.2c-7.1-3.7-14.5-6.6-22.2-8.8
	c-3.9-1.1-8-2.2-11.9-4.1c-2-0.9-3.8-2.1-5.6-3.3c-1.8-1.3-3.4-2.7-4.9-4.2c-6.1-6.1-9.8-14.2-11.2-22.4c-0.7-4.1-1-8.2-1.1-12.3
	c0-1.5,0-3.1,0.1-4.6c-0.8,1.1-1.6,2.2-2.8,3c-0.7,0.5-1.5,1.1-2.5,1.5c-0.9,0.4-2.1,0.6-3.3,0.3l0,0l-0.2,0l-0.2-0.2
	c-3.1-2.5-5.5-5.4-8-8.3c-0.8-0.9-1.5-1.7-2.3-2.5c-0.8-0.1-1.6-0.2-2.4-0.1c-0.8,0.1-1.6,0.3-2.4,0.6c-1.5,0.7-2.8,1.9-3.7,3.6
	l-0.1,0c-0.1-1,0.2-2,0.8-2.9c0.5-0.9,1.4-1.7,2.3-2.2c0.6-0.3,1.2-0.5,1.9-0.6c-1.4-0.6-2.8-1.2-4.1-1.9c-0.5-0.3-1-0.5-1.5-0.8
	c-0.8,2.3-1.5,4.6-1.5,6.9c0,1.2,0.2,2.3,0.5,3.4c0.2,0.5,0.4,1,0.7,1.5c0.3,0.5,0.6,0.9,1,1.3c0.8,0.7,1.7,1.2,2.8,1.4
	c1.1,0.2,2.3,0.1,3.6,0c2.5-0.2,5-0.7,7.6-1.3l0.1,0.4c-2.3,1.3-4.8,2.2-7.4,2.7c-1.3,0.3-2.7,0.5-4.1,0.3c-0.7-0.1-1.5-0.2-2.2-0.5
	c-0.7-0.3-1.4-0.7-1.9-1.2c-1.2-1.1-2-2.4-2.4-3.9l-0.1,0.2c-1.4,1.9-2,4.1-2.3,6.3c-0.1,1.1-0.2,2.2,0,3.3c0.1,1.1,0.5,2,1,3
	c0.5,1,1.1,1.9,1.7,3c0.6,1.1,1.1,2.2,1.5,3.4c0.6,1.5,1,3.1,1.3,4.8c1.6-0.4,3.2-1,4.7-1.8c2.2-1.1,4.2-2.6,5.8-4.5
	c1.7-1.9,2.9-4.2,3.7-6.6c0.8-2.4,0.9-5.2-0.1-7.6c1.1,2.4,1.2,5.1,0.7,7.7c-0.5,2.6-1.5,5.2-2.9,7.4c-0.7,1.1-1.6,2.2-2.5,3.2
	c-0.9,1-2,1.9-3.1,2.7c-2.2,1.7-4.7,2.9-7.3,3.9l-2.8,1.1l0.1-3v0c0.1-2.1-0.1-4.3-0.5-6.5c-0.2-1.1-0.5-2.1-0.9-3.2
	c-0.4-1-0.8-2.1-1.2-3.3c-0.4-1.1-0.7-2.5-0.7-3.7c0-1.3,0.3-2.5,0.6-3.6c0.5-1.8,1.2-3.5,2.3-4.9c-1.3,1.2-2.9,2.1-4.5,2.8
	c-2.2,0.8-4.7,1.1-7.1,0.8c-1.2-0.1-2.4-0.4-3.5-0.7c-1.1-0.3-2.3-0.6-3.4-0.9c-2.2-0.7-4.4-1.5-6.5-2l0,0L0,111l0.1-1.2
	c0.3-2.8,1.4-5.4,3-7.7c1.6-2.2,3.6-4.1,5.9-5.4c2.3-1.3,4.9-2,7.5-2.4c2.4-0.3,4.9-0.3,7.3,0.2c0.6-1.1,1.5-2,2.4-2.8
	c0-0.6,0-1.3-0.1-1.9c0-0.7,0.1-1.3-0.3-1.6c-0.4-0.4-1.2-0.7-1.7-1.2c-0.3-0.3-0.4-0.6-0.6-1c-0.1-0.2-0.1-0.4-0.1-0.5
	c0-0.1,0-0.2-0.1-0.3c0-0.1,0-0.2,0-0.3c0-0.4,0.1-0.7,0.1-1c0-0.3-0.1-0.6-0.2-0.6c-0.2-0.1-0.6,0-1-0.3c-0.4-0.2-0.7-0.4-1-0.7
	c-0.5-0.6-0.8-1.4-0.9-2.2c-0.1-0.8-0.1-1.5,0-2.2l0.2-2l0.3-2.4c-0.4-1.7-0.8-3.4-1-5.2C19.3,63.3,19.3,58,20,52.9
	c0.7-5.1,2.3-10.3,4.5-15c2.3-4.8,5.3-9.2,8.8-13.1c3.6-3.9,7.8-7.2,12.3-10c1.2-0.7,2.3-1.3,3.5-1.9c1.2-0.6,2.4-1.2,3.7-1.6
	c2.5-1,5-1.7,7.5-2.4C65,7.7,69.6,7,74.1,6.4c2.2-1.6,4.6-3.1,7.1-4.3c1.3-0.7,2.7-1.2,4.2-1.6c0.3-0.1,0.8-0.2,1.2-0.3
	C87,0,87.5,0,87.9,0c0.9,0,1.7,0.1,2.5,0.3c1.6,0.5,2.9,1.4,4.1,2.2c0.2,0.1,0.3,0.2,0.5,0.3C95.1,2.9,95.3,3,95.3,3
	c0.1,0.1,0.3,0.1,0.6,0.1c0.3,0,0.8,0,1.1,0l1.1,0c1.5,0,2.9,0.1,4.4,0.1c1.5,0.1,2.9,0.2,4.2,0.2c0.3,0,0.4,0,0.6-0.1
	c0.2-0.1,0.5-0.2,0.9-0.4c0.8-0.3,1.6-0.5,2.4-0.7c1.6-0.3,3.3-0.2,4.9,0.4c0.4,0.2,0.8,0.4,1.1,0.6c0.2,0.1,0.3,0.3,0.5,0.5
	c0.1,0.2,0.3,0.3,0.4,0.6c0.3,0.4,0.4,0.8,0.5,1c0.1,0.1,0.2,0.2,0.2,0.3c0,0,0,0,0.2,0c0.5-0.1,1.1-0.5,1.8-0.8
	c0.7-0.3,1.4-0.5,2.1-0.8c1.4-0.5,2.8-0.9,4.4-1.1c0.8-0.1,1.6-0.2,2.4-0.1c0.6,0.1,1.2,0.2,1.8,0.4c0.3-0.1,0.7-0.1,0.9,0.3
	c0,0.1,0.1,0.1,0.1,0.2c1.4,0.8,2.5,2.1,3.2,3.6c0.6,1.5,0.8,3.2,0.2,4.7c0.7,0.8,1.4,1.6,2.1,2.4c0.8,0.8,1.7,1.6,2.6,2.4
	c1.8,1.6,3.6,3.1,5.4,4.7c1.8,1.6,3.8,3.2,5,5.6c0.6,1.2,1,2.5,1,3.8c0.1,1.1-0.1,2.2-0.6,3.2c0.7,0.5,1.5,0.9,2.2,1.5
	c1.6,1.1,3,2.4,4.4,3.7c0.7,0.7,1.4,1.5,1.9,2.5C160,42.7,160.1,43.9,159.9,44.9z M141,21C141,21.1,141,21,141,21
	C141,21,141,21,141,21z M140.9,20.7C140.9,20.7,140.9,20.7,140.9,20.7C140.9,20.6,140.9,20.6,140.9,20.7z M136.8,21.4
	c1.1,0.3,2.3,0.6,3.4,1.2c0,0,0,0,0.1,0c0.1,0,0.1-0.1,0.2-0.1c0,0,0,0,0.1-0.1c0,0,0.1-0.1,0.1-0.1c0,0,0,0,0,0c0,0,0,0,0,0
	c0,0,0,0,0,0c0,0,0,0,0,0c0,0,0,0,0,0c0-0.1,0.1-0.1,0.1-0.2c0,0,0,0,0-0.1c0,0,0,0,0,0c0,0,0,0,0,0c0,0,0,0,0,0c0,0,0-0.1,0-0.1
	c0,0,0-0.1,0-0.1c0-0.1,0-0.1,0.1-0.2c0,0,0,0,0,0c0,0,0,0,0-0.1c0,0,0,0,0,0c0,0,0,0,0,0c0,0,0-0.1,0-0.1c0,0,0,0,0,0
	c0-0.1,0-0.3,0-0.4c0,0,0-0.1,0-0.1c0-0.1,0-0.1-0.1-0.2c0,0,0,0,0-0.1c0-0.1-0.1-0.1-0.1-0.2c-0.1-0.1-0.1-0.2-0.1-0.4
	c-0.6-0.6-1.3-1.2-1.9-1.8c-0.4-0.4-0.8-0.8-1.2-1.2c-0.1,0.5-0.1,0.9-0.2,1.4c0-0.1,0.1-0.1,0.1-0.2c0.1-0.2,0.4-0.2,0.6-0.2
	c0.2,0,0.4,0.1,0.6,0.2c0.1,0.1,0.2,0.4,0.2,0.6c0,0.5-0.2,0.9-0.4,1.3c-0.2,0.4-0.6,0.7-1,0.9c-0.2,0.1-0.4,0.1-0.6,0.1
	C136.9,21.2,136.9,21.3,136.8,21.4z M135.7,26.5c-0.3,1-0.5,2-0.9,3c-0.1,0.2-0.2,0.5-0.3,0.7c0,0,0-0.1,0.1-0.1
	c0.3-0.1,0.6-0.3,0.9-0.5c0.1-0.1,0.2-0.2,0.4-0.2c0,0,0.1-0.1,0.1-0.1c0.1,0,0.1-0.1,0.2-0.2c0.1-0.1,0.2-0.2,0.3-0.3c0,0,0,0,0,0
	c0,0,0,0,0,0c0-0.1,0.1-0.1,0.1-0.2c0-0.1,0.1-0.1,0.1-0.2c0,0,0-0.1,0.1-0.1c0-0.1,0.1-0.2,0.1-0.3c0,0,0-0.1,0-0.1
	c0-0.1,0-0.1,0-0.2c0,0,0,0,0,0c0,0,0,0,0,0c0-0.1,0-0.1,0-0.2c0,0,0-0.1,0-0.1c0,0,0-0.1,0-0.1c0-0.1-0.1-0.1-0.1-0.2
	c0,0-0.1-0.1-0.1-0.1c0,0-0.1-0.1-0.1-0.1c0,0-0.1-0.1-0.1-0.1c0,0,0,0-0.1,0c0,0-0.1-0.1-0.1-0.1c0,0-0.1,0-0.1,0c0,0-0.1,0-0.1,0
	c0,0-0.1,0-0.1,0c0,0,0,0,0,0C135.8,26.5,135.8,26.5,135.7,26.5C135.7,26.5,135.7,26.5,135.7,26.5z M133.9,12.6
	c0,0.1,0.1,0.2,0.1,0.4c-0.2,6.1-1.5,12.1-3.8,17.8c0.1,0.1,0.2,0.1,0.2,0.2c0.2,0,0.4,0,0.6,0.1c-0.1-0.6,0.3-1.3,0.9-1.3
	c0.7-0.1,0.9-1.8,1.1-2.4c0.4-1.3,0.7-2.6,1-3.9c0.6-2.6,1.1-5.3,1.4-8c0-0.3,0.1-0.5,0.2-0.7c-0.6-0.7-1.1-1.4-1.6-2.2l0,0
	l-0.1-0.4C133.9,12.3,133.9,12.5,133.9,12.6z M134.2,30.8c-0.1,0.2-0.2,0.3-0.3,0.4c0.1-0.1,0.2-0.1,0.4-0.1
	C134.2,31,134.2,30.9,134.2,30.8z M132.6,37.2c0.1-0.4,0.2-0.8,0.3-1.3c0-0.2,0.1-0.4,0.1-0.6c0,0,0-0.1,0-0.1c0-0.1,0-0.2,0-0.3
	c0.1-0.9,0.1-1.7,0.1-2.6c0-0.1,0-0.1,0-0.2c-0.9-0.1-1.8-0.1-2.7-0.2c-0.2,1.8-0.4,3.7-0.7,5.5c0.9,0.1,1.9,0.2,2.8,0.4
	C132.6,37.7,132.6,37.4,132.6,37.2z M55.1,19.2c2.9,2.2,5.8,4.4,8.7,6.6c0,0,0.1,0.1,0.1,0.1c0.2-0.3,0.6-0.5,1-0.2
	c6.7,4.8,13.6,9.4,20.6,13.7c0.2,0.1,0.3,0.2,0.3,0.4c1.6-0.9,3.2-1.7,4.9-2.4c7.3-3.3,15.2-5.6,23.2-6.5c4.8-0.6,9.7-0.6,14.5-0.1
	c0,0,0,0,0-0.1c2.3-5.4,3.5-11.2,3.8-17c-0.1-0.2-0.1-0.4-0.1-0.6c0.3-1.7,0.2-3.5-0.2-5.2c-0.5-0.6-1.1-1.1-1.8-1.5
	c-0.5-0.3-0.9-0.5-1.5-0.6c-0.6-0.1-1.2-0.2-1.8-0.3c-1.3-0.1-2.7-0.1-4.1,0.1c-0.7,0.1-1.4,0.3-2,0.4c-0.6,0.2-1.3,0.6-2.1,0.7
	c-0.2,0-0.6,0.1-0.9-0.1c-0.3-0.1-0.5-0.2-0.7-0.3c-0.4-0.2-0.7-0.4-1-0.5c-0.1,0-0.3,0-0.4-0.1c-0.2,0-0.3-0.1-0.4-0.1
	c-0.3-0.1-0.5-0.1-0.8-0.2c-1.1-0.3-2.3-0.4-3.5-0.4c-0.6,0-1.3,0.1-1.8,0.3c-0.3,0.1-0.6,0.2-1.1,0.4c-0.5,0.2-1,0.2-1.5,0.2
	c-1.6-0.1-3-0.3-4.4-0.5c-1.4-0.1-2.8-0.2-4.2-0.2c-0.4,0-0.7,0-1.1,0c-0.4,0-0.6,0-1,0.1c-0.4,0-0.9,0-1.5-0.1
	c-0.3-0.1-0.5-0.2-0.6-0.2C93.7,5,93.6,5,93.4,4.9c-1.4-0.4-2.7-0.7-3.9-1c-0.6-0.1-1.1-0.2-1.7-0.3c-0.3,0-0.5,0-0.8,0
	c-0.3,0-0.5,0-0.9,0.1c-1.3,0.2-2.7,0.5-4,0.8c-2.7,0.7-5.3,1.8-7.5,3.4l-0.1,0l-0.1,0l-3.6,1.6l-1.8,0.8c-0.6,0.3-1.2,0.6-1.7,0.9
	c-2.3,1.2-4.6,2.5-6.8,4C58.7,16.6,56.9,17.9,55.1,19.2z M112.9,38.7c3.8-1,7.7-1.5,11.6-1.5c1.2,0,2.4,0,3.7,0.1
	c0.2-1.8,0.4-3.6,0.7-5.4c-4.9-0.1-9.8,0.1-14.7,0.9c-7.6,1.1-15.1,3.2-22.2,6.3c0,0,0,0,0.1,0c0.4,0.3,0.7,0.6,1.1,0.9
	c0,0,0.1,0.1,0.1,0.1c0,0,0,0,0,0c0,0,0,0,0,0c0.1,0.1,0.2,0.1,0.3,0.2c0.2,0.1,0.4,0.3,0.6,0.4c0.8,0.6,1.5,1.1,2.3,1.6
	c0.2,0.1,0.4,0.4,0.4,0.6l0.8-0.3c0.6-0.2,1.2-0.5,1.8-0.5c0.2-0.3,0.5-0.6,0.7-0.9c1.4-1.7,3.4-3,5.7-3.5c2.3-0.5,4.8-0.1,6.8,1.1
	c0.1,0,0.1,0.1,0.2,0.1L112.9,38.7z M57.6,30.3c0,0,0.1,0.1,0.1,0.1c0,0,0,0,0.1,0c0.1,0,0.2,0.1,0.3,0.2l0.6-0.5
	c-0.5-0.4-1-0.7-1.6-1.1c0,0,0,0.1,0,0.1c0,0,0,0,0,0.1c0,0.1,0,0.1,0,0.2c0,0,0,0,0,0.1c0,0.1,0,0.1,0,0.2c0,0,0,0.1,0,0.1
	c0,0,0,0,0,0c0,0,0,0.1,0,0.1c0,0.1,0.1,0.1,0.1,0.2c0,0,0,0,0,0c0,0,0,0,0.1,0.1c0,0,0,0,0,0c0,0,0,0,0,0c0,0,0,0,0,0.1
	c0,0,0,0,0,0c0,0,0,0,0,0C57.5,30.1,57.5,30.2,57.6,30.3C57.5,30.2,57.5,30.2,57.6,30.3c-0.1,0-0.1-0.1-0.1-0.1
	C57.5,30.2,57.5,30.2,57.6,30.3C57.6,30.2,57.5,30.2,57.6,30.3C57.6,30.2,57.6,30.3,57.6,30.3C57.6,30.3,57.6,30.3,57.6,30.3
	C57.6,30.3,57.6,30.3,57.6,30.3z M57.7,32.4c0.8-0.1,1.7-0.4,2.5-0.6c0.3-0.2,0.8-0.4,1.2-0.5c0.3-0.1,0.5-0.2,0.8-0.4
	c-0.4-0.2-0.8-0.4-1.2-0.5c-0.3-0.1-0.5-0.3-0.7-0.5l-0.7,0.6C59,31.1,58.4,31.8,57.7,32.4z M60.4,34.8c0.1,1.1,1.1,1.9,2,2.3
	c2.4,1,5.3,0.5,7.5-0.7c-0.6-0.4-1.2-0.9-1.8-1.3c0,0.1-0.1,0.1-0.1,0.2c-0.8,0.8-2.2,1-3.2,0.4c-1-0.6-1.5-1.8-1.2-2.9
	c0.1-0.3,0.3-0.5,0.6-0.6c-0.2-0.2-0.5-0.3-0.7-0.5c0,0.2-0.2,0.4-0.4,0.6c-0.7,0.4-1.5,0.7-2.2,0.9C60.5,33.6,60.3,34.3,60.4,34.8z
	 M65.1,33.5C65.1,33.5,65.1,33.5,65.1,33.5C65.1,33.5,65.1,33.5,65.1,33.5C65.1,33.5,65.1,33.5,65.1,33.5
	C65.1,33.5,65.1,33.6,65.1,33.5C65.1,33.6,65.1,33.6,65.1,33.5c0,0.2,0.1,0.2,0.1,0.3c0,0,0,0,0,0c0,0,0,0.1,0.1,0.1
	c0,0,0,0.1,0.1,0.1c0.1,0.1,0.1,0.1,0.2,0.2c0,0,0,0,0,0c0,0,0.1,0,0.1,0.1c0,0,0.1,0,0.1,0.1c0.1,0,0.2,0,0.2,0.1c0,0,0,0,0,0
	c0,0,0.1,0,0.1,0c0.1,0,0.1,0,0.2,0c0,0,0,0,0.1,0c0,0,0.1,0,0.1,0c0,0,0.1,0,0.1,0c0,0,0,0,0,0c0.1,0,0.1-0.1,0.2-0.1c0,0,0,0,0,0
	c0,0,0.1-0.1,0.1-0.1c0,0,0,0,0,0c-0.3-0.3-0.7-0.5-1-0.8c-0.2-0.2-0.4-0.3-0.7-0.5c0,0.1,0,0.2,0,0.3c0,0,0,0,0,0.1c0,0,0,0,0,0
	C65.1,33.3,65.1,33.4,65.1,33.5z M69.3,42c0.3,1,1.2,1.6,2.1,2c2.5,0.9,5.4,0.5,7.8-0.2c0.4-0.3,0.8-0.5,1.1-0.7
	c-0.8-0.5-1.6-1-2.4-1.4c-0.1,0-0.2,0.1-0.3,0.1c-0.1,0-0.1,0-0.2,0c0,0,0,0,0,0c-0.1,0-0.2,0-0.3,0c-0.2,0-0.4,0.1-0.6,0.1
	c-0.4,0.1-0.9,0.2-1.3,0.2c-1.2,0.1-2.8-0.5-3-1.9c-0.1-0.6,0.2-1.3,0.8-1.7c-0.6-0.4-1.1-0.7-1.7-1.1c0,0-0.1,0.1-0.2,0.1
	c-0.3,0.2-0.6,0.3-0.9,0.5C69.6,39.1,68.9,40.6,69.3,42z M74,40.2c0.1,0,0.1,0.1,0.2,0.1c0,0,0.1,0,0.1,0c0.1,0,0.1,0,0.2,0.1
	c0.1,0,0.1,0,0.2,0.1c0,0,0.1,0,0.1,0c0.1,0,0.2,0,0.4,0c0.1,0,0.2,0,0.2,0c0,0,0,0,0.1,0c0,0,0,0,0.1,0c0.2,0,0.4-0.1,0.6-0.1
	c-0.4-0.2-0.7-0.5-1.1-0.7c-0.3,0.2-0.6,0.2-0.9,0c0,0,0,0,0,0c0,0,0,0,0,0c0,0-0.1,0.1-0.1,0.1c0,0,0,0,0,0c0,0,0,0,0,0.1
	c0,0,0,0,0,0c0,0,0,0,0,0.1c0,0,0,0,0,0c0,0,0,0,0,0c0,0,0,0,0,0c0,0,0,0.1,0.1,0.1C73.9,40.1,74,40.2,74,40.2
	C74,40.3,74.2,40.3,74,40.2z M82.7,41.6C82.7,41.6,82.7,41.6,82.7,41.6c0.6-0.3,1.2-0.6,1.7-0.9c-6.9-4.3-13.7-8.8-20.3-13.5
	c0,0-0.1-0.1-0.1-0.1c-0.2,0.3-0.7,0.4-1,0.2c0,0,0,0,0,0c-0.3,0.4-0.6,0.8-1,1.1c3.6,1.3,6.6,4.3,9.7,6.5
	C75.3,37.2,79,39.4,82.7,41.6z M81.9,46.5c0.6,0.6,1.7,0.6,2.5,0.5c2.2-0.2,4.4-0.7,6.4-1.6c0.3-0.1,0.6-0.1,0.9,0.1l0.3-0.2
	c0,0-0.1-0.1-0.1-0.1c0,0-0.2-0.2-0.2-0.2c-0.1-0.1-0.2-0.1-0.3-0.2c-0.2-0.2-0.5-0.3-0.7-0.5c-0.1-0.1-0.2-0.1-0.3-0.2
	c-0.1,0.2-0.3,0.4-0.5,0.5c-0.6,0.2-1.2,0.4-1.8,0.4c-1,0.1-2.1-0.3-2.6-1.2c-0.2-0.4-0.3-0.9-0.3-1.3c-1,0.5-2,1.1-3,1.7
	c0.2,0.3,0.1,0.8-0.3,1C81.4,45.4,81.6,46.1,81.9,46.5z M86.7,42.5C86.7,42.5,86.7,42.5,86.7,42.5C86.7,42.5,86.7,42.5,86.7,42.5
	C86.7,42.5,86.7,42.5,86.7,42.5z M86.7,42.5C86.7,42.5,86.7,42.5,86.7,42.5C86.7,42.5,86.7,42.5,86.7,42.5
	C86.7,42.5,86.7,42.5,86.7,42.5C86.7,42.5,86.7,42.5,86.7,42.5C86.7,42.5,86.7,42.5,86.7,42.5C86.7,42.5,86.7,42.5,86.7,42.5
	C86.7,42.5,86.7,42.5,86.7,42.5c0,0.1,0,0.1,0,0.2c0,0.1,0,0.1,0.1,0.2c0,0,0,0.1,0.1,0.1c0,0,0,0.1,0.1,0.1
	c0.1,0.1,0.1,0.1,0.2,0.2c0,0,0.1,0,0.1,0.1c0,0,0,0,0,0c0.1,0,0.1,0,0.2,0c0.1,0,0.1,0,0.2,0c0,0,0,0,0,0c0.1,0,0.2,0,0.4,0
	c0.1,0,0.2,0,0.2,0c0,0,0,0,0,0c0.1,0,0.3-0.1,0.4-0.1c0.1,0,0.1,0,0.2-0.1c-0.4-0.2-0.8-0.4-1.2-0.6c-0.1,0-0.2-0.1-0.3-0.1
	c0,0-0.3-0.1-0.3-0.1c0,0-0.1,0-0.1-0.1c0,0,0,0,0,0C86.8,42.4,86.8,42.4,86.7,42.5C86.8,42.4,86.8,42.4,86.7,42.5
	C86.8,42.4,86.8,42.5,86.7,42.5z M93.6,43.5c0.3,0.2,0.4,0.5,0.3,0.9l1.6-0.7c-1.6-1-3.1-2.1-4.6-3.3c-0.2-0.2-0.2-0.4-0.2-0.6
	c-0.6,0.3-1.3,0.6-1.9,0.9C90.5,41.3,92.1,42.3,93.6,43.5z M50.7,22.9c0.1,0,0.3,0.1,0.4,0.1c3.1,1.3,6.1,3,8.9,5
	c0.2,0.1,0.3,0.3,0.4,0.5c0.1-0.2,0.4-0.3,0.6-0.4c0.5-0.4,1.1-0.8,1.7-1.1c-2.9-2.2-5.7-4.3-8.6-6.5c-0.1-0.1-0.2-0.1-0.2-0.2
	C52.8,21.1,51.8,22,50.7,22.9z M48.9,26.7c-0.4-0.3-0.8-0.7-1-1.2c-1.1,1-2.1,2.1-3.1,3.2c2.9,1.7,6.9,0.1,9.8-1.3
	c-0.5-0.3-1.1-0.6-1.6-0.9c-0.1,0.1-0.2,0.2-0.3,0.2C51.5,27.1,50,27.4,48.9,26.7z M49.4,24.7c0,0.1,0.1,0.1,0.1,0.2
	c0,0,0,0.1,0.1,0.1c0,0,0,0.1,0.1,0.1c0,0,0,0,0,0c0.1,0.1,0.1,0.1,0.2,0.2c0,0,0.1,0,0.1,0.1c0,0,0.1,0,0.1,0.1
	c0.1,0,0.2,0.1,0.3,0.1c0,0,0,0,0,0c0,0,0,0,0,0c0.1,0,0.1,0,0.2,0c0.1,0,0.2,0,0.4,0c0,0,0,0,0,0c0,0,0,0,0,0
	c-0.3-0.1-0.6-0.3-1-0.4c-0.2-0.1-0.4-0.3-0.5-0.6c0,0,0,0,0,0.1C49.4,24.6,49.4,24.6,49.4,24.7C49.4,24.6,49.4,24.7,49.4,24.7z
	 M52.7,32.9c0,0.1,0,0.2,0,0.4c0,0,0,0.1,0,0.1c0,0.1,0,0.1,0,0.2c0.1,0.5,0.3,0.9,0.6,1.3c0.5-0.5,1-1,1.6-1.5l1.9-1.7
	c-0.6-0.4-1-0.9-1.2-1.6c-0.1-0.5-0.1-0.9,0-1.4c0,0,0,0,0,0c-0.3,0.1-0.5,0.3-0.8,0.4c0,0.2-0.1,0.5-0.4,0.6
	c-0.4,0.3-0.8,0.6-1.1,1c-0.3,0.5-0.4,0.8-0.6,1.5c0,0,0,0.1,0,0.2c0,0.1,0,0.1,0,0.2C52.7,32.7,52.7,32.8,52.7,32.9z M24.5,56.4
	c0.9-2.5,1.9-5,3-7.4c1.1-2.4,2.4-4.8,3.8-7.1c1.4-2.3,2.9-4.6,4.5-6.7c3.2-4.3,6.9-8.3,10.9-11.8c1.8-1.6,3.7-3.1,5.7-4.6
	c-1.1,0.5-2.2,1.1-3.3,1.7c-4,2.3-7.8,5.2-11,8.6c-3.3,3.4-6,7.2-8.3,11.4c-2.2,4.2-3.8,8.6-4.8,13.3C24.8,54.6,24.6,55.5,24.5,56.4
	z M39.9,39.1c-0.5-0.2-1-0.7-1.2-1.1c-0.2-0.3-0.3-0.7-0.4-1.1c0-0.1,0-0.3,0-0.4c-0.4,0.5-0.8,1.1-1.2,1.7c0.1,0.1,0.2,0.1,0.3,0.3
	C37.9,39.1,39,39.3,39.9,39.1C39.9,39.1,39.9,39.1,39.9,39.1z M39.6,40.8C39.6,40.8,39.6,40.8,39.6,40.8c0,0,0,0.1,0.1,0.1
	c0,0,0,0,0.1,0.1c0,0,0.1,0,0.1,0.1c0,0,0.1,0,0.1,0c0,0,0,0,0.1,0c0,0,0,0,0,0c0,0,0,0,0,0c0,0,0,0,0,0c0,0,0-0.1,0.1-0.1
	c0,0,0-0.1,0-0.1c0,0,0,0,0,0c-0.1,0-0.1,0-0.2,0C39.9,40.7,39.7,40.7,39.6,40.8z M37.2,40.7c0.1-0.1,0.1-0.3,0.2-0.4
	c-0.5-0.2-0.9-0.6-1.2-1c-0.3,0.4-0.6,0.8-0.8,1.3c0.1,0.1,0.2,0.2,0.3,0.3c-0.2-0.2,0,0,0,0c0,0,0,0,0,0c0,0-0.1-0.1,0,0
	c0,0,0,0,0,0c0,0,0,0,0,0c0,0,0,0,0,0c0,0,0.1,0.1,0.1,0.1c0,0,0,0-0.1,0c0,0,0,0,0.1,0c0,0,0,0,0,0c0,0,0.1,0,0,0c0,0,0.1,0,0.1,0
	c-0.1,0,0,0,0,0c0,0,0,0,0,0c0,0,0,0,0.1,0c0,0,0,0-0.1,0c0.1,0,0.1,0,0.2,0c0,0,0.1,0,0.1,0c0,0,0.1,0,0.1,0c0.1,0,0.1,0,0.2-0.1
	c0,0,0,0-0.1,0c0,0,0,0,0.1,0c0,0,0,0,0,0c0,0,0.1-0.1,0,0c0,0,0.1,0,0.1-0.1c-0.1,0,0,0,0,0c0,0,0,0,0,0c0,0,0,0,0.1,0
	c0,0,0,0-0.1,0C37,40.9,37.1,40.8,37.2,40.7C37.1,40.8,37.1,40.8,37.2,40.7C37.2,40.7,37.3,40.4,37.2,40.7z M27.5,110.1
	c-0.1-0.3-0.2-0.6-0.2-0.9c-0.4,0.2-0.8,0.2-1.2,0.1c-0.6-0.2-1.1-0.6-1.3-1.1c-0.2-0.3-0.3-0.6-0.3-1c-1-0.9-1.7-2.1-2-3.3
	c-0.5-1.5-0.5-3.2-0.2-4.7c0.2-1.5,0.8-3,1.6-4.3c-2.4-0.2-4.7,0-7,0.5c-2.4,0.6-4.8,1.5-6.7,2.9c-3.6,2.5-6.1,6.6-6.5,10.7
	c1.8,0.8,3.5,1.6,5.2,2.3c1,0.5,2.1,0.9,3.1,1.3c1.1,0.4,2.1,0.7,3.2,1c2.1,0.5,4.3,0.5,6.5,0c2.1-0.6,4.2-1.6,5.9-3.2l0,0
	L27.5,110.1z M30.2,99.1c-0.5-0.3-1-0.7-1.6-1c-0.6-0.4-1.2-1-1.6-1.8c-0.4-0.8-0.5-1.6-0.6-2.2c-0.1-0.5-0.1-1-0.1-1.5
	c-0.7,0.8-1.3,1.7-1.8,2.7c-0.6,1.3-1,2.7-1.2,4.1c-0.3,2.1,0.1,4.1,1,5.9c0.1-1.7,0.6-3.5,1.7-4.8l0,0c-0.3,1.7-0.4,3.3-0.2,4.9
	c0.1,0.8,0.2,1.6,0.5,2.1c0.1,0.3,0.2,0.4,0.4,0.6c0.1,0.1,0.3,0.2,0.5,0.3c-0.1-0.8-0.1-1.5,0-2.3C27.5,103.4,28.7,101.1,30.2,99.1
	z M37.2,101.2c-1-0.9-2-1.6-3-2.3l0,0l-0.3-0.2l-0.2-0.4c-1.2-2.6-2.2-5.5-2.8-8.4c-0.6-2.9-0.8-6-0.5-9l0,0l0.1-0.6l0.5-0.5
	c2.2-2.3,4.8-3.9,7.5-5.2c2.7-1.2,5.5-2.1,8.4-2.5l0,0l0.6-0.1l0.4,0.3c0.9,0.7,1.9,1.4,2.7,2.3c0.8,0.9,1.5,1.9,1.9,3.1l0,0
	l0.1,0.2l0,0.1c-0.1,0.6-0.1,1.2-0.1,1.8c2.6-4,5.5-7.7,8.7-11.3c3.5-3.9,7.3-7.5,11.4-10.8c4.1-3.3,8.4-6.3,12.9-9l0.8-0.5
	c-1,0.2-2.1,0.3-3.1,0.2c-1.3-0.1-2.5-0.7-2.9-1.9C80,46.2,80,45.8,80,45.4c-3,1.9-5.9,3.9-8.6,6c-6.2,4.8-12,10.4-17.1,16.5
	c4.6-6.5,10.1-12.4,16.2-17.6c1.8-1.5,3.7-2.9,5.6-4.3c-2,0.2-4,0-5.8-0.8c-1.2-0.6-2.2-1.6-2.6-3c-0.3-1.2-0.1-2.3,0.4-3.4
	c-2.5,0.7-5.2,0.6-7.3-0.8c-1.4-0.9-2.2-2.3-2-3.9c0-0.1,0-0.2,0.1-0.3c-0.6,0.1-1.2,0.3-1.9,0.3c-0.3,0-0.5-0.1-0.7-0.3
	c-0.2,0.2-0.4,0.3-0.5,0.5c-2.5,2.5-4.9,5.1-7.2,7.8c-2.3,2.7-4.6,5.4-6.8,8.2l-1.6,2.1l-1.6,2.2L37,56.7c-0.5,0.7-1,1.5-1.5,2.2
	c0.8-1.6,1.7-3.1,2.6-4.7l1.4-2.3l1.5-2.2c2-3,4.2-5.8,6.5-8.5c1.5-1.8,3.1-3.5,4.7-5.1c-1.3-1.6-1.5-3.9-0.6-5.7
	c-1.1,0.4-2.3,0.6-3.5,0.7c-1.6,0.1-3.2-0.3-4.5-1.1c-1.6,1.7-3.1,3.6-4.5,5.4c0.2,0,0.3,0,0.4,0.1c0.2,0.1,0.3,0.3,0.4,0.5
	c0.1,0.2,0,0.4-0.1,0.6c0,0,0-0.1,0.1-0.1c0,0.1,0,0.2-0.1,0.2c0,0.1,0,0.1,0,0.2c0,0.1,0,0.2,0.1,0.2c0,0.1,0.1,0.2,0.2,0.3
	c0.1,0.1,0.2,0.2,0.3,0.3c0.1,0.1,0.2,0.1,0.3,0.2c0.1,0,0.1,0,0.2,0.1c0.1,0,0.1,0,0.2,0c0.1,0,0.2,0,0.2-0.1c-0.1,0-0.1,0-0.2,0.1
	c0.2-0.1,0.4-0.1,0.6-0.1c0.1,0,0.3,0.1,0.4,0.2c0.2-0.2,0.4-0.3,0.6-0.5c0,0,0-0.1,0-0.1c0-0.2,0.1-0.4,0.2-0.6
	c0-0.1,0.1-0.1,0.1-0.2c0,0,0,0,0,0c0,0,0,0,0,0c0.1-0.1,0.2-0.2,0.2-0.3c0.1-0.1,0.1-0.2,0.2-0.3c0,0,0-0.1,0-0.1c0,0,0-0.1,0,0
	c0,0,0-0.1,0-0.1c0-0.1,0-0.1,0.1-0.2c0,0,0,0,0,0c0-0.1,0-0.2,0-0.3c0-0.1,0-0.1,0-0.2c0,0,0-0.1,0-0.1c0,0,0,0,0,0.1c0,0,0,0,0,0
	c0,0,0-0.1,0-0.1c0,0,0,0,0,0c0,0,0,0,0,0c0,0,0,0-0.1,0c0,0,0,0,0,0c0,0,0,0,0,0c0,0,0,0,0,0c0,0,0,0,0,0c0,0,0,0,0,0
	c0.1,0.4,0,0.7-0.3,0.9c-0.3,0.2-0.9,0.1-1.1-0.3c-0.2-0.4-0.2-0.7-0.1-1.1c0.1-0.3,0.3-0.6,0.5-0.8c0.6-0.4,1.2-0.6,1.9-0.2
	c0.5,0.2,0.9,0.8,1,1.3c0.2,0.5,0.1,1.1-0.1,1.7c-0.1,0.4-0.3,0.7-0.6,1c0.1,0.3,0.1,0.5-0.2,0.8c-0.8,0.7-1.6,1.5-2.6,2
	c0.1,0.3,0.1,0.7,0,1c-0.2,0.9-1,1.5-1.8,1.5c-0.6,0-1.2-0.3-1.6-0.8c-0.1,0.2-0.3,0.3-0.5,0.5c-0.3,0.2-0.7,0.4-1.1,0.4
	c-0.4,0.1-0.8,0-1.2-0.1c-0.4-0.1-0.7-0.4-1-0.6c-1.7,2.6-3.2,5.3-4.6,8.1c-2.3,4.7-4.1,9.6-5.5,14.6c-0.4,1.3-0.6,2.5-0.9,3.8
	l-0.6,3.9l-0.6,3.9c-0.2,1.3-0.5,2.6-0.4,3.7c0,0.6,0.2,1.1,0.5,1.5c0.1,0.2,0.3,0.5,0.4,0.7c0,0.1,0.2,0.2,0.3,0.2
	c0.1-2.5,0.5-5.1,1.1-7.5c0.6-2.7,1.6-5.3,2.7-7.8c1.1-2.5,2.4-5,3.8-7.3c1.4-2.3,3-4.6,4.7-6.7l0.3,0.2c-1.4,2.3-2.8,4.6-4.1,7
	c-1.3,2.4-2.5,4.8-3.5,7.3c-1,2.5-1.8,5.1-2.4,7.7c-0.1,0.6-0.3,1.1-0.4,1.7l2.1-4.9c0.9,1.4,1.1,3.3,0.4,4.8
	c-0.6,1.3-1.7,2.4-3.1,2.9c-0.1,0.5-0.2,1-0.3,1.5l2.4-2.1c0.4,0.7,0.2,1.8-0.4,2.3c-0.6,0.5-1.4,0.6-2.1,0.3
	c-0.1,0.5-0.2,0.9-0.2,1.4c0,0.1,0.1,0.1,0.1,0.2c0.1,0.2,0.1,0.4,0.2,0.6c0.1,0.3,0.2,0.7,0.3,1c0,0.1,0.1,0.1,0.1,0.2
	c0,0,0.1,0.1,0.1,0.1l0.2,0.4c0.2,0.2,0.3,0.5,0.4,0.7c0.3,0.5,0.4,1.1,0.9,1.7c0.3,0.3,0.5,0.8,0.5,1.1c0.1,0.4,0.1,0.7,0.1,1
	c0.2,1.3,0.6,2.5,1.1,3.7c0.2,0.6,0.5,1.2,0.7,1.5c0.2,0.3,0.6,0.6,1.1,1l3.2,2.2C34.6,99.2,35.9,100.2,37.2,101.2z M43.3,34.7
	C43.2,34.7,43.2,34.7,43.3,34.7C43.2,34.7,43.2,34.7,43.3,34.7C43.3,34.8,43.3,34.8,43.3,34.7C43.3,34.8,43.3,34.7,43.3,34.7z
	 M152.2,70.8c0-8.4-0.1-16.6-2.3-24.2l-1.2-0.6c-0.8-0.4-1.7-0.8-2.5-1.2c-3.4-1.5-6.9-2.7-10.6-3.5c-3.6-0.9-7.3-1.3-11-1.4
	c-3.3-0.1-6.5,0.2-9.7,0.7c0.2,0.2,0.4,0.5,0.5,0.7c0.6,1,1,2.1,0.9,3.2l-0.3,0.1c-1.4-1.6-2.9-2.6-4.5-3.2c-1.6-0.6-3.3-1-5-0.8
	c-1.7,0.2-3.4,1-4.9,2.1c-0.5,0.4-0.9,0.7-1.4,1.2l0,0c-0.1,0-0.1,0.1-0.2,0.1c-0.9,0.9-1.7,1.9-2.5,3c0.1-0.7,0.2-1.4,0.5-2
	l-1.4,0.5L93.2,47l-3.5,1.7l-3.4,1.8c-4.5,2.5-8.8,5.4-12.9,8.5c-4.1,3.2-7.9,6.6-11.5,10.4c-3.5,3.6-6.7,7.5-9.5,11.6
	c0.2,1.7,0.9,3.4,1.9,4.9L54.3,86c-2-2-3.3-4.8-3.5-7.7c-0.8-1.5-2.2-2.5-3.8-3.3c-2.4,0.7-4.8,1.6-6.9,2.9c-2,1.2-3.9,2.7-5.4,4.4
	c-0.5,2.3-0.6,4.8-0.5,7.2c0.2,2.6,0.7,5.2,1.5,7.7c3.2,2.1,5.8,4.9,8.2,7.6c2.5,2.8,4.8,5.6,7.6,7.8c0.5,0.2,1,0.2,1.6,0.1
	c0.7-0.2,1.5-0.5,2.3-0.9c1.4-0.7,2.6-1.9,3.7-3.3c0.1-2,0.2-4.1,0.3-6.1l0.1,0c0.3,4.1,0.5,8.1,1,12.2c0.4,4,1,8,2.1,11.9
	c1,3.9,2.4,7.6,4.4,11c1.9,3.4,4.3,6.5,7.1,9.2c1.4,1.3,2.9,2.5,4.5,3.6c1.6,1,3.3,2,5,2.7c3.5,1.5,7.4,2.5,11.3,3.5
	c4,1,8,2.3,11.9,3.8c3.9,1.5,7.7,3.3,11.4,5.3l-0.7-0.3c1.3,0.7,3,0.7,4.5,0.2c1.6-0.5,3.1-1.5,4.4-2.7c2.4-2.2,3.8-5.3,4-8.6
	c-0.6-1.4-0.8-2.8-0.8-4.1c0-1.5,0.4-2.9,1-4.1c-0.6,0.1-1.3,0.1-1.9,0l0-0.1c1.3-0.3,2.4-0.9,3.5-1.6c0.7-0.5,1.4-1.2,1.9-1.8
	c-0.3-0.6-0.5-1.2-0.8-1.8c-0.2-0.4-0.4-0.9-0.7-1.3l0,0c-1.6,0.3-3.2,0.3-4.7,0.1c-1.7-0.1-3.4-0.4-5-0.7c-1.6-0.3-3.3-0.6-4.9-0.8
	c-1.6-0.2-3.3-0.3-4.9-0.1l0-0.2c1.6-0.4,3.3-0.5,5-0.5c1.7,0,3.3,0.1,5,0.1c1.7,0.1,3.3,0.1,4.9,0c1.6-0.1,3.1-0.3,4.5-0.8l0.2,0
	c1.9-0.4,3.6-1.2,5.1-2.3c-0.1-0.6-0.2-1.2-0.3-1.8c-0.1-1.1-0.1-2.2-0.1-3.2c0.1-1.4,0.3-2.7,0.6-4.1c-0.7-0.1-1.5-0.3-2.2-0.5
	c-1.3-0.4-2.5-0.8-3.7-1.3c-1.2-0.5-2.4-1.2-3.4-2.1c-1-0.9-1.9-2.1-2.2-3.4l0.2-0.2c2.1,1.5,4.2,1.9,6.5,2.4
	c2.3,0.5,4.6,0.8,6.9,0.9c2.3,0,4.6-0.1,6.9-0.4c1.7-0.3,3.4-0.7,5.1-1.2c0.7-5.3,0.4-10.7-0.9-16c-0.7-2.9-1.7-5.8-3-8.5
	c-1.3-2.8-2.9-5.3-4.7-7.8l-0.5-0.6l0.6-0.7l0,0c2.1-2.1,3.6-4.7,5-7.4C149.9,75.7,151,73.3,152.2,70.8z M158.1,42.3
	c-0.3-0.7-0.9-1.4-1.5-2.1c-1.9-2-3.9-3.9-6-5.7l-0.2-0.1c0,0,0-0.1,0-0.1c-0.7-0.6-1.4-1.2-2.2-1.7l0.1-0.1
	c0.7,0.4,1.4,0.8,2.1,1.2c0-0.9-0.2-1.7-0.4-2.6c-0.3-1.1-0.7-2.1-1.2-3.1c-0.5-0.9-1.2-1.8-2-2.6c-0.8-0.8-1.7-1.6-2.6-2.3
	c-0.5-0.4-1.1-0.9-1.6-1.4c0,0.1,0,0.3-0.1,0.4c-0.2,0.5-0.4,1-0.8,1.3c0.9,0.7,1.6,1.7,1.8,3c0.5,3-2,5-3.6,7.2
	c-0.6,0.8-2,0-1.4-0.8c0.7-1,1.5-1.9,2.3-2.9c0.6-0.9,1.2-1.9,1.1-3c-0.2-2.6-3.2-3.5-5.4-4c-0.1,0.7-0.3,1.3-0.5,2
	c1.4,0.2,2.5,1.6,2.4,3c-0.1,1.8-1.6,3-3.1,3.7c0,0,0,0,0,0c0.1,0,0.1,0.1,0.2,0.1c0,0,0.1,0.1,0.1,0.1c0.8,0.2,1.5,0.3,2.2,0.5
	l-0.1,0.3c-0.5-0.1-1.1-0.1-1.6-0.2c0.1,0.1,0.2,0.2,0.3,0.3c0.2,0.2,0.3,0.3,0.5,0.5c0.2,0.2,0.3,0.4,0.3,0.6c0,0.1,0,0.3-0.1,0.4
	c-0.1,0.8-0.4,1.7-0.9,2.4c-0.2,0.4-0.7,0.5-1.1,0.3c0,0,0,0-0.1-0.1c-0.1,0.3-0.1,0.6-0.2,0.9c0,0.1,0,0.1-0.1,0.2
	c0.4-0.2,0.9,0,1.1,0.4c0,0,0.1,0,0.1,0c0,0,0.1,0,0.1,0c0,0,0.1,0,0.1,0c0,0,0.1,0,0.1-0.1c0.6-0.3,1.1-0.7,1.6-1.1
	c1-0.9,1.8-2,2.3-3.2c0.2-0.4,0.5-0.7,1-0.6c0.4,0.1,0.7,0.6,0.6,1c-0.7,1.7-1.8,3.2-3.2,4.3c-0.1,0.1-0.3,0.2-0.5,0.4
	c3.1,0.9,6.1,2,8.9,3.5c0.9,0.5,1.7,1,2.6,1.4l2.5,1.6l2.4,1.7l1.1,0.9l0.6,0.5c0.1,0.1,0.2,0.2,0.3,0.4c0.8-1.5,1.6-2.9,1.8-4.4
	C158.4,43.8,158.3,43,158.1,42.3z M135.5,34.4c0-0.1,0-0.1,0-0.2c0,0,0,0-0.1-0.1c0,0.1,0,0.3,0,0.4
	C135.5,34.5,135.5,34.4,135.5,34.4z M86.1,90.9l0.8,0c0.1,1.9-0.2,3.7-0.6,5.5c-0.1,0.5-0.3,1-0.7,1.5c-0.3,0.3-0.7,0.4-1.1,0.4
	c-0.3,0-0.5-0.1-0.8-0.3c-0.5-0.4-0.5-1.1-0.5-1.4c0-2,1-4,2.7-5.2l0.3,0.4C86.1,91.5,86.1,91.2,86.1,90.9z M82.2,102.7
	c0.5,1.6,0.6,3.3,0.1,4.9c-0.1,0.6-0.4,1.3-1.1,1.8c-0.3,0.2-0.6,0.3-1,0.3c-0.1,0-0.2,0-0.3,0c-0.4-0.1-0.7-0.3-0.9-0.6
	c-0.2-0.3-0.2-0.7-0.2-1c0.1-1.7,1.1-3.7,2.4-4.9l0.3,0.3c0-0.2-0.1-0.4-0.1-0.6L82.2,102.7z M140.7,22.2
	C140.7,22.2,140.7,22.2,140.7,22.2C140.7,22.1,140.7,22.1,140.7,22.2C140.7,22.1,140.7,22.1,140.7,22.2z M140.9,21.8
	C140.9,21.8,140.9,21.8,140.9,21.8C140.9,21.8,140.9,21.8,140.9,21.8C140.9,21.7,140.9,21.7,140.9,21.8z M86.7,42.5
	C86.7,42.5,86.7,42.5,86.7,42.5C86.7,42.5,86.7,42.5,86.7,42.5C86.7,42.5,86.8,42.5,86.7,42.5C86.8,42.5,86.8,42.5,86.7,42.5
	C86.7,42.5,86.8,42.5,86.7,42.5z M65.1,33.6C65.1,33.6,65.1,33.6,65.1,33.6C65.1,33.5,65.1,33.5,65.1,33.6
	C65.1,33.5,65.1,33.6,65.1,33.6z M49.5,58.4c0.1,0.4-0.2,0.8-0.6,1c-1,0.4-2,0.6-3.1,0.5c-1-0.1-2.4-0.3-2.4-1.6
	c0-1,0.8-1.6,1.6-1.9c1.4-0.5,3.1,0.1,3.8,1.3c0,0.1,0,0.1,0.1,0.2C49.3,58,49.5,58.2,49.5,58.4z M47.4,58.2
	C47.4,58.2,47.4,58.2,47.4,58.2C47.3,58.2,47.3,58.2,47.4,58.2C47.3,58.1,47.3,58.1,47.4,58.2c-0.2-0.1-0.3-0.2-0.4-0.3c0,0,0,0,0,0
	c0,0,0,0,0,0c-0.1,0-0.1,0-0.2-0.1c-0.1,0-0.1,0-0.2,0c0,0,0,0,0,0c-0.1,0-0.2,0-0.3,0c0,0-0.1,0-0.2,0c0,0,0,0,0,0
	c0,0-0.2,0.1-0.3,0.1c0,0,0,0,0,0c0,0,0,0-0.1,0c0,0-0.1,0.1-0.1,0.1c0,0-0.1,0-0.1,0.1c0,0,0,0,0,0c0,0,0,0,0,0c0,0,0,0,0,0
	c0,0,0,0-0.1,0.1c0,0,0,0,0,0c0.1,0,0.1,0,0.2,0c0.1,0,0.1,0,0.2,0c0,0,0,0,0,0c0,0,0.1,0,0.1,0c0.1,0,0.1,0,0.2,0
	c0.1,0,0.2,0,0.2,0c0.2,0,0.4,0,0.5,0c0.1,0,0.2,0,0.3,0c0.1,0,0.1,0,0.2,0c0,0,0,0,0,0c0,0,0,0,0,0C47.2,58.2,47.2,58.2,47.4,58.2
	C47.3,58.2,47.4,58.2,47.4,58.2z M39.9,61.3c-0.4-0.4-0.5-0.9-0.6-1.4c0-0.4,0.1-0.9,0.3-1.3c0.3-0.4,0.6-0.6,1-0.7
	c-0.2-0.2-0.4-0.5-0.5-0.8c-0.2-0.4-0.2-1,0-1.4c0.3-1,1.2-1.6,2.2-1.7c-0.2-0.5-0.2-1.1,0-1.6c0.4-1,1.3-1.8,2.4-1.8
	c1.1,0,2,0.7,2.4,1.7c0.4-0.6,1.2-0.9,1.9-0.8c1,0.1,1.8,1,1.8,2.1c0,0.2-0.1,0.3-0.2,0.5c0.4-0.2,0.8-0.4,1.3-0.3
	c0.4,0,0.8,0.1,1.2,0.4c0.4,0.3,0.7,0.7,0.8,1.2c0.1,0.4,0.1,0.9-0.1,1.3c-0.1,0.4-0.3,0.6-0.6,0.9c0.6,0.9,1.1,1.8,1.4,2.9
	c0.7,2.5,0.1,5.5-1.9,7.3c-0.3,0.3-0.7,0.2-1,0c-0.5,0.2-1.2,0.1-1.6-0.2c-0.7-0.7-0.8-1.8-0.5-2.8l2.2,1.6c0,0,0,0,0,0l-1.6-4.3
	c1.4,0.3,2.4,1.6,2.6,2.9c0.6-1.3,0.7-2.9,0.3-4.3c-0.7-2.3-2.4-4-4.4-5.3c-0.1-0.1-0.2-0.1-0.2-0.2c-0.2,0-0.4-0.1-0.5-0.2
	c-0.8-0.8-2.2-0.7-3.1-0.2c-1,0.5-1.7,1.5-2.2,2.5c-0.5,1-0.7,2.2,0.1,3.1c0.2,0.2,0.4,0.4,0.6,0.5c0.2,0,0.3,0.1,0.4,0.2
	c1.8,0.9,4.2,0,5.9-0.6c0.4-0.2,0.9,0.2,1,0.6c0.1,0.4-0.2,0.8-0.6,1c-0.4,0.2-0.9,0.3-1.3,0.5c-0.3,0.4-0.8,0.7-1.4,0.7l0.5-0.4
	c-0.6,0.2-1.2,0.3-1.9,0.3c-0.5,0.7-1.6,1.1-2.4,0.8c-0.6-0.2-1-0.8-1.2-1.4c-0.4,0-0.7-0.1-1.1-0.2C40.8,62,40.3,61.7,39.9,61.3z
	 M51.6,55.4c0.3,0.2,0.5,0.5,0.8,0.7c0,0,0-0.1,0.1-0.1c0-0.1,0-0.1,0-0.2c0-0.1,0-0.1,0-0.2c0,0,0-0.1,0-0.1c0,0,0-0.1-0.1-0.1
	c0,0,0,0-0.1-0.1c0,0-0.1-0.1-0.1-0.1c-0.1,0-0.1,0-0.2,0c-0.1,0-0.1,0-0.2,0c0,0-0.1,0-0.1,0C51.7,55.3,51.6,55.4,51.6,55.4z
	 M50.2,54.3c0.1,0,0.1,0.1,0.2,0.1c0-0.1,0.1-0.1,0.1-0.2C50.4,54.3,50.3,54.3,50.2,54.3z M48.5,53.2c0.2,0.1,0.4,0.3,0.6,0.4
	c0,0,0,0,0,0.1c0.1,0,0.1,0,0.2,0c0-0.1-0.1-0.2-0.1-0.2c0,0,0,0,0,0c0,0,0-0.1,0-0.1c0,0,0-0.1-0.1-0.1c0,0-0.1-0.1-0.1-0.1
	c0,0-0.1,0-0.1-0.1c0,0-0.1,0-0.1,0c0,0-0.1,0-0.1,0c0,0-0.1,0-0.1,0C48.7,53.1,48.6,53.1,48.5,53.2C48.6,53.2,48.5,53.2,48.5,53.2z
	 M43.9,53.1c0,0,0,0.1,0,0.1c0,0,0,0,0,0c0,0,0,0,0,0.1c0.3-0.2,0.7-0.4,1.1-0.5c0.2-0.1,0.5-0.1,0.7-0.2c0,0,0,0,0,0
	c0,0-0.1-0.1-0.1-0.1c0,0,0,0,0,0.1c0,0,0,0,0,0c0,0-0.1-0.1-0.1-0.1c0,0,0,0,0,0c-0.1-0.1-0.2-0.1-0.3-0.2v0c-0.1,0-0.1,0-0.2,0
	c0,0-0.1,0-0.1,0c0,0,0,0,0,0c-0.1,0-0.1,0-0.2,0c0,0,0,0-0.1,0c0,0,0,0,0.1,0c0,0-0.1,0-0.1,0c0,0,0,0,0,0c0,0-0.1,0-0.1,0
	c-0.1,0-0.1,0-0.2,0c0,0,0,0,0,0c0,0-0.1,0.1-0.1,0.1c0,0,0,0,0,0c0,0,0,0,0,0c0,0-0.1,0.1-0.1,0.1c0,0,0,0-0.1,0.1c0,0,0,0,0,0
	c0,0-0.1,0.1-0.1,0.1c0,0,0,0,0,0c0,0.1-0.1,0.2-0.1,0.2c0,0,0,0,0,0C43.9,53.1,43.9,53.1,43.9,53.1z M36.1,41.1
	C36.1,41.1,36.1,41.1,36.1,41.1C36.2,41.1,36.2,41.1,36.1,41.1C36.1,41.1,36.1,41.1,36.1,41.1C36.1,41.1,36.1,41.1,36.1,41.1z
	 M36.8,41C36.8,41,36.8,41,36.8,41C36.8,41,36.8,41,36.8,41C36.8,41,36.8,41,36.8,41C36.8,41,36.8,41,36.8,41z M35.9,41.1
	C35.9,41.1,35.9,41.1,35.9,41.1C35.9,41.1,35.9,41.1,35.9,41.1C35.9,41.1,35.9,41.1,35.9,41.1C35.9,41.1,35.9,41.1,35.9,41.1z
	 M35.8,41C35.8,41,35.8,41,35.8,41C35.8,41,35.8,41,35.8,41C35.8,41,35.8,41,35.8,41z M37,40.9C37,40.9,37,40.9,37,40.9
	C37,40.9,37,40.9,37,40.9C37,40.9,36.9,40.9,37,40.9C36.9,40.9,36.9,40.9,37,40.9z M30.2,72c-0.3-1.2-1.6-2.1-2.8-2l1.3,5.1
	C29.8,74.6,30.5,73.2,30.2,72z M29.8,74.7l-2.5,3.5c0.9,0.5,2.1,0.2,2.7-0.7C30.7,76.7,30.6,75.5,29.8,74.7z M87.2,28.1
	c0.5,2.8,1.5,4.1,3,4l0.1,0c1.2-0.1,1.9-0.8,2-2.3l-1.1-4.9l0-0.1c3.7-0.8,5.5-1.3,5.5-1.5c3-0.4,4.4-1.4,4.4-2.9
	c-0.3-1.6-1.1-2.4-2.4-2.3c-4.2,1.2-7,1.9-8.2,2l-0.3,0l-1.6-5.7l0-0.1l5.9,0l2.8-0.2l7.2-0.7l1.1,0c1-0.1,1.6-0.9,1.9-2.4
	c-0.1-1.4-1.2-2.2-3.4-2.3l-8.5,0.8l-9.3,0.1c-2.4,0.5-3.5,1.4-3.4,2.9L83,13C84.1,15.1,85.5,20.2,87.2,28.1z M104.8,22.2l0.4,1.7
	c1.1,2.7,3.4,4,7,4c2.3-0.1,5.7-1.4,10.2-3.8l0.2,0l-0.2,3.6l0,0.6l-0.1,0.1l0.1,0c0.1,1,0.7,1.6,2,1.8c1.4-0.1,2-1.2,1.9-3.4
	l0.9-8.4c-0.1-0.9-0.8-1.5-2.1-1.8l-0.8,0.1l-0.1-0.1l0,0.1l-2.6,0.3c-3.3,0.2-4.9,1-4.9,2.5l0,0.1c0.3,1.2,0.9,1.7,1.8,1.7l1.7-0.2
	l0,0.2c-3.8,1.9-6.3,2.8-7.7,2.9l-0.8,0.1c-1.9,0.1-2.9-0.6-3-2.1c0-0.6,0.1-1.5,0.5-2.6c1.9-3.2,4.5-4.9,7.8-5.1l0.9,0
	c0.8,0.3,1.3,0.5,1.5,0.5c1.2-0.3,1.8-0.9,1.8-1.9l0-0.4c-0.7-1.5-2.3-2.2-4.6-2.1c-2.7,0.2-5.2,1.3-7.7,3.3
	c-2.9,2.7-4.3,5.4-4.1,8.3L104.8,22.2z"/>
</svg>
