<?xml version="1.0" encoding="utf-8"?>
<!-- Generator: Adobe Illustrator 25.2.0, SVG Export Plug-In . SVG Version: 6.00 Build 0)  -->
<svg version="1.1" id="Layer_1" xmlns="http://www.w3.org/2000/svg" xmlns:xlink="http://www.w3.org/1999/xlink" x="0px" y="0px"
	 viewBox="0 0 154 170" style="enable-background:new 0 0 154 170;" xml:space="preserve">
<style type="text/css">
	.st0{fill:#FFFFFF;}
</style>
<path class="st0" d="M146.26,28.08C131.24,5.17,98.64-2.12,73.03,0.51C47.14,3.17,17.13,15.26,5.59,40.3
	c-10.01,21.72-6.34,48.6,9.05,66.88c16.14,19.17,42.9,26.89,67.22,22.76c0.32,0.44,0.71,0.84,1.16,1.18
	c3.38,2.59,6.76,5.18,10.15,7.77c-1.72,2.86-2.82,6.17-2.82,9.54c0,2.94,0.57,6.45,6.24,7.1c3.04,0.35,6.53-1.3,8.95-5.57
	c-2.39,5-5.02,12.33,0.45,15.38c5.55,3.09,8.49-1.53,11.3-5.36c-0.96,2.87-0.02,4.4,0.18,4.71c2.75,4.32,8.01,6.13,12.9,4.96
	c1.63-0.39,3.1-1.23,3.71-2.39c1.18-1.42,1.79-4.32-0.29-6.36c-2.36-2.31-3.21-5.85-1.7-8.89c0.21-0.43,0.32-0.84,0.39-1.25
	c5.32-3.56,9.28-8.74,11.26-15.1c0.46-1.47,0.56-2.43,0.62-3.45c0.57-3.45-4.73-7.46-7.94-4.29c-0.88,0.87-1.82,1.2-2.86,1.13
	c0.84-8.31,4.84-15.55,11.25-21.02c2.35-2,1.25-4.81-0.84-6.04c4.84-10.49,8.02-21.63,9.37-33.18
	C154.93,55.1,154.04,39.96,146.26,28.08z M78.66,92.95c-3.81-10.22-0.73-22.83,5.66-31.35c3.42-4.56,9.38-10.22,15.52-8.19
	c6.2,2.05,8.5,9.05,9.66,14.82c2.19,10.95,1.84,22.86-4.9,32.18c-0.19,0.26-1.98,1.2-2.7,1.76
	C93.47,108.81,81.87,101.55,78.66,92.95z M133.21,102.06c-0.68,0.4-1.62,0.83-3.04,0.47c-3.59-0.9-5.55-6.39-5.45-9.93
	c0.16-5.78,3.24-14.24,8.55-17.07c7.36-3.92,8.46,4.55,7.47,9.84C139.57,91.63,137.27,99.67,133.21,102.06z"/>
</svg>
