<?xml version="1.0" encoding="utf-8"?>
<!-- Generator: Adobe Illustrator 25.2.0, SVG Export Plug-In . SVG Version: 6.00 Build 0)  -->
<svg version="1.1" id="Layer_1" xmlns="http://www.w3.org/2000/svg" xmlns:xlink="http://www.w3.org/1999/xlink" x="0px" y="0px"
	 viewBox="0 0 896 562" style="enable-background:new 0 0 896 562;" xml:space="preserve">
<style type="text/css">
	.st0{fill:#BCBEC0;}
	.st1{fill:#1D1511;}
	.st2{fill:url(#SVGID_1_);}
	.st3{fill:url(#SVGID_2_);}
</style>
<g>
	<path class="st0" d="M213.49,313.98c-3.04,1.28-5.62,2.7-7.81,4.23c-0.14-2.65-0.25-5.3-0.33-7.95l-0.26-8.23
		c-0.53-17.03-1.08-34.48-1.5-51.88c3.78,9.48,11.58,16.28,22.7,19.72c2.74,0.85,5.53,1.28,8.27,1.28c8.45,0,16.14-3.96,21.64-11.16
		c5.14-6.71,10.62-15.04,13.11-25c4.9,4.68,10.02,9.36,15.77,13.53c1.54,1.12,2.5,2.51,3.02,4.37c0.93,3.29,2.32,7.56,4.86,11.39
		c0.99,1.48,1.96,3.13,2.99,4.88c1.97,3.33,4.34,7.35,7.54,10.96c-6.95,2.43-13.72,6.07-20.24,10.88
		c-5.88,4.34-11.2,9.21-16.33,13.91c-2.07,1.9-4.05,3.71-6.05,5.48c-5.76-2.13-11.81-3.21-18.02-3.21
		C233.82,307.18,224.49,309.34,213.49,313.98z M893.21,295.57c-6.13-12.49-15.41-18.83-27.58-18.83c-3.86,0-7.97,0.62-12.59,1.9
		c-18.25,5.06-35.78,12.2-52.73,19.09c0,0-5.99,2.43-6,2.44c-4.31-1.59-8.63-2.39-12.87-2.39c-8.79,0-17.1,3.36-24.71,10
		c-2.12,1.85-4.38,3.78-6.65,5.25c-1.66,1.08-2.63,1.16-2.89,1.16c-0.45,0-1.15-1.06-1.62-2.47c-3.68-10.98-14.91-18.95-26.7-18.95
		c-0.73,0-1.46,0.03-2.17,0.09c-6.59,0.57-11.91,3.16-16.4,6.05c-0.85-5.41-1.6-10.62-2-15.85c-0.53-6.79-1.65-13.37-2.73-19.73
		c-1.41-8.3-2.75-16.14-2.77-24.05c-0.05-20.06-13.49-34.62-31.98-34.62c-2.59,0-5.24,0.3-7.89,0.89
		c-10.12,2.25-19.78,6.7-28.22,12.95c0.62-1.13,1.23-2.27,1.83-3.44l1.1-2.16c6.66-13.02,13.54-26.47,17.14-41.63
		c3.86-16.24-1.83-28.64-16.04-35.4c-0.01-0.06-0.02-0.11-0.03-0.17c7.05-0.08,13.48-1.02,19.63-2.88
		c12.87-3.9,20.72-15.05,19.55-27.75c-0.46-5.01-1.05-10.35-2.62-15.71c-4.47-15.18-12.9-23.49-25.05-24.68
		c-6.53-0.64-13.23-1.62-19.71-2.56c-5.15-0.75-10.48-1.52-15.81-2.15c-3.86-0.45-4.12-0.84-4.71-1.7
		c-5.35-7.79-13.82-12.45-22.66-12.45c-2.52,0-5.01,0.38-7.41,1.13c-1.58,0.5-2.91,0.74-4.05,0.74c-1.07,0-2.44-0.18-4.52-1.51
		c-13.19-8.39-27.44-17.24-42.26-25.02c-0.55-0.29-0.85-0.46-1-0.56c-0.01-0.03-0.03-0.07-0.05-0.11C513.3,9.02,499.51,0,486.66,0
		c-2.45,0-4.8,0.33-7,0.97c-10.18,2.99-24.9,8.57-35.21,22.5c-1.25,1.68-2.5,3.35-3.76,5.02c-3.61,4.78-7.33,9.71-10.75,14.99
		c-1.05-0.16-2.14-0.24-3.24-0.24c-3.84,0-7.95,1-11.57,2.8c-9.37,4.68-20.08,10.46-28.65,19.78c-0.89,0.97-1.71,1.98-2.46,3.03
		c-3.53-2.2-7.74-3.38-12.48-3.38c-2.98,0-6.18,0.47-9.53,1.4c-5.33,1.48-9.46,4.25-12.78,6.47l-0.32,0.21
		c-2.39,1.6-5.07,3.07-7.91,4.63c-3.04,1.67-6.32,3.48-9.55,5.65c-0.6-3.37-1.24-6.71-1.87-10.01c-1.4-7.32-2.72-14.23-3.63-21.27
		c-2.14-16.56-14.2-27.26-30.72-27.26c-2.86,0-5.78,0.33-8.69,0.99c-13.4,3.03-23.78,11.4-30.43,17.43
		c-11.1,10.08-14.51,23.47-9.62,37.7c0.46,1.34,0.79,2.99,1.13,4.74c0.33,1.66,0.7,3.55,1.25,5.48c1.88,6.61,2.95,13.47,4.08,20.73
		c0.25,1.61,0.5,3.24,0.77,4.88c-4.29-4.1-8.07-8.4-11.36-13.17c-5.56-8.06-15.58-12.88-26.81-12.88c-5.38,0-10.51,1.11-14.84,3.22
		c-4.45,2.17-7.64,5.22-10.2,7.68c-0.26,0.25-0.51,0.49-0.76,0.72c-5.76-2.74-11.19-4.2-16.5-4.45c8.29-19.34,14.8-40.4,9.75-63.74
		c-1.29-5.95-5.2-24.04-24.72-28.71c-4.38-1.05-8.08-1.53-11.62-1.53c-4.95,0-9.51,0.95-13.94,2.89c-2.3,1.01-4.77,1.88-7.38,2.81
		c-5.96,2.12-12.71,4.51-18.86,9.15c-7.63,5.76-12.73,14.01-14.63,22.57C85.74,27.02,69.76,20.2,56.17,20.2
		c-4.12,0-8.01,0.6-11.56,1.78c-6.44,2.14-12.16,5.07-17.69,7.9c-2.93,1.5-5.7,2.91-8.5,4.18c-6.98,3.16-12.81,10.01-16,18.8
		C-0.79,61.7-0.8,70.91,2.38,77.49c7.41,15.31,13.27,28.29,17.77,41.91c5.08,15.39,8.94,27.94,12.15,39.47
		c4.49,16.17,9.37,32.47,14.09,48.23c1.44,4.8,2.88,9.61,4.31,14.42c5.06,17.02,11.62,36.58,25.51,53.43
		c7.26,8.81,16.64,10.84,24.16,12.48c2.32,0.5,4.51,0.98,6.46,1.6c1.08,0.35,2.22,0.53,3.38,0.53c1.93,0,3.83-0.47,5.81-1.45
		c1.16-0.57,2.77-1.07,4.48-1.6c0.27-0.08,0.54-0.17,0.82-0.25c0.22,3.76,0.61,7.44,0.99,11.05c0.54,5.11,1.05,9.94,1.07,14.71
		c0.03,6.59,0.78,13,1.5,19.19c0.71,6.07,1.38,11.8,1.37,17.41c-0.01,8.93,2.91,16.52,5.49,23.21c1.74,4.51,3.37,8.76,3.96,12.94
		c1.15,8.31,4.58,15.63,7.9,22.72c1.32,2.82,2.57,5.49,3.63,8.12c2.02,5.02,4.87,9.35,7.39,13.16c1.99,3.02,3.87,5.87,5.12,8.69
		c3.29,7.39,7.87,13.23,12.29,18.88c1.9,2.43,3.7,4.72,5.34,7.06c4.45,6.37,10.81,9.74,18.39,9.74c3.87,0,8.05-0.9,12.78-2.74
		c9.36-3.66,14.28-14.15,12.52-26.73c-0.78-5.58-1.83-11.08-2.85-16.41c-0.64-3.32-1.25-6.55-1.8-9.74c0.6,1.21,1.19,2.42,1.79,3.63
		c2.92,5.96,5.71,12.23,8.4,18.28c5.14,11.56,10.46,23.52,17.28,34.82c-0.08,0.07-0.16,0.14-0.24,0.21
		c-1.15,1.01-2.39,2.02-3.7,3.09c-7.07,5.76-16.75,13.66-17.7,28.15c-1.11,16.92,6.25,26.6,12.62,31.74
		c6.14,4.95,12.88,7.46,20.06,7.46c4.53,0,9.15-1.03,13.72-3.07c5.09-2.26,10.08-4.57,15.02-7.67c2.77,4.21,5.76,8.13,8.67,11.92
		c0.73,0.95,1.45,1.9,2.17,2.85c6.37,8.42,15.43,13.06,25.53,13.06c4.94,0,9.97-1.09,14.95-3.24c13.89-5.98,22.96-16.56,30.7-27.09
		c6.93-9.43,8.93-19.59,5.98-30.28c3.47,8.29,8.69,16.67,18.5,23.19c5.78,3.85,12.01,5.72,19.05,5.72c4.35,0,8.32-0.68,12.16-1.35
		l0.97-0.17c9.71-1.66,15.02-8.63,18.89-13.72c1.02-1.34,1.99-2.61,2.92-3.64c2.65-2.95,3.27-6.22,3.34-8.59
		c7.54-2.41,17.03-6.41,25.01-13.97c14.14,8.8,29.73,17.32,47.84,21.47l0.89,0.2c5.44,1.25,11.61,2.67,18.09,2.67
		c4.02,0,7.74-0.52,11.35-1.6c16.06-4.8,26.84-15.5,36.09-26.35c6.13-7.19,7.96-15.33,8.8-20.83c0.56-3.7,1.09-8.09,1.04-12.87
		c2.35,5.39,5.06,10.63,8.82,15.58c6.68,8.79,15.62,14.28,23.51,19.12c1.81,1.11,3.52,2.16,5.2,3.24c4.13,2.66,8.84,4.06,13.62,4.06
		c3.75,0,7.38-0.87,10.77-2.57c7.75-3.9,13.44-10.15,16.57-17.59c7.21,10.36,15.81,19.18,24.18,27.77c1.97,2.02,3.93,4.04,5.88,6.07
		c6,6.28,14.31,9.88,22.79,9.88c10.39,0,19.55-5.18,24.49-13.86c4.71-8.26,5.17-16.96,5.58-24.64c0.17-3.11,0.32-6.05,0.74-8.75
		c0.68-4.39-1.49-7.59-2.32-8.8c-3.67-7.6-8.09-14.59-12.36-21.36c-2.46-3.89-4.78-7.56-6.97-11.35
		c-7.85-13.55-13.6-28.01-18.19-41.46c2.81,0.34,5.66,0.51,8.52,0.51c2.9,0,5.88-0.17,8.87-0.52c5.23-0.6,10.66-1.65,16.53-3.19
		c5.2,13.15,10.61,27.11,15.59,41.21c7.47,21.17,13.45,37.35,19.38,52.48c4.24,10.81,11.13,23.92,26.97,29.33
		c2.84,0.97,5.79,1.46,8.76,1.46c7.55,0,13.96-3.14,19.12-5.66l1.3-0.63c11.17-5.41,19.94-23.68,17.07-35.55
		c-4.76-19.69-10.54-39.13-17.16-57.77c-2.34-6.57-4.58-13.33-6.75-19.95c0.81,0.08,1.63,0.12,2.44,0.12
		c5.64,0,14.17-1.93,22.73-11.13c8.69-9.34,15.13-20.32,19.14-32.63c0.54-1.64,1.03-3.29,1.53-4.94c1.78-5.93,3.31-11.04,6.62-15.21
		C896.61,315.89,897.95,305.23,893.21,295.57z M573.33,324.04c-2.16-2.1-4.89-4.06-8.34-5.79c-12.92-6.46-27.05-10.87-42-13.09
		c-1.59-0.24-3.18-0.49-4.77-0.74c-7.22-1.13-14.68-2.31-22.48-2.31c-0.69,0-1.38,0.01-2.08,0.03
		c-26.45,0.73-48.98,9.57-66.96,26.26c-6.26,5.81-11.34,11.69-15.32,17.76c-0.12-0.8-0.44-2.79-0.44-2.79
		c-2.17-13.82-10.96-22.07-23.52-22.07c-3.55,0-7.44,0.67-11.56,2c-5.8,1.87-10.53,5.07-14.71,7.89c-0.79,0.53-1.55,1.05-2.31,1.55
		c0.75-6.02,2.39-11.96,5.73-17.5c6.14-10.16-0.45-19.01-2.93-22.34c-2.09-2.8-4.41-5.26-6.91-7.34c6.17-4.21,10.81-10.7,12.71-18.5
		c0.27-1.09,0.53-2.23,0.73-3.43c4.3,3.91,9.39,7,15.24,9.28c3.19,1.24,6.61,1.84,10.45,1.84c3.78,0,7.38-0.59,10.56-1.12l1.37-0.22
		c7.75-1.25,12.63-5.8,15.79-9.77c1.47,0.45,2.76,0.56,3.57,0.63l0.18,0.02c2.13,0.45,4.28,0.68,6.42,0.68
		c7.65,0,14.21-2.94,19.33-5.87c2.67,3.93,6.11,7.68,10.53,11.52c5.87,5.1,12.32,7.69,19.17,7.69c2.05,0,4.16-0.24,6.26-0.7
		c12.02-2.67,22.3-9.76,31.44-21.68c5.13-6.69,7.91-12.35,8.87-17.75c5.21,10.37,13.99,21.66,30.71,24.52
		c1.96,0.33,3.96,0.5,5.94,0.5c10.52,0,19.5-4.69,27.09-9.09c7.92-4.59,14.91-10.39,21.09-17.49c-0.13,0.79-0.22,1.6-0.27,2.43
		c-0.44,6.59,0.59,12.32,1.59,17.85c0.12,0.7,0.25,1.4,0.37,2.1c2.79,15.91,5.87,32,8.85,47.56l2.12,11.09
		c0.34,1.79,0.68,3.58,1.01,5.38c1.45,7.75,2.93,15.71,4.99,23.63c-2.94-4.8-6.06-9.41-9.13-13.96c-0.97-1.44-1.94-2.87-2.9-4.31
		c-5.97-8.93-14.87-14.04-24.41-14.04C586.55,314.38,579.07,317.89,573.33,324.04z"/>
	<path class="st1" d="M195.22,174.42c-0.75,18.6-2.37,37.21-2.05,55.79c0.46,26.78,1.34,53.58,2.17,80.35
		c1.02,32.85,6.37,65.1,9.66,97.61c1.25,12.34,4.42,24.5,6.15,36.86c1,7.15-1.01,14-6.26,16.05c-7.05,2.75-14.35,3.72-19.33-3.41
		c-5.61-8.04-12.6-15.07-16.69-24.27c-3.35-7.54-9.25-13.76-12.37-21.52c-3.81-9.47-9.54-18.68-10.9-28.49
		c-1.69-12.13-9.37-22.17-9.35-34.76c0.02-12.22-2.81-24.44-2.87-36.67c-0.06-11.91-2.81-23.58-2.15-35.48
		c0.12-2.24,0.02-4.5,0.02-8.8c-4.99,8.66-13.19,8.28-19.65,11.47c-0.51,0.25-1.21,0.53-1.69,0.37
		c-8.96-2.88-19.05-2.53-25.97-10.93c-12.14-14.72-18.34-32.07-23.65-49.92c-6.19-20.8-12.54-41.56-18.35-62.47
		c-3.73-13.43-7.92-26.69-12.29-39.92c-4.92-14.9-11.46-29.08-18.26-43.13c-4.03-8.33,1.01-25.39,11.15-29.97
		c8.43-3.81,16.3-8.74,25.22-11.7c12.33-4.1,32.56,1.67,36.08,18.14c2.2,10.3,2.84,20.78,5.2,31.03c1.33,5.8,4.09,11.18,4.1,19.02
		c6.12-8.23,8.55-16.09,11.01-23.91c2-6.35,1.23-12.51-1.51-18.63c-4.33-9.69,0.17-22.56,9.88-29.89
		c7.28-5.5,16.14-7.24,24.23-10.79c6.61-2.9,12.91-2.3,19.22-0.79c10.87,2.6,15.1,11.05,17.27,21.1
		c4.68,21.65-1.93,41.33-10.46,60.67c-2.03,4.59-4.47,9.01-6.74,13.56c1.87,1.27,3.6,0.51,5.04-0.19
		c9.09-4.37,17.81-2.38,26.08,1.91c3.24,1.69,4.96,1.41,7.58-0.88c3.33-2.9,6.15-6.35,10.36-8.41c8.4-4.09,22.73-2.8,29.02,6.34
		c8.77,12.73,20.49,22.16,33.35,31.41c0.93-6.95-1.61-12.92-2.76-18.99c-2.1-11.08-3.13-22.36-6.24-33.26
		c-1-3.52-1.32-7.21-2.54-10.73c-3.59-10.45-1.12-19.78,6.89-27.06c7.48-6.79,15.93-12.83,25.9-15.08
		c12.43-2.81,25.27,2.19,27.28,17.81c2.29,17.71,7.13,34.99,8.4,53.11c5.44-14.07,19.21-17.86,30.03-25.1
		c3.14-2.1,6.3-4.27,10.21-5.36c10.94-3.04,18.37,0.52,20.41,11.79c2.07,11.41,4.28,23.01,1.78,34.72c-0.24,1.12-1.14,1.96,0.1,3.01
		c8.38,7.05,7.53,17.51,9.41,26.77c2.56,12.59,7.01,24.54,11.02,36.64c2.96,8.94,6.19,17.8,8.88,27.37
		c3.39-3.04,6.54-5.86,9.69-8.67c1.55-1.38,1.42-2.46,0.34-4.41c-9.95-17.92-17.54-36.95-25.82-55.65
		c-4.81-10.86-5.52-22.97-8.16-34.5c-1.59-6.93-3.78-13.77-4.25-20.98c-0.49-7.45,0.6-14.37,5.78-20.01
		c7.2-7.83,16.39-12.92,25.76-17.6c3.35-1.67,7.61-2.37,10.85-1.09c4.53,1.79,5.49-1.19,7-3.6c4.57-7.28,9.93-13.98,15.04-20.88
		c7.56-10.21,18.31-15.43,29.99-18.86c8.95-2.62,22.37,4.18,26.33,13.79c1.33,3.24,3.25,4.45,5.64,5.71
		c14.27,7.49,27.96,15.96,41.54,24.6c5.25,3.34,10.35,3.94,16.94,1.88c7.02-2.2,14.52,1.15,18.83,7.43
		c3.16,4.6,7.23,5.43,11.79,5.97c11.92,1.4,23.73,3.54,35.7,4.72c9.76,0.96,13.94,9.07,16.44,17.56c1.31,4.44,1.83,9.16,2.26,13.8
		c0.76,8.19-4.49,14.85-12.5,17.27c-10.11,3.06-20.28,2.87-30.56,1.54c-1.13-0.15-2.33-0.41-3.47,0.88
		c4.83,4.08,7.9,9.13,7.79,15.66c-0.02,1.14,0.18,1.58,1.36,1.99c12.95,4.45,17.62,12.45,14.49,25.64
		c-3.51,14.78-10.56,28.11-17.42,41.55c-7.44,14.57-17.34,26.73-31.54,34.95c-8.05,4.66-16.59,9.05-26.33,7.38
		c-14-2.4-21.09-12.74-25.98-24.75c-6.68-16.4-6.15-33.68-6.04-51.02c0.13-21.95,1.41-43.71,5.87-65.21
		c0.48-2.32-0.29-3.13-2.17-3.91c-7.79-3.25-16.15-4.9-23.69-9.02c-3.52-1.92-3.53,1.93-3.31,4.04c1.1,10.48,1.27,20.97,1.5,31.49
		c0.23,10.7-0.33,21.27-1.97,31.81c-0.26,1.68-0.82,3.31,1.86,2.89c8.58-1.35,15.03,1.9,18.34,9.76c3.16,7.52-0.66,17.83-8.02,23.38
		c-3.22,2.42-8.74,3.74-9.69,6.69c-1,3.1,4.49,5.94,6.31,9.51c6.72,13.15,7.18,19.11-2.2,31.34c-6.62,8.63-14.58,15.54-25.67,18
		c-6.52,1.45-11.87-0.58-16.7-4.77c-4.54-3.95-8.61-8.4-11.25-13.77c-1.89-3.86-3.5-3.42-6.56-1.49
		c-7.02,4.43-14.24,8.62-23.16,6.64c-1.12-0.25-2.56-0.07-3.33-0.71c-4.19-3.5-6.89-0.74-9.09,2.3c-2.73,3.78-5.83,6.72-10.59,7.48
		c-5.73,0.92-11.69,2.17-17.16,0.05c-11.42-4.44-18.89-12.48-22.92-24.52c-7.21-21.57-14.06-43.3-23.01-64.26
		c-0.66-1.54-1.31-4.08-3.34-3.24c-2.12,0.88-0.32,2.92,0.04,4.5c3.89,16.83,7.52,33.72,11.66,50.49c2.41,9.77,5.47,19.4,8.54,28.99
		c1.03,3.23,0.47,6.08-0.28,9.13c-2.64,10.8-12.86,17.72-23.51,15.8c-1.73-0.31-3.54-1.31-5.14-1.02
		c-16.78,3.08-21.08-10.61-27.82-20.74c-1.64-2.46-2.7-5.5-3.56-8.56c-1.08-3.84-3.25-7.2-6.78-9.75
		c-9.65-7-17.68-15.84-26.47-23.82c-1.07-0.97-1.9-2.99-3.64-2.15c-1.75,0.85-0.78,2.8-0.56,4.23c2.08,13.82-4.18,24.97-12.03,35.22
		c-4.54,5.93-11.38,8.77-19.01,6.4c-7.91-2.45-14.31-7.26-16.92-15.43c-4.51-14.1-5.44-29-9.06-43.32
		c-2.31-9.13-4.7-18.23-7.05-27.35C195.88,174.3,195.55,174.36,195.22,174.42z M128.71,223.76c0.82-0.71,1.38-0.99,1.36-1.22
		c-0.97-13.93-1.04-27.86-0.61-41.81c0.05-1.73-0.37-3.13-2.73-2.39c-2.4,0.75-4.88,1.23-7.27,2.01c-2.95,0.96-3.62,2.88-2.65,5.89
		C120.86,198.68,124.74,211.19,128.71,223.76z"/>
	<path class="st1" d="M408.11,389.47c3.29-4.12,2.04-8.85,2.55-13.05c2.03-16.9,10.93-29.62,22.86-40.69
		c17-15.77,37.54-22.96,60.44-23.59c9.26-0.26,18.42,1.55,27.58,2.91c13.64,2.03,26.67,5.97,38.99,12.14
		c6.41,3.21,10.71,8.01,10.24,16.01c3.02-2.11,4.75-4.74,6.28-7.42c8.16-14.23,24.31-15.5,33.48-1.8
		c7.79,11.64,16.1,23.1,21.09,36.28c1.5,0.18,2.37-0.63,3.36-1.24c10.02-6.2,10.51-7.87,7.01-19.63c-3.27-11-5.15-22.32-7.3-33.57
		c-3.72-19.49-7.53-38.96-10.95-58.5c-1.04-5.92-2.24-11.46-1.83-17.57c0.31-4.65,2.27-7.88,5.37-10.5
		c8.11-6.88,17.81-11.68,27.85-13.92c15.55-3.46,27.65,7.3,27.69,24c0.04,15.18,4.37,29.6,5.53,44.52
		c0.72,9.31,2.48,18.53,3.83,27.79c0.21,1.44-0.5,3.52,1.39,4.08c1.74,0.52,2.5-1.52,3.73-2.38c6.3-4.4,12.05-9.8,20.29-10.52
		c7.67-0.67,16.05,4.71,18.51,12.08c3.08,9.21,11.05,11.95,19.43,6.53c2.76-1.79,5.31-3.94,7.79-6.11
		c8.52-7.44,18.02-9.68,28.65-5.33c2.58,1.06,4.5,0.1,6.65-0.77c18.8-7.62,37.51-15.51,57.1-20.94c14.28-3.96,22.6-0.35,28.51,11.7
		c3.36,6.86,1.5,13.54-2.54,18.62c-5.6,7.04-7.21,15.25-9.82,23.27c-3.54,10.87-9.16,20.54-16.96,28.92
		c-7.24,7.77-15.26,9.91-22.82,6.12c-8.06-4.04-13.54-14.81-12.19-24.01c0.16-1.1,0.42-2.19,0.71-3.68
		c-4.87,0.71-7.6,0.83-5.14,7.31c6.92,18.23,12.39,37,18.92,55.38c6.62,18.64,12.22,37.56,16.86,56.77
		c1.65,6.84-4.42,20.68-11.71,24.22c-6.7,3.24-13.61,7.09-21.58,4.37c-11.36-3.88-16.88-13.29-20.89-23.52
		c-6.76-17.25-13.09-34.68-19.26-52.16c-5.4-15.29-11.27-30.37-17.25-45.43c-1.37-3.46-3.05-4.19-6.07-3.3
		c-6.35,1.88-12.74,3.35-19.37,4.12c-9.05,1.04-17.82,0.31-26.4-2.49c-3.92-1.28-4.17,0.65-3.32,3.37
		c6.01,19.18,12.86,38.01,23,55.51c6.29,10.86,13.72,21.04,19.15,32.4c0.42,0.88,1.39,1.8,1.27,2.57
		c-1.56,10.04,0.07,20.87-5.12,29.97c-6.13,10.75-21.88,11.96-31.37,2.03c-12.39-12.97-25.65-25.25-34.5-41.35
		c-7.66-13.93-13.51-28.49-18.37-43.53c-1.23-3.82-3-7.46-3.36-11.56c-6.45,1.87-5.75,5.19-3.46,10.02
		c5.88,12.43,10.96,25.24,14.28,38.61c3.14,12.65-2.36,24.19-12.95,29.53c-5.24,2.64-10.66,1.48-14.47-0.97
		c-9.2-5.92-19.29-10.96-26.15-20c-4.69-6.17-7.63-13.26-10.43-20.41c-1.4-3.57-2.96-6.8-7.87-4.88c-1.04,0.41-2.46,0.62-3.47,0.26
		c-7.51-2.73-7.29,1.12-6.04,6.57c1.54,6.71,1.12,13.53,0.08,20.28c-0.88,5.79-2.55,11.21-6.53,15.86
		c-8.69,10.18-18.08,19.3-31.35,23.26c-8.57,2.56-16.98,0.46-25.23-1.43c-16.99-3.89-32.08-12.22-46.68-21.4
		c-3.31-2.08-5.5-2.62-8.46,0.58c-7.07,7.64-16.38,11.7-26.15,14.49c-3.34,0.96-3.8,2.76-3.93,5.39c-0.08,1.72,0.69,3.6-0.64,5.08
		c-4.82,5.37-8.3,12.86-16.05,14.19c-8.29,1.42-16.28,3.1-24.95-2.67c-10.26-6.82-14.28-16.14-17.71-26.74
		c-2.91-8.98-6.3-17.81-9.76-27.48c-5.52,6.09-12.9,9.21-19.63,13.36c-3.55,2.19-1.11,5.42,0.96,7.81
		c4.3,4.97,8.14,10.12,10.83,16.27c4.16,9.5,3.38,17.9-2.77,26.27c-7.23,9.85-15.05,18.85-26.6,23.83
		c-10.34,4.45-21.19,3.05-28.54-6.67c-3.84-5.08-7.8-10.05-11.23-15.43c-4.04-6.34-5.34-6.84-11.34-2.81
		c-4.86,3.27-10,5.65-15.34,8.02c-8.85,3.93-16.69,2.4-23.43-3.04c-7.1-5.73-9.54-13.91-8.92-23.31c0.8-12.22,10.4-17.7,18.03-24.39
		c4.78-4.19,5.87-6.83,2.38-12.58c-10.13-16.7-16.87-35.12-25.44-52.62c-3.82-7.8-7.79-15.48-10.97-23.62
		c-3.81-9.71-3.73-20.23-7.38-29.91c-2.03-5.4-4.01-10.72-4.49-16.75c-0.99-12.36,1.55-18.45,13.04-23.29
		c13.62-5.74,27.7-8.79,42.1-2.59c3.05,1.32,4.84,0.04,6.76-1.63c7.64-6.66,14.82-13.93,22.95-19.93
		c14.35-10.59,30.53-15.15,48.36-11.21c6.69,1.48,12.06,5.63,16.1,11.05c2.35,3.16,5.05,6.82,2.39,11.22
		c-6.81,11.28-7.97,23.73-7.71,36.5c0.03,1.35-0.35,2.7-0.41,4.06c-0.08,1.77-1.63,4.73,0.93,4.87c2.17,0.12,5.75-1.18,5.72-4.46
		c-0.03-3.83,1.99-5.47,4.93-7.04c6.62-3.51,12.27-8.89,19.46-11.21c13.94-4.5,20.44,1.41,22.12,12.1
		c1.73,11.06,3.54,22.27,1.04,33.51c-0.5,2.23,0.5,3.76,1.86,5.23C405.54,385.37,407.28,386.92,408.11,389.47z M522.21,372.03
		c-18.44-6.08-23.88-6.81-39.34-4.84c-12.82,1.64-22.7,12.29-20.28,22.96c1.96,8.65,8.32,13.75,14.78,18.76
		c1.48,1.15,2.88,0.11,4.04-1.16C493.47,394.59,505.23,381.08,522.21,372.03z M421.45,441.81c4.61-2.46,6.03-5.27,2.25-9.48
		c-1.26-1.4-1.88-3.35-2.82-5.04c-4.26-7.69-6.83-16.06-9.82-24.3C412.68,416.38,417.36,428.93,421.45,441.81z M342.35,433.97
		c4.5-1.3,8.3-2.41,12.1-3.49c0.87-0.25,1.52-0.94,1.15-1.65c-2.61-5.02-4.37-10.59-9.19-16.1
		C346.87,421.03,345.4,427.27,342.35,433.97z M524.9,419.46c-3.85,4.69-7.1,8.78-10.51,12.75c-1.22,1.41-1.26,1.99,0.53,2.93
		c5.43,2.86,10.75,5.94,16.11,8.93C528.6,435.99,528.92,427.59,524.9,419.46z"/>
	<linearGradient id="SVGID_1_" gradientUnits="userSpaceOnUse" x1="322.2266" y1="31.4981" x2="378.6577" y2="275.2047">
		<stop  offset="0" style="stop-color:#F47422"/>
		<stop  offset="1" style="stop-color:#BC3126"/>
	</linearGradient>
	<path class="st2" d="M193.45,427.21c0.69,4.33,2.56,8.57,0.53,13.39c-3.64-8.17-10.13-14.27-14.79-21.71
		c-7.71-12.3-12.74-25.53-18.44-38.6c-2.34-5.35-0.95-11.55-4.24-16.81c-6.75-10.77-5.58-23.34-6.78-35.18
		c-3.25-32.01-5.01-64.14-5.46-96.33c-0.32-23.01-0.81-46.03-1.05-69.04c-0.05-4.69-2.16-6.51-6.47-5.94
		c-5.19,0.69-10.23,1.89-15.22,3.7c-5.84,2.12-12.02,3.35-18.09,4.78c-4.04,0.96-5.52,3.05-4.38,7.19
		c4.35,15.77,8.65,31.56,13.94,47.05c3.14,9.21,6.49,18.36,9.87,27.48c1.15,3.11,1.08,5.31-2.79,5.91
		c-1.22,0.19-2.07,0.85-2.72,1.96c-3.26,5.61-9.62,6.74-14.47,2.65c-0.73-0.62-1.75-1.84-2.22-1.67c-6.94,2.58-8.08-3.77-10.43-7.18
		c-10.09-14.67-14.72-31.65-19.6-48.49c-7.21-24.85-13.94-49.84-21.66-74.55c-6.52-20.88-14.44-41.14-23.92-60.83
		c-2.36-4.9-0.78-9.89,3.87-12.5c7.63-4.27,14.93-9.33,23.78-10.94C63.41,39.6,68.79,43.21,70,54.02
		c2.25,20.15,7.13,39.65,13.54,58.83c0.86,2.57,1.49,5.17,1.5,8c0.01,4.79,2.09,5.6,6.24,3.12c2.36-1.41,3.29-3.84,4.66-5.83
		c10.04-14.58,19.81-29.38,22.93-47.29c1.29-7.42,0.7-14.85-2.6-21.66c-1.92-3.96-1.49-7.47,1.07-10.32
		c8.46-9.39,19.75-12.77,31.9-13.41c5.33-0.28,7.35,3.49,8.55,8.53c6.19,25.97-5.12,47.52-17.04,68.89
		c-5.52,9.91-12.73,18.69-20,27.37c-1.2,1.43-3.77,2.71-2.48,4.72c1.28,1.99,3.98,2.31,6.36,1.46c8.05-2.87,16.54-4.45,24.15-8.65
		c5.28-2.91,10.52-5.98,16.52-7.36c2.89-0.67,5.78-0.98,8.72-0.75c8.77,0.7,12.59,6.12,11,14.71c-1.39,7.44-4.92,14.28-5.03,22.12
		c-0.59,41.42-2.89,82.83-1.26,124.26c0.98,24.92,2.64,49.79,5.3,74.61C186.59,379.41,189.63,403.36,193.45,427.21z M639.43,88.05
		c-0.83-1.64-1.9-3.05-3.87-3.2c-13.44-1-26.63-4.25-40.02-5.01c-6.66-0.38-10.93-3.12-13.98-7.78c-2.73-4.18-6.31-4.86-10-3.88
		c-8.7,2.32-16.01,0-23.39-4.51c-12.87-7.88-26.28-14.9-38.97-23.04c-4.36-2.8-7.59-3.11-11.7-0.74c-1.48,0.85-2.83,2.12-4.89,2.03
		c-0.54-3.04,0.84-5.76,1.77-8.39c1.29-3.64,1.62-6.75-1.4-9.63c-3.04-2.91-6.64-3.22-10.36-2.06c-7.2,2.24-13.65,5.91-18.37,11.87
		c-5.2,6.57-9.73,13.67-15.01,20.17c-4.82,5.92-7.2,13.63-13.52,18.59c-2.47-6.06-7.9-9.73-11.68-7.57
		c-5.84,3.35-11.45,7.1-17,10.91c-3.85,2.65-5.1,6.34-4.55,11.19c1.41,12.4,5.57,24.22,7.16,36.59c0.72,5.55,2.06,11.27,4.39,16.33
		c9.4,20.49,17.27,41.74,29.55,60.83c1.86,2.89,1.86,5.06-1.06,7.52c-5.37,4.52-10.27,9.6-15.55,14.22
		c-3.8,3.33-2.65,7.23-1.21,10.72c1.62,3.96,5.49,3.26,8.68,2.25c6.18-1.95,11.65-5.53,16.37-9.72c5.61-4.98,5.16-5.35,9.72,0.81
		c5.08,6.85,10.34,13.59,15.57,20.32c2.53,3.26,5.28,3.6,9.17,1.58c6.14-3.19,10.26-8.22,14.49-13.34c3.46-4.18,3.08-8.2,0.12-12.23
		c-3.21-4.39-6.51-8.73-9.95-12.94c-6.2-7.6-5.86-9.81,2.68-14.83c3.87-2.27,7.74-4.53,11.68-6.68c2.11-1.15,3.97-2.49,5.01-4.72
		c0.48-1.03,1.47-2.11,0.68-3.24c-0.82-1.17-2.1-0.52-3.24-0.33c-6.66,1.11-12.52,4.34-18.51,7.14c-10.02,4.69-10,4.79-16.58-4.06
		c-9.53-12.83-17.45-26.71-20.87-42.28c-3.91-17.81-1.59-35.73,3.65-53.12c1.74-5.77,3.8-11.6,7.8-16.51
		c2.2,1.58,1.61,3.3,1.63,4.71c0.24,19.51,1.35,38.96,3.33,58.38c1.1,10.76,3.26,21.19,7.82,31.01c1.99,4.27,6.66,5.38,9.43,2.47
		c3.09-3.25,5.54-6.85,5.6-11.69c0.1-9.17,0.58-18.33,0.57-27.5c-0.01-17.16-1.81-34.28-1.21-51.45c0.21-6.09,0.94-6.49,6.54-4.06
		c13.01,5.66,25.33,12.75,39.2,16.69c11.18,3.18,14.2,9.8,12.05,21.08c-5.41,28.32-6.15,56.92-4.78,85.59
		c0.59,12.3,2.75,24.41,11.89,33.94c3.26,3.4,7.08,5.08,11.58,3.75c8.7-2.58,16.65-6.62,23.09-13.23
		c12.24-12.56,19.69-27.99,26.03-44c2.21-5.58,5.48-10.87,5.9-17.06c0.14-2.09,0.39-4.49-1.89-5.76c-2.32-1.29-4.73-0.7-6.58,0.88
		c-4.12,3.52-8.47,6.7-11.17,11.77c-6.43,12.04-11.95,24.59-19.9,35.77c-1.06,1.5-1.83,3.95-4.26,3.34
		c-2.43-0.61-2.72-2.96-3.08-5.15c-1.98-11.97-2.51-24-2.2-36.12c0.31-11.82,1.58-13.49,13.16-14.5c7.03-0.61,13.56-2.03,17.47-8.81
		c2.79-4.84,2.12-7.21-3.21-8.67c-4.68-1.29-9.58-1.73-14.29-2.93c-7.29-1.86-10.32-5.73-9.71-12.02c0.26-2.67,0.66-5.35,1.35-7.93
		c0.95-3.53,2.72-5.49,7.16-4.95c15.31,1.88,30.74,2.27,46.15,1.94c4.24-0.09,10.79,1.1,12.24-3.06
		C643.84,99.01,641.96,93.04,639.43,88.05z M333.24,218.9c-8.68-34.17-15.64-68.72-21.78-103.42c-3.67-20.72-6.74-41.56-9.92-62.36
		c-0.76-4.99-2.88-7.12-8.21-6.5c-9.61,1.12-16.06,7.42-22.76,13.25c-2.12,1.84-2.4,4.94-1.61,7.7c4.44,15.58,7.05,31.54,9.88,47.44
		c2.77,15.54,5.18,31.13,7.68,46.72c0.23,1.43,1.05,3.33-0.66,4.22c-1.36,0.71-2.42-0.89-3.55-1.56c-4.52-2.71-8.95-5.57-13.51-8.21
		c-10.73-6.22-20.85-13.43-29.83-21.84c-5.88-5.51-11.33-11.74-16.09-18.45c-3.62-5.12-9.59-5.55-14.29-1.47
		c-2.8,2.42-5.48,5.01-7.98,7.74c-9.72,10.56-9.57,18.71,0.63,28.84c2.86,2.84,4.64,6.07,6.05,9.81
		c6.44,17.05,10.44,34.69,13.63,52.57c1.23,6.9,2.65,13.76,4.17,20.6c1.4,6.32,7.94,10.41,11.15,6.9
		c4.61-5.04,8.83-11.27,8.78-17.93c-0.08-9.25,0.09-18.68-1.94-27.9c-0.62-2.81-3.25-5.04-1.9-8.85c1.47-0.58-2.97-7.24,3.42-4.15
		c7.17,3.47,14.1,7.44,20.47,12.41c14.34,11.17,26.2,25.14,40.87,35.92c1.82,1.33,2.3,3.45,2.95,5.55
		c3.15,10.17,7.81,19.52,15.83,26.84c3.06,2.79,6.54,4.44,10.65,2.25c4.88-2.61,7.88-8.47,6.71-12.89
		C339.13,241.04,336.06,230,333.24,218.9z M390.46,182.05c-5.12-14.27-10.05-28.71-11.37-44c-0.51-5.91-5.1-6.65-8.91-7.85
		c-5.04-0.18-22.43,10.81-24.3,14.76c-0.92,1.95-0.18,3.37,0.65,4.92c12.38,23.11,19.46,48.26,28.32,72.74
		c2.74,7.56,3.82,16.13,12.3,21.05c3.69,2.14,6.18-0.53,9.28,0.56c4.86,1.72,11.63-5.29,10.22-10.39
		C401.8,216.41,396.58,199.11,390.46,182.05z M347.38,131c5.55-2.35,11.13-4.62,16.74-6.83c5-1.97,7.69-5.38,8.38-10.85
		c1.07-8.47-1.22-16.63-1.71-24.94c-0.21-3.61-2.55-2.03-4.12-1.1c-7.85,4.67-15.69,9.36-23.43,14.2c-3.34,2.09-5.21,5.27-5.04,9.31
		c0.2,4.85,0.6,9.69,0.88,14.02C338.91,134.49,339.03,134.55,347.38,131z"/>
	<linearGradient id="SVGID_2_" gradientUnits="userSpaceOnUse" x1="527.2841" y1="270.9194" x2="579.7939" y2="494.747">
		<stop  offset="0" style="stop-color:#F47422"/>
		<stop  offset="1" style="stop-color:#BC3126"/>
	</linearGradient>
	<path class="st3" d="M299.71,353.02c0-4.04,0.03-7.55-0.02-11.06c-0.02-1.3,0.66-2.95-0.79-3.74c-1.81-0.98-2.91,0.73-3.92,1.76
		c-9.76,9.92-14.3,22.15-15.45,35.76c-0.36,4.27-0.16,8.58-0.17,12.88c-0.01,4.21,0.71,8.1,4.19,11.08
		c2.17,1.85,2.67,4.77,3.49,7.32c5.69,17.71,16.05,32.67,27.29,47.17c2.02,2.61,3.6,2.51,6.39,1.29
		c10.88-4.73,21.18-10.9,32.9-13.59c1.42-0.33,3.06-1.61,4.34-0.12c1.17,1.37,0.2,3.01-0.32,4.43c-1.13,3.09-3.54,5.03-6.3,6.64
		c-5.56,3.22-11.08,6.49-16.62,9.72c-9.51,5.53-9.93,9.86-2.86,18.48c5.15,6.29,10.76,12.3,14.52,19.68
		c2.15,4.22,2.28,7.81-0.61,11.92c-5.46,7.76-11.44,14.8-20.04,19.24c-5.02,2.59-9.2,2.35-12.76-2.61
		c-6.92-9.63-14.03-19.12-21.05-28.68c-3.48-4.74-5.53-4.54-9.54-0.19c-7.08,7.67-16.11,12.42-25.99,15.41
		c-3.4,1.03-6.98-0.26-8.3-3.81c-1.67-4.49-3.53-9.42,0.94-13.58c7.28-6.78,14.56-13.58,22.04-20.15c2.68-2.35,3.21-4.1,1.19-7.36
		c-15.54-25.04-26.32-52.52-40.1-78.47c-2.51-4.72-3.55-9.91-4.61-15.06c-1.45-7.07-2.47-14.3-5.73-20.8
		c-2.83-5.64-1.48-11.92-3.46-17.65c-0.73-2.11,0.55-3.59,2.5-4.69c8.24-4.65,16.83-8.28,26.36-8.99c5.65-0.42,10.87,1.78,13.49,6.6
		c2.35,4.32,4.19,2.92,6.55,0.95c7.79-6.5,15.95-12.64,23.1-19.79c9.23-9.23,20.39-14.17,32.67-17.17
		c4.25-1.04,8.59-0.61,12.57,1.44c5.27,2.71,6.09,5.75,3.95,11.2c-3.93,10.03-5.84,20.38-6.49,31.27
		c-1.23,20.87,1.8,41.7-0.15,62.52c-0.47,5.03-1.02,10.08-1.91,15.05c-0.82,4.56-4.79,7.34-7.77,10.18
		c-2.39,2.28-6.6,1.68-9.22-1.83c-2.26-3.03-3.68-6.49-4.82-9.96c-4.27-12.97-7.56-26.18-8.26-39.9
		C300.5,368.05,299.18,360.32,299.71,353.02z M591.24,398.61c-0.98,0-1.97-0.12-2.93,0.02c-5.47,0.79-8,4.46-8.83,9.49
		c-0.83,5.04,2.77,6.88,6.58,8.28c4.52,1.67,8.83-0.2,13.17-1.14c8.42-1.83,8.47-1.87,12.08,6.11c6.77,14.96,11.84,31.07,28.4,39.02
		c3.03,1.45,5.45,5.49,9.1,3.81c3.87-1.78,3.43-6.13,3.32-9.89c-0.11-3.75-0.9-7.33-2.15-10.85c-4.85-13.74-10.78-27.03-16.76-40.3
		c-1.21-2.69-2.78-5.15,0.99-7.46c7.98-4.87,15.9-9.86,23.56-15.2c4.34-3.02,6.62-2.39,7.81,2.68c0.27,1.14,0.64,2.25,0.95,3.37
		c6.25,22.33,13.5,44.25,25.39,64.39c8.07,13.65,20.12,23.75,30.62,35.23c1.58,1.73,3.69,2.73,6.35,1.82
		c2.94-1.01,2.69-3.66,3.05-5.76c0.52-3.05-0.09-6.36,0.73-9.29c1.17-4.17,0-7.28-2.01-10.92c-6.92-12.54-15.81-23.87-21.81-36.99
		c-9.79-21.43-17.48-43.5-22.63-66.5c-6.78-30.25-11.28-60.87-15.09-91.61c-1.34-10.82-3.49-21.5-3.76-32.5
		c-0.2-8.34-5.55-10.87-13.26-7.34c-3.89,1.78-7.68,3.85-11.7,5.25c-6.37,2.22-7.62,6.77-6.19,12.52c3.25,13.06,4.99,26.4,7.6,39.58
		c5.06,25.59,10.48,51.1,15.97,76.6c0.84,3.9-0.17,6.23-3.45,8.13c-6.08,3.51-12.06,7.19-18.11,10.75
		c-4.14,2.44-8.76,7.18-12.38,6.53c-3.87-0.7-4.65-7.72-7.04-11.84c-0.48-0.83-0.99-1.66-1.31-2.55
		c-4.63-12.79-13.22-23.26-20.37-34.57c-1.98-3.14-5.34-3.5-6.98,0c-3.16,6.72-8.82,11.32-13.16,17.01
		c-4.44,5.83-4.31,8.26,0.87,13.66c7.15,7.45,14.27,14.92,19.97,23.6c1.36,2.07,3.83,4.05,2.22,6.66c-1.63,2.66-4.28,0.21-6.47,0.34
		c-0.78,0.05-1.56,0.01-2.34,0.01C591.24,398.7,591.24,398.65,591.24,398.61z M476.61,349.66c19.05-4.35,37.12-1.28,54.65,6.64
		c1.84,0.83,3.66,2.72,5.9,0.97c5.37-4.19,11.02-8.11,15.94-12.78c4.63-4.4,3.79-6.62-1.96-9.31c-16.5-7.72-34.08-10.56-52.04-11.91
		c-23.25-1.75-43.01,5.99-59.33,22.25c-14.05,13.99-18.97,31.06-14.4,50.42c4.42,18.76,14.8,34.05,28.78,47.07
		c1.57,1.46,4.84,2.4,2.95,5.36c-1.51,2.37-4.19,3.5-7.17,3.02c-4.15-0.66-7.66-2.77-11.06-5.11c-1.05-0.72-2.43-2.45-3.48-1.23
		c-5.15,5.97-13.04,8.68-17.73,15.13c-1.94,2.67-1.63,5.54,0.51,7.44c6.25,5.51,12.87,10.02,22.14,7.42
		c9.7-2.72,16.83-9.08,23.31-16.04c4.15-4.46,6.97-4.26,11.69-1.07c17.02,11.51,34.93,21.25,55.31,25.69
		c14.25,3.1,35.87-9.14,39.16-23.2c1.78-7.64,2.12-15.74,0.01-23.55c-4.35-16.16-9.28-32.16-12.58-48.61
		c-2.16-10.79-7.08-13.25-17.82-10.7c-13.09,3.1-23.26,10.67-32.39,20.02c-7.49,7.68-15.12,15.23-22.32,23.18
		c-3.47,3.83-6.11,4.84-10.47,1.18c-6.23-5.24-13.01-9.87-18.14-16.3c-5.03-6.29-9.25-13-8.88-20.86
		C446.6,368.04,458.96,353.69,476.61,349.66z M547.16,463.81c-19.26-7.72-37.24-17.78-54.44-29.31c-2.3-1.55-2.24-2.74-0.36-4.49
		c8.03-7.46,14.2-16.56,21.66-24.53c3.77-4.03,8.2-7.19,13.06-9.76c4.11-2.17,6.9-1.27,8.48,3.39c3.63,10.71,6.27,21.69,8.83,32.66
		c2.3,9.83,4.98,19.63,5.63,29.81C550.3,463.81,549.79,464.86,547.16,463.81z M720.46,358.59c12.37,1.13,24.06-1.89,35.66-5.36
		c8.87-2.65,10.9-1.98,14.44,6.41c12.57,29.81,23.15,60.37,34.29,90.72c3.39,9.24,5.52,19.22,13.23,26.36
		c1.74,1.61,3.35,3.23,6.09,2.72c8.18-1.51,12.94-8.44,11.1-16.66c-1.28-5.7-2.74-11.38-4.41-16.98
		c-9.87-33.01-21.02-65.59-33.3-97.79c-1.81-4.76-2.15-9.46,3.69-11.6c11.31-4.16,22.05-9.82,33.81-12.76
		c5.48-1.37,6.9-0.21,5.43,5.18c-1.54,5.63-3.71,11.09-5.44,16.67c-1.24,3.98-1.78,7.96,0.59,11.87c1.88,3.1,3.84,3.51,6.52,1
		c3.59-3.36,6.41-7.28,9.17-11.33c8.84-12.97,7.74-30.2,18.65-42.42c2.74-3.06-1.94-8-6.46-6.95c-5.51,1.28-11,2.69-16.41,4.34
		c-17.74,5.43-34.37,13.8-51.96,19.65c-2.05,0.68-4.22,2.07-6.07,0.36c-7.24-6.74-13.15-2.95-18.95,2.12
		c-5.84,5.1-11.73,9.23-20.03,10.48c-13.41,2.02-23.19-2.84-27.04-15.5c-0.17-0.56-0.17-1.18-0.39-1.71
		c-1.59-3.65-3.73-5.41-7.62-2.51c-3.9,2.91-8.12,5.41-11.91,8.45c-3.94,3.16-5.86,7.59-6.38,11.1
		C696.82,348.42,706.3,357.3,720.46,358.59z M421.75,489.45c-3.26-13.07-7.22-25.92-11.5-38.71c-6.29-18.79-13.63-37.3-15.72-57.28
		c-0.47-4.53-6.94-9.05-10.95-7.12c-7.29,3.5-15.11,6.35-20.84,12.56c-2.2,2.39-2.19,4.54-0.61,7.34c2.48,4.39,4.6,8.99,6.69,13.58
		c9.26,20.4,14.98,42.09,22.99,62.95c2.24,5.83,3.44,12.08,9.77,16c3.58,2.22,6.7,0.5,9.6,1.52c3.07,1.08,5.12,1.72,6.6-1.64
		c1.08-2.46,4.86-2.94,4.57-6.56C422.18,491.35,421.99,490.4,421.75,489.45z M386.26,345.65c-0.33-4.17-2.06-3.85-4.86-2.1
		c-7.07,4.44-14.14,8.89-21.35,13.1c-4.95,2.89-7.05,7.1-6.71,12.59c0.33,5.43,1.06,10.83,1.37,16.26c0.21,3.63,1.66,4.25,4.84,2.88
		c7.13-3.07,14.4-5.81,21.48-9c5.69-2.56,7.31-7.61,7.33-13.33C387.64,359.17,386.8,352.42,386.26,345.65z"/>
</g>
</svg>
