<?xml version="1.0" encoding="utf-8"?>
<!-- Generator: Adobe Illustrator 25.2.0, SVG Export Plug-In . SVG Version: 6.00 Build 0)  -->
<svg version="1.1" id="Layer_2" xmlns="http://www.w3.org/2000/svg" xmlns:xlink="http://www.w3.org/1999/xlink" x="0px" y="0px"
	 viewBox="0 0 362 197" style="enable-background:new 0 0 362 197;" xml:space="preserve">
<style type="text/css">
	.st0{fill:#020202;}
	.st1{fill:#FFFFFF;}
</style>
<g>
	<path class="st0" d="M261.7,47.2c0.3-3.8,0.6-7.6,1-11.4c0.8-7,1.5-14.1,3.5-20.9c0.6-1.9,1.5-3.8,2.3-5.6c0.7-1.5,2.1-1.7,3.5-1.6
		c1.6,0.1,3.1,0.5,3.6,2.2c0.7,2.8,1.5,5.7,1.8,8.6c1.2,9.3,2.1,18.7,3.2,28c0,0.1,0.1,0.2,0.2,0.3c0.1-1.6,0.2-3.2,0.4-4.8
		c1.2-9.8,2.9-19.5,6.5-28.8c1-2.5,2.2-5,3.4-7.4c1-1.9,2.3-3.4,4.1-4.6c3.1-1.9,6.3-1.7,9,0.8c2.5,2.3,4.1,5.2,5.4,8.2
		c3.4,7.6,6.8,15.3,10.3,22.9c0.9,2,2.2,3.9,3.1,5.9c0.8,1.6,1.6,3.4,1.8,5.1c0.4,2.7-1.4,4.9-2.7,7.2c-0.6,1.1-2.1,1.2-3.1,0.7
		c-1.4-0.7-2.9-1.6-4-2.7c-4.7-4.4-7.8-9.8-10.8-15.4c-1.2-2.2-2.3-4.5-3.6-6.7c-1.9,14.6-3.6,29.2-1.3,43.9c0.1,0,0.2,0.1,0.3,0.1
		c0.1-0.4,0.3-0.7,0.4-1.1c0.5-2.2,1.3-2.9,3.4-3.3c2.4-0.4,4.8-1,7.3-1.4c1.1-0.2,2.3-0.2,3.4,0c2.3,0.4,4.7,1,7,1.6
		c0.3,0.1,0.6,0.1,0.9,0.2c4.2,1.1,5.4,4.2,3.1,7.9c-0.2,0.3-0.4,0.7-0.5,1.1c-0.4,1.6-1.3,2.9-2.8,3.7c-0.4,0.2-0.8,0.8-0.9,1.3
		c-0.9,3.7-1.5,7.4-2.6,11c-0.9,2.9-2.1,5.8-3.6,8.6c-2.5,4.7-6.5,6.2-11.6,4.5c-4.3-1.4-7.4-4.4-10.2-7.8
		c-4.8-5.8-7.9-12.5-9.7-19.8c-0.1-0.4-0.2-0.8-0.5-1.1c0,1,0.1,2.1,0,3.1c-0.3,4.5-0.6,9-0.9,13.5c0,0,0,0.1,0,0.1
		c-0.7,1.6-1.3,3.3-2.3,4.7c-0.9,1.3-2.4,1.9-4,2.1c-3,0.5-5.7-0.9-6.8-3.8c-0.8-2.1-1.3-4.4-2.3-6.5c-2.2-4.8-4.6-9.4-6.9-14.2
		c-0.1-0.1-0.2-0.2-0.4-0.5c-0.3,1.8-0.3,3.5-0.8,5c-0.7,2.2-1.6,4.4-2.6,6.5c-0.8,1.6-2,2-3.7,1.5c-1.9-0.5-3.3-1.7-3.9-3.4
		c-1.2-3.5-2.5-7.1-3.1-10.7c-1.3-8-2.4-16.2-3.3-24.3c-0.3-2.8-0.3-5.8,0.2-8.6c0.3-2.1,1.3-4.2,2.4-6c1.4-2.5,6.7-3.6,9-0.8
		c1.6,2,2.9,4.2,4.3,6.4c1.3,2.1,2.5,4.4,3.7,6.6C261.5,47.2,261.6,47.2,261.7,47.2z M305.8,88.3c0.2,0,0.3-0.1,0.5-0.1
		c0.7-2.6,1.4-5.1,2.2-8c-2.4-0.8-4.7-1.6-7.1-2.4c-0.1,0.1-0.2,0.2-0.3,0.3C302.7,81.5,304.3,84.9,305.8,88.3z"/>
	<path class="st0" d="M120.9,56.5c1-9.3,3.4-18.1,7.5-26.3c1.2-2.4,2.8-4.7,5-6.3c4.1-3.1,9.3-2.6,12.5,1.4c1.9,2.4,3.4,5.2,5.1,7.8
		c0.1-0.1,0.3-0.4,0.4-0.8c0.5-2.4,2-4,4.2-4.6c2.6-0.7,5.3-1.1,8-1.2c7.1-0.3,14.2-0.5,21.3-0.7c4.3-0.1,8.6,0.5,12.7,2
		c3,1.1,4.7,3.4,5.3,6.3c0.6,3.1,0.9,6.2,1.2,9.3c0.5,6.1,0,12.2-0.9,18.4c1.7-0.3,3-1.2,4.3-2c1.7-1,2.2-2.4,2.1-4.4
		c-0.7-9.2-0.9-18.4-0.4-27.6c0.2-4.6,1.4-9,3.6-13.1c2-3.8,5.9-4.1,8.2-0.5c2.1,3.1,2.8,6.7,3.5,10.2c1.7,8.4,2.3,17,2.7,25.5
		c0.4,9.9,0.8,19.7,0.9,29.6c0,3.6-0.5,7.2-1.2,10.8c-0.5,2.3-1.6,4.6-2.7,6.7c-1.1,2.3-3.2,3.4-5.2,3.1c-2.7-0.4-4.3-1.9-4.8-4.6
		c-0.5-3.4-0.7-6.8-1.2-10.2c-0.7-4.4-1.5-8.7-2.2-13.2c-1.7,0.8-3.3,1.4-4.8,2.1c-0.5,0.2-1,0.5-1.5,0.6c-2.2,0.3-2.6,1.7-2.7,3.6
		c-0.1,2.5-0.4,4.9-1,7.3c-0.5,2-1.5,3.9-2.4,5.8c-0.7,1.5-1.8,2.4-3.5,2.5c-1.8,0.1-2.8-1-3.5-2.5c-1.9-3.5-2.6-7.4-3.5-11.3
		c-1.4-6.5-1.1-13-0.8-19.5c0.4-6.8,1-13.7,1.5-20.7c-3.7,0.8-7.5,1.7-11.4,2.6c0.5,3.1,1,6.2,1.4,9.3c1.2,8.7,2.4,17.4,3.5,26.2
		c0.3,2.7,0.6,5.5,0.7,8.2c0.1,2.1-0.3,4-1.5,5.8c-0.3,0.4-0.3,0.9-0.5,1.3c-1.1,3.3-4.3,4.6-7.4,3c-1.8-0.9-3-2.4-3.8-4.2
		c-2.3-4.7-3.8-9.6-4.8-14.7c-1.6-8.8-1.5-17.6-1-26.5c0.1-2.8,0.4-5.6,0.5-8.6c-3.6-0.5-7.1-1-10.7-1.5c0-0.1-0.1,0,0,0.1
		c1.7,6.7,3.3,13.4,5.2,20c0.9,3.1,2.2,6.1,3.6,9.1c1.3,2.7,1.4,5.3-0.2,7.8c-0.1,0.2-0.2,0.4-0.3,0.6c-1.1,4.4-4.2,5.6-8.1,4.8
		c-3.2-0.6-6.4-1.7-9.5-2.6c-0.9-0.2-1.7-0.4-2.9-0.7c1.5,4.3,3.1,8.1,6.9,10.6c1,0.7,2.1,1.3,3.1,2c2,1.6,2.4,3.5,1.2,5.8
		c-0.4,0.8-0.7,1.6-1,2.4c-0.9,2.5-2.9,3.8-5.6,3.4c-4.6-0.6-8.5-2.8-11.9-5.8c-2.1-1.8-3.9-3.9-5.9-6c0.5,2.1,1.2,4.1,1.6,6.2
		c0.2,1.2,0.4,2.6,0,3.7c-0.5,1.7-1.2,3.3-2.1,4.8c-2.5,4.4-7.3,4.7-10.3,0.6c-2.2-3-3.1-6.6-4-10.2c-0.7-3.3-1.4-6.6-2.1-10
		c-0.3,0.7-0.6,1.3-0.9,1.9c-2.9,6.5-8,8-13.8,3.8c-2.4-1.7-4.4-3.9-6.6-5.8c-0.8,1.9-1.7,4.1-2.6,6.2c-0.3,0.7-0.6,1.5-1,2.2
		c-1.6,2.9-4.8,3.4-7,0.8c-0.9-1-1.2-2.4-1.8-3.7c-0.2-0.3-0.2-0.8-0.3-1.4c-0.8,1.8-1.4,3.3-2.1,4.8c-0.8,1.5-1.6,3-2.6,4.3
		c-3.9,4.9-10.6,4.6-14.2-0.7c-0.8-1.2-1.5-2.4-2.3-3.7c-2.8,5.1-7.1,8.6-11.9,11.6c-3.9,2.4-8.1,3.8-12.7,3.2
		c-4.5-0.5-6.3-4.5-3.8-8.3c0.2-0.4,0.5-0.8,0.5-1.2c0.4-1.9,1.6-3.1,3.3-3.9c4.4-2.2,8.3-5.2,11.2-9.3c0.1-0.2,0.2-0.3,0.3-0.6
		C42,87,40.5,86.8,39,86.7c-4.5-0.5-9-0.9-13.6-1.2C14.6,84.6,7.2,79.2,3.6,69c-3.9-11-4.7-22.4-1.7-33.7c0.9-3.3,2.4-6.6,4.2-9.6
		c3.7-6.3,10-7.3,15.8-2.9c3.5,2.7,5.9,6.3,7.9,10.2c1.7,3.3,3.2,6.8,3.4,10.6c0.1,2.3-0.4,4.4-1.5,6.4c-0.3,0.6-0.5,1.3-0.8,2
		c-1,2.2-2.4,4-5,4.3c-2.8,0.3-4.9-1-6.2-3.4c-0.9-1.6-1.5-3.4-2.4-5.4c0.1,2,0.1,3.8,0.3,5.5c0.3,2.7,0.6,5.4,1.2,8
		c1.2,4.8,4.2,7.1,9.2,7.4c2.3,0.1,4.6,0.2,6.9,0.2c4.6,0,9.3,0,13.8,1.7c-0.2-2.6-0.5-5.1-0.6-7.6c-0.5-8.9-1-17.8,0.6-26.6
		c0.8-4.7,2.5-9.1,5.2-13c2.4-3.5,6.8-4.1,10.2-1.6c1.2,0.9,2.3,2,3.2,3.2c1.3,1.8,2.2,3.9,3.3,5.8c0.2,0.3,0.3,0.7,0.7,1
		c0-1.3-0.3-2.8,0.1-4c0.6-2.3,1.5-4.5,2.5-6.6c0.7-1.5,2.2-2.1,3.8-2c3.2,0.2,5.9,1.4,7.3,4.4c1.2,2.6,2.2,5.4,2.9,8.2
		c3,11,5.2,22.3,8.9,33.1c1.2,3.4,2.6,6.8,4,10.2c0.3,0.7,0.9,1.4,1.3,2.1c0.1,0,0.2-0.1,0.3-0.1c0.2-1.5,0.4-3,0.5-4.6
		c0.5-10.8,0.8-21.7,1.3-32.5c0.3-5.5,0.5-11,1.2-16.4c0.3-2.3,1.5-4.5,2.5-6.6c0.7-1.5,2.1-1.9,3.7-1.3c1.6,0.6,2.7,1.9,3.4,3.4
		c1.5,3,2,6.2,2.3,9.5c0.4,5.2,0.7,10.5,1.3,15.7c0.4,3.9,1.3,7.8,1.9,11.7C120.6,55.9,120.7,56.1,120.9,56.5z M65,77.6
		c-0.1-6.2-0.7-12.4-2.4-18.4C62.8,65.4,63.3,71.6,65,77.6z M144.6,66.8c-2.4-8.7-3.1-17.6-5.9-26c-1.5,9-0.8,17.9,0,26.9
		C140.7,67.4,142.5,67.1,144.6,66.8z"/>
	<path class="st0" d="M254.8,155.9c-0.8-1.9-0.3-3.6,0.5-5.4c0.3-0.6,0.6-1.3,0.9-2c1-2.8,2.9-4.5,5.7-5.3c2.7-0.8,5.6-0.7,8.2,0.2
		c1.3,0.5,2.4,1.4,3.7,2.2c0-0.5,0.1-1.1,0.1-1.7c0.2-2.8,0.3-5.7,0.8-8.4c0.4-2.1,1.5-4,2.4-5.9c0.5-1.1,1.5-1.6,2.7-1.5
		c1.2,0.1,1.9,0.8,2.5,1.8c0.2,0.5,0.7,1,1.1,1.1c4.6,0.7,8,3.3,10.3,7.2c1.3,2.2,2.4,4.6,3.7,7c0.3-1,0.4-2,0.8-2.9
		c0.5-1.3-0.4-1.9-1-2.7c-1.3-1.7-1.3-4.2-0.1-6.2c0.3-0.4,0.5-0.8,0.6-1.3c0.8-3,2.8-4.3,5.9-3.8c4.3,0.6,7.9,2.8,11.5,5.1
		c0.3,0.2,0.6,0.4,1.1,0.8c0.4-1,1-1.8,1.2-2.8c0.5-2,2.1-3.2,4.7-3.5c3.8-0.5,7.5,0.2,11.3,1c7.5,1.5,14.7,3.9,21.2,8.1
		c1.1,0.7,2.2,1.5,3.2,2.3c4.5,3.9,5.1,8.8,3,14.4c-3.4,8.7-10,13.5-18.3,16.6c-4.5,1.7-9,3.1-13.8,3.7c-2.8,0.3-5.5,0-7.8-2.2
		c-0.2,0.3-0.4,0.6-0.6,0.8c-0.8,1.1-1.5,2.3-2.3,3.4c-5.6,7.8-14.7,4.8-18.3-0.3c-0.6-0.9-1.2-1.9-1.9-3c-1.8,3.2-4.3,5.6-7.7,6.8
		c-3.5,1.2-6.8,1.1-10.3-1c0.2,2.8,0.4,5.5,0.6,8.1c0.2,2,0.4,4-1.1,5.7c-0.1,0.2-0.2,0.4-0.2,0.7c-0.5,2.3-1.9,3.6-4.2,4
		c-2.2,0.4-4.2-0.4-5.1-2.5c-0.9-2.4-1.4-4.9-2-7.4c-0.8-3.6-1.5-7.3-2.3-11c0-0.1-0.1-0.2-0.1-0.1c-2.2,0.4-4.3,1.1-6.4,1.2
		c-5.4,0.4-9.7-1.9-13.2-5.8c-4.3-4.7-6.6-10.4-7.9-16.5c-1.4-6.3-2.1-12.7-2.1-19.2c0-8.4,1.6-16.5,5.6-23.9c0.8-1.5,1.8-2.9,3-4.1
		c2.3-2.4,5.3-2.8,8.3-1.3c2.3,1.1,4.1,2.9,5.6,5c3.2,4.6,6.4,9.3,9.6,14c1.6,2.5,2.4,5.2,2,8.2c0,0.1,0,0.2,0,0.2
		c-0.6,1.5-1.1,3.2-2,4.6c-1.1,1.6-2.9,1.9-4.7,1.5c-3.2-0.8-5.6-2.8-7.4-5.5c-1.2-1.7-2.3-3.5-3.5-5.5c-0.1,0.4-0.2,0.6-0.2,0.9
		c-0.1,7.4-0.2,14.8,1.2,22.2c0.2,1.2,0.6,2.5,0.9,3.7C254.4,155.6,254.6,155.7,254.8,155.9c0,0.3-0.2,0.7-0.1,1
		c0.7,1.5,1.4,3.1,2.4,4.4c0.7,1,1.9,1.7,2.9,2.5c0.1-0.1,0.3-0.2,0.4-0.2c0.2-1,0.3-2,0.5-3.1c-0.6-0.1-1-0.2-1.4-0.2
		C257.1,159.6,255.2,157.9,254.8,155.9z M336,155.8c4-1.9,8.3-3,12.1-5.5c-4.8-3.2-9.9-5.2-15.2-7.2
		C333.9,147.4,334.9,151.6,336,155.8z M308.8,151.6c0.2,4.2,0.6,8.5,2,12.5C311.6,159.7,311.1,155.5,308.8,151.6z M287.8,166.4
		c2.3-1.7-0.8-10.9-3.5-14.5C285,156.9,285.7,161.8,287.8,166.4z"/>
	<path class="st0" d="M240.4,27.6c-0.5,1.6-1.1,3.1-1.6,4.7c-0.2,0.6-0.5,1.3-0.7,1.9c-1.5,4-6.2,5.1-9.4,2.1
		c-3.1-2.9-3.9-8.3-1.7-12c0.3-0.4,0.4-0.9,0.6-1.4c0.8-2.3,2.2-3.8,4.7-4.2c2.6-0.4,4.7,0.5,6.2,2.7c1.2,1.8,1.7,3.9,1.7,6.1
		C240.2,27.6,240.3,27.6,240.4,27.6z"/>
	<path class="st0" d="M228.3,72.5c0.5-7.5,1-15.1,1.6-22.6c0.2-2.9,1.6-5.5,2.9-8c1.4-2.6,4.8-2.5,6.3,0.1c1.3,2.1,1.5,4.4,1.7,6.8
		c0.7,5.7,1.5,11.4,2.1,17.1c0.6,5.8,1.4,11.6,0.8,17.4c-0.2,1.8-1,3.5-1.5,5.2c-0.2,0.5-0.4,1-0.6,1.6c-1.4,3.9-5.6,5-8.7,2.3
		c-1.7-1.4-2.6-3.3-3.1-5.3c-0.5-2.4-1-4.8-1.2-7.2c-0.2-2.4,0-4.9,0-7.3C228.6,72.5,228.5,72.5,228.3,72.5z"/>
	<path class="st1" d="M201,64.1c0-0.1-0.1-0.2-0.1-0.3c0-0.3,0-0.6,0.1-1c1-6.9,1.6-13.8,1-20.7c-0.3-2.8-0.7-5.6-1.3-8.3
		c-0.5-2.1-1.9-3.4-4-4.2c-4-1.5-8-2-12.2-1.8c-3.5,0.1-7,0.4-10.5,0.5c-4.4,0.1-8.8,0.1-13.2,0.3c-2.1,0.1-4.2,0.4-6,1.8
		c-2.2,1.7-1.9,4.4,0.7,5.3c1.3,0.5,2.7,0.7,4.1,1c2.3,0.4,4.7,0.7,7,1c1,0.1,1.4,0.5,1.3,1.6c-0.3,4-0.6,8-0.8,12
		c-0.4,8.1-0.4,16.1,1.5,24c0.9,4.1,2.4,8,3.8,11.9c0.6,1.5,1.6,2.9,2.8,3.9c2,1.8,4.6,0.9,5.3-1.7c0.3-1,0.4-2,0.4-2.9
		c-0.1-2.6-0.3-5.3-0.7-7.9c-1.5-11.3-3.1-22.7-4.7-34c-0.3-2.3-0.8-4.5-1.1-6.5c6.1-1.2,12-2.4,18-3.6c0,0.5,0,0.7,0,0.9
		c-0.7,7.7-1.4,15.4-2,23.1c-0.6,7.9-0.3,15.8,2,23.4c0.6,2.1,1.5,4.1,2.4,6.1c0.6,1.3,1.9,1.2,2.8,0.1c0.4-0.6,0.8-1.2,0.9-1.9
		c0.5-2.4,0.9-4.8,1.2-7.2c0.3-2.5,0.3-5,0.4-7.2c4.5-1.9,8.8-3.7,13.2-5.5c0,0,0.1,0.2,0.1,0.4c1.5,6.8,2.9,13.6,3.4,20.6
		c0.1,1.9,0.5,3.7,0.9,5.5c0.3,1.4,1.5,2,2.9,2.2c1.3,0.2,2.2-0.5,2.8-1.5c0.4-0.6,0.8-1.3,1-2c0.5-2.2,1.3-4.5,1.4-6.8
		c0.2-5.1,0.2-10.2,0.1-15.3c-0.4-11.7-0.6-23.5-1.9-35.2c-0.6-5.3-1.3-10.6-3.1-15.7c-0.5-1.4-1.3-2.8-2.1-4
		c-1-1.4-2.7-1.3-3.6,0.2c-0.7,1.1-1.3,2.3-1.5,3.6c-0.5,3.1-1.1,6.3-1.1,9.5c0,8.2,0.4,16.5,0.5,24.7c0,1.6-0.1,3.3-0.7,4.8
		C210.6,61.1,205.1,64.3,201,64.1z"/>
	<path class="st1" d="M113.8,79.8c0.1,0.4,0.2,0.8,0.3,1.3c1.2,5.6,2.2,11.2,3.6,16.7c0.6,2.2,1.8,4.4,3,6.3c1.2,1.9,3,2.1,4.6,1.2
		c2-1.1,3.2-3.6,2.6-5.4c-0.4-1.5-0.9-3-1.2-4.5c-2.7-12.8-5.4-25.7-7.9-38.5c-1.7-8.6-3.2-17.3-3.2-26.2c0-3.5-0.5-6.9-1.9-10.2
		c-0.5-1.1-1.3-2.1-2.2-2.9c-0.9-0.8-1.5-0.6-2,0.5c-0.3,0.7-0.6,1.4-0.6,2.2c-0.4,4.9-0.9,9.8-1.1,14.8c-0.4,9.1-0.4,18.2-0.9,27.2
		c-0.2,4.9-1,9.8-1.6,14.7c-0.1,1-0.3,2.1-1.5,2.4c-1.2,0.3-2.2-0.4-3-1.2c-0.5-0.5-1-1.1-1.3-1.7c-0.8-1.5-1.7-3.1-2.3-4.7
		c-2.4-7.3-4.8-14.7-6.9-22.1C88.7,43.8,87.5,37.8,86,32c-0.7-2.6-1.7-5.2-2.8-7.7c-1-2.2-3.1-3.1-5.3-3.3c-1.2-0.1-2.2,0.3-2.6,1.5
		c-0.3,1-0.7,2-0.7,3C74.8,30,75,34.5,75.7,39c1.4,9.1,3.1,18.2,4.8,27.3c0.7,4,1.4,8.1,0.8,12.2c-0.4,2.6-0.4,5.2-0.5,7.7
		c0,1.9,0.1,3.8,1.2,5.5c1.3,2,3.4,2,4.4-0.1c0.8-1.8,1.5-3.7,2-5.6c0.7-2.3,1.2-4.6,1.9-7.2c0.4,0.5,0.6,0.9,0.9,1.2
		c1.2,1.5,2.2,3.1,3.5,4.5c2.2,2.4,4.5,4.6,7.7,5.7c2.2,0.8,4.2,0.3,5.6-1.5c1.1-1.4,1.9-3,2.7-4.6c0.6-1.4,0.9-2.9,1.4-4.4
		C112.6,79.8,113.1,79.8,113.8,79.8z"/>
	<path class="st1" d="M15.7,35.4c0.1-0.1,0.3-0.1,0.4-0.2c0.9,1.1,2.1,2.2,2.8,3.5c0.9,1.8,1.3,3.8,2.1,5.7c0.7,1.7,1.3,3.5,2.4,5
		c1.9,2.6,5.1,2.2,6.7-0.6c1.2-2.1,1.4-4.4,1-6.7c-1.1-5.5-3.8-10.3-7.2-14.7c-1.5-1.9-3.2-3.4-5.4-4.4c-3.6-1.7-6.9-1-9.5,2
		c-2,2.3-3.3,5.1-4,8.1C2.3,44.4,3.1,55.7,7.4,66.5c3.2,8.1,9.4,12.6,18,13.6c4.2,0.5,8.4,0.6,12.5,1.1c2.1,0.2,4.2,0.6,6.2,1.2
		c2.4,0.7,3,2.3,2.1,4.7c-0.1,0.3-0.3,0.7-0.5,1c-1.9,2.3-3.6,4.7-5.7,6.7c-2.3,2.1-4.9,4.1-7.9,5.3c-1.5,0.6-2.2,2.2-1.9,3.9
		c0.2,1.2,1,2,2.7,2.2c1.6,0.1,3.4,0.2,5-0.2c7.1-1.8,12.6-5.9,16.9-11.7c0.5-0.6,0.9-1.4,0.9-2.2c0.3-2.5,0.5-5,0.5-7.5
		c0-3-0.7-5.8-2.8-8.2c-3-3.5-6.9-5-11.2-5.3c-4.6-0.3-9.3-0.3-14-0.5c-6.6-0.3-10.4-3.5-11.7-10c-1.4-6.6-1.4-13.3-1.1-20
		C15.5,38.7,15.6,37.1,15.7,35.4z"/>
	<path class="st1" d="M300.3,15.9c0.1,0,0.2,0,0.4-0.1c1.2,2.5,2.5,5,3.7,7.5c2.9,5.9,5.8,11.9,10,17.1c1.7,2.2,3.8,4.1,5.8,5.9
		c0.5,0.5,1.9,0.7,2.2,0.4c0.6-0.5,0.9-1.6,0.8-2.4c-0.1-1.2-0.7-2.4-1.2-3.5c-1-2-2.3-3.9-3.2-6c-3.7-8-7.2-16.1-10.9-24.1
		c-1-2.3-2.4-4.4-4-6.4c-2.6-3.2-6.1-3.3-8.8-0.2c-1.6,1.8-2.8,4-3.8,6.2c-2.4,5.5-3.5,11.3-4.7,17.1c-3.1,14.6-3.2,29.2-0.3,43.8
		c1.7,8.9,5.4,16.8,11.5,23.5c2.3,2.5,4.9,4.6,8.2,5.6c3.8,1.1,6.8,0,8.7-3.5c0.9-1.6,1.6-3.2,2.1-4.9c1.2-4.5,2.2-9,3.1-13.5
		c0.3-1.6,0.9-2.9,2.6-3.4c0.3-0.1,0.5-0.3,0.7-0.4c1.1-0.9,1.4-2.1,1.3-3.4c-0.1-1.2-1.2-1.5-2.1-1.8c-0.5-0.2-1.1-0.3-1.6-0.4
		c-2.3-0.5-4.6-1.1-6.9-1.6c-0.9-0.2-1.8-0.1-2.7,0.1c-2.4,0.4-4.7,0.9-7,1.3c-1.1,0.2-1.7,0.7-1.9,1.8c-0.2,1.1,0.3,1.8,1.3,2.2
		c1.4,0.5,2.8,0.9,4.2,1.4c1.2,0.5,2.3,1,3.4,1.7c0.8,0.4,0.9,1.1,0.6,2c-1.2,4.6-2.3,9.3-3.4,13.9c-0.1,0.6-0.2,1.2-0.4,2
		c-2.7-2.8-4.7-5.9-6.3-9.2c-4.3-9.3-5.3-19.2-5.2-29.2c0.1-6.1,0.5-12.2,1.1-18.2C298.4,30,299.4,23,300.3,15.9z"/>
	<path class="st1" d="M263.5,55.1c-2.8-5.1-5.5-10-8.2-14.9c-0.9-1.5-1.8-3-2.9-4.3c-1.2-1.4-2.8-1.3-4.4-0.8
		c-1.4,0.4-2.3,1.5-2.4,3c-0.1,2.9-0.4,5.8-0.1,8.6c0.8,7.6,1.8,15.2,3,22.7c0.6,3.7,1.9,7.3,3,10.9c0.3,1,1.3,1.8,2.1,2.5
		c1.1,0.8,2,0.5,2.4-0.8c0.5-1.6,1-3.3,1.1-5c0.3-3.7,0.3-7.3,0.5-11c0-0.3,0.4-0.9,0.7-0.9c0.4-0.1,1.2,0.1,1.4,0.4
		c2.2,4,4.4,8,6.4,12c2.3,4.5,4.4,9,5.7,13.9c0.4,1.6,1.3,3,3.1,3.5c2.7,0.8,5.2-0.7,5.5-3.5c0.3-3.2,0.8-6.4,0.7-9.6
		c-0.3-8.3-0.8-16.6-1.5-24.8c-0.9-10.4-1.9-20.9-3-31.3c-0.5-4.8-1.6-9.5-2.4-14.3c-0.2-1.3-1.1-1.7-2.2-1.8
		c-1.2-0.1-1.8,0.5-2,1.6c-0.1,0.5-0.3,1-0.5,1.5c-2.3,9.1-3.3,18.5-4,27.9c-0.4,4.7-0.4,9.4-0.6,14.2
		C264.5,54.8,263.9,54.9,263.5,55.1z"/>
	<path class="st1" d="M231.8,67.5c0,4.8-0.1,9.5,1.1,14.1c0.4,1.8,1.3,3.6,2.2,5.2c0.8,1.3,2.3,1.7,3.8,1.4c1.4-0.2,2-1.4,2.4-2.5
		c0.2-0.4,0.3-0.9,0.3-1.4c0-3.6,0.4-7.2,0-10.7c-0.8-8.8-1.9-17.6-3-26.5c-0.2-1.4-0.6-2.7-1.1-4c-0.2-0.6-1.1-1.2-1.7-1.2
		c-0.6,0-1.4,0.7-1.6,1.3c-0.5,1.1-0.9,2.3-1,3.4C232.8,53.6,232.3,60.6,231.8,67.5z"/>
	<path class="st1" d="M229,25.7c0.1,2.6,1.2,5.2,2.9,6.4c2,1.4,4.5,0.8,5.5-1.4c1.3-2.5,0.7-6.7-1.2-8.8c-2-2.2-5.5-1.7-6.6,1.1
		C229.3,23.8,229.2,24.8,229,25.7z"/>
	<path class="st1" d="M138,74.8c1.7,0.1,3.3-0.1,4.8,0.3c2.8,0.6,5.6,1.6,8.4,2.3c2,0.5,4.1,1,6.2,1.2c1.9,0.2,3.1-0.9,3.8-2.7
		c0.6-1.4,0.4-2.8-0.3-4.2c-3-5.6-4.6-11.7-6.1-17.8c-1.7-6.8-3.1-13.8-6-20.2c-1.1-2.5-2.5-5-4.2-7c-3.2-3.7-7.4-3.7-11-0.3
		c-2.1,2.1-3.5,4.6-4.6,7.4c-4.8,12.5-6.4,25.4-3,38.5c1.3,4.9,2.5,9.9,4.7,14.4c3.1,6.1,8.5,10.2,15.1,12.3
		c0.9,0.3,1.8,0.3,2.7,0.3c1.4,0,2.2-0.8,2.6-2.2c0.4-1.2-0.2-2.1-1.1-2.8c-0.6-0.5-1.3-0.9-2-1.3c-2.2-1.2-3.9-2.9-5.2-5
		C140.2,84.1,138.9,79.6,138,74.8z M139.7,30.4c1,2.7,2.1,5.4,2.8,8.2c1.4,6,2.5,12,3.9,18c1,4.3,2.2,8.5,3.3,12.9
		c-4.1-1.4-8.4,0-12.9,0.4c-1.1-13.3-2.6-26.5,2.3-39.4C139.4,30.5,139.5,30.4,139.7,30.4z"/>
	<path class="st1" d="M77.9,75.7c-0.2-7.9-1.7-16.4-4.6-24.5c-1.4-4.1-2.5-8.1-2.9-12.4c-0.4-4.7-1.9-9-4.8-12.8
		c-0.9-1.1-2-2.2-3.2-3c-2.2-1.5-4.7-1.2-6.5,0.8c-0.8,0.9-1.6,1.9-1.9,3c-0.9,2.6-1.7,5.2-2.2,7.8c-1,5.5-0.9,11-0.8,16.6
		c0.2,7.1,0.7,14.1,1.9,21c0.1,0.6,0.5,1.2,0.9,1.6c2.4,2.3,3.9,5.1,4.2,8.5c0.1,2,0.1,4.1,0.1,6.1c0,0.5-0.1,1.2,0.2,1.6
		c1.1,2.1,2.1,4.2,3.4,6.2c2.7,4,7.6,4.2,10.7,0.5c1.1-1.3,1.9-2.8,2.6-4.3C77.2,87.3,77.8,81.9,77.9,75.7z M61.6,46.7
		c1.9,1.7,2.9,3.7,3.6,5.8c2.1,6.4,3,13,3.2,19.6c0.1,2.9-0.1,5.9-0.4,8.8c-0.1,1-0.6,2-1,3c-1.6-0.5-2.5-1.6-2.9-2.9
		c-0.9-3.1-1.9-6.2-2.4-9.3C60.6,64.9,60.2,58,60.9,51C61,49.6,61.3,48.3,61.6,46.7z"/>
	<path class="st1" d="M322.5,164.5c0.2,0.4,0.3,0.6,0.4,0.9c0.7,2.6,2.6,3.5,5.1,3.5c0.9,0,1.8,0,2.6-0.1c6.5-1.2,12.8-3.1,18.6-6.2
		c4-2.2,7.3-5.1,9.5-9.2c2.6-4.8,1.7-9.3-2.5-12.7c-0.7-0.6-1.4-1.1-2.2-1.6c-8.8-5.8-18.6-8.3-29-9.2c-1.5-0.1-3,0.2-4.4,0.7
		c-1.5,0.5-1.7,2-0.5,3c1.3,1.2,1.7,2.5,1.3,4.2c-0.1,0.3-0.3,0.7-0.2,1c0.2,1.4-0.8,1.6-1.8,1.9c-3.2-4.6-7.5-7.4-12.6-9.4
		c-1.2-0.5-2.4-0.8-3.7-1c-2.3-0.3-3.8,1.1-3.5,3.5c0.1,0.8,0.7,1.5,1.1,2.2c0.6,0.9,1.3,1.6,1,2.9c-1.3,4.4-1.9,8.9-2,13.4
		c0,0.7-0.1,1.4-0.1,2c-0.1,0-0.2,0-0.3,0.1c-1-2-1.9-4.1-2.9-6.1c-1.7-3.4-3.3-6.9-5.2-10.2c-1.7-2.8-4.4-4.5-7.7-5
		c-1.6-0.2-2.5-0.8-3-2.3c-0.3-1-1.2-1.1-1.7-0.1c-0.4,0.9-0.8,1.9-0.9,2.9c-0.3,5-0.5,10-0.7,15c-0.1,2.2-0.3,4.4-0.5,6.5
		c0,0.6-0.2,1-0.9,0.9c-0.6-0.1-1.2,0.1-1.4-0.9c-0.3-1.9-0.7-3.8-1.2-5.7c-0.8-2.9-2.8-4.5-5.8-4.7c-0.6-0.1-1.2-0.1-1.8-0.1
		c-3.7-0.1-6.5,1.5-7.5,4.3c-1,2.7,0.2,5.1,3,5.8c0.9,0.2,1.8,0.2,2.8,0.4c0.7,3.7-0.2,6.9-2.4,9.8c-0.5,0.6-1,0.7-1.8,0.4
		c-3.2-1.2-5.3-3.5-6.3-6.6c-1.1-3.2-1.9-6.5-2.4-9.8c-1.1-7.6-0.9-15.2-0.6-22.8c0.1-2.6,0.3-5.1,0.4-7.9c0.4,0.4,0.7,0.5,0.9,0.8
		c1.7,2.4,3.3,4.8,5,7.2c1.4,1.9,2.6,3.9,4.2,5.7c1.2,1.4,2.8,2.3,4.6,2.5c1.7,0.2,2.6-0.5,2.7-2.1c0.2-2.3-0.6-4.3-1.8-6.1
		c-3.2-4.7-6.3-9.4-9.6-14c-1.2-1.6-2.8-3-4.4-4.1c-2.3-1.6-4.6-1.2-6.6,0.9c-0.8,0.9-1.6,1.9-2.2,3c-2.4,4.3-3.4,8.9-3.9,13.7
		c-0.8,8.2-0.1,16.4,1.5,24.5c1.1,5.7,3.1,11.1,6.9,15.6c3.9,4.7,8.7,7.1,14.9,5.7c1.8-0.4,3.6-1.2,5.5-1.9
		c0.9,4.6,1.9,9.2,2.9,13.9c0.5,2.1,0.9,4.3,1.6,6.4c0.5,1.6,1.7,2.1,3.1,1.9c1.8-0.2,2.8-1.3,2.7-3.1c-0.1-1.8-0.4-3.6-0.5-5.3
		c-0.3-4.6-0.6-9.2-0.9-13.8c0-0.1,0.1-0.3,0.2-0.4c1.7,0,1.7,0,1.9,0.6c2.3,5,7,6.8,12,4.6c3.7-1.6,6-4.4,7-8.3c0.6,0,1.2,0,1.7,0
		c0.6,1.4,1,2.8,1.7,4c2.2,4.2,6.8,6.5,10.9,5.5c2.7-0.7,4.3-2.6,5.8-4.7C319.9,168.7,321.2,166.6,322.5,164.5z M353.4,147.6
		c-2,2.9-4.6,4.8-7.6,6.2c-2.5,1.1-5.1,2.1-7.6,3.2c-1.3,0.5-2.5,1.2-3.7,1.7c-1.7-7.6-3.5-15.1-5.2-22.7c0.1-0.1,0.2-0.2,0.3-0.2
		C337.7,139.3,346.4,141.6,353.4,147.6z M280.8,137.7c4.8,5.9,8.8,12.1,10.7,19.5c0.8,3.2,0.8,6.4-1.2,9.3c-0.8,1.2-1.8,2.2-2.7,3.3
		c-0.2-0.1-0.5-0.2-0.7-0.3c-0.8-1.9-1.7-3.8-2.3-5.8c-1.7-5.2-2.3-10.7-2.8-16.2c-0.3-2.7-0.6-5.5-0.9-8.2
		C280.9,138.8,280.9,138.3,280.8,137.7z M310.9,169.5c-1.9-3.4-2.9-6.9-3.4-10.5c-0.6-5.2-1.1-10.4-1.7-15.6c-0.1-0.6-0.2-1.3,0-2.1
		c1.2,0.8,2.5,1.6,3.6,2.5c3,2.8,4.4,6.4,5,10.3C315.1,159.7,314,164.7,310.9,169.5z"/>
</g>
</svg>
