<?xml version="1.0" encoding="utf-8"?>
<!-- Generator: Adobe Illustrator 25.2.0, SVG Export Plug-In . SVG Version: 6.00 Build 0)  -->
<svg version="1.1" id="Layer_1" xmlns="http://www.w3.org/2000/svg" xmlns:xlink="http://www.w3.org/1999/xlink" x="0px" y="0px"
	 viewBox="0 0 93 84" style="enable-background:new 0 0 93 84;" xml:space="preserve">
<style type="text/css">
	.st0{fill:#BCBEC0;}
	.st1{fill:url(#SVGID_1_);}
	.st2{fill:#020202;}
	.st3{fill:#FFFFFF;}
</style>
<g>
	<path class="st0" d="M92.96,69.14c-0.05-1.22-0.36-2.39-0.91-3.5C81.88,45.14,70.82,24.77,59.17,5.1
		c-0.62-1.05-1.42-1.93-2.39-2.61C55.14,0.92,52.9,0,50.61,0c-2.49,0-4.77,1.06-6.39,2.94c-2.37,0.32-4.47,1.63-5.87,3.71
		C24.43,27.3,11.86,48.53,0.98,69.74c-1.16,2.27-1.29,4.78-0.37,7.08c0.89,2.21,2.73,4.03,4.97,4.93c1.01,0.5,2.11,0.78,3.26,0.85
		C19.57,83.25,33.71,84,47.8,84c11.51,0,21.89-0.48,31.73-1.47c2.3-0.23,4.34-1.32,5.78-3.07c1.59-0.05,3.08-0.69,4.22-1.81
		c0.82-0.8,1.3-1.68,1.59-2.51C92.49,73.56,93.18,71.42,92.96,69.14z"/>
	<linearGradient id="SVGID_1_" gradientUnits="userSpaceOnUse" x1="17.8645" y1="37.8725" x2="83.5848" y2="37.8725">
		<stop  offset="0" style="stop-color:#F3EA42"/>
		<stop  offset="1" style="stop-color:#A5932E"/>
	</linearGradient>
	<path class="st1" d="M48.74,67.54c-9.05,0-18.58-0.44-28.33-1.32L17.86,66l1.2-2.27c9.27-17.57,20.03-35.5,31.98-53.29l1.5-2.23
		l1.36,2.32c2.1,3.57,4.24,7.29,6.39,11.07v-0.04l1.98,3.55v-0.05l3.17,5.73c5.89,10.64,11.62,21.5,17.04,32.27l1.08,2.15
		l-2.38,0.31C70.86,66.86,59.94,67.54,48.74,67.54z"/>
	<path class="st2" d="M50.31,66.01c-0.17,0-0.35-0.01-0.52-0.02c-1.31-0.09-5.61-0.88-6.01-7.19l-0.01-0.23l0.17-2.43L43.95,56
		c0.27-1.73,0.84-2.99,1.53-3.9c-0.97-1.14-1.48-2.57-1.44-4.18l-0.1-1l0.43-6.11c0.29-4.09,0.32-9.08,0.11-14.83l-0.01-0.18
		l0.01-0.18c0.08-1.19,0.78-5.14,6.25-5.91l0.35-0.05l0.36,0.02c1.91,0.13,6.32,1.29,6.21,9.09c0.24,4.15,0.17,8.94-0.19,14.23
		l-0.32,4.57c-0.15,2.11-0.79,3.66-1.7,4.75c0.87,1.28,1.51,3.19,1.56,6.03l0,0.15l-0.07,0.97l-0.04,0.19
		C55.81,65.55,51.58,66.01,50.31,66.01z"/>
	<path class="st3" d="M52.33,21.47c2.11,0.15,3.13,2.07,3.06,5.76c0.24,4.06,0.18,8.7-0.19,13.92l-0.32,4.57
		c-0.18,2.63-1.32,3.87-3.41,3.72l-0.01,0.16c-2.06-0.59-3.03-1.72-2.91-3.37l-0.09-0.96l0.41-5.83c0.3-4.23,0.33-9.29,0.12-15.19
		C49.1,22.7,50.21,21.77,52.33,21.47z M51.81,51.53c1.9,0.13,2.88,1.89,2.94,5.28l-0.04,0.63c-0.46,2.5-1.65,3.68-3.55,3.55
		c-1.75-0.12-2.71-1.46-2.87-4l0.14-2.05C48.8,52.53,49.93,51.39,51.81,51.53z"/>
	<path class="st3" d="M35.04,53.97c1.43-3.01,3.03-5.94,4.77-8.78c0.58-0.95,0.23-2.39-0.76-2.92c-1.04-0.55-2.27-0.25-2.9,0.76
		c-1.75,2.84-3.34,5.77-4.77,8.78c-0.48,1-0.31,2.35,0.76,2.92C33.09,55.24,34.53,55.04,35.04,53.97L35.04,53.97z"/>
	<path class="st3" d="M42.7,39.12c0.11-0.16,0.22-0.33,0.32-0.49c0.15-0.24,0.24-0.51,0.25-0.79c0.06-0.28,0.05-0.57-0.04-0.85
		c-0.07-0.28-0.19-0.52-0.38-0.73c-0.15-0.23-0.35-0.42-0.59-0.55c-0.17-0.07-0.34-0.14-0.51-0.21c-0.38-0.1-0.75-0.1-1.13,0
		c-0.17,0.07-0.34,0.14-0.51,0.21c-0.32,0.19-0.57,0.44-0.76,0.76c-0.11,0.16-0.22,0.33-0.32,0.49c-0.15,0.24-0.24,0.51-0.25,0.79
		c-0.06,0.28-0.05,0.57,0.04,0.85c0.07,0.28,0.19,0.52,0.38,0.73c0.15,0.23,0.35,0.42,0.59,0.55c0.17,0.07,0.34,0.14,0.51,0.21
		c0.38,0.1,0.75,0.1,1.13,0c0.17-0.07,0.34-0.14,0.51-0.21C42.26,39.7,42.51,39.44,42.7,39.12L42.7,39.12z"/>
	<path class="st2" d="M89.53,66.57c0-0.5-0.11-1.03-0.38-1.57C79,44.52,68.09,24.44,56.45,4.79c-0.35-0.58-0.78-0.98-1.26-1.24
		c-1.33-1.58-4.21-2.08-5.75,0.18c-0.36,0.53-0.71,1.06-1.07,1.59c-1.39-0.53-3.1-0.29-4.16,1.29C30.66,26.7,18.22,47.57,7.15,69.16
		C6,71.41,7.46,73.5,9.29,74.13c0.43,0.24,0.92,0.4,1.51,0.43c23.21,1.42,46.7,2.28,69.88-0.04c2.37-0.24,3.44-2.41,3.2-4.25
		c0.45-0.06,0.89-0.12,1.34-0.19c0.08,0.02,0.17,0.02,0.26,0.03c0.03,0.24,0.09,0.48,0.21,0.69c0.41,0.72,1.38,0.82,1.96,0.25
		c0.42-0.41,0.46-1.01,0.47-1.57C89.27,68.92,89.69,67.76,89.53,66.57z M20.56,64.53c9.66-18.29,20.37-35.97,31.89-53.13
		c2.66,4.53,5.27,9.08,7.85,13.65c0,1.07,0,2.13,0,3.2c0,0.45,0.39,0.87,0.85,0.85c0.46-0.02,0.85-0.37,0.85-0.85
		c0-0.06,0-0.11,0-0.17c0.13,0.23,0.26,0.46,0.39,0.7c-0.17,2.21-0.15,4.44,0.07,6.65c0.05,0.46,0.36,0.85,0.85,0.85
		c0.42,0,0.89-0.39,0.85-0.85c-0.13-1.26-0.18-2.53-0.18-3.8c5.88,10.62,11.55,21.36,17.01,32.21
		C60.94,66.42,40.68,66.33,20.56,64.53z M87.15,70.02c0-0.03,0-0.06-0.01-0.09c0,0,0,0,0,0c0,0,0,0,0,0c0,0,0-0.01,0-0.01
		c0,0,0,0,0,0c0,0,0,0.01,0,0.02c0.01,0.02,0.02,0.06,0.03,0.1c-0.01-0.03-0.02-0.06-0.03-0.09C87.15,69.96,87.15,69.98,87.15,70.02
		z"/>
</g>
</svg>
