<?xml version="1.0" encoding="utf-8"?>
<!-- Generator: Adobe Illustrator 25.2.0, SVG Export Plug-In . SVG Version: 6.00 Build 0)  -->
<svg version="1.1" id="Layer_1" xmlns="http://www.w3.org/2000/svg" xmlns:xlink="http://www.w3.org/1999/xlink" x="0px" y="0px"
	 viewBox="0 0 211 243" style="enable-background:new 0 0 211 243;" xml:space="preserve">
<style type="text/css">
	.st0{fill:#BCBEC0;}
	.st1{fill:#FFFFFF;}
</style>
<g>
	<path class="st0" d="M138.8,243c-10.9,0-21.2-4.3-29-12c-0.3-0.3-0.6-0.6-0.8-0.9c-4.1-1.3-7.5-4.2-9.4-8.1
		c-2.7-3.6-5.1-7.3-7.2-11.2c-2.4-1.7-4.2-4.1-5.4-6.9c-2.4-5.9-0.9-12.5,3.6-16.9c0.2-0.2,0.3-0.6,0.3-0.8
		c-0.1-0.1-0.4-0.1-0.6-0.1c-0.1,0-0.1,0-0.2,0c-0.2,0.1-0.4,0.1-0.6,0.2c-0.5,0.1-0.9,0.2-1.4,0.3c-2.6,0.5-5.2,1-7.8,1.5l-0.1,0
		c-2.4,0.5-4.9,0.9-7.4,1.4c-3.9,0.7-7.4,1.1-10.7,1.1c-5,0-9.5-0.8-13.7-2.4c-9.6-3.6-16.5-11.7-17.8-21.1c-0.5-3.5-0.3-7,0.7-10.4
		c-0.3-0.2-1.5-1.2-1.8-1.4c-7.4-5.5-13.5-11.8-18.1-18.7c-1.2-1.8-2.6-3.9-3.8-6.4c-0.5-1-0.9-2.1-1.2-3.2c-0.1-0.3-0.3-0.7-0.4-1
		c-2.1-4.4-3.6-9.1-4.7-13.7c-1.9-8.7-2-17.8-0.3-28.6C2.4,75.7,5,67.7,8.9,59.7c3.6-7.3,8.2-13.4,12.6-19
		c8.5-10.6,19.8-19.8,32.7-26.4C65.9,8.2,78.9,4.1,93.8,1.6c6.5-1.1,13-1.6,19.4-1.6c7.7,0,15.3,0.8,22.6,2.3
		c13.9,2.9,27.3,9,38.8,17.5c12,8.8,21.6,20.2,27.9,32.8c6.5,13.1,9.3,27.8,8.2,42.5c-1.1,13.7-5.6,26.9-13.2,38.1
		c0,2.8-0.4,5.6-1,8.3c0,0,0,0.1,0,0.1c7.7,8.2,11.2,18.9,9.2,29c-0.8,3.8-4.1,14.8-17.5,18.4c1.5,4,1.2,8.5-0.8,12.3
		c-0.7,1.3-1.6,2.6-2.6,3.7c-0.8,2.2-1.7,4.5-2.8,6.6c-1.6,3-4,5.4-6.9,6.8c-3.8,10.3-11.5,18.1-21.9,21.8c-1.7,0.6-3.5,1-5.4,1
		c-0.2,0-0.4,0-0.6,0c-2,1-4.1,1.6-6.4,1.7C140.2,243,139.5,243,138.8,243z M142.5,232c1.9-0.1,3.6-0.9,4.9-2.1
		c0.8,0.3,1.6,0.4,2.5,0.4c0.9,0,1.7-0.2,2.6-0.5c8.3-3,14.4-9.2,17.2-17.5c0.4-1.1,0.5-2.2,0.4-3.3c0.1,0,0.2,0,0.3,0
		c2.7,0,5.2-1.5,6.5-4c1.3-2.4,2.3-5,3-7.5c1-0.7,1.9-1.7,2.5-2.8c1.2-2.3,1.1-5-0.3-7.2l-0.3-0.5c-1.4-2.3-2.9-4.8-2.6-6.5
		c0.1-0.5,0.3-1,0.4-1.4c0.5,0,1,0,1.5,0c0,0,0,0,0,0c14.2,0,17.9-8.2,18.9-13c2-10.1-3.5-19.3-10.5-24.9c0.4-0.9,0.8-1.8,1-2.8
		c0.1-0.4,0.2-0.9,0.3-1.3c0.7-3,1-6.1,0.8-9.3c15.5-21.5,17.8-50.5,5.9-74.5c-5.7-11.5-14.5-21.8-25.5-29.9
		C161.3,15.6,149,10,136.2,7.3c-6.8-1.4-13.8-2.2-20.9-2.2c0,0,0,0,0,0c-6,0-12.1,0.5-18.1,1.5C83.1,9,70.9,12.9,60,18.6
		c-11.8,6.1-22.2,14.5-30.1,24.3c-4.2,5.2-8.5,10.9-11.7,17.5c-3.6,7.3-5.9,14.6-7,21.6c-1.5,9.8-1.4,18,0.2,25.7
		c0.9,4.2,2.3,8.4,4.2,12.4c0.1,0.5,0.3,0.9,0.6,1.4c0.1,0.6,0.3,1.4,0.8,2.3c1,2,2.2,3.9,3.2,5.4c4.1,6.1,9.5,11.7,16.2,16.7
		c0.3,0.2,0.6,0.5,0.9,0.7c1.9,1.4,4,3,6.3,4.2c-2.2,3.3-3.7,7.4-3,12.2c1,6.5,5.8,12.2,12.7,14.7c3.3,1.2,6.9,1.9,10.9,1.9
		c2.8,0,5.8-0.3,9.3-0.9c2.4-0.4,4.9-0.9,7.3-1.4c2.7-0.5,5.4-1,8.1-1.5c0.3,0,0.6-0.1,0.9-0.2c0.2,0,0.3-0.1,0.5-0.1
		c0.7-0.2,1.4-0.3,2.2-0.3c3.2,0,6.2,1.6,7.7,4.2c1.9,3.3,1.1,7.9-1.8,10.7c-2.2,2.2-2.9,5.3-1.8,8.1c0.8,1.9,2.2,3.4,4,4.2
		c2.2,4.5,4.8,8.7,8,12.7c0,0,0,0,0,0c1.1,2.9,4,4.9,7.3,5c0.4,0.9,0.9,1.7,1.7,2.5c6.3,6.2,14.6,9.7,23.4,9.7
		C141.4,232,142,232,142.5,232z"/>
	<path class="st1" d="M183,142.8c0,0,0.1-0.1,0.1-0.1c0.3-0.2,0.6-0.5,0.8-0.9c0.4-0.7,0.8-1.5,1.1-2.3c0.4-0.8,0.7-1.6,0.9-2.4
		c0.1-0.2,0.1-0.5,0.1-0.7c0.8-3.2,1-6.6,0.6-9.9c15.5-20.3,18-47.9,6.6-70.8c-11.1-22.3-33.5-38.2-57.7-43.3
		c-12.2-2.6-24.9-2.6-37.2-0.6c-12.4,2.1-24.5,5.6-35.7,11.4c-10.9,5.6-20.8,13.4-28.5,23c-4.2,5.2-8.2,10.6-11.1,16.5
		C20,69,17.7,75.7,16.6,82.7c-1.2,8-1.5,15.9,0.2,23.9c0.8,3.9,2.2,7.7,3.9,11.3c-0.1-0.1,1,2.4,0.7,1.3c0.2,0.8,0.2,1.5,0.6,2.3
		c0.8,1.7,1.8,3.3,2.9,4.8c4,6,9.2,11.1,15,15.5c2.7,2,5.7,4.5,9,5.4c0.6,0.2,2.1,0.9,3.4,1.5c-3.7,3.6-7,8-6.2,13.5
		c0.7,5.1,4.8,9,9.5,10.7c5.6,2.1,11.6,1.7,17.4,0.7c5.2-1,10.4-2,15.6-2.9c0.2,0,0.3,0,0.5-0.1c0,0,0,0,0,0c0.1,0,0.2,0,0.3-0.1
		c5.8-1.5,12.5,1,15.5,6.3c3.1,5.4,1.7,12.5-2.7,16.8c-1.9,1.9,0.2,4.6,2.3,4.3c2.2,5,5,9.6,8.4,13.9c0.2,0.2,0.4,0.4,0.6,0.5
		c0.2,2.7,4.4,3.7,4.9,0.7c0.5-3.3,1.1-7.2,3.4-9.8c0.7,2.2,0.7,4.5-0.2,6.9c-0.3,0.8-0.2,1.4,0.1,1.9c-0.2,1.2-0.5,2.4-0.7,3.6
		c0,0.2,0,0.3,0,0.4c-0.4,0.9-0.4,1.9,0.5,2.8c5.6,5.6,13.3,8.5,21.2,8.2c2-0.1,2.8-2.1,2.3-3.6c0.3-0.5,0.4-1,0.3-1.7
		c-0.6-3.9-0.1-7.7,1.4-11.2c0,0,0,0.1,0,0.1c0.7,3.6,0.8,7.3,0.4,11c-0.1,1.2,0.5,1.9,1.3,2.2c0.4,1,1.5,1.7,2.8,1.2
		c6.8-2.4,11.8-7.6,14.2-14.4c0.3-0.7,0.2-1.4-0.1-1.9c0.2-0.3,0.2-0.7,0.2-1.1c-0.1-3.4-0.4-6.8-0.3-10.1c0-1.2,0.5-1.7,1.5-0.5
		c0.9,1.1,0.8,3,0.8,4.3c0.1,1.4,1,2.2,2.1,2.4c1.1,0.6,2.5,0.5,3.3-0.9c1.5-2.8,2.5-5.8,3.2-8.9c1.7-0.1,3.3-1.9,2.1-3.7
		c-1.9-3.1-4.3-6.8-3.6-10.6c0.3-1.8,1.5-4.8,3.4-5.6c7.7,0.7,15.8-0.6,17.4-8.8C197.2,156.1,190.7,147.1,183,142.8z M164.2,144.4
		c-0.1,0-0.2-0.1-0.3-0.1c-4.4-2.3-7.1-7.3-8.1-12c-1.3-6.1,0.1-12.5,2.5-18.1c1.6-0.7,2.4-3.3,0.5-4.6c-0.7-0.4-1.3-0.9-2-1.3
		c7.2-0.4,15.3,1.6,20,7c5,5.7,6.6,15.4,3.6,22.5C177.5,143.5,170.5,147,164.2,144.4z M118.7,142.9c-2.9-1.5-6.3-2.1-9.5-1.9
		c-5,0.4-9.7,2.4-14.2,4.5c-3.1,1.5-6.1,2.9-9.2,4.4c-4.3-2.7-7.3-6.8-8.5-12.1c-1.8-8.2,1.5-16.5,6.1-23.3
		c4.4-6.4,10.5-12.1,17.8-15c7.4-2.9,16.3-2.8,23,1.6c-2.6,0.9-5.1,2.3-7.3,4.1c-0.8,0.6-1,1.4-0.8,2.1c-0.3,0.8-0.2,1.7,0.5,2.5
		C125.1,119.4,125.3,133.1,118.7,142.9z M153.7,165.3c-3.1,0.5-6.2,0.6-9.3,0.4c-1,0-5.1-0.2-8.3-0.9c1.2-2.4,2.4-4.8,3.7-7.1
		c0.9-1.6,1.8-3.3,2.8-4.9c0.5-0.9,1.1-2.4,1.9-3c0.3-0.8,0.7-1,1.5-0.5c0.6,0.5,1.2,1,1.6,1.7c0.8,0.8,1.5,1.8,2.1,2.7
		c1.6,2.2,3.1,4.5,4.2,7c0.5,1,0.8,2.2,1.4,3.1C156.2,165.5,155.5,165,153.7,165.3z"/>
</g>
</svg>
