<?xml version="1.0" encoding="utf-8"?>
<!-- Generator: Adobe Illustrator 25.2.0, SVG Export Plug-In . SVG Version: 6.00 Build 0)  -->
<svg version="1.1" id="Layer_1" xmlns="http://www.w3.org/2000/svg" xmlns:xlink="http://www.w3.org/1999/xlink" x="0px" y="0px"
	 viewBox="0 0 446 113" style="enable-background:new 0 0 446 113;" xml:space="preserve">
<style type="text/css">
	.st0{fill:#BCBEC0;}
	.st1{fill:#020202;}
	.st2{fill:#FFFFFF;}
</style>
<g>
	<path class="st0" d="M367.1,112.1c-0.3-0.1-0.6-0.2-1-0.2c-1.8,0.4-3.6,0.7-5.5,0.7h-1.5l-1.5-0.3c-6.6-1.2-12.6-5-15.3-9.6
		c-0.5-0.8-0.9-1.7-1.2-2.7c-6.9,2.2-13.8,3.4-18.1,3.4h-0.5l-0.5,0c-2.6,3.5-7,7.1-14.3,8.7l-1.7,0.4H304
		c-10.3,0-16.9-7.7-19.6-11.1l-1.2-1c-5.8,6.5-13.1,7.1-15.8,7.1h-0.3c-0.9,0-1.8-0.1-2.7-0.2c-0.4,0.3-0.8,0.6-1.2,0.9
		c-1.6,1.2-6.2,4.3-12.2,4.3c-0.3,0-0.7,0-1,0c-7.7-0.5-13.4-3.3-17.2-8.7c-3.3,4.4-8.5,7.7-16,8.6l-0.9,0.1h-0.9
		c-8.6,0-19.7-4.7-23.8-26.8c-1.8-6.4-3.2-11.8-4.4-16.2l-7.3,1h-1.1c-1.4,0-4.4-0.2-7.8-1.4c1.3,5,2.8,10.8,4.5,17.4l0.5,2v2.4
		c0,9.5-6.3,19.9-20.3,21.5l-0.9,0.1h-0.9c-7.5,0-16.8-3.5-21.9-19c-5.1,4.7-11.8,8.7-18.7,12.4c-8.2,4.4-16.6,6.6-24.8,6.6
		c-8.1,0-15.6-2.1-21.9-6.3c-6.5,3.1-12.9,4.6-19.2,4.6c-14,0-26-7.6-35.9-22.5l-0.5-0.8l-0.4-0.9C5.1,76.6,2.6,67.6,2.6,59.3
		c0-1.7,0.2-4.5,1.5-7.6C1.4,46.7,0,41.3,0,35.7v-1.9L0.4,32c1.8-7.5,6.2-13.9,12.8-18.5l1.2-0.8l1.3-0.6c6.3-2.9,12.7-4.5,19-4.7
		l0.6,0c1.8,0,3.5,0.1,5.3,0.3c1-1.2,2.1-2.2,3.3-3.1C45.7,3,50,0,57,0c4,0,16.2,1.5,21.9,18.4c3.6-1.2,7.4-1.8,11.3-1.8
		c8.4,0,16.4,3.3,24.1,9.7c2.4-0.5,4.9-0.8,7.6-0.8l45.8-7.7h5.1c7,0,13,2.3,17.2,6.5l39.1-6.5h5.1c1.6,0,3.1,0.1,4.6,0.4
		c3.5-3.1,7.7-4.4,9.5-4.9l4.3-1.3L257,13c13.3,3.3,18,13.3,18,21.5v0.5c2,1.4,4.2,3.2,6.7,5.5c1.5-14.6,12.1-21.1,22.1-21.1
		c4.7,0,9.1,1.4,12.7,4c7.8-3.9,15.9-5.8,24-5.8c4.9,0,9,0.8,12.4,2c1.7-3.4,4-6.2,6.8-8.4l0.3-0.2l0.3-0.2
		c6.1-4.3,12.9-6.5,20.4-6.5c17.5,0,32.6,7.1,44.8,21l0.4,0.5l0.4,0.5c6.7,9,10.8,16.1,13.1,22.3c0.5,1.2,2.8,8,2.1,13.7
		c-0.2,1.8-0.6,3.2-1,4.5c3.7,4.4,5.7,9.4,5.7,14.6v1.9l-0.3,1.6c-2.3,11.4-10.7,18.8-21.6,18.8h-11.4c-17.6,0-26.2,3-30.3,5.5
		l-2,1.2l-9.4,2.6L367.1,112.1z"/>
	<path class="st1" d="M434.6,67.9l-1.6-1.6l-1.5-0.3c1.6-2,3.1-3.5,3.6-7.5s-1.7-9.9-1.7-9.9c-2-5.5-5.9-12-12-20.3l-0.2-0.3
		l-0.2-0.3c-10.7-12.1-23.7-18.3-38.8-18.3c-5.8,0-11.1,1.7-15.7,5l-0.1,0.1l-0.1,0.1c-3.5,2.7-5.8,7.1-7.1,13.3l-0.1,0.6
		c-3.3-3.2-8.5-5.9-16.9-5.9c-8.6,0-17.2,2.6-25.5,7.8c-2.8-4.3-7.2-6-11.2-6c-6.2,0-13.1,3.7-14.1,14l0,0.4v16.6l-5.1-4.3
		c-8.9-8.8-14.2-13.1-18-15c0.2-1.4,0.3-2.7,0.4-3.8l0-0.4v-0.4c0-2.5-0.9-10.9-11.9-13.7l-2.2-0.5l-2.1,0.7c-1.8,0.6-5.8,1.8-8,4.9
		c-0.4,0.4-0.8,0.9-1.1,1.5c-2.1-0.9-4.6-1.4-7.4-1.4h-4.5l-43.2,7.2c-2.5-4.5-7.4-7.2-13.8-7.2h-4.5l-45.7,7.6
		c-4.4,0.1-7.8,0.7-10.5,1.8c-7.1-7-14.5-10.6-22-10.6c-5.7,0-11.1,1.6-16,4.8l-0.3,0.2c0,0-0.4,0.3-0.5,0.4
		c-0.1-0.4-0.2-0.9-0.3-1.4C72.3,8.8,64.1,5.2,58.7,5.2s-8,2.7-8,2.7c-2,1.4-3.5,3.4-4.6,5.9c-3-0.8-6-1.2-9.1-1.2l-0.3,0
		c-5.3,0.2-10.7,1.5-16,4l-0.7,0.3l-0.6,0.4c-5,3.5-8.3,8.2-9.6,13.8L9.7,32v0.9c0,4.4,1.2,10,5.5,15.7c-2.4,2.9-2.8,6.1-2.8,7.8
		c0,7.1,2.2,14.9,6.7,23.9l0.2,0.4l0.3,0.4C27.8,93.7,37.6,100,48.8,100c6.4,0,13.1-2,20-6.1c5.6,5.1,12.8,7.7,21.1,7.7
		c6.9,0,14-1.9,21-5.6c16.8-8.9,23.6-15.7,23.6-23.6v-0.6l-0.1-0.6c-1.1-7.7-5.6-11.3-10.2-12.4l8.8-1.2c1.1,4.8,2.9,12,6.1,23.3
		c1,5.6,4,20.6,16,20.6h0.5l0.5-0.1c9.7-1.2,13.2-7.8,13.2-13.6v-1.3l-0.3-1c-4.7-17.7-7.1-27.5-8.4-32.9c2.4-0.5,4.8-0.9,7.1-1.2
		c3.4,7.3,10,8,12.3,8h0.6l14-1.9c1.1,4.8,2.9,12,6.1,23.3c1,5.6,4,20.6,16,20.6h0.5l0.5-0.1c9.7-1.2,13.2-7.8,13.2-13.6v-1.3
		l-0.3-1c-4.7-17.7-7.1-27.5-8.4-32.9c5.2-1.1,10.2-1.7,14.9-1.7c0,0.1-0.1,0.2-0.1,0.3c-2.9,2.3-7.1,6.4-7.1,12.2v0.3
		c0,2.1,0.6,7.9,6.5,11.4l0.9,7.3c1.3,17.2,9.1,18.7,15,19c4.3,0.3,8-2.8,8-2.8c1.4-0.9,2.5-2,3.4-3.3c1.7,0.7,3.5,1,5.2,1h0.3
		c3.1,0,10.3-1.2,13.7-11.5l9.1,7.8c3,3.9,7.5,8.7,13.8,8.7h1.2l0.9-0.2c7.7-1.7,10.5-6.1,11.6-9.5c1.6,0.3,3.3,0.5,5,0.6l0.2,0h0.2
		c5.1,0,16.5-2.5,24.8-6.7c0,0-0.1,7.3,1.4,9.9c1.3,2.2,5.1,4.9,9.8,5.7l0.7,0.1h0.7c2,0,3.8-0.4,5.5-1.1c0.9,0.3,1.8,0.6,2.8,0.9
		l2,0.5l6.3-1.7l1-0.6c7.2-4.5,18.8-6.7,34.5-6.7h11.4c7,0,12.2-4.6,13.7-12.3l0.2-0.8v-1.1C439.7,74.8,438,71.2,434.6,67.9z
		 M49.4,71.6h-1c-0.3-0.1-0.9-0.4-2-1.1c-1.4-1.2-2.7-3.1-3.9-5.5c5.4,2.3,8.7,4.1,10.7,5.4C52.3,70.8,51,71.2,49.4,71.6z
		 M332.5,60.1c0.2,0.9,0.4,1.8,0.6,2.6c-4.2,1.3-5.9,1.5-6.5,1.5H324c-0.2,0-0.5,0-0.6,0c0.1-0.7,0.4-1.7,1-3.1
		c2.8-3.9,5.9-6.7,9.3-8.3c-0.8,1.7-1.3,3.6-1.3,5.7v1L332.5,60.1z M396.8,47.2c-2.7-3.2-4.6-5.9-6-8.1c5.2,2.2,10.2,7.3,14.8,15.4
		C402.6,52.3,399.7,49.9,396.8,47.2z"/>
	<path class="st2" d="M246,34.7c0-4.5-2.5-6.8-7.6-6.8h-3.8l-45.7,7.6c-1.8,0-3.3,0.1-4.7,0.3c0.1-0.4,0.3-0.8,0.4-1.2
		c0-4.5-2.5-6.8-7.6-6.8h-3.8l-45.7,7.6c-7.3,0-11.4,1.8-12.2,5.4c-0.6-1-1.2-2-1.9-3c-6.5-7.4-12.8-11.2-19-11.2
		c-4.2,0-8.1,1.2-11.7,3.5c-3.3,2.5-6.1,5.3-8.4,8.2c-1.7-3.3-3.3-8-4.9-14.2c-1.3-9.4-4.1-14.1-8.2-14.1v0.3
		c-3.4,0-5.4,2.2-6.2,6.5l1.8,6.2v0.3c-5.8-3.9-11.6-5.9-17.3-5.9c-4.2,0.1-8.5,1.2-12.9,3.2c-3.4,2.4-5.6,5.4-6.4,9.1
		c0,7.4,4.6,13.8,13.8,19.1c21.5,7.7,32.2,13.9,32.2,18.5v1.5c0,2.7-4.4,5.3-13.2,7.6h-2.6c-1.5,0-3.5-0.9-6.2-2.6
		C40,70.7,37,65.2,35,57.5c-0.6-6.3-2.7-9.4-6.4-9.4c-3.9,1-5.9,2.8-5.9,5.3c0,5.7,2,12.5,5.9,20.3c6.7,10.2,14.3,15.3,22.6,15.3
		c6.6,0,13.8-2.9,21.4-8.7c4.6,6.9,11.2,10.3,19.7,10.3c5.6,0,11.4-1.6,17.3-4.7c12.9-6.9,19.3-12.3,19.3-16.5
		c-0.6-3.9-2.3-5.9-5.3-5.9l-2.6,0.3c-10.6,9.3-19.8,14.2-27.5,14.7H92l-4.1-0.6c-5.9-2.9-8.8-7.6-8.8-14.1v-0.9
		c4.8,1.6,9,2.4,12.6,2.4c10.9,0,18.4-1.9,22.3-5.6c2.4-3.3,3.8-6.7,4.1-10c0-0.7-0.1-1.4-0.2-2.2c0.9,0.6,1.9,1,3.1,1l21.1-2.9
		c0,3,2.4,13.2,7.3,30.6c1.7,9.6,4.4,14.4,8.2,14.4c4.1-0.5,6.2-2.4,6.2-5.6v-0.3c-6.6-25.1-10-38.7-10-40.9
		c8.2-2.4,15.9-3.6,23.2-3.8c-0.3,0.7-0.4,1.5-0.4,2.3c0.8,4.1,2.7,6.2,5.9,6.2l21.1-2.9c0,3,2.4,13.2,7.3,30.6
		c1.7,9.6,4.4,14.4,8.2,14.4c4.1-0.5,6.2-2.4,6.2-5.6v-0.3c-6.6-25.1-10-38.7-10-40.9c8.8-2.5,17.1-3.8,24.9-3.8
		C243.1,40,245,38.2,246,34.7z M44.7,40.1c-5.8-1.6-9.9-4.2-12.3-7.9v-0.6c0.9-1.2,2.9-1.8,5.9-1.8h2.6l2.9,0.3
		c1.9,0,8.6,5.1,20.2,15.3c1.6,2.1,3,3.6,4.2,4.5c-0.2,0.5-0.3,1-0.4,1.6C62.3,47.7,54.5,43.9,44.7,40.1z M105.7,50.3
		c0,2-4.5,2.9-13.5,2.9c-5.2,0-8.8-1.1-10.8-3.2c3.3-7.4,7.4-11.2,12.3-11.2l2.3,0.3c6.4,3.4,9.7,6.9,9.7,10.3V50.3z"/>
	<path class="st2" d="M256,42.6c2-0.5,2.9-0.9,2.9-1.2c1.9,0,3.3-4.3,4.1-12.9c0-2.9-2-4.9-5.9-5.9c-2.5,0.8-3.8,1.5-3.8,2.1
		c-1.5,1-2.7,5-3.5,12.1h0.3C250.2,39.8,252.1,41.8,256,42.6z"/>
	<path class="st2" d="M258.4,61.7c0-3.4,0.4-7.1,1.2-11.2c-1.1-3.7-3.1-5.6-5.9-5.6l-2.1,0.3c-1.7,0-3.6,2.8-5.9,8.2
		c-3.7,2.6-5.6,4.9-5.6,7.1v0.3c0,3,2,4.8,5.9,5.6l1.5,12.3c0.5,7.8,2.9,11.8,7,11.8v-0.3c3.9-0.5,5.9-2.4,5.9-5.6
		c-1.4-8.6-2.1-15.3-2.1-20V61.7z"/>
	<path class="st2" d="M431.5,70.5c-4.2-0.9-8-2.1-11.1-3.5c-9.1-3.3-18.1-9.1-27-17.3c-7.5-8.8-11.4-16-11.7-21.7v-0.6l0.6-0.6h5
		c11.5,0,21.5,8.2,29.9,24.7c0.9,5.5,3,8.2,6.4,8.2c3.1,0,5.2-2.1,6.2-6.2h-0.3c0-4.8-4-12.7-12-23.5c-9.1-10.4-20.1-15.6-32.8-15.6
		c-4.1,0-7.8,1.2-11.1,3.5c-1.9,1.5-3.3,4.3-4.1,8.5l0.3,0.3v2.1c0,1.9,0.9,5.2,2.6,10c1.7,5.5,6.7,12.6,14.9,21.5
		c2.8,2.7,7,6,12.6,10v0.3c-7.2,1-13,2.4-17.6,4.1h-0.3c-0.6-4.8-1.5-9.5-2.6-14.1c0-8-2.1-12.1-6.2-12.1c-0.7,0-1.4,0.1-1.9,0.3
		c-0.6-0.2-1.1-0.4-1.8-0.6h-2.6l-0.3-0.3v0.3l-8.2,0.3c-10.4,0-15.5,2.3-15.5,6.8v0.3c0.7,3.7,2.4,5.6,5.3,5.6l5.3-0.3v0.6
		c-12.1,5.1-20.2,7.6-24.3,7.6h-2.6c-5.9,0-8.8-2.4-8.8-7.1c0-2,0.7-4.7,2.1-7.9c6.5-9.6,14.9-14.4,25.2-14.4l2.9,0.3
		c2.4,1.2,4,1.8,4.7,1.8c3.9-0.7,5.9-2.5,5.9-5.6V35c-2-4.9-6.6-7.3-13.8-7.3c-8.3,0-16.5,2.9-24.6,8.8c-2.4,1.9-4.4,3.9-6.2,5.9
		v-6.2c-0.5-4.5-2.4-6.8-5.9-6.8c-3.7,0-5.7,2.3-6.2,6.8v32.9h-0.6l-17.9-15c-9.7-9.6-15.8-14.4-18.2-14.4c-3,0-5.1,1.9-6.2,5.6
		l0.3,2.9c4.5,15,6.7,24.8,6.7,29.4l-0.3,1.5c0.5,4.3,2.4,6.5,5.6,6.5h0.3c3,0,5.2-2.4,6.4-7.1c-0.4-5.4-1-10.1-1.8-14.1h0.6
		l23.4,20c3,4.1,5.7,6.2,7.9,6.2h0.3c3.9-0.9,5.9-2.6,5.9-5.3l-0.1-7.5c3.4,2.1,7.8,3.4,13.1,3.7c7.2,0,18-3.3,32.5-10h0.6
		l-1.5,11.2v1.8l-0.3,0.3h0.3c0,3.2,2,5.1,5.9,5.9c2.3,0,4-1,5.1-3c0.9,1.4,2.6,2.5,5.1,3l3.2-0.9c8.5-5.3,21.4-7.9,38.7-7.9h11.4
		c3.1,0,5.1-2,5.9-5.9v-0.3C434.1,73.9,433.2,72.2,431.5,70.5z"/>
</g>
</svg>
