<?xml version="1.0" encoding="utf-8"?>
<!-- Generator: Adobe Illustrator 25.2.0, SVG Export Plug-In . SVG Version: 6.00 Build 0)  -->
<svg version="1.1" id="Layer_1" xmlns="http://www.w3.org/2000/svg" xmlns:xlink="http://www.w3.org/1999/xlink" x="0px" y="0px"
	 viewBox="0 0 430 236" style="enable-background:new 0 0 430 236;" xml:space="preserve">
<style type="text/css">
	.st0{fill:#BCBEC0;}
	.st1{fill:url(#SVGID_1_);}
	.st2{fill:#020202;}
	.st3{fill:#FFFFFF;}
</style>
<g>
	<path class="st0" d="M429.7,94.8c0.1-2.9-0.7-5.8-2.3-8.3c-3-4.6-6.5-8.8-9.8-12.9l-1.7-2c-1.5-1.9-3.1-3.8-4.6-5.7
		c-0.1-0.2-0.3-0.4-0.5-0.6c-0.4-0.5-0.7-0.9-1-1.4c-0.7-0.9-1.3-1.8-1.8-2.6c-2.9-4.4-7.8-7.1-12.9-7.1c-2.7,0-5.4,0.8-7.6,2.2
		c-0.8,0.5-1.5,1-2.2,1.7c-1,0.7-1.8,1.5-2.5,2.4c0.3-6.1,0.4-12.3,0.1-18.4c0-1.5-0.3-3-0.8-4.5c-1.6-6.2-6.8-10.3-13.1-10.3
		c-0.7,0-1.3,0-2,0.1c-23,3-46.5,7.4-69.2,11.6c-40.1,7.5-81.7,15.3-122.1,15.3h0c-16.2,0-31.2-1.2-45.7-3.7
		c1.9-9.6,5-19.3,8.9-27.8c2-3,2.7-6.8,2-10.5c-0.7-4.7-3.4-8.6-7.4-10.8c-1.3-0.7-2.8-1.2-4.4-1.5c-1-0.2-2-0.3-3-0.3
		c-1.1,0-2.1,0.1-3.2,0.3c-0.1,0-0.5,0.1-0.5,0.1l-0.2,0c-0.3,0.1-0.5,0.2-0.8,0.2c-1.4,0.4-2.7,1-3.8,1.8
		C97.3,13.8,76.5,28.2,52.2,48.1c-8.9,7.3-18.2,15.3-28.5,24.4c-1.1,1-2.4,2-3.7,3.1C13.1,81.2,4.7,88.1,3.7,98.3
		c-0.2,1.1-0.2,2.3,0,3.4c-0.9,1-1.7,2.1-2.3,3.3c-1.7,3.5-1.8,7.5-0.2,11.4c9.8,24,20.9,44.4,34.2,62.6
		c13,17.8,28.8,35.2,48.5,53.1c2.9,2.6,6.3,4,10,4c3.8,0,7.6-1.5,10.4-4.1c3.1-0.9,5.9-2.7,8-5.1c2.5-3,3.6-6.6,3.1-10.3
		c-0.4-3-0.7-5.8-1-8.5c27.9,8.2,58.1,12.4,90,12.4c30.8,0,62.4-3.9,94-11.5c1.2,5,5.8,8.8,11,8.8c0.2,0,0.3,0,0.5,0
		c6.2-0.3,11.1-5.3,11.1-11.5v-3.9c2.7-1.6,4.8-3.9,5.9-6.8c0,0,0.1,0,0.1,0c0,2.8,0.8,5.6,2.4,8c5.9,8.4,12.1,15.7,19,22.3
		c2.8,2.7,6.6,4.2,10.6,4.2c1.5,0,3-0.2,4.4-0.6c1.4,0.4,2.9,0.7,4.3,0.7c4,0,8.2-1.8,10.8-4.6c0.5-0.6,1-1.1,1.4-1.8
		c0.1-0.1,0.2-0.2,0.2-0.3c20.8-28.7,48.5-72.8,49.8-125.3C430,96.9,429.9,95.8,429.7,94.8z"/>
	<path class="st0" d="M51.5,93.5c-1.2-0.3-2.4-0.5-3.6-0.5c-1,0-2,0.1-2.9,0.3c2.2-1.9,4.3-3.8,6.4-5.7v4.4
		C51.3,92.6,51.4,93,51.5,93.5z"/>
	
		<linearGradient id="SVGID_1_" gradientUnits="userSpaceOnUse" x1="24.82" y1="123.82" x2="415.81" y2="123.82" gradientTransform="matrix(1 0 0 -1 0 238)">
		<stop  offset="0" style="stop-color:#F47422"/>
		<stop  offset="1" style="stop-color:#BC3126"/>
	</linearGradient>
	<path class="st1" d="M92.2,200.9C65,173.9,43.3,140.7,26,99.3l-1.1-2.7l2.3-1.9c0.1-0.1,0.3-0.3,0.5-0.5l2.6-2.4
		c1.8-1.6,3.5-3.2,5.3-4.8c4.2-3.8,8.1-7.3,11.9-10.6c4.3-3.8,8.7-7.5,12.9-11.1l6.6-5.5V60c2.1-1.7,4.2-3.5,6.3-5.2
		C87.4,43.5,100.7,34,114,25.6l9.2-5.8l-3.2,10.4c-2.2,7.2-3.9,14.7-5.1,22.4l-0.6,4.4l-4.3-1.1c-0.3-0.1-0.6-0.1-0.8-0.1
		c-1.8,0-2.6,1.9-2.7,2.8c-0.2,1.6,0.4,2.6,2,3c21.6,5.8,44.3,8.6,69.4,8.6c12.8,0,26.1-0.7,40.8-2.2l3.6-0.4l3.4-0.4
		c0.9-0.1,1.8-0.2,2.8-0.3l3.5-0.4c23.4-3,47.2-7.4,70.2-11.6c20.4-3.8,41.4-7.7,62.1-10.5l4.6-0.6l0,4.6
		c-0.2,45.4-15,89.2-42.6,126.7l-0.9,1.2l-1.4,0.3c-41.5,9.6-82.2,15-120.9,16.1c-3.6,0.1-7.2,0.2-10.6,0.2
		c-39.7,0-71.8-7.1-98.1-21.7c-0.5-0.3-1-0.4-1.5-0.4c-1.4,0-2.6,1.4-3,2.7c-0.4,1.6,0.5,2.4,1.3,2.8c1.6,0.9,3.2,1.7,5.1,2.6
		l2.2,1.1l0,2.4c0.1,5,0.3,10.2,0.8,15.4l1,10.9L92.2,200.9z M371.1,208.1l3-4.3c27.8-40.1,40.7-73.4,41.6-108c0-0.2,0-0.3,0.1-0.4
		l0.2-1.5l-1-1.5c-0.4-0.6-0.9-1.3-1.3-1.9c-0.4-0.5-0.8-1.1-1.2-1.6l-0.5-0.7l0,0c-1.3-1.6-2.6-3.2-3.9-4.8l-6.5-7.9l-1,9.6
		c-3.3,33-16.7,67.2-41.1,104.6l-1.6,2.5l1.9,2.3c1.4,1.7,2.8,3.3,4.2,5c1.3,1.5,2.6,3.1,3.9,4.6L371.1,208.1z"/>
	<path class="st2" d="M378.6,40.4c0-0.9-0.2-1.7-0.5-2.4c-0.6-2.8-2.7-5-6.5-4.5c-81.6,10.5-164.9,38.7-247.2,21.7
		c1.6-12.7,5.7-26.6,11.1-38.2c1.2-1.5,1.4-3.4,1.1-5.2c-0.2-2-1.2-3.9-3.3-5c-0.7-0.4-1.4-0.6-2.2-0.7c-0.9-0.2-1.9-0.2-3,0
		c-0.1,0-0.1,0-0.2,0c-0.2,0-0.3,0.1-0.4,0.1c-0.7,0.2-1.4,0.5-2,1c-23.1,12.7-44.3,28.3-64.7,44.9c-9.6,7.8-19,15.9-28.2,24.2
		C26.3,81.9,16,88.4,15.3,97.1c-0.1,0.6-0.1,1.1,0,1.8c0,0,0,0.1,0,0.1c0,0.1,0,0.1,0,0.2c0.1,1.3,0.5,2.7,1.1,4.1c0,0,0,0,0,0
		c-3.4,0.9-6,3.9-4.3,8.1c8.8,21.5,19.5,42.1,33.2,60.9c13.9,19,30,36.1,47.4,51.9c3.8,3.5,8.8,1.7,11-1.7c0.1,0,0.2,0,0.3,0
		c3.4-0.1,7.5-3.1,7-7c-0.9-6.9-1.7-13.9-2.2-20.9c63.8,22,135.9,19.3,200.7,2c0,2.5,0,5,0,7.6c0,1.8,1.6,3.6,3.5,3.5
		c1.9-0.1,3.5-1.5,3.5-3.5c0-3.2,0-6.3,0-9.5c0.7-0.2,1.4-0.4,2.1-0.6c3.8-1.1,5.2-4.3,4.9-7.3c1.8-0.4,3.5-0.8,5.3-1.2
		c2.4-0.6,3.9-2,4.5-3.8c0-0.1,0.1-0.1,0.2-0.2C364,141.2,380.3,90.9,378.6,40.4z M33,94.8c1.8-1.6,3.5-3.2,5.3-4.8
		c3.9-3.6,7.9-7.1,11.9-10.6c4.2-3.7,8.5-7.4,12.8-11c0,7.3,0,14.6,0,21.8c0,2.2,3.5,2.2,3.5,0c0-8.2,0-16.5,0-24.7
		c3.1-2.6,6.2-5.1,9.3-7.7c12.9-10.3,26.3-20.1,40.3-28.9c-2.3,7.5-4.1,15.2-5.2,23.1c-8.6-2.1-12.2,11.1-3.6,13.4
		c37.2,9.9,74.4,10.3,111.6,6.5c0,2.7,0,5.5,0,8.2c0,1.8,1.6,3.6,3.5,3.5c1.9-0.1,3.5-1.5,3.5-3.5c0-3,0-6,0-9
		c0.9-0.1,1.9-0.2,2.8-0.3c-0.1,1.5-0.3,3-0.4,4.6c-0.1,0.9,0.9,1.8,1.8,1.7c1-0.1,1.7-0.8,1.8-1.7c0.1-1.7,0.3-3.3,0.4-5
		c44.2-5.6,88.4-16.1,132.4-22.2c-0.2,44.8-15.2,88.2-41.8,124.3c-39.4,9.1-79.7,14.8-120.1,16c-36.6,1.1-74.3-3.1-106.7-21.1
		c-7.9-4.4-14.9,7.7-7.1,12c1.7,0.9,3.4,1.8,5.2,2.7c0.1,5.2,0.3,10.5,0.8,15.7c-28.8-28.5-49.7-62.8-65.4-100.3
		c0.2-0.2,0.5-0.5,1-0.9C31.4,96.2,32.2,95.5,33,94.8z"/>
	<path d="M408.7,90.8C408.7,90.8,408.6,90.8,408.7,90.8C409.7,92.2,409,91.2,408.7,90.8z"/>
	<path d="M408.7,68.7C408.7,68.7,408.7,68.7,408.7,68.7C407.6,67.3,408.4,68.4,408.7,68.7z"/>
	<path class="st2" d="M425.6,95.6c0-0.9-0.1-1.6-0.3-2.3c0.3-1.5,0.1-3.1-0.9-4.4c-3.2-4.8-6.9-9.2-10.5-13.7
		c-1.7-2.1-3.5-4.2-5.2-6.4c0,0.1,0.1,0.1,0.1,0.2c-0.2-0.2-0.4-0.5-0.6-0.7c-0.4-0.5-0.8-1-1.2-1.6c-0.7-1-1.4-1.9-2.1-3
		c-2-3-6.3-4.6-9.6-2.5c-0.5,0.3-0.9,0.7-1.3,1.1c-1.7,1.1-2.9,2.9-2.9,5.6c0,0.6,0,1.2,0,1.8c-2.9,0.6-5.6,2.7-5.8,6.5
		c-2.5,41.1-21.6,77.5-43.9,111.3c-0.1,0.1-0.1,0.3-0.2,0.4c-2.5,2.1-3.7,6-1.7,8.9c5.3,7.6,11.2,14.7,17.9,21.1
		c2.5,2.4,6.7,2.7,9.4,0.5c1.2,1,3,1.5,4.4,1.5c1.7,0,3.8-0.8,5-2c0.4-0.4,0.7-0.8,0.9-1.2c0-0.1,0.1-0.1,0.1-0.2
		C403.3,180.5,424.5,140.9,425.6,95.6z M408.6,90.8c0-0.1-0.1-0.1-0.1-0.2c0.2,0.2,0.4,0.5,0.6,0.7c0.4,0.5,0.8,1,1.2,1.6
		c0.5,0.7,1,1.4,1.4,2.1c0,0.2-0.1,0.4-0.1,0.7c-1,39.5-18.8,74.2-40.9,105.9c-2.7-3.2-5.4-6.4-8.1-9.6
		c21.2-32.5,37.9-67.9,41.8-106.4C405.8,87.3,407.2,89,408.6,90.8z"/>
	<path class="st3" d="M51,119.9c1.3,2.4,4.8,3.4,7.2,1.9c2.4-1.6,3.3-4.6,1.9-7.1c-2.7-4.8-5.4-9.6-8.2-14.3
		c-1.3-2.4-4.8-3.4-7.2-1.9c-2.4,1.6-3.3,4.6-1.9,7.2C45.6,110.3,48.3,115.1,51,119.9z"/>
	<path class="st2" d="M293.1,177.4c-5.2,0-10.3-3.4-16.8-11.6l-0.1,0l-1.6-0.3c-1.9-0.4-3.6-0.9-5-1.5c-4.6,4.7-12.3,8-19.9,10.6
		l-0.3,0.1l-0.3,0.1c-6.5,1.7-12.6,2.5-18.1,2.5c-5.7,0-11.1-1.1-16.2-3.4c-2.1,1.6-4.9,2.8-8.9,3.3l-0.5,0.1h-0.5
		c-6.1,0-13.1-3.9-14.2-15l-0.9-7.5c-3,0.9-7.2,2.3-13.1,4.5l0.1,0.3l-0.4,2.1c-0.9,4.5-3.1,7.9-6.1,10.1v2.8h-8
		c-6.1,0-13.7-3.3-16.8-18.1c-1.8,2.4-3.6,4.9-5.6,7.5c-7.1,9.3-12.6,13.2-18.2,13.2c-2.4,0-4.8-0.6-7-1.8l-1.6,0.1h-0.3
		c-9.4,0-14.2-10.6-17.4-19.9L83.7,126L75,105c-4.6-4.3-5.6-8.7-5.6-11.7c0-3,1.1-12.9,14.8-14.8l1.5-0.2l7.1,1.8h2.7
		c19.6-2.9,24.8-3.3,27.2-3.3c6.7,0,14.1,4,15.2,15.1l0,0.4V93c0,0.5,0,1-0.1,1.5c3.2-0.7,6.1-1,8.5-1h2.8l0.2,0
		c2.7,0.1,5.1,0.5,7.2,1c0.6-1.1,1.2-2.2,1.9-3.2l0.4-0.7l0.5-0.6c5.8-6.1,11.2-9,16.6-9h2.3c10.8,0,20.4,8.1,29.3,24.8
		c1.1-0.8,2.1-1.6,3.3-2.3l0.3-0.2l0.3-0.2c7.3-3.9,14.4-5.8,21.1-5.8c3.3,0,7.2,0.8,11.7,2.3c2.4-1.3,4.7-2,7-2
		c2.4,0,4.7,0.7,6.8,2c2.8-1.7,5.7-2,7.4-2c8.7,0,13.7,8,17,17c2-4.1,2.4-5.8,2.5-6.3v-0.9l0.3-1.1c4.3-14.4,6.6-21.6,10.8-24.2
		c1.9-1.5,4.6-2.8,8.7-2.8h0.7l0.7,0.1c12.8,2.3,13.8,11.9,13.8,14.7V96l-0.7,1.6c-1.1,2.4-3.1,8.1-6.8,21.1l-0.1,0.5l-2.2,5
		c7-0.2,11.5-0.4,14.5-0.6v-3.1l9.8,2.2c8.2,1.8,13.1,7.3,13.1,14.7c0,4.6-2.1,15.5-21.6,15.5c-9.7,0.3-16.6,0.6-21.4,0.9
		c0.3,0.4,2.7,2.9,2.7,2.9l0.7,5.6v0.5c0,2.8-1,12-13.4,14.4l-0.7,0.1L293.1,177.4L293.1,177.4z M231.6,148c7.4,0,14.1-2.2,20.6-6.7
		c-2.7-2-5.1-4.7-7.1-7.4c-7.4-5.6-10.3-6.6-10.9-6.8h-4c-1.1,0-4.1,0-8.1,4.6c0.1,0.3,0.3,0.6,0.4,0.9l0.7,1.5v1.7
		c0,2.6-0.8,5.2-2.5,7.6c1.3,1.1,3.3,2.6,6.5,4.2l4.1,0.4L231.6,148L231.6,148z M118.1,133.6c1,2.8,1.8,5.2,2.6,7.2
		c0.2-0.3,0.4-0.6,0.7-0.9c3.4-4.9,6.1-8.8,8.2-12C126.4,129.3,122.6,131.1,118.1,133.6z M179,114.4c-1,3-2.3,7.6-3.8,14.7
		c2.8-0.8,5.7-1.7,8.9-2.5C181.6,118.5,179.8,115.5,179,114.4L179,114.4z"/>
	<path class="st3" d="M334.2,126.4c0,0.8-11.6,1.5-34.8,2v-0.3l6.9-15.7c3.1-10.9,5.5-18.3,7.2-22.2c0-3.7-2.4-6-7.2-6.8
		c-2,0-3.4,0.5-4.3,1.6c-1.1,0-3.7,6.5-7.5,19.6c0,3.2-3.7,11.3-11.1,24.1H283c-0.4,0-1.9-2.7-4.3-8.2c-3.5-12.6-7.5-18.9-11.8-18.9
		c-3.4,0-5.7,2.3-6.9,6.8c-2.4-4.5-4.9-6.8-7.4-6.8c-1.5,0-3.5,1-5.9,2.9c-5.3-2.2-9.6-3.3-12.8-3.3c-5.5,0-11.3,1.6-17.4,4.9
		c-4.5,2.9-8.1,6.2-11,9.7l-2.7-8.4c-7.7-15-15.5-22.5-23.3-22.5h-2.3c-3.1,0-6.7,2.2-10.8,6.5c-1.9,3-3.6,6.2-5,9.6
		c-1.8-2.2-5.5-3.4-11.2-3.7h-2.6c-5.1,0-12.9,2-23.3,5.9h-0.3v-0.7c4.8-6.4,7.2-10.9,7.2-13.7v-0.3c-0.5-5.2-2.9-7.8-7.2-7.8
		c-3,0-11.9,1.1-26.6,3.3h-4.3l-6.6-1.6c-5.2,0.7-7.9,3-7.9,6.8c0,2.3,1.4,4.6,4.3,6.8l9.5,22.8l11.8,30c3.3,9.8,6.6,14.7,9.8,14.7
		l3.9-0.3c1.6,1.3,3.2,2,4.9,2c2.7,0,6.6-3.4,11.8-10.1c8.8-11.4,15.4-21.2,20-29.4c-0.7,5.6-1.2,11.4-1.2,17.7l0.3,3.9
		c1.3,10.2,4.5,15.3,9.5,15.3v-0.3c3.3,0,5.4-2.1,6.2-6.2l-1.6-4.9v-0.6c15.3-6.1,25.1-9.1,29.5-9.1h0.3l2,16
		c0.5,5.2,2.6,7.8,6.2,7.8c4.7-0.6,7.1-2.6,7.2-6c5.7,4,12,6,19,6c4.9,0,10.2-0.8,16.1-2.3c12.5-4.4,18.7-8.6,18.7-12.7
		c-0.8-4.6-3-6.9-6.6-6.9l-2.3,0.3c-7.9,5.4-16.3,8.2-25.2,8.2h-0.7l-5.9-0.6c-8.7-4.1-13.3-8.6-14-13.2c2.8-2.2,4.2-4.3,4.2-6.4
		c-0.7-1.7-1.7-3-2.8-3.9c0.1-0.3,0.2-0.6,0.4-1c5.1-7.8,10.9-11.8,17.4-11.8h4.3c3.1,0,8.5,3.1,16.4,9.1c4,5.4,7.3,8.2,9.8,8.2
		c2.6,0,4.5-1.3,5.8-3.7c1.8,4.2,3.5,7.6,4.9,10.3v0.3c-2.4,3.6-3.6,5.9-3.6,6.9c0,4,2.7,6.5,8.2,7.5l3-0.6h0.7
		c6,8.3,10.5,12.4,13.5,12.4c4.6-0.9,6.9-3.1,6.9-6.5l-0.3-2.6c-6.3-7-9.5-11.1-9.5-12.4s11.9-2.2,35.8-2.9c9.2,0,13.8-2.5,13.8-7.5
		C341.1,129.8,338.8,127.5,334.2,126.4z M103.4,109.1h-0.7l-3.9-10.4c0-0.8,4.5-1.9,13.4-3.3v0.3
		C108.8,101.8,105.9,106.3,103.4,109.1z M147,111.4c0,2.5-5.9,12.2-17.7,29c-5.6,7.4-8.6,11.1-9.2,11.1c-2.2-3.5-5.6-12-10.2-25.5
		v-0.3l0.3-0.3c16.8-9.6,28.9-14.4,36.1-14.4h0.7L147,111.4L147,111.4z M167.5,136.2h-0.3c0.2-4.6,0.7-8.4,1.3-11.4
		c3.6-17.6,7.1-26.4,10.5-26.4c1.8,0,4.4,2.4,7.9,7.2c2.8,3.7,5.6,11.2,8.5,22.5C183.8,131.1,174.5,133.8,167.5,136.2z"/>
	<circle class="st3" cx="63.7" cy="131.3" r="5.7"/>
</g>
</svg>
