<?xml version="1.0" encoding="utf-8"?>
<!-- Generator: Adobe Illustrator 25.2.0, SVG Export Plug-In . SVG Version: 6.00 Build 0)  -->
<svg version="1.1" id="Layer_1" xmlns="http://www.w3.org/2000/svg" xmlns:xlink="http://www.w3.org/1999/xlink" x="0px" y="0px"
	 viewBox="0 0 140 136" style="enable-background:new 0 0 140 136;" xml:space="preserve">
<style type="text/css">
	.st0{fill:#BCBEC0;}
	.st1{fill:url(#SVGID_1_);}
	.st2{fill:#020202;}
	.st3{fill:#FFFFFF;}
</style>
<g>
	<path class="st0" d="M41,136c-3.8,0-7.4-1.5-9.9-4.1c-7.7-8-15.6-16-23.5-23.8C3.4,104,2.5,97.7,4.9,92.6C4.6,88.6,6.1,84.7,9,81.9
		c2.6-2.5,5.2-5,7.8-7.5C13.1,70.7,9.6,67,6.2,63.2C2.9,59.6,1.9,54.8,3,50.4c-4.3-5.3-4.1-12.8,0.7-18c0.6-0.7,1.3-1.3,2.1-1.8
		C13.7,21.1,22.5,12.3,32,4.3c0.2-0.2,0.5-0.4,0.7-0.5c2.5-2.3,5.7-3.5,9.2-3.5c3.7,0,7.3,1.5,9.8,4.1c6,6.2,12.4,12.2,19.1,18.1
		c2.1-1.9,4.2-3.8,6.3-5.7c4.8-4.3,9.3-8.3,13.6-12.7c2.5-2.6,5.9-4,9.6-4c1.5,0,3.1,0.3,4.6,0.8c2.4,0.5,4.8,1.6,6.7,3.2
		c8.7,7.2,16.9,15.2,24.4,23.8c1.7,2,2.8,4.2,3.3,6.7c1.8,4.9,0.6,10.6-3.2,14.3c-3.4,3.3-6.8,6.8-10.1,10.2v1.8
		c0,2.7-1,5.3-2.9,7.4c-0.4,0.5-0.9,0.9-1.4,1.3c1.8,1.6,3.6,3.1,5.4,4.6c1,0.9,2.1,1.7,3.2,2.6c0,0,1,0.8,1.1,0.9l1,0.8
		c0.7,0.6,1.4,1.2,2,1.8c0.4,0.3,0.8,0.6,1.1,0.9c5.3,4.8,5.6,12.7,0.9,18.7c-8.5,10.8-17.5,21.5-26.7,31.8
		c-2.5,2.8-5.9,4.3-9.8,4.3l0,0c-1.2,0-2.5-0.2-3.7-0.5c-1.3,0.4-2.7,0.6-4.2,0.6c-3.7,0-7.2-1.4-9.8-3.9l-14.3-14.2
		c-4.5,4.4-9.1,8.7-13.5,12.8c-1.7,1.6-3.7,2.7-5.8,3.2C46.3,135.2,43.7,136,41,136z"/>
	<path d="M32.9,85.5c-1.5,1.4-3,2.9-4.5,4.3c1.5,1.4,3,2.9,4.5,4.3C32.7,91.3,32.7,88.4,32.9,85.5z"/>
	
		<linearGradient id="SVGID_1_" gradientUnits="userSpaceOnUse" x1="19.32" y1="73.67" x2="127.9" y2="73.67" gradientTransform="matrix(1 0 0 -1 0 138)">
		<stop  offset="0" style="stop-color:#EC2B3D"/>
		<stop  offset="1" style="stop-color:#A41D42"/>
	</linearGradient>
	<path class="st1" d="M101,65c-0.8-0.8-0.5-1.8,0.1-2.5c0.1,0,0.1-0.1,0.2-0.1l0.8-0.5l0.4-0.8c0.1-0.3,0.2-0.3,0.2-0.3
		c4.4-4.4,8.8-8.9,13.1-13.2c3.1-3.2,6.3-6.5,9.5-9.7l2.7-2.7l-2.5-2.8C119.7,26,113.5,20,107,14.4l-2.8-2.4l-2.6,2.6
		c-3.4,3.3-7.1,6.6-10.6,9.8c-4.7,4.2-9.6,8.6-14.2,13.3c-0.1,0.1-0.2,0.2-0.4,0.2l-0.7,0.3l-0.5,0.5c-0.1,0.1-0.2,0.2-0.5,0.3
		L74.4,39l-0.5-0.1c-0.4-0.1-0.9-0.3-1.2-0.6c-8.6-6.9-17.1-14.6-25.2-22.7L44.8,13l-2.8,2.5c-7.2,6.4-14.1,13.4-20.3,20.7L19.3,39
		l2.5,2.6c8.1,8.3,15.6,15.6,23,22.4c0,0,0,0,0.1,0.2l0.4,0.5l0.5,0.4c0.1,0.1,0.2,0.2,0.4,0.3c0.1,0.2,0.2,0.5,0.2,0.8
		c0,0.5-0.2,0.9-0.4,1.2c-1.4,1.3-2.8,2.7-4.2,4.1v-0.1l-4.3,4.3v0l-7.4,7.2c-1.5,1.4-3,2.9-4.5,4.3l-3,2.9l3.1,2.9
		c1.8,1.7,3.2,3,4.4,4.3l2.2,2.2l0,0.1l0.9,0.9c3.9,4.1,7.7,8.3,11.2,12.5l2.7,3.3l3.1-2.9c6.9-6.5,14.2-13.4,21.1-21
		c0.1-0.1,0.2-0.1,0.3-0.2l0.8-0.4l0.6-0.7c0-0.1,0.1-0.1,0.1-0.2c0.2-0.2,0.6-0.3,0.8-0.3c0.5,0,1.1,0.2,1.4,0.5
		c4.6,4.3,9.1,8.7,13.6,13.1c3.4,3.3,6.8,6.5,10.2,9.8l3,2.9l2.8-3.1c6.5-7.3,12.9-14.9,19.1-22.7l2.5-3.1l-3.2-2.5
		C115.9,79.2,108.3,72.4,101,65z"/>
	<path class="st2" d="M132,82.9c-0.4-0.5-0.9-1-1.5-1.5c-0.3-0.2-0.6-0.4-0.9-0.7c-0.1-0.1-1-0.8-0.3-0.2c0.7,0.6-0.3-0.2-0.3-0.3
		c-0.3-0.2-0.5-0.4-0.8-0.6c-1.1-0.9-2.2-1.8-3.3-2.7c-2.3-1.9-4.5-3.8-6.7-5.8c-2.8-2.4-5.4-5-8.1-7.5c1.8-1.8,3.6-3.6,5.3-5.4
		c0.1,0.5,0.3,1,0.7,1.4c0.5,0.5,1.3,0.9,2,0.8c0.7,0,1.5-0.3,2-0.8c0.5-0.5,0.8-1.2,0.8-2c0-1.6,0-3.2,0-4.8c0-0.1,0-0.1,0-0.2
		c4.1-4.2,8.3-8.5,12.5-12.7c1.7-1.7,2.1-4.5,1-6.6c-0.1-1.3-0.6-2.5-1.6-3.6c-7.2-8.2-15-15.9-23.4-22.9c-1-0.9-2.3-1.4-3.6-1.6
		c-2.1-0.9-4.6-0.7-6.4,1.1C91.4,14.7,82.3,21.9,74.1,30c-8.8-7.3-17.2-15.1-25.2-23.3c-2.1-2.1-6-2.2-8,0c0,0,0,0,0,0.1
		c-0.2,0.2-0.4,0.3-0.6,0.5C31,15,22.5,23.6,14.8,32.9c-0.2,0.2-0.3,0.5-0.5,0.7c-0.6,0.3-1.2,0.6-1.6,1.1c-2.1,2.3-2.2,5.7,0,8
		c1.1,1.2,2.3,2.3,3.5,3.5c-0.3,0.2-0.6,0.3-0.9,0.6c-2.2,2.4-2.1,5.6,0,8c5.1,5.7,10.5,11.2,16,16.5c-4.5,4.4-9.1,8.9-13.7,13.2
		c-1.7,1.6-2.1,4.4-1,6.5c-0.1,0.1-0.2,0.2-0.3,0.2c-2.1,2.2-2.3,5.8,0,8c8.1,7.8,16,15.8,23.8,24c2,2.1,6,2.2,8,0
		c0,0,0-0.1,0.1-0.1c1.4,0,2.7-0.5,3.8-1.6c6.5-6.1,12.9-12.1,19.1-18.5c0.2,0.4,0.5,0.9,0.9,1.3c6.3,6.2,12.6,12.4,18.9,18.7
		c2.1,2.1,5.9,2.2,8,0.1c2.2,1.8,5.7,2.1,7.8-0.2c9.2-10.1,18-20.6,26.4-31.3c1.8-2.3,2.4-5.8,0-8C132.7,83.3,132.4,83.1,132,82.9z
		 M33,94.2c-1.5-1.5-3-2.9-4.5-4.3c1.5-1.4,3-2.9,4.5-4.3C32.7,88.4,32.7,91.3,33,94.2z M47.6,110.2c-3.7-4.4-7.5-8.7-11.5-12.8
		c-0.7-4.9-0.7-9.9-0.2-14.9c0.4-0.4,0.9-0.9,1.3-1.3c0,1-0.1,2.1-0.1,3.1c0,0.7,0.7,1.4,1.4,1.4c0.8,0,1.4-0.6,1.4-1.4
		c0-2,0.1-4,0.2-5.9c2.8-2.8,5.7-5.6,8.6-8.3c2.2-2,2.2-6,0-8c-0.2-0.2-0.4-0.2-0.6-0.4c-0.2-0.3-0.4-0.5-0.7-0.8
		c-7.8-7.2-15.4-14.6-22.8-22.2c6.1-7.2,12.8-14,19.9-20.3c8.1,8.1,16.6,15.8,25.5,22.9c0.8,0.6,1.7,1.1,2.6,1.3
		c0.4,5.1,0.6,10.2,0.4,15.3c-0.1,1.8,2.8,1.8,2.8,0c0.2-5.1,0-10.2-0.4-15.2c0.9-0.2,1.8-0.6,2.5-1.4c0.6-0.3,1.1-0.6,1.5-1.1
		c7.9-8,16.7-15.1,24.7-22.9c6.4,5.5,12.4,11.4,18,17.6c-7.6,7.6-14.9,15.3-22.6,22.9c-0.4,0.4-0.7,0.8-0.9,1.3
		c-0.3,0.2-0.5,0.4-0.7,0.6c-2.1,2.3-2.2,5.7,0,8c7.2,7.3,14.9,14.2,23,20.5c-6.1,7.7-12.5,15.2-19,22.5c-8-7.6-15.8-15.3-23.8-22.9
		c-2.2-2-5.9-2.3-8,0c-0.1,0.1-0.1,0.2-0.2,0.3c-0.6,0.3-1.1,0.6-1.6,1.1C61.9,96.7,54.8,103.4,47.6,110.2z"/>
	<path class="st3" d="M42.8,40.5c0.5-0.8,1-1.6,1.5-2.3c-0.2,0.3-0.4,0.6-0.7,0.9c1-1.2,2.1-2.3,3.3-3.3c-0.3,0.2-0.6,0.4-0.9,0.7
		c0.1-0.1,0.2-0.1,0.2-0.2c0.5-0.3,0.9-0.6,1.2-1.1c0.4-0.4,0.6-0.9,0.8-1.4c0.2-0.6,0.2-1.1,0.1-1.7c0-0.6-0.2-1.1-0.5-1.6
		c-0.6-0.9-1.5-1.7-2.5-2c-0.4,0-0.8-0.1-1.1-0.1c-0.8,0-1.5,0.2-2.2,0.6c-1.3,1-2.6,2-3.7,3.3c-1.1,1.2-2.1,2.6-2.9,4
		c-0.5,1-0.7,2.2-0.4,3.3c0.1,0.5,0.4,1,0.8,1.4c0.3,0.5,0.7,0.8,1.2,1.1c1,0.5,2.2,0.8,3.3,0.4C41.2,42.1,42.2,41.5,42.8,40.5
		L42.8,40.5z"/>
</g>
</svg>
