<?xml version="1.0" encoding="utf-8"?>
<!-- Generator: Adobe Illustrator 25.2.0, SVG Export Plug-In . SVG Version: 6.00 Build 0)  -->
<svg version="1.1" id="Layer_1" xmlns="http://www.w3.org/2000/svg" xmlns:xlink="http://www.w3.org/1999/xlink" x="0px" y="0px"
	 viewBox="0 0 430 236" style="enable-background:new 0 0 430 236;" xml:space="preserve">
<style type="text/css">
	.st0{fill:#BCBEC0;}
	.st1{fill:url(#SVGID_1_);}
	.st2{fill:#020202;}
	.st3{fill:#FFFFFF;}
</style>
<g>
	<path class="st0" d="M429.7,94.8c0.1-2.9-0.7-5.8-2.3-8.3c-3-4.6-6.5-8.8-9.8-12.9l-1.7-2c-1.5-1.9-3.1-3.8-4.6-5.7
		c-0.1-0.2-0.3-0.4-0.5-0.6c-0.4-0.5-0.7-0.9-1-1.4c-0.7-0.9-1.3-1.8-1.8-2.6c-2.9-4.4-7.8-7.1-12.9-7.1c-2.7,0-5.4,0.8-7.6,2.2
		c-0.8,0.5-1.5,1-2.2,1.7c-1,0.7-1.8,1.5-2.5,2.4c0.3-6.1,0.4-12.3,0.1-18.4c0-1.5-0.3-3-0.8-4.5c-1.6-6.2-6.8-10.3-13.1-10.3
		c-0.7,0-1.3,0-2,0.1c-23,3-46.5,7.4-69.2,11.6c-40.1,7.5-81.7,15.3-122.1,15.3h0c-16.2,0-31.2-1.2-45.7-3.7
		c1.9-9.6,5-19.3,8.9-27.8c2-3,2.7-6.8,2-10.5c-0.7-4.7-3.4-8.6-7.4-10.8c-1.3-0.7-2.8-1.2-4.4-1.5c-1-0.2-2-0.3-3-0.3
		c-1.1,0-2.1,0.1-3.2,0.3c-0.1,0-0.5,0.1-0.5,0.1l-0.2,0c-0.3,0.1-0.5,0.2-0.8,0.2c-1.4,0.4-2.7,1-3.8,1.8
		C97.3,13.8,76.5,28.2,52.2,48.1c-8.9,7.3-18.2,15.3-28.5,24.4c-1.1,1-2.4,2-3.7,3.1C13.1,81.2,4.7,88.1,3.7,98.3
		c-0.2,1.1-0.2,2.3,0,3.4c-0.9,1-1.7,2.1-2.3,3.3c-1.7,3.5-1.8,7.5-0.2,11.4c9.8,24,20.9,44.4,34.2,62.6
		c13,17.8,28.8,35.2,48.5,53.1c2.9,2.6,6.3,4,10,4c3.8,0,7.6-1.5,10.4-4.1c3.1-0.9,5.9-2.7,8-5.1c2.5-3,3.6-6.6,3.1-10.3
		c-0.4-3-0.7-5.8-1-8.5c27.9,8.2,58.1,12.4,90,12.4c30.8,0,62.4-3.9,94-11.5c1.2,5,5.8,8.8,11,8.8c0.2,0,0.3,0,0.5,0
		c6.2-0.3,11.1-5.3,11.1-11.5v-3.9c2.7-1.6,4.8-3.9,5.9-6.8c0,0,0.1,0,0.1,0c0,2.8,0.8,5.6,2.4,8c5.9,8.4,12.1,15.7,19,22.3
		c2.8,2.7,6.6,4.2,10.6,4.2c1.5,0,3-0.2,4.4-0.6c1.4,0.4,2.9,0.7,4.3,0.7c4,0,8.2-1.8,10.8-4.6c0.5-0.6,1-1.1,1.4-1.8
		c0.1-0.1,0.2-0.2,0.2-0.3c20.8-28.7,48.5-72.8,49.8-125.3C430,96.9,429.9,95.8,429.7,94.8z"/>
	<path class="st0" d="M51.5,93.5c-1.2-0.3-2.4-0.5-3.6-0.5c-1,0-2,0.1-2.9,0.3c2.2-1.9,4.3-3.8,6.4-5.7v4.4
		C51.3,92.6,51.4,93,51.5,93.5z"/>
	
		<linearGradient id="SVGID_1_" gradientUnits="userSpaceOnUse" x1="24.82" y1="123.82" x2="415.81" y2="123.82" gradientTransform="matrix(1 0 0 -1 0 238)">
		<stop  offset="0" style="stop-color:#EC2B3D"/>
		<stop  offset="1" style="stop-color:#A41D42"/>
	</linearGradient>
	<path class="st1" d="M92.2,200.9C65,173.9,43.3,140.7,26,99.3l-1.1-2.7l2.3-1.9c0.1-0.1,0.3-0.3,0.5-0.5l2.6-2.4
		c1.8-1.6,3.5-3.2,5.3-4.8c4.2-3.8,8.1-7.3,11.9-10.6c4.3-3.8,8.7-7.5,12.9-11.1l6.6-5.5V60c2.1-1.7,4.2-3.5,6.3-5.2
		C87.4,43.5,100.7,34,114,25.6l9.2-5.8l-3.2,10.4c-2.2,7.2-3.9,14.7-5.1,22.4l-0.6,4.4l-4.3-1.1c-0.3-0.1-0.6-0.1-0.8-0.1
		c-1.8,0-2.6,1.9-2.7,2.8c-0.2,1.6,0.4,2.6,2,3c21.6,5.8,44.3,8.6,69.4,8.6c12.8,0,26.1-0.7,40.8-2.2l3.6-0.4l3.4-0.4
		c0.9-0.1,1.8-0.2,2.8-0.3l3.5-0.4c23.4-3,47.2-7.4,70.2-11.6c20.4-3.8,41.4-7.7,62.1-10.5l4.6-0.6l0,4.6
		c-0.2,45.4-15,89.2-42.6,126.7l-0.9,1.2l-1.4,0.3c-41.5,9.6-82.2,15-120.9,16.1c-3.6,0.1-7.2,0.2-10.6,0.2
		c-39.7,0-71.8-7.1-98.1-21.7c-0.5-0.3-1-0.4-1.5-0.4c-1.4,0-2.6,1.4-3,2.7c-0.4,1.6,0.5,2.4,1.3,2.8c1.6,0.9,3.2,1.7,5.1,2.6
		l2.2,1.1l0,2.4c0.1,5,0.3,10.2,0.8,15.4l1,10.9L92.2,200.9z M371.1,208.1l3-4.3c27.8-40.1,40.7-73.4,41.6-108c0-0.2,0-0.3,0.1-0.4
		l0.2-1.5l-1-1.5c-0.4-0.6-0.9-1.3-1.3-1.9c-0.4-0.5-0.8-1.1-1.2-1.6l-0.5-0.7l0,0c-1.3-1.6-2.6-3.2-3.9-4.8l-6.5-7.9l-1,9.6
		c-3.3,33-16.7,67.2-41.1,104.6l-1.6,2.5l1.9,2.3c1.4,1.7,2.8,3.3,4.2,5c1.3,1.5,2.6,3.1,3.9,4.6L371.1,208.1z"/>
	<path class="st2" d="M378.6,40.4c0-0.9-0.2-1.7-0.5-2.4c-0.6-2.8-2.7-5-6.5-4.5c-81.6,10.5-164.9,38.7-247.2,21.7
		c1.6-12.7,5.7-26.6,11.1-38.2c1.2-1.5,1.4-3.4,1.1-5.2c-0.2-2-1.2-3.9-3.3-5c-0.7-0.4-1.4-0.6-2.2-0.7c-0.9-0.2-1.9-0.2-3,0
		c-0.1,0-0.1,0-0.2,0c-0.2,0-0.3,0.1-0.4,0.1c-0.7,0.2-1.4,0.5-2,1c-23.1,12.7-44.3,28.3-64.7,44.9c-9.6,7.8-19,15.9-28.2,24.2
		C26.3,81.9,16,88.4,15.3,97.1c-0.1,0.6-0.1,1.1,0,1.8c0,0,0,0.1,0,0.1c0,0.1,0,0.1,0,0.2c0.1,1.3,0.5,2.7,1.1,4.1c0,0,0,0,0,0
		c-3.4,0.9-6,3.9-4.3,8.1c8.8,21.5,19.5,42.1,33.2,60.9c13.9,19,30,36.1,47.4,51.9c3.8,3.5,8.8,1.7,11-1.7c0.1,0,0.2,0,0.3,0
		c3.4-0.1,7.5-3.1,7-7c-0.9-6.9-1.7-13.9-2.2-20.9c63.8,22,135.9,19.3,200.7,2c0,2.5,0,5,0,7.6c0,1.8,1.6,3.6,3.5,3.5
		c1.9-0.1,3.5-1.5,3.5-3.5c0-3.2,0-6.3,0-9.5c0.7-0.2,1.4-0.4,2.1-0.6c3.8-1.1,5.2-4.3,4.9-7.3c1.8-0.4,3.5-0.8,5.3-1.2
		c2.4-0.6,3.9-2,4.5-3.8c0-0.1,0.1-0.1,0.2-0.2C364,141.2,380.3,90.9,378.6,40.4z M33,94.8c1.8-1.6,3.5-3.2,5.3-4.8
		c3.9-3.6,7.9-7.1,11.9-10.6c4.2-3.7,8.5-7.4,12.8-11c0,7.3,0,14.6,0,21.8c0,2.2,3.5,2.2,3.5,0c0-8.2,0-16.5,0-24.7
		c3.1-2.6,6.2-5.1,9.3-7.7c12.9-10.3,26.3-20.1,40.3-28.9c-2.3,7.5-4.1,15.2-5.2,23.1c-8.6-2.1-12.2,11.1-3.6,13.4
		c37.2,9.9,74.4,10.3,111.6,6.5c0,2.7,0,5.5,0,8.2c0,1.8,1.6,3.6,3.5,3.5c1.9-0.1,3.5-1.5,3.5-3.5c0-3,0-6,0-9
		c0.9-0.1,1.9-0.2,2.8-0.3c-0.1,1.5-0.3,3-0.4,4.6c-0.1,0.9,0.9,1.8,1.8,1.7c1-0.1,1.7-0.8,1.8-1.7c0.1-1.7,0.3-3.3,0.4-5
		c44.2-5.6,88.4-16.1,132.4-22.2c-0.2,44.8-15.2,88.2-41.8,124.3c-39.4,9.1-79.7,14.8-120.1,16c-36.6,1.1-74.3-3.1-106.7-21.1
		c-7.9-4.4-14.9,7.7-7.1,12c1.7,0.9,3.4,1.8,5.2,2.7c0.1,5.2,0.3,10.5,0.8,15.7c-28.8-28.5-49.7-62.8-65.4-100.3
		c0.2-0.2,0.5-0.5,1-0.9C31.4,96.2,32.2,95.5,33,94.8z"/>
	<path d="M408.7,90.8C408.7,90.8,408.6,90.8,408.7,90.8C409.7,92.2,409,91.2,408.7,90.8z"/>
	<path d="M408.7,68.7C408.7,68.7,408.7,68.7,408.7,68.7C407.6,67.3,408.4,68.4,408.7,68.7z"/>
	<path class="st2" d="M425.6,95.6c0-0.9-0.1-1.6-0.3-2.3c0.3-1.5,0.1-3.1-0.9-4.4c-3.2-4.8-6.9-9.2-10.5-13.7
		c-1.7-2.1-3.5-4.2-5.2-6.4c0,0.1,0.1,0.1,0.1,0.2c-0.2-0.2-0.4-0.5-0.6-0.7c-0.4-0.5-0.8-1-1.2-1.6c-0.7-1-1.4-1.9-2.1-3
		c-2-3-6.3-4.6-9.6-2.5c-0.5,0.3-0.9,0.7-1.3,1.1c-1.7,1.1-2.9,2.9-2.9,5.6c0,0.6,0,1.2,0,1.8c-2.9,0.6-5.6,2.7-5.8,6.5
		c-2.5,41.1-21.6,77.5-43.9,111.3c-0.1,0.1-0.1,0.3-0.2,0.4c-2.5,2.1-3.7,6-1.7,8.9c5.3,7.6,11.2,14.7,17.9,21.1
		c2.5,2.4,6.7,2.7,9.4,0.5c1.2,1,3,1.5,4.4,1.5c1.7,0,3.8-0.8,5-2c0.4-0.4,0.7-0.8,0.9-1.2c0-0.1,0.1-0.1,0.1-0.2
		C403.3,180.5,424.5,140.9,425.6,95.6z M408.6,90.8c0-0.1-0.1-0.1-0.1-0.2c0.2,0.2,0.4,0.5,0.6,0.7c0.4,0.5,0.8,1,1.2,1.6
		c0.5,0.7,1,1.4,1.4,2.1c0,0.2-0.1,0.4-0.1,0.7c-1,39.5-18.8,74.2-40.9,105.9c-2.7-3.2-5.4-6.4-8.1-9.6
		c21.2-32.5,37.9-67.9,41.8-106.4C405.8,87.3,407.2,89,408.6,90.8z"/>
	<path class="st3" d="M51,119.9c1.3,2.4,4.8,3.4,7.2,1.9c2.4-1.6,3.3-4.6,1.9-7.1c-2.7-4.8-5.4-9.6-8.2-14.3
		c-1.3-2.4-4.8-3.4-7.2-1.9c-2.4,1.6-3.3,4.6-1.9,7.2C45.6,110.3,48.3,115.1,51,119.9z"/>
	<circle class="st3" cx="63.7" cy="131.3" r="5.7"/>
	<g>
		<path class="st2" d="M313.2,91h-4.7L262,98.8c-0.2-3.3-1.9-10.5-12.3-13.1l-2.2-0.5l-2.1,0.7c-1.9,0.6-6,1.8-8.2,4.9
			c-0.6,0.7-1.1,1.5-1.6,2.4c-3.2-2.4-6.7-2.7-8.2-2.7c-5.7,0-10.5,3.4-14.3,10.1c-2.6,3.9-6.7,8.6-12.1,14l-6.7-7.4
			c-5.8-7.7-10.1-12.4-14.1-15c0-0.2,0-0.5,0-0.7v-2.5l-0.4-1.2c-2.1-6.7-7.6-10.6-14.5-10.6h-3.1c-8.2,0-21.5,1.4-40.6,4.4
			l-3.3-0.5h-0.6c-5.5,0-12.8,2.8-16.9,15.8l-0.6,2l2.7,13.4c1.4,21.2,2.7,34.9,4,42.1l0.1,0.4l0.1,0.4
			c3.6,12.2,13.3,18.9,27.2,18.9h0.7l4.7-0.8l0.4-0.1c5.5-1.5,13.7-4.7,25-9.6l3.3,2.4c2.1,3,5.6,5.1,10.1,6.1l2,0.4l2-0.6
			c2.9-0.9,5.1-1.9,6.8-3.3l0.8-0.7l0.6-0.8c3.8-5.2,6.8-8.9,9.1-11.5l2.9,2.9c11,12.6,15.5,15,19.9,15h0.6c4.6,0,8.4-1.8,11-5.1
			c3.6,4.4,6.5,5.1,10.7,5.1c3.5-0.1,8-2.7,8-2.7c4.5-2.8,6.2-7.4,6.2-11.5v-0.6l-0.1-0.6c-1.4-8.7-2.1-15.4-2.1-20V135
			c0-2,0.2-4.2,0.5-6.6l11.9-1.7c1.1,5.1,3.1,12.9,6.6,25.3c1,5.8,4.1,21.5,16.6,21.5h0.5l0.5-0.1c10-1.2,13.6-7.9,13.6-13.9v-1.4
			l-0.3-1c-5.1-19.4-7.8-29.8-9.1-35.5c6.1-1.3,11.9-2,17.3-2c6.7,0,12-4.3,14-11.5l0.3-1.1v-1.1C329.3,97,323,91,313.2,91z
			 M158.2,136c-17.4,7.4-22.6,9.2-24.1,9.6c-0.3-1.8-0.7-4.5-1-8.9c3.8-1,10.6-2.6,22.5-4.9c3.5-0.2,9.9-1.8,13.6-10
			c1.6,1.8,4.2,4.8,8.5,9.9c-0.6-0.2-1.1-0.4-1.8-0.6l-2.4-0.7l-15.2,5.5L158.2,136z M221.7,134.2c0,0.8,0.1,1.9,0.4,3.2
			c-0.6-0.6-1.1-1.2-1.7-1.8C220.8,135.1,221.2,134.7,221.7,134.2z"/>
		<path class="st3" d="M183.1,141.5c0-3.1-2.1-5.2-6.3-6.3l-12.6,4.5c-15.9,6.8-24.8,10.2-26.7,10.2h-3.4l-2.4-0.6
			c-1.9,0-3.3-7.3-4.1-21.9c2.8-1.4,12.8-3.8,30-7.2c3.6,0,6.2-2.2,7.8-6.6c0-2.9-2.3-4.9-6.9-6c-13.3,2.6-23.8,4.9-31.2,6.9
			c-0.4,0-1.3-5.3-2.7-15.9c17.9-3.2,32.4-4.8,43.6-4.8c4.6-0.4,6.9-2.4,6.9-5.9v-1.2c-1.1-3.4-3.4-5.1-6.9-5.1H165
			c-7.9,0-21.4,1.5-40.6,4.4l-3.9-0.6c-4.1,0-7.2,3.4-9.3,10.2l2.4,11.9c1.4,21,2.7,34.9,3.9,41.8c2.6,8.8,9.1,13.2,19.5,13.2
			l3.6-0.6c5.6-1.6,14.8-5.2,27.7-10.8C178.2,148.6,183.1,145.4,183.1,141.5z"/>
		<path class="st3" d="M212.4,132.3v-0.6c16-16.5,24.1-26.6,24.1-30.3c-0.9-4.4-3-6.6-6.2-6.6c-2.7,0-5.2,2.1-7.5,6.2
			c-3.9,5.8-10.3,12.9-19.4,21.2l-12.5-13.8c-7.1-9.6-12.1-14.4-15-14.4c-3.6,0-5.8,2.2-6.6,6.6c1.7,5.8,3.6,8.8,5.6,8.8
			c0.5,0.1,6.8,7.3,18.8,21.6c-11.2,12.7-16.9,20.5-17.2,23.4h0.3c0,3.3,2.1,5.4,6.2,6.2c1.9-0.6,3.2-1.2,4.1-1.9
			c6.3-8.6,11.5-14.7,15.6-18.1l8.8,8.8c7.2,8.3,11.9,12.5,14.1,12.5h0.6c3.6,0,5.7-2.1,6.2-6.2l-0.3-2.2
			C232.1,153.1,225.5,146,212.4,132.3z"/>
		<path class="st3" d="M251.8,131.4c0-3.6,0.4-7.6,1.2-11.9c-1.2-4-3.3-5.9-6.2-5.9l-2.2,0.3c-1.8,0.1-3.9,3-6.2,8.8
			c-4,2.8-5.9,5.3-5.9,7.5v0.3c0,3.2,2.1,5.2,6.2,5.9l1.6,13.1c0.6,8.3,3.1,12.5,7.5,12.5v-0.3c4.2-0.6,6.2-2.6,6.2-5.9
			c-1.5-9.2-2.2-16.2-2.2-21.2L251.8,131.4L251.8,131.4z"/>
		<path class="st3" d="M316,95.4h-4.1l-48.8,8.1c-3.1,0-5.6,0.3-7.6,0.9c0.5-2.2,0.9-4.9,1.2-8.4c0-3.1-2.1-5.2-6.2-6.2
			c-2.7,0.8-4.1,1.6-4.1,2.2c-1.6,1.1-2.9,5.4-3.8,12.8h0.3c0,3.3,2.1,5.4,6.2,6.2c0.3-0.1,0.5-0.1,0.7-0.2c0.9,4.3,2.9,6.4,6.2,6.4
			l22.5-3.1c0,3.2,2.6,14,7.8,32.5c1.8,10.2,4.7,15.3,8.8,15.3c4.4-0.5,6.6-2.5,6.6-5.9v-0.3c-7.1-26.7-10.6-41.2-10.6-43.4
			c9.4-2.7,18.3-4.1,26.6-4.1c3.1,0,5.2-1.9,6.2-5.6C324.1,97.8,321.4,95.4,316,95.4z"/>
	</g>
</g>
</svg>
