<?xml version="1.0" encoding="utf-8"?>
<!-- Generator: Adobe Illustrator 25.2.0, SVG Export Plug-In . SVG Version: 6.00 Build 0)  -->
<svg version="1.1" id="Layer_1" xmlns="http://www.w3.org/2000/svg" xmlns:xlink="http://www.w3.org/1999/xlink" x="0px" y="0px"
	 viewBox="0 0 173 162" style="enable-background:new 0 0 173 162;" xml:space="preserve">
<style type="text/css">
	.st0{fill:#BCBEC0;}
	.st1{fill:url(#SVGID_1_);}
	.st2{fill:#FFFFFF;}
	.st3{fill:#020202;}
</style>
<g>
	<path class="st0" d="M50.5,162c-2.4,0-4.9-0.1-7.3-0.2c-3.2-0.2-6.1-1.4-8.3-3.4c-0.2,0-0.4,0-0.6,0c-4,0-7.9-1.7-10.8-4.7
		c-2.8-2.9-4.2-6.6-4-10.4c0.6-11.4,1.5-23.2,2.8-35.3c-1.8,1.4-4.1,2.2-6.6,2.2c-0.8,0-1.5-0.1-2.3-0.2c-5.3-1.2-8.6-6.2-7.7-11.7
		c0.1-0.8,0.2-1.8,0.3-2.7c-2.5-1.9-4.5-4.5-5.5-7.6c-1.6-5.2-0.2-10.6,4-14.4c25-23.2,50.9-45.5,77.2-66.3c3-2.3,6.5-3.6,10-3.6
		c3.5,0,6.8,1.3,9.5,3.6c0.6-1.4,1.4-2.7,2.4-3.8c2.2-2.3,5.4-3.7,8.6-3.7h20.2c6.3,0,11.5,5,11.8,11.4c0.1,2.5-0.7,5.1-2.2,7.1
		c0.4,0.8,0.8,1.6,1,2.5c0,0.1,0.1,0.2,0.1,0.4c0.7,0.6,1.4,1.2,2,2c2.2,2.6,3.2,5.8,2.9,9c-0.3,3.4-0.6,7.4-0.6,11.3
		c0,2.4,0.1,4.9,0.3,7.2c6.7,6.3,13.4,12.8,19.9,19l0.9,0.9c5.7,5.5,5.8,14.6,0.3,20.5c-0.7,0.8-1.5,1.4-2.4,2
		c-2.4,3.6-6.6,6.1-11,6.1h-4.7c-0.7,0.9-1.6,1.7-2.6,2.4c-0.3,0.2-0.6,0.3-0.9,0.5L146,147c-0.1,4.4-2.4,8.3-6,10.5
		c-2.4,1.9-5.3,3-8.3,3h-26.5c-4.8,0-9-2.5-11.2-6.5c-3.7-2.6-6.1-6.9-6.3-11.6c-0.1-1.2,0.1-2.3,0.3-3.5c0-1,0-1.9,0.1-2.9
		c-1.8-0.5-3.4-1.5-4.7-2.8c-0.6-0.6-1-1.2-1.4-1.9L80.9,148c-0.4,6.8-5.7,12.1-12.2,12.5c-0.9,0.3-1.8,0.4-2.9,0.6
		C60.8,161.7,55.6,162,50.5,162z"/>
	
		<linearGradient id="SVGID_1_" gradientUnits="userSpaceOnUse" x1="14.79" y1="85.08" x2="157.49" y2="85.08" gradientTransform="matrix(1 0 0 -1 0 164)">
		<stop  offset="0" style="stop-color:#EC2B3D"/>
		<stop  offset="1" style="stop-color:#A41D42"/>
	</linearGradient>
	<path class="st1" d="M36.8,134.1c1-16.5,2.7-33.3,4.9-50.1l0,0c0,0,0-0.1-0.1-0.3l-0.5-1.4l0.1-0.3l-1.1,0.1l-0.7-0.2
		c-0.3-0.1-0.5-0.1-0.5-0.1c-0.4,0-0.8,0.1-1.1,0.2l-0.7,0.3l-10.4,1.1l-12.1,1.3l9-8.2C44.7,57.5,66.3,39,88,21.7l2.8-2.2l2.5,2.5
		c4.8,4.6,8.7,8.3,12.3,11.7c0.5,0.5,1.2,0.8,1.9,0.8l2.8,0.1c0-0.7-0.1-1.3-0.1-2l0-0.2c0,0,0-0.4,0.1-0.5l-0.1-0.5v-0.2
		c0-1,0-2.1,0.1-3.2c0.1-1.1,0.2-2.3,0.3-3.7l0.3-3.4l3.5-0.2c3.1-0.1,6.3-0.2,9.6-0.2c1.5,0,3.1,0,4.6,0l4.1,0.1l-0.2,4.1
		c-0.5,10.7-0.6,20.6-0.5,30.3v0.4l-0.1,0.4c-0.1,0.5-0.2,1.5,0.6,2.2c6.1,5.6,12.1,11.4,17.3,16.4l7.8,7.6l-10.9-0.7
		c-3.1-0.2-6.2-0.3-9.3-0.3c-1.9,0-3.8,0-5.6,0.1l-0.4,0l-0.4-0.1c-0.2,0-0.3,0-0.5,0c-0.3,0-0.6,0-0.9,0.1l-0.3,0.1l-0.3,0
		c-0.2,0-0.3,0-0.5,0l-0.1,0.3l-0.4,0.7c-0.2,0.4-0.4,0.8-0.4,1.4c-0.5,15.8-0.7,32-0.7,49.4v4l-28.6-0.1l0.1-4.1
		c0.1-4.2,0.1-8.4,0.2-12.6c0.1-4.9,0.2-9.9,0.2-14.8l0-0.7l0.2-0.6c0.1-0.3,0.1-0.5,0.1-0.7c0-0.2-0.1-0.5-0.2-0.8l-0.2-0.6l0-0.8
		l-0.3,0l-1-0.4c-0.3-0.2-0.7-0.2-1.1-0.2c-0.7,0-1.5,0-2.2,0c-3.7,0-7.3,0-11,0.1c-3.7,0-7.4,0.1-11.1,0.1c-0.8,0-1.5,0-2.2,0
		c-0.7,0-1.4,0.3-2,0.9c-0.4,0.4-0.7,1-0.7,1.5c0,0.1,0,0.2,0.1,0.3l0.2,1.2l-0.5,1.1c-0.1,0.1-0.1,0.2-0.1,0.2
		c-1.1,8.8-1.5,17.5-1.9,27.9l-0.2,4.3c0,0-4.5-0.5-4.6-0.5c-5.7,0.4-11.9,0.6-19,0.7l-4.3,0.1L36.8,134.1z"/>
	<ellipse class="st2" cx="57.3" cy="63.9" rx="4.5" ry="4.5"/>
	<path class="st2" d="M99.6,41c-0.2-0.7-0.6-1.4-1.1-1.9c-1.4-1.2-2.8-2.3-4.2-3.5c-0.4-0.4-0.9-0.7-1.4-0.9
		c-0.2-0.1-0.3-0.1-0.5-0.2c-1.8-1.4-4-1.2-5.8,0.2c-7.4,5.7-14.7,11.4-22.1,17.2c-1.8,1.4-1.6,4.7,0,6.1c1.9,1.7,4.2,1.5,6.2,0
		c6.4-5,12.8-9.9,19.2-14.9c0.8,0.7,1.7,1.4,2.5,2.1c0.4,0.4,0.9,0.7,1.4,0.9c0.5,0.3,1.1,0.4,1.7,0.4c0.6,0,1.2-0.1,1.7-0.4
		c0.5-0.2,1-0.5,1.4-0.9c0.2-0.3,0.4-0.6,0.7-0.9c0.4-0.7,0.6-1.4,0.6-2.2C99.7,41.7,99.6,41.4,99.6,41z"/>
	<path class="st3" d="M162.5,73.8c-7.6-7.3-15.1-14.7-22.9-21.9c-0.3-3.6-0.6-7.3-0.6-10.9c0-4,0.3-8.1,0.7-12.1
		c0.2-2.5-2.2-4.8-4.6-5c0-0.6,0-1.1,0.1-1.7c0-0.6-0.1-1.1-0.3-1.5c-0.3-1.6-1.5-2.9-3.2-2.9c-6.3-0.2-12.6-0.2-18.9,0.2
		c-0.4-0.1-0.8-0.2-1.1-0.2c-0.9,0-1.8,0.3-2.4,1c-0.6,0.7-0.9,1.4-1,2.4c-0.1,0.6-0.1,1.2-0.2,1.9c-3.4-3.2-6.8-6.4-10.1-9.6
		c-0.3-0.3-0.7-0.6-1.1-0.8c-0.3-0.6-0.6-1.1-1.1-1.5c-2.8-2.8-6.6-2.2-9.5,0C59.8,32,34.3,53.9,9.6,76.9
		c-4.6,4.3-0.7,10.5,4.1,11.2c0,1.1,0.1,2.2,0,3.3c-0.1,2-0.3,3.9-0.6,5.6c-0.2,1.1,0.3,2.4,1.5,2.7c1,0.2,2.5-0.3,2.7-1.5
		c0.6-3.7,0.8-7.4,0.7-11.1c4.7-0.5,9.4-1,14.1-1.5c-2.5,18.4-4.2,37-5.2,55.5c-0.2,3.6,3.2,6.7,6.7,6.7c0.3,0,0.6-0.1,0.9-0.1
		c1.2,0,2.5,0,3.7-0.1c0.7,2,2.4,3.4,4.7,3.6c7.1,0.4,14.2,0.2,21.3-0.6c0.9-0.1,1.7-0.3,2.4-0.7c0.2,0,0.4,0.1,0.6,0.1
		c2.8,0,4.9-2.3,5-5c0.6-11.6,1.2-23.3,1.9-34.9c4.8,0,9.6,0,14.4-0.1c-0.2,4.6-0.5,9.2-0.7,13.8c-0.1,1.2,1,2.2,2.2,2.2
		c1.2,0,2.1-1,2.2-2.2c0.2-4.6,0.5-9.2,0.7-13.8c0.9,0,1.8,0,2.8,0c-0.1,9.2-0.3,18.4-0.4,27.6c-0.2,0.6-0.3,1.3-0.3,2
		c0.1,2.9,2,5.4,4.6,6.3c0.5,2.3,2.4,4.1,4.9,4.1c8.8,0,17.7,0,26.5,0c1.4,0,2.7-0.6,3.6-1.6c1.5-0.7,2.6-2.1,2.7-4.2
		c0.5-17.9,1.1-35.8,1.6-53.7c0.2,0.5,0.5,0.9,0.8,1.3c0.2,0.2,0.5,0.4,0.8,0.6c0.3,0.2,0.6,0.3,1,0.4c0.6,0.1,1.2,0.1,1.7-0.2
		c0.5-0.3,0.9-0.7,1-1.3c0.2-0.8,0.4-1.6,0.7-2.4c3.4,0,6.7,0,10.1,0c2.3,0,4.5-1.7,4.9-3.9c1-0.3,1.9-0.8,2.6-1.6
		C164.9,80.6,165.2,76.4,162.5,73.8z M90.5,24.8c4.1,3.9,8.2,7.9,12.3,11.7c1.2,1.1,2.8,1.8,4.5,1.9c0,1.5,0,2.9,0,4.3
		c0,1.1,1,2.2,2.2,2.2c1.2,0,2.2-1,2.2-2.2c0-1.5,0-3,0-4.4c1.5-0.4,2.7-1.6,2.6-3.2c-0.1-0.9-0.1-1.8-0.1-2.7
		c0-0.2,0.1-0.5,0.1-0.7c0-0.2-0.1-0.4-0.1-0.7c0-1,0-2,0-3c0.1-1.2,0.2-2.4,0.3-3.5c4.6-0.2,9.3-0.3,13.9-0.2
		c-0.4,10.2-0.6,20.4-0.5,30.5c-0.4,2.1,0.1,4.3,1.8,5.9c5.8,5.4,11.5,10.9,17.2,16.4c-5.1-0.3-10.2-0.4-15.4-0.2
		c-1-0.2-2-0.1-3,0.1c-0.3,0-0.6,0-0.9,0c-1.6,0.1-3,1.2-3.2,2.8c-0.6,0.9-1,2-1,3.3c-0.5,16.5-0.7,33-0.7,49.5
		c-6.8,0-13.7,0-20.5-0.1c0.2-9.1,0.3-18.3,0.4-27.4c0.2-0.7,0.4-1.4,0.4-2.2c0-0.6-0.2-1.2-0.3-1.7c0-0.4,0-0.8,0-1.2
		c0.1-2.3-1.9-3.4-3.7-3.1c-0.8-0.4-1.7-0.6-2.7-0.6c-8.9,0-17.7,0.2-26.6,0.2c-3.5,0-6.9,3.1-6.7,6.7c0,0.2,0,0.4,0.1,0.6
		c-0.2,0.4-0.4,0.9-0.5,1.4c-1.1,9.4-1.5,18.8-1.9,28.3c-0.3,0-0.6-0.1-0.9-0.1c-6.3,0.4-12.6,0.6-18.9,0.7
		c1-16.7,2.7-33.3,4.9-49.8c0.1-0.7,0-1.4-0.2-2c0.2-0.4,0.3-0.8,0.3-1.3c0-1.7-1.5-3.5-3.3-3.3c-0.6,0.1-1.3,0.1-1.9,0.2
		c-0.5-0.1-1-0.2-1.5-0.2c-1.1,0-2.1,0.3-2.9,0.7c-3.2,0.3-6.5,0.7-9.7,1C47.2,60.6,68.5,42.3,90.5,24.8z M111.8,12.9
		c-2.1,0-3.7-1.7-3.8-3.7c-0.1-2,1.8-3.7,3.8-3.7c6.7,0,13.4,0,20.1,0c2.1,0,3.7,1.7,3.8,3.7c0.1,2-1.8,3.7-3.8,3.7
		C125.2,12.9,118.5,12.9,111.8,12.9L111.8,12.9z M111.8,12.9c-2.1,0-3.7-1.7-3.8-3.7c-0.1-2,1.8-3.7,3.8-3.7c6.7,0,13.4,0,20.1,0
		c2.1,0,3.7,1.7,3.8,3.7c0.1,2-1.8,3.7-3.8,3.7C125.2,12.9,118.5,12.9,111.8,12.9L111.8,12.9z"/>
</g>
</svg>
