<?xml version="1.0" encoding="utf-8"?>
<!-- Generator: Adobe Illustrator 25.2.0, SVG Export Plug-In . SVG Version: 6.00 Build 0)  -->
<svg version="1.1" id="Layer_1" xmlns="http://www.w3.org/2000/svg" xmlns:xlink="http://www.w3.org/1999/xlink" x="0px" y="0px"
	 viewBox="0 0 430 236" style="enable-background:new 0 0 430 236;" xml:space="preserve">
<style type="text/css">
	.st0{fill:#BCBEC0;}
	.st1{fill:url(#SVGID_1_);}
	.st2{fill:#020202;}
	.st3{fill:#FFFFFF;}
</style>
<g>
	<path class="st0" d="M428.1,117.3c-20.9-36.9-47.8-74.7-80-112.3c-2.8-3.2-6.5-5-10.5-5C331,0,325,4.9,323.2,11.3
		c-0.6,1.4-1,2.9-1.1,4.4l-1.8,22.7c-33.5-8.8-68.3-13.2-103.6-13.2c-31.4,0-62.7,3.6-92.9,10.6C103.7,40.5,83.3,47,63.1,55.3
		c-6.1,2.5-9.3,8.1-8.4,14.1c-2.7-2.7-6.3-4.3-10.5-4.4h-0.1c-0.3,0-0.6,0-0.8,0c-0.1,0-0.1,0-0.2,0c-2.5,0-4.9,0.6-7.1,1.7
		c-7.6,3.9-16.4,8.6-24.1,14.7c-3.1,2.4-5.1,6.7-5.1,10.8c0,0.4,0,0.9,0.1,1.4c-0.2,1.1-0.2,2.2-0.1,3.4c-4.9,3-7.5,8.6-6.6,15
		l15.9,105c1.1,7.4,8.5,11.4,14.8,11.4c1.2,0,2.4-0.1,3.5-0.4c0.9-0.2,1.7-0.6,2.2-0.8c0.5-0.1,0.9-0.3,1.3-0.5l21.5-9.1
		c3.8-1.6,6.3-5,7.4-7.9c0.2-0.1,0.5-0.2,0.7-0.3c2.9-1.3,5.3-3.7,6.8-6.7c2.4,1.9,5.4,3,8.8,3c0.9,0,1.8-0.1,2.6-0.2
		c1.4,0.5,3,0.8,4.6,0.8c1.7,0,3.4-0.3,5.1-0.9c44.2-15.5,90.7-23.3,138-23.3c21.1,0,42.1,1.6,62.8,4.8c-0.6,10.9-0.5,21.6,0.1,32.1
		c0.1,1,0.2,1.9,0.5,2.9c0.1,3.4,1.5,6.7,3.9,9.4c2.8,3,6.6,4.8,10.6,4.8c2.7,0,5.4-0.8,7.9-2.3c5.3-3.3,10.6-6.8,15.8-10.3
		c2.1,1.7,4.7,2.6,7.3,2.6c0.1,0,0.3,0,0.4,0c5.9-0.2,10.4-4.4,11.1-10.2l0.8-6.6c21.5-16.4,41.1-34.3,58.5-53.5
		c3.1-3.4,4.3-7.9,3.5-12.1c3.3-3.2,6.3-6.1,9.2-9c2.5-2.5,4-5.6,4.2-8.9C430.2,122.8,429.6,119.9,428.1,117.3z"/>
	
		<linearGradient id="SVGID_1_" gradientUnits="userSpaceOnUse" x1="25.63" y1="129.225" x2="413.79" y2="129.225" gradientTransform="matrix(1 0 0 -1 0 238)">
		<stop  offset="0" style="stop-color:#1A7C58"/>
		<stop  offset="1" style="stop-color:#4FC2BC"/>
	</linearGradient>
	<path class="st1" d="M321.7,164.4l4.5,0.8c0.8,0.1,1.6,0.3,2.4,0.4c1.4,0.2,2.8,0.5,4.2,0.8c0.3,0.1,0.6,0.1,0.9,0.1
		c2,0,2.9-1.6,3-2.6c0.1-0.7-0.1-1.5-1.8-1.8c-30.4-6.1-61.6-9.3-92.9-9.3c-49,0-97.1,7.5-143,22.3l-4.4,1.4l-0.8-4.6
		c-2.9-16.9-6-34-9.1-50.6c-3.1-17.1-6.4-34.7-9.3-52.1l-0.6-3.2l3.5-1.4c2-0.8,4-1.6,5.9-2.3l0.9-0.3v0l1.2-0.4l3.3-1.2v0
		c40.7-14.4,85.5-22.1,129.6-22.1c22,0,43.9,1.8,65.3,5.5c13.9,2.4,28,5.6,41.8,9.6v0l0.6,0.2c0.4,0.1,3.9,1.2,3.9,1.2v0
		c0,0,0.8,0.2,0.8,0.2v0l2.5,0.8l2,0.6v0l0.6,0.2c0.8,0.2,1.5,0.5,2.3,0.7c1.4,0.4,2.7,0.8,4.1,1.3c0.4,0.1,0.8,0.2,1.1,0.2
		c1.6,0,1.9-1.7,1.9-1.9c0.1-0.8,0-2.2-1.9-2.9c-0.9-0.3-1.9-0.6-2.8-0.9c-0.7-0.2-1.3-0.4-2-0.6l-3-1l2.8-36.1l6.3,7.6
		c25.8,31.1,48.2,63.1,66.6,94.9l1.5,2.7l-2.2,2.2c-31.2,30.8-58.4,54.3-85.4,74.2l-6.9,5.1L321.7,164.4z M40.9,201.5l5.1-2.7
		c3.5-1.9,7.3-3.7,11.1-5.5L60,192l-0.6-3.1c0-0.1,0-0.2-0.1-0.4c-2.8-18.9-5.5-38.2-8.1-56.9c-2.2-15.2-4.4-31-6.6-46.5l-0.8-5.7
		l-5.1,2.8c-4,2.2-7.5,4.3-10.5,6.4l-2.5,1.7l0.9,2.9c0,0.1,0.1,0.3,0.1,0.4L40.9,201.5z"/>
	<path class="st2" d="M334.1,68.4h-4.8c0,0-50.7,7.7-50.7,7.7c-2.5-5.3-7.1-8.3-12.9-8.3c-3.9,0-9.5,1.7-14.4,9.5
		c-2.8,3.8-7.2,8.4-13.1,13.7l-7.4-7.5c-9.6-11.7-15.6-16.3-21.5-16.3c-5.3,0-9.5,2.3-12.1,6.3c-6-4.2-12.1-6.3-18.3-6.3
		c-4.9,0-9.5,1-13.9,3.1c-3.7-6-9.6-6.6-11.9-6.6h-0.8l-0.8,0.2c-11.6,2.4-12.9,10-12.9,13.2c0,5.1,0.3,10.6,0.8,16.6
		c-12.1-6.2-21-10.5-27.1-13.1c-5.3-3.2-8.5-4.4-11.4-4.4c-3.5,0-11.9,1.3-14.9,13.2l-0.5,1.9l1.1,4.6l0.5,2.3l1.8,1.7
		c0.6,0.6,3.9,4.5,14.6,27.5c1.8,4.8,6.3,16.5,16.5,16.5h0.3c7.3,0,12.8-4.4,14.9-11.8l0.3-1v-1.1c0-1.3,0-2.3-2.3-7.5l3.4,1.7
		c3.5,2.2,6.5,4,8.9,5.3c6.5,11.9,17.2,18.2,31.2,18.2c7.4,0,15-1.9,22.6-5.6c1.1-0.5,2.1-1.1,3.2-1.6h2.5c1.9,2.5,5,4.8,10.3,5.8
		l1.9,0.4l1.8-0.5c3-0.8,5.1-1.8,6.8-3.1l0.8-0.6l0.6-0.8c3.7-4.7,7.1-8.5,9.9-11.4l3.5,3.2c11.3,11.9,15.8,14.1,20.2,14.1h0.6
		c7.8,0,13.3-4.9,14.4-12.9l0.2-1.2l-0.4-2.8c-0.2-3.1-1.9-4.8-7.5-10.3c-2.4-2.3-5.6-5.5-9.7-9.4c2.8-2.7,5.2-5.1,7.4-7.3
		c1.9,0.9,4,1.4,6.2,1.4h0.5l16.4-2.1c1.2,4.9,3.3,12.3,6.9,23.9c2.8,13.7,8.4,20.6,16.9,20.6h0.4l0.4-0.1c10.3-1.1,14-7.8,14-13.6
		v-1.4l-0.3-1.1c-5.1-17.7-7.8-27.5-9.2-33c6.4-1.2,12.4-1.9,18.1-1.9c6.8,0,12-4.1,14.1-11l0.4-1.1v-1.2
		C350.6,76.4,346.2,68.4,334.1,68.4z"/>
	<path class="st3" d="M220,114.2c-0.6-4-2.6-5.9-5.8-5.9l-2.9,0.3c-11.7,9.3-21.9,14.3-30.5,14.8h-1.6l-4.5-0.6
		c-3.9-1.7-6.6-4.1-8.1-7.2c0.3-0.7,0.5-1.3,0.5-2v-1.8c-0.3-1.3-0.5-2.5-0.7-3.8c4.8,1.3,9,2,12.6,2c12.1,0,20.3-1.9,24.7-5.6
		c2.6-3.4,4.2-6.7,4.5-10.1c0-3.4-1.7-7.3-5.2-11.9c-7.2-7.5-14.2-11.3-21.1-11.3c-4.6,0-8.9,1.2-13,3.6c-2.1,1.5-4,3-5.7,4.6
		c-0.2-7.8-2.5-11.8-7.1-11.8c-4.3,0.9-6.5,2.7-6.5,5.3c0,8.2,0.7,17.6,2.1,28.2c-0.1,0.7-0.1,1.4-0.1,2.1H151
		c-18.7-9.8-31.9-16.4-39.6-19.6c-3.9-2.4-6.5-3.6-7.8-3.6c-3.6,0-5.9,2.4-7.1,7.1l0.7,2.7c2.8,2.6,8.3,12.7,16.5,30.3
		c2.9,7.7,5.9,11.6,9.1,11.6h0.3c3.7,0,6.1-2,7.1-5.9c0-1-3.7-8.9-11-23.7v-1.2l24,12.1c4.7,2.9,8.4,5.1,11,6.5
		c5,10.7,13.4,16.1,25.2,16.1c6.2,0,12.6-1.6,19.1-4.8C212.8,123.9,220,118.3,220,114.2z M181,83.3l2.6,0.3
		c7.1,3.5,10.7,6.9,10.7,10.4v0.9c0,2-5,3-14.9,3c-5.7,0-9.7-1.1-12-3.3C171.1,87.1,175.6,83.3,181,83.3z"/>
	<path class="st3" d="M337,72.3h-4.2l-50.6,7.7c-3.4,0-6.1,0.3-8.2,0.9c0.7-1.2,1.1-2.3,1.1-3c-0.9-4.2-3.1-6.2-6.5-6.2
		c-2.8,0-5.4,2-7.8,5.9c-4,5.5-10.7,12.3-20.1,20.2l-13-13.1c-7.4-9.1-12.6-13.7-15.6-13.7c-3.7,0-6,2.1-6.8,6.2
		c1.8,5.5,3.7,8.3,5.8,8.3c0.5,0.1,7,6.9,19.5,20.5c-11.6,12.1-17.6,19.5-17.9,22.3h0.3c0,3.1,2.2,5.1,6.5,5.9
		c1.9-0.5,3.4-1.1,4.2-1.8c6.6-8.2,11.9-13.9,16.2-17.2l9.1,8.3c7.5,7.9,12.4,11.9,14.6,11.9h0.6c3.8,0,6-2,6.5-5.9l-0.3-2.1
		c0-0.4-6.8-7.2-20.4-20.2v-0.6c8.3-7.8,14.6-14.1,18.7-18.9c1,3.4,3,5.3,6.2,5.3l23.4-3c0,3,2.7,13.3,8.1,30.9
		c1.9,9.7,4.9,14.5,9.1,14.5c4.5-0.5,6.8-2.4,6.8-5.6v-0.3c-7.4-25.4-11-39.1-11-41.2c9.8-2.6,19-3.9,27.6-3.9
		c3.2,0,5.4-1.8,6.5-5.3C345.4,74.6,342.6,72.3,337,72.3z"/>
	<path class="st2" d="M424,121.5c0.2-1.2,0-2.4-0.8-3.7c-22.2-39.2-49.4-76.3-79.1-111c-4.1-4.8-10.5-1-11.3,3.8
		c-0.4,0.7-0.7,1.5-0.8,2.4c-0.8,10.8-1.7,21.6-2.5,32.4c-65.1-18.8-135.7-20.5-201.9-5.1C107.3,45,87.4,51.4,68.2,59.3
		C64.7,60.7,64,63.5,65,66c0,0.2,0,0.3,0,0.5c0.5,3,1,5.9,1.6,8.9c-2.9,0.7-5.7,3.2-5.3,6.1c5.3,36.2,11.3,72.3,18.1,108.3
		c0.9,4.6,5.7,5.4,9.3,3.8c1.5,1.2,3.6,1.8,6.1,0.9c67.3-23.5,141.1-29.9,211.9-17.7c-1,12.8-1.2,25.6-0.4,38.4
		c0,0.8,0.2,1.5,0.5,2.1c-0.5,4.7,4.6,9.6,10,6.3c8.4-5.2,16.5-10.7,24.5-16.4c-0.2,1.4-0.3,2.9-0.5,4.4c-0.2,1.6,1.7,3.2,3.5,3.2
		c2-0.1,3.2-1.4,3.5-3.2c0.4-3.3,0.8-6.7,1.2-10c21.9-16.4,42-34.6,60.1-54.5c2.6-2.9,1.9-6.3-0.1-8.6c4.4-4.2,8.8-8.5,13.1-12.8
		C423.4,124.2,423.9,122.9,424,121.5z M283.9,47.8c14.6,2.5,28.9,5.8,43,10c0,3.3,0,6.5,0,9.8c0,2,3.5,2,3.5,0c0-2.9,0-5.8,0-8.8
		c0.6,0.2,1.2,0.4,1.8,0.6c-0.1,5.4-0.4,10.8-1,16.2c-0.1,0.8,0.9,1.6,1.7,1.6c1,0,1.6-0.7,1.7-1.6c0.6-5,0.9-10.1,1-15.2
		c2.1,0.7,4.2,1.3,6.3,2c8.4,2.8,12-9.4,3.7-12.2c-1.6-0.5-3.2-1-4.8-1.5c0.6-7.7,1.2-15.4,1.8-23.1c24.7,29.8,47.2,61.4,66.2,94.3
		c-26.5,26.2-54.5,51.4-84.9,73.8c0.5-8.2,1-16.4,1.5-24.7c2.2,0.4,4.4,0.8,6.6,1.2c8.7,1.8,12.4-10.4,3.7-12.2
		c-78.8-15.9-161.8-11.4-237.9,13.1C91.9,137,85.2,102.8,79.3,68.6c2.1-0.8,4.2-1.7,6.3-2.4c0,5.1,0,10.1,0,15.2c0,2,3.5,2,3.5,0
		c0-5.5,0-11,0-16.5C150.6,42.7,218.9,36.7,283.9,47.8z"/>
	<path class="st2" d="M69.2,189.2c-5.5-37.7-10.6-75.5-16.1-113.2c-0.5-3.4-2.8-6.3-6.9-6.3c-0.2,0-0.3,0-0.5,0.1
		c-1.3-0.1-2.7,0.2-3.9,0.8c-8,4.1-15.9,8.4-22.9,13.8c-1.3,1-2,3-2,4.5c0,0.5,0.1,1.1,0.3,1.6c-0.3,0.8-0.4,1.7-0.3,2.7
		c0.3,2.1,0.6,4.2,0.8,6.4c-0.9-0.1-1.8-0.1-2.7,0.1c-4,1-5.4,4.4-4.8,7.8c5.3,35,10.6,70,15.9,105.1c0.5,3.4,5.2,5.2,8.5,4.4
		c0.4-0.1,0.7-0.3,1-0.5c0.4-0.1,0.8-0.3,1.3-0.5c7.2-3,14.3-6.1,21.5-9.1c1.5-0.6,2.8-2.4,3.2-3.8c0.2-0.6,0.2-1.4,0.2-2.1
		c1.5-0.7,3-1.5,4.6-2.2c3.1-1.4,4.2-5.4,2.8-8.1C69.2,190.2,69.2,189.7,69.2,189.2z M55.3,189.2c0,0.2,0.1,0.3,0.1,0.5
		c-3.8,1.8-7.6,3.6-11.3,5.6c-4.5-34.1-9-68.1-13.5-102.2c0-0.4-0.2-0.8-0.3-1.1c0,0,0,0,0.1-0.1c3.3-2.3,6.7-4.3,10.2-6.2
		C45.6,120.2,50.3,154.7,55.3,189.2z"/>
	<path class="st3" d="M367.4,138.9c2.9-2.5,5.7-5,8.5-7.6c-0.1,1.7-0.3,3.3-0.4,5c-0.1,1.6,1.7,3.2,3.5,3.2c2-0.1,3.3-1.4,3.5-3.2
		c0.3-4.1,0.7-8.2,1-12.3c0.9-0.9,1.8-1.7,2.6-2.6c0.3-0.3,0.4-0.6,0.6-0.9c0.1,0,0.2,0,0.3-0.1c2.4-1.4,3.2-4.2,1.9-6.5
		c-2-3.4-4-6.8-6-10.2c-0.6-1-1.9-1.9-3.1-2.2c-1.2-0.3-2.9-0.2-4,0.5c-2.4,1.4-3.2,4.2-1.9,6.5c1.4,2.3,2.7,4.6,4.1,6.9
		c-5.7,5.8-11.6,11.4-17.8,16.7c-2,1.7-2,5,0,6.7C362.2,140.6,365.3,140.7,367.4,138.9z"/>
</g>
</svg>
