<?xml version="1.0" encoding="utf-8"?>
<!-- Generator: Adobe Illustrator 25.2.0, SVG Export Plug-In . SVG Version: 6.00 Build 0)  -->
<svg version="1.1" id="Layer_2" xmlns="http://www.w3.org/2000/svg" xmlns:xlink="http://www.w3.org/1999/xlink" x="0px" y="0px"
	 viewBox="0 0 800 164" style="enable-background:new 0 0 800 164;" xml:space="preserve">
<style type="text/css">
	.st0{fill:#BBBDBF;}
	.st1{fill:#020202;}
	.st2{fill:#FFFFFF;}
</style>
<g>
	<path class="st0" d="M183,164c-11.6,0-22.4-4.8-29.7-13.1c-1-1.2-2-2.5-2.7-3.9c-2.1,0.7-4.4,1.3-6.8,1.6l-1,0.1h-1
		c-14.8,0-24.3-11.3-28.3-33.7c-0.1-0.5-0.3-1-0.4-1.5c-1.5,4.3-3.6,8.3-6.3,11.8l-1.3,1.7l-1.6,1.3c-14.8,12-29.4,18.1-43.4,18.1
		c-17.6,0-33-9.7-45.7-28.9l-0.6-0.9l-0.5-0.9c-6.7-13.4-10-25.1-10-35.9c0-2.4,0.4-6.5,2.6-10.8C2.2,62.5,0,55,0,47.4v-2.1l0.5-2
		C2.7,34,8,26.3,16.3,20.5l1.3-0.9L19,19c8.1-3.7,16.3-5.8,24.5-6.1c0,0,0,0,0,0c3.4,0,6.7,0.3,10,0.9c1.5-2.2,3.3-4.1,5.6-5.8
		c4.8-3.7,7.5-4.9,14.7-5.3l0.9,0c8.5,0,23.8,7.1,27.8,33.5c0.1,0.3,0.2,0.7,0.3,1l59-9.9h6.7c1.6,0,3.2,0.1,4.8,0.3l0.2-0.2
		c8.6-9.1,17.1-13.5,26-13.5h2.8c10.9,0,21,5.3,30.2,15.9l1.7-1.4l4.2-1c7.6-1.7,14.3-3.2,20.5-4.3c0.1-4.1,1.3-8.1,3.5-11.6
		c3.4-5.4,8.6-9.1,14.7-10.2c4.1-0.8,8.3-1.2,12.5-1.2c19.4,0,38.1,8.6,50.2,23c3,3.6,4.9,7.8,5.5,12.3l47.1-7.9h6.7
		c16.7,0,27.9,10.7,27.9,26.7v2.4l-0.6,2.3c-3.4,12.4-12.9,20-24.8,20c-4.4,0-9.1,0.4-14,1.1c2.3,9.3,5.7,22.4,10,38.9l0.6,2.2v2.3
		c0,10.4-6.2,23.3-23.8,25.4l-1,0.1h-1c-14.8,0-24.3-11.3-28.3-33.7c-3.1-10.8-5.4-19.6-7.1-26.5l-4.3,0.6c2.2,3.2,4,7.5,4.9,13.2
		l0.2,1.3v1.3c0,4.3-1.5,25.5-31.5,25.5l-3.9,0.1c-3.7,11.3-12.7,18.2-24.1,18.2h-0.8c-8.4,0-15.3-4.9-20.5-10.4
		c-4.2,5.6-10.9,9.2-19.3,10.3l-1.1,0.1h-1.1c-6,0-11.4-2-15.7-5.6c-6.2,9.6-15.6,16.8-26.1,19.5C190,163.5,186.5,164,183,164
		L183,164z"/>
	<path class="st1" d="M399.6,30.8h-6.2l-53.6,8.9c1.1-5.2-0.2-10.9-3.9-15.4c-11-13.1-28.1-20.9-45.8-20.9c-3.8,0-7.6,0.4-11.4,1.1
		c-4.5,0.9-8.4,3.6-10.9,7.6c-2.5,4-3.3,8.8-2.2,13.3c-7.2,1.2-15.6,3-25.4,5.2l-2.8,0.6l-2.2,1.9c-1,0.9-2,1.8-2.9,2.7
		c-9.1-12.4-18.8-18.5-29.5-18.5h-2.8c-7.2,0-14.3,3.8-21.8,11.7l-0.8,0.8c0,0-1,1.5-1.1,1.8c-2.2-0.6-4.7-0.9-7.3-0.9h-6.2
		L99.5,41.4c-0.1,0-0.1,0-0.2,0c-0.6-2-1.2-4.1-1.7-6.3C94,11.2,80.9,5.8,74.8,6.2c-6.1,0.4-7.7,1.2-11.6,4.1
		c-2.6,2-4.6,4.3-6.2,7.7c-4.2-1.1-8.4-1.7-12.7-1.7c0,0,0,0,0,0c-7.4,0.3-14.9,2.1-22.3,5.5l-0.9,0.4l-0.8,0.6
		c-7.1,5-11.7,11.5-13.5,19.4l-0.3,1.3V45c0,6.1,1.6,13.9,7.4,21.7c-3.2,4.1-3.8,8.4-3.8,10.9c0,9.9,3.1,20.7,9.4,33.3l0.3,0.6
		l0.4,0.6c11.6,17.5,25.3,26.3,40.9,26.3c12.7,0,26.1-5.7,39.8-16.8l1.1-0.9l0.8-1.1c3.9-5.1,6.4-11.4,7.5-18.7l0.1-0.9v-0.9
		c0-6.3-1.6-12.5-4.8-18.5l5.7-0.8c1.5,6.7,4.1,16.6,8.4,31.9c1.4,7.8,5.6,28.9,22.6,28.9h0.7l0.7-0.1c4.4-0.5,7.9-1.9,10.6-3.8
		c0.6,2.8,1.9,5.6,4,8c6.1,7,15.3,11.1,25.3,11.1h0c3.1,0,6.1-0.4,9-1.2c10.8-2.9,20.3-11,25.4-21.8c0.5-1,0.8-2,1.1-3
		c3.6,7.8,10.5,10.8,16.8,10.8h0.7l0.7-0.1c11.8-1.5,17.2-8.3,18.6-15.3c6,8.1,13.1,15.3,21.9,15.3h0.8c9.9,0,17.1-6.5,19.4-17.3
		l0.2-0.8l8.4-0.2c23.9,0,25.8-15.1,25.8-19.7v-0.9l-0.1-0.8c-1.5-10.1-6.8-15.5-12.8-17.7c0.2-0.3,0.4-0.6,0.7-0.9
		c0.6,0.1,1.3,0.1,1.9,0.1h0.8l19-2.6c1.5,6.7,4.1,16.6,8.4,31.9c1.4,7.8,5.6,28.9,22.6,28.9h0.7l0.7-0.1
		c13.8-1.6,18.7-11,18.7-19.6v-1.5l-0.4-1.5c-6.4-24-9.7-37.5-11.5-45c7.4-1.5,14.4-2.3,21.1-2.3c9.3,0,16.5-5.9,19.3-15.8l0.4-1.5
		v-1.6C421.7,39,413,30.8,399.6,30.8z M61.8,98.2h-1.3c-0.4-0.2-1.3-0.6-2.6-1.5c-1.7-1.4-3.3-3.6-4.7-6.4
		c6.2,2.7,10.2,4.9,12.9,6.5C65,97.2,63.6,97.7,61.8,98.2z M215.7,113.2l0.1,0.6c-0.2-0.2-0.3-0.3-0.5-0.5
		C215.4,113.3,215.6,113.2,215.7,113.2z M204.3,64.5c1,2,2.3,5.2,3.8,10c-2.3,0.7-4.6,1.3-6.8,1.9C202.4,71.4,203.4,67.5,204.3,64.5
		z M161.9,71.2c-1.7,9.5-2.6,19.8-2.6,30.6v0.5l0.5,5.9c0.1,1.1,0.3,2.2,0.5,3.2c-5.2-19.9-8.2-31.6-9.8-38.4
		C154.4,72.1,158.2,71.5,161.9,71.2z M273.9,74.3c-1.1-2.5-2.3-5.6-3.8-9.3c3.6-0.5,8.4-1.1,14.9-1.8
		C282.6,66,279.1,69.6,273.9,74.3z"/>
	<path class="st2" d="M287.2,20.9c0.4-0.1,0.8-0.1,1.2-0.2c0.2,0,0.2,0,0.3-0.1c0,0,0.1,0,0.2,0c0.8-0.1,1.6-0.2,2.4-0.2
		c1.8-0.1,3.7-0.1,5.5,0.1c0.4,0,0.8,0.1,1.2,0.1c0.1,0,0.2,0,0.3,0c0.1,0,0.2,0,0.3,0.1c0.8,0.1,1.6,0.3,2.4,0.5
		c1.8,0.4,3.5,0.9,5.3,1.5c1.7,0.6,2.1,0.8,3.9,1.7c1.5,0.8,3,1.7,4.5,2.6c2.4,1.6,5.1,4.1,7.4,6.8c2,2.4,6.1,2.1,8.2,0
		c2.4-2.4,2-5.8,0-8.2C319.1,12.3,301,6.5,284.1,9.7c-3.1,0.6-4.8,4.3-4,7.1C281,20,284.1,21.4,287.2,20.9z"/>
	<path class="st2" d="M182.5,125.8c0,0-0.1,0-0.3-0.1c0,0,0.1,0,0.1,0C182.4,125.7,182.5,125.7,182.5,125.8z"/>
	<path class="st2" d="M208.7,113.8c-2.6-1.4-6.5-0.8-7.9,2.1c-0.6,1.4-1.4,2.7-2.2,3.9c-0.1,0.2-0.2,0.3-0.3,0.4
		c-0.2,0.2-0.4,0.4-0.5,0.6c-0.5,0.5-1,1.1-1.5,1.5c-0.3,0.3-0.6,0.5-0.9,0.8c-0.1,0.1-0.3,0.2-0.3,0.3c-0.6,0.4-1.1,0.8-1.7,1.2
		c-0.6,0.4-1.2,0.7-1.9,1c0,0,0,0,0,0c-0.1,0,0,0-0.1,0c-0.4,0.1-0.7,0.3-1.1,0.4c-0.5,0.1-1.3,0.5-1.9,0.4c-0.1,0-0.1,0-0.2,0
		c-0.4,0-0.8,0-1.1,0.1c-0.7,0-1.3-0.1-2-0.1c0,0,0,0,0,0c-0.4-0.1-0.7-0.1-1.1-0.2c-0.5-0.1-0.9-0.3-1.4-0.4c0,0-0.1,0-0.2-0.1
		c-0.1,0-0.2-0.1-0.4-0.1c0.1,0,0.2,0.1,0.3,0.1c-0.1,0-0.2-0.1-0.3-0.1c-0.3-0.2-0.7-0.3-1-0.5c-0.3-0.2-0.6-0.4-0.9-0.6
		c0,0,0,0,0,0c0,0,0,0,0,0c-0.6-0.5-1.1-1-1.6-1.6c-2-2.3-6.2-2.2-8.2,0c-2.2,2.4-2.1,5.7,0,8.2c5.5,6.3,14.7,8.4,22.6,6.3
		c7.9-2.1,14.4-8.3,17.9-15.6C212,119,211.6,115.3,208.7,113.8z"/>
	<path class="st2" d="M402.8,36.2h-5.3l-63.4,10.6c-5.6,0-9.8,0.8-12.6,2.3c-0.1-1.6-0.3-2.9-0.8-3.9c-2.9-11.1-12.9-16.7-30.1-16.7
		c-8.7,0-23.6,2.4-44.7,7.3c-4.9,4.2-7.3,7.9-7.3,11c0.3,3,0.8,4.5,1.6,4.5c8.1,21.7,14.8,37.6,20.3,47.6c1.1,5.2,2.7,8.3,4.9,9.4
		c6.6,9.8,11.7,14.7,15.4,14.7h0.8c4.3,0,7-2.7,8.1-8.1c0-2-1.8-5-5.3-9c0-0.5,0.9-0.7,2.8-0.8h7.7l14.6-0.4
		c9.5,0,14.2-2.7,14.2-8.1c-0.9-6-3.5-9-7.7-9l-17.1,0.8l-1.6-0.4v-0.4c10.8-10.1,17.8-19,21.3-26.5c1.4,2.4,3.5,3.7,6.3,3.7
		l29.2-4.1c0,4.1,3.4,18.2,10.2,42.3c2.4,13.3,6.2,19.9,11.4,19.9c5.7-0.7,8.5-3.3,8.5-7.7v-0.4c-9.2-34.8-13.8-53.7-13.8-56.6
		c12.3-3.5,23.8-5.3,34.5-5.3c4.1,0,6.8-2.4,8.1-7.3C413.4,39.3,409.9,36.2,402.8,36.2z M304.6,51.2c-1,7.5-11.3,19.1-30.9,35h-0.4
		c-2.1-2.4-7.2-14.2-15.4-35.4c0-1.6,10.8-3.5,32.5-5.7c9.5,0,14.2,1.5,14.2,4.5V51.2z"/>
	<path class="st0" d="M492.7,149.3c-9,0-17.6-1.6-25.8-4.7c-5.4-2.1-9.8-5.9-12.5-10.7c-0.6-0.1-1.1-0.2-1.6-0.4
		c-2.8-0.8-5.6-2.2-8-4.1c-2-1.5-3.8-3.4-5.3-5.7l-3.8-5.1l-0.5-0.9c-2-3.5-3.1-7.5-3.1-11.6v-1.1l0.5-3.9l0.3-1.2
		c1.1-3.9,3.1-7.2,5.9-10.1l0.8-0.8l2.1-1.7c-0.9-4.2-1.4-7.8-1.4-11.2c0-14.2,6.3-28.8,19.3-44.8l0.6-0.7
		c11.3-12.2,28.1-18.3,50.2-18.3h2.8c12.9,0,24.7,4.2,34.3,12.2c7.6-7.1,15.1-10.5,22.9-10.5h2.8c13,0,24.5,7.2,34.9,21.9
		c4.1-3.5,9.6-5.6,15.2-5.6c4.3,0,8.4,1.2,12,3.4c2.5,1.6,5,3.3,7.5,5.2c6.3-16.6,20.2-18,24.8-18c10.8,0,20,6.8,29.7,22.6
		c3.1-3.3,6.6-6.4,10.4-9.3l0.7-0.5c8.2-5.3,16.9-7.9,25.9-7.9c13.8,0,27,7.2,39.4,21.4l0.6,0.7l0.6,0.8c6.5,9.3,9.6,17.9,9.6,26.2
		v0.9c0,0-0.2,2.1-0.3,2.7c8.1,3.3,13.6,10.8,15.2,21.1l0.2,1.3v1.3c0,13.5-10.4,24.5-36,38.1c-10.7,5.7-21.5,8.5-32.1,8.5
		c-11.5,0-22-3.4-30.4-9.9c-8.1-0.9-14-6.2-18.1-12l-1,6.5l-3,3.7c-7.8,9.7-16.7,11.7-22.8,11.7c-8.1,0-15.4-4.1-23.5-13.4
		c-1.8,1.6-3.8,2.9-5.9,3.9c-3.2,3.9-8.9,8.2-18.6,9.4l-1.1,0.1h-1.1c-10.4,0-23.2-6.7-25-25.5c0,0-2.2,0.8-3.4,1.2
		c-1.7,6.9-5.8,12.4-9.1,15.4c-4.3,3.7-9.3,5.7-14.5,5.7c-0.4,0-0.8,0-1.1,0c-3.5-0.2-5.6-0.4-7.8-1.1c-5.6,3.8-11.2,4.4-14.3,4.4
		h-1.7l-1.7-0.3c-3.6-0.7-6.9-2-9.8-3.7c-0.5,0.2-1,0.4-1.5,0.6C508.9,147.9,500.9,149.3,492.7,149.3z"/>
	<path class="st1" d="M794.7,98.1c-1.8-11.9-9.2-16.9-16.3-17.8c0.6-2.2,1.1-4.3,1.3-6.5l0.1-0.6v-0.6c0-7.1-2.8-14.6-8.6-22.9
		l-0.4-0.5l-0.4-0.5c-11.2-12.9-23.1-19.4-35.1-19.4c-8,0-15.5,2.3-22.5,6.7l-0.4,0.2l-0.4,0.3c-5.9,4.4-10.8,9.4-14.7,14.7
		c-10.4-19-19-26.8-28.9-26.8c-5.1,0-17.4,2-21.1,20.3l-0.2,1.1v1.2c0,0,0,0.1,0,0.1c-4.3-3.9-8.9-7.6-14-10.8
		c-2.7-1.7-5.7-2.5-9-2.5c-6.4,0-12.4,3.5-15.3,9c-0.1,0.3-0.2,0.5-0.3,0.8c-10.5-17.5-21.9-26.1-34.6-26.1h-2.8
		c-7.2,0-14.3,3.8-21.8,11.7l-0.8,0.8l-0.2,0.3c-9.2-9.5-21.1-14.5-34.5-14.5h-2.8c-20.4,0-35.8,5.5-45.8,16.3l-0.5,0.5
		c-12.1,14.9-18,28.3-18,41.1c0,4,0.8,8.7,2.3,14.1c-0.8,0.4-1.7,0.7-2.4,1.2l-0.4,0.3l-2.2,1.7l-0.5,0.6c-2.1,2.1-3.6,4.7-4.4,7.6
		l-0.2,0.8l-0.4,3.1v0.8c0,3,0.8,6.1,2.3,8.7l0.3,0.6l3.9,5.2c1.1,1.7,2.4,3.1,4,4.3c1.7,1.4,3.8,2.4,6,3c1.3,0.4,2.6,0.5,3.9,0.6
		c1.7,4.8,5.4,8.7,10.6,10.7c7.5,2.9,15.5,4.3,23.8,4.3c0,0,0,0,0,0c7.5,0,14.9-1.2,21.9-3.7c1.4-0.5,2.6-1.1,3.8-1.9
		c2.6,2.2,6.1,3.9,10.6,4.8l1.1,0.2h1.1c3.2,0,8.5-0.8,13.4-5.3c3,1.5,4.3,1.8,8.9,2c4.7,0.3,8.6-1.7,11.6-4.3
		c3-2.6,6.3-7.4,7.5-13.1l0.5-2.3c5.6-2.1,9.9-3.6,13.2-4.6l0.9,7.2c1.4,14.9,10.8,20.3,19.2,20.3h0.7l0.7-0.1
		c7.8-1,12.8-4.3,15.7-8.4c3.2-1.2,6.8-3.5,9.6-8.2c9,11.9,16,16.7,23.4,16.7c4.8,0,11.9-1.7,18.3-9.6l2-2.4l3.4-23
		c0.2,0.4,0.4,0.8,0.6,1.2c4.3,11.2,10.8,23.8,22.8,24c7.7,6.4,17.4,9.8,28.2,9.8c9.7,0,19.5-2.6,29.4-7.9
		c23.4-12.4,32.9-22,32.9-33v-0.9L794.7,98.1z M487,72.1c0.2-1.3,0.9-3.2,2.7-6l0.7-1.1l0.4-1.3c0.5-1.3,1.5-4.4,7.3-6.4
		c-1.6,2.2-3.1,5.1-4.1,8.7l-0.5,1.6v1.6c0,2.7,0.6,7.3,3.9,11.6c-2,0.3-4,0.4-6.1,0.4l-1.3-0.1c-2.8-1.5-3-3.1-3-5V72.1z
		 M572.5,76.5c1.1-5,2.1-8.9,3-11.9c1,2,2.3,5.2,3.8,10C577,75.2,574.7,75.8,572.5,76.5z"/>
	<path class="st2" d="M624.5,49.8c2.1,1.3,4.2,2.8,6.2,4.3c3,2.4,5.9,5,8.5,7.7c2.1,2.2,6.1,2.3,8.2,0c2.2-2.4,2.2-5.8,0-8.2
		c-5.1-5.3-10.8-10-17.1-13.8c-2.6-1.6-6.5-0.6-7.9,2.1C621,44.7,621.8,48.1,624.5,49.8z"/>
	<path class="st2" d="M511.7,109.2c-2.7,0.9-5.5,1.7-8.3,2.1c-0.4,0.1-0.8,0.1-1.2,0.2c0.5-0.1,0.4-0.1-0.3,0
		c-0.6,0.1-1.2,0.1-1.8,0.2c-1.4,0.1-2.8,0.1-4.3,0.1c-1.4,0-2.9-0.1-4.3-0.2c0,0-1-0.1-1.1-0.1c-0.7-0.1-1.5-0.2-2.2-0.4
		c-2.8-0.6-5.5-1.4-8.2-2.4c-2.8-1.1-6.5,1.2-7.1,4c-0.8,3.3,1,6,4,7.1c12,4.6,25.7,4.8,37.8,0.6c2.8-1,5-4,4-7.1
		C517.9,110.4,514.7,108.1,511.7,109.2z"/>
	<path class="st2" d="M464.1,94.6c-0.4-0.7-0.9-1.2-1.5-1.6c-0.6-0.5-1.2-0.9-2-1c-0.8-0.2-1.5-0.3-2.3-0.1c-0.8,0-1.5,0.3-2.1,0.7
		c-0.4,0.3-0.8,0.6-1.2,0.9c-0.7,0.7-1.2,1.6-1.5,2.6c-0.1,0.5-0.1,1-0.2,1.5c0,1,0.3,2,0.8,2.9c1.3,1.7,2.5,3.4,3.8,5.1
		c0.4,0.7,0.9,1.2,1.5,1.6c0.6,0.5,1.2,0.9,2,1c0.8,0.2,1.5,0.3,2.3,0.1c0.8,0,1.5-0.3,2.1-0.7c0.4-0.3,0.8-0.6,1.2-0.9
		c0.7-0.7,1.2-1.6,1.5-2.6c0.1-0.5,0.1-1,0.2-1.5c0-1-0.3-2-0.8-2.9C466.6,98,465.4,96.3,464.1,94.6z"/>
	<path class="st2" d="M786.5,93.5c-0.8-5.4-3.2-8.1-7.3-8.1l-3.7,0.4c-14.7,12.8-27.4,19.6-38.2,20.3h-2l-5.7-0.8
		c-8.1-4-12.2-10.5-12.2-19.5v-1.2c6.7,2.2,12.5,3.3,17.5,3.3c15.2,0,25.5-2.6,30.9-7.7c3.3-4.6,5.2-9.2,5.7-13.8
		c0-4.6-2.2-10-6.5-16.3c-9-10.3-17.8-15.5-26.4-15.5c-5.8,0-11.2,1.6-16.2,4.9c-11.5,8.7-18.4,19.3-20.9,31.8
		c-3.4-6.9-6.2-12.1-8.2-15.5c-8.9-17.4-16-26-21.5-26c-5,0-8.3,3.7-9.7,11c0,16.4-1.9,34.3-5.7,53.7h-0.8l-4.1-5.3
		C636.1,67.9,626,57.3,621,57.3h-0.4c-5.1,1.4-7.7,4.5-7.7,9.4v5l-6.7-20.9c-9.5-18.7-19.2-28.1-28.8-28.1h-2.8
		c-3.8,0-8.3,2.7-13.4,8.1c-5.2,8.3-9.2,17.8-11.8,28.5c-1.7-2.3-4.6-4.1-8.9-5.3l-19.1,1.6l-5.7-0.4c-3.4,0-5.8,2.6-7.3,7.7
		c0,4.7,3.7,7.9,11,9.4l12.2-0.8l0.8,0.8v1.2c-12,8.7-24.6,13-37.8,13h-0.8l-3.7-0.4c-7.6-3.3-11.4-8.7-11.4-16.3v-4.9
		c0.4-3.5,1.9-7.3,4.5-11.4c3.7-10.6,14.1-15.9,31.3-15.9c5.5,0,9,0.4,10.6,1.2c7.2,4.6,11.8,6.9,13.8,6.9c5.4-1.2,8.1-3.7,8.1-7.7
		l-0.8-3.3c-7.5-9.2-17.1-13.8-28.8-13.8h-2.8c-17.1,0-29.6,4.2-37.4,12.6c-10.3,12.6-15.4,23.9-15.4,33.8c0,3.7,0.9,8.4,2.8,14.2
		c6.5,14.4,16.1,21.6,28.8,21.6h0.8c11.3,0,22.9-2.7,34.9-8.1V96c-1.4,7.3-2,13.4-2,18.3v0.4c0,4.3,2.7,7.1,8.1,8.1
		c3.2,0,5.9-1.8,8.1-5.3c0-3.4,0.8-9.8,2.3-18.9l0.1,1.8c1.6,12.8,5.6,19.1,11.8,19.1v-0.4c4.1,0,6.6-2.6,7.7-7.7l-2-6.1v-0.8
		c19-7.6,31.1-11.4,36.6-11.4h0.4l2.4,19.9c0.6,6.5,3.2,9.8,7.7,9.8c5.9-0.7,8.9-3.3,8.9-7.7c0.6,0.1,1.1,0.3,1.8,0.3
		c4.8,0,7.6-4.2,8.5-12.6V88.3h0.4l5.3,6.1c11.6,19,20,28.5,25.2,28.5c3.4,0,6.5-1.8,9.3-5.3l8.1-54.1h0.4c1.8,2,7.4,12.8,17.1,32.6
		c4.3,11.4,8.5,17.1,12.6,17.1c1.3-0.1,2.4-0.4,3.5-0.7c6.1,6.9,14.2,10.5,24.3,10.5c7.8,0,15.8-2.2,24-6.5c4.8-2.6,9-5,12.5-7.3
		c-0.1,2,0,4,0.1,6.1c0.1,1.5,1.2,3,2.9,2.9c1.5-0.1,3-1.3,2.9-2.9c-0.3-3.5-0.2-7,0.2-10.4C783.7,100.4,786.5,96.7,786.5,93.5z
		 M737.8,51.2l3.2,0.4c8.9,4.7,13.4,9.5,13.4,14.2v1.2c0,2.7-6.2,4.1-18.7,4.1c-7.2,0-12.2-1.5-15-4.5
		C725.3,56.4,731,51.2,737.8,51.2z M562.3,86.6h-0.4c0.3-5.7,0.8-10.4,1.6-14.2c4.5-22,8.8-33,13-33c2.2,0,5.5,3,9.7,9
		c3.5,4.6,7,14,10.6,28.1C582.6,80.2,571.1,83.6,562.3,86.6z"/>
	<path class="st2" d="M252.1,80.9c-2.1-4.9-5.3-7.3-9.7-7.3L235,50.8c-9.5-18.7-19.2-28.1-28.8-28.1h-2.8c-3.8,0-8.3,2.7-13.4,8.1
		c-2.7,4.3-5.1,8.9-7.1,13.8c-0.3-5.7-3.8-8.5-10.5-8.5h-5.3l-63.4,10.6c-3.6,0-6.5,0.3-9,1c-1.8-4.3-3.6-9.8-5.3-16.6
		c-1.8-13-5.6-19.5-11.4-19.5V12c-4.7,0-7.5,3-8.5,9l2.4,8.5v0.4c-8.1-5.4-16-8.1-24-8.1c-5.9,0.2-11.8,1.7-17.9,4.5
		c-4.7,3.3-7.7,7.5-8.9,12.6c0,10.3,6.4,19.1,19.1,26.5C70,76,84.9,84.5,84.9,90.9v2c0,3.8-6.1,7.3-18.3,10.6H63
		c-2,0-4.9-1.2-8.5-3.7c-5.7-4.4-9.9-12-12.6-22.8c-0.8-8.7-3.8-13-8.9-13c-5.4,1.4-8.1,3.9-8.1,7.3c0,7.9,2.7,17.3,8.1,28.1
		c7.8,11.7,16.3,18.5,25.5,20.5c0,1.1,0,2.2,0,3.3c0,1.5,1.3,3,2.9,2.9c1.6-0.1,2.9-1.3,2.9-2.9c0-0.9,0-1.8,0-2.6
		c1.5,0,3-0.1,4.5-0.4c0,0,0,0,0,0c0,6.2,0,12.3,0,18.5c0,2.8,4.3,2.8,4.3,0c0-6.2,0-12.3,0-18.5c0-0.3-0.1-0.6-0.2-0.9
		c7.5-1.9,15.4-6.3,23.8-13.1c2.7-3.6,4.5-8.1,5.3-13.4c0-5.9-2-11.7-6.1-17.5c-7.6-7.3-21.1-14.8-40.6-22.4
		c-8.1-2.2-13.7-5.8-17.1-11v-0.8c1.3-1.6,4-2.4,8.1-2.4H50l4.1,0.4c2.6,0,11.9,7.1,28,21.2c4,5.2,7.1,7.7,9.3,7.7
		c4.2-0.4,6.8-1.8,8.2-4.1l24.4-3.4c0,4.1,3.4,18.2,10.2,42.3c2.4,13.3,6.2,19.9,11.4,19.9c5.7-0.7,8.5-3.3,8.5-7.7v-0.4
		c-9.2-34.8-13.8-53.7-13.8-56.6c12.3-3.5,23.8-5.3,34.5-5.3c2.7,0,4.8-1.2,6.3-3.4c-4.6,13.3-7,28.6-7,46.2l0.4,4.9
		c1.6,12.8,5.6,19.1,11.8,19.1v-0.4c4.1,0,6.6-2.6,7.7-7.7l-2-6.1v-0.8c19-7.6,31.1-11.4,36.6-11.4h0.4l2.4,19.9
		c0.6,6.5,3.2,9.8,7.7,9.8c6-0.7,8.9-3.3,8.9-7.7c0-3.4-0.8-11.7-2.4-24.8v-0.4C249.9,86.8,252.1,83.8,252.1,80.9z M191.1,86.6h-0.4
		c0.3-5.7,0.8-10.4,1.6-14.2c4.5-22,8.8-33,13-33c0.2,0,0.5,0.2,0.7,0.2c0.1,4.7,0.4,9.4,0.8,14.1c0.1,1.6,1.2,2.9,2.9,2.9
		c1.5,0,3-1.3,2.9-2.9c-0.3-3.1-0.4-6.2-0.5-9.3c0.9,1.1,1.9,2.4,3,3.9c3.5,4.6,7,14,10.6,28.1C211.4,80.2,199.9,83.6,191.1,86.6z"
		/>
</g>
</svg>
