<?xml version="1.0" encoding="utf-8"?>
<!-- Generator: Adobe Illustrator 25.2.0, SVG Export Plug-In . SVG Version: 6.00 Build 0)  -->
<svg version="1.1" id="Layer_1" xmlns="http://www.w3.org/2000/svg" xmlns:xlink="http://www.w3.org/1999/xlink" x="0px" y="0px"
	 viewBox="0 0 108 118" style="enable-background:new 0 0 108 118;" xml:space="preserve">
<style type="text/css">
	.st0{fill:#BCBEC0;}
	.st1{fill:url(#SVGID_1_);}
	.st2{fill:#020202;}
	.st3{fill:#FFFFFF;}
</style>
<g>
	<path class="st0" d="M10.48,118c-3.73,0-7.08-2.07-8.98-5.53c-1.83-3.34-1.99-7.48-0.47-10.81c0.12-0.42,0.26-0.82,0.42-1.22
		l17.78-43.98l-3.18-8.21c-3.19-0.49-5.58-3.26-5.6-6.71c-0.01-1.69,0-3.45,0.02-5.38C9.62,35.01,9.12,33.57,9.12,32v-1.67L6.28,23
		c-1.43-3.7-0.88-7.48,1.23-10.27C7.32,10.2,7.95,7.67,9.36,5.45C11.51,2.09,15.12,0,18.78,0c1.35,0,2.64,0.28,3.85,0.83
		c30.47,10.86,58.76,28.5,81.83,51.01c1.52,1.48,2.57,3.3,3.06,5.28c1.24,4.06-0.02,8.31-3.35,11.15c-0.54,0.46-1.09,0.92-1.64,1.38
		l-0.33,2.6c-0.44,3.53-3.2,6.1-6.56,6.1c-1.03,0-2.03-0.25-2.94-0.72c-22.85,17.29-50.06,31.03-79.07,39.9
		C12.59,117.84,11.53,118,10.48,118z"/>
	
		<linearGradient id="SVGID_1_" gradientUnits="userSpaceOnUse" x1="19.34" y1="63.65" x2="94.88" y2="63.65" gradientTransform="matrix(1 0 0 -1 0 120)">
		<stop  offset="0" style="stop-color:#E4E6ED"/>
		<stop  offset="1" style="stop-color:#808B9B"/>
	</linearGradient>
	<path class="st1" d="M22.78,91.34c4.31-10.13,8.49-21.12,12.41-32.65c0.06-0.17,0.12-0.42,0.09-0.61l-0.11-0.73l0.15-0.72
		c0.04-0.19,0.02-0.42-0.06-0.7c-3.14-10.88-6.93-22.07-11.59-34.19l-3.25-8.45l8.15,3.36c22.92,9.46,44.67,23.32,62.89,40.09
		l3.42,3.15l-3.63,2.89C73.8,76.66,52.32,88.06,27.42,96.63l-8.08,2.78L22.78,91.34z"/>
	<path class="st2" d="M102.09,58.74c-0.19-0.91-0.66-1.81-1.5-2.62C77.85,33.93,50.04,16.76,20.52,6.28
		c-3.54-1.83-9.01,2.73-6.91,7.85c0.1,0.25,0.2,0.49,0.3,0.74c-2.09,0.93-3.48,3.07-2.37,5.94c1.08,2.8,2.16,5.6,3.25,8.4
		c0,0.93,0,1.87,0,2.8c0,0.51,0.43,1,0.94,0.98c0.17-0.01,0.32-0.07,0.46-0.15l0,0c-0.06,2.89-0.09,5.78-0.08,8.67
		c0.01,1.26,1.89,1.26,1.89,0c-0.01-1.32,0.01-2.63,0.02-3.95c2.44,6.32,4.89,12.63,7.33,18.95c-6.22,15.4-12.45,30.8-18.67,46.2
		c-0.15,0.37-0.25,0.73-0.32,1.07c-2.08,3.63,0.68,9.64,5.7,8.11c29.41-9,57.94-23.34,82.23-42.84c0.33-0.26,0.6-0.54,0.83-0.83
		c-0.14,1.09-0.27,2.18-0.41,3.27c-0.07,0.53,0.48,0.98,0.94,0.98c0.56,0,0.88-0.45,0.94-0.98c0.21-1.66,0.41-3.32,0.62-4.98
		c1.13-0.91,2.25-1.83,3.36-2.78C102.34,62.24,102.64,60.38,102.09,58.74z M26.23,92.92c4.6-10.8,8.73-21.81,12.51-32.93
		c0.31-0.92,0.38-1.76,0.26-2.52c0.17-0.79,0.15-1.69-0.13-2.66c-3.38-11.72-7.34-23.19-11.7-34.52
		c22.48,9.28,43.71,22.75,61.78,39.38C70.27,74.54,48.57,85.22,26.23,92.92z"/>
	<path class="st3" d="M51.18,54.59c-0.81-3.8-1.94-7.53-3.19-11.2c-1.41-4.13-7.79-2.35-6.37,1.82c1.18,3.45,2.24,6.96,3.04,10.53
		c-0.38,1.4-0.58,2.84-1,4.23c-0.52,1.71,0.61,3.81,2.31,4.21c1.8,0.43,3.5-0.56,4.06-2.39c0.46-1.52,0.65-3.12,1.11-4.64
		c0.13-0.43,0.16-0.88,0.1-1.32C51.28,55.44,51.28,55.03,51.18,54.59z"/>
</g>
</svg>
