<?xml version="1.0" encoding="utf-8"?>
<!-- Generator: Adobe Illustrator 25.2.0, SVG Export Plug-In . SVG Version: 6.00 Build 0)  -->
<svg version="1.1" id="Layer_1" xmlns="http://www.w3.org/2000/svg" xmlns:xlink="http://www.w3.org/1999/xlink" x="0px" y="0px"
	 viewBox="0 0 108 118" style="enable-background:new 0 0 108 118;" xml:space="preserve">
<style type="text/css">
	.st0{fill:#BCBEC0;}
	.st1{fill:url(#SVGID_1_);}
	.st2{fill:#020202;}
	.st3{fill:#FFFFFF;}
</style>
<g>
	<path class="st0" d="M90.27,118c-0.76,0-1.53-0.07-2.3-0.22c-31.29-5.98-61.2-20.67-84.23-41.36c-2.34-2.1-3.67-4.89-3.73-7.84
		c-0.03-1.4,0.23-2.8,0.74-4.13c-0.67-2.02-0.69-4.2,0-6.34c0.52-2,1.64-3.84,3.23-5.34C28.39,29.85,58.31,11.91,90.53,0.85
		C91.81,0.29,93.19,0,94.63,0c1.2,0,2.4,0.2,3.58,0.6l0.24,0.08c3.13,1.13,5.79,3.6,7.14,6.64c1.34,3,1.35,6.33,0.05,9.4
		C99.55,31,94.57,44.54,90.43,58.04c5.22,14.6,10.59,27.58,16.38,39.61c1.78,3.69,1.56,7.77-0.59,11.19
		c-1.72,2.73-4.44,4.66-7.45,5.39C96.6,116.61,93.57,118,90.27,118z"/>
	
		<linearGradient id="SVGID_1_" gradientUnits="userSpaceOnUse" x1="14.12" y1="62.65" x2="94.03" y2="62.65" gradientTransform="matrix(1 0 0 -1 0 120)">
		<stop  offset="0" style="stop-color:#E4E6ED"/>
		<stop  offset="1" style="stop-color:#808B9B"/>
	</linearGradient>
	<path class="st1" d="M85.5,98.35c-26.35-8.73-49.07-20.33-67.54-34.47l-3.84-2.94l3.62-3.2c19.28-17.06,42.29-31.17,66.54-40.8
		l8.62-3.42l-3.44,8.6c-4.94,12.34-8.95,23.73-12.27,34.8c-0.08,0.28-0.11,0.52-0.07,0.71l0.16,0.73l-0.12,0.74
		c-0.03,0.2,0.04,0.45,0.1,0.62c4.15,11.74,8.57,22.93,13.13,33.24l3.64,8.22L85.5,98.35z"/>
	<path class="st2" d="M101.41,100.24c-6.57-13.66-12.23-27.76-17.28-42.05c4.49-14.92,9.89-29.47,15.99-43.81
		c1.57-3.69-0.9-7.11-3.8-8.11c-0.01,0-0.02-0.01-0.03-0.01c-1.18-0.4-2.43-0.4-3.5,0.14C61.56,17.07,32.14,34.54,8.09,57.12
		c-0.88,0.83-1.38,1.74-1.58,2.66c-0.55,1.55-0.31,3.29,1.21,4.76c-1.97,1.93-2.63,5.07,0.02,7.44
		c22.49,20.21,51.66,34.26,81.35,39.94c3.05,0.58,5.33-1.15,6.32-3.38c0.01,0,0.02,0,0.03,0
		C99.2,109.05,103.63,104.86,101.41,100.24z M20.4,60.72c14.24-12.61,30.34-23.43,47.46-32.03c0,3.08,0,6.15,0,9.23
		c0,1.28,2,1.28,2,0c0-3.4,0-6.81,0-10.21c0.67-0.33,1.34-0.66,2.01-0.98c0.04,0.17,0.07,0.35,0.11,0.52
		c0.03,0.13,0.09,0.24,0.18,0.34c0.07,0.11,0.16,0.19,0.28,0.26c0.11,0.07,0.24,0.11,0.37,0.12c0.13,0.03,0.27,0.02,0.4-0.02
		c0.24-0.08,0.47-0.23,0.6-0.46c0.03-0.08,0.07-0.16,0.1-0.24c0.05-0.18,0.05-0.35,0-0.53c-0.06-0.29-0.12-0.58-0.17-0.87
		c3.97-1.85,7.99-3.6,12.05-5.21c-4.61,11.53-8.81,23.2-12.38,35.13c-0.3,0.99-0.32,1.9-0.14,2.7c-0.12,0.77-0.05,1.63,0.28,2.57
		c4,11.32,8.38,22.53,13.24,33.52C63.13,86.74,40.16,75.86,20.4,60.72z"/>
	<path class="st3" d="M40.2,59.36c2.06-1.5,4.12-2.99,6.18-4.49c1.52-1.11,2.27-3.03,1.25-4.77c-0.88-1.5-3.25-2.36-4.78-1.25
		c-2.06,1.5-4.12,2.99-6.18,4.49c-1.52,1.11-2.27,3.03-1.25,4.77C36.3,59.61,38.66,60.47,40.2,59.36L40.2,59.36z"/>
	<path class="st3" d="M53.82,49.29c0.25,0,0.51,0,0.76,0c0.48,0.02,0.93-0.08,1.35-0.3c0.43-0.14,0.81-0.38,1.12-0.72
		c0.34-0.32,0.58-0.69,0.72-1.12c0.22-0.42,0.32-0.86,0.3-1.34c-0.04-0.31-0.08-0.62-0.12-0.93c-0.17-0.59-0.47-1.1-0.9-1.54
		c-0.24-0.18-0.47-0.36-0.71-0.55c-0.54-0.32-1.13-0.47-1.76-0.48c-0.25,0-0.51,0-0.76,0c-0.48-0.02-0.93,0.08-1.35,0.3
		c-0.43,0.14-0.81,0.38-1.12,0.72c-0.34,0.32-0.58,0.69-0.72,1.12c-0.22,0.42-0.32,0.86-0.3,1.34c0.04,0.31,0.08,0.62,0.12,0.93
		c0.17,0.59,0.47,1.1,0.9,1.54c0.24,0.18,0.47,0.36,0.71,0.55C52.6,49.13,53.19,49.29,53.82,49.29L53.82,49.29z"/>
</g>
</svg>
