<?xml version="1.0" encoding="utf-8"?>
<!-- Generator: Adobe Illustrator 25.2.0, SVG Export Plug-In . SVG Version: 6.00 Build 0)  -->
<svg version="1.1" id="Layer_1" xmlns="http://www.w3.org/2000/svg" xmlns:xlink="http://www.w3.org/1999/xlink" x="0px" y="0px"
	 viewBox="0 0 372 372" style="enable-background:new 0 0 372 372;" xml:space="preserve">
<style type="text/css">
	.st0{fill:#BCBEC0;}
	.st1{fill:#020202;}
	.st2{fill:url(#SVGID_1_);}
	.st3{fill:#F27585;}
	.st4{fill:#FFFFFF;}
</style>
<g>
	<path class="st0" d="M180.48,372C80.96,372,0,291.23,0,191.96c0-34.23,9.67-67.52,27.97-96.31C60.06,36.64,121.72,0,188.96,0
		C289.89,0,372,81.91,372,182.6c0,60.45-29.92,116.87-80.05,150.96C259.89,358.71,221.35,372,180.48,372z"/>
	<path class="st1" d="M365.09,180.9c0-96.43-78.36-174.61-175.03-174.61c-66.59,0-124.5,37.1-154.08,91.71
		c-17.01,26.66-26.87,58.31-26.87,92.26c0,95.02,77.22,172.05,172.47,172.05c40.3,0,77.37-13.79,106.73-36.9
		C334.65,294,365.09,241,365.09,180.9z"/>
	<linearGradient id="SVGID_1_" gradientUnits="userSpaceOnUse" x1="28.8495" y1="181.1854" x2="352.0407" y2="181.1854">
		<stop  offset="0" style="stop-color:#EC2B3D"/>
		<stop  offset="1" style="stop-color:#A41D42"/>
	</linearGradient>
	<ellipse class="st2" cx="190.45" cy="181.19" rx="161.6" ry="161.2"/>
	<g>
		<g>
			<path class="st3" d="M281.85,92.47c-0.05-0.31-0.1-0.61-0.17-0.92c-0.19-0.86-0.43-1.72-0.72-2.55
				c-0.08-0.23-0.16-0.45-0.25-0.67c-0.03-0.07-0.03-0.06-0.08-0.18c-0.13-0.26-0.26-0.53-0.39-0.79c-0.44-0.84-0.95-1.64-1.5-2.42
				c-0.15-0.18-0.3-0.36-0.46-0.54c-0.29-0.33-0.59-0.64-0.91-0.95c-0.31-0.31-0.65-0.59-0.97-0.88c-0.13-0.11-0.11-0.11-0.16-0.16
				c-0.06-0.03-0.06-0.02-0.22-0.12c-0.7-0.42-1.37-0.84-2.1-1.21c-0.07-0.04-0.1-0.05-0.13-0.07c-0.03-0.01-0.04-0.01-0.07-0.02
				c-0.41-0.14-0.82-0.29-1.23-0.41c-0.57-0.16-1.15-0.28-1.74-0.38c-0.18,0-1.04-0.11-1.2-0.11c-0.43-0.02-0.87-0.02-1.3-0.01
				c-0.32,0.01-1.64,0.18-1.57,0.14c-0.61,0.12-1.22,0.23-1.82,0.4c-0.42,0.12-0.84,0.24-1.25,0.39c-0.07,0.03-0.47,0.19-0.68,0.27
				c-0.7,0.32-1.4,0.67-2.06,1.08c-0.37,0.23-0.72,0.47-1.09,0.71c-0.09,0.06-0.07,0.04-0.13,0.08c-0.02,0.02,0.01,0-0.05,0.06
				c-0.6,0.52-1.18,1.05-1.72,1.63c0.01-0.01-0.25,0.3-0.42,0.49c-0.15,0.21-0.4,0.53-0.39,0.52c-0.32,0.48-0.62,0.97-0.88,1.48
				c0.01-0.02-0.17,0.36-0.28,0.6c-0.09,0.25-0.25,0.69-0.24,0.66c-0.14,0.43-0.26,0.87-0.36,1.3c-0.09,0.38-0.16,0.77-0.22,1.15
				c0,0.07,0,0.09,0,0.19c-0.01,0.91-0.01,1.8,0.02,2.7c0,0.12,0,0.18,0,0.25c0.02,0.06,0.03,0.11,0.05,0.22
				c0.09,0.44,0.17,0.89,0.28,1.33c0.19,0.74,0.43,1.45,0.68,2.16c0.04,0.11,0.05,0.16,0.08,0.23c0.04,0.06,0.08,0.13,0.14,0.24
				c0.22,0.4,0.41,0.81,0.64,1.2c0.33,0.58,0.71,1.14,1.11,1.68c0.13,0.13,0.73,0.82,0.82,0.91c0.26,0.27,0.55,0.52,0.81,0.78
				c0.08,0.08,0.3,0.27,0.43,0.37c0.29,0.21,0.59,0.42,0.9,0.61c0.56,0.35,1.15,0.65,1.76,0.93c0.19,0.06,0.68,0.24,0.75,0.26
				c0.43,0.13,0.87,0.25,1.31,0.35c0.08,0.02,0.67,0.12,0.8,0.15c0.33,0.03,0.67,0.07,1,0.08c0.76,0.03,1.51-0.01,2.26-0.04
				c0.14-0.01,0.21-0.01,0.28-0.01c0.06-0.01,0.1-0.02,0.19-0.04c0.45-0.09,0.89-0.17,1.33-0.28c0.74-0.18,1.45-0.42,2.17-0.67
				c0.1-0.04,0.09-0.04,0.16-0.06c0.24-0.11,0.49-0.23,0.72-0.35c0.27-0.14,0.53-0.28,0.8-0.43c0.39-0.23,0.78-0.46,1.15-0.72
				c0.06-0.04,0.49-0.39,0.63-0.49c0.5-0.43,0.98-0.87,1.43-1.36c0.05-0.05,0.46-0.56,0.54-0.64c0.2-0.29,0.4-0.57,0.58-0.87
				c0.65-1.04,1.65-1.74,2.74-2.12c0.06-0.28,0.12-0.56,0.19-0.84c0.02-0.1,0.04-0.14,0.05-0.21c0-0.06,0-0.11,0.01-0.21
				c0.04-0.88,0.1-1.75,0.06-2.64C281.94,93.57,281.83,92.55,281.85,92.47z"/>
			<path class="st3" d="M171.33,129.45c-14.64,6.11-38.2,17.97-57.21,16.39c-0.85-0.01-1.7-0.08-2.55-0.26
				c-0.11-0.02-0.22-0.07-0.33-0.09c-1.57-0.25-3.09-0.62-4.58-1.09c0.71,24.52-3.66,49.85-21.44,67.22
				c9.93,14.56,30.89,11.83,45.55,6.9c21.54-7.24,41.42-19.39,64.96-18.17c0.75,0.04,1.46,0.16,2.12,0.32
				c2.66,0.28,5.32,0.7,7.95,1.47c0.27,0.08,0.52,0.2,0.78,0.28c-7.43-13.28-2.67-33.41,4.54-46.41
				c7.25-13.08,18.54-23.76,32.09-29.53C224.48,110.22,191.98,120.83,171.33,129.45z"/>
			<path class="st3" d="M221.6,157.98c-4.67,7.49-8.3,16.26-9,25.12c-0.4,5.07,0.51,10.72,3.26,15.03
				c6.28-19.46,13.56-38.6,21.84-57.36C231.25,145.34,225.75,151.32,221.6,157.98z"/>
			<path class="st3" d="M291.19,77.03c-5.84-7.54-14.72-11.86-24.35-11.86c-3.07,0-6.14,0.45-9.11,1.33
				c-12.72,3.79-21.52,14.48-22.41,27.23c-0.05,0.78-0.08,1.57-0.07,2.35c-6.84-1.82-14.23-2.76-21.98-2.76
				c-9.85,0-20.24,1.53-30.06,4.43c-9.91,2.93-19.34,6.93-28.47,10.81c-5.99,2.54-12.18,5.18-18.3,7.4
				c-0.53,0.19-1.12,0.41-1.77,0.65c-4.34,1.62-12.42,4.63-18.03,4.63c-0.31,0-0.61-0.01-0.89-0.03c-0.09-0.03-0.19-0.06-0.29-0.09
				c-0.11-0.06-0.21-0.12-0.31-0.18c-0.41-0.37-0.8-0.76-1.17-1.18c-0.44-0.7-0.76-1.3-1.01-1.87l-0.14-0.33l-0.17-0.32
				c-1.17-2.16-2.75-3.95-4.72-5.34c-1.83-1.54-3.96-2.61-6.32-3.2c-1.46-0.39-3.01-0.59-4.62-0.59c-1.44,0-2.9,0.17-4.28,0.48
				c-4.88,0.16-9.97,2.61-13.38,6.47c-3.19,3.62-4.64,8.06-4.07,12.51c1.02,7.97,1.57,14.59,1.74,20.85
				c0.11,3.83,0.07,7.35-0.1,10.78c-0.17,3.29-0.51,6.69-0.88,8.89c-2.34,13.84-7.45,23.23-16.55,30.46
				c-6.99,5.54-7.28,15.08-3.69,21.86c0.31,2.15,1.01,4.23,2.1,6.2c9.23,16.7,27.17,26.42,49.35,26.8
				c-0.28,2.92-0.47,5.66-0.59,8.34c-0.12,2.77,0.93,5.52,2.88,7.57c2,2.08,4.78,3.28,7.62,3.28c5.5,0,9.91-4.07,10.47-9.69
				l0.69-6.88c3.8-0.88,6.78-3.74,7.81-7.41c6.15-2.05,12.08-4.55,17.87-6.98c10.78-4.53,20.97-8.81,31.55-10.01
				c0.17-0.01,0.76-0.06,0.76-0.06c0.26-0.03,0.51-0.04,0.77-0.06l0.66-0.05c0.71-0.07,1.43-0.11,2.14-0.13
				c0.14,0,0.27-0.01,0.41-0.01c0.34,0,0.68,0.01,1.02,0.01l0.49,0.01c0.45,0.02,0.91,0.04,1.36,0.08c1.19,0.21,2.36,0.49,3.51,0.83
				c-5.3,20.46-9.49,41.06-12.47,61.33c-1.47,9.99,3.8,18.69,12.8,21.16c1.43,0.39,2.95,0.59,4.5,0.59
				c7.66,0,16.52-4.95,17.87-14.12c6.37-43.33,17.61-85.45,33.5-125.6c1.9,1.76,4.46,2.76,7.15,2.76c5.67,0,10.26-4.21,10.68-9.79
				l1.82-24.17c2.57-3.55,3.7-7.75,3.29-11.96c0.59-0.08,1.16-0.21,1.72-0.39c4.78-1.54,7.7-6.03,7.29-11.07
				c-0.01-0.19-0.03-0.38-0.05-0.58c1.03-0.77,2.01-1.59,2.95-2.48c3.23-1.04,5.83-3.24,7.26-6.26
				C300.38,100.29,298.92,87.01,291.19,77.03z M289.49,105.22c-0.73,1.54-2.39,2.27-4.06,2.34c-1.94,2.21-4.27,4.04-6.86,5.39
				c-0.01,0.1-0.02,0.2-0.02,0.24c-0.1,0.95-0.14,1.91-0.13,2.86c0.01,0.42,0.03,0.85,0.06,1.27c0.02,0.25,0.04,0.49,0.07,0.74
				c0.01,0.12,0.12,0.9,0.03,0.28c0.2,1.39-0.32,2.61-1.75,3.07c-0.6,0.19-1.39,0.06-1.93-0.25c-0.48-0.28-1.07-0.92-1.15-1.49
				c-0.23-1.61-0.28-3.23-0.24-4.85c-1.94,0.51-3.93,0.82-5.95,0.83c-0.79,1.81-1.58,3.62-2.36,5.43c1.15,1.65,2.22,3.39,3.21,5.24
				c2.46,4.63,1.03,9.01-1.91,11.86c-0.67,8.92-1.35,17.84-2.02,26.76c-0.24,3.19-5.25,3.21-5.01,0c0.6-7.95,1.2-15.9,1.8-23.85
				c-0.66,0.16-1.32,0.26-1.99,0.28c-22.74,49.37-38.16,101.89-46.06,155.64c-0.79,5.37-7.61,8.27-12.32,6.98
				c-5.67-1.55-7.78-6.96-7-12.29c3.32-22.58,8.03-44.87,13.98-66.82c-1.39-0.87-2.82-1.66-4.31-2.36c-2.47-0.94-5-1.62-7.61-2.06
				c-0.73-0.06-1.45-0.11-2.18-0.13c-0.79-0.01-1.58-0.04-2.36-0.02c-0.89,0.02-1.79,0.08-2.69,0.17c-0.48,0.04-0.97,0.06-1.45,0.11
				c-0.22,0.02-0.44,0.04-0.65,0.05c-19.68,2.15-37.29,13.62-56.38,18.94c0,1.07,0,2.14,0,3.21c0,1.4-1.15,2.44-2.51,2.5
				c-1.35,0.06-2.5-1.19-2.5-2.5c0-0.66,0-1.32,0-1.98c-0.56,0.12-1.12,0.26-1.68,0.37c-0.12,0.02-0.24,0.04-0.36,0.06
				c-0.6,5.95-1.2,11.89-1.8,17.84c-0.14,1.35-1.04,2.5-2.5,2.5c-1.31,0-2.57-1.15-2.5-2.5c0.26-5.72,0.86-11.42,1.63-17.1
				c-19.8,2.16-41.17-3.78-51.38-22.25c-0.93-1.68-1.28-3.32-1.28-4.87c-2.73-3.75-3.01-10.02,0.85-13.08
				c11.58-9.18,17.01-20.87,19.47-35.38c0.44-2.59,0.8-6.36,0.98-9.81c0.2-3.8,0.22-7.61,0.11-11.41
				c-0.2-7.24-0.89-14.45-1.81-21.63c-0.69-5.39,5.13-9.99,10.02-9.99c0.15,0,0.28,0.04,0.43,0.04c1.91-0.63,4.16-0.68,5.96-0.18
				c1.3,0.31,2.44,0.91,3.41,1.79c1.09,0.7,1.95,1.64,2.58,2.8c0.53,1.23,1.2,2.39,1.93,3.5c0.86,1.03,1.81,1.98,2.84,2.84
				c0.6,0.39,1.23,0.75,1.87,1.08c0.67,0.24,1.36,0.46,2.05,0.63c8.2,0.98,19.69-3.74,24.89-5.63c15.57-5.66,30.37-13.35,46.3-18.05
				c20.4-6.03,44.77-6.17,62.83,4.69c-3.47-4.46-5.4-10.14-5.01-15.82c0.68-9.69,7.48-17.38,16.71-20.13
				c9.14-2.72,18.98,0.21,24.83,7.76C292.44,86.4,293.56,96.62,289.49,105.22z"/>
		</g>
	</g>
	<g>
		<path class="st1" d="M288.96,225.94v-16.72l-0.04-0.37c-0.98-8.95-6.87-12.14-12.07-12.14c-5.39,0-11.46,3.21-12.34,12.21
			l-0.03,0.33v15.93l-5.36-4.47c-11.18-10.96-16-14.06-19.66-14.63c-0.04-0.12-0.08-0.25-0.13-0.37c-0.9-3.11-2.6-6.43-5.7-9.18
			c6.88-1.41,13.92-4.26,21.03-8.54c5.74-2.86,11.4-7.6,16.84-14.11c7.31-3.36,8.46-8.68,8.46-11.7v-1.19l-1.2-3.28
			c-1.24-6.98-10.75-9.29-16.12-10.56c-7.67-2.13-18.36-8.05-31.76-17.59c-6.64-5.6-10.65-7.78-14.27-7.78h-1.06
			c-6.04,0-10.5,2.71-12.41,7.23c-0.49-0.06-0.97-0.08-1.45-0.08c-5.39,0-11.46,3.21-12.34,12.21l-0.03,0.33v15.93l-5.36-4.47
			c-12.62-12.38-17.14-14.73-21.03-14.73c-0.76,0-1.5,0.06-2.22,0.19c4.89-2.17,6.76-6.52,6.76-10.49v-2.13l-0.33-1.02
			c-1.83-5.63-6.43-9-12.31-9h-2.59c-7,0-18.29,1.21-34.49,3.7l-2.8-0.39h-0.47c-4.64,0-10.9,2.33-14.38,13.43l-0.52,1.66l2.31,11.4
			c1.21,17.93,2.31,29.61,3.37,35.68l0.07,0.38l0.11,0.37c2.62,8.85,9.02,14.29,18.22,15.68c-2.83,1.03-4.31,1.75-5.25,2.28
			l-19.97,10.94l-2.64-0.22l-1.41,0.51c-9.39,3.43-11.36,8.95-11.36,12.99v0.83l0.2,0.81c1.61,6.44,5.96,10.51,11.94,11.18
			l0.38,0.04h0.38c2.18,0,5.41-0.52,12.61-3.83c1.6,3.89,3.13,8.68,4.56,14.33c1.36,14.72,8,17.84,13.36,17.84h0.6l0.59-0.11
			c4.77-0.85,8.23-3.21,9.95-6.6c9.83,7.51,26.86,9.03,33.91,9.66l0.73,0.07l0.73-0.09c3.78-0.48,6.73-1.39,8.97-2.74
			c4.34-2.55,7.27-6.85,8.78-12.81c0.36,0.4,0.74,0.8,1.17,1.15c5.59,8.03,10.12,11.47,15,11.47h0.53c6.06,0,10.53-3.99,11.96-10.67
			l0.15-0.7v-0.38l6.31-0.17c2.7-0.01,4.95-0.32,6.82-0.84c2,6.01,6.76,8.26,11,8.26h0.27c2.73,0,9.3-1.06,12.2-10.66l8.84,7.5
			c2.66,3.47,6.68,7.67,12.15,7.67h1.02l0.74-0.17c9.85-2.21,10.61-9.27,10.61-11.38L288.96,225.94z M244.24,166.03
			c-2.84,1.8-6.06,3.36-9.66,4.66l-2.31-11.01C236.1,161.97,240.09,164.09,244.24,166.03z M154.83,139.69h0.31l0.31-0.03
			c0.81-0.07,1.57-0.19,2.28-0.34c-0.97,0.46-1.87,1.06-2.68,1.78c-0.63-0.49-1.35-0.96-2.18-1.39
			C153.54,139.7,154.2,139.69,154.83,139.69z M146.66,162.11c1.57-0.1,3.84-0.51,6.1-1.92c0.37,1.28,0.71,2.51,1.03,3.69l-4.77,1.71
			l-0.18,0.08c-14.78,6.31-19.17,7.77-20.43,8.11c-0.26-1.48-0.58-3.84-0.88-7.52C130.79,165.42,136.55,164.1,146.66,162.11z
			 M135.25,219.3c0.86-0.18,1.67-0.37,2.44-0.58c-0.47,2.17-0.91,4.52-1.34,7c-0.97,2.26-1.78,4.21-2.46,5.92
			c-1.15-3.52-2.43-6.95-3.84-10.25C131.33,220.83,133.02,220.15,135.25,219.3z M164,217.06v0.76l0.17,0.74
			c2.18,9.57,3.28,16.82,3.28,21.54v2.38c0,0.34,0,0.66-0.01,0.96l-0.39-0.02c-5.05-0.85-8.37-1.66-10.53-2.32
			c2.98-7.33,5.21-15.94,6.65-25.7l0.18-1.21L163.1,213c-2.11-9.9-9.48-10.66-11.69-10.66h-0.73c-0.94-3.86-3.74-6.79-7.97-8.27
			c4.06-1.56,8.91-3.57,14.63-6.07c0.49-0.13,0.96-0.26,1.42-0.4c2.36,3.93,6.23,5.46,9.74,5.46h0.27c2.73,0,9.3-1.06,12.2-10.66
			l8.84,7.49c0.81,1.05,1.74,2.17,2.8,3.22c-3.09,0.62-6.44,1.35-10.07,2.19l-1.64,0.38l-1.27,1.09c-3.48,2.99-5.66,5.93-6.6,8.89
			C164.68,208.37,164,214.99,164,217.06z M204.12,224.18c-0.85-1.98-1.92-4.56-3.27-7.93c2.73-0.4,6.7-0.89,12.48-1.47
			c0.01,0,0.01,0,0.02,0C211.73,216.86,208.94,219.91,204.12,224.18z"/>
		<path class="st4" d="M114.25,176.83c2.21,7.46,7.74,11.19,16.59,11.19l3.05-0.53c4.78-1.32,12.61-4.37,23.49-9.14
			c3.69-0.96,6.55-2.03,8.61-3.2c0.01,0.26,0.02,0.52,0.02,0.75l-0.27,1.32c0.49,3.88,2.17,5.83,5.04,5.83h0.27
			c2.74,0,4.69-2.12,5.84-6.36c-0.36-4.85-0.89-9.09-1.59-12.71h0.53L197.08,182c2.74,3.71,5.13,5.56,7.17,5.56h0.27
			c3.54-0.79,5.31-2.38,5.31-4.77l-0.12-6.22l0.44,1.99c2.92,6,8.23,9,15.93,9c8.8,0,18.01-2.91,27.61-8.74
			c5.35-2.6,10.66-7.19,15.93-13.77c3.89-1.41,5.84-3.44,5.84-6.09l-1.06-2.91c0-1.94-3.72-3.8-11.15-5.56
			c-8.54-2.34-19.96-8.61-34.25-18.8c-5-4.24-8.36-6.36-10.09-6.36h-1.06c-4.42,0-6.64,1.94-6.64,5.83
			c4.07,17.7,6.81,30.94,8.23,39.73v0.79h-0.27c-1.19-1.76-2.7-2.65-4.51-2.65h-0.27c-2.44,0.55-4.02,1.49-4.78,2.79l-0.32-16.83
			v-16.42c-0.44-4.06-2.21-6.09-5.31-6.09c-3.32,0-5.18,2.03-5.57,6.09v29.66h-0.53l-16.19-13.51
			c-8.81-8.65-14.29-12.98-16.46-12.98c-2.74,0-4.6,1.68-5.58,5.03l0.27,2.65c1.85,6.15,3.28,11.32,4.29,15.53l-10.4,3.74
			c-13.54,5.78-21.11,8.67-22.7,8.67h-2.85l-2.06-0.53c-1.64,0-2.81-6.2-3.52-18.6c2.34-1.19,10.84-3.22,25.49-6.09
			c3.1,0,5.31-1.88,6.64-5.63c0-2.47-1.95-4.17-5.84-5.1c-11.33,2.21-20.18,4.17-26.55,5.89c-0.31,0-1.09-4.5-2.32-13.51
			c15.18-2.74,27.52-4.1,37.03-4.1c3.89-0.35,5.84-2.03,5.84-5.03v-1.06c-0.93-2.87-2.88-4.3-5.84-4.3h-2.59
			c-6.73,0-18.21,1.26-34.45,3.77l-3.32-0.46c-3.45,0-6.08,2.89-7.9,8.67l2.06,10.13C112.13,159.2,113.24,171.01,114.25,176.83z
			 M225.02,142.8v-0.53h0.53l5.31,3.71c8.5,5.96,17.96,10.9,28.41,14.83c-6.15,7.06-15.09,12.09-26.81,15.1l-0.8-0.26l-6.9-32.84
			H225.02z"/>
		<path class="st4" d="M135.65,209.54c7.26-1.41,10.88-3.8,10.88-7.15v-0.26c0-2.82-1.77-4.59-5.31-5.3
			c-8.98,2.47-14.73,4.41-17.26,5.83l-21.77,11.92l-3.19-0.26c-4.6,1.68-6.9,3.88-6.9,6.62c0.93,3.71,2.97,5.74,6.11,6.09
			c2.52,0,7.57-1.94,15.13-5.83h0.27l0.8,0.53c2.83,5.08,5.4,12.23,7.7,21.45c0.66,8.12,2.88,12.18,6.64,12.18
			c3.72-0.66,5.58-2.43,5.58-5.3l-1.86-9.8c-2.12-8.87-5.04-17.08-8.76-24.63C123.71,214.57,127.69,212.54,135.65,209.54z"/>
		<path class="st4" d="M178.66,208.55c-3.72,0.84-5.58,2.6-5.58,5.3c2.3,10.11,3.45,17.79,3.45,23.04v2.38
			c0,5.3-0.53,7.95-1.59,7.95h-2.12l-4.25-0.26c-10.09-1.68-16.19-3.62-18.32-5.83v-0.79c3.94-7.77,6.77-17.48,8.5-29.13
			c-0.75-3.53-2.43-5.3-5.04-5.3l-2.65,0.79c-1.86,0-3.81,5.92-5.84,17.74c-3.89,9.05-5.84,14.43-5.84,16.15v0.79
			c0,9.23,11.68,14.87,35.04,16.95c2.79-0.35,4.91-0.97,6.37-1.85c4.42-2.6,6.64-8.52,6.64-17.74c0-6-0.8-12.18-2.39-18.54
			C184.19,212.43,182.07,208.55,178.66,208.55z"/>
		<path class="st4" d="M232.29,232.32l-11.15,0.53l-1.06-0.26v-0.26c10.44-9.8,15.66-17.74,15.66-23.84v-0.79
			c0-1.24-0.18-2.21-0.53-2.91c-1.9-7.24-8.45-10.86-19.65-10.86c-5.66,0-15.4,1.59-29.2,4.77c-3.19,2.74-4.78,5.12-4.78,7.15
			c0.18,1.94,0.53,2.91,1.06,2.91c5.26,14.13,9.69,24.45,13.27,30.99c0.71,3.36,1.77,5.39,3.19,6.09c4.29,6.36,7.65,9.53,10.09,9.53
			h0.53c2.79,0,4.56-1.76,5.31-5.3c0-1.28-1.15-3.22-3.45-5.83c0-0.31,0.62-0.48,1.86-0.53h5.04l9.56-0.26
			c6.19,0,9.29-1.76,9.29-5.3C236.76,234.26,235.07,232.32,232.29,232.32z M204.41,231.52h-0.27c-1.37-1.54-4.74-9.22-10.09-23.04
			c0-1.06,7.08-2.29,21.24-3.71c6.19,0,9.29,0.97,9.29,2.91v1.06C223.92,213.6,217.2,221.19,204.41,231.52z"/>
		<path class="st4" d="M284.45,222.78v-16.42c-0.44-4.06-2.21-6.09-5.31-6.09c-3.32,0-5.18,2.03-5.58,6.09v29.66h-0.53l-16.19-13.51
			c-8.81-8.65-14.29-12.98-16.46-12.98c-2.74,0-4.6,1.68-5.57,5.03l0.27,2.65c4.07,13.51,6.11,22.34,6.11,26.48l-0.27,1.32
			c0.49,3.88,2.17,5.83,5.04,5.83h0.27c2.74,0,4.69-2.12,5.84-6.36c-0.36-4.85-0.89-9.09-1.59-12.71H251l21.24,18.01
			c2.74,3.71,5.13,5.56,7.17,5.56h0.27c3.54-0.79,5.31-2.38,5.31-4.77L284.45,222.78z"/>
	</g>
	<path class="st1" d="M195.63,27.15c0-3.57,0-7.14,0-10.71c0-1.31-1.15-2.56-2.5-2.5c-1.36,0.06-2.5,1.1-2.5,2.5
		c0,3.57,0,7.14,0,10.71c0,1.31,1.15,2.56,2.5,2.5C194.49,29.59,195.63,28.55,195.63,27.15L195.63,27.15z"/>
	<path class="st1" d="M203.41,45.5c-0.89-9.66-1.17-19.36-0.84-29.05c0.11-3.21-4.9-3.21-5.01,0c-0.33,9.69-0.05,19.4,0.84,29.05
		c0.12,1.34,1.06,2.5,2.5,2.5C202.17,48,203.54,46.85,203.41,45.5L203.41,45.5z"/>
	<path class="st1" d="M253.24,186.25c0,3.57,0,7.14,0,10.71c0,1.04,0.92,2.05,2,2c1.08-0.05,2-0.88,2-2c0-3.57,0-7.14,0-10.71
		c0-1.04-0.92-2.05-2-2C254.15,184.3,253.24,185.13,253.24,186.25L253.24,186.25z"/>
</g>
</svg>
