<?xml version="1.0" encoding="utf-8"?>
<!-- Generator: Adobe Illustrator 25.2.0, SVG Export Plug-In . SVG Version: 6.00 Build 0)  -->
<svg version="1.1" id="Layer_1" xmlns="http://www.w3.org/2000/svg" xmlns:xlink="http://www.w3.org/1999/xlink" x="0px" y="0px"
	 viewBox="0 0 214 70" style="enable-background:new 0 0 214 70;" xml:space="preserve">
<style type="text/css">
	.st0{fill:#BCBEC0;}
	.st1{fill:#020202;}
	.st2{fill:#FFFFFF;}
</style>
<g>
	<path class="st0" d="M154.59,70c-4.92,0-9.53-1.16-13.52-3.39c-1.14,0.47-2.38,0.94-3.72,1.41l-0.46,0.16l-0.48,0.12
		c-4.32,1.13-8.44,1.7-12.24,1.7c-2.97,0-5.87-0.41-8.65-1.21c-0.96,0.37-1.97,0.68-3.03,0.92L111.2,70h-1.52
		c-3.44,0-8.46-1.25-13.33-7.01c-2.57,2.28-5.76,3.62-9.27,3.8c-2.32,1.65-5.16,2.71-8.38,3.11L77.95,70H77.2
		c-4.76,0-9.77-2.2-12.8-6.94c-0.48,0.54-1.01,1.06-1.6,1.58c-3.19,2.83-7.86,3.63-9.22,3.81l-0.39,0.05H52.8
		c-2.98,0-5.78-0.79-8.22-2.28c-2.44,1.15-4.86,2.03-7.22,2.64l-0.55,0.14L30.61,70h-0.95c-7.05,0-19.99-2.5-27.49-19.26l-0.3-0.66
		l-0.22-0.7C0.56,45.81,0,41.8,0,37.43C0,19.78,10.52,12.58,16.87,9.84c4.46-2.06,9.59-3.1,15.23-3.1c4.84,0,9.04,0.69,12.57,2.06
		l0.3-0.48l0.81-0.85C50.57,2.44,55.44,0,60.68,0h1.31c7.84,0,14.8,4.6,20.71,13.68c3.55,0.15,6.83,1.59,11.47,5.34
		c1.96-7.15,7.89-11.9,15.31-11.9c3.44,0,6.65,1.05,9.25,2.97c2.15-0.48,4.28-0.72,6.37-0.72c1.97,0,4.05,0.29,6.31,0.87
		c1.45-0.46,2.92-0.69,4.39-0.69c1.69,0,3.35,0.29,4.93,0.86c0.14-0.11,0.79-0.6,0.79-0.6l0.39-0.25c4.3-2.74,9.01-4.14,13.99-4.14
		c4.06,0,8.01,1.09,11.82,3.26c2.81-2.46,6.36-3.82,10.24-3.82c5.8,0,12.92,3.4,15.53,12.94l0.42,1.55v1.61
		c0,1.5-0.03,3.02-0.08,4.53c0.88-0.15,1.79-0.23,2.71-0.23h0.19c5.25,0,12.39,2.49,16.59,14.36l0.68,1.94v2.05
		c0,10.76-8.89,16.89-26.44,18.24c-1.37,0.36-2.27,0.69-2.8,0.92c-3.11,4.38-8.03,6.86-13.75,6.86c-1.38,0-3.68-0.2-6.17-1.28
		C161.42,69.44,157.99,70,154.59,70z"/>
	<path class="st1" d="M156.19,61.32c-5,0-9.4-1.44-12.98-4.21c-1.75,0.87-3.81,1.71-6.24,2.57l-0.23,0.08l-0.24,0.06
		c-3.83,1-7.43,1.51-10.72,1.51c-3.17,0-6.19-0.56-9.04-1.67c-1.05,0.63-2.35,1.16-3.96,1.52l-0.65,0.15h-0.86
		c-4.66,0-8-3.87-9.47-5.79l-4.82-4.08c-2.5,5.99-7.14,6.69-9.17,6.69h-0.19c-0.37,0-0.74-0.02-1.11-0.06
		c-1.49,1.59-3.75,2.8-6.97,3.2l-0.37,0.05H78.8c-4.15,0-8.82-2.58-9.54-9.83l-0.32-2.59c-1.31,0.42-2.94,0.99-4.96,1.74l-0.14,0.68
		c-0.6,2.84-1.38,4.33-3.44,6.15c-2.06,1.83-6.01,2.35-6.01,2.35c-2.01,0-5.01-0.57-7.46-3.44c-3.25,1.87-6.42,3.21-9.47,3.99
		l-0.27,0.07l-5.45,0.87h-0.48c-6.83,0-16.19-2.73-22.01-15.72l-0.15-0.33L9,44.92c-0.92-2.99-1.39-6.42-1.39-10.18
		c0-13.56,7.21-19.52,13.31-22.13c3.68-1.71,7.98-2.58,12.78-2.58c6.63,0,11.59,1.43,14.81,4.27c0.76-1.56,1.59-3.06,2.5-4.48
		l0.31-0.49l0.4-0.42c3.6-3.77,7.05-5.61,10.55-5.61h1.31c6.5,0,12.24,4.58,17.51,13.99c0.82-0.21,1.68-0.33,2.58-0.33
		c3.14,0,6.43,1.66,15.68,10.72l1.78,1.48v-8.75l0.03-0.29c0.58-5.9,4.47-9.71,9.92-9.71c2.69,0,5.62,1.05,7.57,3.68
		c2.74-0.95,5.44-1.43,8.06-1.43c1.92,0,4.1,0.4,6.59,1.21c1.39-0.68,2.76-1.02,4.11-1.02c2.29,0,4.16,0.87,5.68,2.12
		c1.01-0.97,2.11-1.9,3.28-2.78l0.18-0.14l0.2-0.12c3.32-2.12,6.93-3.19,10.75-3.19c4.45,0,8.82,1.84,13.04,5.48
		c1.82-3.85,5.07-6.04,9.02-6.04c2.23,0,7.63,0.83,9.74,8.53l0.21,0.77v0.8c0,4.98-0.3,10.02-0.89,15.06c0.49-0.08,1-0.16,1.52-0.24
		c1.91-3.26,5.12-4.53,8.01-4.53h0.19c4.81,0,8.49,3.49,10.92,10.36l0.34,0.97v1.03c0,10.53-15.07,11.86-21.41,12.3
		c-4,1-5.57,1.98-6.09,2.38c-1.92,3.41-5.31,5.34-9.48,5.34c-1.02,0-3.43-0.2-5.62-1.87C163.37,60.56,159.75,61.32,156.19,61.32z
		 M126.15,41.66c2.76,0,5.37-0.59,7.89-1.78c-0.1-0.93-0.16-1.83-0.19-2.71c-0.31-0.37-0.63-0.76-0.95-1.18
		c-3.42-2.59-4.99-3.32-5.46-3.5h-2.05c-1.41,0-2.92,1.13-4.48,3.37l0.07,3.57c0.56,0.49,1.51,1.18,3.13,2.01l2,0.22H126.15z
		 M30.01,41.46c0.34,0.14,0.64,0.21,0.88,0.21c1.63,0,5.33-0.86,12.19-6.39c0.13-1.49,0.3-2.94,0.51-4.37
		c-0.04,0.01-1.52,0.24-1.52,0.24l-1.35-0.42c-2.19-0.69-4.49-1.03-6.83-1.03c-3.77,0-5.77,0.77-6.08,1.53
		c-0.17,0.42-0.49,1.57-0.49,3.9C27.32,39.86,29.1,40.99,30.01,41.46z M64.39,27.66c-0.19,0.75-0.4,1.58-0.61,2.52
		c0.45-0.13,0.91-0.26,1.37-0.39C64.88,28.96,64.62,28.26,64.39,27.66z"/>
	<path class="st2" d="M200.03,32.55h-0.19c-2,0-3.19,1.31-3.57,3.93c-6.13,0.87-10.51,1.68-13.14,2.43v-0.19
		c1.38-7.52,2.06-15,2.06-22.46c-0.75-2.74-2.06-4.12-3.94-4.12c-1.69,0-2.94,1-3.75,2.99c0,8.5-0.64,15.74-1.91,21.73
		c-6.5,5.51-12.15,8.44-16.96,8.77h-0.94l-2.63-0.37c-3.75-1.84-5.63-4.84-5.63-8.98v-0.56c3.1,1,5.79,1.5,8.07,1.5
		c7.01,0,11.76-1.19,14.27-3.56c1.53-2.12,2.41-4.24,2.63-6.36c0-2.12-1-4.62-3-7.49c-4.16-4.74-8.23-7.11-12.2-7.11
		c-2.66,0-5.16,0.75-7.51,2.25c-3.16,2.38-5.58,5.07-7.26,8.07c-1.75-4.11-3.52-6.19-5.32-6.19c-0.88,0-2,0.56-3.38,1.68
		c-3.03-1.25-5.48-1.87-7.32-1.87c-3.13,0-6.45,0.94-9.95,2.81c-0.68,0.45-1.31,0.91-1.92,1.38V18.7c-0.31-2.87-1.56-4.3-3.75-4.3
		c-2.35,0-3.66,1.43-3.94,4.3v12.79c-0.47,1.64-0.7,3.37-0.7,5.18c0.14,1.08,0.36,2.07,0.61,2.99h-0.28l-11.45-9.55
		c-6.23-6.11-10.11-9.17-11.64-9.17c-1.94,0-3.25,1.19-3.94,3.56l0.19,1.87c0.47,1.56,0.9,3.02,1.29,4.4
		c-0.29-0.06-0.59-0.09-0.91-0.09L78.63,20.2C74.22,11.59,69.77,7.29,65.3,7.29h-1.31c-1.75,0-3.82,1.25-6.19,3.74
		c-4.16,6.53-6.54,14.7-7.15,24.5c-0.25,0.41-0.51,0.85-0.78,1.33c-6.98,5.87-12.73,8.8-17.27,8.8c-1.1,0-2.22-0.25-3.38-0.75
		c-4.13-2.03-6.19-5.96-6.19-11.79c0-2.56,0.31-4.62,0.94-6.18c1.44-3.49,5.32-5.24,11.64-5.24c2.97,0,5.85,0.44,8.64,1.31
		c2.38-0.37,3.57-1.5,3.57-3.37l-0.19-1.12c-1.6-2.99-5.66-4.49-12.2-4.49c-3.97,0-7.41,0.69-10.32,2.06
		c-6.51,2.75-9.76,8.3-9.76,16.66c0,3.18,0.38,5.99,1.13,8.42c3.63,8.11,9.14,12.17,16.52,12.17l4.69-0.75
		c4.2-1.08,8.68-3.44,13.43-7.01c0.91,4.17,2.58,6.27,5.01,6.27v-0.19c1.88,0,3.07-1.19,3.57-3.56l-0.94-2.81v-0.37
		c8.76-3.49,14.39-5.24,16.89-5.24h0.19l1.13,9.17c0.28,2.99,1.47,4.49,3.57,4.49c2.75-0.34,4.13-1.53,4.13-3.56
		c0-1.56-0.38-5.36-1.13-11.42v-0.19c0.43-0.31,0.8-0.61,1.13-0.91c0.87,3.61,1.31,6.22,1.31,7.83l-0.19,0.94
		c0.34,2.75,1.53,4.12,3.57,4.12h0.19c1.94,0,3.32-1.5,4.13-4.49c-0.25-3.43-0.63-6.43-1.13-8.98h0.38l15.02,12.73
		c1.94,2.62,3.63,3.93,5.07,3.93h0.19c2.43-0.54,3.67-1.62,3.74-3.22c3.18,2.14,6.71,3.22,10.57,3.22c2.78,0,5.85-0.44,9.2-1.31
		c4.38-1.53,7.41-3.04,9.1-4.53c2.92,3.88,6.95,5.84,12.11,5.84c3.6,0,7.29-1,11.08-2.99c0.63-0.33,1.23-0.66,1.82-0.99
		c0.55,2.4,1.72,3.61,3.53,3.61c2.19,0,3.69-0.94,4.51-2.81c1.53-2,4.91-3.62,10.14-4.87c10.89-0.75,16.33-2.87,16.33-6.36
		C203.79,34.68,202.04,32.55,200.03,32.55z M158.83,20.39l1.5,0.19c4.13,2.18,6.19,4.37,6.19,6.55v0.56c0,1.25-2.88,1.87-8.64,1.87
		c-3.32,0-5.63-0.69-6.95-2.06C153.07,22.76,155.7,20.39,158.83,20.39z M58.52,36.62c0.1-0.33,0.16-0.63,0.16-0.88v-0.19
		c0-0.54-0.12-1.03-0.33-1.47c0.14-1.5,0.32-2.83,0.57-3.96c2.06-10.11,4.07-15.16,6.01-15.16c1.03,0,2.53,1.37,4.51,4.12
		c1.6,2.12,3.22,6.43,4.88,12.91C67.79,33.69,62.53,35.23,58.52,36.62z M142.31,40.98c-4.51,3.12-9.32,4.68-14.45,4.68h-0.38
		l-3.38-0.37c-3.81-1.81-6.27-3.72-7.38-5.72l-0.13-6.88c0.16-0.43,0.34-0.9,0.56-1.44c2.91-4.49,6.23-6.74,9.95-6.74h2.44
		c1.75,0,4.88,1.75,9.39,5.24c0.97,1.32,1.86,2.34,2.68,3.11c-0.03,0.52-0.05,1.04-0.05,1.57c0,1.68,0.19,3.49,0.56,5.43
		c0.11,0.38,0.24,0.74,0.36,1.1L142.31,40.98z"/>
</g>
</svg>
