<?xml version="1.0" encoding="utf-8"?>
<!-- Generator: Adobe Illustrator 25.2.0, SVG Export Plug-In . SVG Version: 6.00 Build 0)  -->
<svg version="1.1" xmlns="http://www.w3.org/2000/svg" xmlns:xlink="http://www.w3.org/1999/xlink" x="0px" y="0px"
	 viewBox="0 0 101 96" style="enable-background:new 0 0 101 96;" xml:space="preserve">
<style type="text/css">
	.st0{fill:#FFFFFF;}
</style>
<g id="Layer_2">
</g>
<g id="Layer_3">
	<path class="st0" d="M100.4,7c1-1.6,0.8-3.9-0.6-5.3c-1.1-1.5-3.3-1.9-5-1.1c-29-0.8-58.1-0.7-87.1,0.4C4.2,1.1,3.1,4.9,4.4,7.2
		c-1.5,0.4-2.8,1.6-3,3.7c-1.6,26.9-1.8,53.8-0.7,80.7c0,0.6,0.2,1.1,0.4,1.6c0,0,0,0,0,0c0,0,0,0.1,0.1,0.1
		c0.5,1.3,1.7,2.4,3.6,2.4c27.9,0.1,55.9,0.2,83.8,0.4c2,0,3.2-1.2,3.7-2.7c0.7,0,1.4,0,2.2,0c1.7,0.7,3.8,0.3,4.9-1.2
		c1-1.2,1.2-3,0.6-4.5C99.3,60.7,99.6,33.8,100.4,7z M92.3,8.4c-0.7,25.6-1,51.2-0.5,76.9c-26.6,0-53.1-0.5-79.7-0.6
		c-0.9-25.3-0.8-50.6,0.2-76c1.6-0.1,3.2-0.1,4.8-0.2c0.1,3.1,0.2,6.2,0.3,9.2c0.1,1.9,3.1,1.9,3,0c-0.1-3.1-0.2-6.2-0.3-9.3
		c0.4,0,0.7,0,1.1,0c0,0.6,0,1.3,0.1,1.9c0.1,0.4,0.1,0.8,0.4,1.1c0.3,0.3,0.7,0.5,1.1,0.4c0.4,0,0.8-0.1,1.1-0.4
		c0.2-0.3,0.5-0.7,0.4-1.1c-0.1-0.7-0.1-1.3-0.1-2C46.9,7.8,69.6,7.8,92.3,8.4z"/>
</g>
<g id="Layer_1">
</g>
</svg>
