<?xml version="1.0" encoding="utf-8"?>
<!-- Generator: Adobe Illustrator 25.2.0, SVG Export Plug-In . SVG Version: 6.00 Build 0)  -->
<svg version="1.1" id="Layer_1" xmlns="http://www.w3.org/2000/svg" xmlns:xlink="http://www.w3.org/1999/xlink" x="0px" y="0px"
	 viewBox="0 0 222 222" style="enable-background:new 0 0 222 222;" xml:space="preserve">
<style type="text/css">
	.st0{fill:url(#SVGID_1_);}
	.st1{fill:#BBBDBF;}
	.st2{fill:#231F20;}
	.st3{fill:url(#SVGID_2_);}
	.st4{fill:#020202;}
	.st5{fill:#FFFFFF;}
</style>
<g>
	
		<linearGradient id="SVGID_1_" gradientUnits="userSpaceOnUse" x1="0" y1="499" x2="222" y2="499" gradientTransform="matrix(1 0 0 1 0 -388)">
		<stop  offset="0" style="stop-color:#3D3D3D"/>
		<stop  offset="1" style="stop-color:#262626"/>
	</linearGradient>
	<circle class="st0" cx="111" cy="111" r="111"/>
	<g>
		<path class="st1" d="M82.1,179.4c-3.8,0-7.4-1.5-9.8-4.1c-7.7-8.1-15.6-16.1-23.5-23.9c-4.2-4.2-5.2-10.4-2.7-15.6
			c-0.3-4,1.1-8,4.1-10.7c2.6-2.5,5.2-5,7.8-7.5c-3.7-3.7-7.2-7.5-10.5-11.2c-3.3-3.7-4.4-8.5-3.2-12.9c-4.3-5.3-4-12.9,0.7-18
			c0.6-0.7,1.3-1.3,2.1-1.8C54.8,63.9,63.6,55,73,47c0.2-0.2,0.5-0.4,0.7-0.5c2.5-2.3,5.7-3.5,9.1-3.5c3.7,0,7.3,1.5,9.8,4.1
			c6,6.2,12.4,12.3,19.1,18.2c2.1-2,4.2-3.9,6.3-5.7c4.8-4.3,9.3-8.4,13.6-12.7c2.5-2.6,5.9-4,9.6-4c1.5,0,3.1,0.3,4.6,0.8
			c2.4,0.5,4.8,1.6,6.7,3.2c8.7,7.3,16.9,15.3,24.3,23.9c1.7,2,2.8,4.3,3.3,6.7c1.8,5,0.6,10.7-3.2,14.4c-3.4,3.4-6.8,6.8-10.1,10.2
			v1.8c0,2.7-1,5.4-2.9,7.4c-0.4,0.5-0.9,0.9-1.4,1.3c1.8,1.6,3.6,3.2,5.4,4.6c1,0.9,2.1,1.7,3.2,2.6c0,0,1,0.8,1.1,0.9l1,0.8
			c0.7,0.6,1.4,1.2,2,1.8c0.4,0.3,0.8,0.6,1.1,0.9c5.3,4.8,5.6,12.8,0.9,18.8c-8.5,10.9-17.5,21.6-26.7,31.9
			c-2.5,2.8-5.9,4.3-9.7,4.3c0,0,0,0,0,0c-1.2,0-2.5-0.2-3.7-0.5c-1.3,0.4-2.7,0.6-4.2,0.6c-3.7,0-7.2-1.4-9.7-4L108.9,161
			c-4.5,4.4-9,8.7-13.5,12.9c-1.7,1.6-3.7,2.7-5.8,3.3C87.4,178.6,84.8,179.4,82.1,179.4z"/>
		<path class="st2" d="M73.9,128.6c-1.5,1.5-3,2.9-4.5,4.4c1.5,1.4,3,2.9,4.5,4.4C73.8,134.4,73.8,131.5,73.9,128.6z"/>
		<linearGradient id="SVGID_2_" gradientUnits="userSpaceOnUse" x1="60.38" y1="107.3024" x2="168.8214" y2="107.3024">
			<stop  offset="0" style="stop-color:#EC2B3D"/>
			<stop  offset="1" style="stop-color:#A31D42"/>
		</linearGradient>
		<path class="st3" d="M142,108c-0.8-0.8-0.5-1.8,0.1-2.5c0,0,0.1-0.1,0.2-0.1l0.8-0.6l0.4-0.8c0.1-0.3,0.2-0.3,0.2-0.3
			c4.4-4.4,8.8-8.9,13.1-13.3c3.1-3.2,6.3-6.5,9.5-9.7l2.7-2.7l-2.5-2.8c-5.7-6.4-11.9-12.4-18.3-18l-2.8-2.4l-2.6,2.6
			c-3.4,3.3-7.1,6.6-10.6,9.8c-4.7,4.3-9.6,8.7-14.2,13.3c-0.1,0.1-0.2,0.2-0.4,0.3l-0.7,0.3l-0.5,0.5c-0.1,0.1-0.2,0.2-0.5,0.3
			l-0.4,0.1l-0.5-0.1c-0.4-0.1-0.9-0.3-1.2-0.6c-8.6-7-17-14.6-25.2-22.8l-2.7-2.7L83,58.2C75.7,64.7,68.9,71.7,62.7,79l-2.3,2.8
			l2.5,2.6c8.1,8.3,15.6,15.7,22.9,22.5c0,0,0,0,0.1,0.2l0.4,0.5l0.5,0.4c0.1,0.1,0.3,0.2,0.4,0.3c0.1,0.2,0.2,0.5,0.2,0.9
			c0,0.5-0.2,0.9-0.4,1.2c-1.4,1.3-2.8,2.7-4.2,4.1l0-0.1l-4.3,4.3l0,0l-7.4,7.2c-1.5,1.4-3,2.9-4.4,4.3l-3,2.9l3.1,2.9
			c1.8,1.7,3.2,3,4.4,4.3l2.2,2.2l0,0.1l0.9,0.9c3.9,4.1,7.7,8.3,11.2,12.6l2.7,3.3l3.1-2.9c6.9-6.5,14.2-13.5,21.1-21.1
			c0.1-0.1,0.2-0.1,0.3-0.2l0.9-0.4l0.6-0.7c0-0.1,0.1-0.1,0.1-0.2c0.3-0.2,0.6-0.3,0.8-0.3c0.5,0,1,0.2,1.4,0.5
			c4.6,4.4,9.1,8.7,13.6,13.1c3.4,3.3,6.8,6.6,10.2,9.9l3,2.9l2.8-3.1c6.5-7.4,12.9-15,19.1-22.8l2.5-3.2l-3.2-2.5
			C156.8,122.2,149.2,115.4,142,108z"/>
		<path class="st4" d="M172.9,126c-0.4-0.5-0.9-1-1.5-1.5c-0.3-0.2-0.6-0.4-0.9-0.7c-0.1-0.1-1-0.8-0.3-0.2c0.7,0.6-0.3-0.2-0.3-0.3
			c-0.3-0.2-0.5-0.4-0.8-0.6c-1.1-0.9-2.2-1.8-3.3-2.7c-2.3-1.9-4.5-3.8-6.7-5.8c-2.7-2.5-5.4-5-8.1-7.6c1.8-1.8,3.6-3.6,5.3-5.4
			c0.1,0.5,0.3,1,0.7,1.4c0.5,0.5,1.3,0.9,2,0.8c0.7,0,1.5-0.3,2-0.8c0.5-0.6,0.8-1.2,0.8-2c0-1.6,0-3.2,0-4.8c0-0.1,0-0.1,0-0.2
			c4.1-4.3,8.3-8.5,12.5-12.7c1.7-1.7,2.1-4.5,1-6.6c-0.1-1.3-0.6-2.5-1.6-3.6c-7.2-8.3-15-16-23.4-23c-1-0.9-2.3-1.4-3.6-1.6
			c-2.1-0.9-4.6-0.7-6.3,1.1c-8.1,8.3-17.1,15.6-25.4,23.7c-8.8-7.4-17.2-15.2-25.1-23.4c-2.1-2.1-6-2.2-8,0c0,0,0,0,0,0
			c-0.2,0.1-0.4,0.3-0.6,0.5C72,57.8,63.6,66.4,55.9,75.7c-0.2,0.2-0.3,0.5-0.5,0.7c-0.6,0.3-1.2,0.6-1.6,1.1c-2.1,2.3-2.2,5.7,0,8
			c1.1,1.2,2.3,2.3,3.5,3.5c-0.3,0.2-0.6,0.3-0.9,0.6c-2.2,2.4-2.1,5.7,0,8c5.1,5.7,10.5,11.2,16,16.6c-4.5,4.5-9.1,8.9-13.7,13.3
			c-1.7,1.6-2,4.4-1,6.6c-0.1,0.1-0.2,0.2-0.3,0.2c-2.1,2.2-2.3,5.8,0,8c8,7.9,16,15.9,23.7,24.1c2,2.2,6,2.2,8,0c0,0,0-0.1,0.1-0.1
			c1.4,0,2.7-0.5,3.8-1.6c6.5-6.1,12.9-12.2,19.1-18.6c0.2,0.4,0.5,0.9,0.9,1.3c6.3,6.3,12.6,12.5,18.9,18.8c2.1,2.1,5.9,2.3,8,0.1
			c2.2,1.8,5.7,2.1,7.8-0.2c9.2-10.2,17.9-20.7,26.4-31.5c1.8-2.3,2.4-5.8,0-8C173.7,126.4,173.3,126.2,172.9,126z M74,137.3
			c-1.5-1.5-3-2.9-4.5-4.4c1.5-1.4,3-2.9,4.5-4.4C73.8,131.5,73.8,134.4,74,137.3z M88.6,153.4c-3.6-4.4-7.5-8.7-11.4-12.8
			c-0.7-5-0.7-10-0.2-15c0.4-0.4,0.9-0.9,1.3-1.3c-0.1,1-0.1,2.1-0.1,3.1c0,0.7,0.7,1.5,1.4,1.4c0.8,0,1.4-0.6,1.4-1.4
			c0-2,0.1-4,0.2-6c2.8-2.8,5.7-5.6,8.5-8.3c2.2-2.1,2.2-6,0-8c-0.2-0.2-0.4-0.2-0.6-0.4c-0.2-0.3-0.4-0.5-0.7-0.8
			c-7.8-7.2-15.4-14.7-22.8-22.3c6.1-7.3,12.8-14.1,19.9-20.4c8.1,8.1,16.6,15.8,25.5,23.1c0.8,0.6,1.7,1.1,2.6,1.4
			c0.4,5.1,0.6,10.3,0.4,15.4c-0.1,1.8,2.8,1.8,2.8,0c0.2-5.1,0-10.2-0.4-15.3c0.9-0.2,1.8-0.6,2.5-1.4c0.6-0.3,1.1-0.6,1.5-1.1
			c7.9-8.1,16.6-15.2,24.7-23.1c6.4,5.5,12.4,11.4,18,17.7c-7.6,7.6-14.9,15.4-22.6,23c-0.4,0.4-0.7,0.8-0.9,1.3
			c-0.3,0.2-0.5,0.4-0.7,0.6c-2.1,2.3-2.2,5.8,0,8c7.2,7.3,14.9,14.3,23,20.6c-6.1,7.7-12.4,15.2-18.9,22.6
			c-7.9-7.6-15.8-15.4-23.8-23c-2.1-2.1-5.9-2.3-8,0c-0.1,0.1-0.1,0.2-0.2,0.3c-0.6,0.3-1.1,0.6-1.6,1.1
			C102.9,139.8,95.8,146.6,88.6,153.4z"/>
		<path class="st5" d="M83.8,83.4c0.5-0.8,1-1.6,1.5-2.3c-0.2,0.3-0.4,0.6-0.7,0.9c1-1.2,2.1-2.3,3.3-3.3c-0.3,0.2-0.6,0.4-0.9,0.7
			c0.1-0.1,0.2-0.1,0.2-0.2c0.5-0.3,0.9-0.6,1.2-1.1c0.4-0.4,0.6-0.9,0.8-1.4c0.2-0.6,0.2-1.1,0.1-1.7c0-0.6-0.2-1.1-0.5-1.6
			c-0.6-0.9-1.5-1.7-2.5-2c-0.4-0.1-0.8-0.1-1.1-0.2c-0.8,0-1.5,0.2-2.1,0.6c-1.3,1-2.6,2-3.7,3.3c-1.1,1.2-2.1,2.6-2.9,4
			c-0.5,1-0.7,2.2-0.4,3.3c0.1,0.6,0.4,1,0.8,1.4c0.3,0.5,0.7,0.8,1.2,1.1c1,0.5,2.2,0.8,3.3,0.4C82.3,85,83.2,84.4,83.8,83.4
			L83.8,83.4z"/>
	</g>
</g>
</svg>
