<?xml version="1.0" encoding="utf-8"?>
<!-- Generator: Adobe Illustrator 25.2.0, SVG Export Plug-In . SVG Version: 6.00 Build 0)  -->
<svg version="1.1" id="Layer_1" xmlns="http://www.w3.org/2000/svg" xmlns:xlink="http://www.w3.org/1999/xlink" x="0px" y="0px"
	 viewBox="0 0 70 59" style="enable-background:new 0 0 70 59;" xml:space="preserve">
<style type="text/css">
	.st0{fill:#FFFFFF;}
	.st1{fill:#A7A9AC;}
</style>
<g>
	<path class="st0" d="M69.25,11.8c-3.56-3.68-7.11-7.36-10.67-11.04c-0.97-1-2.78-1.05-3.73,0c-0.19,0.21-0.33,0.44-0.45,0.68
		c-8.72,8.69-17.23,17.59-25.55,26.67c-2.7-2.79-5.39-5.59-8.09-8.38c-0.96-1-2.78-1.05-3.73,0c-0.15,0.17-0.27,0.35-0.38,0.53
		c-0.02,0.02-0.05,0.03-0.07,0.06c-3.43,3.44-6.86,6.88-10.29,10.32c-0.37,0.37-0.6,0.85-0.7,1.36c-0.6,0.93-0.67,2.17,0.35,3.18
		c0.25,0.25,0.49,0.51,0.74,0.76c-0.07,0.06-0.14,0.1-0.2,0.17c-1.05,1.06-0.97,2.71,0,3.77c5.75,6.32,11.7,12.44,17.86,18.36
		c1.03,0.99,2.71,1.04,3.73,0c0.22-0.23,0.39-0.5,0.52-0.78c0.66,0.07,1.36-0.16,1.96-0.84c6.36-7.22,13-14.18,19.67-21.1
		c0,3.1,0,6.2,0,9.3c0,1.14,1.76,1.14,1.76,0c0-3.71,0-7.42,0-11.13c5.51-5.71,11.03-11.41,16.42-17.24
		c0.15-0.16,0.27-0.33,0.37-0.5c0.17-0.11,0.33-0.23,0.47-0.38C70.22,14.5,70.28,12.87,69.25,11.8z"/>
	<path class="st1" d="M28.44,51.07c-5.54-6.13-11.26-12.13-17.1-17.96c2.53-2.54,5.07-5.09,7.6-7.63c2.58,2.67,5.15,5.34,7.73,8.01
		c0.16,0.16,0.34,0.29,0.54,0.4c0,0.2,0,0.41,0,0.61c0,0.46,0.4,0.91,0.88,0.89c0.48-0.02,0.88-0.39,0.88-0.89c0-0.09,0-0.19,0-0.28
		c0.2-0.03,0.41-0.08,0.6-0.16c0.03,0,0.06,0,0.09,0c-0.03,1.2-0.02,2.41,0.04,3.62c0.02,0.48,0.39,0.89,0.88,0.89
		c0.46,0,0.9-0.41,0.88-0.89c-0.07-1.53-0.05-3.07,0.01-4.6c8.24-9.04,16.7-17.87,25.34-26.51c2.3,2.38,4.6,4.76,6.91,7.14
		C52.05,26.25,39.84,38.28,28.44,51.07z"/>
	<path class="st0" d="M15.41,17.96c0.75-0.72,0.77-2.11,0-2.83c-0.81-0.75-1.99-0.77-2.8,0c-4.03,3.86-8.01,7.77-12.04,11.63
		c-0.75,0.72-0.77,2.11,0,2.83c0.25,0.23,0.54,0.37,0.84,0.46c-0.01,0.05-0.03,0.1-0.03,0.15c0,0.34,0,0.68,0,1.02
		c0,0.12,0.02,0.24,0.08,0.34c0.04,0.11,0.1,0.21,0.18,0.29c0.08,0.09,0.17,0.15,0.28,0.18c0.1,0.06,0.22,0.08,0.34,0.08
		c0.23-0.01,0.46-0.09,0.62-0.26c0.16-0.17,0.26-0.39,0.26-0.63c0-0.34,0-0.68,0-1.02c0-0.12-0.02-0.24-0.08-0.34
		c-0.01-0.02-0.02-0.03-0.03-0.05c0.11-0.07,0.23-0.12,0.34-0.22C7.4,25.74,11.38,21.82,15.41,17.96z"/>
</g>
</svg>
