<?xml version="1.0" encoding="utf-8"?>
<!-- Generator: Adobe Illustrator 25.2.0, SVG Export Plug-In . SVG Version: 6.00 Build 0)  -->
<svg version="1.1" id="Layer_1" xmlns="http://www.w3.org/2000/svg" xmlns:xlink="http://www.w3.org/1999/xlink" x="0px" y="0px"
	 viewBox="0 0 210 210" style="enable-background:new 0 0 210 210;" xml:space="preserve">
<style type="text/css">
	.st0{fill:url(#SVGID_1_);}
	.st1{fill:#020202;}
	.st2{fill:#FFFFFF;}
</style>
<g>
	<linearGradient id="SVGID_1_" gradientUnits="userSpaceOnUse" x1="0" y1="105" x2="210" y2="105">
		<stop  offset="0" style="stop-color:#F3EA42"/>
		<stop  offset="1" style="stop-color:#7E8936"/>
	</linearGradient>
	<circle class="st0" cx="105" cy="105" r="105"/>
	<g>
		<path class="st1" d="M173.83,57.51c-19.79-13.62-39.98-25.74-60.01-36.03c-0.61-0.31-1.15-0.53-1.49-0.65
			c-2.13-0.95-4.38-1.43-6.7-1.43c-2.97,0-5.94,0.82-8.61,2.39l-6.97,4.07c-16.7,9.75-33.98,19.83-50.52,30.78
			c-1.13,0.75-2.15,1.6-3.05,2.55c-4.35,3.08-6.92,7.96-7.01,13.56l-0.89,60.59c-1.16,7,2.1,13.79,8.49,17.32
			c13.66,7.53,27.3,15.58,40.6,23.98c0.01,0.29,0.02,0.57,0.04,0.86c0.35,6.51,5.28,11.71,11.51,12.46c2.26,1.7,5.02,2.65,7.84,2.65
			l0.32,0l0.25-0.01c1.69-0.08,3.3-0.46,4.76-1.09c1.65,0.55,3.38,0.83,5.13,0.83c3.01,0,6.03-0.85,8.72-2.46l54.05-32.23
			c3.59-2.14,6.2-5.39,7.46-9.18c1.32-2.38,2.04-5.07,2.12-7.93l1.8-66.31C181.82,66.04,178.92,60.62,173.83,57.51z"/>
		<path class="st2" d="M173.45,66.91c0.07-2.52-1.16-4.21-2.85-5.1c-0.05-0.04-0.09-0.09-0.15-0.12
			c-18.85-12.97-38.42-24.84-58.78-35.29c-0.23-0.12-0.46-0.18-0.68-0.27c-1.55-0.78-3.46-0.88-5.43,0.27
			C86.39,37.6,67.12,48.64,48.59,60.91c-0.79,0.52-1.38,1.14-1.82,1.81c-1.82,0.86-3.22,2.58-3.25,5.19
			c-0.3,20.47-0.6,40.94-0.9,61.41c0,0.06,0.01,0.11,0.01,0.17c-0.64,2.32-0.01,4.91,2.73,6.42c15.81,8.71,31.3,17.95,46.48,27.7
			c-0.17,2.09-0.22,4.19-0.1,6.28c0.06,1.05,0.89,2.07,2.02,2.02c1.04-0.05,2.08-0.89,2.02-2.02c-0.07-1.24-0.07-2.48-0.04-3.73
			c0.89,0.58,1.77,1.16,2.65,1.74c-0.12,1.52-0.25,3.03-0.37,4.55c-0.09,1.05,0.99,2.06,2.02,2.02c1.17-0.05,1.93-0.89,2.02-2.02
			c0.06-0.68,0.11-1.36,0.17-2.04c0.97,0.65,1.96,1.27,2.93,1.92c0.79,0.53,1.57,0.83,2.32,0.96c1.64,1.07,3.77,1.33,5.98,0.02
			c18.02-10.74,36.04-21.48,54.05-32.23c1.77-1.06,2.63-2.57,2.83-4.14c0.77-0.93,1.28-2.14,1.32-3.67
			C172.25,111.14,172.85,89.02,173.45,66.91z M61.78,131.27c4.93-1.41,9.85-2.83,14.78-4.24c6.35,8.21,12.71,16.41,19.06,24.62
			C84.51,144.57,73.22,137.8,61.78,131.27z M99.45,56.54c0.31-4.37,0.62-8.74,0.93-13.11c2.01-1.17,4.02-2.35,6.02-3.52
			c-0.66,8.16-1.14,16.34-1.43,24.52c-12.46-1.61-25.02-2.01-37.53-1.25c10.16-6.36,20.48-12.48,30.83-18.53
			c-0.28,3.96-0.56,7.92-0.85,11.88C97.34,57.83,99.36,57.83,99.45,56.54z M159.62,130.35c-5.36-2.77-10.72-5.53-16.07-8.3
			c6-14.95,11.82-29.96,17.52-45.03C160.59,94.81,160.1,112.58,159.62,130.35z M77.89,116.23c-6.66-15.36-13.2-30.77-19.59-46.24
			c14.41-1.55,28.92-1.5,43.31,0.11C93.46,85.35,85.55,100.73,77.89,116.23z M55.46,78.78c5.95,14.31,12,28.57,18.18,42.79
			c-6.3,1.81-12.59,3.61-18.89,5.42C54.99,110.92,55.22,94.85,55.46,78.78z M81.28,123.32c-0.01-0.31-0.07-0.61-0.16-0.91
			c0.39-0.25,0.75-0.62,1.02-1.16c4.76-9.66,9.62-19.26,14.56-28.82c-0.1,1.6-0.21,3.2-0.31,4.79c-0.07,1.09,0.98,2.02,2.02,2.02
			c1.15,0,1.95-0.93,2.02-2.02c0.29-4.54,0.58-9.09,0.88-13.63c2.04-3.88,4.09-7.75,6.16-11.62c8.35,16.24,17,32.33,25.93,48.26
			c-11.16-0.33-22.33-0.41-33.5-0.2c-3.89,0.07-3.9,6.13,0,6.05c11.6-0.22,23.21-0.13,34.8,0.24c-8.59,10.96-17.04,22.03-25.37,33.2
			C99.97,147.46,90.62,135.39,81.28,123.32z M138.84,117.6c-8.82-15.74-17.37-31.63-25.64-47.67c3.63-0.37,7.26-0.69,10.9-0.98
			c-0.12,1.36-0.24,2.72-0.36,4.08c-0.05,0.54,0.5,1.01,1.01,1.01c0.59,0,0.96-0.46,1.01-1.01c0.13-1.42,0.25-2.84,0.38-4.27
			c4.65-0.35,9.3-0.64,13.96-0.86c1.63-0.08,3.03-1.34,3.03-3.03c0-1.58-1.39-3.1-3.03-3.03c-9.27,0.44-18.52,1.14-27.75,2.11
			c-0.47,0.05-0.91,0.18-1.31,0.38c0.28-7.97,0.75-15.94,1.38-23.89c15.69,8.37,30.9,17.57,45.68,27.46
			C151.87,84.54,145.44,101.1,138.84,117.6z M141.24,127.67c4.48,2.31,8.96,4.63,13.45,6.94c-11.55,6.89-23.1,13.77-34.65,20.66
			C127.02,146.01,134.07,136.79,141.24,127.67z M92.58,121.83c0.19,0.36,0.28,0.75,0.26,1.17c0,0.17,0,0.34,0,0.51
			c0,0.55-0.14,1.06-0.41,1.53c-0.16,0.2-0.32,0.41-0.47,0.61c-0.38,0.38-0.82,0.63-1.34,0.78c-0.27,0.04-0.54,0.07-0.8,0.11
			c-0.42,0.02-0.81-0.07-1.17-0.26c-0.38-0.12-0.7-0.33-0.97-0.63c-0.3-0.27-0.5-0.6-0.63-0.97c-0.19-0.36-0.28-0.75-0.26-1.17
			c0-0.17,0-0.34,0-0.51c0-0.55,0.14-1.06,0.41-1.53c0.16-0.2,0.32-0.41,0.47-0.61c0.38-0.37,0.82-0.63,1.34-0.78
			c0.27-0.04,0.54-0.07,0.8-0.11c0.42-0.02,0.81,0.07,1.17,0.26c0.38,0.12,0.7,0.33,0.97,0.63
			C92.25,121.13,92.46,121.45,92.58,121.83z M83.07,77.03c0.03,0.75-0.36,1.61-0.89,2.14c-0.51,0.51-1.4,0.94-2.14,0.89
			c-0.87-0.07-1.75-0.06-2.62-0.07c0.52,0.96,1.03,1.92,1.55,2.89c0.4,0.74,0.49,1.52,0.31,2.33c-0.18,0.77-0.74,1.39-1.39,1.81
			c-0.64,0.41-1.61,0.5-2.33,0.31c-0.71-0.19-1.46-0.74-1.81-1.39c-1.02-1.9-2.03-3.79-3.05-5.69c-0.1-0.19-0.13-0.39-0.19-0.58
			c-0.53-0.39-0.9-0.98-1.1-1.6c-0.24-0.73-0.07-1.68,0.31-2.33c0.33-0.57,1.11-1.3,1.81-1.39c2.84-0.39,5.66-0.55,8.53-0.33
			c0.84,0.06,1.52,0.32,2.14,0.89C82.77,75.43,83.03,76.24,83.07,77.03z"/>
	</g>
</g>
</svg>
