<?xml version="1.0" encoding="utf-8"?>
<!-- Generator: Adobe Illustrator 25.2.0, SVG Export Plug-In . SVG Version: 6.00 Build 0)  -->
<svg version="1.1" id="Layer_1" xmlns="http://www.w3.org/2000/svg" xmlns:xlink="http://www.w3.org/1999/xlink" x="0px" y="0px"
	 viewBox="0 0 255 201" style="enable-background:new 0 0 255 201;" xml:space="preserve">
<style type="text/css">
	.st0{fill:#BCBEC0;}
	.st1{fill:#020202;}
	.st2{fill:#FFFFFF;}
</style>
<g>
	<path class="st0" d="M39.7,200.4c-14.9-3-20.2-13.5-20.2-22.3v-0.6l0.1-1.5c-9.4-23.7-14.9-39.5-16.9-48.4l-0.4-1.7v-1.8
		c0-5.2,1.9-17.9,19.6-23.9l3.3-1.1c0,0,3.8,0.4,4,0.4c-2.3-2.9-4.4-6.7-6.1-11.6C17.4,77.6,11.3,68.1,4.8,59.8l-2.4-3.1L0,43.3
		v-1.4c0-13.7,11.7-24,43.2-38.2c3.4-1.7,7.4-2.8,12.4-3.5L56.6,0h1.1c16.6,0,23,8.9,25.3,14.3c8.2-6.2,18.1-9.5,29.1-9.5h3.9
		c5.6,0,11,1.2,16.1,3.7c4.3-4.2,9.8-6.6,15.9-6.6c4.1,0,17.9,1.4,22.8,19.5l0.2,0.7v-1.8l1.2-2.9c4-9.7,12.1-15.6,21.8-15.6
		c4.1,0,17.9,1.4,22.8,19.5l0.6,2.1v2.1c0,6-0.2,12-0.7,18c4.9-3.1,10-3.5,12.1-3.5h0.4c11.2,0,19.6,7.6,24.9,22.6l0.9,2.6V68
		c0,6.8-2.8,15.3-14.3,21.1c2.6,3.6,5,7.7,7.1,12.2l0.3,0.7l0.3,0.7c3.1,9.1,4.7,19,4.7,29.4v2.1c0,19.3-7.8,37.2-23.1,53.1
		l-0.9,0.9l-1,0.8c-10.4,7.8-20.1,11.6-29.7,11.6c-12.4,0-23.4-4.8-32.2-13.9c-6.6,0.6-21.8,3.2-56.6,12l-0.7,0.2l-10.7,1.7H95
		c-9.5,0-17.1-5.2-20.8-13.7c-7.2,4.4-14.8,8.5-22.7,12l-1.9,0.8l-7,1.2L39.7,200.4z M196.6,134.6c0,8.5,1.1,13.8,2.2,16.7
		c1-1.2,2.2-3,3.7-5.6l0.2-0.3l0.2-0.3c1.1-1.8,2.4-5.3,2.4-12.2c0-7-0.9-11.3-1.9-13.8c-0.5,0.6-1.2,1.4-1.9,2.4
		c-3.3,5.5-4.6,9.3-5,11.6V134.6z M60.8,103.8c2.9,0.5,5.5,1.1,7.8,1.6c-0.5-1-1.1-2.1-1.6-3.3c-0.4-1-0.8-2.1-1.2-3.2
		C64.5,100.7,62.8,102.4,60.8,103.8z M111.3,102.8c-0.1,0.4-0.3,0.8-0.5,1.2c0.5-0.5,1-1,1.4-1.4
		C111.9,102.7,111.6,102.7,111.3,102.8z"/>
	<path class="st1" d="M249.8,65.3V64l-0.5-1.3c-1.5-4.3-6.1-17.2-17.4-17.2h-0.4c-2.4,0-9.4,0.7-12.9,8.2c-3.2,0.5-6.1,1-8.7,1.4
		c1.5-10.7,2.2-21.5,2.2-32.2v-1.1l-0.3-1c-3.4-12.3-11.7-13.6-15.1-13.6c-6.4,0-11.7,3.9-14.4,10.6l-0.6,1.4v1.6
		c0,9.3-0.4,17.9-1.3,25.5c-2.8,1-5.9,3.1-7.8,7.3c-3.2,0.5-6.1,1-8.7,1.4c1.5-10.7,2.2-21.5,2.2-32.2v-1.1l-0.3-1
		c-3.4-12.3-11.7-13.6-15.1-13.6c-6,0-10.9,3.3-13.8,9.2c-5.6-4.2-11.7-6.3-18.2-6.3H115c-11.6,0-21.5,4.2-29.1,12.3
		C85,22.2,84,22.1,83,22.1c-0.7,0-1.5,0.1-2.5,0.3l-1.4-6L79,16c-1.3-4-5.5-10.7-18.5-10.7H60l-0.6,0.1C55.3,5.9,52,6.9,49.4,8.2
		c-32,14.4-38.6,22.9-38.6,31v0.7l1.9,10.7l1.2,1.6C20.7,61,27.2,71,33.2,82c3.5,10.4,9.1,15.7,16.5,15.7h0.6l0.6-0.1
		C59.7,96.2,65,90.6,65,82.7V82c0-1.9-0.3-4-3.9-11.5c2.3-1.9,5.4-4.4,9.8-7.6c0.9,9.1,1.6,12.9,2.1,15c1,8.8,3.9,30.4,18.8,30.4
		h0.7c2.9,0,12.4-1,14.9-13.8l0.3-1.4c5.3-0.4,10.8-1.8,16.4-4.4c0.4,1.4,0.9,2.6,1.5,3.6c-1,2.4-1.6,5.4-1.7,9.2
		c-0.3,0.6-1.5,3-6.7,7.7c-8.5,6.8-13.3,11.6-15.9,15.4c-5.5-4.1-13.8-8-25.5-12.2l-0.1,0c-7.7-2.6-22.4-5-44.9-7.4l-1.7-0.2
		l-1.7,0.6c-12.4,4.2-14.2,12-14.2,16.3v0.9l0.2,0.9c1.9,8.7,7.6,24.7,17.2,48.9l-0.2,3v0.3c0,2.7,1,11.9,13.8,14.5l1.4,0.3l4.6-0.8
		L51,189c11.7-5.2,22.6-11.5,32.5-18.6c-0.6,1.8-0.7,3.4-0.7,4.3v0.6l0.1,0.6c1.4,8.8,6.9,14.1,14.9,14.1h2.7l9.8-1.6l0.3-0.1
		c40.4-10.2,55.8-12.4,61.6-12.4c0.1,0,0.3,0,0.4,0c7.6,9.2,17.4,14,28.7,14c7.8,0,15.9-3.3,24.8-10l0.5-0.4l0.4-0.5
		c13.8-14.4,20.8-30.4,20.8-47.6v-2.1c0-9.6-1.4-18.6-4.3-26.8l-0.1-0.4l-0.2-0.4c-4.1-8.8-8.9-14.9-14-19
		C239.7,80.6,249.8,75.8,249.8,65.3z M119.9,55.2c-4.9,4.7-9.2,7.2-12.7,7.2H105c-0.3-0.8-0.7-2.2-1-4.5v-2.4
		c0.8-3.5,2.7-8.1,5.5-13.8l0,0c0.8-0.3,2.1-0.7,4.2-1.2h3.7c0.3,0,0.5,0,0.6,0l0.2,0.1c3.3,1.3,4.5,3.2,4.5,7
		C122.8,50.1,121.8,52.6,119.9,55.2z M55.4,152.9c-1.4-3.4-3.3-8.4-5.9-15.5l7.2,1c6,1.5,10.5,2.9,13.9,4
		C64.8,146.8,59.8,150.3,55.4,152.9z M119.7,155.3c-3.2,0.9-9.2,2.4-19.9,4.8c-1.8,0.2-3.3,0.4-4.7,0.8c5.6-5.4,9.5-10.5,12-15.3
		c1.4,0.6,2.9,1.2,4.6,1.5l1.4,0.3l1.4-0.2c1.6-0.2,3.4-0.8,5.8-2.1C119.9,148.7,119.7,152.1,119.7,155.3z M159.7,131.9v1l0.4,1.4
		v1.1c0,3.8,0.2,7.6,0.7,11.2c-3,0.4-6.4,0.9-10.3,1.6c0.5-7.9,1.3-19.7,2.6-35.2c2.8-5.8,4-9.9,4-13.4v-2.3l-0.1-0.5
		c-0.4-3-1.2-5.4-2.3-7.4c1.9-1.2,5.4-2.8,11.8-4.4c0.9-0.1,1.8-0.1,2.7-0.2v0.5l0.2,0.8c0.8,3.7,2.2,6.4,3.8,8.3
		C164.1,108.5,159.7,120.8,159.7,131.9z M212.5,146.6l-0.1,0.2l-0.1,0.2c-4.5,7.9-8.2,11-10.3,11.4l-3-0.4
		c-6.7-3.7-7.7-17.7-7.7-25.9v-2.2c0.7-4.5,2.8-9.6,6.4-15.4c3.9-5.4,6.8-7.3,8.1-7.6l3.5,0.6c5.6,4,6.8,14.5,6.8,22.9
		C216.2,137.2,214.9,142.7,212.5,146.6z"/>
	<path class="st2" d="M102.2,130.8c-4-4.4-12.9-9.1-26.7-14c-7-2.4-21.4-4.7-43.2-7c-5.9,2-8.8,4.9-8.8,8.8
		c1.9,8.4,7.7,24.9,17.6,49.4l-0.4,4.6c0,3.4,2.5,5.7,7.4,6.7l2.1-0.4c13.8-6.1,26.2-13.6,37.2-22.4c9.4-8.1,14.9-15.3,16.5-21.4
		C103.4,132.2,102.8,130.8,102.2,130.8z M82.5,142.4C70.5,151.8,61,158,54.1,161c-2.3-4.1-6.8-15.9-13.7-35.4v-0.7l20.4,2.8
		c12.4,3,20.8,6.1,25.3,9.1C86.1,137.6,84.9,139.5,82.5,142.4z"/>
	<path class="st2" d="M209.1,80c-5,0-10.1,1.7-15.2,5.1c0.3-0.5,0.7-1,0.9-1.6c2.9-3.7,9.2-6.8,19-9.1c20.4-1.4,30.5-5.4,30.5-11.9
		c-2.8-7.9-6.1-11.9-9.8-11.9h-0.4c-3.7,0-6,2.5-6.7,7.4c-11.5,1.6-19.7,3.2-24.6,4.6v-0.4c2.6-14.1,3.9-28.1,3.9-42.1
		c-1.4-5.1-3.9-7.7-7.4-7.7c-3.2,0-5.5,1.9-7,5.6c0,12.4-0.7,23.4-2.2,32.9c-0.6-0.2-1.1-0.3-1.7-0.3h-0.4c-3.7,0-6,2.5-6.7,7.4
		c-11.5,1.6-19.7,3.2-24.6,4.6v-0.4c2.6-14.1,3.9-28.1,3.9-42.1c-1.4-5.1-3.9-7.7-7.4-7.7c-3.2,0-5.5,1.9-7,5.6
		c0,5.7-0.2,11-0.5,16.1c-0.6-1.6-1.3-3.1-2.1-4.4c-6.7-9.6-14.2-14.4-22.5-14.4h-3.9c-11.4,0-20.3,4.7-26.7,14
		c-1.4-1.3-3.2-2-5.3-2c-1.8,0-5.9,2-12.3,6h-0.4l-0.4-0.4l2.8-11.2l-1.4-6c-1.2-3.5-4.8-5.3-10.9-5.3c-3.3,0.5-5.9,1.2-7.7,2.1
		C32.6,22.7,21.3,30.7,21.3,36.3l1.4,8.1C30,53.8,36.8,64.3,43,75.9c2.3,7.2,5.4,10.9,9.1,10.9c4.9-0.8,7.4-3.1,7.4-7v-0.7
		c0-1.4-1.9-5.8-5.6-13.3c4.3-4.6,12.7-11.1,25.3-19.6h1.1c1.2,14.7,2.2,23.8,3.2,27.3c1.9,15.9,5.5,23.8,10.9,23.8H95
		c3.7,0,6.1-2.5,7-7.4l-2.5-7.4c-0.1-0.6-0.2-1.2-0.3-1.8c2.4,0.9,5.1,1.4,8.1,1.4c8.3,0,17.1-3.3,26.3-9.8c3.2-3,5.9-5.9,8-9
		c-0.9,3.4-1.9,6.6-3,9.6c-3.3,3.8-4.9,6.6-4.9,8.4v0.4c0.8,3.8,2.4,6,4.8,6.7c-2.8,1.8-4.2,5.3-4.2,10.5c0,3.1-3.2,7.5-9.5,13.3
		c-10.8,8.6-16.2,14.4-16.2,17.5h0.4c0,3.5,2.2,5.7,6.7,6.7c2.6-0.4,7.7-4,15.4-10.9h0.7c-1.2,11.9-1.8,22.6-1.8,31.9v0.4
		c0,0.9-8.9,3.4-26.7,7.4c-6.8,0.5-10.2,2.7-10.2,6.7c0.8,4.9,3.1,7.4,7,7.4h2.1l8.8-1.4c33.2-8.4,54.4-12.6,63.6-12.6
		c1.4,0,2.6-0.3,3.7-1c6.5,10,15,15.1,25.5,15.1c5.9,0,12.6-2.8,20-8.4c12.4-12.9,18.6-26.9,18.6-42.1v-2.1c0-8.7-1.3-16.8-3.9-24.2
		C231.7,87.4,221.9,80,209.1,80z M59.2,26.9c-1.6,7.5-5.8,15.7-12.6,24.5h-1.1l-8.8-12.3v-0.4c7.8-5.6,15.2-9.6,22.1-12.3h0.4V26.9z
		 M128.4,57.6c-6.7,6.5-12.9,9.8-18.6,9.8h-4.2c-3.6,0-6-4-7-11.9v-3.9c0.9-4.3,3-9.8,6.3-16.5c0-2.3,3.5-4.2,10.5-5.6h4.6
		c1.6,0,2.9,0.2,3.9,0.7c6.3,2.6,9.5,7.4,9.5,14.4C133.3,49.2,131.6,53.5,128.4,57.6z M170.1,129.1l0.4,1.4v2.1
		c0,6.4,0.7,12.5,2.1,18.3c-5.6,0.3-14.8,1.6-27.8,4.2h-0.4c0-5.8,1.1-21.4,3.2-47c2.6-5.1,3.9-8.9,3.9-11.2V95
		c-0.6-4.6-2.5-7.2-5.6-7.9c1.2-0.9,2.2-2.1,2.9-3.7c2.9-3.7,9.2-6.8,19-9.1c6.9-0.5,12.6-1.2,17.2-2.3c-0.1,0.3-0.2,0.6-0.3,0.9
		c-3.3,3.8-4.9,6.6-4.9,8.4v0.4c1,4.7,3.2,7,6.7,7c1.3,0,2.4-0.2,3.4-0.5c-2.1,1.8-4.2,3.8-6.3,6.1
		C174.6,107.6,170.1,119.1,170.1,129.1z M221.8,148c-5.9,10.3-11.7,15.4-17.6,15.4l-4.9-0.7c-8.9-3.7-13.3-14.9-13.3-33.7v-2.8
		c0.8-5.8,3.3-12.2,7.7-19.3c5.4-7.5,10.4-11.2,15.1-11.2l6,1.1c8,4.3,11.9,14.4,11.9,30.5C226.7,135.9,225,142.8,221.8,148z"/>
</g>
</svg>
