<?xml version="1.0" encoding="utf-8"?>
<!-- Generator: Adobe Illustrator 25.2.0, SVG Export Plug-In . SVG Version: 6.00 Build 0)  -->
<svg version="1.1" id="Layer_1" xmlns="http://www.w3.org/2000/svg" xmlns:xlink="http://www.w3.org/1999/xlink" x="0px" y="0px"
	 viewBox="0 0 230 183" style="enable-background:new 0 0 230 183;" xml:space="preserve">
<style type="text/css">
	.st0{fill:#BCBEC0;}
	.st1{fill:#020202;}
	.st2{fill:#FFFFFF;}
</style>
<g>
	<path class="st0" d="M64.4,182.4C50.1,179.5,45,168.9,45,160.8v-0.6l0.1-1c-8.4-21.3-13.2-35-15-43.1l-0.4-1.7v-1.8
		c0-3.1,0.7-8.8,5-14.1c-5.1-2.3-10.5-7.2-14.2-17.4c-4.9-9.1-10.3-17.4-16-24.8l-2.4-3.2L0,40.6v-1.4C0,24.3,15.1,14.5,39.3,3.4
		c3.2-1.6,6.9-2.6,11.5-3.3L52,0h1.1c13.9,0,20.3,6.7,23.1,11.9c7.2-5,15.8-7.6,25.2-7.6h3.4c4.9,0,9.5,1,13.9,2.9
		c4-3.6,9-5.5,14.5-5.5c3.6,0,14.7,1.1,20.3,13.9c4-8.7,11.6-13.9,20.6-13.9c4,0,17.2,1.3,21.9,18.7l0.6,2.1v2.1
		c0,4.3-0.1,8.7-0.4,13c2.7-1.2,5.6-1.8,8.7-1.8h0.3c7.4,0,17.6,3.7,23.8,21.3l0.9,2.6v2.7c0,5.9-2.4,16.8-18.5,22.5
		c-7.3,2.6-15.2,3.5-22.1,4c-0.2,0-0.3,0.1-0.5,0.1l-3.7,21.2l-0.7,6.8c8.5,1.4,16.9,7.8,18.5,20.2l0.1,1v1c0,4.8-1.8,20.4-25,23
		l-1.5,8l-2.2,3c-4.4,5.9-11,9.2-18.1,9.2c-8.9,0-17.9-5.1-21-16.2c-9.1,0.6-14.1,1.5-16.8,2.4l-2.2,0.7H113c-2.2,0-6.6-0.4-11-3
		c-8.1,5.5-16.9,10.3-26.1,14.5l-1.9,0.8l-6.8,1.1L64.4,182.4z M101,97.3c8.8,3.4,15.4,6.7,20.3,10.2c1.9-2.1,3.5-4.1,4.9-5.9
		c-1.5,0.2-3,0.4-4.5,0.4c-5.4,0-11.8-2.2-16.4-7.8c-1.1,0.3-2.2,0.6-3.3,0.8C101.7,95.9,101.4,96.6,101,97.3z"/>
	<path class="st1" d="M224.4,57.1c-3.7-10.6-9.2-16-16.3-16h-0.3c-4.4,0-9.3,2-12,7.4c-2.2,0.3-4.2,0.7-6.1,1
		c1.2-9.2,1.8-18.5,1.8-27.6v-1.1l-0.3-1C188,8.3,180.2,7,176.9,7c-6.1,0-11.1,3.6-13.6,10l-0.6,1.4V20c0,8.1-0.4,15.5-1.1,22.1
		c-2.6,1.1-5.1,3.1-6.7,6.3c-2.2,0.3-4.2,0.7-6.1,1c1.2-9.2,1.8-18.5,1.8-27.6v-1.1l-0.3-1C147.2,8.3,139.3,7,136.1,7
		c-5.3,0-9.8,2.8-12.6,7.8c-4.9-3.5-10.2-5.2-15.9-5.2h-3.4c-10.4,0-19.3,3.7-26.1,10.9c-0.7-0.1-1.5-0.2-2.2-0.2
		c-0.5,0-1,0-1.5,0.1l-1.1-4.6l-0.1-0.3c-1.3-3.8-5.2-10.2-17.2-10.2h-0.6l-0.6,0.1C51,5.9,48,6.8,45.6,8
		c-25,11.3-34.8,19.3-34.8,28.5v0.7l1.7,9.8l1.2,1.6c6.1,7.8,11.8,16.7,17,26.4c4.1,12,10.6,14.5,15.5,14.5h0.6l0.6-0.1
		c9.8-1.5,13.3-8.3,13.3-14.2v-0.6c0-2-0.5-4.3-3.2-10.1c1.7-1.5,3.9-3.2,6.9-5.4c0.7,7,1.3,10.1,1.7,11.9
		c0.7,6.3,2.5,19.6,9.8,25.3c-5.4-0.8-11.6-1.5-18.7-2.3l-1.7-0.2l-1.7,0.6c-11.5,3.9-13.2,11.3-13.2,15.4v0.9l0.2,0.9
		c1.7,7.8,6.7,22.1,15.3,43.6l-0.2,2.5v0.3c0,2.6,0.9,11.4,12.9,13.8l1.4,0.3l4.3-0.7l0.9-0.4c10.8-4.8,20.8-10.6,29.8-17.3
		c3.6,4.7,8.6,5.2,10.5,5.2h2.1l1.1-0.3c5.6-1.7,14.3-2.7,25.9-3c0.2,12.1,7.5,16.5,14.2,16.5c4.6,0,8.8-2.1,11.7-6l1.1-1.5
		l2.2-11.5l5.2-1c16.2-1.5,18.7-10.1,18.7-15.1v-0.5l-0.1-0.5c-1.3-10-8.2-13.5-14.2-13.5h-0.6l-4.7,0.8l1.7-16.4l4.1-23.9V81
		c0,0,0-0.5,0-0.5c1.7-0.7,3.9-1.4,6.7-2.1c9.9-0.7,33.9-2.7,33.9-18.6v-1.4L224.4,57.1z M95.3,51.1c0.5-2.2,1.8-5.9,4.6-11.7
		c0.6-0.2,1.6-0.5,3.2-0.9h3.2c0.2,0,0.3,0,0.4,0l0.1,0c2.3,0.9,3.4,2,3.4,5.4c0,2.1-0.8,4.1-2.3,6.2c-4.1,3.9-7.8,6.1-10.6,6.1H96
		c-0.2-0.7-0.4-1.7-0.7-3.2V51.1z M79.5,136.7c-1.1-2.7-2.5-6.5-4.3-11.4l4.9,0.7c4.4,1.1,7.9,2.1,10.6,3
		C86.5,132.1,82.7,134.6,79.5,136.7z M145,90.1l-0.2,0.2l-0.1,0.3c-3.4,6.1-10.1,14.6-19.8,25.4c-0.5-0.7-1.1-1.3-1.8-1.8
		c-4.8-4.6-13-8.9-25.7-13.5l-0.1,0c-2.3-0.8-5.4-1.6-9.1-2.3c3.7-1.1,8.6-4.1,10.2-12.5l0.1-0.6c4.3-0.4,8.8-1.6,13.3-3.5
		c3.2,8.8,10.5,9.5,12.9,9.5c6.3,0,11.4-3,14.2-8.2c0.9-0.8,3.7-2.8,11.4-4.7c0.5,0,1-0.1,1.5-0.1l0.1,0.4c0.1,0.4,0.2,0.8,0.3,1.2
		C149.9,82.8,147.5,86.2,145,90.1z"/>
	<path class="st2" d="M219.3,56.9c-2.5-7.1-5.4-10.6-8.7-10.6h-0.3c-3.3,0-5.3,2.2-5.9,6.6c-10.2,1.5-17.5,2.8-21.8,4.1v-0.3
		C184.8,44,186,31.5,186,19c-1.2-4.6-3.4-6.9-6.5-6.9c-2.8,0-4.9,1.7-6.2,5c0,11.1-0.6,20.8-1.9,29.4c-0.5-0.2-1-0.3-1.5-0.3h-0.3
		c-3.3,0-5.3,2.2-5.9,6.6c-10.2,1.5-17.5,2.8-21.8,4.1v-0.3c2.3-12.6,3.4-25.1,3.4-37.6c-1.2-4.6-3.4-6.9-6.5-6.9
		c-2.8,0-4.9,1.7-6.2,5c0,5.1-0.1,9.8-0.4,14.4c-0.5-1.4-1.1-2.8-1.9-3.9c-6-8.6-12.6-12.8-20-12.8h-3.4c-10.1,0-18,4.2-23.7,12.5
		c-1.3-1.2-2.8-1.8-4.7-1.8c-1.6,0-5.2,1.8-10.9,5.3h-0.3l-0.3-0.3l2.5-10L68,15.1c-1-3.1-4.3-4.7-9.7-4.7c-3,0.4-5.2,1-6.9,1.9
		c-20.2,9.1-30.2,16.2-30.2,21.3l1.2,7.2C29,49.2,35,58.6,40.6,68.9c2.1,6.5,4.8,9.7,8.1,9.7c4.4-0.7,6.5-2.8,6.5-6.3v-0.6
		c0-1.3-1.7-5.2-5-11.9C54,55.8,61.5,50,72.7,42.3h0.9c1,13.1,2,21.2,2.8,24.4C78.1,80.9,81.3,88,86.1,88h0.6c3.3,0,5.4-2.2,6.2-6.6
		l-2.2-6.6c-0.1-0.6-0.2-1.1-0.3-1.7c2.2,0.8,4.5,1.3,7.2,1.3c7.4,0,15.2-2.9,23.4-8.8c2.9-2.6,5.3-5.3,7.1-8
		c-0.8,3.1-1.7,5.9-2.7,8.5c-2.9,3.4-4.4,5.9-4.4,7.5v0.3c0.9,4.2,2.9,6.3,5.9,6.3c3.6,0,6.1-1.6,7.5-4.7c2.5-3.3,8.2-6,16.8-8.1
		c6.1-0.4,11.2-1.1,15.3-2.1c-0.1,0.3-0.2,0.6-0.3,0.8c-2.9,3.4-4.4,5.9-4.4,7.5v0.3c0.4,1.7,0.9,3,1.6,4c-2.6,3.4-5.7,7.9-9.4,13.5
		c-4.2,7.5-12.4,17.8-24.6,31c-11.4,9.2-17.1,15.5-17.1,18.8v0.3c0.9,4.2,2.9,6.3,5.9,6.3h0.9c7.7-2.3,20.1-3.4,37.1-3.4l-0.9,7.5
		c0,6.1,2.1,9.1,6.2,9.1c2.1,0,3.9-0.9,5.3-2.8l2.8-15l10.9-2.2c7.9-0.7,11.8-3.1,11.8-7.2c-0.6-4.4-2.7-6.6-6.2-6.6l-13.4,2.2h-0.9
		l2.8-26.9l4.1-23.5v-0.6c-0.2-2-0.7-3.6-1.5-4.8c3-2.5,8-4.5,14.9-6.2C210.3,66.3,219.3,62.7,219.3,56.9z M54.9,25.1
		c-1.4,6.7-5.1,14-11.2,21.9h-0.9l-7.8-11v-0.3c6.9-5,13.5-8.6,19.6-11h0.3V25.1z M116.4,52.6c-5.9,5.8-11.4,8.8-16.5,8.8h-3.7
		c-3.2,0-5.3-3.5-6.2-10.6v-3.4c0.8-3.8,2.7-8.7,5.6-14.7c0-2.1,3.1-3.8,9.4-5h4.1c1.5,0,2.6,0.2,3.4,0.6c5.6,2.3,8.4,6.6,8.4,12.8
		C120.7,45.1,119.3,48.9,116.4,52.6z M158.8,130.4c0,1-5.6,1.6-16.8,1.6h-3.4l-0.3-0.3l8.4-8.8l15-19.1h0.3L158.8,130.4z"/>
	<path class="st2" d="M120.8,117.9c-3.5-3.9-11.4-8.1-23.7-12.5c-6.2-2.1-19-4.2-38.4-6.3c-5.2,1.8-7.8,4.4-7.8,7.8
		c1.7,7.5,6.9,22.2,15.6,44.1l-0.3,4.1c0,3.1,2.2,5.1,6.5,5.9l1.9-0.3c12.2-5.5,23.2-12.2,33.1-20c8.3-7.2,13.2-13.6,14.7-19.1
		C121.9,119.2,121.4,117.9,120.8,117.9z M103.4,128.2c-10.7,8.4-19.1,14-25.3,16.6c-2-3.7-6.1-14.2-12.2-31.6v-0.6l18.1,2.5
		c11,2.7,18.5,5.4,22.4,8.1C106.5,124,105.5,125.6,103.4,128.2z"/>
</g>
</svg>
