<?xml version="1.0" encoding="utf-8"?>
<!-- Generator: Adobe Illustrator 25.2.0, SVG Export Plug-In . SVG Version: 6.00 Build 0)  -->
<svg version="1.1" id="Layer_1" xmlns="http://www.w3.org/2000/svg" xmlns:xlink="http://www.w3.org/1999/xlink" x="0px" y="0px"
	 viewBox="0 0 150 150" style="enable-background:new 0 0 150 150;" xml:space="preserve">
<style type="text/css">
	.st0{fill:url(#SVGID_1_);}
	.st1{fill:#020202;}
	.st2{fill:#FFFFFF;}
</style>
<g>
	
		<linearGradient id="SVGID_1_" gradientUnits="userSpaceOnUse" x1="0" y1="77" x2="150" y2="77" gradientTransform="matrix(1 0 0 -1 0 152)">
		<stop  offset="0" style="stop-color:#EC2B3D"/>
		<stop  offset="1" style="stop-color:#A41D42"/>
	</linearGradient>
	<circle class="st0" cx="75" cy="75" r="75"/>
	<g>
		<path class="st1" d="M76.46,126.4c-0.21,0-0.43-0.01-0.64-0.02c-0.12,0-0.23,0.01-0.35,0.01c-2.45,0-4.84-0.8-6.92-2.31
			c-8.66-6.28-17.57-12.88-27.11-20.09c-0.79-0.01-1.56-0.12-2.29-0.33c-1.07,0.41-2.24,0.64-3.48,0.64c-5.27,0-9.39-4.1-9.39-9.34
			v-4.82c-0.91-1.28-1.55-2.72-1.88-4.24c-0.69-3.2,0.06-6.5,2.09-9.29c12.31-16.89,25.87-33.15,40.3-48.32
			c1.28-1.35,2.8-2.37,4.47-3.01c1.84-1.09,3.92-1.68,6-1.68c3.43,0,6.6,1.52,8.91,4.29c13.02,15.58,25.59,31.68,37.36,47.86
			c2.6,3.57,3.03,7.97,1.23,11.76c-0.61,1.76-1.64,3.38-3.01,4.72c-11.73,11.48-24.67,22.23-38.46,31.95
			C81.22,125.63,78.86,126.4,76.46,126.4L76.46,126.4z"/>
		<path class="st2" d="M119.18,76.85c-11.8-16.23-24.15-32.04-37.02-47.44c-1.64-1.97-3.81-1.72-5.33-0.47
			c-0.75,0.15-1.5,0.53-2.18,1.24C60.39,45.16,47.17,61,35,77.71c-1.65,2.26-0.57,4.48,1.31,5.56c0,2.7,0,5.41,0,8.11
			c0,1.85,2.88,1.86,2.88,0c0-1.41,0-2.83,0-4.24c0.09,0.08,0.16,0.16,0.26,0.24c1.15,0.88,2.32,1.74,3.47,2.62
			c0,0.58,0,1.17,0,1.75c0,0.38,0.33,0.74,0.72,0.72s0.72-0.32,0.72-0.72c0-0.22,0-0.44,0-0.67c10.24,7.77,20.54,15.45,30.94,22.99
			c0.94,0.68,1.86,0.88,2.7,0.76c0.86,0.14,1.81-0.04,2.78-0.72c13.32-9.38,25.84-19.74,37.48-31.13c0.66-0.65,1.02-1.36,1.18-2.07
			C120.16,79.77,120.25,78.32,119.18,76.85z M105.39,72.68c1.55,2.07,3.09,4.15,4.62,6.24c-1.47,1.41-2.95,2.8-4.44,4.17
			C105.45,79.62,105.39,76.15,105.39,72.68z M78.58,38.62c7.95,9.59,15.69,19.34,23.21,29.26c0,1.7,0,3.4,0,5.1
			c0,0.93,1.44,0.93,1.44,0c0-1.07,0-2.14,0-3.21c0.24,0.32,0.48,0.65,0.72,0.97c-0.04,4.55,0.04,9.1,0.22,13.64
			c-7.87,7.15-16.12,13.85-24.74,20.1c0.54-14.14,0.87-28.28,0.95-42.43c0.02-2.78-4.31-2.79-4.32,0
			c-0.08,13.75-0.39,27.5-0.91,41.24C64.68,95.64,54.28,87.9,43.98,80.03C54.68,65.53,66.25,51.75,78.58,38.62z M53.3,74.91
			c2.64-3.72,5.29-7.44,7.93-11.16c0.7-0.99,1.84-1.36,2.96-0.78c0.97,0.51,1.43,2.03,0.78,2.96c-2.64,3.72-5.29,7.44-7.93,11.16
			c-0.7,0.99-1.84,1.36-2.96,0.78C53.1,77.36,52.64,75.84,53.3,74.91z M80.36,54.19c0,1.18-0.96,2.14-2.14,2.14
			s-2.14-0.96-2.14-2.14s0.96-2.14,2.14-2.14S80.36,53.01,80.36,54.19z M80.04,47.95c0,0.79-0.64,1.44-1.44,1.44
			c-0.79,0-1.44-0.64-1.44-1.44s0.64-1.44,1.44-1.44C79.39,46.51,80.04,47.16,80.04,47.95z"/>
	</g>
</g>
</svg>
