<?xml version="1.0" encoding="utf-8"?>
<!-- Generator: Adobe Illustrator 25.2.0, SVG Export Plug-In . SVG Version: 6.00 Build 0)  -->
<svg version="1.1" id="Layer_1" xmlns="http://www.w3.org/2000/svg" xmlns:xlink="http://www.w3.org/1999/xlink" x="0px" y="0px"
	 viewBox="0 0 150 150" style="enable-background:new 0 0 150 150;" xml:space="preserve">
<style type="text/css">
	.st0{fill:url(#SVGID_1_);}
	.st1{fill:#020202;}
	.st2{fill:#FFFFFF;}
</style>
<g>
	
		<linearGradient id="SVGID_1_" gradientUnits="userSpaceOnUse" x1="0" y1="77" x2="150" y2="77" gradientTransform="matrix(1 0 0 -1 0 152)">
		<stop  offset="0" style="stop-color:#EC2B3D"/>
		<stop  offset="1" style="stop-color:#A41D42"/>
	</linearGradient>
	<circle class="st0" cx="75" cy="75" r="75"/>
	<g>
		<path class="st1" d="M134.25,71.43c-0.69-3.36-2.71-6.35-5.51-8.26L85.23,19.33c-2.37-2.39-5.45-3.7-8.68-3.7
			c-4.25,0-8.3,2.29-10.66,5.93c-10.38,11.27-21.32,22.42-31.9,33.21c-4.86,4.95-9.87,10.06-14.79,15.13
			c-1.24,1.28-2.17,2.75-2.77,4.37c-2.01,4.78-0.76,10.07,3.23,13.59c0.87,0.77,1.74,1.54,2.61,2.31c0.01,2.35,0.93,4.66,2.58,6.4
			c1.79,1.89,4.28,2.98,6.84,2.98h0.23l0.18-0.01c0.24-0.01,0.47-0.03,0.71-0.06c12.73,11.27,24.29,21.57,35.21,31.39
			c2.33,2.09,5.28,3.24,8.32,3.24c0.11,0,0.22,0,0.33,0c0.8,0.16,1.62,0.25,2.44,0.25c3.24,0,6.32-1.32,8.68-3.72
			c15.26-15.47,30-31.83,43.81-48.62C134.06,79.04,135.02,75.17,134.25,71.43z"/>
		<path class="st2" d="M126.39,65.87c-14.73-14.84-29.45-29.68-44.17-44.51c-2.56-2.58-6-1.09-7.28,1.4
			C59.55,39.52,43.37,55.52,27.55,71.87c-0.54,0.56-0.89,1.16-1.09,1.76c-0.68,1.48-0.54,3.26,1.09,4.69
			c1.84,1.62,3.66,3.25,5.5,4.86c-0.06,1.11-0.13,2.21-0.19,3.32c-0.05,0.8,0.73,1.56,1.52,1.52c0.86-0.04,1.47-0.67,1.52-1.52
			c0.01-0.25,0.03-0.51,0.04-0.76c13.39,11.83,26.74,23.7,40.02,35.64c1.28,1.15,2.73,1.39,4.05,1.08c1.48,0.64,3.26,0.52,4.74-0.98
			c15.16-15.38,29.61-31.41,43.33-48.09C130.36,70.63,128.8,67.11,126.39,65.87z M79.67,80.75c-5.59-4.09-11.21-8.15-16.79-12.24
			c5.23-11.08,10.54-22.12,15.9-33.14c5.54,10.79,11.08,21.58,16.62,32.37C90.82,72.86,85.61,77.31,79.67,80.75z M99.38,65.54
			c-4.94-9.62-9.88-19.24-14.82-28.86C94.78,46.97,105,57.26,115.21,67.55C109.98,66.58,104.69,65.91,99.38,65.54z M38.81,76.12
			c3.31-0.74,6.63-1.48,9.94-2.22c1.17-0.26,1.96-1.67,1.59-2.81c-0.4-1.22-1.56-1.87-2.81-1.59c-2.1,0.47-4.21,0.94-6.31,1.41
			c10.18-10.4,20.4-20.76,30.43-31.3C67.26,48.69,62.9,57.78,58.6,66.9c-0.24,0.52-0.28,1.02-0.19,1.48
			c-0.65,1.15-0.16,2.37,0.83,3.09c6.09,4.48,12.22,8.89,18.32,13.36c0.13,8.71,0.27,17.42,0.4,26.13
			C64.96,99.29,51.91,87.68,38.81,76.12z M82.52,110.65c-0.13-8.19-0.25-16.38-0.38-24.56c0.22-0.17,0.42-0.38,0.55-0.61
			c0.27-0.47,0.35-0.95,0.28-1.4c5.84-3.53,11.08-8.01,15.62-13.1c0.56-0.09,1.09-0.39,1.48-0.82c5.66,0.43,11.28,1.23,16.83,2.39
			C105.9,85.66,94.44,98.36,82.52,110.65z M75.85,57.55c0.17,0.61,0.04,1.2-0.23,1.76c-0.96,1.94-1.92,3.87-2.87,5.81
			c0.46,0.38,0.92,0.77,1.38,1.15c0.28,0.28,0.48,0.62,0.59,1.01c0.03,0.2,0.05,0.4,0.08,0.61c0.03,0.61-0.27,1.18-0.67,1.61
			c-0.21,0.22-0.45,0.38-0.73,0.47c-0.27,0.14-0.56,0.21-0.88,0.2c-0.31,0.01-0.61-0.05-0.88-0.2c-0.28-0.09-0.53-0.25-0.73-0.47
			c-0.78-0.65-1.55-1.29-2.33-1.94c-0.28-0.28-0.48-0.62-0.59-1.01c-0.03-0.2-0.05-0.4-0.08-0.61c-0.01-0.15,0.01-0.3,0.04-0.44
			c-0.07-0.52,0.04-1.02,0.27-1.49c1.16-2.33,2.31-4.67,3.47-7c0.57-1.14,2.09-1.36,3.12-0.82C75.29,56.45,75.7,57.02,75.85,57.55z
			 M56.63,70.55c0,1.28-1.03,2.31-2.31,2.31c-1.28,0-2.31-1.03-2.31-2.31s1.03-2.31,2.31-2.31C55.6,68.24,56.63,69.28,56.63,70.55z"
			/>
	</g>
</g>
</svg>
