<?xml version="1.0" encoding="utf-8"?>
<!-- Generator: Adobe Illustrator 25.2.0, SVG Export Plug-In . SVG Version: 6.00 Build 0)  -->
<svg version="1.1" id="Layer_1" xmlns="http://www.w3.org/2000/svg" xmlns:xlink="http://www.w3.org/1999/xlink" x="0px" y="0px"
	 viewBox="0 0 243 192" style="enable-background:new 0 0 243 192;" xml:space="preserve">
<style type="text/css">
	.st0{fill:#BCBEC0;}
	.st1{fill:#020202;}
	.st2{fill:#FFFFFF;}
</style>
<g>
	<path class="st0" d="M73.7,191.4c-14.6-3-19.8-13.7-19.8-22v-0.6l0.1-1.2c-8.9-22.3-14.1-37.3-16-45.8l-0.4-1.7v-1.8
		c0-3.1,0.7-8.8,5-14.2c-6.3-0.8-15.4-4.7-20.7-19.7C16.6,74.7,10.8,65.8,4.7,58l-2.4-3.1L0,41.9v-1.4c0-15.3,15.8-25.5,41.3-37
		c3.3-1.6,7.2-2.7,12-3.4L54.4,0h1.1c15.2,0,21.6,7.7,24.3,13.1c7.7-5.6,17-8.5,27.2-8.5h3.7c5.2,0,10.3,1.1,15,3.3
		c4.1-3.9,9.4-6,15.3-6c3.8,0,16.2,1.2,21.6,16.4l0.5-1.1c3.9-9.6,11.9-15.3,21.5-15.3c4,0,17.6,1.4,22.4,19.1l0.6,2.1v2.1
		c0,5.1-0.2,10.3-0.5,15.5c3.1-1.7,6.6-2.6,10.4-2.6h0.3c7.6,0,18,3.8,24.4,21.9l0.9,2.6v2.7c0,6.1-2.5,17.2-19.3,23
		c-7.6,2.7-15.9,3.6-23.1,4.1c-4.4,1.1-6.7,2.2-7.7,2.7c-2.3,3.7-5.5,6.5-9.2,8.4c0.7,1.9,1.2,3.8,1.7,5.8l0.1,0.5l0.1,0.5
		c1.1,6.3,1.5,10.9,1.5,14.2l-0.1,4.2c6.7,3.4,13.4,8.2,16,15.8c1.1,2.3,1.7,5,2,7.9l0.1,0.7v1c0,22.5-29.9,28.8-44.2,31.9l-1,0.2
		l-5.7,0.5h-0.7c-14.1,0-25.7-6.1-33.2-17.2c-10.6,7.9-22.3,14.8-35,20.5l-1.9,0.8l-6.9,1.2L73.7,191.4z M106.1,101
		c0.7,0.2,1.3,0.4,1.9,0.6c0,0,0.5,0.2,0.7,0.2c0.6-1.3,1.2-2.5,1.9-3.8c-1.2,0.3-2.5,0.6-3.7,0.9C106.6,99.6,106.4,100.3,106.1,101
		z"/>
	<path class="st1" d="M237.3,59.9c-3.9-11-9.6-16.6-16.8-16.6h-0.3c-4.6,0-9.7,2.2-12.4,7.8c-2.7,0.4-5.2,0.8-7.5,1.2
		c1.3-10,2-20,2-29.9v-1.1l-0.3-1c-3.3-11.9-11.4-13.2-14.7-13.2c-6.3,0-11.4,3.8-14.1,10.3l-0.6,1.4v1.6c0,8.7-0.4,16.7-1.2,23.8
		c-2.9,1.1-5.5,3.3-7.2,6.8c-2.7,0.4-5.2,0.8-7.5,1.2c1.3-10,2-20,2-29.9v-1.1l-0.3-1c-3.3-11.9-11.4-13.2-14.7-13.2
		c-5.7,0-10.4,3.1-13.2,8.5c-5.3-3.8-11-5.7-17.1-5.7h-3.7c-11,0-20.5,4-27.7,11.6c-0.8-0.1-1.7-0.2-2.6-0.2c-0.6,0-1.3,0.1-2,0.2
		l-1.3-5.3l-0.1-0.3c-1.3-3.9-5.4-10.4-17.9-10.4h-0.6l-0.6,0.1c-4,0.6-7.1,1.4-9.7,2.7C21.1,20,10.8,28.4,10.8,37.8v0.7l1.8,10.3
		l1.2,1.6c6.5,8.3,12.6,17.8,18.2,28.1C36.3,91,43,93.6,48,93.6h0.6l0.6-0.1C57.9,92.2,63,86.8,63,79v-0.7c0-1.8-0.3-3.9-3.5-10.8
		c2-1.7,4.7-3.8,8.3-6.5c0.8,8,1.4,11.5,1.9,13.5c0.8,6.7,2.7,20.9,10.5,26.6c-4.4-0.6-9.3-1.1-14.6-1.7l-1.7-0.2l-1.7,0.6
		c-11.9,4.1-13.7,11.7-13.7,15.9v0.9l0.2,0.9c1.8,8.3,7.2,23.4,16.3,46.3l-0.2,2.8v0.3c0,2.7,1,11.6,13.4,14.1l1.4,0.3l4.5-0.7
		l0.9-0.4c13.6-6.1,26-13.6,36.9-22.3l0.1-0.1l0.1-0.1c1.3-1.1,2.5-2.2,3.7-3.3c0.3,0.9,0.6,1.7,0.9,2.6l0.1,0.2l0.1,0.2
		c5.8,12.3,16,18.9,29.5,18.9h0.3l4.8-0.4l0.5-0.1c18.7-4,37.9-10,37.9-24.1v-0.7l0-0.3c-0.2-2.4-0.7-4.2-1.4-5.6
		c-1.8-6-8.6-10.2-16.7-13.7l0.2-9.2c0-2.9-0.5-7.1-1.4-12.9l0-0.3l-0.1-0.3c-1.2-5.1-3-9.4-5.4-13.1c6.5,0,11.8-3.1,14.7-8.5
		c1-0.9,4-3.1,12.4-5.2c10.4-0.7,35.7-2.8,35.7-19.2v-1.4L237.3,59.9z M99.9,53.2c0.6-2.4,1.9-6.4,5.1-12.8c0.7-0.3,1.9-0.6,3.7-1
		h3.5c0.2,0,0.4,0,0.5,0l0.1,0.1c2.9,1.2,4,2.8,4,6.2c0,2.3-0.9,4.6-2.6,6.9c-4.5,4.4-8.5,6.6-11.6,6.6h-1.8c-0.3-0.8-0.6-2-0.8-3.8
		V53.2z M89.2,144.8c-1.2-3.1-2.9-7.4-5.1-13.5l6,0.8c5.2,1.3,9.2,2.5,12.3,3.5C97.4,139.4,93,142.5,89.2,144.8z M108.2,106.4
		c-3.5-1.2-8.6-2.4-15.4-3.5c3.8-1.2,8.7-4.3,10.3-12.8l0.2-1c4.9-0.4,9.8-1.7,14.8-3.9c1.6,4.6,4.2,7.2,6.8,8.6
		c-5.5,5.1-7.5,10.9-8,16.1c-2.6-1.1-5.5-2.2-8.6-3.3L108.2,106.4z M149.2,113c0.6-0.1,1.2-0.2,1.9-0.3c0.2,0.5,0.4,1.2,0.6,2.2
		C150.7,114.2,149.9,113.6,149.2,113z M153.6,83.2c1.4-0.5,3-1,5-1.4c0.7-0.1,1.4-0.1,2.1-0.2v0l0.2,0.8c0.2,0.8,0.4,1.6,0.6,2.3
		C159,83.9,156.4,83.4,153.6,83.2z"/>
	<path class="st2" d="M223,48.4h-0.3c-3.5,0-5.6,2.3-6.3,7c-10.9,1.5-18.6,3-23.2,4.3v-0.3c2.4-13.3,3.7-26.6,3.7-39.8
		c-1.3-4.9-3.7-7.3-7-7.3c-3,0-5.2,1.8-6.6,5.3c0,11.7-0.7,22.1-2.1,31.1c-0.5-0.2-1.1-0.3-1.6-0.3h-0.3c-3.5,0-5.6,2.3-6.3,7
		c-10.9,1.5-18.6,3-23.2,4.3v-0.3c2.4-13.3,3.7-26.6,3.7-39.8c-1.3-4.9-3.7-7.3-7-7.3c-3,0-5.2,1.8-6.6,5.3c0,5.4-0.1,10.4-0.4,15.2
		c-0.5-1.5-1.2-2.9-2-4.2C130.9,19.5,123.8,15,116,15h-3.7c-10.8,0-19.2,4.4-25.2,13.3c-1.3-1.3-3-1.9-5-1.9
		c-1.7,0-5.5,1.9-11.6,5.6h-0.3l-0.3-0.3L72.5,21l-1.3-5.6c-1.1-3.3-4.5-5-10.3-5c-3.2,0.4-5.6,1.1-7.3,2
		C32,22.1,21.3,29.6,21.3,34.9l1.3,7.6c6.9,8.9,13.3,18.9,19.3,29.9c2.2,6.9,5.1,10.3,8.6,10.3c4.6-0.7,7-2.9,7-6.6v-0.7
		c0-1.3-1.8-5.5-5.3-12.6c4-4.3,12-10.5,23.9-18.6h1c1.1,13.9,2.1,22.5,3,25.9c1.8,15,5.2,22.6,10.3,22.6h0.7c3.5,0,5.8-2.3,6.6-7
		l-2.3-7c-0.1-0.6-0.2-1.2-0.3-1.7c2.3,0.9,4.8,1.3,7.6,1.3c7.9,0,16.2-3.1,24.9-9.3c3.1-2.8,5.6-5.6,7.6-8.5
		c-0.8,3.3-1.8,6.3-2.9,9.1c-3.1,3.6-4.6,6.2-4.6,8v0.3c0.9,4.4,3,6.6,6.3,6.6c3.9,0,6.5-1.7,8-5c2.7-3.5,8.7-6.4,17.9-8.6
		c6.5-0.5,11.9-1.2,16.3-2.2c-0.1,0.3-0.2,0.6-0.3,0.9c-3.1,3.6-4.6,6.2-4.6,8v0.3c0.9,4.4,3,6.6,6.3,6.6c3.9,0,6.5-1.7,8-5
		c2.7-3.5,8.7-6.4,17.9-8.6c19.3-1.3,28.9-5.1,28.9-11.3C229.6,52.1,226.5,48.4,223,48.4z M57.2,26c-1.5,7.1-5.5,14.8-12,23.2h-1
		l-8.3-11.6v-0.3c7.4-5.3,14.3-9.1,20.9-11.6h0.3V26z M122.6,55.1c-6.3,6.2-12.2,9.3-17.6,9.3h-4c-3.4,0-5.6-3.8-6.6-11.3v-3.6
		c0.8-4,2.8-9.2,6-15.6c0-2.2,3.3-4,10-5.3h4.3c1.5,0,2.8,0.2,3.7,0.7c6,2.4,9,7,9,13.6C127.3,47.1,125.7,51.2,122.6,55.1z"/>
	<path class="st2" d="M133.3,124.4c-3.8-4.1-12.2-8.6-25.2-13.3c-6.6-2.3-20.3-4.5-40.9-6.6c-5.5,1.9-8.3,4.6-8.3,8.3
		c1.8,8,7.3,23.6,16.6,46.8l-0.3,4.3c0,3.3,2.3,5.4,7,6.3l2-0.3c13-5.8,24.7-12.9,35.2-21.2c8.9-7.7,14.1-14.4,15.6-20.2
		C134.4,125.7,133.9,124.4,133.3,124.4z M114.7,135.3c-11.4,9-20.4,14.8-26.9,17.6c-2.2-3.9-6.5-15-13-33.5v-0.7l19.3,2.7
		c11.7,2.9,19.7,5.8,23.9,8.6C118,130.8,116.9,132.5,114.7,135.3z"/>
	<path class="st2" d="M193.4,145.3c0-3.4-5.8-7.2-17.3-11.6l0.3-14.6c0-2.4-0.4-6.3-1.3-11.6c-3-12.8-10.2-19.2-21.6-19.2l-5,0.7
		c-14.2,3.9-21.3,10.7-21.3,20.2c0,5.1,3.3,10.7,10,16.6c-2.2,4.5-3.3,9-3.3,13.6c0.4,4.4,1.3,8.3,2.7,11.6
		c4.5,9.5,11.9,14.3,22.3,14.3l4-0.3c21-4.5,31.6-9.9,31.6-16.3v-0.3C194.3,146.3,193.9,145.3,193.4,145.3z M141,108.1
		c3.1-4.2,7.7-6.3,13.9-6.3c5.3,0,8,6.2,8,18.6v6.3h-0.3C148.2,118.7,141,112.5,141,108.1z M173.8,148.3c-6.9,2.2-11.7,3.3-14.6,3.3
		c-7.8,0-11.6-4.8-11.6-14.3v-0.7c0-1.1,0.3-1.8,1-2h0.3l13.3,7.3c2.7,2.5,6.6,4.3,11.6,5.3V148.3z"/>
</g>
</svg>
