<?xml version="1.0" encoding="utf-8"?>
<!-- Generator: Adobe Illustrator 25.2.0, SVG Export Plug-In . SVG Version: 6.00 Build 0)  -->
<svg version="1.1" id="Layer_1" xmlns="http://www.w3.org/2000/svg" xmlns:xlink="http://www.w3.org/1999/xlink" x="0px" y="0px"
	 viewBox="0 0 150 150" style="enable-background:new 0 0 150 150;" xml:space="preserve">
<style type="text/css">
	.st0{fill:url(#SVGID_1_);}
	.st1{fill:#020202;}
	.st2{fill:#FFFFFF;}
</style>
<g>
	
		<linearGradient id="SVGID_1_" gradientUnits="userSpaceOnUse" x1="0" y1="77" x2="150" y2="77" gradientTransform="matrix(1 0 0 -1 0 152)">
		<stop  offset="0" style="stop-color:#EC2B3D"/>
		<stop  offset="1" style="stop-color:#A41D42"/>
	</linearGradient>
	<circle class="st0" cx="75" cy="75" r="75"/>
	<g>
		<path class="st1" d="M127.29,85.58l-1.39-31.35c-0.23-5.13-3.37-9.31-8.04-10.98c-12.52-9.07-25.32-18.1-38.07-26.87
			c-2.05-1.41-4.38-2.16-6.74-2.16c-3.04,0-5.95,1.24-8.15,3.42c-0.56,0.33-1.09,0.71-1.59,1.13L27.25,49.02
			c-1.53,0.99-2.8,2.32-3.72,3.91c-1.56,2.5-2.09,5.44-1.5,8.29c0.22,5.09,0.28,10.31,0.34,15.37c0.07,5.77,0.14,11.74,0.44,17.68
			c0.14,2.79,1.16,5.33,2.94,7.39c0.76,0.95,1.6,1.74,2.56,2.41l39.95,28.09c0.95,0.67,1.97,1.19,3.04,1.56
			c1.92,1.33,4.17,2.06,6.5,2.06c2.4,0,4.77-0.78,6.85-2.25c7.34-5.2,14.4-10.75,21.1-16.57c1.25,0.65,2.65,1.01,4.08,1.01
			c4.72,0,8.57-3.68,8.75-8.38l0,0c2.91-1.64,4.86-4.74,4.86-8.28v-0.51c1.66-1.4,2.9-3.24,3.56-5.37
			C128.5,92.32,128.6,88.77,127.29,85.58z"/>
		<path class="st2" d="M121.63,88.9c1.09-1.62,0.83-3.45-0.12-4.8c-0.49-11.03-0.97-22.06-1.46-33.09
			c-0.11-2.38-1.78-3.74-3.62-4.06c0,0,0,0-0.01-0.01c-12.9-9.36-25.92-18.55-39.05-27.58c-2.18-1.5-4.28-0.58-5.41,1.12
			c-0.5,0.17-0.99,0.43-1.45,0.82C58.33,31.5,46.14,41.72,33.95,51.94c-0.64,0.33-1.17,0.84-1.52,1.51
			c-0.67,0.98-0.74,2.05-0.41,3.03c0.53,11.26,0.25,22.55,0.82,33.81c0.06,1.14,0.48,2.03,1.1,2.7c0.27,0.36,0.6,0.71,1.02,1.01
			c13.32,9.36,26.64,18.73,39.95,28.09c0.74,0.52,1.46,0.73,2.15,0.75c1.18,1.41,3.09,2.03,5.06,0.64
			c10.36-7.34,20.14-15.37,29.29-24.11c-0.08,2.11-0.17,4.22-0.25,6.33c-0.04,1,1.52,1,1.56,0c0.11-2.63,0.21-5.27,0.32-7.9
			c0.47-0.46,0.94-0.93,1.41-1.4c0,0.44,0,0.89,0,1.33c0,0.82,0.72,1.6,1.56,1.56c0.85-0.04,1.56-0.69,1.56-1.56
			c0-1.49,0-2.98,0-4.47c0.43-0.44,0.85-0.89,1.27-1.33C120.22,91.54,121.38,90.55,121.63,88.9z M112.83,81.93
			c-10.14-16.1-20.2-32.26-30.17-48.47c9.7,6.76,19.36,13.59,28.94,20.53C112.01,63.31,112.42,72.62,112.83,81.93z M79.46,114.84
			c-0.07-0.06-0.13-0.12-0.21-0.18c-12.64-8.88-25.27-17.77-37.91-26.65c-0.42-10.17-0.27-20.36-0.71-30.53
			c4.27-3.58,8.54-7.16,12.8-10.73c0.03,1.59,0.1,3.17,0.23,4.76c0.07,0.81,0.67,1.6,1.56,1.56c0.79-0.04,1.63-0.69,1.56-1.56
			c-0.2-2.46-0.24-4.93-0.2-7.4c4.47-3.75,8.94-7.5,13.41-11.25C61.26,47.28,52.53,61.71,43.8,76.13c-1.83,3.01,2.9,5.76,4.72,2.76
			c9.2-15.2,18.4-30.4,27.6-45.59c10.47,17.04,21.04,34.01,31.7,50.94c-15.89,0.66-31.78,1.07-47.68,1.26
			c-3.51,0.04-3.52,5.5,0,5.46c15.91-0.18,31.81-0.6,47.7-1.26c1.22-0.05,2.01-0.75,2.38-1.64c0.06,0.09,0.11,0.18,0.17,0.26
			C100.83,98.02,90.52,106.86,79.46,114.84z M53.8,86.08c0.15,0.28,0.21,0.58,0.2,0.9c0,0.12,0,0.25,0,0.37
			c0,0.42-0.11,0.82-0.32,1.18c-0.12,0.16-0.24,0.32-0.37,0.47c-0.29,0.29-0.64,0.49-1.03,0.6c-0.21,0.03-0.41,0.06-0.62,0.08
			c-0.32,0.01-0.62-0.06-0.9-0.2c-0.29-0.09-0.54-0.26-0.75-0.48c-0.23-0.21-0.39-0.46-0.48-0.75c-0.15-0.28-0.21-0.58-0.2-0.9
			c0-0.12,0-0.25,0-0.37c0-0.42,0.11-0.82,0.32-1.18c0.12-0.16,0.24-0.32,0.37-0.47c0.29-0.29,0.64-0.49,1.03-0.6
			c0.21-0.03,0.41-0.06,0.62-0.08c0.32-0.01,0.62,0.06,0.9,0.2c0.29,0.09,0.54,0.26,0.75,0.48C53.54,85.54,53.7,85.79,53.8,86.08z
			 M55.5,80.24c-1.13-0.6-1.44-2.14-0.84-3.2c1.96-3.47,3.93-6.94,5.89-10.41c0.64-1.14,2.09-1.43,3.2-0.84
			c1.13,0.6,1.44,2.14,0.84,3.2c-1.96,3.47-3.93,6.94-5.89,10.41C58.06,80.54,56.61,80.82,55.5,80.24z"/>
	</g>
</g>
</svg>
