<?xml version="1.0" encoding="utf-8"?>
<!-- Generator: Adobe Illustrator 25.2.0, SVG Export Plug-In . SVG Version: 6.00 Build 0)  -->
<svg version="1.1" id="Layer_1" xmlns="http://www.w3.org/2000/svg" xmlns:xlink="http://www.w3.org/1999/xlink" x="0px" y="0px"
	 viewBox="0 0 150 150" style="enable-background:new 0 0 150 150;" xml:space="preserve">
<style type="text/css">
	.st0{fill:url(#SVGID_1_);}
	.st1{fill:#020202;}
	.st2{fill:#FFFFFF;}
</style>
<g>
	
		<linearGradient id="SVGID_1_" gradientUnits="userSpaceOnUse" x1="0" y1="77" x2="150" y2="77" gradientTransform="matrix(1 0 0 -1 0 152)">
		<stop  offset="0" style="stop-color:#EC2B3D"/>
		<stop  offset="1" style="stop-color:#A41D42"/>
	</linearGradient>
	<circle class="st0" cx="75" cy="75" r="75"/>
	<g>
		<path class="st1" d="M78.34,131.72c-2.82,0-5.55-1.01-7.75-2.81c-0.07-0.03-0.13-0.05-0.2-0.08c-10.6-4.25-20.78-9.25-30.35-14.9
			c-0.85,0.29-1.77,0.47-2.71,0.51l-0.18,0.01h-0.23c-5.15,0-9.37-4.21-9.41-9.39c-2.34-3.17-3.03-7.27-1.81-11.15
			c-1.97-16.02-2.46-32.29-1.46-48.39c0.15-2.38,0.92-4.6,2.25-6.49c0.46-0.83,1.03-1.6,1.7-2.27c1.49-1.71,3.43-2.97,5.66-3.68
			c9.31-2.96,18.64-6.84,27.67-10.6c2.63-1.1,5.27-2.19,7.91-3.27c1.52-0.62,3.08-0.93,4.64-0.93c1.05,0,2.08,0.14,3.07,0.42
			c1.33,0.2,2.61,0.62,3.85,1.24c11.79,5.96,24.04,11.23,36.4,15.65c3.5,1.25,6.15,3.8,7.49,7.18c1.06,2.69,1.16,5.74,0.34,8.53
			l1.08,48.12c0.1,4.61-2.24,8.74-6.16,10.92c-0.1,0.06-0.2,0.12-0.31,0.18l-35.39,19.59C82.49,131.18,80.45,131.72,78.34,131.72
			L78.34,131.72z"/>
		<path class="st2" d="M120.41,96.02c-0.37-16.55-0.74-33.1-1.11-49.64c1.19-2.31,0.66-5.74-2.53-6.88
			c-12.78-4.57-25.2-9.92-37.31-16.04c-0.67-0.34-1.33-0.5-1.96-0.53c-0.83-0.36-1.84-0.41-3,0.07
			c-11.97,4.89-23.83,10.16-36.17,14.08c-1,0.32-1.73,0.87-2.25,1.53c-0.33,0.28-0.59,0.65-0.74,1.06c-0.61,0.7-1.03,1.61-1.1,2.76
			c-1.01,16.37-0.45,32.68,1.68,48.94c0,0.03,0.02,0.05,0.02,0.08c-1.21,1.98-1.19,4.83,1.3,6.48c0.05,0.03,0.09,0.06,0.14,0.09
			c0.01,0.11,0.02,0.22,0.03,0.33c0.08,1.01,0.12,2.03,0.12,3.05c0,0.8,0.7,1.56,1.52,1.52s1.53-0.67,1.52-1.52
			c0-0.45-0.04-0.91-0.06-1.36c11.07,7.05,22.71,12.95,34.92,17.83c0.47,0.19,0.91,0.27,1.34,0.31c1.23,1.73,3.49,2.73,5.88,1.4
			c11.78-6.52,23.56-13.05,35.35-19.57c0.05-0.03,0.08-0.06,0.13-0.09C119.46,99.27,120.45,97.98,120.41,96.02z M81.75,97.62
			c-0.6-10.93-1.2-21.86-1.8-32.79c0.08-0.06,0.17-0.12,0.24-0.2c0.22-0.21,0.38-0.45,0.47-0.73c0.14-0.27,0.21-0.57,0.2-0.88
			c-0.03-0.2-0.05-0.4-0.08-0.61c-0.11-0.39-0.3-0.72-0.59-1.01c-0.15-0.12-0.31-0.24-0.46-0.36c-0.36-0.21-0.74-0.31-1.15-0.31
			c-0.13,0-0.26,0-0.39,0c-0.05,0-0.1,0.01-0.16,0.01C67.91,55,57.79,49.26,47.66,43.52c9.68-3.47,19.14-7.58,28.66-11.47
			c9.19,4.59,18.56,8.78,28.12,12.53c-4.61,2.75-9.24,5.47-13.9,8.13c-2.55,1.46-0.25,5.4,2.3,3.94
			c5.73-3.27,11.41-6.62,17.06-10.02c0.09,0.03,0.18,0.07,0.28,0.1c0.35,15.53,0.69,31.06,1.04,46.6
			c-9.4,5.21-18.8,10.41-28.21,15.62C82.88,104.83,81.91,100.39,81.75,97.62z M45.08,92.14c0.01-0.25,0.01-0.5-0.02-0.77
			c-1.96-15-2.57-30.04-1.87-45.14c8.07,4.58,16.14,9.15,24.21,13.73c0,1.77,0,3.55,0,5.32c0,0.98,1.52,0.98,1.52,0
			c0-1.49,0-2.97,0-4.46c0.53,0.3,1.05,0.6,1.58,0.9c-0.1,3.52-0.02,7.05,0.26,10.56c0.06,0.82,0.65,1.52,1.52,1.52
			c0.77,0,1.59-0.7,1.52-1.52c-0.23-2.95-0.32-5.9-0.29-8.86c0.62,0.35,1.25,0.71,1.87,1.06c0,0.03-0.01,0.05,0,0.08
			c0.45,8.14,0.89,16.29,1.34,24.43c0.21,3.83,0.42,7.66,0.63,11.5c0.06,1.04,0.65,5.32,0.87,8.76c-0.12-0.06-0.22-0.13-0.35-0.18
			C66.38,104.48,55.48,98.78,45.08,92.14z M58.44,64.19c-0.26,0.49-0.83,0.9-1.36,1.05c-0.62,0.17-1.19,0.04-1.76-0.23
			c-1.22-0.58-2.38-1.24-3.52-1.96c0,1.26,0,2.52,0,3.78c0,1.28-1.05,2.23-2.28,2.28c-1.23,0.06-2.28-1.09-2.28-2.28
			c0-2.72,0-5.44,0-8.16c0-0.56,0.21-1.04,0.53-1.43c0.05-0.08,0.11-0.15,0.17-0.22c0.39-0.42,1.05-0.67,1.61-0.67
			c0.64,0,1.13,0.27,1.61,0.67c0.17,0.14,0.35,0.28,0.52,0.42c1.85,1.41,3.83,2.63,5.93,3.63C58.77,61.62,58.98,63.17,58.44,64.19z
			 M88.24,58.73c0,1.26-1.02,2.28-2.28,2.28s-2.28-1.02-2.28-2.28s1.02-2.28,2.28-2.28S88.24,57.47,88.24,58.73z"/>
	</g>
</g>
</svg>
