<?xml version="1.0" encoding="utf-8"?>
<!-- Generator: Adobe Illustrator 25.2.0, SVG Export Plug-In . SVG Version: 6.00 Build 0)  -->
<svg version="1.1" id="Layer_1" xmlns="http://www.w3.org/2000/svg" xmlns:xlink="http://www.w3.org/1999/xlink" x="0px" y="0px"
	 viewBox="0 0 222 222" style="enable-background:new 0 0 222 222;" xml:space="preserve">
<style type="text/css">
	.st0{fill:url(#SVGID_1_);}
	.st1{fill:#020202;}
	.st2{fill:#FFFFFF;}
</style>
<g>
	
		<linearGradient id="SVGID_1_" gradientUnits="userSpaceOnUse" x1="0" y1="113" x2="222" y2="113" gradientTransform="matrix(1 0 0 -1 0 224)">
		<stop  offset="0" style="stop-color:#EC2B3D"/>
		<stop  offset="1" style="stop-color:#A41D42"/>
	</linearGradient>
	<circle class="st0" cx="111" cy="111" r="111"/>
	<g>
		<path class="st1" d="M198.97,142.89c-0.82-13.48-2.32-27.3-4.45-41.05c-0.13-0.85-0.36-1.69-0.69-2.49
			c-0.09-0.62-0.23-1.23-0.42-1.82c-1.02-3.16-3.08-5.69-5.81-7.13c-1.81-0.96-3.78-1.44-5.85-1.44c-0.52,0-1.05,0.03-1.62,0.09
			c0.09-0.52,0.14-1.05,0.15-1.59c0.87-3.69-0.05-7.68-2.64-10.88c-4.83-5.99-9.89-11.88-14.78-17.58
			c-4.81-5.6-9.79-11.4-14.46-17.2c-2.15-2.66-5.43-4.19-9.01-4.19c-0.32,0-0.64,0.01-0.95,0.04c-0.66-0.12-1.33-0.17-2.01-0.17
			c-1.28,0-2.57,0.21-3.84,0.63c-7.02,2.31-14.02,4.66-21.03,7.01c-6.98,2.34-13.97,4.68-20.96,6.98c-3.26,1.07-5.82,3.35-7.22,6.32
			c-0.95,1.17-1.68,2.52-2.16,4c-0.96-0.62-2.06-1.24-3.27-1.76c-0.99-0.43-2.34-1.01-3.91-1.44c-1.57-0.42-3.02-0.6-4.19-0.75
			l-0.34-0.04l-0.34-0.01c-0.15-0.01-0.29-0.01-0.43-0.01c-1.61,0-3.15,0.33-4.6,0.98c-1.52,0.59-2.86,1.5-4,2.69
			c-2.32,2.37-3.61,5.68-3.47,8.89c0.01,0.26,0.03,0.52,0.06,0.77c-1.6-0.44-3.21-0.78-4.84-1.01c-0.55-0.08-1.39-0.18-2.34-0.18
			c-2.18,0-4.22,0.55-6.06,1.62c-0.16,0.09-0.31,0.19-0.46,0.28c-2.12-1.83-4.88-2.93-7.9-2.93C28.44,69.52,23,74.96,23,81.65
			S28.45,93.8,35.14,93.8c2.14,0,4.16-0.56,5.91-1.54c-1.07,1.83-1.68,3.96-1.68,6.23c0,4.66,2.58,8.72,6.39,10.84
			c-3.25,3.15-6.55,6.23-9.9,9.23c-1.26,1.13-2.22,2.52-2.88,4.16c-1.74,2.84-2.16,6.26-1.13,9.64
			c4.14,13.58,9.28,27.25,15.27,40.64c0.32,0.71,0.71,1.38,1.18,2.01c2.01,4.22,6.25,7.01,10.99,7.01H85.7c0.5,0,1-0.03,1.51-0.1
			c0.33,0.03,0.67,0.04,1.01,0.04c3.34,0,6.41-1.32,8.66-3.71c6.23-6.62,11.44-13.95,16.49-21.03c1.65-2.31,3.29-4.62,4.96-6.9
			c0.29-0.4,0.55-0.81,0.78-1.23c3.38-0.92,6.78-1.92,10.19-2.99c0.24,0.34,0.51,0.66,0.79,0.96c1.76,1.88,4.23,2.95,6.78,2.95h0.23
			l0.18-0.01c1.71-0.08,3.3-0.6,4.66-1.45v4.07c0,2.74,1.18,5.32,3.23,7.08c1.7,1.46,3.89,2.27,6.17,2.27c3.04,0,5.7-1.37,7.41-3.54
			l5.98,3.76c1.39,0.87,2.96,1.44,4.6,1.67c1.22,0.39,2.49,0.6,3.75,0.6c2.26,0,4.45-0.64,6.34-1.86l11.19-7.21
			c0.42-0.27,0.82-0.56,1.2-0.87C196.32,152.46,199.28,147.89,198.97,142.89z"/>
		<path class="st2" d="M58.27,94.9c0,2.43-1.97,4.41-4.41,4.41c-2.43,0-4.41-1.97-4.41-4.41c0-2.43,1.97-4.41,4.41-4.41
			C56.3,90.49,58.27,92.46,58.27,94.9z M189.59,143.93c-0.34,0.44-0.76,0.82-1.23,1.13c-3.73,2.41-7.46,4.81-11.2,7.22
			c-1.25,0.8-2.73,0.73-3.96,0.1c-0.74,0.02-1.49-0.14-2.14-0.56c-5.41-3.41-10.83-6.81-16.24-10.22c0,2.47,0,4.94,0,7.41
			c0,1.81-2.81,1.81-2.81,0c0-3.06,0-6.12,0-9.18c-3.8-2.39-7.59-4.78-11.39-7.17c-0.07-0.05-0.13-0.11-0.2-0.16c0,1.5,0,3,0,4.5
			c0,0.79-0.64,1.37-1.41,1.41c-0.76,0.03-1.41-0.67-1.41-1.41c0-1.67,0-3.33,0-5c-7.34,2.56-14.77,4.84-22.31,6.78
			c-0.29,0.08-0.58,0.11-0.85,0.13c0.27,1.06,0.18,2.21-0.46,3.07c-6.74,9.17-13.01,18.87-20.83,27.19
			c-1.09,1.15-2.66,1.42-4.08,1.03c-0.41,0.14-0.84,0.23-1.28,0.23c-8.8,0-17.61,0-26.41,0c-2.02,0-3.58-1.41-4.06-3.24
			c-0.34-0.29-0.63-0.63-0.82-1.06c-5.79-12.92-10.79-26.16-14.92-39.7c-0.46-1.51-0.09-2.76,0.69-3.65
			c0.18-0.71,0.48-1.38,1.02-1.86c7.45-6.68,14.61-13.67,21.48-20.94c0.82-0.87,1.91-1.24,3.01-1.2c0,0,0,0,0.01,0
			c3.84,0,7.69,0,11.53,0c3.87-12.48,7.72-24.96,11.6-37.43c0.3-0.97,0.83-1.67,1.48-2.15c0.28-1.34,1.16-2.55,2.81-3.09
			c14.01-4.62,27.98-9.37,41.99-13.99c1.12-0.37,2.09-0.26,2.88,0.13c1.48-0.45,3.22-0.22,4.21,1
			c9.51,11.79,19.73,22.98,29.24,34.77c1.14,1.42,1.56,3.24,0.8,4.82c0.11,0.6,0.1,1.21-0.1,1.81c-1.28,3.82-2.51,7.66-3.76,11.5
			c4.01-1.2,8.1-2.09,12.25-2.68c1.19-0.17,2.18-0.14,3.25,0.43c0.98,0.52,1.61,1.5,1.94,2.52c0.15,0.47,0.18,1.01,0.11,1.55
			c0.36,0.43,0.62,0.94,0.7,1.52c2.07,13.37,3.54,26.82,4.37,40.33C193.22,141.82,191.5,143.57,189.59,143.93z M167.36,105.64
			c-1.69,5.23-3.38,10.46-5.12,15.67c-0.71,2.11-2.78,3.49-5.01,2.98c-2.8,1.21-5.61,2.42-8.44,3.54
			c7.83,4.93,15.65,9.85,23.48,14.78c0.68-13.09,1.81-26.15,3.45-39.16c-2.28,0.59-4.54,1.25-6.77,2.03
			C168.41,105.67,167.88,105.71,167.36,105.64z M106.1,121.94c-1.42-4.73-2.84-9.46-4.26-14.19c-0.17-0.56-0.12-1.05,0-1.5
			c-3.59,0.21-7.19,0.42-10.78,0.62c0.53,0.5,1.07,0.99,1.6,1.49c0.4,0.14,0.78,0.33,1.08,0.61c0.32,0.3,0.52,0.65,0.65,1.01
			C98.41,113.86,102.31,117.85,106.1,121.94z M109.39,79.98c0-3.6,0-7.2,0-10.8c0-0.02,0.01-0.04,0.01-0.07c-2-1.31-4-2.62-6-3.93
			c0.32,11.03,1.26,22.04,2.83,32.96c7.06-5.8,14.05-11.7,20.94-17.7c-2.9-1.59-5.68-3.4-8.46-5.22c-2.17-1.42-4.34-2.85-6.51-4.27
			c0,3.01,0,6.02,0,9.03C112.2,81.79,109.39,81.79,109.39,79.98z M162.42,93.63c-5.44,6.87-11.4,13.31-17.81,19.29
			c3.64,0.6,7.28,1.19,10.92,1.79C157.84,107.69,160.14,100.67,162.42,93.63z M110.03,103.13c0,0.35-0.09,0.66-0.2,0.96
			c9.12,2.6,18.24,5.21,27.37,7.81c0.08-0.06,0.15-0.11,0.22-0.17c-1.95-9.22-3.9-18.45-5.84-27.67
			c-7.14,6.23-14.38,12.34-21.7,18.35C109.94,102.65,110.03,102.88,110.03,103.13z M164.45,81.51c-9.08,0.14-18.16,0.27-27.25,0.41
			c-0.07,0.18-0.14,0.35-0.23,0.51c1.76,8.33,3.52,16.67,5.28,25C150.49,99.54,157.94,90.89,164.45,81.51z M115.53,129.95
			c5.17-4.82,10.53-9.43,16.08-13.79c-7.79-2.22-15.59-4.45-23.38-6.67c2.08,6.92,4.16,13.84,6.24,20.76
			C114.83,130.15,115.18,130.05,115.53,129.95z M128.08,126.27c6.7-2.13,13.31-4.5,19.82-7.14c-2.56-0.42-5.13-0.84-7.69-1.26
			c-0.52,0.27-1.15,0.39-1.88,0.19C134.84,120.71,131.42,123.44,128.08,126.27z M139.24,50.3c-10.68,3.52-21.34,7.11-32.01,10.66
			c4.61,3.02,9.22,6.05,13.83,9.07c3.59,2.35,7.19,4.86,11.1,6.69c0-0.16-0.02-0.32,0-0.48c0.85-5.67,1.69-11.33,2.54-17
			c0.23-1.56,2.12-2.27,3.46-1.96c1.6,0.37,2.18,2.01,1.96,3.46c-0.77,5.18-1.55,10.36-2.32,15.54c7.7-0.12,15.41-0.23,23.11-0.35
			C153.7,67.38,146.3,58.99,139.24,50.3z M87.3,101.47c4.55-0.26,9.1-0.53,13.66-0.79c-1.64-11.04-2.68-22.14-3.09-33.29
			C94.34,78.75,90.83,90.11,87.3,101.47z M50.27,125.93c0,0.01,0.01,0.02,0.01,0.03c7.86-0.27,15.73-0.53,23.59-0.8
			c0.01-0.01,0.01-0.02,0.02-0.03c4.26-3.57,8.26-7.44,11.96-11.58c-1.47-1.38-2.93-2.77-4.42-4.12c-0.42-0.38-0.72-0.83-0.92-1.32
			c-0.59-0.2-1.13-0.51-1.58-0.91c-3.15,0-6.3,0-9.45,0C63.32,113.68,56.91,119.93,50.27,125.93z M107.92,136.5
			c-0.12-0.1-0.24-0.19-0.35-0.31c-5.6-6.51-11.5-12.75-17.64-18.75c-3.31,3.7-6.88,7.17-10.64,10.42c-0.01,0.3-0.06,0.59-0.14,0.88
			c0.47,0.32,0.87,0.78,1.06,1.48c2.03,7.44,4.38,14.78,7.05,22c0.53,1.43-0.59,3.08-1.96,3.46c-1.55,0.43-2.93-0.54-3.46-1.96
			c-2.67-7.23-5.03-14.57-7.05-22c-0.09-0.35-0.08-0.66-0.06-0.96c-1.93,0.06-3.86,0.13-5.79,0.2c0.23,2.82,0.45,5.63,0.68,8.45
			c0.06,0.78-0.69,1.37-1.41,1.41c-0.8,0.04-1.35-0.67-1.41-1.41c-0.22-2.79-0.45-5.57-0.67-8.36c-0.45,0.02-0.89,0.03-1.34,0.04
			c0,0.37,0,0.74,0,1.11c0,0.38-0.16,0.72-0.41,0.99c-0.25,0.28-0.63,0.4-0.99,0.41c-0.35,0.02-0.75-0.17-0.99-0.41
			c-0.26-0.25-0.41-0.63-0.41-0.99c0-0.34,0-0.68,0-1.01c-3.3,0.11-6.6,0.22-9.9,0.33c3.4,10.31,7.28,20.45,11.72,30.36
			c0.02,0.04,0.03,0.08,0.04,0.12c7.99,0,15.97,0,23.96,0c0.14,0,0.27,0.03,0.4,0.04c1.42-1.57,2.82-3.16,4.14-4.81
			c0.44-0.55,0.88-1.11,1.32-1.67c0.41-0.52,0.03-0.03,0.27-0.34c0.22-0.29,0.44-0.58,0.66-0.86c0.84-1.11,1.68-2.22,2.5-3.34
			c3.24-4.4,6.38-8.87,9.61-13.27C107.05,137.23,107.47,136.82,107.92,136.5z M184.1,137.77c0.13-0.08,0.27-0.13,0.4-0.2
			c-0.71-10.77-1.84-21.51-3.39-32.2c-1.48,12.08-2.53,24.21-3.18,36.37C179.99,140.42,182.04,139.1,184.1,137.77z M48.11,81.25
			c-0.62-0.96-0.67-2.17-0.43-3.25c0.23-1.01,1.06-2.01,1.94-2.52c1.07-0.62,2.08-0.59,3.25-0.43c6.72,0.95,13.06,4.2,17.97,8.85
			c1.71,1.62,1.51,4.32,0,5.97c-1.57,1.71-4.36,1.52-5.97,0c-0.58-0.54-1.17-1.05-1.78-1.56c-0.01-0.01-0.01-0.01-0.02-0.02
			c-0.06-0.04-0.11-0.09-0.17-0.13c-0.28-0.21-0.57-0.41-0.86-0.61c-1.2-0.82-2.46-1.54-3.76-2.17c-0.3-0.14-0.6-0.27-0.9-0.41
			c-0.13-0.05-0.26-0.1-0.39-0.15c-0.7-0.27-1.41-0.5-2.12-0.72c-1.39-0.41-2.81-0.71-4.25-0.91
			C49.58,83.04,48.66,82.11,48.11,81.25z M57.49,85.02c-0.03-0.01-0.06-0.02-0.09-0.04C57.63,85.08,57.89,85.17,57.49,85.02z
			 M68.85,70.67c0.41,0.24,0.84,0.37,1.29,0.47c1.01,0.15,1.98,0.42,2.93,0.77c0.83,0.39,1.62,0.85,2.36,1.4
			c0.34,0.31,0.71,0.55,1.15,0.7c0.5,0.26,1.04,0.39,1.63,0.36c1.03,0,2.27-0.46,2.98-1.24c0.74-0.8,1.29-1.86,1.24-2.98
			c-0.05-1.06-0.39-2.28-1.24-2.98c-1.33-1.1-2.71-2.08-4.3-2.77c-0.93-0.4-1.86-0.79-2.84-1.06c-1.01-0.27-2.04-0.4-3.08-0.53
			c-0.58-0.02-1.12,0.1-1.63,0.36c-0.52,0.17-0.98,0.46-1.36,0.87c-0.73,0.73-1.28,1.93-1.24,2.98c0.05,1.09,0.41,2.22,1.24,2.98
			C68.28,70.23,68.56,70.45,68.85,70.67z M37.24,73.93c-2.29,0-4.14,1.86-4.14,4.14c0,2.29,1.86,4.14,4.14,4.14
			c2.29,0,4.14-1.86,4.14-4.14S39.53,73.93,37.24,73.93z"/>
	</g>
</g>
</svg>
