<?xml version="1.0" encoding="utf-8"?>
<!-- Generator: Adobe Illustrator 25.2.0, SVG Export Plug-In . SVG Version: 6.00 Build 0)  -->
<svg version="1.1" id="Layer_1" xmlns="http://www.w3.org/2000/svg" xmlns:xlink="http://www.w3.org/1999/xlink" x="0px" y="0px"
	 viewBox="0 0 249 78" style="enable-background:new 0 0 249 78;" xml:space="preserve">
<style type="text/css">
	.st0{fill:#BCBEC0;}
	.st1{fill:#020202;}
	.st2{fill:#FFFFFF;}
</style>
<g>
	<path class="st0" d="M119.2,78c-6.4,0-14.7-3.5-17.7-19.9c-0.2-0.6-0.3-1.1-0.5-1.7c-1.9,2.7-4.2,5.4-7,7.9l-0.5,0.5l-0.6,0.4
		c-7.7,5.5-15.5,8.3-23.1,8.3c-2.4,0-4.7-0.3-6.9-0.9c-3.2,3.4-7.5,5.3-12.1,5.3h-1.2l-1.2-0.2c-6.4-1.3-11.1-5.2-13-10.5
		c-2.1,0.3-4.3,0.4-6.4,0.4h-0.4c-6.7,0-18.9-2.4-26.2-18.5l-0.3-0.6l-0.2-0.6C0.7,43.6,0,39.9,0,36.6c0-8.2,3.6-16.5,10.9-25.5
		l0.2-0.3l0.2-0.3C17.8,3.5,27.4,0,39.9,0h1.5c9.1,0,17.1,3.5,23.2,10.2c3.5-1.3,7.3-2,11.4-2h2.4c5.6,0,10.9,1.8,15.6,5.4
		c0.6-0.1,1.3-0.1,2-0.1L129.6,8h3.8c10.4,0,17.6,7,17.6,17v1.6l-0.4,1.6c-2.2,7.8-8.2,12.7-15.9,12.7c-1.2,0-2.6,0.1-3.9,0.2
		c1.1,4.6,2.7,10.4,4.5,17.5l0.4,1.5v1.8c0,7.1-4.7,14.8-15.1,16.1l-0.7,0.1L119.2,78L119.2,78z"/>
	<path class="st1" d="M134.8,12.4h-3.3L98,18c-1.6,0-3,0.1-4.4,0.4c-4.1-3.8-8.8-5.7-13.8-5.7h-2.4c-5.1,0-9.7,1.2-13.6,3.7L63.6,15
		l-0.8-1c-5.1-6.2-12-9.6-19.9-9.6h-1.5c-10.8,0-18.9,2.9-24.2,8.6L17,13.2l-0.1,0.1c-6.4,7.9-9.5,15-9.5,21.7
		c0,2.6,0.6,5.7,1.8,9.4l0.1,0.3L9.4,45C15,57.4,23.8,60,30.2,60h0.4c3.8,0,7.6-0.5,11.4-1.5c0,0.4,0,0.9,0,1.3V60
		c0,5.2,3.4,9.1,9.1,10.2l0.6,0.1h0.6c2.2,0,6.3-0.7,9.4-5.6l0.6-1c2.6,1.4,5.6,2.1,9,2.1c6.3,0,12.9-2.4,19.6-7.2l0.3-0.2l0.3-0.2
		c6.8-6.2,10.3-12.8,10.5-19.8l2.3-0.3c0.8,3.5,2.2,8.8,4.4,17c0.7,4.1,2.9,15.2,11.9,15.2h0.4l0.3,0c7.2-0.9,9.8-5.8,9.8-10.1v-1
		l-0.2-0.8c-3.4-12.8-5.2-20-6.1-24c4-0.8,7.7-1.2,11.3-1.2c4.9,0,8.6-3.1,10.1-8.3l0.2-0.8v-0.8C146.4,16.7,141.8,12.4,134.8,12.4z
		 M34.2,38.9c-1.1,0.2-2.3,0.2-3.4,0.2h-0.1l-0.6-0.1c-1.5-0.8-1.7-1.7-1.7-2.8v-2.2c0.1-0.7,0.5-1.7,1.4-3.2l0.4-0.6l0.2-0.7
		c0.3-0.7,0.9-2.5,4.3-3.6c-0.9,1.2-1.8,2.8-2.4,4.9l-0.2,0.8v0.8C32.1,34.1,32.4,36.6,34.2,38.9z M79.7,40.8c-3.6,3.5-5.9,4-6.9,4
		h-0.5c-0.1-0.4-0.2-1-0.3-1.7v-1.3c0.4-1.5,1.2-3.9,3.1-7.7c0.4-0.1,1-0.3,1.9-0.5c0,0,2.3,0,2.3,0c1.4,0.6,2,1.2,2,3.2
		C81.2,37.7,81,39,79.7,40.8z"/>
	<path class="st0" d="M232.5,78c-3.9,0-8.4-1.5-11.7-5.2c-2.5,2.6-6,4.5-10.8,5.1l-0.7,0.1h-0.7c-5.7,0-12.8-2.7-16.5-14.8
		c-0.4,4.6-2.7,8.7-6.4,11.3c-1.4,1.3-4.6,3.5-9.8,3.5c-7.1,0-15.9-3.4-17.1-19.5l-0.3-2.7c-3.2-3-5.1-7.1-5.1-11.6V44
		c0-3.3,1.1-8.2,6.3-12.8c0.1-0.1,0.1-0.2,0.2-0.3l0.7-5.8c0.9-7.3,2.3-11.6,4.9-14.8c2.8-3.8,7.2-5.2,8.9-5.7l3.2-1l3.2,0.8
		c5.1,1.3,9,4.1,11.3,8l24.1-4c2.3-4.1,6.4-7.1,11.8-8.2l1.2-0.3h1.3c7.2,0,15.8,4.8,16.7,18.5c0.7,5.9,1.1,12.6,1.1,20.1v6.2
		c0,2.3-0.3,4.4-0.9,6.4c0.9,2.2,1.5,4.8,1.8,7.7l0,0.5v2.1l-0.1,0.7C247.7,73.1,239.8,78,232.5,78z"/>
	<path class="st1" d="M244.4,57.8c-0.3-3.6-1.2-6.2-2.4-8c1-1.7,1.6-3.8,1.6-6.6V37c0-7.3-0.4-13.9-1.1-19.5
		c-0.7-12.1-8.4-13-10.7-13h-0.6l-0.6,0.1c-6.3,1.3-8.2,5.2-8.8,7.8h-0.9l-31.4,5.3c-0.3-2.6-1.9-7.2-8.8-9L179,8.3l-1.6,0.5
		c-1.4,0.4-4.3,1.3-5.9,3.7c-1.9,2.1-2.9,5.6-3.6,11.8l-0.8,6.7h0.1c-0.5,0.8-0.9,1.7-1.2,2.4c-2.1,1.7-5.2,4.8-5.2,9v0.2
		c0,3,1.3,6.3,4.8,8.4l0.6,5.3c0.9,12.7,6.8,14.1,11.1,14.1s6-2.1,6-2.1c3.1-2,4.3-5.3,4.3-8.2v-0.5l-0.1-0.5
		c-0.9-6-1.4-10.6-1.4-13.7v-2.2c0-1.3,0.1-2.6,0.3-4.1l7.3-1c0.8,3.5,2.1,8.8,4.4,17c0.7,4.1,2.9,15.2,11.9,15.2h0.4l0.4,0
		c7.2-0.9,9.8-5.8,9.8-10.1v-1l-0.2-0.8c-3.4-12.8-5.2-20-6.1-24c3-0.6,5.8-1,8.6-1.2c0,0.6,0,1.3,0,1.9v8.5l0.2,1.4
		c0.1,2.2,0.8,4,2.1,5.6c-0.7,1.4-1.2,3.1-1.4,5.2l0,0.3v3.5l0.1,0.4c1.3,9.6,8.2,10.4,10.2,10.4c4.5,0,9.6-2.8,10.5-10.5l0-0.3
		v-1.5L244.4,57.8z"/>
	<path class="st2" d="M136.7,16h-2.8l-33.5,5.6c-2.9,0-5.2,0.4-6.7,1.2c-3.7-4.4-7.6-6.5-12-6.5h-2.4c-8.1,0-14.1,3.9-18.1,11.6
		c-0.9-1-2.4-1.8-4.3-2.3l-10.1,0.9l-3-0.2c-1.8,0-3.1,1.4-3.9,4.1c0,2.5,1.9,4.2,5.8,5l6.5-0.4l0.4,0.4v0.7c-6.3,4.6-13,6.9-20,6.9
		h-0.4l-1.9-0.2c-4-1.7-6-4.6-6-8.6v-2.6c0.2-1.9,1-3.9,2.4-6c1.9-5.6,7.5-8.4,16.5-8.4c2.9,0,4.8,0.2,5.6,0.6
		c3.8,2.4,6.3,3.7,7.3,3.7c2.9-0.6,4.3-2,4.3-4.1L60,15.4C56,10.5,50.9,8,44.7,8h-1.5c-9.1,0-15.6,2.2-19.8,6.7
		c-5.4,6.7-8.2,12.6-8.2,17.9c0,1.9,0.5,4.5,1.5,7.5c3.4,7.6,8.5,11.4,15.2,11.4h0.4c6,0,12.1-1.4,18.5-4.3v0.4
		c-0.7,3.8-1.1,7.1-1.1,9.7v0.2c0,2.3,1.4,3.7,4.3,4.3c1.7,0,3.1-0.9,4.3-2.8c0-2.1,0.5-6.2,1.6-12.3c2.4,7.1,6.7,10.6,13.1,10.6
		c5.1,0,10.5-2,16.1-6c5.7-5.2,8.6-10.6,8.6-16.2c0-1.6-0.1-3.1-0.3-4.4l13.6-1.9c0,2.2,1.8,9.7,5.4,22.4c1.2,7,3.3,10.6,6,10.6
		c3-0.4,4.5-1.7,4.5-4.1v-0.2c-4.9-18.4-7.3-28.4-7.3-30c6.5-1.9,12.6-2.8,18.3-2.8c2.1,0,3.6-1.3,4.3-3.9
		C142.3,17.7,140.4,16,136.7,16z M86,42.4c-4.1,4-7.9,6-11.4,6h-2.6c-2.2,0-3.7-2.4-4.3-7.3v-2.4c0.5-2.6,1.8-6,3.9-10.1
		c0-1.4,2.2-2.6,6.4-3.5h2.8c1,0,1.8,0.1,2.4,0.4c3.9,1.6,5.8,4.5,5.8,8.8C89.1,37.2,88,39.9,86,42.4z"/>
	<path class="st2" d="M181.9,40.8c0-2.5,0.3-5.2,0.9-8.2c-0.8-2.7-2.3-4.1-4.3-4.1l-1.5,0.2c-1.2,0-2.6,2-4.3,6
		c-2.7,1.9-4.1,3.6-4.1,5.2v0.2c0,2.2,1.4,3.6,4.3,4.1l1.1,9.1c0.4,5.8,2.1,8.6,5.2,8.6v-0.2c2.9-0.4,4.3-1.8,4.3-4.1
		c-1-6.3-1.5-11.2-1.5-14.7L181.9,40.8L181.9,40.8z"/>
	<path class="st2" d="M235.8,49c-2.6,0-4,1.7-4.3,5v2.8c0.5,3.5,1.9,5.2,4.3,5.2c2.6,0,4.1-1.7,4.5-5.2v-0.9
		C239.9,51.3,238.4,49,235.8,49z"/>
	<path class="st2" d="M235.1,46.4v-0.2c2.9,0,4.3-1.8,4.3-5.4v-6.2c0-7.1-0.4-13.5-1.1-19c-0.2-5-1.8-7.6-4.7-7.6
		c-2.9,0.6-4.3,2-4.3,4.1c0.2,1.7,0.3,3.3,0.5,4.9c-0.9-0.6-2.2-1-3.8-1h-2.8l-33.5,5.6c-2.1,0-3.8,0.2-5.2,0.6
		c0.3-1.5,0.6-3.4,0.9-5.8c0-2.2-1.4-3.6-4.3-4.3c-1.9,0.6-2.8,1.1-2.8,1.5c-1.1,0.8-2,3.7-2.6,8.8h0.2c0,2.3,1.4,3.7,4.3,4.3
		c0.2,0,0.4-0.1,0.5-0.1c0.6,3,2,4.4,4.3,4.4l15.5-2.2c0,2.2,1.8,9.7,5.4,22.4c1.2,7,3.3,10.6,6,10.6c3-0.4,4.5-1.7,4.5-4.1v-0.2
		c-4.9-18.4-7.3-28.4-7.3-30c6.5-1.9,12.6-2.8,18.3-2.8c1.2,0,2.2-0.5,3-1.3c0.2,3.4,0.3,6.5,0.3,9.3v8l0.2,1.3
		C230.9,44.4,232.3,45.8,235.1,46.4z"/>
</g>
</svg>
