<?xml version="1.0" encoding="utf-8"?>
<!-- Generator: Adobe Illustrator 25.2.0, SVG Export Plug-In . SVG Version: 6.00 Build 0)  -->
<svg version="1.1" id="Layer_1" xmlns="http://www.w3.org/2000/svg" xmlns:xlink="http://www.w3.org/1999/xlink" x="0px" y="0px"
	 viewBox="0 0 806 88" style="enable-background:new 0 0 806 88;" xml:space="preserve">
<style type="text/css">
	.st0{fill:#BCBEC0;}
	.st1{fill:#020202;}
	.st2{fill:#FFFFFF;}
</style>
<path class="st0" d="M153.7,87.9c-5.4,0-12.5-2.3-17.8-12.4c-4.8,1.3-9.8,1.9-14,2.2c-2,0.5-3.3,1-4,1.3c-3.7,5.4-9.6,8.4-16.5,8.4
	c-2.6,0-5.2-0.6-7.6-1.7c-4.3,1.4-8.6,2.2-12.9,2.2c-4.2,0-8.1-0.7-11.8-2c-1.5,0.7-3.1,1.2-4.8,1.6l-1.6,0.4h-1.6
	c-6,0-13.1-3-16.8-10.9c-2.4,3.6-6.5,6.7-12.6,8.1l-1.6,0.4h-1.6c-4.4,0-14.6-1.6-18.6-16.4l-0.7-0.8C5.3,63.8,4.4,59.1,4.4,56v-0.5
	c0-1.5,0.2-2.9,0.6-4.5C0,34.8,0,33.8,0,31.5c0-6.7,3.9-15.1,14.8-18.2l1.9-0.6h2c5.7,0,15.6,2.5,19.7,18.6c0.5-0.1,1.1-0.2,1.6-0.3
	l-0.4-8.3v-0.3c0-14.4,9.8-20.9,18.9-20.9c6.5,0,11.9,3.1,15.2,8.6c2.8-0.9,5.8-1.3,8.8-1.3c5.1,0,10.1,1.4,14.8,4.3
	c3.4-3.3,7.8-5,12.7-5c3.3,0,7.1,1,10.4,3.3c0.6-1,1.2-2.1,2-3.3l0.8-1.4l1.1-1.1c3.6-3.6,8.2-5.5,13.2-5.5c3.3,0,6.6,1,9.5,2.8
	c23.6,0.1,32.1,2.4,37.4,5.7l1.1,0.7l1,0.9c3.2,3,7,8.4,7,16.9c0,9.2-6.9,17.1-17.2,26.1l-0.3,0.3l-0.3,0.3
	c-1.9,1.5-3.9,2.9-6.2,4.3c0.1,0.2,0.2,0.3,0.2,0.3l1.7,2.4l1.6,8.1l-0.6,2.9C169.7,83.6,161,87.9,153.7,87.9z"/>
<path class="st1" d="M184.2,11.7l-0.6-0.5l-0.6-0.4C179.3,8.5,172.1,6,147.1,6H147c-2.8-2.3-5.6-2.8-7.6-2.8c-3.4,0-6.5,1.3-8.9,3.8
	l-0.6,0.7l-0.5,0.8c-3.5,5.7-4.7,8.5-4.7,11.3v0.5c0,4.2,1.9,7.8,5.3,10.2c0.4,1.1,1.1,3.2,2.1,6.9c-2.8,0.7-5.4,2.3-7.2,5.4
	c-0.3,0-0.7,0.1-1,0.2c0.7-6.1,1-12.3,1-18.3v-1.1l-0.3-1C121.8,12,114.2,11.2,112,11.2c-4.9,0-9,2.6-11.4,7.3
	c-5.2-4.4-10.6-6.6-16.1-6.6c-4.2,0-8.3,1-12,3.1C70,5.8,63.6,4.6,60.4,4.6c-6,0-12.9,3.9-12.9,14.9v0.2l0.6,13.5
	c-3.6,0.5-7.5,1.3-12,2.4c-0.3-1-0.7-2.2-1.2-3.5c-2.6-13.3-9.2-16.1-14.3-16.1h-1.1l-1.1,0.3C8.6,19,7.9,26.5,7.9,28.7
	c0,1.5,0,2.5,5.4,19.5c-0.7,1.8-0.9,3.2-0.9,4.5v0.5c0,2.1,0.6,5.3,3.3,8.5l1,1.1l0.5,0.3c2.6,11.8,9.3,13.6,13.3,13.6h0.9l0.9-0.2
	C42.5,74,43.3,66.3,43.3,64v-0.9l-0.6-3c1.6-0.3,3.9-0.7,6.9-1l0.3,5l0,0.3c1,10.8,7.4,14.6,13.1,14.6h0.9l0.9-0.2
	c2.4-0.6,4.3-1.4,5.8-2.5c3.6,1.8,7.7,2.7,12.2,2.7c4.4,0,8.9-0.9,13.4-2.8c2.2,1.6,4.7,2.3,7.1,2.3c5.4,0,9.7-2.5,12.2-6.9
	c0.6-0.5,2.6-1.6,7.3-2.8c4.4-0.3,12.2-1,18.2-3.8c2.1,5.8,6.3,13.9,14.6,13.9c2.4,0,10.4-0.8,12.7-11.5l0.4-1.6l-1.1-5.6l-1-1.4
	c-0.4-0.6-1.4-2.2-2.9-6.2c3.8-2.1,7.2-4.3,10.1-6.6l0.2-0.2l0.2-0.2c10.8-9.4,15.1-15.7,15.1-21.6
	C189.3,17.9,186.6,13.9,184.2,11.7z"/>
<path class="st0" d="M280.1,87.9c-7.2,0-13.8-2.1-19.2-5.9c-2.6-0.5-5.1-1.6-7.2-3.3l-0.7,0.9c-4.3,5.3-10.1,8.3-16.3,8.3
	c-5.9,0-10.4-2.9-14.1-6.5c-3.5,1.9-6.9,2.2-8.6,2.2c-8.5,0-17.6-5.7-18.6-18.5l-0.1-0.6V41.4c0-9.2,5.6-16.4,14.7-19l1.8-0.5h2.1
	c3.4,0,6.4,0.9,9.7,3l0.3-1.4c2.6-13,11.7-17.6,19.3-17.6c7.8,0,13.5,5,17.8,10.9c0.9-0.8,1.9-1.6,2.9-2.4l0.4-0.3l0.5-0.3
	c5.2-3.3,10.9-5,16.9-5c9.1,0,17.8,4.6,25.8,13.7L308,23l0.5,0.6c4.1,6,6.2,11.6,6.2,17.1c4.6,2.8,7.6,7.7,8.5,14l0.2,1v1
	c0,11.8-11,19.3-22.9,25.6C293.7,86.1,286.8,87.9,280.1,87.9z"/>
<path class="st1" d="M310.1,41.7c0.2-0.9,0.3-1.7,0.4-2.6l0-0.4v-0.4c0-4.4-1.7-9-5.2-14l-0.2-0.4l-0.3-0.3
	c-6.8-7.8-13.9-11.7-21.2-11.7c-4.9,0-9.5,1.4-13.7,4.1l-0.3,0.2l-0.2,0.2c-2.9,2.2-5.4,4.6-7.5,7.2C256.1,13.4,251,9.1,245.1,9.1
	c-2.6,0-11.1,0.9-13.5,12.8l-0.2,0.8v0.8c0,3.8-0.2,7.7-0.6,11.8c-7.1-8.3-11.1-10.2-15.1-10.2h-1.3l-1.1,0.3
	c-6.5,1.8-10.3,6.7-10.3,13.2v22.9l0,0.3c0.8,9.6,7.3,13,12.6,13c1.7,0,6.1-0.4,9.3-4.5c5,6.2,9,8.7,13.4,8.7
	c3.1,0,7.6-1.1,11.6-6.1l1.4-1.7l1.3-9c2.2,4.7,5.9,10.6,12.3,11c4.6,3.7,10.4,5.7,16.9,5.7c5.8,0,11.7-1.6,17.6-4.7
	c14-7.5,19.7-13.3,19.7-20.3v-0.6l-0.1-0.6C318.1,46.1,314.2,42.8,310.1,41.7z"/>
<path class="st0" d="M502.9,87.9c-5,0-9-2.2-12.3-5c-2.2,1.9-5.3,3.7-9.5,4.6l-1.5,0.3h-1.8c-4.2,0-10.5-1.6-16.5-9.3l0,0
	c-3.3,3.3-7.6,5.2-12.3,5.3c0,0-6.8,4.9-14,4c-1.1,0-3.1-0.2-4.5-0.6l-1.8,0.6h-2.3c-3.9,0-10-1.2-14.9-7.9c-2.6,2.8-6.3,5-11.6,6
	l-1.3,0.2h-1.3c-2.6,0-8.5-0.6-13.3-5.8l-1,0.2l-1.8-0.3c-3,4.1-7.8,6.8-13.7,7.4l-0.8,0.1h-0.8c-7.3,0-16.7-3.9-20.2-22.4
	c-1.3-4.6-2.4-8.6-3.2-11.9l-4.9,0.7h-1c-7.1,0-16.1-4.3-18.4-16.4l-0.2-1.3v-1.3c0-8.7,5.9-19,22.6-19.5l36.6-6.1h4.2
	c7.6,0,13.9,3.4,17.3,9.1c1.5-6.3,6.3-12.6,16.2-14.1l1.1-0.2h1.1c4.1,0,7.9,1.3,11,3.7c2.1-1.2,4-1.8,5-2.1l3.7-1.2l3.8,0.9
	C451.5,8.6,455.6,17,455.6,24c1,0.8,2.1,1.6,3.3,2.6c1.9-9.5,9-15.8,18.5-15.8c4.4,0,8.4,1.4,11.6,4.1c1.2,0.4,2.3,1,3.4,1.6
	c2.1-5.9,4.4-10.2,8.4-12.6c3-2.1,6.6-3.2,10.5-3.2h1.3l1.2,0.2c12.3,2.2,16.6,11.5,16.6,18.8v3l-1.2,2.7c-0.3,0.7-0.9,2.2-1.8,5.1
	l6.9,1.6c9.8,2.2,15.8,9.4,15.8,18.7c0,8.9-6.2,19.4-23.6,19.5c-1.7,0.1-3.3,0.1-4.8,0.2c-0.5,6.9-4.9,15.1-16.2,17.2l-1.3,0.2
	L502.9,87.9L502.9,87.9z"/>
<path class="st1" d="M534.9,35.2l-9.8-2.2v2.9c-1.2,0.1-2.8,0.1-4.6,0.2l0.2-0.5l0.2-0.5c2.6-9.3,4-13.2,4.8-14.9l0.7-1.6v-1.7
	c0-5.2-3.1-11.3-11.7-12.9l-0.7-0.1h-0.7c-3.3,0-5.6,1-7.2,2.2c-4,2.3-5.9,8.6-8.9,18.8l-0.1,0.4c-2-3.7-4.9-6.9-9-8
	c-2.2-2.2-5.2-3.4-8.6-3.4c-7.1,0-12.1,5-12.9,12.7l0,0.4v10l-1.4-1.2c-6.5-6.4-10.6-9.9-13.7-11.7c0.1-0.7,0.1-1.4,0.2-2l0-0.4
	v-0.4c0-2.3-0.8-10-10.7-12.5l-2.2-0.5L436.5,9c-1.5,0.5-5.2,1.6-7.3,4.6c0,0,0,0,0,0c-2.6-4.2-6.7-5.9-10.5-5.9h-0.6l-0.6,0.1
	c-8.6,1.3-11.7,7.4-11.7,12.6v0.7l3.1,17.9c-1.5,0.4-2.8,0.8-3.9,1.1c-1-2.7-1.9-5.4-2.9-7.9c-1-5.8-3.3-9-5.9-10.9
	c-1.9-5.2-6.7-8.5-13.3-8.5h-3.7L342.7,19c-15.9,0.3-17.1,10.3-17.1,13.4v0.8l0.1,0.8c1.6,8.5,7.5,11.5,12.5,11.5h0.5l9.8-1.4
	c0.9,3.9,2.3,9.3,4.5,17.3c2.2,11.8,7,17.8,14.4,17.8h0.5l0.5-0.1c6.6-0.8,10-4.5,11.3-8.4c0.9,0.3,1.9,0.6,3,0.8l1.7,0.3l3.6-0.9
	c3.4,5.8,8.5,6.6,10.9,6.6h0.8l0.7-0.1C409,75.7,412,70,412,65.2v-0.4c0.6-0.2,1.2-0.3,1.9-0.5c1.9,7.1,5.7,14.9,14.2,14.9h1.4
	l1.1-0.3c0.5-0.2,1-0.3,1.5-0.5c1.4,0.6,1,0.9,4.6,0.9c3.7,0,8-3,8-3c0.6-0.4,1.1-1,1.6-1.5c1.2,0.4,2.5,0.6,3.7,0.6h0.2
	c2.6,0,8.4-0.9,11.6-8.1l5.5,4.7c1.9,2.5,6.2,7.4,12.2,7.4h1.1l0.9-0.2c6.5-1.5,9.1-5.1,10.2-8c4.8,5.8,8.7,8.2,13,8.2h0.8l0.7-0.1
	c8.4-1.6,11.4-7.6,11.4-12.6v-0.5l-0.5-4c2.9-0.1,6.6-0.3,11.1-0.4c16.4,0,17.7-10.3,17.7-13.5C546,41.5,541.8,36.8,534.9,35.2z
	 M376.3,49.2c-1.1-4.2-1.8-7.3-2.4-9.6c1.3-0.2,2.6-0.5,3.9-0.6c0.5,2,1.3,4.5,2.4,7.8C378.6,47.5,377.3,48.3,376.3,49.2z"/>
<path class="st0" d="M616.5,87.9c-8.5,0-13.9-5.8-17.1-10.9c-7,4-13.9,6.1-20.8,6.1c-7.2,0-24.3-2.7-29.2-27.6l-0.2-1.2l0.3-8.6
	l0.3-1.7l-0.3-4.5l1-2.8c8.4-23.2,25.5-26.7,35-26.7h2.6c2.5,0,5,0.3,7.4,1c0.2-0.2,0.5-0.5,0.7-0.7l0.7-0.6l0.7-0.5
	c5.2-3.8,11.5-5.8,18.8-5.8h0.8l0.8,0.1c6.8,0.7,13.8,3.7,21.4,9l0.5,0.3c7.1,5.4,10.8,11.5,10.8,18.3v0.2c0,2.3-0.6,9.5-7.5,14.4
	c-0.2,4.3-2,10.6-9.5,15.1l2,4v5.7l-0.3,1.4c-2.3,11.8-11.4,16-18.4,16H616.5z"/>
<path class="st1" d="M638,14.7l-0.3-0.2c-6.8-4.7-13-7.3-18.7-8l-0.4-0.1h-0.4c-6,0-11.1,1.6-15.3,4.6l-0.4,0.3l-0.4,0.4
	c-1.1,1.1-2.2,2.2-3.1,3.4c-2.9-1.3-6-2-9.2-2h-2.6c-9.6,0-22.5,3.9-29.3,22.7l-0.6,1.6l0.3,4l-0.4,2l-0.2,7.4l0.1,0.5
	c3.8,19.8,16.3,22.7,23.3,22.7c7.2,0,14.7-2.7,22.2-8.1l0.4-0.3l0.4-0.3c3.3,7.2,7.8,13.6,15,13.6h0.2c5,0,10.9-2.9,12.5-11.2
	l0.2-0.8v-3.7l-4.2-8.4c9.6-3.2,11.7-8.8,11.7-13.2c0-0.8-0.1-1.6-0.2-2.4c7.1-3.1,7.7-9.1,7.7-11v-0.2
	C646.3,21,640.1,16.3,638,14.7z M588.6,44.3c-3,2.8-4.9,3.7-5.9,3.8c0-0.2,0-0.3-0.1-0.5v-1.1c0.4-1.5,1.2-3.8,2.9-7.4
	c0.3-0.1,0.7-0.2,1.2-0.3h2.1c0.8,0.3,1,0.6,1,2.1C589.8,41.7,589.7,42.8,588.6,44.3z"/>
<path class="st0" d="M787.1,87.9c-4.3,0-8.3-1.4-11.5-4.1c-5.9,2.7-11.8,4.1-17.7,4.1c-3.9,0-7.6-0.6-11-1.8
	c-1.4,0.6-2.8,1.1-4.4,1.4l-1.5,0.3h-1.8c-4.2,0-10.5-1.6-16.5-9.3l0,0c-3.4,3.4-7.8,5.3-12.7,5.3h-0.2c-5.1,0-9.8-2.1-13.1-5.6
	c-6.1,3.1-12.3,4.7-18.3,4.7c-7.2,0-24.3-2.7-29.2-27.6l-0.2-1.2l0.2-8.6l0.3-1.7l-0.3-4.5l1-2.8c8.4-23.2,25.5-26.7,35-26.7h2.6
	c8.1,0,15.4,3.3,21.6,9.8c3.2,0.9,6.7,3,11.2,6.9c1.8-9.5,9-15.8,18.5-15.8c2.3,0,4.5,0.4,6.6,1.2c4.4-2.2,9.1-3.4,14-3.4
	c3.1,0,6.1,0.5,9,1.6c2.4-4.1,6.6-7.6,13.3-9l1.4-0.3h1.5c8.2,0,18.1,5.5,19.1,21c0.8,6.4,1.2,13.9,1.2,22v6.8c0,2.5-0.3,4.8-1,6.9
	c1,2.5,1.6,5.3,1.9,8.4l0,0.6V69l-0.1,0.8C804.4,83.2,794.8,87.9,787.1,87.9z"/>
<path class="st1" d="M801.9,63.8c-0.3-3.8-1.2-6.6-2.4-8.7c0.9-1.9,1.5-4.3,1.5-7.1v-6.8c0-8-0.4-15.2-1.2-21.5
	c-0.9-14.4-10.2-15.5-13.1-15.5h-0.8L785,4.3c-7.7,1.7-10.7,6.9-11,11.6c-4.1-2.6-8.3-4-12.6-4c-4.9,0-9.5,1.4-13.7,4.1l-0.1,0.1
	c-2.2-1.4-4.6-2-6.8-2c-7.1,0-12.1,5-12.9,12.7l0,0.4v10l-1.4-1.2c-10.4-10.2-14.8-13-18.5-13.5c-5.4-6.1-11.6-9.2-18.5-9.2h-2.6
	c-9.6,0-22.5,3.9-29.3,22.7l-0.6,1.6l0.3,4l-0.4,2l-0.2,7.4l0.1,0.5c3.8,19.8,16.3,22.7,23.3,22.7c6.6,0,13.4-2.3,20.2-6.7
	c2.3,5.5,7,7.6,11.2,7.6h0.2c2.6,0,8.3-0.9,11.6-8.1l5.5,4.7c1.9,2.5,6.2,7.4,12.2,7.4h1.1l0.9-0.2c2.2-0.5,4-1.2,5.4-2.1
	c3.4,1.5,7.3,2.3,11.4,2.3c5.8,0,11.7-1.6,17.6-4.7c0.5-0.3,1-0.5,1.5-0.8c2.6,4,6.5,5.5,10.2,5.5c5.5,0,11.8-3.3,12.9-12.8l0-0.5
	v-1.8L801.9,63.8z M688.1,44.3c-3,2.8-4.9,3.7-5.9,3.8c0-0.2,0-0.3-0.1-0.5v-1.1c0.4-1.5,1.2-3.8,2.9-7.4c0.3-0.1,0.7-0.2,1.2-0.3
	h2.1c0.8,0.3,1,0.6,1,2.1C689.4,41.7,689.2,42.8,688.1,44.3z"/>
<path class="st2" d="M149.9,10.6h-1.6l-1.6,0.2c-1.5-2-3-3.1-4.4-3.1c-1.2,0-2.3,0.5-3.3,1.4c-2.3,3.8-3.5,6.1-3.5,7.1v0.5
	c0,1.9,1,3.3,3.1,4.2c1,0,3,6,6.1,18.1v0.2c-1.8,1.2-2.8,2.5-3,4c-1.1-1.2-2.2-1.8-3.4-1.8h-0.2c-2.5,0-4,1.7-4.4,4.9
	c-7.7,1.1-13.1,2.1-16.4,3.1v-0.2c1.7-9.5,2.6-18.9,2.6-28.2c-0.9-3.5-2.6-5.2-4.9-5.2c-2.1,0-3.7,1.3-4.7,3.8
	c0,10.7-0.8,19.8-2.4,27.3c-8.1,6.9-15.2,10.6-21.2,11h-1.2L82,57.4c-4.7-2.3-7-6.1-7-11.3v-0.7c3.9,1.3,7.2,1.9,10.1,1.9
	c8.8,0,14.7-1.5,17.8-4.5c1.9-2.7,3-5.3,3.3-8c0-2.7-1.2-5.8-3.8-9.4c-5.2-6-10.3-8.9-15.2-8.9c-3.3,0-6.4,0.9-9.4,2.8
	c-4.1,3.1-7.2,6.6-9.3,10.5c-0.2-2.7-0.3-6-0.4-10.1c0-7.1-1.6-10.6-4.9-10.6s-4.9,2.3-4.9,6.8l0.9,21c-5.9,0.1-14.2,1.7-25.1,4.7
	h-0.2c-0.3-0.2-1.6-3.9-4-11.1c-1.2-6.8-3.4-10.1-6.6-10.1c-3.1,0.9-4.7,2.5-4.7,4.7c0,0.9,2,7.5,5.9,19.8v0.2
	c-0.9,2.1-1.4,3.4-1.4,4v0.5c0,1.1,0.5,2.2,1.4,3.3c1.6,0.9,2.6,1.8,2.8,2.6c0.9,6.4,2.9,9.7,5.9,9.7c3.3-0.8,4.9-2.3,4.9-4.7
	l-1.9-8.7c1.4-2.1,9.2-3.8,23.4-4.9h0.2l0.7,13.4c0.4,4.9,2.2,7.3,5.1,7.3c3.3-0.8,4.9-2.3,4.9-4.7c-0.1-0.8-0.2-1.7-0.4-2.8
	c3.7,5,8.7,7.5,15.2,7.5c4.5,0,9.1-1.3,13.8-3.8c0.8-0.4,1.5-0.8,2.3-1.2c0.7,3,2.2,4.5,4.4,4.5c2.7,0,4.6-1.2,5.6-3.5
	c1.9-2.5,6.1-4.5,12.7-6.1c13.6-0.9,20.4-3.6,20.4-8c-0.2-0.5-0.4-1-0.5-1.4c0.6,0.3,1.2,0.5,2,0.7l0.9-0.2h0.2
	c0.3,0.1,1.2,2.4,2.8,6.8c2.5,8.2,5.2,12.2,8.2,12.2c2.5,0,4.2-1.7,4.9-5.2l-0.5-2.3c-1.7-2.5-3.8-7.3-6.1-14.6v-0.2
	c6.1-2.9,11.1-5.9,15-8.9c8.3-7.3,12.4-12.4,12.4-15.5c0-2.8-0.9-5-2.6-6.6C177.8,11.8,167.3,10.6,149.9,10.6z M86.7,26.1l1.9,0.2
	c5.2,2.8,7.7,5.5,7.7,8.2v0.7c0,1.6-3.6,2.3-10.8,2.3c-4.1,0-7-0.9-8.7-2.6C79.5,29.1,82.8,26.1,86.7,26.1z M171.2,23.8
	c-7.3,6.9-13.1,10.8-17.3,11.8c-0.5-0.5-2.1-5.5-4.7-15.1l0.2-0.2c8.2,0,15.9,0.4,23.2,1.2h0.2C172.9,21.9,172.3,22.6,171.2,23.8z"
	/>
<path class="st2" d="M309.8,45.9l-2.1,0.2c-8.5,7.4-15.8,11.3-22,11.8h-1.2l-3.3-0.5c-4.7-2.3-7-6.1-7-11.3v-0.7
	c3.9,1.3,7.2,1.9,10.1,1.9c8.8,0,14.7-1.5,17.8-4.5c1.9-2.7,3-5.3,3.3-8c0-2.7-1.2-5.8-3.8-9.4c-5.2-6-10.3-8.9-15.2-8.9
	c-3.3,0-6.4,0.9-9.4,2.8c-6.6,5-10.6,11.1-12,18.3c-2-4-3.6-7-4.7-8.9c-5.1-10-9.2-15.1-12.4-15.1c-2.9,0-4.8,2.1-5.6,6.3
	c0,9.5-1.1,19.9-3.3,31.1h-0.5l-2.3-3.1c-8.9-12.2-14.7-18.4-17.6-18.4h-0.2c-3,0.8-4.4,2.6-4.4,5.4v22.6c0.3,3.8,1.9,5.7,4.7,5.7
	c2.8,0,4.4-2.4,4.9-7.3v-8.5h0.2l3.1,3.5c6.7,11,11.6,16.5,14.5,16.5c1.9,0,3.8-1,5.4-3.1l4.7-31.3h0.2c1,1.1,4.3,7.4,9.8,18.8
	c2.5,6.6,4.9,9.9,7.3,9.9c0.8-0.1,1.4-0.2,2-0.4c3.5,4,8.2,6,14.1,6c4.5,0,9.1-1.3,13.8-3.8c10.3-5.5,15.5-9.9,15.5-13.2
	C313.5,47.5,312.1,45.9,309.8,45.9z M285.9,26.1l1.9,0.2c5.1,2.8,7.7,5.5,7.7,8.2v0.7c0,1.6-3.6,2.3-10.8,2.3c-4.1,0-7-0.9-8.7-2.6
	C278.7,29.1,282,26.1,285.9,26.1z"/>
<path class="st2" d="M440.7,29.2c1.6-0.4,2.3-0.7,2.3-0.9c1.5,0,2.6-3.5,3.3-10.4c0-2.4-1.6-3.9-4.7-4.7c-2,0.6-3,1.2-3,1.6
	c-1.2,0.8-2.1,4-2.8,9.7h0.2C436,27,437.6,28.5,440.7,29.2z"/>
<path class="st2" d="M442.6,44.5c0-2.7,0.3-5.7,0.9-8.9c-0.9-3-2.5-4.5-4.7-4.5l-1.6,0.2c-1.3,0-2.9,2.2-4.7,6.6
	c-0.7,0.5-1.4,1-1.9,1.5l-4-20.1c-0.5-4.7-2.2-7.1-5.1-7.1c-3.3,0.5-4.9,2.1-4.9,4.7l4.2,24.2c-11.1,3.3-17.1,4.9-18,4.9h-0.2
	c-1.7-5.5-3.5-10.6-5.4-15.3c-0.6-4.9-2.4-7.3-5.4-7.3c0,0-0.1,0-0.1,0c0.1-0.2,0.2-0.5,0.2-0.7c0-3.6-2-5.4-6.1-5.4h-3l-36.5,6.1
	c-6.6,0-9.8,1.8-9.8,5.4c0.6,3.3,2.2,4.9,4.7,4.9l16.9-2.4c0,2.4,2,10.6,5.9,24.5c1.4,7.7,3.5,11.5,6.6,11.5
	c3.3-0.4,4.9-1.9,4.9-4.5v-0.2c-5.3-20.1-8-31-8-32.7c7.1-2,13.7-3.1,19.9-3.1c0.1,0,0.2,0,0.3,0c-0.1,0.4-0.3,0.8-0.4,1.2v0.2
	l0.2,0.2c0,2,1.9,8.4,5.6,19.1v0.7c-7,1.4-10.5,3.7-10.5,6.8c0,2.5,1.6,4.1,4.7,4.7l8.4-2.1h0.5c1,5.3,2.9,8,5.9,8
	c3.3-0.6,4.9-2,4.9-4.2l-1.2-5.7v-0.2c0.5-0.5,6.1-2.1,16.9-4.9h0.5c1.6,11.1,4.2,16.7,8,16.7h0.2c2.2-0.7,3.6-1.7,4.1-3.1
	c1,2.1,2.4,3.1,4.3,3.1v-0.2c3.1-0.4,4.7-1.9,4.7-4.5c-1.1-6.9-1.6-12.2-1.6-16L442.6,44.5L442.6,44.5z M432.7,48.2l1,8.5
	c-0.5-2.3-1.1-5.2-1.6-8.6C432.3,48.2,432.5,48.2,432.7,48.2z"/>
<path class="st2" d="M535.9,39.5c0,0.6-8.3,1.1-24.8,1.4v-0.2l4.9-11.3c2.2-7.9,3.9-13.2,5.2-16c0-2.7-1.7-4.3-5.2-4.9
	c-1.4,0-2.5,0.4-3,1.2c-0.8,0-2.6,4.7-5.4,14.1c0,2.3-2.7,8.1-8,17.4h-0.2c-0.3,0-1.3-2-3-5.9c-2.5-9.1-5.4-13.6-8.4-13.6
	c-0.5,0-1,0.1-1.5,0.2c-0.7-2.2-2.1-3.3-4.2-3.3c-2.9,0-4.6,1.8-4.9,5.4v26.4h-0.5l-14.3-12c-7.8-7.7-12.6-11.5-14.5-11.5
	c-2.4,0-4.1,1.5-4.9,4.5l0.2,2.4c3.6,12,5.4,19.8,5.4,23.5l-0.2,1.2c0.4,3.5,1.9,5.2,4.5,5.2h0.2c2.4,0,4.1-1.9,5.1-5.7
	c-0.3-4.3-0.8-8.1-1.4-11.3h0.5l18.7,16c2.4,3.3,4.5,4.9,6.3,4.9h0.2c3.1-0.7,4.7-2.1,4.7-4.2l-0.5-24.7v-1.8c2,5,3.8,9,5.3,11.7
	v0.2c-1.7,2.6-2.6,4.2-2.6,4.9c0,2.9,2,4.7,5.9,5.4l2.1-0.5h0.5c4.3,6,7.5,8.9,9.6,8.9c3.3-0.6,4.9-2.2,4.9-4.7l-0.2-1.9
	c-4.5-5.1-6.8-8-6.8-8.9c0-0.9,8.5-1.6,25.5-2.1c6.6,0,9.8-1.8,9.8-5.4C540.8,41.9,539.2,40.3,535.9,39.5z"/>
<path class="st2" d="M636,17.7c-5.7-3.9-10.7-6.1-15-6.6c-4.3,0-7.8,1-10.5,3.1c-3.1,3-5.1,6.1-6,9.3c-3.6-3.8-7.6-5.7-11.8-5.7H590
	c-10.3,0-17.6,5.8-21.8,17.4l0.2,3.3l-0.7,3.8v1.4l-0.2,0.2l0.2,0.2v2.3c2.1,10.8,7.3,16.2,15.5,16.2c5.5,0,11.4-2.2,17.6-6.6
	c2-1.8,3.6-3.6,5-5.5l3.7-0.2c0.3,0,1.1,1.7,2.6,4.9c3.3,8.2,6.4,12.2,9.1,12.2h0.2c2.5,0,4.1-1.6,4.7-4.7v-1l-7.3-14.4l0.5-0.7
	c3.1-1,4.9-1.7,5.4-2.1c5.9-1.4,8.9-3.5,8.9-6.3c0-2.5-1.6-4.1-4.7-4.7h-0.5l-12.9,4.2c-0.9-0.5-1.6-3.7-2.1-9.4
	c0.5-5.2,2.3-7.8,5.6-7.8h0.7c2.2,0,5.2,1.2,9.1,3.5c3.7,3.3,6.2,4.9,7.5,4.9c3.1-0.8,4.7-2.2,4.7-4.2v-0.2
	C641.1,22.6,639.4,20.2,636,17.7z M597.3,46.2c-4.5,4.4-8.6,6.6-12.4,6.6h-2.8c-2.4,0-4-2.7-4.7-8v-2.6c0.6-2.9,2-6.5,4.2-11.1
	c0-1.6,2.3-2.8,7-3.8h3c1.1,0,2,0.2,2.6,0.5c4.2,1.7,6.3,4.9,6.3,9.6C600.6,40.5,599.5,43.5,597.3,46.2z"/>
<path class="st2" d="M791.8,53.4c-0.4,0-0.8,0-1.1,0.1c0.8-1.1,1.2-2,1.2-2.9c0-0.1,0-0.2-0.1-0.3c2.6-0.3,4-2.2,4-5.8v-6.8
	c0-7.8-0.4-14.7-1.2-20.7c-0.3-5.5-2-8.2-5.2-8.2c-3.1,0.7-4.7,2.2-4.7,4.5c0.9,8.8,1.4,16.3,1.4,22.6v8.7l0.2,1.4c0,0,0,0.1,0,0.1
	l-0.9,0.1c-8.5,7.4-15.8,11.3-22,11.8h-1.2l-3.3-0.5c-4.7-2.3-7-6.1-7-11.3v-0.7c3.9,1.3,7.2,1.9,10.1,1.9c8.8,0,14.7-1.5,17.8-4.5
	c1.9-2.7,3-5.3,3.3-8c0-2.7-1.2-5.8-3.8-9.4c-5.2-6-10.3-8.9-15.2-8.9c-3.3,0-6.4,0.9-9.4,2.8c-2.6,2-4.8,4.1-6.6,6.4V24
	c-0.4-3.6-2-5.4-4.7-5.4c-2.9,0-4.6,1.8-4.9,5.4v26.4h-0.5l-14.3-12c-7.8-7.7-12.6-11.5-14.5-11.5c-0.8,0-1.5,0.2-2.2,0.5
	c-4.5-6.4-9.5-9.6-15-9.6h-2.6c-10.3,0-17.6,5.8-21.8,17.4l0.2,3.3l-0.7,3.8v1.4l-0.2,0.2l0.2,0.2v2.3c2.1,10.8,7.3,16.2,15.5,16.2
	c5.5,0,11.4-2.2,17.6-6.6c3.6-3.3,6.2-6.7,7.7-10.1c1.3,5.2,2,9,2,11.2l-0.2,1.2c0.4,3.5,1.9,5.2,4.5,5.2h0.2c2.4,0,4.1-1.9,5.2-5.7
	c-0.3-4.3-0.8-8.1-1.4-11.3h0.5l18.7,16c2.4,3.3,4.5,4.9,6.3,4.9h0.2c3.1-0.7,4.7-2.1,4.7-4.2l0-1.6c3.5,3.9,8.1,5.8,13.8,5.8
	c4.5,0,9.1-1.3,13.8-3.8c4.8-2.6,8.5-4.9,11.1-7c-0.2,0.6-0.3,1.3-0.4,2.1v3.1c0.5,3.8,2.1,5.6,4.7,5.6c2.8,0,4.5-1.9,4.9-5.7V61
	C796.2,55.9,794.6,53.4,791.8,53.4z M763.7,26.1l1.9,0.2c5.2,2.8,7.7,5.5,7.7,8.2v0.7c0,1.6-3.6,2.3-10.8,2.3c-4.1,0-7-0.9-8.7-2.6
	C756.5,29.1,759.8,26.1,763.7,26.1z M696.9,46.2c-4.5,4.4-8.6,6.6-12.4,6.6h-2.8c-2.4,0-4-2.7-4.7-8v-2.6c0.6-2.9,2-6.5,4.2-11.1
	c0-1.6,2.3-2.8,7-3.8h3c1.1,0,2,0.2,2.6,0.5c4.2,1.7,6.3,4.9,6.3,9.6C700.2,40.5,699.1,43.5,696.9,46.2z"/>
</svg>
