<?xml version="1.0" encoding="utf-8"?>
<!-- Generator: Adobe Illustrator 25.2.0, SVG Export Plug-In . SVG Version: 6.00 Build 0)  -->
<svg version="1.1" id="Layer_1" xmlns="http://www.w3.org/2000/svg" xmlns:xlink="http://www.w3.org/1999/xlink" x="0px" y="0px"
	 viewBox="0 0 222 222" style="enable-background:new 0 0 222 222;" xml:space="preserve">
<style type="text/css">
	.st0{fill:url(#SVGID_1_);}
	.st1{fill:#020202;}
	.st2{fill:#FFFFFF;}
</style>
<linearGradient id="SVGID_1_" gradientUnits="userSpaceOnUse" x1="0" y1="499" x2="222" y2="499" gradientTransform="matrix(1 0 0 1 0 -388)">
	<stop  offset="0" style="stop-color:#EC2B3D"/>
	<stop  offset="1" style="stop-color:#A41D42"/>
</linearGradient>
<circle class="st0" cx="111" cy="111" r="111"/>
<path class="st1" d="M200.5,100.7c-1.6-1.7-3.6-2.8-5.7-3.2c-1.5-0.7-3.1-1.1-4.8-1.1h-6.5l0.3-9c0.1-2.9-1-5.7-3.1-7.8
	c-2-2.1-4.9-3.3-7.7-3.3c-0.2,0-0.3,0-0.5,0c-1.4,0.1-2.8,0.4-4,0.9c-0.4,0-0.7,0.1-1.1,0.1c1.7-3.2,2.5-6.1,2.5-9v-2.9l-1.6-5.9
	l-1.4-1.4c-4.5-4.5-9.3-6.8-14.3-6.8c-8.5,0-19,1.8-32,5.5c-1.1-0.7-2.3-1.2-3.7-1.5c-2.3-9.5-8.3-11.1-12.3-11.1
	c-6.1,0-13.2,4-13.2,15.3v0.2l0.8,17.3c-4.9,0.6-10.6,1.8-17.1,3.4c-0.5-1.5-1.1-3.4-2-5.8c-2.8-14.3-9.6-17.3-14.8-17.3h-1l-1,0.3
	c-9.8,2.8-10.8,9.7-10.8,12.6c0,1.5,0,2.6,6.4,22.7c-0.9,2.2-1.2,3.7-1.2,5.1v0.5c0,0.2,0,0.5,0,0.7c-6.2,0.3-12.3,0.7-18.3,1.3
	c-5.5,0.5-9.7,4.6-10.2,9.7c-1.6,1.4-2.7,3.4-3,5.5c-1.2,8.2-0.9,16.4,0.9,24.3c0.2,1,0.7,2,1.2,3c1.6,3.4,4.9,5.6,8.8,5.6
	c0.3,0,0.5,0,0.8,0c13.3-1,26.8-1.9,41.2-2.6c0.3,0.5,0.7,1,1.2,1.4c0,0.2,0,0.3,0,0.5c0.1,4.6,3.7,8.1,8.3,8.1
	c2.2,0,4.4-0.9,5.9-2.5c1.6-1.6,2.4-3.7,2.3-5.9c0-0.9,0-1.8,0-2.8c0.7-0.8,1.5-2,2-3.6c3-1,5.6-3.2,6.9-6.4
	c1.1-2.8,1.1-5.8,0.1-8.3l0.1-3.2c3.2,3.1,7.1,3.5,8.7,3.5h0.9l0.9-0.2c1.7-0.4,3.1-1,4.4-1.6c0,2.8,0,5.5,0.1,8.1
	c0.3,5.9,5,10.6,10.8,10.6c0.2,0,0.3,0,0.5,0c0.1,0,0.2,0,0.3,0c0.4,0,0.9,0,1.4,0l0.2,3.1c0.2,4.2,3.5,7.6,7.7,7.9
	c0.2,0.4,0.4,0.8,0.7,1.2c1.8,3.7,5.5,6.1,9.6,6.1c0.1,0,0.3,0,0.4,0c2.1-0.1,4.3-0.1,6.5-0.1c4.3,0,8.7,0.2,13,0.5
	c0.2,0,0.5,0,0.7,0c0.6,0,1.2-0.1,1.8-0.2c0,0,0.4,0,0.4,0l0.5,0l1.8-0.2l0.5-0.1c1.8-0.5,3.4-1.4,4.8-2.8l0.3-0.3l1.1-1.5l0.2-0.4
	c0.4-0.7,0.8-1.5,1-2.3c0.8-0.5,1.5-1.1,2.2-1.8c1.9-2.1,2.9-4.8,2.7-7.6c-0.1-1-0.1-1.9-0.1-2.9h8.7c2.9,0,5.8-1.2,7.9-3.4
	c2-2.1,3.1-5,3-7.8c-0.1-1.3-0.4-2.6-0.9-3.9c0.1-1.3,0.2-2.6,0.3-3.9c0.5-1.2,0.8-2.5,0.9-3.8l0.6-10.5
	C203.6,105.7,202.5,102.8,200.5,100.7z M161.5,130.2c-0.2,2-0.4,4-0.4,6c-0.7,0-1.3,0-2-0.1l0.2-3.4c0-0.7,0-1.5-0.1-2.2
	c0-0.3,0-0.6,0-0.9c-0.3-5.9-5-10.6-10.8-10.6c-0.1,0-0.2,0-0.4,0c-2.3,0.1-4.7,0.1-7,0.2c0.2-0.3,0.3-0.6,0.4-0.9l7.6-0.2
	c2.9-0.1,5.6-1.3,7.6-3.4c2.5-2.2,3.8-5.3,3.6-8.5c-0.1-2.2-0.2-4.4-0.1-6.6c0.5-0.1,0.9-0.1,1.4-0.2l-0.2,5.5
	c-0.2,0.8-0.2,1.7-0.2,2.5c0.1,3.3,1.7,6.3,4.1,8.2c0.2,1.7,0.9,3.4,2.1,4.7c0.2,0.2,0.4,0.4,0.6,0.6
	C164.5,122.6,162,126,161.5,130.2z M180.3,120.1h-0.4c0.2-0.2,0.3-0.4,0.5-0.7C180.4,119.7,180.3,119.9,180.3,120.1z"/>
<g>
	<path class="st2" d="M150.9,96.4l-0.6,0.5l-7,3.8c1.2,3.7,1.9,6,2.3,7.5c2.1-0.1,4.3-0.1,6.4-0.2c1,0,2-0.5,2.7-1.3
		c0.8-0.6,1.4-1.6,1.3-2.7c-0.2-4-0.2-8,0.1-12C154.5,93.4,152.8,94.9,150.9,96.4z"/>
	<path class="st2" d="M197.9,117.9c0.4-0.6,0.7-1.3,0.7-2.1c0.2-3.5,0.4-7,0.6-10.5c0.1-1.8-1.7-3.5-3.5-3.5c-0.1,0-0.2,0-0.3,0
		c-0.6-0.6-1.4-0.9-2.3-0.9c-4.8,0-9.5,0-14.3,0c0.2-5.6,0.4-11.1,0.6-16.7c0.1-1.8-1.6-3.5-3.5-3.5c-0.9,0-1.6,0.4-2.2,0.9
		c-0.1,0-0.1,0-0.2,0c-2.6,0.1-5.2,0.4-7.8,0.6c-2.1,2.5-4.7,5.2-7.8,8c4.8-0.8,9.5-1.3,14.4-1.6c-0.2,4.9-0.3,9.8-0.5,14.7
		c-0.1,0.3-0.2,0.7-0.2,1.1c0.1,1.7,1.2,3.1,2.9,3.4c0.1,0,0.2,0,0.3,0c0.1,0,0.2,0,0.2,0c0,0,0.1,0,0.1,0c0,0,0,0,0,0c0,0,0,0,0,0
		c0.3,0,0.6,0,0.8,0c-0.1,1.4-0.2,2.8-0.4,4.2c0,0.5,0.4,0.9,0.9,0.9c0.5,0,0.8-0.4,0.9-0.9c0.1-1.4,0.2-2.8,0.4-4.2
		c0.2,0,0.4,0,0.6,0c0,0.1,0,0.1,0,0.2c0,0.5,0.4,0.9,0.9,0.9c0.5,0,0.9-0.4,0.9-0.9c0-0.1,0-0.1,0-0.2c4,0,7.9,0,11.9,0
		c0,0.1,0,0.3,0,0.4c-0.8,5.5-1.4,11-1.8,16.5c-4.5,0-9,0-13.5,0c-0.2,0-0.3,0-0.5,0.1c-0.2,0-0.5-0.1-0.7-0.1
		c-2,0.1-3.3,1.5-3.5,3.5c-0.5,4.4-0.6,8.8-0.4,13.2c-0.3-0.1-0.6-0.2-0.9-0.2c-5.4-0.4-10.9-0.6-16.4-0.5c0.2-3.7,0.4-7.4,0.5-11.2
		c0-0.5-0.1-0.9-0.3-1.4c0.1-0.3,0.2-0.6,0.1-1c-0.1-1.8-1.5-3.5-3.5-3.5c-5.5,0.2-10.9,0.3-16.4,0.3c-0.1,0-0.2,0-0.3,0
		c0-0.1,0-0.1,0-0.2c-0.4,0.1-0.7,0.2-1.1,0.2l-0.7,0.1h-0.7c-2.9,0-5.5-0.9-7.7-2.7c-0.1,2.7,0,5.4,0.1,8.1
		c0.1,1.8,1.5,3.5,3.5,3.5c0.2,0,0.3,0,0.5-0.1c0.1,0,0.2,0,0.4,0c2.7,0.1,5.5,0.1,8.2,0c0.2,3.4,0.3,6.8,0.5,10.2
		c0.1,1.1,1.8,1.1,1.7,0c0-0.8-0.1-1.5-0.1-2.3c0.4,0,0.8-0.3,0.8-0.8c0.1-2.4,0.3-4.8,0.4-7.3c1.2-0.1,2.4-0.2,3.5-0.3
		c-0.1,4.8,0,9.5,0.3,14.3c0.1,0.8,0.4,1.6,0.9,2.2c0.5,1.3,1.7,2.4,3.2,2.3c6.8-0.2,13.6-0.1,20.3,0.4c0.5,0,0.9-0.1,1.4-0.3
		c0.3,0.1,0.5,0.1,0.8,0.1c0.3,0,0.6-0.1,0.9-0.1c0.6-0.2,1.1-0.5,1.5-0.9c0.2-0.2,0.4-0.5,0.5-0.7c0.3-0.5,0.5-1.1,0.5-1.7
		c0-0.8,0-1.7,0-2.5c0.3,0.1,0.6,0.1,1,0.1c1.8-0.1,3.6-1.5,3.5-3.5c-0.2-3.6-0.2-7.2,0.1-10.7c5.3,0,10.7,0,16,0
		c1.8,0,3.5-1.6,3.5-3.5c0-0.9-0.4-1.8-1-2.4c0.2-2.3,0.3-4.7,0.6-7C197.8,118.5,197.9,118.2,197.9,117.9z"/>
</g>
<path class="st2" d="M164.9,60.5c-3.1-3.1-6.1-4.6-9-4.6c-8.5,0-19.7,2.1-33.5,6.3c-1.8-1.6-3.2-2.5-4.1-2.5h-0.3
	c-1.9,0.2-3.4,0.8-4.3,1.7c0-0.1,0-0.2,0-0.3c0-8.2-1.9-12.3-5.7-12.3c-3.8,0-5.7,2.6-5.7,7.9l1.1,24.2c-6.9,0.1-16.6,2-29.2,5.4
	h-0.3c-0.4-0.2-1.9-4.5-4.6-12.8c-1.5-7.8-4-11.7-7.6-11.7c-3.6,1-5.4,2.9-5.4,5.4c0,1,2.3,8.6,6.8,22.9v0.3c-1.1,2.4-1.6,4-1.6,4.6
	v0.5c0,1.3,0.5,2.5,1.6,3.8c1.9,1,3,2,3.3,3c1,7.4,3.3,11.2,6.8,11.2c3.8-0.9,5.7-2.7,5.7-5.4l-2.2-10.1c1.6-2.5,10.7-4.4,27.2-5.7
	h0.3l0.8,15.5c0.5,5.6,2.5,8.4,6,8.4c3.8-0.9,5.7-2.7,5.7-5.4c-0.7-4.5-1.3-12.9-1.6-25.1l0.3-3.5c-0.4,0-0.7-3-1.1-8.9
	c1.9,6.8,5.3,17,10.1,30.7c1.8,8.2,4.5,12.3,7.9,12.3c3.8-0.7,5.7-2.4,5.7-5.2c0-1.1-1.5-5.9-4.4-14.2v-0.3l12.3-6.5
	c13.3-10.9,19.9-19.2,19.9-24.8v-1.9L164.9,60.5z M152.7,67.9c-6.9,9.3-14.4,15.4-22.3,18.3c-0.5,0-2.1-4.4-4.6-13.4
	c11.6-3.6,20.6-5.4,27-5.4V67.9z"/>
<path class="st2" d="M95.3,108.4c0-0.7-0.2-1.4-0.7-2c-0.2-1.6-1.3-3.1-3.3-3.1c-1.8,0-3.6-0.1-5.4-0.1l0.9,4.1v0.9
	c0,0.5,0,1.1-0.2,1.9c0.5,0,1.1,0,1.6,0c-0.2,4.5-0.3,9.1-0.5,13.6c-7.2-0.6-14.7,0.3-21.9,0.6c-8.5,0.4-17.1,0.8-25.6,1.1
	c-0.4-4.6-0.6-9.2-0.5-13.8c6.7-0.5,13.4-0.9,20.2-1.2c-0.4-1.3-0.8-2.6-1.1-4.2l-0.9-0.5l-0.9-1.1c-0.3-0.3-0.5-0.7-0.8-1
	c-6.6,0.3-13.2,0.7-19.9,1.3c-1.9,0.2-3.5,1.5-3.5,3.5c0,0.4,0.1,0.8,0.3,1.2c-0.2,0.4-0.3,0.8-0.3,1.3c0,0.4,0,0.7,0,1.1
	c-1.2-0.2-2.8,0.5-3,1.8c-1.1,7.2-0.8,14.4,0.8,21.5c0.1,0.4,0.3,0.8,0.6,1.1c0.2,1,1,1.8,2.4,1.7c15.9-1.2,31.9-2.2,47.9-3
	c-0.1,1.1-0.1,2.2,0,3.2c0,0.4,0.4,0.9,0.9,0.9c0.4,0,0.9-0.4,0.9-0.9c-0.1-1.1-0.1-2.2,0-3.3c0.1,0,0.2,0,0.3,0
	c0.1,0.5,0.3,1.1,0.6,1.5c-0.1,2.7-0.2,5.4-0.1,8.1c0,1.1,1.8,1.1,1.7,0c0-2.4,0-4.7,0.1-7.1c0.5,0,1.1-0.1,1.5-0.5
	c0.7-0.7,0.9-1.6,0.8-2.5c0.3-0.2,0.6-0.4,0.8-0.7c0.1-0.1,0.1-0.1,0.2-0.2c0.3-0.3,0.5-0.7,0.7-1.1c0.2-0.5,0.3-1,0.3-1.6
	c0.3,0.1,0.6,0.1,0.9,0.2c3.6,0.8,5.5-3.8,3.5-5.8C94.9,119.7,95.1,114,95.3,108.4z M86.3,135.8c0,0-0.1,0.1-0.1,0.1
	c0,0-0.1,0-0.1,0.1c0,0-0.1,0-0.1,0.1c0,0,0,0,0,0c0,0,0,0-0.1,0c0-0.1,0-0.3,0-0.4C86.1,135.7,86.2,135.7,86.3,135.8
	C86.4,135.7,86.4,135.7,86.3,135.8C86.4,135.7,86.4,135.8,86.3,135.8z"/>
</svg>
