<?xml version="1.0" encoding="utf-8"?>
<!-- Generator: Adobe Illustrator 25.2.0, SVG Export Plug-In . SVG Version: 6.00 Build 0)  -->
<svg version="1.1" id="Layer_1" xmlns="http://www.w3.org/2000/svg" xmlns:xlink="http://www.w3.org/1999/xlink" x="0px" y="0px"
	 viewBox="0 0 140 216" style="enable-background:new 0 0 140 216;" xml:space="preserve">
<style type="text/css">
	.st0{fill:#BCBEC0;}
	.st1{fill:#FFFFFF;}
	.st2{fill:url(#SVGID_1_);}
	.st3{fill:#020202;}
</style>
<g>
	<path class="st0" d="M138.5,98.5c-1.1-2.2-2.8-3.9-4.8-5.2c0.1-1.2,0.3-2.4,0.4-3.7c1.1-10.5,2.3-21.3,1.8-32.1
		c-1-19.2-10-36.4-24.9-47.2C101.7,3.7,90.3,0,78.7,0C71.5,0,64.5,1.4,58,4.1c-14.7,6.1-27.3,18.8-34.5,34.7
		c-7.7,17-9.1,35.3-9,50.7c-3.3,1.6-5.9,4.3-7.3,7.7c-4,2.5-6.6,6.8-6.9,11.9c-1.7,29.2,1.9,58.1,10.7,86c0.2,0.6,0.4,1.2,0.7,1.7
		c1.1,4.7,4.7,8.7,9.6,10.7c13.7,5.6,28.3,8.5,43.4,8.5c0,0,0,0,0,0c14.2,0,28-2.5,41.1-7.5c4.6-1.8,7.9-5.2,9.3-9.3
		c1.5-0.7,2.9-1.4,4.4-2.2c4-1.3,7-4.2,8.6-8.2c0.5-1.2,0.8-2.4,1-3.8c4.7-24.8,8.1-50,10.1-75.1c0-0.1,0-0.1,0-0.2
		C140.5,105.9,140.2,101.9,138.5,98.5z"/>
	<path class="st1" d="M109.5,98.3c-3.5-0.4-7.1-0.8-10.6-1.2l-4.4-0.4l0.7-4.3c1.1-7.3,1.5-15.2,1.3-25.1
		c-0.2-8.4-1.6-14.9-4.4-19.9c-2.4-4.2-7.6-7.1-12.9-7.1c-1.6,0-3.2,0.3-4.7,0.8c-6.9,2.5-11.5,11.1-13.4,18.3
		c-2.6,9.5-3.4,20.4-2.6,32.2l0.3,4.2L54.6,96c-4.1,0.2-8.2,0.4-12.3,0.7l-4.3,0.3l-0.2-4.3C37,68.4,39,38.4,62.5,23.6
		c5.6-3.5,11.9-5.4,18.3-5.4c6.2,0,12.5,1.8,18,5.1c10.8,6.6,17.7,19.3,18,33.2c0.2,9.9-0.8,20-1.9,29.7c-0.3,2.8-0.6,5.6-0.9,8.3
		l-0.4,4.2L109.5,98.3z"/>
	<linearGradient id="SVGID_1_" gradientUnits="userSpaceOnUse" x1="25.2931" y1="144.5368" x2="124.4737" y2="144.5368">
		<stop  offset="0" style="stop-color:#F4D58F"/>
		<stop  offset="1" style="stop-color:#B99330"/>
	</linearGradient>
	<path class="st2" d="M71.8,189.4c-11.9,0-23.6-2.3-34.8-6.8l-1.9-0.8l-0.5-2c-6.2-23.9-9.3-48.7-9.3-73.7v-3.6l5.1-0.6
		c2.1-0.3,4.2-0.5,6.3-0.7l4.5-0.4v25.7v-25.6l8.1-0.6l4-0.2l0,0.1c4.8-0.2,9.7-0.3,14.6-0.3c17.6,0,35.4,1.4,52.9,4.3l3.7,0.6
		l-0.3,3.8c-1.9,22.7-5,45.7-9.2,68.2l-0.4,2l-1.8,0.9C100.3,185.9,86.1,189.4,71.8,189.4z"/>
	<path class="st3" d="M86.2,131.7c-0.3-3-1.1-5.9-2.9-8.4c-2-2.8-4.7-4.9-8.1-5.8c-3.3-0.8-6.8-0.5-9.8,1.3c-3,1.8-5,4.5-6.2,7.7
		c-1.1,2.7-1,5.6-0.6,8.3c0.4,2.7,1.9,5.4,3.9,7.3c0.6,0.6,1.2,1.1,1.8,1.5c-1.2,4.4-2.3,8.8-3.5,13.3c-0.1,0.4-0.1,0.7,0,1
		c-0.9,1.2-0.4,3.4,1.5,3.3c6-0.1,12.1-0.2,18.1-0.4c1.3,0,1.9-1,2-2c0.1-0.3,0.1-0.7,0-1.1c-1.4-4.3-2.3-8.6-2.9-13.1
		c0.2-0.1,0.4-0.2,0.5-0.3c0.5-0.3,1-0.7,1.4-1.2c1.3-0.9,2.4-2.1,3.1-3.5C85.9,137.2,86.5,134.5,86.2,131.7z M75.3,132.9
		c0.2,0,0.4,0,0.5-0.1c-0.3,0-0.5,0.1-0.7,0.2C75.2,132.9,75.2,132.9,75.3,132.9z M132.6,106.2c0-0.4,0-0.7,0-1
		c1.5-3.2,0.7-7.4-3.7-8.2c-0.9-0.2-1.7-0.3-2.6-0.4c1.2-13.7,3.5-27.8,2.9-41.5c-0.8-16-8.2-31-21.3-40.5
		C95.1,5.4,77.9,3.3,63.5,9.3c-13.4,5.6-23.9,17.1-29.8,30.2c-7.8,17.2-8.7,36.2-7.9,54.8c0,0-0.1,0-0.1,0c-3.6-1.2-8.3,0.7-8.4,5.6
		c0,0.3,0,0.6,0,0.9c-2.9,0.3-5.7,2.2-5.9,5.9c-1.6,28,1.9,56.1,10.4,82.8c0.2,0.6,0.4,1,0.7,1.5c0.2,2.5,2.1,4.5,4.5,5.5
		c24.7,10.1,53.1,10.4,78,0.9c3-1.1,5-3.9,4.4-7.1c3.1-1.3,6.2-2.8,9.2-4.4c1.6-0.3,3-1.4,3.7-3.3c0.3-0.6,0.4-1.2,0.4-1.8
		C127.2,156.1,130.6,131.2,132.6,106.2z M38.5,178.8c-6.1-23.8-9.1-48.1-9.1-72.7c2.5-0.3,5.1-0.6,7.6-0.9c0,7.1,0,14.1,0,21.2
		c0,2.1,1.9,4.2,4.1,4.1c2.2-0.1,4.1-1.8,4.1-4.1c0-7.3,0-14.5,0-21.8c1.1-0.1,2.3-0.2,3.4-0.3c-0.3,3.7-0.4,7.4-0.1,11
		c0.1,1.1,0.9,2.1,2.1,2.1c1,0,2.1-0.9,2.1-2.1c-0.3-3.7-0.2-7.5,0.1-11.2c22.5-1.1,45.1,0.3,67.3,3.9c-1.9,22.7-4.9,45.3-9.2,67.7
		C88.4,187.5,62,188.3,38.5,178.8z M67.7,68.3c1.1-6.6,2.7-13.3,7.6-18c1.7-1.7,3.5-1.9,5.8-1.3c1.4,0.3,1.8,0.4,2.8,1.1
		c-0.3-0.2,0.4,0.5,0.6,0.6c0.2,0.3,0.7,1,0.8,1.3c2.2,4.1,3,9.8,3.1,14.4c0.2,8.6,0.1,17.3-1.4,25.8c-6.7-0.4-13.4-0.5-20.2-0.5
		C66.2,83.8,66.4,75.9,67.7,68.3z M64.7,27.1c9.9-6.2,21.9-6.3,32-0.2c10.3,6.3,15.8,18,16.1,29.8c0.3,12.4-1.5,25.1-2.7,37.5
		c-3.6-0.4-7.1-0.8-10.7-1.2c1.3-8.5,1.6-17.2,1.4-25.8c-0.1-7.4-1.3-15.3-5-21.8c-4.3-7.6-14.4-11.1-22.5-8.2
		c-8.6,3-13.8,12.8-16,21.1c-2.9,10.8-3.5,22.4-2.7,33.6c-4.2,0.2-8.3,0.4-12.5,0.7C41.1,69.3,43.1,40.7,64.7,27.1z"/>
</g>
</svg>
