<?xml version="1.0" encoding="utf-8"?>
<!-- Generator: Adobe Illustrator 25.2.0, SVG Export Plug-In . SVG Version: 6.00 Build 0)  -->
<svg version="1.1" id="Layer_1" xmlns="http://www.w3.org/2000/svg" xmlns:xlink="http://www.w3.org/1999/xlink" x="0px" y="0px"
	 viewBox="0 0 166 112" style="enable-background:new 0 0 166 112;" xml:space="preserve">
<style type="text/css">
	.st0{fill:#FFFFFF;}
</style>
<g>
	<path class="st0" d="M158.3,55.7c0.5-12.8,1-25.6,1.4-38.4c0.1-1.6-0.5-3.2-1.5-4.5c-0.4-3.6-2.9-6.9-7.5-7
		C109.2,4.7,67.7,6,26.3,9.6c-4.2,0.4-7.8,3.3-7.8,7.8c0,0.9,0.2,1.9,0.6,2.8c-0.4,0.9-0.6,1.9-0.6,3c0,0.8,0,1.7,0,2.5
		c-2.7-0.5-6.3,1.2-6.7,4.2c-2.4,16.3-1.9,32.6,1.8,48.7c0.2,0.9,0.7,1.7,1.3,2.4c0.6,2.3,2.4,4.1,5.4,3.8c36-2.8,72.2-5,108.3-6.8
		c-0.2,2.4-0.2,4.9,0,7.3c0.1,1,0.8,2,2,1.9c1,0,2.1-0.9,2-1.9c-0.2-2.5-0.1-5,0.1-7.5c0.2,0,0.4,0,0.6,0c0.3,1.2,0.7,2.4,1.4,3.5
		c-0.3,6.1-0.4,12.2-0.3,18.3c0.1,2.5,4,2.5,3.9,0c-0.1-5.3,0-10.7,0.2-16c1.2,0.1,2.5-0.3,3.5-1.2c1.6-1.5,1.9-3.7,1.8-5.7
		c0.7-0.4,1.3-1,1.8-1.7c0.2-0.1,0.3-0.2,0.5-0.4c0.7-0.7,1.2-1.6,1.5-2.6c0.4-1.1,0.6-2.3,0.8-3.5c0.7,0.1,1.4,0.2,2.1,0.4
		C158.7,70.5,162.9,60.3,158.3,55.7z M143.9,21.3c-0.4,10.3-0.8,20.6-1.2,30.8c-16.4-1.4-33.4,0.6-49.6,1.3
		c-19.3,0.8-38.6,1.7-58,2.5c-0.9-10.4-1.3-20.8-1.1-31.2C70.6,21.8,107.3,20.6,143.9,21.3z"/>
	<path class="st0" d="M87,27.1c-13.5,0.6-27,1.2-40.5,1.8c-3.2,0.1-5.9,2.6-5.9,5.9c0,0.9,0.2,1.7,0.6,2.5c0,0.6,0,1.2,0.1,1.8
		c0.2,1.8,0.4,3.5,1,5.2c0.5,1.4,1.4,2.7,2.7,3.5c0.7,0.4,1.4,0.7,2.2,0.7c0.8,0.2,1.6,0.1,2.3-0.1c1.4-0.5,2.8-1.3,3.5-2.7
		s1.1-3,0.6-4.5c-0.1-0.3-0.1-0.6-0.2-0.8c11.2-0.5,22.4-1,33.6-1.5c3.2-0.1,5.9-2.6,5.9-5.9C92.9,29.9,90.2,27,87,27.1z"/>
	<path class="st0" d="M102,38.8c0.2,0,0.5,0,0.8,0c0.8,0,1.6-0.1,2.3-0.5c0.7-0.2,1.4-0.6,1.9-1.2c0.6-0.5,1-1.2,1.2-1.9
		c0.4-0.7,0.5-1.5,0.5-2.3c-0.1-0.5-0.1-1-0.2-1.6c-0.3-1-0.8-1.9-1.5-2.6c-0.4-0.3-0.8-0.6-1.2-0.9c-0.9-0.5-1.9-0.8-3-0.8
		c-0.2,0-0.5,0-0.8,0c-0.8,0-1.6,0.1-2.3,0.5c-0.7,0.2-1.4,0.6-1.9,1.2c-0.6,0.5-1,1.2-1.2,1.9c-0.4,0.7-0.5,1.5-0.5,2.3
		c0.1,0.5,0.1,1,0.2,1.6c0.3,1,0.8,1.8,1.5,2.6c0.4,0.3,0.8,0.6,1.2,0.9C100,38.5,101,38.8,102,38.8L102,38.8z"/>
</g>
</svg>
