<?xml version="1.0" encoding="utf-8"?>
<!-- Generator: Adobe Illustrator 25.2.0, SVG Export Plug-In . SVG Version: 6.00 Build 0)  -->
<svg version="1.1" id="Layer_1" xmlns="http://www.w3.org/2000/svg" xmlns:xlink="http://www.w3.org/1999/xlink" x="0px" y="0px"
	 viewBox="0 0 185 176" style="enable-background:new 0 0 185 176;" xml:space="preserve">
<style type="text/css">
	.st0{fill:#FFFFFF;}
</style>
<g>
	<path class="st0" d="M176.1,88.2c0.9-1.3,1.6-2.9,1.7-4.7c0.5-8,0.9-15.9,1.4-23.9c0.2-4.1-3.8-8-7.8-7.8c-0.2,0-0.4,0.1-0.6,0.1
		c-1.4-1.3-3.2-2.2-5.3-2.2c-10.7,0-21.5,0-32.2,0c0.4-12,0.9-24,1.3-36c0.1-3.6-2.8-7.1-6.4-7.7c-0.9-0.4-2-0.7-3.1-0.6
		c-18.7,1-37.6,3.4-56.1,7.1c-1.7,0.4-3.1,1.4-4.1,2.8c-1.4,1.1-2.3,2.7-2.3,4.6c0,2.8,0,5.5,0,8.3c-0.3,0.1-0.6,0.1-0.9,0.2
		c-0.8-0.2-1.5-0.4-2.3-0.4c-4.4,0.2-7.6,3.5-7.8,7.8c-0.3,4.9-0.6,9.8-0.8,14.6c-7.2,0.2-14.4,0.4-21.5,0.6c-4.1,0.1-8,3.5-7.8,7.8
		c-0.2,0.8-0.3,1.6-0.5,2.4c-0.4,0-0.7-0.1-1.1-0.1c-4.6,0.2-7.3,3.5-7.8,7.8c-1.8,15.3-2.3,30.7-1.6,46.1c0.2,4.1,3.5,8,7.8,7.8
		c0.4,0,0.7-0.1,1.1-0.2c0.3,0,0.5,0.1,0.8,0.1c6.2,0.2,12.4,0.2,18.6-0.1c0.4,7.7,0.8,15.5,1.1,23.2c0.1,2.5,4,2.5,3.9,0
		c-0.1-1.7-0.2-3.4-0.2-5.2c0.9-0.1,1.7-0.7,1.8-1.9c0.3-5.5,0.6-11,0.9-16.5c2.7-0.2,5.3-0.4,8-0.7c-0.3,10.8-0.1,21.6,0.6,32.3
		c0.1,1.8,0.8,3.6,2,5c1.1,3,3.8,5.4,7.3,5.3c15.3-0.6,30.6-0.3,45.9,0.9c1.1,0.1,2.1-0.2,3.1-0.6c0.6,0.2,1.2,0.3,1.9,0.3
		c0.7-0.1,1.4-0.2,2.1-0.3c1.3-0.4,2.5-1,3.4-2c0.4-0.5,0.8-1.1,1.2-1.6c0.7-1.2,1.1-2.5,1.1-4c0-1.9,0-3.9,0-5.8
		c0.7,0.2,1.4,0.3,2.2,0.3c4-0.2,8.1-3.5,7.8-7.8c-0.4-8.1-0.4-16.3,0.1-24.4c12.1,0,24.1,0,36.2,0c4.1,0,8-3.6,7.8-7.8
		c-0.1-2.1-0.9-4.1-2.3-5.5c0.4-5.3,0.8-10.6,1.3-15.9C176,89.5,176,88.9,176.1,88.2z M128.5,103.8c-0.4,0-0.8,0.1-1.1,0.1
		c-0.5-0.1-1-0.2-1.6-0.1c-4.6,0.2-7.3,3.5-7.8,7.8c-1.1,10-1.3,20-0.9,30c-0.7-0.2-1.3-0.4-2.1-0.4c-12.3-1-24.6-1.4-37-1.1
		c0.4-8.4,0.8-16.9,1.2-25.3c0.1-1.1-0.2-2.1-0.6-3.1c0.2-0.7,0.4-1.5,0.3-2.2c-0.2-4.1-3.4-8-7.8-7.8c-12.3,0.4-24.7,0.7-37,0.8
		c-0.2,0-0.5,0.1-0.7,0.1c-0.5-12.1,0.4-24.1,2.6-35.8c12.1-0.3,24.2-0.6,36.4-1c2.3-0.1,4.6-1.2,6.1-3c1.9-1.4,3.2-3.5,3-6.1
		c-0.5-10.2-0.4-20.3,0.4-30.5c12.2-2.2,24.4-3.7,36.9-4.5c-0.4,11.2-0.8,22.4-1.2,33.6c-0.3,0.8-0.4,1.6-0.4,2.5
		c0.2,3.8,2.8,7.1,6.5,7.7c0.2,0.1,0.5,0.1,0.8,0.1c0.2,0,0.4,0.1,0.6,0.1c0.1,0,0.1,0,0.2,0h0.1c0,0,0,0,0.1,0c0.6,0,1.2,0,1.9,0
		c-0.3,3.2-0.5,6.3-0.8,9.5c-0.1,1,1,2,2,2c1.1-0.1,1.9-0.9,1.9-2c0.3-3.2,0.5-6.3,0.8-9.5c0.5,0,1,0,1.4,0c0,0.2,0,0.3,0,0.5
		c0,1,0.9,2,1.9,2c1.1-0.1,1.9-0.9,1.9-2c0-0.2,0-0.3,0-0.5c8.9,0,17.9,0,26.8,0c0,0.3,0,0.6-0.1,1c-1.7,12.4-3.1,24.9-4.1,37.4
		C148.9,103.8,138.7,103.8,128.5,103.8z"/>
	<path class="st0" d="M105.6,28.7c-1.9-1.7-5.1-2.3-7.3-0.9c-0.1,0-0.2,0-0.3,0c-1.8,0-3.7,0.3-5.3,1.2c-3.3,1.9-4.5,5.7-4.5,9.3
		c0,3,0.2,6,0.3,8.9c0.1,3.2,0.2,6.4,0.4,9.6c0.1,3.1,2.6,6,5.9,5.9c3.1-0.1,6-2.6,5.9-5.9c-0.2-5.8-0.5-11.6-0.7-17.4
		c2.1-0.2,4.2-0.8,5.7-2.5C107.6,34.6,108.1,31,105.6,28.7z"/>
	<path class="st0" d="M70.6,73.3c-3.2-0.2-6.3-0.3-9.5-0.5c-1.5-0.1-3-0.2-4.6-0.2c-1.5-0.1-3-0.3-4.5-0.2c-4.2,0.2-8.1,2.6-9.1,6.9
		c-0.4,1.7-0.4,3.5,0.1,5.2c0.7,2.2,2,3.8,3.9,5.2c1.2,0.8,3.2,1,4.5,0.6c1.4-0.4,2.8-1.4,3.5-2.7c0.6-1.1,0.8-2.2,0.7-3.3
		c0.2,0,0.3,0,0.5,0c1.6,0.1,3.2,0.2,4.8,0.2c3.2,0.2,6.5,0.3,9.7,0.5c3.1,0.2,6-2.8,5.9-5.9C76.3,75.9,73.8,73.5,70.6,73.3z"/>
</g>
</svg>
