<?xml version="1.0" encoding="utf-8"?>
<!-- Generator: Adobe Illustrator 25.2.0, SVG Export Plug-In . SVG Version: 6.00 Build 0)  -->
<svg version="1.1" id="Layer_1" xmlns="http://www.w3.org/2000/svg" xmlns:xlink="http://www.w3.org/1999/xlink" x="0px" y="0px"
	 viewBox="0 0 429 57" style="enable-background:new 0 0 429 57;" xml:space="preserve">
<style type="text/css">
	.st0{fill:#020202;}
	.st1{fill:#FFFFFF;}
</style>
<g>
	<path class="st0" d="M204.1,25.7v-0.2c0-3.3-1.2-6.7-3.8-10.4l-0.3-0.4l-0.3-0.3c-4.8-5.5-10-8.3-15.5-8.3c-3.2,0-6.2,0.8-9,2.3
		c-2.8-2.5-7.2-4.5-14-4.5c-3.8,0-9.5,0.9-17.9,2.8l-1.9,0.4l-0.6,0.5c-1.9-0.6-3.7-0.8-5.1-0.8h-1.6c-2.1,0-4.9,0.3-7.8,1.4
		c-1.8-1-3.9-1.6-6.3-1.6h-2.6l-22.9,3.8c-1.3,0-2.4,0.2-3.5,0.4l-0.1-0.2l-0.2-0.3C84.7,3.6,76.9,0,68.3,0c-3.7,0-7.2,1.1-10.2,3.2
		L58,3.3l-0.1,0.1c-1.5,1.1-2.6,2.6-3.5,4.3c-2.3-1.1-4.7-1.6-7.1-1.6c-3.6,0-7,1-10.2,3l-0.3,0.2c0,0-0.5,0.4-0.7,0.5
		c-1.6-2.3-4.8-4.9-10.8-4.9h-0.6L24.3,5c-2.2,0.3-4,0.8-5.5,1.6C7.2,11.8,0,16.4,0,23.7v0.7l1,6l1.2,1.6c2.6,3.4,5.1,7.2,7.5,11.4
		c2.9,8.1,8.2,9.3,11.2,9.3h0.6l0.6-0.1c2.5-0.4,4.6-1.4,6.3-2.8c2.2,4.8,5.5,7.2,10.1,7.2h0.3c3.1,0,5.8-1.2,7.7-3.3
		c3.4,0,6.9-0.8,10.4-2.4c1.3,0.9,2.9,1.7,4.8,2.2l2,0.5l4.7-1.3l1-0.6c2-1.3,6.3-2.7,15.1-2.7h5.7c4,0,7.3-2,9.2-5.3
		c2.5,7.9,7.2,9.6,11,9.6h0.5l0.5-0.1c4.6-0.5,7.5-2.9,9-5.9c3.6,2.5,7.4,2.9,9.6,2.9c5.1,0,10.4-1.9,15.6-5.5
		c0.3,0.3,0.5,0.6,0.8,0.9c2.8,4,6.4,7.7,11.5,7.7h0.3c4.4,0,8.1-2.5,9.9-6.6c0,0,0.4,0,0.4,0c3.7,4.3,8.8,6.6,14.9,6.6
		c4.1,0,8.3-1.1,12.4-3.3c7.2-3.8,13.9-8.3,13.9-15.2v-0.6l-0.1-0.6C208.8,29.8,206.6,27.1,204.1,25.7z"/>
	<path class="st0" d="M426.1,31c0.2-0.5,0.3-0.7,0.5-1.7c0.9-3.8-2.1-9.8-2.1-9.8c-1.2-2.5-3-5.2-5.4-8.4l-0.2-0.3l-0.2-0.3
		C412.6,3.6,404.9,0,396.3,0c-3.7,0-7.1,1.1-10.2,3.2l-0.3,0.2c-1.2,0.9-2.2,2-3,3.4l-22.5,3.7c-3.4,0.1-5.9,0.8-7.8,1.9
		c-2.2-4.9-6.4-6.7-9.9-6.7c-4.3,0-8,2.4-10,6.5c-1.7,0.4-3.1,1-4.2,1.7c-2.2-2.4-5.2-3.4-7.7-3.4h-1.2l-1.9,0.6
		c-0.9,0.1-1.7,0.4-2.4,0.8c-2.9-4.5-7.8-10-15-10h-1c-3.2,0-6.2,1.3-9.1,3.9c-3.2-1.7-6.2-2.7-9.1-3l-0.4,0H280
		c-4.4,0-8.2,1.2-11.3,3.4l-0.4,0.3l-0.4,0.4c-0.5,0.5-0.9,0.9-1.3,1.4c-2.6-1.4-5.3-2.1-8.1-2.1c-3.6,0-7,1-10.2,3l-0.3,0.2
		l-0.2,0.2c-1.6,1.2-3,2.5-4.3,3.9c-0.9-0.4-1.9-0.7-2.9-1.1l-0.1,0c-2.3-0.8-6.7-1.9-19.7-3.3L219,8.8l-1.7,0.6
		c-8.2,2.8-9.1,8.8-9.1,11.2v0.9l0.2,0.9c0.8,3.8,3.1,10.2,7,20.1l0,0.4V43c0,4,2.5,9.2,9.5,10.6l1.4,0.3l3.3-0.6l0.9-0.4
		c4.1-1.8,7.9-3.9,11.5-6.2c4.8,6,11.3,7.1,15.4,7.1c4.1,0,8.3-1.1,12.4-3.3c0.6-0.3,1.3-0.7,1.8-1c2,2.4,4.8,4.3,8.5,4.3h0.1
		c2.8,0,5.2-1,7.1-2.6c2.1,1.2,4.2,1.5,5.5,1.5h8v-3.8c0.5-0.5,0.9-1.1,1.2-1.7c1.9,4.6,5.9,6.7,9.8,6.7h0.5l0.5-0.1
		c1.5-0.2,2.8-0.6,4-1.1c3.8,1.3,8.5,2.2,14.4,2.8l0.9,0.1l0.9-0.1c2.7-0.3,4.9-1,6.6-2.1c0,0,0.1,0,0.1-0.1c3-0.6,5.5-2.3,7.2-4.8
		c0.4-0.2,1.3-0.6,2.9-1c3.6-0.3,10.5-0.9,15.1-4.3c2.4,8.6,7.3,10.6,11.3,10.6h0.5l0.5-0.1c3-0.4,5.2-1.5,6.9-3
		c1.4,1.3,3.2,2.3,5.7,2.8l2,0.5l4.7-1.3l1-0.6c2-1.3,6.3-2.7,15.1-2.7h5.7c5.4,0,9.6-3.7,10.8-9.3l0.2-0.8v-0.9
		C429,36.4,428.5,33.7,426.1,31z"/>
	<path class="st1" d="M87.8,30.7c-4.6-1.6-9-4.5-13.5-8.6c-3.7-4.3-5.7-7.9-5.9-10.8V11l0.3-0.3h2.5C77,10.7,82,14.8,86.2,23
		c0.4,2.7,1.5,4.1,3.2,4.1c1.6,0,2.6-1,3.1-3.1h-0.1c0-2.4-2-6.3-6-11.7c-4.6-5.2-10-7.7-16.4-7.7c-2,0-3.9,0.6-5.6,1.7
		c-1,0.7-1.6,2.1-2,4.2l0.1,0.1v1c0,0.9,0.4,2.6,1.3,5c0.9,2.7,3.3,6.3,7.5,10.6c1.4,1.3,3.5,3,6.3,5v0.1c-3.6,0.5-6.5,1.2-8.8,2
		h-0.1c-0.3-2.4-0.8-4.7-1.3-7c0-4-1-6-3.1-6c-2,0-3.1,1.4-3.1,4.2c0.2,1.4,0.4,2.6,0.6,3.7c-5.1,4.4-9.6,6.7-13.3,6.9h-0.7l-2-0.3
		c-2.9-1.4-4.4-3.8-4.4-7v-0.4c2.4,0.8,4.5,1.2,6.3,1.2c5.5,0,9.2-0.9,11.1-2.8c1.2-1.7,1.9-3.3,2-5c0-1.7-0.8-3.6-2.3-5.8
		c-3.2-3.7-6.4-5.5-9.5-5.5c-2.1,0-4,0.6-5.9,1.7c-1.9,1.4-3.4,3-4.6,4.7c-0.6-0.4-1.2-0.7-2-0.7c-0.7,0-2.4,0.8-5.1,2.5h-0.1
		L31,18.8l1.2-4.7l-0.6-2.5c-0.5-1.5-2-2.2-4.5-2.2c-1.4,0.2-2.5,0.5-3.2,0.9c-9.5,4.3-14.2,7.6-14.2,9.9l0.6,3.4
		c3,3.9,5.9,8.3,8.5,13.1c1,3,2.2,4.5,3.8,4.5c2-0.3,3.1-1.3,3.1-2.9V38c0-0.6-0.8-2.4-2.3-5.5c1.8-1.9,5.3-4.6,10.5-8.2h0.4
		c0.5,6.1,0.9,9.9,1.3,11.4c0.8,6.6,2.3,9.9,4.5,9.9h0.3c1.6,0,2.5-1,2.9-3.1l-0.4-1.2c1.5,0.6,3.1,1,5,1c2.8,0,5.7-0.8,8.6-2.3
		c2.4-1.3,4.4-2.5,5.9-3.6l-0.2,3c0,1.5,1,2.5,2.9,2.9l1.6-0.4C71,39.3,77.4,38,86,38h5.7c1.6,0,2.5-1,2.9-2.9v-0.1
		c0-0.8-0.4-1.6-1.3-2.5C91.2,32,89.4,31.4,87.8,30.7z M48.6,16.7l1.2,0.1c3.2,1.7,4.8,3.4,4.8,5.1v0.4c0,1-2.2,1.5-6.7,1.5
		c-2.6,0-4.4-0.5-5.4-1.6C44.1,18.5,46.1,16.7,48.6,16.7z M25.4,16.3c-0.7,3.1-2.4,6.5-5.3,10.2h-0.4L16,21.4v-0.1
		c3.2-2.3,6.3-4,9.2-5.1h0.1V16.3z"/>
	<path class="st1" d="M122.5,17.3c1.5,0,2.4-0.9,2.9-2.6c0-2.2-1.3-3.4-3.8-3.4h-1.9l-22.8,3.8c-4.1,0-6.1,1.1-6.1,3.4
		c0.4,2,1.4,3.1,2.9,3.1l10.5-1.5c0,1.5,1.2,6.5,3.7,15.2c0.9,4.8,2.2,7.1,4.1,7.1c2-0.2,3.1-1.2,3.1-2.8v-0.1
		c-3.3-12.5-5-19.2-5-20.3C114.5,17.9,118.6,17.3,122.5,17.3z"/>
	<path class="st1" d="M200.5,28.9l-1.3,0.1c-5.3,4.6-9.9,7-13.8,7.3h-0.7l-2-0.3c-2.9-1.4-4.4-3.8-4.4-7v-0.4
		c2.4,0.8,4.5,1.2,6.3,1.2c5.5,0,9.2-0.9,11.1-2.8c1.2-1.7,1.9-3.3,2-5c0-1.7-0.8-3.6-2.3-5.8c-3.2-3.7-6.4-5.5-9.5-5.5
		c-2.1,0-4,0.6-5.9,1.7c-5.3,4-7.9,9-7.9,15.2c0,0.7,0,1.3,0.1,2.1c0,0-0.1,0-0.1,0l-6.1,0.3l-0.6-0.1v-0.1
		c5.8-5.4,8.6-9.8,8.6-13.1v-0.4c0-0.7-0.1-1.2-0.3-1.6c-1-4-4.7-6-10.8-6c-3.1,0-8.5,0.9-16.1,2.6c-1.5,1.3-2.3,2.4-2.6,3.4
		c-2.1-2-4.4-3.1-6.9-3.1h-1.6c-6.5,0-11,3.6-13.6,10.8l0.1,2l-0.4,2.3v0.9l-0.1,0.1l0.1,0.1v1.5c1.3,6.7,4.5,10.1,9.7,10.1
		c3.5,0,7.1-1.4,11-4.1c3.5-3.1,5.4-6.4,5.8-9.7c1.4,3.4,2.7,6.1,3.8,8.2c0.4,1.8,1,3,1.8,3.4c2.4,3.5,4.2,5.2,5.6,5.2h0.3
		c1.5,0,2.5-1,2.9-2.9c0-0.7-0.6-1.8-1.9-3.2c0-0.2,0.3-0.3,1-0.3h2.8l5.3-0.1c1.8,0,3.1-0.3,4-0.8c2.3,4.9,6,7.4,11.1,7.4
		c2.8,0,5.7-0.8,8.6-2.3c6.4-3.4,9.7-6.1,9.7-8.2C202.8,29.9,201.9,28.9,200.5,28.9z M185.5,16.7l1.2,0.1c3.2,1.7,4.8,3.4,4.8,5.1
		v0.4c0,1-2.2,1.5-6.7,1.5c-2.6,0-4.4-0.5-5.4-1.6C181.1,18.5,183.1,16.7,185.5,16.7z M140.3,29.1c-2.8,2.7-5.4,4.1-7.8,4.1h-1.8
		c-1.5,0-2.5-1.7-2.9-5v-1.6c0.4-1.8,1.2-4.1,2.6-6.9c0-1,1.5-1.7,4.4-2.3h1.9c0.7,0,1.2,0.1,1.6,0.3c2.6,1.1,4,3.1,4,6
		C142.3,25.6,141.6,27.4,140.3,29.1z M156.7,29.2h-0.1c-0.8-0.9-2.6-5.1-5.6-12.7c0-0.6,3.9-1.3,11.7-2c3.4,0,5.1,0.5,5.1,1.6v0.6
		C167.5,19.4,163.8,23.5,156.7,29.2z"/>
	<path class="st1" d="M358.8,26.2h-0.1c-1.6,0-2.5,1-2.8,3.1c-4.8,0.7-8.2,1.3-10.2,1.9V31c1.1-5.9,1.6-11.7,1.6-17.5
		c-0.6-2.1-1.6-3.2-3.1-3.2c-1.3,0-2.3,0.8-2.9,2.3c0,5.3-0.3,10-1,14.1c-0.2-1.2-0.4-2.4-0.7-3.7c-0.5-4.3-1.6-6.4-3.5-6.4
		c-2,0.5-3.1,1.4-3.1,2.9c1.3,5.6,1.9,9.8,1.9,12.7v1.3c0,2.9-0.3,4.4-0.9,4.4h-1.2l-2.3-0.1c-5.6-0.9-8.9-2-10.1-3.2v-0.4
		c2.2-4.3,3.7-9.6,4.7-16c-0.4-1.9-1.3-2.9-2.8-2.9l-1.5,0.4c-1,0-2.1,3.3-3.2,9.8c-0.1,0.2-0.1,0.3-0.2,0.5
		c-0.7-0.7-1.5-1.1-2.6-1.1l-2.6-8.2c-3.4-6.7-6.9-10.1-10.4-10.1h-1c-1.4,0-3,1-4.8,2.9c-0.9,1.4-1.7,2.9-2.4,4.5
		c-0.5-0.8-1.4-1.6-2.5-2.5c-3.5-2.4-6.7-3.8-9.4-4.1c-2.7,0-4.9,0.6-6.6,1.9c-2.7,2.6-4.1,5.4-4.1,8.3c0,0.3,0,0.7,0.1,1
		c-0.4-0.7-0.8-1.5-1.4-2.3c-3.2-3.7-6.4-5.5-9.5-5.5c-2.1,0-4,0.6-5.9,1.7c-2.9,2.2-5,4.8-6.3,7.7c-2-1.2-4.8-2.4-8.4-3.7
		c-2.9-1-8.9-2-18-2.9c-2.4,0.8-3.7,2-3.7,3.6c0.8,3.5,3.2,10.4,7.3,20.6l-0.1,1.9c0,1.4,1,2.4,3.1,2.8l0.9-0.1
		c5.7-2.6,10.9-5.7,15.5-9.3c0.8-0.7,1.5-1.3,2.2-2c0.1,0.3,0.1,0.6,0.1,1c2.1,7,6.2,10.5,12.3,10.5c2.8,0,5.7-0.8,8.6-2.3
		c4-2.1,6.7-3.9,8.2-5.5c0,0.1,0.1,0.2,0.1,0.3c2.1,5.1,4,7.6,5.7,7.6h0.1c1.6,0,2.5-1,2.9-2.9v-0.6l-4.5-8.9l0.3-0.4
		c1.9-0.6,3-1,3.4-1.3c3.7-0.9,5.6-2.2,5.6-3.9c0-1.6-1-2.6-2.9-2.9h-0.3l-8,2.6c-0.5-0.3-1-2.3-1.3-5.8c0.3-3.2,1.5-4.8,3.5-4.8
		h0.4c1.3,0,3.2,0.7,5.7,2.2c2.3,2,3.9,3.1,4.7,3.1c0.3-0.1,0.5-0.1,0.7-0.2c-1.2,4.2-1.8,8.9-1.8,14.2l0.1,1.7
		c0.6,4.6,2,6.9,4.2,6.9V41c1.5,0,2.4-0.9,2.8-2.8l-0.7-2.2v-0.3c6.8-2.7,11.2-4.1,13.2-4.1h0.1l0.9,7.1c0.2,2.3,1.1,3.5,2.8,3.5
		c2.1-0.3,3.2-1.2,3.2-2.8c0-0.1,0-0.2,0-0.2c3,2.4,8.6,3.9,16.8,4.6c1.5-0.2,2.7-0.5,3.5-1c0.4-0.3,0.8-0.6,1.2-0.9
		c0.1,0,0.3,0,0.4,0c1.7,0,2.9-0.7,3.5-2.2c1.2-1.6,3.8-2.8,7.9-3.8c8.5-0.6,12.7-2.2,12.7-5C361.7,27.8,360.3,26.2,358.8,26.2z
		 M242.4,27c-5,3.9-9,6.5-11.9,7.7c-1-1.7-2.9-6.6-5.7-14.7v-0.3l8.5,1.2c5.2,1.3,8.7,2.5,10.5,3.8C243.9,25,243.4,25.8,242.4,27z
		 M259.8,16.7l1.2,0.1c3.2,1.7,4.8,3.4,4.8,5.1v0.4c0,1-2.2,1.5-6.7,1.5c-2.6,0-4.4-0.5-5.4-1.6C255.3,18.5,257.4,16.7,259.8,16.7z
		 M259.6,36.4h-0.7l-2-0.3c-2.9-1.4-4.4-3.8-4.4-7v-0.4c2.4,0.8,4.5,1.2,6.3,1.2c5.5,0,9.2-0.9,11.1-2.8c0.9-1.2,1.5-2.5,1.8-3.7
		c0.2,0.7,0.3,1.5,0.6,2.2V26l-0.1,0.1c-1.7,0.8-2.5,1.7-2.5,2.9v0.1c0,0.9,0.4,1.5,1.1,2C266.5,34.4,262.8,36.2,259.6,36.4z
		 M296.3,29.4h-0.1c0.1-2,0.3-3.7,0.6-5.1c1.6-7.9,3.2-11.8,4.7-11.8c0.8,0,2,1.1,3.5,3.2c1.2,1.7,2.5,5,3.8,10.1
		C303.6,27.1,299.5,28.3,296.3,29.4z"/>
	<path class="st1" d="M421.3,32.4c-2.1-0.5-4-1-5.6-1.7c-4.6-1.6-9-4.5-13.5-8.6c-3.7-4.3-5.7-7.9-5.9-10.8V11l0.3-0.3h2.5
		c5.8,0,10.7,4.1,14.9,12.2c0.4,2.7,1.5,4.1,3.2,4.1c1.6,0,2.6-1,3.1-3.1h-0.1c0-2.4-2-6.3-6-11.7c-4.6-5.2-10-7.7-16.4-7.7
		c-2,0-3.9,0.6-5.6,1.7c-1,0.7-1.6,2.1-2,4.2l0.1,0.1v1c0,0.2,0,0.4,0.1,0.7c-0.6-0.7-1.6-1.1-3.1-1.1h-1.9l-22.8,3.8
		c-4.1,0-6.1,1.1-6.1,3.4c0.4,2,1.4,3.1,2.9,3.1L370,20c0,1.5,1.2,6.5,3.7,15.2c0.9,4.8,2.2,7.1,4.1,7.1c2-0.2,3.1-1.2,3.1-2.8v-0.1
		c-3.3-12.5-5-19.2-5-20.3c4.4-1.3,8.6-1.9,12.4-1.9c1.4,0,2.3-0.8,2.8-2.4c0.2,0.6,0.4,1.1,0.6,1.8c0.9,2.7,3.3,6.3,7.5,10.6
		c1.4,1.3,3.5,3,6.3,5v0.1c-3.6,0.5-6.5,1.2-8.8,2h-0.1c-0.3-2.4-0.8-4.7-1.3-7c0-4-1-6-3.1-6c-2,0-3.1,1.4-3.1,4.2
		c0.9,5.1,1.3,8.3,1.3,9.5l-0.3,4.2c0,1.5,1,2.5,2.9,2.9l1.6-0.4c4.3-2.6,10.7-3.9,19.3-3.9h5.7c1.6,0,2.5-1,2.9-2.9v-0.1
		C422.6,34.1,422.2,33.3,421.3,32.4z"/>
</g>
</svg>
