<?xml version="1.0" encoding="utf-8"?>
<!-- Generator: Adobe Illustrator 25.2.0, SVG Export Plug-In . SVG Version: 6.00 Build 0)  -->
<svg version="1.1" id="Layer_1" xmlns="http://www.w3.org/2000/svg" xmlns:xlink="http://www.w3.org/1999/xlink" x="0px" y="0px"
	 viewBox="0 0 30 34" style="enable-background:new 0 0 30 34;" xml:space="preserve">
<style type="text/css">
	.st0{fill:#FFFFFF;}
</style>
<path class="st0" d="M29.12,24.32c-2.92-3.38-5.94-6.7-9.04-9.95c1.84-2.16,3.68-4.32,5.52-6.48c0.2,0.13,0.45,0.22,0.68,0.21
	c0.3-0.01,0.6-0.1,0.81-0.3c0.06-0.07,0.12-0.14,0.18-0.21c0.1-0.16,0.16-0.34,0.16-0.52c0.07-0.52,0.14-1.03,0.2-1.55
	c0.09-0.1,0.18-0.21,0.26-0.31c2.99-3.51-3.62-6.95-6.57-3.48c-2.11,2.48-4.22,4.95-6.33,7.43c-2.77-2.76-5.6-5.47-8.5-8.13
	C3.04-2.14-2.34,2.74,1.11,5.9c3.13,2.87,6.18,5.8,9.16,8.79c-2.93,3.44-5.87,6.89-8.8,10.33c-2.03,2.39,0.37,4.73,3.04,4.91
	c-0.07,1.01-0.07,2.02,0.02,3.03C4.58,33.5,5.02,34.03,5.67,34c0.58-0.02,1.19-0.46,1.14-1.03c-0.1-1.19-0.09-2.35,0.02-3.5
	c0.44-0.23,0.85-0.55,1.21-0.97c2.44-2.86,4.87-5.72,7.31-8.58c2.87,3.04,5.67,6.13,8.39,9.28C26.76,32.69,32.11,27.78,29.12,24.32z
	"/>
</svg>
