<?xml version="1.0" encoding="utf-8"?>
<!-- Generator: Adobe Illustrator 25.2.0, SVG Export Plug-In . SVG Version: 6.00 Build 0)  -->
<svg version="1.1" id="Layer_1" xmlns="http://www.w3.org/2000/svg" xmlns:xlink="http://www.w3.org/1999/xlink" x="0px" y="0px"
	 viewBox="0 0 126 110" style="enable-background:new 0 0 126 110;" xml:space="preserve">
<style type="text/css">
	.st0{fill:#FFFFFF;}
</style>
<path class="st0" d="M66.8,105.8c0.1-0.6,0.1-1.3,0-1.9C66,71.8,65.9,39.7,66.5,7.6c0.3-1,0.3-2-0.1-3C65.7,2,63,0.8,60.6,1.2
	c-0.9,0.1-1.8,0.5-2.7,1.2C46.6,12,35.7,22,24.5,31.6c-0.2,0-0.4,0.1-0.7,0.2c-6.1,2.1-12.2,4.4-18.2,6.8c-0.4,0.2-0.8,0.4-1.2,0.6
	c-1.6,0.5-3.1,1.7-3.4,3.4c-1.2,8.6-1.5,17-0.2,25.6c0.3,2.1,2.4,3.4,4.4,3.6c0.2,0.1,0.4,0.2,0.6,0.3c5.2,2.1,10.5,3.8,16,5.2
	c12.4,10.1,24.8,20.3,36.5,31.2c1.5,1.4,3.2,1.6,4.7,1.2C64.8,109.5,66.6,108.1,66.8,105.8z M10.2,63.1c-0.5-5.2-0.3-10.5,0.3-15.7
	c3.9-1.5,7.8-3,11.8-4.4c-0.5,8-0.7,15.9-0.5,23.9C17.9,65.8,14,64.5,10.2,63.1z M28.6,41.1c0.3-0.2,0.5-0.3,0.8-0.6
	c0.7-0.6,1.3-1.1,2-1.7c-0.1,2.7-0.2,5.5-0.3,8.2c0,1.5,2.3,1.5,2.3,0c0.1-3.4,0.2-6.8,0.4-10.2c0.3-0.3,0.6-0.5,0.9-0.8
	c0,0.6,0,1.2,0,1.8c0,0.6,0.5,1.2,1.2,1.2c0.6,0,1.2-0.5,1.2-1.2c0-1.3,0-2.6,0-3.9c6.4-5.6,12.7-11.2,19.1-16.8
	c-0.4,25.4-0.3,50.8,0.2,76.2c-9.2-8.2-18.8-16-28.4-23.8C27.7,60.1,27.9,50.6,28.6,41.1z"/>
<path class="st0" d="M79.4,73.2c-4,3.7-10-2.3-6-6c7.6-7,7.7-16.6,0.4-23.9c-3.9-3.9,2.2-9.9,6-6C90.3,47.7,90.4,63,79.4,73.2z
	 M106.8,56.1c0.2-14.6-7.1-28.5-18.7-37c-4.4-3.3-8.7,4.2-4.3,7.4c2.7,2,4.9,4.2,6.8,6.7c-0.3,2-0.4,3.9-0.3,5.9
	c0,0.6,0.5,1.2,1.2,1.2c0.6,0,1.2-0.5,1.2-1.2c-0.1-0.9-0.1-1.9,0-2.8c0-0.1,0-0.2,0-0.2c9.7,15.7,6.2,38.2-9.9,49.3
	c-4.5,3.1-0.2,10.5,4.3,7.4C99,84.5,106.6,70.6,106.8,56.1z M126,54c-0.5-21.2-11.6-41.1-28.8-53.2c-4.5-3.2-8.8,4.2-4.3,7.4
	c9.6,6.7,17,16.5,21.1,27.5c-0.1,5.3-0.2,10.7-0.4,16c0,1.5,2.3,1.5,2.3,0c0.1-2.9,0.1-5.9,0.2-8.8c0.8,3.7,1.3,7.4,1.4,11.2
	c0.4,18.5-8.6,36.7-23.4,47.7c-4.4,3.2-0.1,10.6,4.3,7.4C115.6,96.3,126.5,75.6,126,54z"/>
</svg>
