<?xml version="1.0" encoding="utf-8"?>
<!-- Generator: Adobe Illustrator 25.2.0, SVG Export Plug-In . SVG Version: 6.00 Build 0)  -->
<svg version="1.1" id="Layer_1" xmlns="http://www.w3.org/2000/svg" xmlns:xlink="http://www.w3.org/1999/xlink" x="0px" y="0px"
	 viewBox="0 0 67 109" style="enable-background:new 0 0 67 109;" xml:space="preserve">
<style type="text/css">
	.st0{fill:#FFFFFF;}
</style>
<path class="st0" d="M66.89,104.78c0.14-0.62,0.15-1.26,0.01-1.91c-0.85-32.14-0.95-64.3-0.32-96.45c0.35-0.99,0.27-2.02-0.13-2.96
	C65.8,0.8,63.1-0.33,60.67,0.08c-0.91,0.12-1.83,0.5-2.68,1.22c-11.3,9.56-22.22,19.55-33.47,29.16c-0.22,0.05-0.45,0.11-0.68,0.19
	c-6.14,2.12-12.23,4.38-18.27,6.79c-0.43,0.17-0.82,0.39-1.16,0.63c-1.65,0.5-3.14,1.73-3.37,3.44c-1.18,8.59-1.48,17.06-0.22,25.67
	c0.31,2.08,2.38,3.41,4.41,3.64c0.2,0.1,0.4,0.19,0.6,0.28c5.22,2.06,10.54,3.78,15.97,5.2c12.42,10.13,24.82,20.32,36.5,31.3
	c1.47,1.38,3.17,1.65,4.67,1.22C64.93,108.49,66.64,107.14,66.89,104.78z M10.25,61.99c-0.52-5.18-0.33-10.53,0.26-15.7
	c3.92-1.54,7.85-3.01,11.81-4.43c-0.54,7.97-0.72,15.96-0.52,23.95C17.9,64.71,14.05,63.43,10.25,61.99z M28.67,40.04
	c0.27-0.16,0.54-0.34,0.81-0.57c0.67-0.57,1.34-1.15,2.01-1.72c-0.1,2.73-0.19,5.47-0.29,8.2c-0.05,1.5,2.28,1.5,2.33,0
	c0.12-3.42,0.24-6.84,0.36-10.26c0.31-0.27,0.63-0.54,0.94-0.82c0,0.62,0,1.23,0,1.85c0,0.61,0.54,1.19,1.17,1.17
	c0.63-0.03,1.17-0.51,1.17-1.17c0-1.29,0-2.58,0-3.87c6.41-5.58,12.75-11.24,19.15-16.82C55.92,41.47,56,66.91,56.54,92.34
	c-9.26-8.21-18.85-16.05-28.43-23.87C27.78,58.98,27.96,49.5,28.67,40.04z"/>
</svg>
