<?xml version="1.0" encoding="utf-8"?>
<!-- Generator: Adobe Illustrator 25.2.0, SVG Export Plug-In . SVG Version: 6.00 Build 0)  -->
<svg version="1.1" id="Layer_1" xmlns="http://www.w3.org/2000/svg" xmlns:xlink="http://www.w3.org/1999/xlink" x="0px" y="0px"
	 viewBox="0 0 54 110" style="enable-background:new 0 0 54 110;" xml:space="preserve">
<style type="text/css">
	.st0{fill:#FFFFFF;}
</style>
<path class="st0" d="M7.35,73.31c-4.02,3.75-10.05-2.29-6.03-6.05C8.9,60.2,9.06,50.68,1.77,43.31c-3.87-3.91,2.16-9.96,6.03-6.05
	C18.24,47.82,18.32,63.08,7.35,73.31z M34.78,56.16c0.23-14.6-7.09-28.5-18.71-37.07c-4.42-3.26-8.68,4.16-4.3,7.39
	c2.66,1.96,4.93,4.24,6.84,6.74c-0.31,1.97-0.42,3.95-0.28,5.93c0.05,0.61,0.5,1.2,1.16,1.17c0.59-0.03,1.21-0.51,1.16-1.17
	c-0.07-0.93-0.09-1.86-0.05-2.78c0-0.08,0.01-0.16,0.02-0.24c9.69,15.77,6.22,38.28-9.9,49.4c-4.49,3.1-0.23,10.52,4.3,7.39
	C26.95,84.68,34.55,70.76,34.78,56.16z M53.98,54.06C53.51,32.8,42.38,12.88,25.1,0.77c-4.51-3.16-8.77,4.25-4.3,7.39
	c9.6,6.73,16.98,16.5,21.08,27.5c-0.13,5.34-0.25,10.68-0.38,16.01c-0.04,1.5,2.29,1.5,2.32,0c0.07-2.95,0.14-5.89,0.21-8.84
	c0.85,3.68,1.34,7.45,1.43,11.24c0.41,18.48-8.59,36.78-23.42,47.74c-4.37,3.23-0.12,10.66,4.3,7.39
	C43.6,96.43,54.47,75.75,53.98,54.06z"/>
</svg>
