<?xml version="1.0" encoding="utf-8"?>
<!-- Generator: Adobe Illustrator 25.2.0, SVG Export Plug-In . SVG Version: 6.00 Build 0)  -->
<svg version="1.1" id="Layer_1" xmlns="http://www.w3.org/2000/svg" xmlns:xlink="http://www.w3.org/1999/xlink" x="0px" y="0px"
	 viewBox="0 0 235 231" style="enable-background:new 0 0 235 231;" xml:space="preserve">
<style type="text/css">
	.st0{fill:#BCBEC0;}
	.st1{fill:url(#SVGID_1_);}
	.st2{fill:#FFFFFF;}
	.st3{fill:#3499CC;}
	.st4{fill:#020202;}
</style>
<g>
	<g>
		<path class="st0" d="M235,37.9c-0.3-3.8-2-7.3-4.8-9.7c-3.7-3.1-7.2-6.5-10.4-10c-0.8-0.8-1.5-1.7-2.2-2.6c-0.4-0.5-0.8-1-1.2-1.5
			l-0.5-0.6l-0.3-0.4l-0.6-0.8c-0.3-0.5-0.7-0.9-1-1.4c-0.7-1-1.4-2-2.2-3.1c-2.9-4.3-7.8-7-12.8-7c-2.7,0-5.3,0.8-7.6,2.2
			c-3,1.9-5.2,4.8-6.3,8.1c-0.1-0.1-0.2-0.2-0.2-0.2c-0.4-0.6-0.9-1.1-1.4-1.7l-0.2-0.2c-0.3-0.3-0.6-0.6-0.9-0.9
			c-2.1-2-4.4-3.3-7-4.1c-1.1-0.3-2.2-0.5-3.4-0.5c-0.1,0-0.2,0-0.3,0C148.7,1.2,123.6,0,95.1,0c-19.7,0-38.8,0.5-55,1
			c-1.1,0-2.2,0.2-3.3,0.4c-0.8-0.1-1.7-0.2-2.6-0.2C24.5,1.3,17.1,8.5,17,18l0,0.4c-7,2-12,7.9-12.5,15.6
			C0.7,91.7-0.7,150.3,0.3,208.2c0,2.5,0.5,4.9,1.6,7.1c0.2,0.5,0.4,0.9,0.6,1.1c0.2,0.5,0.6,1.1,1.1,1.8c0.5,0.7,1,1.1,1.3,1.5
			l0.1,0.1c0.3,0.3,0.6,0.6,0.9,0.9c0.5,0.5,1,0.8,1.3,1l0,0c0.3,0.2,0.8,0.6,1.4,0.9c0,0,0.4,0.2,0.5,0.3c2.3,1.3,4.8,2.1,7.5,2.4
			c33.2,3.9,68,5.8,106.6,5.8c22.9,0,46.6-0.7,72.6-2c5.1-0.3,9.6-2.5,12.6-6.4c1.2-1.6,2.2-3.3,2.8-5.2c8.7-0.9,15.1-7.7,15.3-16.5
			l3.3-138.1c0.1-3.8-1-7.3-3-10.2c1.6-0.8,3.1-1.8,4.2-3.1C233.7,46.4,235.2,42.1,235,37.9z"/>
	</g>
	<g>
		<linearGradient id="SVGID_1_" gradientUnits="userSpaceOnUse" x1="36.7398" y1="106.337" x2="210.4745" y2="106.337">
			<stop  offset="0" style="stop-color:#70CEF5"/>
			<stop  offset="1" style="stop-color:#0976BD"/>
		</linearGradient>
		<path class="st1" d="M183.1,188.4l0-0.3l0-67.9c0-0.3,0-0.5-0.2-0.9l-0.4-1.1l0.2-1.2c0.2-0.9-0.1-1.9-0.6-2.5
			c-0.4-0.5-0.9-0.8-1.7-0.8c-25.1-1.8-50.5-2.8-75.6-2.8c-11.9,0-24.1,0.2-36,0.6c-0.8,0-1.3,0.3-1.7,0.9l-0.9,1.4l-1.6,0.5
			c-1.2,0.4-1.4,1.1-1.4,1.9l-0.3,74.2l-4.9-0.4c-5.3-0.4-10.5-0.9-15.8-1.4l-5.4-0.5l1.5-5.3c0.1-0.5,0.2-0.9,0.2-1.4L41.2,20
			l4.4-0.1c9.3-0.3,18.6-0.5,27.8-0.7l4.7-0.1v59.4c0,0.4,0.1,0.7,0.2,1l0.6,1.4l-0.4,1.5c-0.2,0.9-0.1,1.9,0.4,2.5
			c0.2,0.3,0.6,0.6,1.5,0.6h86.7c1,0,1.4-0.4,1.6-0.8l0.7-1l1.1-0.6c0.5-0.2,0.9-0.6,0.9-1.7V22.9l8.1,9.7
			c3.3,3.9,6.7,7.9,10.6,12.1l1.2,1.3v39.4V46.3l7.8,7.8c2.9,2.9,5.8,5.8,8.8,8.5c0.1,0.1,0.3,0.2,0.4,0.3l2,1.4l0,2.5l-3,125.9
			l-4.3,0.2c-5.1,0.2-10.3,0.4-15.4,0.5l-5,0.1L183.1,188.4z"/>
	</g>
	<g>
		<path class="st2" d="M155.2,193.9c-27.8,0-55.9-1-83.5-2.9l-4.3-0.3l0.3-74.5l4.4-0.1c1.4,0,7-0.1,7-0.1l4.7-0.1v4.5v-4.5l4.5-0.1
			c5.5-0.1,11-0.1,16.5-0.1c23.1,0,46.4,0.8,69.4,2.3l4.3,0.3v70.3l0.5,5l-4.9,0.4C167.8,193.8,161.5,193.9,155.2,193.9z"/>
	</g>
	<g>
		<path class="st2" d="M82.2,80.8V19l4.5,0c3.4,0,6.8,0,10.2,0c23.9,0,45.3,0.8,65.2,2.5l4.2,0.4v59.1H82.2z"/>
	</g>
	<path class="st2" d="M65,31.5c-3.2,0-6.4,0-9.6,0c-1.2,0-2.4,0.5-3.2,1.3c-0.2,0.2-0.3,0.4-0.4,0.6c-1.1,0.8-1.8,2-1.8,3.5
		c0,5.6,0,11.1,0,16.7c0,2.4,2.1,4.7,4.6,4.6c2.5-0.1,4.6-2,4.6-4.6c0-4.3,0-8.6,0-13c2,0,4,0,5.9,0c1.2,0,2.4-0.5,3.2-1.3
		c0.8-0.8,1.4-2.1,1.3-3.2C69.5,33.6,67.6,31.5,65,31.5z"/>
	<g>
		<rect x="129.4" y="41" class="st3" width="17" height="18.8"/>
	</g>
	<g>
		<path class="st4" d="M215.6,50.9c-6-5.6-11.8-11.4-17.4-17.5c-3.1-3.4-6.1-6.8-9-10.4c-1.5-1.8-2.9-3.5-4.3-5.3
			c-0.6-0.8-1.3-1.6-1.9-2.4c-0.1-0.1-0.1-0.1-0.2-0.2c-0.5-0.6-0.9-1.2-1.4-1.8c-0.1-0.1-0.1-0.2-0.2-0.2c-0.3-0.4-0.6-0.8-0.9-1.1
			c0,0,0,0,0,0c-0.2-0.2-0.4-0.4-0.6-0.6c-1-1-2.2-1.8-3.7-2.2c-0.7-0.2-1.4-0.3-2.1-0.3c-0.1,0-0.2,0-0.3-0.1
			C130,4.2,86.7,4.8,43,6.2c-1.2,0-2.2,0.3-3.2,0.7c-5.3-1.6-12.1,1.2-12.2,8.4c0,2.6-0.1,5.3-0.1,7.9c-5.2-1.4-12,1.4-12.4,8.4
			c-3.7,57.9-5.1,115.7-4.1,173.7c0,1.4,0.3,2.7,0.8,3.8c0.1,0.2,0.2,0.3,0.3,0.5c0.2,0.3,0.4,0.7,0.6,1c0.2,0.3,0.4,0.5,0.7,0.8
			c0.2,0.2,0.3,0.3,0.5,0.5c0.2,0.2,0.5,0.4,0.7,0.5c0.3,0.2,0.5,0.4,0.8,0.5c0.1,0,0.1,0.1,0.2,0.1c1.4,0.8,3,1.3,4.7,1.5
			c58.7,6.9,118.8,6.8,177.8,3.7c6.7-0.4,9.6-6.5,8.6-11.6c0.8,0,1.6-0.2,2.3-0.4c5.3,1.6,12.1-1.2,12.3-8.4
			c1.1-46,2.2-92,3.3-138.1C224.5,53.9,220.1,50.9,215.6,50.9z M72.3,120.6c2.3-0.1,4.6-0.1,7-0.1c0,1.2,0,2.4,0,3.7
			c0,1.2,0.5,2.4,1.3,3.2c0.4,0.4,0.9,0.8,1.5,0.9c0.5,0.3,1.1,0.4,1.8,0.4c1.2-0.1,2.4-0.4,3.2-1.3c0.8-0.9,1.3-2,1.3-3.2
			c0-1.3,0-2.6,0-3.9c28.5-0.4,57,0.3,85.5,2.2c0,22,0,44,0,66c0,0.3,0,0.5,0.1,0.7c-34,0.5-68-0.4-101.9-2.8
			C72.2,164.4,72.2,142.5,72.3,120.6z M186.8,47.8c0,12.6,0,25.1,0,37.7c0,5.9,9.2,5.9,9.2,0c0-9.4,0-18.7,0-28.1
			c2.9,2.9,5.9,5.8,9,8.7c0.3,0.3,0.7,0.5,1,0.8c-1,40.5-2,81-2.9,121.6c-5.1,0.2-10.2,0.4-15.3,0.5c0-0.2,0-0.3,0-0.5
			c0-22.7,0-45.5,0-68.2c0-0.9-0.2-1.7-0.4-2.4c0.7-3.8-1.4-8.4-6.5-8.8c-37.3-2.7-74.7-3.4-112.1-2.1c-2.5,0.1-4.2,1.3-5.3,2.9
			c-2.6,0.7-4.7,2.8-4.7,6.3c-0.1,23.1-0.2,46.2-0.3,69.2c-5.2-0.4-10.5-0.9-15.7-1.4c0.2-0.8,0.4-1.6,0.4-2.5
			c0.9-52.3,1.8-104.6,2.7-156.9c9.3-0.3,18.5-0.5,27.8-0.7c0,18.2,0,36.5,0,54.7c0,1,0.2,2,0.5,2.8c-1,3.9,1.1,8.8,6.4,8.8
			c28.9,0,57.8,0,86.7,0c2.6,0,4.4-1.2,5.5-2.9c1.9-1,3.4-2.9,3.4-5.8c0-15.3,0-30.5,0-45.8C179.5,39.7,183.1,43.8,186.8,47.8z
			 M162.3,26c0,16.8,0,33.5,0,50.3c-25,0-50,0-75.1,0c0-17.6,0-35.1,0-52.7C112.3,23.4,137.2,23.9,162.3,26z"/>
	</g>
	<g>
		<path class="st4" d="M127.1,68.9c6.7,0,13.3,0,20,0c0.9,0,1.8-0.2,2.6-0.6c3.2-0.6,5.8-3.2,5.8-6.7c0-7.4,0-14.7,0-22.1
			c0-1.6-0.6-3.1-1.6-4.3c-1.2-2-3.3-3.5-5.9-3.5c-7,0-14,0-20.9,0c-3.6,0-7,3.2-6.9,6.9c0,0.8,0.2,1.5,0.5,2.2
			c-0.3,0.7-0.5,1.6-0.5,2.4c0,6.2,0,12.5,0,18.7C120.2,65.7,123.4,69.1,127.1,68.9z M141.8,55.2c-2.6,0-5.2,0-7.8,0
			c0-3.2,0-6.4,0-9.7c2.6,0,5.2,0,7.8,0C141.8,48.8,141.8,52,141.8,55.2z"/>
	</g>
	<g>
		<path class="st4" d="M152.8,134.7c-21,0-42.1,0-63.1,0c-8.8,0-8.8,13.7,0,13.7c21,0,42.1,0,63.1,0
			C161.6,148.5,161.6,134.7,152.8,134.7z"/>
	</g>
	<g>
		<path class="st4" d="M150.4,158.4c-19.5-1-39-0.7-58.5,1c-3.7,0.3-6.9,2.9-6.9,6.9c0,3.5,3.1,7.2,6.9,6.9c19.5-1.7,39-2,58.5-1
			c3.7,0.2,6.9-3.3,6.9-6.9C157.3,161.3,154.1,158.6,150.4,158.4z"/>
	</g>
	<g>
		<path class="st4" d="M227.7,31.5c-4-3.3-7.7-6.9-11.2-10.8c-0.8-0.9-1.6-1.8-2.4-2.8c-0.4-0.5-0.9-1.1-1.3-1.6
			c-0.2-0.2-0.3-0.4-0.5-0.6c0-0.1-0.2-0.3-0.4-0.5c0,0,0,0,0-0.1c-0.2-0.3-0.4-0.5-0.6-0.8c-0.4-0.5-0.7-1-1.1-1.5
			c-0.8-1.1-1.6-2.2-2.3-3.4c-2-3-6.2-4.6-9.4-2.5c-3,1.9-4.6,6.2-2.5,9.4c6.1,9.3,13.5,17.7,22,24.9c1.4,1.2,2.9,2,4.9,2
			c1.7,0,3.7-0.7,4.9-2C230,38.7,230.6,34,227.7,31.5z"/>
	</g>
	<ellipse class="st2" cx="54.3" cy="68.3" rx="5.5" ry="5.5"/>
</g>
</svg>
