<?xml version="1.0" encoding="utf-8"?>
<!-- Generator: Adobe Illustrator 25.2.0, SVG Export Plug-In . SVG Version: 6.00 Build 0)  -->
<svg version="1.1" id="Layer_1" xmlns="http://www.w3.org/2000/svg" xmlns:xlink="http://www.w3.org/1999/xlink" x="0px" y="0px"
	 viewBox="0 0 126 110" style="enable-background:new 0 0 126 110;" xml:space="preserve">
<style type="text/css">
	.st0{fill:#FFFFFF;}
</style>
<path class="st0" d="M66.8,105.8c0.1-0.6,0.1-1.3,0-1.9C66,71.8,65.9,39.7,66.5,7.6c0.3-1,0.3-2-0.1-3C65.7,2,63,0.8,60.6,1.2
	c-0.9,0.1-1.8,0.5-2.7,1.2C46.6,12,35.7,22,24.5,31.6c-0.2,0-0.4,0.1-0.7,0.2c-6.1,2.1-12.2,4.4-18.2,6.8c-0.4,0.2-0.8,0.4-1.2,0.6
	c-1.6,0.5-3.1,1.7-3.4,3.4c-1.2,8.6-1.5,17-0.2,25.6c0.3,2.1,2.4,3.4,4.4,3.6c0.2,0.1,0.4,0.2,0.6,0.3c5.2,2.1,10.5,3.8,16,5.2
	c12.4,10.1,24.8,20.3,36.5,31.2c1.5,1.4,3.2,1.6,4.7,1.2C64.8,109.5,66.6,108.1,66.8,105.8z M10.2,63.1c-0.5-5.2-0.3-10.5,0.3-15.7
	c3.9-1.5,7.8-3,11.8-4.4c-0.5,8-0.7,15.9-0.5,23.9C17.9,65.8,14,64.5,10.2,63.1z M28.6,41.1c0.3-0.2,0.5-0.3,0.8-0.6
	c0.7-0.6,1.3-1.1,2-1.7c-0.1,2.7-0.2,5.5-0.3,8.2c0,1.5,2.3,1.5,2.3,0c0.1-3.4,0.2-6.8,0.4-10.2c0.3-0.3,0.6-0.5,0.9-0.8
	c0,0.6,0,1.2,0,1.8c0,0.6,0.5,1.2,1.2,1.2c0.6,0,1.2-0.5,1.2-1.2c0-1.3,0-2.6,0-3.9c6.4-5.6,12.7-11.2,19.1-16.8
	c-0.4,25.4-0.3,50.8,0.2,76.2c-9.2-8.2-18.8-16-28.4-23.8C27.7,60.1,27.9,50.6,28.6,41.1z"/>
<path class="st0" d="M101.9,62.6c-2.9-3.4-5.9-6.7-9-9.9c1.8-2.2,3.7-4.3,5.5-6.5c0.2,0.1,0.4,0.2,0.7,0.2c0.3,0,0.6-0.1,0.8-0.3
	c0.1-0.1,0.1-0.1,0.2-0.2c0.1-0.2,0.2-0.3,0.2-0.5c0.1-0.5,0.1-1,0.2-1.5c0.1-0.1,0.2-0.2,0.3-0.3c3-3.5-3.6-6.9-6.6-3.5
	c-2.1,2.5-4.2,4.9-6.3,7.4c-2.8-2.8-5.6-5.5-8.5-8.1c-3.5-3.2-8.8,1.7-5.4,4.9C77,47,80,50,83,52.9c-2.9,3.4-5.9,6.9-8.8,10.3
	c-2,2.4,0.4,4.7,3,4.9c-0.1,1-0.1,2,0,3c0.1,0.5,0.5,1.1,1.1,1c0.6,0,1.2-0.5,1.1-1c-0.1-1.2-0.1-2.3,0-3.5c0.4-0.2,0.8-0.5,1.2-1
	c2.4-2.9,4.9-5.7,7.3-8.6c2.9,3,5.7,6.1,8.4,9.3C99.5,70.9,104.9,66,101.9,62.6z"/>
</svg>
