<?xml version="1.0" encoding="utf-8"?>
<!-- Generator: Adobe Illustrator 25.2.0, SVG Export Plug-In . SVG Version: 6.00 Build 0)  -->
<svg version="1.1" id="Layer_1" xmlns="http://www.w3.org/2000/svg" xmlns:xlink="http://www.w3.org/1999/xlink" x="0px" y="0px"
	 viewBox="0 0 285 285" style="enable-background:new 0 0 285 285;" xml:space="preserve">
<style type="text/css">
	.st0{fill:#BCBEC0;}
	.st1{fill:#020202;}
	.st2{fill:url(#SVGID_1_);}
	.st3{fill:#A2D06F;}
	.st4{fill:#FFFFFF;}
</style>
<g>
	<path class="st0" d="M133.94,285C60.08,285,0,225.17,0,151.64c0-14.81,2.43-29.37,7.22-43.28c7.04-30.26,24.35-57.71,48.76-77.33
		C80.87,11.02,112.24,0,144.29,0C221.88,0,285,62.85,285,140.1c0,59.32-37.67,112.35-93.78,132.11
		C173.24,280.7,153.97,285,133.94,285z"/>
	<path class="st1" d="M279,138.21C279,65.23,219.59,6.07,146.29,6.07c-63.09,0-115.9,43.84-129.38,102.6
		C12.44,121.54,10,135.36,10,149.75c0,69.26,56.38,125.4,125.94,125.4c19.42,0,37.81-4.38,54.23-12.19
		C241.9,244.91,279,195.88,279,138.21z"/>
	
		<linearGradient id="SVGID_1_" gradientUnits="userSpaceOnUse" x1="684.9606" y1="-1436.3381" x2="928.4728" y2="-1436.3381" gradientTransform="matrix(1 0 0 1 -660.424 1574.551)">
		<stop  offset="0" style="stop-color:#61BB46"/>
		<stop  offset="1" style="stop-color:#0E8040"/>
	</linearGradient>
	<ellipse class="st2" cx="146.29" cy="138.21" rx="121.76" ry="121.24"/>
	<path class="st3" d="M179.6,110.64c-4.11,4.22-8.24,8.41-12.36,12.63c-1.14-1-2.34-1.94-3.44-2.98c-1.04-0.98-2.05-1.99-3.05-3.01
		c4.72-4.5,9.43-9,14.15-13.5c0.99-0.95,1.47-2.78,1.37-4.09c-0.1-1.38-0.83-2.98-1.94-3.86c-0.15-0.12-0.32-0.22-0.48-0.32
		c-0.09-0.16-0.16-0.33-0.27-0.49c-0.05-0.07-0.32-0.48-0.51-0.78c-0.06-0.17-0.46-0.97-0.51-1.1c-0.16-0.42-0.27-0.85-0.41-1.27
		c-0.02-0.05-0.03-0.07-0.04-0.11c0-0.05,0-0.08-0.01-0.15c-0.1-0.89-0.14-1.77-0.17-2.67c0-0.05,0-0.07,0-0.11
		c0.02-0.09,0.04-0.22,0.06-0.41c0.06-0.45,0.13-0.9,0.23-1.35c0.11-0.53,0.26-1.04,0.38-1.56c0.02-0.1,0.03-0.15,0.04-0.2
		c0.02-0.05,0.04-0.09,0.07-0.17c0.35-0.87,0.73-1.72,1.17-2.55c0.23-0.43,0.49-0.85,0.75-1.27c0.12-0.16,0.23-0.32,0.35-0.48
		c0.62-0.81,1.3-1.54,2-2.28c0.08-0.08,0.11-0.12,0.16-0.17c0.05-0.04,0.07-0.05,0.14-0.11c0.44-0.34,0.87-0.68,1.32-1.01
		c0.97-0.69,1.98-1.31,3.02-1.88c0.04-0.02,0.02-0.01,0.06-0.03c0.28-0.13,0.56-0.27,0.85-0.39c0.5-0.22,1.01-0.43,1.52-0.63
		c1.03-0.4,2.08-0.74,3.14-1.05c0.53-0.15,1.07-0.3,1.61-0.43c0.34-0.08,0.68-0.16,1.02-0.24c0.66-0.12,1.33-0.21,1.99-0.32
		c-2.9,3.5-5.72,7.07-8.43,10.73c-0.54,0.73-0.82,1.62-0.85,2.51c-0.32,0.6-0.54,1.25-0.46,1.94c0.11,0.92,0.48,2.02,1.29,2.57
		c4.25,2.9,8.49,5.8,12.74,8.7c0.21,0.41,0.48,0.78,0.83,1.06c1.72,1.36,3.8,1.09,5.32-0.37c4.43-4.26,8.85-8.52,13.28-12.78
		c0.67,3.19,0.61,6.32-0.24,9.79c-0.99,4.05-2.91,7.18-6.15,10.27c-0.14,0.11-0.73,0.63-0.78,0.67c-0.45,0.35-0.9,0.69-1.37,1
		c-0.47,0.32-0.95,0.62-1.43,0.91c-0.1,0.06-0.68,0.35-0.89,0.46c-0.98,0.44-1.98,0.83-3.02,1.14c-0.13,0.04-0.9,0.22-1.06,0.27
		c-0.49,0.09-0.97,0.16-1.46,0.21c-1.09,0.11-2.22,0.16-3.32,0.09c-0.18-0.03-0.54-0.07-0.7-0.09c-0.58-0.08-1.15-0.18-1.72-0.3
		c-0.57-0.12-1.13-0.27-1.69-0.44c-0.03-0.01-0.02-0.01-0.05-0.02c-0.25-0.09-0.5-0.19-0.75-0.3c-0.54-0.23-1.06-0.47-1.58-0.75
		c-0.03-0.02-0.14-0.08-0.24-0.14c-0.14-0.15-0.22-0.35-0.38-0.48c-1.34-1.06-2.9-1.43-4.4-1.24c-1.46,0.01-2.88,0.57-4,1.85
		C180.02,109.88,179.8,110.25,179.6,110.64z M119.77,105.55c-3.26-3.2-6.55-6.37-9.79-9.59c-1.47-1.46-1.57-3.3-0.91-4.8
		c-0.06-0.42-0.09-0.84,0.03-1.26c1.87-6.93,4.78-13.84,9.98-18.97c3.91-3.86,8.62-6.4,13.71-7.94c-5.81-2.56-12.29-2.78-18.83-0.57
		c-8.18,2.77-15.44,8.21-20.83,14.91c-0.02,0.04-0.01,0.07-0.03,0.11c-4.69,9.93-9.83,19.64-15.4,29.1
		c-0.24,0.41-0.55,0.76-0.89,1.07c-0.14,0.27-0.27,0.56-0.46,0.8c-0.59,0.73-1.66,1.22-2.58,1.28c-0.94,0.07-2.04-0.27-2.74-0.91
		c-1.22-1.11-2.43-2.23-3.65-3.34c-0.48,0.83-0.96,1.67-1.37,2.54c-0.29,0.61-0.56,1.23-0.81,1.85c-0.12,0.29-0.23,0.59-0.34,0.89
		c-0.03,0.09-0.07,0.18-0.1,0.28c-0.24,0.75-0.42,1.52-0.62,2.29c0.74,0.89,1.48,1.76,2.23,2.64c0.04,0.05,0.04,0.05,0.05,0.06
		c0.03,0.03,0.04,0.05,0.12,0.13c0.23,0.25,0.46,0.51,0.7,0.76c0.42,0.45,0.85,0.9,1.28,1.34c1.67,1.71,3.42,3.33,5.26,4.85
		c0.95,0.79,1.93,1.55,2.92,2.28c0.44,0.32,0.88,0.64,1.33,0.95c0.27,0.19,0.54,0.37,0.81,0.56c0.09,0.06,0.13,0.09,0.18,0.12
		c0.04,0.03,0.07,0.04,0.13,0.08c2.06,1.33,4.17,2.56,6.32,3.73c0.5-0.35,1.02-0.67,1.48-1.07c0.93-0.88,1.77-1.85,2.51-2.89
		c0.41-0.65,0.77-1.32,1.1-2.01c-1.65-1.68-3.3-3.35-4.94-5.03c-0.33-0.29-0.58-0.63-0.79-1c-0.06-0.1-0.11-0.2-0.16-0.31
		c-0.04-0.1-0.1-0.18-0.14-0.28c-0.07-0.33-0.14-0.66-0.2-0.99c-0.03-0.22,0.06-0.44,0.08-0.66c0.07-0.77,0.3-1.52,0.83-2.07
		c4.11-4.22,8.04-8.6,12.15-12.82c1.47-1.51,3.65-1.7,5.33-0.37c0.41,0.32,0.71,0.75,0.92,1.23c0.08,0.07,0.16,0.12,0.24,0.2
		c3.21,3.3,6.46,6.54,9.68,9.83c1.12-0.68,2.19-1.44,3.2-2.28c0.73-0.68,1.39-1.43,1.98-2.24c0.35-0.58,0.65-1.18,0.89-1.8
		C119.67,106,119.73,105.78,119.77,105.55z M185.37,172.21c0.07,1.05-0.73,1.89-1.75,2.01c-1.01,0.12-1.95-0.76-2.01-1.74
		c-0.21-2.93-0.41-5.87-0.62-8.8c-18.74-17.17-37.19-34.65-55.38-52.4c-0.77,1.35-1.73,2.6-2.82,3.67c-1.2,1.17-2.5,2.17-3.86,3.09
		c26.84,27.38,53.88,54.58,81.22,81.46c0.15,0.15,0.27,0.31,0.39,0.47c0.15-0.06,0.31-0.1,0.46-0.16c0.14-0.06,0.29-0.13,0.43-0.2
		c0.35-0.2,0.7-0.39,1.05-0.6c0.75-0.47,1.48-0.99,2.16-1.55c0.05-0.04,0.1-0.08,0.14-0.12c0.07-0.07,0.14-0.13,0.21-0.19
		c0.32-0.31,0.63-0.62,0.93-0.95c0.59-0.65,1.15-1.33,1.65-2.05c-0.03,0.06-0.04,0.07-0.08,0.14c0.03-0.05,0.07-0.11,0.1-0.16
		c0,0,0,0,0,0c0.06-0.08,0.13-0.19,0.18-0.29c0.02-0.04,0.05-0.07,0.07-0.11c0.23-0.38,0.45-0.77,0.65-1.16
		c0.4-0.77,0.73-1.56,1.04-2.36c0.05-0.17,0.11-0.34,0.15-0.52c0-0.02,0.01-0.04,0.01-0.05c-8.27-7.34-16.5-14.73-24.66-22.18
		C185.14,169.01,185.26,170.61,185.37,172.21z M124.01,183c0.03-0.39,0.03-0.37,0,0.03C124,183.02,124.01,183.01,124.01,183z
		 M221.82,198.56c0.95,2.51,0.85,5.32-0.27,7.73c-3.87,8.32-11.43,14.7-20.23,17.05c-0.69,0.18-1.27,0.23-1.61,0.25
		c-0.24,0.03-0.44,0.04-0.56,0.05l-0.17,0.01c0,0-0.38,0.01-0.48,0.01c-0.49,0-0.94-0.03-1.39-0.09c-0.73-0.1-1.45-0.28-2.15-0.55
		c-0.5-0.19-0.91-0.4-1.26-0.61c-0.36-0.16-0.92-0.46-1.5-0.93c-20.41-16.58-35.91-31.37-48.79-46.55
		c-0.24-0.28-0.45-0.58-0.65-0.89c-0.78,0.8-1.56,1.6-2.33,2.41l-0.05,0.05c-0.1,0.13-0.17,0.23-0.2,0.26
		c-0.2,0.24-0.38,0.43-0.56,0.62c-0.23,0.25-0.47,0.5-0.71,0.75c0.64,4.73,0.52,9.77-0.36,14.76c-1.44,8.06-4.33,14.47-8.6,19.05
		c-4.25,4.55-9.89,8.25-16.77,11c-5.27,2.1-10.51,3.17-15.58,3.17c0,0,0,0,0,0c-1.62,0-3.23-0.11-4.79-0.33
		c-5.73-0.81-9.86-6.02-9.67-12.03c-0.17-1.89,0.17-3.64,1.01-5.2c1.54-2.87,3.24-6,5.07-9.22l-4.28,3.99
		c-1.35,2.74-3.71,4.88-6.58,5.89c-1.23,0.43-2.52,0.65-3.82,0.65c-4.92,0-9.37-3.09-11.07-7.68c-5.3-14.32-2.85-30.87,6.23-42.18
		c1.83-2.27,3.97-4.3,6.35-6.06c-0.19-1.41-0.34-2.87-0.44-4.42c-9.05-4.2-16.85-10.74-22.69-19.02c-1.34-1.9-1.9-4.13-1.7-6.32
		c-0.16-0.19-0.32-0.38-0.48-0.57c-0.54-0.67-0.87-1.32-1.07-1.8c-1.3-2.14-1.76-4.65-1.25-7.01c1.45-6.75,4.52-13.22,8.88-18.71
		c1.79-2.25,4.51-3.55,7.47-3.55c1.49,0,2.95,0.33,4.29,0.94c3.6-6.53,6.83-12.83,9.79-19.1c0.18-0.39,0.39-0.73,0.58-1
		c0.21-0.43,0.5-0.96,0.94-1.51c7.41-9.4,17.84-16.65,28.61-19.88c3.97-1.19,8.01-1.79,11.99-1.79c9.83,0,18.89,3.58,26.21,10.36
		c0.79,0.74,1.28,1.47,1.65,2.11c1.3,2.08,1.74,4.51,1.26,6.88c-0.54,3.14-2.52,5.76-5.36,7.07c-1.14,0.57-2.39,0.89-3.72,0.97
		c-3.64,0.32-6.35,0.94-9.05,2.1c-0.24,0.1-0.48,0.21-0.71,0.32c-0.24,0.13-0.48,0.27-0.73,0.39c-0.49,0.28-0.96,0.58-1.42,0.89
		c-1.16,0.79-1.64,1.22-2.29,1.87c-1.95,1.97-2.72,3.17-3.9,5.57c-0.48,0.97-0.94,2.02-1.37,3.14c7.04,6.96,14.14,13.89,21.29,20.79
		c0.48-1.15,1.19-2.36,2.29-3.41l8.9-8.49c-3.17-9.98-0.43-21.81,7.36-30.17c7.89-8.47,19.74-12.88,36.24-13.5
		c0.16-0.01,0.31-0.01,0.47-0.01c3.27,0,6.31,1.28,8.51,3.57c0.09,0.07,0.19,0.14,0.29,0.22c2.03,1.61,3.31,4.06,3.53,6.73
		c0.15,1.81-0.21,3.61-0.99,5.18l0.13,1.8c1.91-1.73,4.3-2.68,6.78-2.68c1.34,0,2.67,0.28,3.92,0.82c3.92,0.84,7.23,3.64,8.61,7.41
		c5.57,15.12,1.22,32.33-10.83,42.84c-6.27,5.47-14.32,8.48-22.65,8.48c0,0,0,0,0,0c-3.33,0-6.61-0.47-9.79-1.39l-1.07,1.09
		c-2.63,2.68-5.25,5.36-7.86,8.05c-0.98,1.01-2.11,1.81-3.33,2.42c14.95,13.94,30.03,27.67,45.18,41.11
		c1.94,1.72,3.11,3.94,3.38,6.37c0.55,1.7,0.66,3.42,0.31,5.05c-0.24,1.11-0.55,2.23-0.93,3.34
		C221.5,197.79,221.67,198.17,221.82,198.56z M150.36,117.14c4.72,5.31,9.83,10.21,15.32,14.73c0.22,0.29,0.39,0.63,0.67,0.85
		c0.25,0.2,0.53,0.27,0.79,0.42c0.01,0.01,0.02,0.01,0.02,0.02c0.83,0.66,1.92,0.94,2.96,0.84c1.52-0.02,3.02-0.61,4.21-1.84
		c3.87-3.98,7.76-7.94,11.65-11.91c9.96,4.23,21.62,2.72,30.09-4.66c10.28-8.96,13.85-23.47,9.14-36.24
		c-0.77-2.09-2.72-3.49-4.84-3.71c-1.62-0.98-3.47-0.71-4.85,0.63c-5.4,5.2-10.8,10.4-16.21,15.6c-2.88-1.97-5.77-3.94-8.65-5.91
		c3.54-4.68,7.26-9.21,11.12-13.63c0.01,0.18,0.03,0.36,0.04,0.54c0.07,0.98,1,1.86,2.01,1.74c1.02-0.12,1.82-0.96,1.75-2.01
		c-0.1-1.4-0.2-2.8-0.3-4.2c0.05-0.09,0.08-0.18,0.12-0.26c0.04-0.04,0.07-0.08,0.11-0.12c1.33-1.46,1.2-4.06-0.37-5.3
		c-0.13-0.11-0.29-0.14-0.43-0.23c-1.1-1.44-2.84-2.32-4.85-2.24c-11.44,0.43-23.92,2.86-32.04,11.58
		c-6.78,7.28-9.37,18.67-4.64,27.59c-3.95,3.78-7.91,7.55-11.86,11.32c-0.75,0.71-1.2,1.93-1.34,3.04
		C149.53,114.9,149.52,116.19,150.36,117.14z M142.07,159.03c-6-5.34-11.73-10.99-17.16-16.91c-0.61-0.66-1.53-0.91-2.45-0.88
		c-0.43-0.07-0.86-0.11-1.3-0.06c-0.5,0.1-0.99,0.2-1.49,0.31c-0.94,0.33-1.73,0.87-2.39,1.62c-1.49,1.42-2.97,2.87-4.51,4.24
		c0.36-0.32,0.72-0.64,1.08-0.96c-1.38,1.22-2.71,2.48-4.06,3.73c-11.77-2.61-25.78,1.38-33.36,10.82
		c-8.03,9.99-9.66,24.49-5.28,36.35c1.06,2.86,4.31,4.46,7.22,3.44c1.72-0.6,2.99-2.05,3.51-3.72c4.7-4.38,9.4-8.75,14.1-13.13
		c2.07,1.96,4.23,3.82,6.5,5.54c-3.93,6.23-7.51,12.67-10.99,19.16c-0.36,0.66-0.39,1.43-0.27,2.18c-0.24,2.78,1.46,5.83,4.46,6.26
		c5.85,0.82,11.83-0.29,17.28-2.47c5.39-2.15,10.61-5.24,14.59-9.51c4-4.29,6.07-10.35,7.08-16.01c0.92-5.15,0.96-10.55-0.17-15.68
		c0.93-0.95,1.86-1.9,2.77-2.87c0.1-0.11,0.21-0.22,0.3-0.34c0.02-0.02,0.08-0.12,0.17-0.24c0.13-0.13,0.25-0.27,0.37-0.4
		c0.86-0.9,1.72-1.79,2.59-2.68c0.51-0.54,0.85-1.17,1.03-1.87c0.27-0.18,0.55-0.34,0.76-0.6
		C143.74,162.72,143.65,160.43,142.07,159.03z M216.36,195.91c-0.04-0.02-0.08-0.01-0.11-0.03c0.93-1.86,1.64-3.83,2.08-5.85
		c0.18-0.86-0.02-1.74-0.39-2.55c0.04-1.08-0.36-2.2-1.42-3.13c-34.15-30.28-67.44-61.51-99.83-93.65c0.16-0.59,0.33-1.18,0.51-1.76
		c0.09-0.28,0.18-0.57,0.27-0.85c0.04-0.1,0.19-0.53,0.22-0.62c0.53-1.45,1.13-2.87,1.82-4.26c1.45-2.92,2.57-4.65,5.01-7.11
		c0.93-0.94,1.7-1.61,3.18-2.62c0.68-0.46,1.38-0.9,2.1-1.3c-0.01,0,0.55-0.29,0.64-0.34c0.38-0.18,0.77-0.36,1.16-0.53
		c3.67-1.57,7.11-2.24,11.03-2.57c0.53-0.02,1.03-0.13,1.5-0.38c1.21-0.52,1.88-1.58,2.06-2.76c0.2-0.88,0.07-1.81-0.49-2.67
		c-0.17-0.29-0.35-0.58-0.59-0.82c-8.93-8.27-20.75-10.69-32.36-7.21c-10,3-19.18,9.69-25.6,17.84c-0.23,0.29-0.32,0.59-0.45,0.89
		c-0.11,0.17-0.26,0.27-0.35,0.46c-4.18,8.85-8.77,17.49-13.65,25.97c-0.72-0.66-1.44-1.32-2.16-1.98
		c-0.04-0.04-0.11-0.05-0.16-0.09c-0.2-0.52-0.5-1.01-0.98-1.39c-1.54-1.22-4.02-1.27-5.32,0.37c-3.78,4.76-6.43,10.3-7.71,16.24
		c-0.22,1.04,0.11,2.14,0.75,3c0.11,0.26,0.16,0.53,0.35,0.76c0.82,1.01,1.72,1.95,2.57,2.93c-0.9,1.26-1.09,2.95-0.14,4.31
		c5.54,7.86,13.3,14.17,22.2,17.87c0.44,0.18,0.92,0.29,1.4,0.32c0.05,2.84,0.23,5.67,0.62,8.48c0.14,1.01,0.95,1.82,2.01,1.74
		c0.96-0.07,1.89-1,1.75-2.01c-0.51-3.59-0.65-7.21-0.6-10.83c0.13-0.48,0.17-0.96,0.12-1.46c0.31-0.1,0.63-0.19,0.93-0.37
		c0.01,0.12,0.02,0.23,0.02,0.35c0.03,0.48,0.28,0.97,0.65,1.29c0.35,0.3,0.9,0.51,1.37,0.46c1.02-0.12,1.82-0.96,1.75-2.01
		c-0.06-0.92-0.13-1.83-0.19-2.75c2.66-2.38,4.82-5.37,6.04-8.66c0.36-0.97,0.54-1.9,0.18-2.92c-0.03-0.09-0.12-0.18-0.16-0.27
		c0.01-0.16,0.08-0.3,0.06-0.46c-0.07-0.33-0.14-0.66-0.2-0.99c-0.22-0.62-0.59-1.15-1.08-1.59c-1.15-1.17-2.31-2.34-3.46-3.52
		c1.05-1.1,2.1-2.2,3.14-3.31c6.42,7.63,13.35,14.81,20.81,21.42c1.48,1.31,4.07,1.2,5.32-0.37c0.14-0.17,0.19-0.37,0.3-0.56
		c9.47,9.62,18.92,19.24,28.45,28.8c-0.1,0.06-0.21,0.06-0.31,0.13c-1.55,1.06-2.32,3.66-0.99,5.22
		c14.31,16.87,30.84,31.84,48,45.78c0.17,0.14,0.35,0.17,0.52,0.27c0.19,0.12,0.38,0.23,0.59,0.31c0.27,0.1,0.54,0.17,0.81,0.2
		c0.24,0.04,0.47,0.04,0.72,0.04c0.14-0.01,0.28-0.01,0.41-0.04c0.23-0.03,0.45-0.01,0.69-0.07c7.09-1.9,13.24-7.15,16.32-13.77
		C218.9,199.16,218.25,196.74,216.36,195.91z M124.1,152.08c-1.64,1.53-3.28,3.06-4.96,4.55c0.36-0.32,0.72-0.64,1.08-0.96
		c-1.35,1.2-2.64,2.45-3.94,3.7c-1.27,1.87-3.74,3.17-5.87,2.47c-1.35-0.44-2.72-0.8-4.12-1.05c-0.69-0.12-1.39-0.21-2.09-0.28
		c-0.08-0.01-0.06-0.01-0.11-0.01c-0.36-0.01-0.72-0.02-1.08-0.02c-1.4,0-2.81,0.11-4.2,0.31c-0.13,0.02-0.96,0.18-1.12,0.2
		c-0.51,0.12-1.01,0.25-1.51,0.39c-2.97,0.87-4.52,1.56-6.91,3.13c-0.86,0.56-1.68,1.18-2.47,1.83c-0.18,0.19-0.79,0.76-0.9,0.88
		c-0.32,0.35-0.63,0.71-0.93,1.08c-0.08,0.1-0.55,0.74-0.74,0.98c-0.15,0.26-0.61,0.98-0.67,1.1c-0.56,0.98-1.05,2-1.49,3.03
		c-0.06,0.14-0.4,1.03-0.46,1.16c-0.14,0.43-0.27,0.86-0.39,1.29c-0.35,1.26-0.63,2.54-0.83,3.82c-0.09,0.56-0.16,1.13-0.22,1.69
		c-0.03,0.27-0.05,0.55-0.07,0.82c0,0.01,0,0.07-0.01,0.25c-0.03,1.27-0.01,2.53,0.09,3.79c0.06,0.72,0.12,1.33,0.2,1.89
		c4.28-3.99,8.57-7.98,12.86-11.97c1.55-1.44,3.59-1.75,5.32-0.37c0.24,0.19,0.4,0.47,0.57,0.73c0.03,0.03,0.08,0.03,0.11,0.06
		c2.76,2.77,5.73,5.34,8.88,7.66c0.43,0.31,0.72,0.76,0.93,1.25c1.63,0.83,2.64,3.33,1.59,4.94c-3.27,4.99-6.2,10.18-9.07,15.41
		c0.67-0.07,1.35-0.12,2.01-0.22c0.11-0.02,0.16-0.03,0.24-0.04c0.08-0.02,0.16-0.05,0.3-0.08c0.68-0.18,1.36-0.35,2.04-0.56
		c1.02-0.31,2.04-0.67,3.03-1.07c0.67-0.27,1.32-0.55,1.97-0.85c0.11-0.05,0.57-0.29,0.81-0.4c1.01-0.54,2-1.11,2.95-1.74
		c0.84-0.55,1.65-1.13,2.43-1.75c0.22-0.17,0.43-0.35,0.65-0.53c0.03-0.03,0.02-0.02,0.06-0.05c0.32-0.32,0.64-0.62,0.95-0.95
		c0.34-0.36,0.67-0.74,0.97-1.13c0.13-0.16,0.36-0.56,0.47-0.75c0.43-0.81,0.87-1.61,1.23-2.46c0.22-0.51,0.42-1.03,0.61-1.55
		c0.05-0.17,0.31-1,0.32-1c0.38-1.3,0.68-2.62,0.92-3.95c0.22-1.24,0.38-2.48,0.48-3.74c0.02-0.38,0.03-0.77,0.03-1.15
		c0.01-0.58,0-1.15-0.02-1.73c-0.05-1.32-0.21-2.61-0.39-3.91c-0.02-0.16-0.03-0.26-0.04-0.34c-0.02-0.06-0.05-0.16-0.09-0.3
		c-0.19-0.67-0.38-1.34-0.61-2c-0.83-2.42,0.13-5.11,2.17-6.52c0.18-0.35,0.4-0.68,0.69-0.98c0.86-0.89,1.73-1.78,2.59-2.68
		c0.12-0.13,0.24-0.27,0.37-0.4c0.08-0.12,0.15-0.22,0.17-0.24c0.1-0.12,0.2-0.22,0.3-0.33c0.87-0.92,1.75-1.82,2.63-2.73
		C129.18,157.24,126.61,154.69,124.1,152.08z"/>
	<g>
		<path class="st1" d="M235.29,100.96h-3.2l-30.5,5.06c-0.09,0-0.17,0-0.26,0.01c-2.84-4.39-8.52-8.76-19.93-8.76
			c-4.82,0-12.43,1.21-23.27,3.7l-1.92,0.44l-0.96,0.82c-3.52-4.08-8.33-7.69-14.5-7.69h-1.37c-4.15,0-8.15,2.08-12.24,6.37
			l-0.21,0.23c-0.78-0.12-1.59-0.18-2.43-0.18h-3.2l-28.62,4.75c-0.07-0.25-0.13-0.51-0.2-0.77C90.4,91.26,84.26,89.2,79.16,89.2
			c-5.1,0-8,3.21-8,3.21c-0.65,0.59-1.25,1.29-1.78,2.09c-1.55-0.29-3.11-0.44-4.67-0.44l-0.28,0c-3.89,0.13-7.81,1.1-11.66,2.86
			l-0.65,0.3l-0.59,0.41c-3.86,2.69-6.45,6.39-7.48,10.69l-0.22,0.92v0.94c0,2.99,0.68,6.67,3.07,10.42
			c-1.15,2.13-1.31,4.17-1.31,5.13c0,5.1,1.56,10.65,4.76,16.99l0.21,0.43l0.27,0.4c1.34,2.01,2.74,3.78,4.19,5.35
			c0,1.7,0,3.41,0,5.11c0,1.04,0.92,2.04,2,1.99c1.08-0.05,2-0.87,2-1.99c0-0.49,0-0.98,0-1.47c4.12,3.11,8.63,4.68,13.5,4.68
			c6.68,0,13.63-2.89,20.67-8.59l0.75-0.61l0.58-0.77c1.45-1.92,2.55-4.11,3.29-6.57c0.17,0.62,0.35,1.26,0.54,1.92
			c0.7,3.72,1.72,6.77,3.05,9.17c-3.78,1.24-5.53,2.06-6.59,2.65l-13.9,7.59l-1.7-0.14l-1.65,0.6c-8.99,3.27-10.33,9.13-10.33,12.34
			v0.98l0.24,0.95c1.48,5.91,5.73,9.82,11.35,10.45l0.45,0.05h0.45c2.04,0,4.42-0.55,7.58-1.81c0.72,2.06,1.41,4.42,2.08,7.04
			c1.4,14.03,9.38,15.57,12.79,15.57h0.71l0.7-0.12c3.38-0.6,5.82-1.97,7.51-3.71c7.97,4.56,19.01,5.55,23.96,5.99l0.86,0.08
			l0.86-0.11c3.2-0.41,5.76-1.21,7.74-2.4c2.47-1.45,4.42-3.49,5.86-6.09c2.72,3.25,5.93,5.89,9.88,6.3
			c-0.2,4.37-0.21,8.74-0.03,13.1c0.08,1.91,3.08,1.92,3,0c-0.18-4.38-0.16-8.76,0.03-13.14c0.16-0.02,0.33-0.05,0.49-0.08
			c0,2.2,0,4.41,0,6.61c0,0.78,0.69,1.53,1.5,1.49c0.81-0.04,1.5-0.66,1.5-1.49c0-2.37,0-4.74,0-7.12c0-0.13-0.03-0.26-0.06-0.39
			c2.71-1.24,5.15-3.64,6.38-7.62l2.26-0.06c1.15,0,2.2-0.09,3.2-0.23c2.35,4.09,6.41,5.68,9.86,5.68h0.2c1.74,0,6.83-0.5,10.1-5.94
			l3.18,2.69c1.74,2.25,5.57,6.55,11.13,6.55h1.08l0.87-0.19c7.48-1.68,10.14-6.92,10.14-11.27l-0.39-20.49V163.7l-0.05-0.43
			c-0.21-1.96-0.71-3.61-1.38-5.02l0.11-0.01c8.23-0.97,11.15-6.86,11.15-11.6v-1.23l-0.27-1c-2.46-9.23-3.97-15.15-4.91-18.95
			c2.48-0.39,4.87-0.59,7.14-0.59c5.55,0,10-3.57,11.61-9.33l0.29-1.05v-1.09C248.37,105.96,243.11,100.96,235.29,100.96z
			 M128.26,185.21c0.28-0.8,0.54-1.61,0.8-2.44c0.12,1.06,0.19,1.94,0.23,2.66C128.93,185.35,128.58,185.28,128.26,185.21z
			 M134.11,158.93c-1.54,0.66-2.8,1.51-3.81,2.47c-2.04-3.42-5.18-5.05-8.19-5.46c-0.3-0.64-0.67-1.26-1.11-1.86
			c0.41-0.48,0.79-0.98,1.1-1.5c2.93,3.43,6.56,4.15,9.09,4.15h4.17C134.9,157.41,134.47,158.14,134.11,158.93z M142.74,150.74
			l-1.81,0.42c0.75-1.22,1.36-2.67,1.74-4.39c0.79-0.29,1.51-0.54,2.17-0.77l0.07,0.55c0.13,1.31,0.39,2.48,0.74,3.55
			C144.7,150.29,143.74,150.51,142.74,150.74z M200.71,163.36l-0.04,0.39v5.3c-6.55-6.32-10.2-8.96-13.08-9.98
			c-0.5-1.32-1.22-2.74-2.25-4.14c1.31-1.32,2.4-3.06,3.11-5.32l2.26-0.06c10.85-0.05,14.71-6.4,14.71-11.85v-0.59l-0.09-0.58
			c-0.41-2.78-1.36-4.96-2.61-6.61l2.92-0.4c0.76,3.09,1.87,7.29,3.51,13.09c0.69,3.69,1.71,6.73,3.03,9.12
			C205.86,152,201.38,156.49,200.71,163.36z"/>
		<path class="st4" d="M93.28,132.56c0-2.82-0.98-5.6-2.93-8.36c-3.64-3.5-10.15-7.06-19.52-10.69c-3.87-1.04-6.61-2.79-8.2-5.25
			v-0.39c0.62-0.78,1.92-1.17,3.9-1.17h1.76l1.95,0.19c1.24,0,5.73,3.37,13.47,10.11c1.92,2.46,3.42,3.69,4.49,3.69
			c2.03-0.2,3.35-0.87,4-1.98l11.66-1.61c0,1.98,1.63,8.72,4.88,20.22c1.14,6.35,2.96,9.53,5.47,9.53c2.73-0.32,4.1-1.56,4.1-3.69
			v-0.19c-4.43-16.62-6.64-25.63-6.64-27.02c5.89-1.68,11.42-2.53,16.59-2.53c1.25,0,2.22-0.48,2.94-1.43
			c-2.18,6.28-3.28,13.56-3.28,21.84l0.2,2.33c0.78,6.09,2.67,9.14,5.66,9.14v-0.19c1.95,0,3.19-1.23,3.71-3.69l-0.98-2.92v-0.39
			c9.11-3.63,14.97-5.44,17.57-5.44h0.2l1.17,9.53c0.29,3.11,1.53,4.67,3.71,4.67c2.86-0.36,4.29-1.59,4.29-3.69
			c0-1.62-0.39-5.57-1.17-11.86v-0.19c2.08-1.49,3.12-2.92,3.12-4.28c-1.01-2.33-2.57-3.5-4.69-3.5l-3.51-10.89
			c-4.59-8.94-9.21-13.41-13.86-13.41h-1.37c-1.82,0-3.97,1.3-6.44,3.89c-1.3,2.04-2.43,4.24-3.4,6.59
			c-0.16-2.7-1.83-4.06-5.04-4.06h-2.54l-30.46,5.05c-1.72,0-3.16,0.15-4.34,0.44c-0.88-2.04-1.73-4.67-2.54-7.92
			c-0.88-6.22-2.7-9.33-5.47-9.33v0.19c-2.25,0-3.61,1.43-4.1,4.28l1.17,4.08v0.19c-3.87-2.59-7.71-3.89-11.52-3.89
			c-2.83,0.1-5.69,0.81-8.59,2.14c-2.28,1.59-3.71,3.6-4.29,6.03c0,4.92,3.06,9.14,9.18,12.64c14.32,5.12,21.47,9.2,21.47,12.25
			v0.97c0,1.81-2.93,3.5-8.79,5.05h-1.76c-0.98,0-2.34-0.58-4.1-1.75c-2.73-2.11-4.75-5.73-6.05-10.89
			c-0.39-4.15-1.82-6.22-4.29-6.22c-2.6,0.68-3.9,1.85-3.9,3.5c0,3.79,1.3,8.26,3.9,13.41c4.49,6.74,9.5,10.11,15.03,10.11
			c4.82,0,10.02-2.27,15.62-6.8C92.04,137.26,92.89,135.12,93.28,132.56z M136.72,122.74c2.15-10.5,4.23-15.75,6.25-15.75
			c1.07,0,2.64,1.43,4.69,4.28c1.66,2.2,3.35,6.67,5.08,13.41c-6.87,1.78-12.4,3.4-16.59,4.86h-0.2
			C136.06,126.83,136.32,124.56,136.72,122.74z"/>
		<path class="st4" d="M237.89,105.44h-2.54l-30.46,5.05c-2.68,0-4.7,0.36-6.06,1.08c-0.03-0.77-0.15-1.39-0.38-1.85
			c-1.4-5.31-6.22-7.97-14.45-7.97c-4.17,0-11.32,1.17-21.47,3.5c-2.34,2.01-3.51,3.76-3.51,5.25c0.13,1.43,0.39,2.14,0.78,2.14
			c3.87,10.37,7.13,17.95,9.76,22.74c0.52,2.46,1.3,3.95,2.34,4.47c3.16,4.67,5.63,7,7.42,7h0.39c2.05,0,3.35-1.3,3.9-3.89
			c0-0.94-0.85-2.36-2.54-4.28c0-0.23,0.45-0.36,1.37-0.39h3.71l7.03-0.19c4.55,0,6.83-1.3,6.83-3.89
			c-0.42-2.85-1.66-4.28-3.71-4.28l-8.2,0.39l-0.78-0.19v-0.19c5.12-4.8,8.53-8.99,10.23-12.58c0.69,1.12,1.7,1.69,3.04,1.69
			l14.06-1.94c0,1.98,1.63,8.72,4.88,20.22c1.14,6.35,2.96,9.53,5.47,9.53c2.73-0.32,4.1-1.56,4.1-3.69v-0.19
			c-4.43-16.62-6.64-25.63-6.64-27.02c5.89-1.68,11.42-2.53,16.59-2.53c1.95,0,3.25-1.17,3.9-3.5
			C242.97,106.93,241.28,105.44,237.89,105.44z M190.65,112.64c-0.49,3.56-5.43,9.14-14.84,16.72h-0.2
			c-1.01-1.13-3.48-6.77-7.42-16.91c0-0.78,5.21-1.68,15.62-2.72c4.55,0,6.83,0.71,6.83,2.14V112.64z"/>
		<path class="st4" d="M109.85,162.98c5.34-1.04,8-2.79,8-5.25v-0.19c0-2.07-1.3-3.37-3.9-3.89c-6.61,1.81-10.84,3.24-12.69,4.28
			l-16.01,8.75l-2.34-0.19c-3.38,1.23-5.08,2.85-5.08,4.86c0.68,2.72,2.18,4.21,4.49,4.47c1.85,0,5.56-1.43,11.13-4.28h0.2
			l0.59,0.39c2.08,3.73,3.97,8.97,5.66,15.75c0.49,5.96,2.11,8.94,4.88,8.94c2.73-0.49,4.1-1.78,4.1-3.89l-1.37-7.19
			c-1.56-6.51-3.71-12.54-6.44-18.08C101.06,166.68,103.99,165.19,109.85,162.98z"/>
		<path class="st4" d="M141.47,162.25c-2.73,0.62-4.1,1.91-4.1,3.89c1.69,7.42,2.54,13.06,2.54,16.91v1.75
			c0,3.89-0.39,5.83-1.17,5.83h-1.56l-3.12-0.19c-7.42-1.23-11.91-2.66-13.47-4.28v-0.58c2.9-5.7,4.98-12.83,6.25-21.38
			c-0.55-2.59-1.79-3.89-3.71-3.89l-1.95,0.58c-1.37,0-2.8,4.34-4.29,13.02c-2.86,6.64-4.29,10.59-4.29,11.86v0.58
			c0,6.77,8.59,10.92,25.77,12.44c2.05-0.26,3.61-0.71,4.69-1.36c3.25-1.91,4.88-6.25,4.88-13.02c0-4.41-0.59-8.94-1.76-13.61
			C145.54,165.1,143.98,162.25,141.47,162.25z"/>
		<path class="st4" d="M180.91,179.7l-8.2,0.39l-0.78-0.19v-0.19c7.68-7.19,11.52-13.02,11.52-17.5v-0.58
			c0-0.91-0.13-1.62-0.39-2.14c-1.4-5.31-6.22-7.97-14.45-7.97c-4.17,0-11.32,1.17-21.47,3.5c-2.34,2.01-3.51,3.76-3.51,5.25
			c0.13,1.43,0.39,2.14,0.78,2.14c3.87,10.37,7.13,17.95,9.76,22.74c0.52,2.46,1.3,3.95,2.34,4.47c3.16,4.67,5.63,7,7.42,7h0.39
			c2.05,0,3.35-1.3,3.9-3.89c0-0.94-0.85-2.36-2.54-4.28c0-0.23,0.45-0.36,1.37-0.39h3.71l7.03-0.19c4.55,0,6.83-1.3,6.83-3.89
			C184.2,181.13,182.96,179.7,180.91,179.7z M160.41,179.12h-0.2c-1.01-1.13-3.48-6.77-7.42-16.91c0-0.78,5.21-1.68,15.62-2.72
			c4.55,0,6.83,0.71,6.83,2.14v0.78C174.76,165.96,169.81,171.54,160.41,179.12z"/>
		<path class="st4" d="M219.27,160.65c-0.33-2.98-1.63-4.47-3.9-4.47c-2.44,0-3.81,1.49-4.1,4.47v21.77h-0.39l-11.91-9.91
			c-6.48-6.35-10.51-9.53-12.1-9.53c-2.02,0-3.38,1.23-4.1,3.69l0.2,1.94c2.99,9.91,4.49,16.39,4.49,19.44l-0.2,0.97
			c0.36,2.85,1.59,4.28,3.71,4.28h0.2c2.02,0,3.45-1.56,4.29-4.67c-0.26-3.56-0.65-6.67-1.17-9.33h0.39l15.62,13.22
			c2.02,2.72,3.77,4.08,5.27,4.08h0.2c2.6-0.58,3.9-1.75,3.9-3.5l-0.39-20.41V160.65z"/>
	</g>
</g>
</svg>
