<?xml version="1.0" encoding="utf-8"?>
<!-- Generator: Adobe Illustrator 25.2.0, SVG Export Plug-In . SVG Version: 6.00 Build 0)  -->
<svg version="1.1" id="Layer_1" xmlns="http://www.w3.org/2000/svg" xmlns:xlink="http://www.w3.org/1999/xlink" x="0px" y="0px"
	 viewBox="0 0 139 73" style="enable-background:new 0 0 139 73;" xml:space="preserve">
<style type="text/css">
	.st0{fill:#BCBEC0;}
	.st1{fill:#020202;}
	.st2{fill:#FFFFFF;}
</style>
<g>
	<path class="st0" d="M78.83,72.29c-2.21-0.53-4.21-1.37-5.95-2.51c-4.43,1.88-8.91,2.83-13.35,2.83c-4.79,0-9.26-1.1-13.15-3.22
		c-3.87,2.14-8.03,3.22-12.42,3.22c-10.52,0-20.48-5.37-29.62-15.97l-1.47-1.7L0,46.86l0.81-3.45c0.95-4.06,2.63-6.79,4.46-8.62
		c-0.93-2.35-1.87-4.97-2.85-7.9l-1.09-3.25l0.79-3.34c1.93-8.12,7.89-13.17,15.57-13.17h0.37c2.76,0,8.24,0.8,12.4,6.5
		c2.87-8.34,9.72-11.38,15.09-11.38h0.19c3.97,0,8.72,1.61,12,5.82c1.02-0.13,2.06-0.19,3.1-0.19c2.83,0,5.62,0.54,8.35,1.62
		c1.13-1.89,2.53-3.48,4.18-4.76l0.4-0.29C77.93,1.5,82.64,0,87.77,0c8.1,0,15.45,2.29,21.93,6.81c2.09-2.21,5.05-4.01,9.05-4.86
		l1.23-0.26h1.26c6.88,0,15.18,4.58,16.03,17.46c0.65,5.17,0.98,11.1,0.98,17.63v5.44c0,1.93-0.25,3.75-0.74,5.45
		c0.75,1.98,1.24,4.21,1.45,6.65l0.04,0.51v1.96l-0.08,0.68c-1.19,10.46-8.8,15.14-15.82,15.14c-4.75,0-8.95-2.05-11.82-5.63h-2.95
		c-10.83,0-15.98,1.78-18.4,3.28l-1.47,0.91L81.8,73L78.83,72.29z"/>
	<path class="st1" d="M134.59,52.14c-0.26-3.04-1.01-5.28-1.99-6.93c0.79-1.53,1.26-3.41,1.26-5.69v-5.44
		c0-6.36-0.32-12.1-0.96-17.06c-0.66-11.15-7.87-12.02-10.08-12.02h-0.63l-0.62,0.13c-5.69,1.21-8.04,4.98-8.42,8.42
		C106.5,6.75,98.5,3.3,89.36,3.3c-3.87,0-7.42,1.13-10.56,3.35l-0.2,0.15c-2.34,1.81-3.9,4.63-4.75,8.6
		c-3.71-2.8-7.54-4.22-11.42-4.22c-2.12,0-4.17,0.33-6.15,1c-2.22-6.24-7.65-6.63-8.95-6.63h-0.19c-1.86,0-8.09,0.67-9.96,9.22
		l-0.23,1.06l0.62,4.34l-0.09,1.06c-1.35,5.07-2.65,6.75-3.1,7.21h-0.97c-0.46-0.51-1.58-2.03-2.93-5.91
		c-2.12-9.99-7.05-12.1-10.83-12.1h-0.37c-4.83,0-8.48,3.2-9.75,8.55l-0.4,1.67l0.54,1.63c1.64,4.91,3.19,8.95,4.7,12.18
		C12.18,35,9.47,36.8,8.23,42.08l-0.4,1.73l1.91,5.35l0.73,0.85c7.95,9.22,16.39,13.9,25.09,13.9c4.47,0,8.63-1.47,12.43-4.38
		c3.6,2.89,8.04,4.38,13.14,4.38c4.55,0,9.21-1.24,13.83-3.7c0.16-0.08,0.31-0.16,0.46-0.25c1.43,1.81,3.61,3.13,6.39,3.79
		l1.48,0.35l4.36-1.19l0.74-0.45c4.47-2.77,11.72-4.17,21.54-4.17h6.24c1.86,4.07,5.38,5.63,8.53,5.63c4.23,0,9.04-2.58,9.87-9.82
		l0.04-0.34V52.4L134.59,52.14z M99.3,27.67c-0.35-0.41-0.67-0.81-0.98-1.19c0.64,0.6,1.27,1.27,1.9,2.03
		C99.91,28.23,99.61,27.95,99.3,27.67z"/>
	<path class="st2" d="M122.66,46.34c0-1.03-0.56-2.09-1.68-3.19c-2.71-0.59-5.08-1.34-7.11-2.25c-5.83-2.09-11.56-5.79-17.2-11.07
		c-4.77-5.6-7.26-10.23-7.48-13.89v-0.38l0.37-0.38h3.18c7.35,0,13.71,5.25,19.07,15.76c0.56,3.5,1.93,5.25,4.11,5.25
		c1.99,0,3.3-1.31,3.93-3.94h-0.19c0-3.1-2.56-8.1-7.67-15.01c-5.83-6.63-12.81-9.95-20.94-9.95c-2.62,0-4.99,0.75-7.11,2.25
		c-1.22,0.94-2.09,2.75-2.62,5.44l0.19,0.19v1.31c0,1.22,0.56,3.35,1.68,6.38c1.09,3.5,4.27,8.07,9.54,13.7
		c1.81,1.72,4.49,3.85,8.04,6.38v0.19c-4.58,0.63-8.32,1.5-11.22,2.63h-0.19c-0.41-3.06-0.97-6.07-1.68-9.01
		c0-5.13-1.31-7.69-3.93-7.69s-3.93,1.81-3.93,5.44c0.3,1.77,0.56,3.36,0.78,4.76c-6.54,5.62-12.23,8.6-17.05,8.93h-0.93l-2.62-0.38
		c-3.33-1.64-5.17-4.21-5.53-7.7c0.18-0.58,0.34-1.15,0.46-1.71c2.85,0.88,5.36,1.34,7.5,1.34c6.98,0,11.72-1.19,14.21-3.57
		c1.53-2.13,2.4-4.25,2.62-6.38c0-2.13-1-4.63-2.99-7.51c-4.14-4.75-8.2-7.13-12.15-7.13c-2.65,0-5.14,0.75-7.48,2.25
		c-1.07,0.81-2.05,1.66-2.95,2.55c-0.23-1.13-0.47-2.28-0.74-3.49c0-4.63-1.31-6.94-3.93-6.94h-0.19c-2.09,0-3.46,1.5-4.11,4.5
		L45.29,18l-0.19,2.25c-2.09,8.13-4.96,12.2-8.6,12.2h-2.06c-3.02,0-5.7-3.44-8.04-10.32c-1.03-5.13-2.71-7.69-5.05-7.69h-0.37
		c-1.99,0-3.3,1.31-3.93,3.94c2.52,7.57,4.83,12.95,6.92,16.14c3.46,3.88,7.14,5.82,11.03,5.82c4.48,0,8.35-1.82,11.63-5.41
		c-0.05,0.67-0.09,1.34-0.09,2.03c0,0.71,0.04,1.45,0.11,2.21c-2.62,5.9-5.45,8.86-8.48,8.86h-1.87c-3.15-0.28-6.33-1.78-9.54-4.5
		c-3.46-3.31-5.89-5.13-7.29-5.44l-1.68,0.19c-0.87,0-1.56,1.06-2.06,3.19l0.93,2.63c6.79,7.88,13.65,11.82,20.57,11.82
		c4.49,0,8.6-2.19,12.34-6.57c0.12-0.17,0.22-0.33,0.34-0.49c2.95,4.7,7.24,7.06,12.89,7.06c3.58,0,7.26-1,11.03-3
		c3.11-1.65,5.62-3.18,7.56-4.58l-0.26,3.83c0,1.91,1.25,3.16,3.74,3.75l2.06-0.56c5.45-3.38,13.68-5.07,24.68-5.07h7.29
		c1.99,0,3.24-1.25,3.74-3.75V46.34z M63.76,22.88l1.5,0.19c4.11,2.19,6.17,4.38,6.17,6.57v0.56c0,1.25-2.87,1.88-8.6,1.88
		c-3.3,0-5.61-0.69-6.92-2.06C58.02,25.26,60.64,22.88,63.76,22.88z"/>
	<path class="st2" d="M121.91,37.52l0.19,1.13c0,1.97,1.25,3.22,3.74,3.75v-0.19c2.49,0,3.74-1.56,3.74-4.69v-5.44
		c0-6.22-0.31-11.73-0.93-16.51c-0.22-4.38-1.59-6.57-4.11-6.57c-2.49,0.53-3.74,1.72-3.74,3.57c0.75,6.97,1.12,12.98,1.12,18.01
		V37.52z"/>
	<path class="st2" d="M126.4,44.65c-2.24,0-3.49,1.44-3.74,4.32v2.44c0.41,3,1.65,4.5,3.74,4.5c2.27,0,3.58-1.5,3.93-4.5v-0.75
		C129.98,46.65,128.67,44.65,126.4,44.65z"/>
</g>
</svg>
